%TF.GenerationSoftware,KiCad,Pcbnew,(5.99.0-10394-g2e15de97e0)*%
%TF.CreationDate,2021-04-26T17:42:33+02:00*%
%TF.ProjectId,TFSBEC01A,54465342-4543-4303-9141-2e6b69636164,rev?*%
%TF.SameCoordinates,Original*%
%TF.FileFunction,Copper,L2,Bot*%
%TF.FilePolarity,Positive*%
%FSLAX46Y46*%
G04 Gerber Fmt 4.6, Leading zero omitted, Abs format (unit mm)*
G04 Created by KiCad (PCBNEW (5.99.0-10394-g2e15de97e0)) date 2021-04-26 17:42:33*
%MOMM*%
%LPD*%
G01*
G04 APERTURE LIST*
G04 Aperture macros list*
%AMRoundRect*
0 Rectangle with rounded corners*
0 $1 Rounding radius*
0 $2 $3 $4 $5 $6 $7 $8 $9 X,Y pos of 4 corners*
0 Add a 4 corners polygon primitive as box body*
4,1,4,$2,$3,$4,$5,$6,$7,$8,$9,$2,$3,0*
0 Add four circle primitives for the rounded corners*
1,1,$1+$1,$2,$3*
1,1,$1+$1,$4,$5*
1,1,$1+$1,$6,$7*
1,1,$1+$1,$8,$9*
0 Add four rect primitives between the rounded corners*
20,1,$1+$1,$2,$3,$4,$5,0*
20,1,$1+$1,$4,$5,$6,$7,0*
20,1,$1+$1,$6,$7,$8,$9,0*
20,1,$1+$1,$8,$9,$2,$3,0*%
G04 Aperture macros list end*
%TA.AperFunction,ComponentPad*%
%ADD10C,1.400000*%
%TD*%
%TA.AperFunction,ComponentPad*%
%ADD11R,3.500000X3.500000*%
%TD*%
%TA.AperFunction,ComponentPad*%
%ADD12C,3.500000*%
%TD*%
%TA.AperFunction,SMDPad,CuDef*%
%ADD13RoundRect,0.200000X1.000000X-0.200000X1.000000X0.200000X-1.000000X0.200000X-1.000000X-0.200000X0*%
%TD*%
%TA.AperFunction,SMDPad,CuDef*%
%ADD14RoundRect,0.250000X1.400000X-0.650000X1.400000X0.650000X-1.400000X0.650000X-1.400000X-0.650000X0*%
%TD*%
%TA.AperFunction,SMDPad,CuDef*%
%ADD15R,1.397000X0.889000*%
%TD*%
%TA.AperFunction,SMDPad,CuDef*%
%ADD16RoundRect,0.250000X-0.625000X0.375000X-0.625000X-0.375000X0.625000X-0.375000X0.625000X0.375000X0*%
%TD*%
%TA.AperFunction,SMDPad,CuDef*%
%ADD17R,0.889000X1.397000*%
%TD*%
%TA.AperFunction,SMDPad,CuDef*%
%ADD18R,0.500000X1.600000*%
%TD*%
%TA.AperFunction,SMDPad,CuDef*%
%ADD19R,0.900000X0.600000*%
%TD*%
%TA.AperFunction,SMDPad,CuDef*%
%ADD20R,1.800000X1.700000*%
%TD*%
%TA.AperFunction,SMDPad,CuDef*%
%ADD21R,3.360000X4.860000*%
%TD*%
%TA.AperFunction,SMDPad,CuDef*%
%ADD22R,1.390000X1.400000*%
%TD*%
%TA.AperFunction,SMDPad,CuDef*%
%ADD23RoundRect,0.150000X-0.700000X0.150000X-0.700000X-0.150000X0.700000X-0.150000X0.700000X0.150000X0*%
%TD*%
%TA.AperFunction,SMDPad,CuDef*%
%ADD24RoundRect,0.250000X-1.100000X0.250000X-1.100000X-0.250000X1.100000X-0.250000X1.100000X0.250000X0*%
%TD*%
%TA.AperFunction,SMDPad,CuDef*%
%ADD25R,0.700000X0.600000*%
%TD*%
%TA.AperFunction,SMDPad,CuDef*%
%ADD26RoundRect,0.250000X0.625000X-0.375000X0.625000X0.375000X-0.625000X0.375000X-0.625000X-0.375000X0*%
%TD*%
%TA.AperFunction,SMDPad,CuDef*%
%ADD27R,0.950000X1.500000*%
%TD*%
%TA.AperFunction,SMDPad,CuDef*%
%ADD28RoundRect,0.250000X0.375000X0.625000X-0.375000X0.625000X-0.375000X-0.625000X0.375000X-0.625000X0*%
%TD*%
%TA.AperFunction,SMDPad,CuDef*%
%ADD29R,3.850000X4.000000*%
%TD*%
%TA.AperFunction,SMDPad,CuDef*%
%ADD30RoundRect,0.150000X-0.825000X-0.150000X0.825000X-0.150000X0.825000X0.150000X-0.825000X0.150000X0*%
%TD*%
%TA.AperFunction,ComponentPad*%
%ADD31C,0.500000*%
%TD*%
%TA.AperFunction,SMDPad,CuDef*%
%ADD32RoundRect,0.249999X-0.955001X-1.400001X0.955001X-1.400001X0.955001X1.400001X-0.955001X1.400001X0*%
%TD*%
%TA.AperFunction,SMDPad,CuDef*%
%ADD33R,1.060000X0.650000*%
%TD*%
%TA.AperFunction,ViaPad*%
%ADD34C,0.800000*%
%TD*%
%TA.AperFunction,Conductor*%
%ADD35C,0.400000*%
%TD*%
%TA.AperFunction,Conductor*%
%ADD36C,0.500000*%
%TD*%
%TA.AperFunction,Conductor*%
%ADD37C,0.800000*%
%TD*%
G04 APERTURE END LIST*
D10*
%TO.P,J19,*%
%TO.N,*%
X35500000Y16500000D03*
X35500000Y27500000D03*
D11*
%TO.P,J19,1,-*%
%TO.N,GND*%
X30500000Y24500000D03*
D12*
%TO.P,J19,2,+*%
%TO.N,VCC*%
X30500000Y19500000D03*
%TD*%
D10*
%TO.P,J18,*%
%TO.N,*%
X3335000Y27500000D03*
X3335000Y16500000D03*
D11*
%TO.P,J18,1,-*%
%TO.N,Net-(J18-Pad1)*%
X13335000Y24500000D03*
D12*
%TO.P,J18,2,+*%
%TO.N,VCC*%
X13335000Y19500000D03*
%TD*%
D13*
%TO.P,J1,1*%
%TO.N,GND*%
X37636000Y4505000D03*
%TO.P,J1,2*%
X37636000Y6005000D03*
%TO.P,J1,3*%
%TO.N,/SENSE_VOLTAGE*%
X37636000Y7505000D03*
%TO.P,J1,4*%
%TO.N,/SENSE_CURRENT*%
X37636000Y9005000D03*
%TO.P,J1,5*%
%TO.N,/5V3*%
X37636000Y10505000D03*
%TO.P,J1,6*%
X37636000Y12005000D03*
D14*
%TO.P,J1,MP*%
%TO.N,GND*%
X42686000Y14605000D03*
X42686000Y1905000D03*
%TD*%
D15*
%TO.P,C15,1*%
%TO.N,Net-(C15-Pad1)*%
X14528800Y11074400D03*
%TO.P,C15,2*%
%TO.N,Net-(C15-Pad2)*%
X14528800Y9169400D03*
%TD*%
%TO.P,C12,1*%
%TO.N,VCC*%
X10820400Y15417800D03*
%TO.P,C12,2*%
%TO.N,GND*%
X10820400Y17322800D03*
%TD*%
D16*
%TO.P,C8,1*%
%TO.N,VCC*%
X4572000Y13309600D03*
%TO.P,C8,2*%
%TO.N,GND*%
X4572000Y10509600D03*
%TD*%
D17*
%TO.P,R7,1*%
%TO.N,Net-(R7-Pad1)*%
X24447500Y28152000D03*
%TO.P,R7,2*%
%TO.N,/SENSE_CURRENT*%
X26352500Y28152000D03*
%TD*%
D15*
%TO.P,R1,1*%
%TO.N,/5V3*%
X13589000Y1990000D03*
%TO.P,R1,2*%
%TO.N,Net-(D1-Pad2)*%
X13589000Y3895000D03*
%TD*%
%TO.P,R2,1*%
%TO.N,Net-(R2-Pad1)*%
X17424400Y18669000D03*
%TO.P,R2,2*%
%TO.N,GND*%
X17424400Y20574000D03*
%TD*%
D16*
%TO.P,C9,1*%
%TO.N,VCC*%
X2032000Y13309600D03*
%TO.P,C9,2*%
%TO.N,GND*%
X2032000Y10509600D03*
%TD*%
D18*
%TO.P,U1,1,VCC*%
%TO.N,+3V3*%
X18085000Y27935000D03*
%TO.P,U1,2,GND*%
%TO.N,GND*%
X19685000Y27935000D03*
%TO.P,U1,3,VOUT*%
%TO.N,Net-(R7-Pad1)*%
X21285000Y27935000D03*
D19*
%TO.P,U1,4,NC*%
%TO.N,N/C*%
X22485000Y25435000D03*
D20*
%TO.P,U1,5,IP+*%
%TO.N,GND*%
X21185000Y23085000D03*
%TO.P,U1,6,IP-*%
%TO.N,Net-(J18-Pad1)*%
X18185000Y23085000D03*
D19*
%TO.P,U1,7,NC*%
%TO.N,N/C*%
X16885000Y25435000D03*
%TD*%
D21*
%TO.P,D3,1,K*%
%TO.N,Net-(C15-Pad2)*%
X26162000Y14586000D03*
D22*
%TO.P,D3,2,A*%
%TO.N,GND*%
X27082000Y18568000D03*
X25242000Y18568000D03*
%TD*%
D15*
%TO.P,C14,1*%
%TO.N,Net-(C14-Pad1)*%
X22860000Y15748000D03*
%TO.P,C14,2*%
%TO.N,GND*%
X22860000Y17653000D03*
%TD*%
D23*
%TO.P,J2,1*%
%TO.N,/5V3*%
X40314000Y26239000D03*
%TO.P,J2,2*%
X40314000Y24989000D03*
%TO.P,J2,3*%
%TO.N,/SENSE_CURRENT*%
X40314000Y23739000D03*
%TO.P,J2,4*%
%TO.N,/SENSE_VOLTAGE*%
X40314000Y22489000D03*
%TO.P,J2,5*%
%TO.N,GND*%
X40314000Y21239000D03*
%TO.P,J2,6*%
X40314000Y19989000D03*
D24*
%TO.P,J2,MP*%
X43514000Y18139000D03*
X43514000Y28089000D03*
%TD*%
D15*
%TO.P,R6,1*%
%TO.N,Net-(R5-Pad2)*%
X29464000Y3586500D03*
%TO.P,R6,2*%
%TO.N,GND*%
X29464000Y1681500D03*
%TD*%
D16*
%TO.P,C7,1*%
%TO.N,VCC*%
X7112000Y13309600D03*
%TO.P,C7,2*%
%TO.N,GND*%
X7112000Y10509600D03*
%TD*%
D17*
%TO.P,C19,1*%
%TO.N,/SENSE_CURRENT*%
X28321000Y28152000D03*
%TO.P,C19,2*%
%TO.N,GND*%
X30226000Y28152000D03*
%TD*%
D25*
%TO.P,D2,1,K*%
%TO.N,/5V3*%
X6477000Y3579000D03*
%TO.P,D2,2,A*%
%TO.N,GND*%
X6477000Y2179000D03*
%TD*%
D15*
%TO.P,C16,1*%
%TO.N,/5V3*%
X29464000Y9174500D03*
%TO.P,C16,2*%
%TO.N,GND*%
X29464000Y11079500D03*
%TD*%
D16*
%TO.P,C18,1*%
%TO.N,/5V3*%
X32131000Y4856500D03*
%TO.P,C18,2*%
%TO.N,GND*%
X32131000Y2056500D03*
%TD*%
D17*
%TO.P,C4,1*%
%TO.N,+3V3*%
X15049500Y28025000D03*
%TO.P,C4,2*%
%TO.N,GND*%
X13144500Y28025000D03*
%TD*%
D15*
%TO.P,C13,1*%
%TO.N,+3V3*%
X2336800Y7366000D03*
%TO.P,C13,2*%
%TO.N,GND*%
X2336800Y5461000D03*
%TD*%
D26*
%TO.P,C1,1*%
%TO.N,VCC*%
X5943600Y15668800D03*
%TO.P,C1,2*%
%TO.N,GND*%
X5943600Y18468800D03*
%TD*%
%TO.P,C11,1*%
%TO.N,VCC*%
X8483600Y15668800D03*
%TO.P,C11,2*%
%TO.N,GND*%
X8483600Y18468800D03*
%TD*%
D27*
%TO.P,D1,1,K*%
%TO.N,GND*%
X9362800Y6604000D03*
%TO.P,D1,2,A*%
%TO.N,Net-(D1-Pad2)*%
X13512800Y6604000D03*
%TD*%
D26*
%TO.P,C17,1*%
%TO.N,/5V3*%
X32131000Y7194000D03*
%TO.P,C17,2*%
%TO.N,GND*%
X32131000Y9994000D03*
%TD*%
D15*
%TO.P,R4,1*%
%TO.N,/SENSE_VOLTAGE*%
X32258000Y14097000D03*
%TO.P,R4,2*%
%TO.N,GND*%
X32258000Y12192000D03*
%TD*%
%TO.P,C5,1*%
%TO.N,/5V3*%
X8763000Y3895000D03*
%TO.P,C5,2*%
%TO.N,GND*%
X8763000Y1990000D03*
%TD*%
D28*
%TO.P,C6,1*%
%TO.N,VCC*%
X10210800Y20675600D03*
%TO.P,C6,2*%
%TO.N,GND*%
X7410800Y20675600D03*
%TD*%
D25*
%TO.P,D4,1,K*%
%TO.N,/SENSE_VOLTAGE*%
X34417000Y13716000D03*
%TO.P,D4,2,A*%
%TO.N,GND*%
X34417000Y12316000D03*
%TD*%
D15*
%TO.P,C3,1*%
%TO.N,/5V3*%
X11049000Y3895000D03*
%TO.P,C3,2*%
%TO.N,GND*%
X11049000Y1990000D03*
%TD*%
%TO.P,R5,1*%
%TO.N,/5V3*%
X29464000Y7142500D03*
%TO.P,R5,2*%
%TO.N,Net-(R5-Pad2)*%
X29464000Y5237500D03*
%TD*%
D29*
%TO.P,L1,1,1*%
%TO.N,Net-(C15-Pad2)*%
X18019000Y6178000D03*
%TO.P,L1,2,2*%
%TO.N,/5V3*%
X25669000Y6178000D03*
%TD*%
D30*
%TO.P,U3,1,BOOT*%
%TO.N,Net-(C15-Pad1)*%
X15116000Y12954000D03*
%TO.P,U3,2,VIN*%
%TO.N,VCC*%
X15116000Y14224000D03*
%TO.P,U3,3,EN*%
X15116000Y15494000D03*
%TO.P,U3,4,RT/SYNC*%
%TO.N,Net-(R2-Pad1)*%
X15116000Y16764000D03*
%TO.P,U3,5,FB*%
%TO.N,Net-(R5-Pad2)*%
X20066000Y16764000D03*
%TO.P,U3,6,SS*%
%TO.N,Net-(C14-Pad1)*%
X20066000Y15494000D03*
%TO.P,U3,7,GND*%
%TO.N,GND*%
X20066000Y14224000D03*
%TO.P,U3,8,SW*%
%TO.N,Net-(C15-Pad2)*%
X20066000Y12954000D03*
D31*
%TO.P,U3,9,GND*%
%TO.N,GND*%
X18291000Y16059000D03*
X18291000Y13659000D03*
X18291000Y14859000D03*
D32*
X17591000Y14859000D03*
D31*
X16891000Y16059000D03*
X16891000Y13659000D03*
X16891000Y14859000D03*
%TD*%
D15*
%TO.P,R3,1*%
%TO.N,VCC*%
X30099000Y14859000D03*
%TO.P,R3,2*%
%TO.N,/SENSE_VOLTAGE*%
X30099000Y12954000D03*
%TD*%
D33*
%TO.P,U2,1,VIN*%
%TO.N,/5V3*%
X6756400Y7401600D03*
%TO.P,U2,2,GND*%
%TO.N,GND*%
X6756400Y6451600D03*
%TO.P,U2,3,EN*%
%TO.N,/5V3*%
X6756400Y5501600D03*
%TO.P,U2,4,NC*%
%TO.N,N/C*%
X4556400Y5501600D03*
%TO.P,U2,5,VOUT*%
%TO.N,+3V3*%
X4556400Y7401600D03*
%TD*%
D16*
%TO.P,C10,1*%
%TO.N,VCC*%
X12192000Y13264800D03*
%TO.P,C10,2*%
%TO.N,GND*%
X12192000Y10464800D03*
%TD*%
%TO.P,C2,1*%
%TO.N,VCC*%
X9652000Y13258800D03*
%TO.P,C2,2*%
%TO.N,GND*%
X9652000Y10458800D03*
%TD*%
D34*
%TO.N,GND*%
X27940000Y25908000D03*
X25908000Y24892000D03*
X7112000Y8890000D03*
X24638000Y1524000D03*
X3810000Y3048000D03*
X25400000Y2794000D03*
X34036000Y3302000D03*
X14986000Y7366000D03*
X2540000Y11938000D03*
X12446000Y11938000D03*
X24130000Y2794000D03*
X17018000Y12446000D03*
X43688000Y23622000D03*
X21082000Y3810000D03*
X24892000Y24892000D03*
X23368000Y1524000D03*
X10160000Y22606000D03*
X43688000Y24638000D03*
X43688000Y25654000D03*
X7112000Y11938000D03*
X11938000Y26924000D03*
X4826000Y2032000D03*
X9398000Y11938000D03*
X3302000Y8890000D03*
X31750000Y16510000D03*
X6096000Y8890000D03*
X4826000Y3048000D03*
X27940000Y22860000D03*
X35306000Y3302000D03*
X16256000Y11430000D03*
X10160000Y8890000D03*
X35306000Y5842000D03*
X26924000Y24892000D03*
X23876000Y22860000D03*
X5842000Y20066000D03*
X8382000Y11938000D03*
X31750000Y15494000D03*
X5842000Y21336000D03*
X35306000Y24892000D03*
X35306000Y22860000D03*
X27940000Y23876000D03*
X6096000Y11938000D03*
X25908000Y1524000D03*
X23876000Y23876000D03*
X26924000Y23876000D03*
X1270000Y8890000D03*
X8890000Y22606000D03*
X35306000Y21844000D03*
X32766000Y16510000D03*
X34036000Y11176000D03*
X35306000Y4572000D03*
X14986000Y6096000D03*
X26924000Y25908000D03*
X25908000Y22860000D03*
X2286000Y8890000D03*
X11176000Y28956000D03*
X34036000Y5842000D03*
X35306000Y25908000D03*
X12192000Y8890000D03*
X23876000Y25908000D03*
X26162000Y9144000D03*
X9144000Y8890000D03*
X24892000Y25908000D03*
X24892000Y23876000D03*
X22606000Y5080000D03*
X35306000Y20828000D03*
X19558000Y3302000D03*
X27940000Y24892000D03*
X35306000Y2032000D03*
X9652000Y5080000D03*
X35306000Y23876000D03*
X10414000Y11938000D03*
X23876000Y24892000D03*
X3556000Y11938000D03*
X11176000Y8890000D03*
X39624000Y18796000D03*
X11430000Y11938000D03*
X40640000Y18796000D03*
X7620000Y22606000D03*
X32766000Y15494000D03*
X34798000Y17780000D03*
X17526000Y3302000D03*
X34036000Y2032000D03*
X27432000Y10414000D03*
X4826000Y4064000D03*
X1524000Y11938000D03*
X43688000Y22606000D03*
X15494000Y3302000D03*
X3810000Y4064000D03*
X32512000Y17526000D03*
X8128000Y8890000D03*
X3810000Y2032000D03*
X26924000Y22860000D03*
X35306000Y19812000D03*
X25908000Y25908000D03*
X26670000Y2794000D03*
X25908000Y23876000D03*
X27432000Y9144000D03*
X24892000Y22860000D03*
X34036000Y4572000D03*
X35306000Y18796000D03*
%TO.N,+3V3*%
X16642000Y27935000D03*
X4699000Y8763000D03*
%TO.N,/SENSE_CURRENT*%
X27390000Y28152000D03*
X40259000Y15494000D03*
X42291000Y23749000D03*
%TO.N,/SENSE_VOLTAGE*%
X42291000Y22479000D03*
X40132000Y7493000D03*
X35433000Y13716000D03*
%TO.N,Net-(R5-Pad2)*%
X29464000Y4445000D03*
X21590000Y16764000D03*
%TD*%
D35*
%TO.N,VCC*%
X30099000Y19099000D02*
X30500000Y19500000D01*
X30099000Y14859000D02*
X30099000Y19099000D01*
D36*
%TO.N,/5V3*%
X11049000Y3895000D02*
X8763000Y3895000D01*
X6756400Y7401600D02*
X7736800Y7401600D01*
X8178800Y4479200D02*
X8763000Y3895000D01*
X13589000Y1990000D02*
X12954000Y1990000D01*
X12954000Y1990000D02*
X11049000Y3895000D01*
X6756400Y5501600D02*
X8163600Y5501600D01*
D37*
X32131000Y4856500D02*
X32131000Y7194000D01*
D36*
X8163600Y5501600D02*
X8178800Y5486400D01*
X21481000Y1990000D02*
X25669000Y6178000D01*
X7736800Y7401600D02*
X8178800Y6959600D01*
X6477000Y3579000D02*
X8447000Y3579000D01*
X8178800Y5486400D02*
X8178800Y4479200D01*
X13589000Y1990000D02*
X21481000Y1990000D01*
X8447000Y3579000D02*
X8763000Y3895000D01*
X8178800Y6959600D02*
X8178800Y5486400D01*
X6756400Y5501600D02*
X7156400Y5501600D01*
%TO.N,+3V3*%
X4556400Y7401600D02*
X2372400Y7401600D01*
D35*
X15139500Y27935000D02*
X15049500Y28025000D01*
D36*
X2372400Y7401600D02*
X2336800Y7366000D01*
D35*
X18085000Y27935000D02*
X16642000Y27935000D01*
D36*
X4556400Y7401600D02*
X4556400Y8620400D01*
D35*
X16642000Y27935000D02*
X15139500Y27935000D01*
D36*
X4556400Y8620400D02*
X4699000Y8763000D01*
D35*
%TO.N,Net-(C14-Pad1)*%
X20066000Y15494000D02*
X22606000Y15494000D01*
X22606000Y15494000D02*
X22860000Y15748000D01*
%TO.N,Net-(C15-Pad1)*%
X15116000Y11661600D02*
X14528800Y11074400D01*
X15116000Y12954000D02*
X15116000Y11661600D01*
%TO.N,Net-(C15-Pad2)*%
X17881600Y9169400D02*
X18019000Y9032000D01*
X18019000Y9032000D02*
X18019000Y6178000D01*
X14528800Y9169400D02*
X17881600Y9169400D01*
D36*
%TO.N,Net-(D1-Pad2)*%
X13589000Y6527800D02*
X13512800Y6604000D01*
X13589000Y3895000D02*
X13589000Y6527800D01*
D35*
%TO.N,/SENSE_CURRENT*%
X39993000Y9005000D02*
X37636000Y9005000D01*
X26352500Y28152000D02*
X27390000Y28152000D01*
X28321000Y28152000D02*
X27390000Y28152000D01*
X40259000Y15494000D02*
X40259000Y9271000D01*
X40259000Y9271000D02*
X39993000Y9005000D01*
X42291000Y23749000D02*
X40324000Y23749000D01*
X40324000Y23749000D02*
X40314000Y23739000D01*
%TO.N,/SENSE_VOLTAGE*%
X34417000Y13716000D02*
X35433000Y13716000D01*
X37648000Y7493000D02*
X37636000Y7505000D01*
X32258000Y14097000D02*
X31242000Y14097000D01*
X42291000Y22479000D02*
X40324000Y22479000D01*
X34417000Y13716000D02*
X32639000Y13716000D01*
X40132000Y7493000D02*
X37648000Y7493000D01*
X31242000Y14097000D02*
X30099000Y12954000D01*
X40324000Y22479000D02*
X40314000Y22489000D01*
X32639000Y13716000D02*
X32258000Y14097000D01*
%TO.N,Net-(R2-Pad1)*%
X16383000Y18669000D02*
X17424400Y18669000D01*
X15116000Y17402000D02*
X16383000Y18669000D01*
X15116000Y16764000D02*
X15116000Y17402000D01*
%TO.N,Net-(R5-Pad2)*%
X20066000Y16764000D02*
X21590000Y16764000D01*
X29464000Y3586500D02*
X29464000Y5237500D01*
X29464000Y4445000D02*
X29464000Y5237500D01*
%TO.N,Net-(R7-Pad1)*%
X21285000Y27935000D02*
X24230500Y27935000D01*
X24230500Y27935000D02*
X24447500Y28152000D01*
%TD*%
%TA.AperFunction,Conductor*%
%TO.N,GND*%
G36*
X44442121Y29479998D02*
G01*
X44488614Y29426342D01*
X44500000Y29374000D01*
X44500000Y626000D01*
X44479998Y557879D01*
X44426342Y511386D01*
X44374000Y500000D01*
X626000Y500000D01*
X557879Y520002D01*
X511386Y573658D01*
X500000Y626000D01*
X500000Y3879000D01*
X5867500Y3879000D01*
X5867500Y3279000D01*
X5887253Y3179694D01*
X5943506Y3095506D01*
X5953822Y3088613D01*
X5967416Y3079530D01*
X6027694Y3039253D01*
X6127000Y3019500D01*
X6827000Y3019500D01*
X6926306Y3039253D01*
X6947275Y3053264D01*
X7017278Y3074500D01*
X8377215Y3074500D01*
X8388386Y3073252D01*
X8388433Y3073842D01*
X8397384Y3073122D01*
X8406138Y3071141D01*
X8456381Y3074258D01*
X8464182Y3074500D01*
X8481914Y3074500D01*
X8493459Y3076153D01*
X8503496Y3077181D01*
X8541358Y3079530D01*
X8550320Y3080086D01*
X8558764Y3083134D01*
X8562089Y3083823D01*
X8577874Y3087759D01*
X8581115Y3088707D01*
X8590000Y3089979D01*
X8598171Y3093694D01*
X8598174Y3093695D01*
X8624844Y3105822D01*
X8632716Y3109401D01*
X8642052Y3113202D01*
X8686196Y3129139D01*
X8693443Y3134433D01*
X8696420Y3136016D01*
X8710482Y3144233D01*
X8713331Y3146055D01*
X8721504Y3149771D01*
X8733906Y3160457D01*
X8798568Y3189767D01*
X8816149Y3191000D01*
X9461500Y3191000D01*
X9560806Y3210753D01*
X9644994Y3267006D01*
X9690095Y3334504D01*
X9744572Y3380030D01*
X9794859Y3390500D01*
X10017141Y3390500D01*
X10085262Y3370498D01*
X10121905Y3334504D01*
X10167006Y3267006D01*
X10251194Y3210753D01*
X10350500Y3191000D01*
X10987339Y3191000D01*
X11055460Y3170998D01*
X11076434Y3154095D01*
X12547918Y1682611D01*
X12554939Y1673825D01*
X12555389Y1674208D01*
X12561207Y1667372D01*
X12565996Y1659783D01*
X12572723Y1653842D01*
X12588409Y1639988D01*
X12626226Y1579902D01*
X12629305Y1557743D01*
X12630393Y1557850D01*
X12631000Y1551687D01*
X12631000Y1545500D01*
X12650753Y1446194D01*
X12707006Y1362006D01*
X12791194Y1305753D01*
X12890500Y1286000D01*
X14287500Y1286000D01*
X14386806Y1305753D01*
X14470994Y1362006D01*
X14516095Y1429504D01*
X14570572Y1475030D01*
X14620859Y1485500D01*
X21411215Y1485500D01*
X21422386Y1484252D01*
X21422433Y1484842D01*
X21431384Y1484122D01*
X21440138Y1482141D01*
X21490381Y1485258D01*
X21498182Y1485500D01*
X21515914Y1485500D01*
X21527459Y1487153D01*
X21537496Y1488181D01*
X21575358Y1490530D01*
X21584320Y1491086D01*
X21592764Y1494134D01*
X21596089Y1494823D01*
X21611874Y1498759D01*
X21615115Y1499707D01*
X21624000Y1500979D01*
X21632171Y1504694D01*
X21632174Y1504695D01*
X21655847Y1515459D01*
X21666716Y1520401D01*
X21676052Y1524202D01*
X21720196Y1540139D01*
X21727443Y1545433D01*
X21730420Y1547016D01*
X21744482Y1555233D01*
X21747330Y1557055D01*
X21755504Y1560771D01*
X21791039Y1591389D01*
X21798955Y1597675D01*
X21806869Y1603457D01*
X21806870Y1603458D01*
X21810800Y1606329D01*
X21822575Y1618104D01*
X21829423Y1624463D01*
X21858143Y1649209D01*
X21858145Y1649211D01*
X21864941Y1655067D01*
X21869821Y1662596D01*
X21875725Y1669364D01*
X21875788Y1669309D01*
X21884301Y1679830D01*
X24086066Y3881595D01*
X24148378Y3915621D01*
X24175161Y3918500D01*
X27594000Y3918500D01*
X27693306Y3938253D01*
X27777494Y3994506D01*
X27833747Y4078694D01*
X27853500Y4178000D01*
X27853500Y5217100D01*
X27873502Y5285221D01*
X27890405Y5306195D01*
X28290905Y5706695D01*
X28353217Y5740721D01*
X28424032Y5735656D01*
X28480868Y5693109D01*
X28505679Y5626589D01*
X28506000Y5617600D01*
X28506000Y4793000D01*
X28525753Y4693694D01*
X28582006Y4609506D01*
X28666194Y4553253D01*
X28687651Y4548985D01*
X28708282Y4544881D01*
X28771192Y4511973D01*
X28806323Y4450277D01*
X28809700Y4421302D01*
X28809700Y4402698D01*
X28789698Y4334577D01*
X28736042Y4288084D01*
X28708282Y4279119D01*
X28688798Y4275243D01*
X28666194Y4270747D01*
X28582006Y4214494D01*
X28525753Y4130306D01*
X28506000Y4031000D01*
X28506000Y3142000D01*
X28525753Y3042694D01*
X28582006Y2958506D01*
X28666194Y2902253D01*
X28765500Y2882500D01*
X30162500Y2882500D01*
X30261806Y2902253D01*
X30345994Y2958506D01*
X30402247Y3042694D01*
X30422000Y3142000D01*
X30422000Y4031000D01*
X30402247Y4130306D01*
X30345994Y4214494D01*
X30261806Y4270747D01*
X30220556Y4278952D01*
X30157646Y4311859D01*
X30122513Y4373554D01*
X30120129Y4418318D01*
X30122584Y4437752D01*
X30150965Y4502825D01*
X30210025Y4542227D01*
X30223007Y4545535D01*
X30261806Y4553253D01*
X30345994Y4609506D01*
X30402247Y4693694D01*
X30422000Y4793000D01*
X30422000Y5682000D01*
X30402247Y5781306D01*
X30345994Y5865494D01*
X30261806Y5921747D01*
X30162500Y5941500D01*
X28829900Y5941500D01*
X28761779Y5961502D01*
X28715286Y6015158D01*
X28705182Y6085432D01*
X28734676Y6150012D01*
X28740805Y6156595D01*
X28897305Y6313095D01*
X28959617Y6347121D01*
X28986400Y6350000D01*
X31295543Y6350000D01*
X31331644Y6344717D01*
X31368494Y6333697D01*
X31386603Y6328281D01*
X31446136Y6289599D01*
X31475306Y6224871D01*
X31476500Y6207564D01*
X31476500Y5846016D01*
X31456498Y5777895D01*
X31402842Y5731402D01*
X31380357Y5724807D01*
X31380502Y5724312D01*
X31371892Y5721794D01*
X31363000Y5720521D01*
X31354824Y5716804D01*
X31354822Y5716803D01*
X31310358Y5696586D01*
X31231496Y5660729D01*
X31122059Y5566433D01*
X31043487Y5445211D01*
X31002096Y5306809D01*
X31001500Y5298788D01*
X31001500Y4446586D01*
X31006136Y4414212D01*
X31015572Y4348326D01*
X31016979Y4338500D01*
X31020696Y4330324D01*
X31020697Y4330322D01*
X31038804Y4290500D01*
X31076771Y4206996D01*
X31171067Y4097559D01*
X31292289Y4018987D01*
X31339654Y4004822D01*
X31424150Y3979552D01*
X31424152Y3979552D01*
X31430691Y3977596D01*
X31438712Y3977000D01*
X32790914Y3977000D01*
X32833403Y3983085D01*
X32890107Y3991205D01*
X32890110Y3991206D01*
X32899000Y3992479D01*
X32907176Y3996196D01*
X32907178Y3996197D01*
X32957301Y4018987D01*
X33030504Y4052271D01*
X33042369Y4062494D01*
X33099652Y4111852D01*
X33139941Y4146567D01*
X33218513Y4267789D01*
X33247498Y4364707D01*
X33257948Y4399650D01*
X33257948Y4399652D01*
X33259904Y4406191D01*
X33260500Y4414212D01*
X33260500Y5266414D01*
X33245021Y5374500D01*
X33185229Y5506004D01*
X33090933Y5615441D01*
X32969711Y5694013D01*
X32913734Y5710754D01*
X32875397Y5722219D01*
X32815864Y5760901D01*
X32786694Y5825628D01*
X32785500Y5842936D01*
X32785500Y6204484D01*
X32805502Y6272605D01*
X32859158Y6319098D01*
X32881643Y6325693D01*
X32881498Y6326188D01*
X32890108Y6328706D01*
X32899000Y6329979D01*
X32907176Y6333696D01*
X32907178Y6333697D01*
X32958765Y6357153D01*
X33030504Y6389771D01*
X33139941Y6484067D01*
X33218513Y6605289D01*
X33254381Y6725222D01*
X33257948Y6737150D01*
X33257948Y6737152D01*
X33259904Y6743691D01*
X33260500Y6751712D01*
X33260500Y6814100D01*
X33280502Y6882221D01*
X33297405Y6903195D01*
X36263305Y9869095D01*
X36325617Y9903121D01*
X36352400Y9906000D01*
X36384304Y9906000D01*
X36447588Y9888955D01*
X36466847Y9877768D01*
X36476020Y9875642D01*
X36484781Y9872173D01*
X36483479Y9868885D01*
X36530173Y9842574D01*
X36563365Y9779814D01*
X36557356Y9709072D01*
X36514056Y9652808D01*
X36494440Y9641091D01*
X36394493Y9593097D01*
X36377723Y9585044D01*
X36370809Y9578652D01*
X36370808Y9578652D01*
X36358908Y9567652D01*
X36277392Y9492299D01*
X36208768Y9374153D01*
X36196662Y9321926D01*
X36183419Y9264792D01*
X36181500Y9256514D01*
X36181500Y8771742D01*
X36182199Y8767095D01*
X36182199Y8767090D01*
X36193053Y8694898D01*
X36196813Y8669888D01*
X36255956Y8546723D01*
X36262348Y8539809D01*
X36262348Y8539808D01*
X36288832Y8511158D01*
X36348701Y8446392D01*
X36466847Y8377768D01*
X36476021Y8375642D01*
X36484781Y8372173D01*
X36483479Y8368885D01*
X36530173Y8342574D01*
X36563365Y8279814D01*
X36557356Y8209072D01*
X36514056Y8152808D01*
X36494440Y8141091D01*
X36386213Y8089121D01*
X36377723Y8085044D01*
X36277392Y7992299D01*
X36208768Y7874153D01*
X36201198Y7841495D01*
X36183503Y7765154D01*
X36181500Y7756514D01*
X36181500Y7271742D01*
X36182199Y7267095D01*
X36182199Y7267090D01*
X36194894Y7182652D01*
X36196813Y7169888D01*
X36255956Y7046723D01*
X36348701Y6946392D01*
X36466847Y6877768D01*
X36518423Y6865813D01*
X36577491Y6852121D01*
X36577494Y6852121D01*
X36584486Y6850500D01*
X38669258Y6850500D01*
X38673905Y6851199D01*
X38673910Y6851199D01*
X38761801Y6864413D01*
X38761802Y6864413D01*
X38771112Y6865813D01*
X38894277Y6924956D01*
X38980895Y7005025D01*
X39044495Y7036577D01*
X39066424Y7038500D01*
X39606710Y7038500D01*
X39674831Y7018498D01*
X39698559Y6998754D01*
X39711619Y6984847D01*
X39851199Y6896267D01*
X39858738Y6893817D01*
X39858741Y6893816D01*
X40000884Y6847631D01*
X40000886Y6847631D01*
X40008422Y6845182D01*
X40016331Y6844684D01*
X40016333Y6844684D01*
X40090916Y6839992D01*
X40173410Y6834801D01*
X40181194Y6836286D01*
X40181196Y6836286D01*
X40328013Y6864293D01*
X40328014Y6864293D01*
X40335797Y6865778D01*
X40485378Y6936166D01*
X40491483Y6941216D01*
X40491487Y6941219D01*
X40606647Y7036488D01*
X40612755Y7041541D01*
X40659541Y7105936D01*
X40705265Y7168870D01*
X40705266Y7168872D01*
X40709924Y7175283D01*
X40715893Y7190357D01*
X40767864Y7321621D01*
X40767864Y7321623D01*
X40770781Y7328989D01*
X40772036Y7338918D01*
X40790506Y7485132D01*
X40791500Y7493000D01*
X40785879Y7537494D01*
X40771775Y7649146D01*
X40771774Y7649149D01*
X40770781Y7657011D01*
X40740826Y7732668D01*
X40712842Y7803348D01*
X40712841Y7803350D01*
X40709924Y7810717D01*
X40693650Y7833117D01*
X40617415Y7938045D01*
X40612755Y7944459D01*
X40584901Y7967502D01*
X40491487Y8044781D01*
X40491483Y8044784D01*
X40485378Y8049834D01*
X40335797Y8120222D01*
X40328014Y8121707D01*
X40328013Y8121707D01*
X40181196Y8149714D01*
X40181194Y8149714D01*
X40173410Y8151199D01*
X40090916Y8146009D01*
X40016333Y8141316D01*
X40016331Y8141316D01*
X40008422Y8140818D01*
X40000886Y8138369D01*
X40000884Y8138369D01*
X39858741Y8092184D01*
X39858738Y8092183D01*
X39851199Y8089733D01*
X39711619Y8001153D01*
X39706191Y7995373D01*
X39706190Y7995372D01*
X39698559Y7987246D01*
X39637345Y7951281D01*
X39606710Y7947500D01*
X39085742Y7947500D01*
X39017621Y7967502D01*
X38993217Y7987971D01*
X38989216Y7992299D01*
X38923299Y8063608D01*
X38805153Y8132232D01*
X38795979Y8134358D01*
X38787219Y8137827D01*
X38788521Y8141115D01*
X38741827Y8167426D01*
X38708635Y8230186D01*
X38714644Y8300928D01*
X38757944Y8357192D01*
X38777560Y8368909D01*
X38885787Y8420879D01*
X38885788Y8420880D01*
X38894277Y8424956D01*
X38916267Y8445283D01*
X38993877Y8517025D01*
X39057477Y8548577D01*
X39079406Y8550500D01*
X39959672Y8550500D01*
X39974482Y8549627D01*
X40007433Y8545727D01*
X40016697Y8547419D01*
X40016698Y8547419D01*
X40065658Y8556361D01*
X40069564Y8557011D01*
X40118800Y8564413D01*
X40128112Y8565813D01*
X40134678Y8568966D01*
X40141840Y8570274D01*
X40194401Y8597577D01*
X40197889Y8599320D01*
X40251277Y8624956D01*
X40256572Y8629851D01*
X40256709Y8629943D01*
X40263087Y8633256D01*
X40269455Y8638695D01*
X40308219Y8677459D01*
X40311785Y8680889D01*
X40319770Y8688270D01*
X40351608Y8717701D01*
X40355161Y8723817D01*
X40360174Y8729414D01*
X40556812Y8926052D01*
X40567901Y8935907D01*
X40586564Y8950620D01*
X40593961Y8956451D01*
X40627648Y9005191D01*
X40629916Y9008364D01*
X40633136Y9012724D01*
X40665091Y9055987D01*
X40667504Y9062858D01*
X40671644Y9068848D01*
X40689499Y9125304D01*
X40690743Y9129034D01*
X40707240Y9176010D01*
X40707240Y9176011D01*
X40710361Y9184898D01*
X40710644Y9192101D01*
X40710677Y9192268D01*
X40712843Y9199118D01*
X40713500Y9207466D01*
X40713500Y9262314D01*
X40713597Y9267261D01*
X40715355Y9312013D01*
X40715725Y9321423D01*
X40713912Y9328260D01*
X40713500Y9335752D01*
X40713500Y14966147D01*
X40733502Y15034268D01*
X40739884Y15042447D01*
X40739755Y15042541D01*
X40832265Y15169870D01*
X40832266Y15169872D01*
X40836924Y15176283D01*
X40839888Y15183767D01*
X40894864Y15322621D01*
X40894864Y15322623D01*
X40897781Y15329989D01*
X40918500Y15494000D01*
X40909936Y15561793D01*
X40898775Y15650146D01*
X40898774Y15650149D01*
X40897781Y15658011D01*
X40889079Y15679989D01*
X40839842Y15804348D01*
X40839841Y15804350D01*
X40836924Y15811717D01*
X40739755Y15945459D01*
X40703693Y15975292D01*
X40618487Y16045781D01*
X40618483Y16045784D01*
X40612378Y16050834D01*
X40462797Y16121222D01*
X40455014Y16122707D01*
X40455013Y16122707D01*
X40308196Y16150714D01*
X40308194Y16150714D01*
X40300410Y16152199D01*
X40227174Y16147591D01*
X40143333Y16142316D01*
X40143331Y16142316D01*
X40135422Y16141818D01*
X40127886Y16139369D01*
X40127884Y16139369D01*
X39985741Y16093184D01*
X39985738Y16093183D01*
X39978199Y16090733D01*
X39838619Y16002153D01*
X39833192Y15996374D01*
X39833191Y15996373D01*
X39779356Y15939045D01*
X39725453Y15881644D01*
X39645812Y15736778D01*
X39604700Y15576657D01*
X39604700Y15411343D01*
X39645812Y15251222D01*
X39725453Y15106356D01*
X39730877Y15100580D01*
X39770350Y15058546D01*
X39802401Y14995196D01*
X39804500Y14972293D01*
X39804500Y9585500D01*
X39784498Y9517379D01*
X39730842Y9470886D01*
X39678500Y9459500D01*
X39074649Y9459500D01*
X39006528Y9479502D01*
X38982124Y9499971D01*
X38929690Y9556695D01*
X38929687Y9556697D01*
X38923299Y9563608D01*
X38805153Y9632232D01*
X38795979Y9634358D01*
X38787219Y9637827D01*
X38788521Y9641115D01*
X38741827Y9667426D01*
X38708635Y9730186D01*
X38714644Y9800928D01*
X38757944Y9857192D01*
X38777560Y9868909D01*
X38885787Y9920879D01*
X38885788Y9920880D01*
X38894277Y9924956D01*
X38994608Y10017701D01*
X39063232Y10135847D01*
X39090500Y10253486D01*
X39090500Y10738258D01*
X39086311Y10766125D01*
X39076587Y10830801D01*
X39076587Y10830802D01*
X39075187Y10840112D01*
X39016044Y10963277D01*
X39010582Y10969186D01*
X38989000Y11039343D01*
X38989000Y11474108D01*
X39006046Y11537393D01*
X39058501Y11627702D01*
X39063232Y11635847D01*
X39081006Y11712526D01*
X39088879Y11746491D01*
X39088879Y11746494D01*
X39090500Y11753486D01*
X39090500Y12176521D01*
X39095604Y12212020D01*
X39105711Y12246440D01*
X39106397Y12251207D01*
X39115358Y12313537D01*
X39116000Y12318000D01*
X39116000Y21960820D01*
X39136002Y22028941D01*
X39189658Y22075434D01*
X39259932Y22085538D01*
X39324512Y22056044D01*
X39331095Y22049915D01*
X39373302Y22007708D01*
X39487458Y21949542D01*
X39582431Y21934500D01*
X41045569Y21934500D01*
X41140542Y21949542D01*
X41254698Y22007708D01*
X41255888Y22005372D01*
X41308913Y22024294D01*
X41316111Y22024500D01*
X41765710Y22024500D01*
X41833831Y22004498D01*
X41857559Y21984754D01*
X41870619Y21970847D01*
X42010199Y21882267D01*
X42017738Y21879817D01*
X42017741Y21879816D01*
X42159884Y21833631D01*
X42159886Y21833631D01*
X42167422Y21831182D01*
X42175331Y21830684D01*
X42175333Y21830684D01*
X42249916Y21825992D01*
X42332410Y21820801D01*
X42340194Y21822286D01*
X42340196Y21822286D01*
X42487013Y21850293D01*
X42487014Y21850293D01*
X42494797Y21851778D01*
X42644378Y21922166D01*
X42650483Y21927216D01*
X42650487Y21927219D01*
X42765647Y22022488D01*
X42771755Y22027541D01*
X42868924Y22161283D01*
X42929781Y22314989D01*
X42950500Y22479000D01*
X42945681Y22517148D01*
X42930775Y22635146D01*
X42930774Y22635149D01*
X42929781Y22643011D01*
X42918870Y22670569D01*
X42871842Y22789348D01*
X42871841Y22789350D01*
X42868924Y22796717D01*
X42771755Y22930459D01*
X42667247Y23016915D01*
X42627509Y23075749D01*
X42625886Y23146727D01*
X42667247Y23211085D01*
X42710212Y23246628D01*
X42771755Y23297541D01*
X42868924Y23431283D01*
X42881268Y23462458D01*
X42926864Y23577621D01*
X42926864Y23577623D01*
X42929781Y23584989D01*
X42950500Y23749000D01*
X42929781Y23913011D01*
X42868924Y24066717D01*
X42771755Y24200459D01*
X42765647Y24205512D01*
X42650487Y24300781D01*
X42650483Y24300784D01*
X42644378Y24305834D01*
X42494797Y24376222D01*
X42487014Y24377707D01*
X42487013Y24377707D01*
X42340196Y24405714D01*
X42340194Y24405714D01*
X42332410Y24407199D01*
X42249916Y24402008D01*
X42175333Y24397316D01*
X42175331Y24397316D01*
X42167422Y24396818D01*
X42159886Y24394369D01*
X42159884Y24394369D01*
X42017741Y24348184D01*
X42017738Y24348183D01*
X42010199Y24345733D01*
X41870619Y24257153D01*
X41865191Y24251373D01*
X41865190Y24251372D01*
X41857559Y24243246D01*
X41796345Y24207281D01*
X41765710Y24203500D01*
X41316111Y24203500D01*
X41255248Y24221371D01*
X41254698Y24220292D01*
X41248953Y24223219D01*
X41248954Y24223219D01*
X41192992Y24251733D01*
X41141377Y24300482D01*
X41124311Y24369397D01*
X41147212Y24436598D01*
X41192992Y24476267D01*
X41203225Y24481481D01*
X41254698Y24507708D01*
X41345292Y24598302D01*
X41403458Y24712458D01*
X41418500Y24807431D01*
X41418500Y25170569D01*
X41403551Y25264955D01*
X41402000Y25284665D01*
X41402000Y25943335D01*
X41403551Y25963045D01*
X41417725Y26052539D01*
X41418500Y26057431D01*
X41418500Y26420569D01*
X41403551Y26514955D01*
X41402000Y26534665D01*
X41402000Y26544000D01*
X41396196Y26597990D01*
X41384810Y26650332D01*
X41377616Y26676555D01*
X41339265Y26743904D01*
X41331638Y26757298D01*
X41331635Y26757302D01*
X41328575Y26762676D01*
X41282082Y26816332D01*
X41249498Y26847773D01*
X41161681Y26893709D01*
X41093560Y26913711D01*
X41089101Y26914352D01*
X41089097Y26914353D01*
X41057780Y26918856D01*
X41022000Y26924000D01*
X36486763Y26924000D01*
X36418642Y26944002D01*
X36372149Y26997658D01*
X36362045Y27067932D01*
X36374354Y27104108D01*
X36373561Y27104454D01*
X36376117Y27110305D01*
X36379250Y27115865D01*
X36438533Y27300509D01*
X36459477Y27493301D01*
X36459500Y27500000D01*
X36458827Y27506631D01*
X36440547Y27686585D01*
X36440547Y27686586D01*
X36439902Y27692934D01*
X36381910Y27877987D01*
X36287893Y28047600D01*
X36161690Y28194843D01*
X36008458Y28313702D01*
X35834455Y28399322D01*
X35828277Y28400931D01*
X35828275Y28400932D01*
X35652972Y28446595D01*
X35652969Y28446595D01*
X35646790Y28448205D01*
X35563491Y28452570D01*
X35459510Y28458020D01*
X35459506Y28458020D01*
X35453129Y28458354D01*
X35352614Y28443153D01*
X35267696Y28430311D01*
X35267695Y28430311D01*
X35261382Y28429356D01*
X35255393Y28427153D01*
X35255391Y28427152D01*
X35153057Y28389500D01*
X35079383Y28362393D01*
X34914566Y28260202D01*
X34773663Y28126957D01*
X34662431Y27968101D01*
X34585414Y27790124D01*
X34584108Y27783874D01*
X34584108Y27783873D01*
X34565110Y27692934D01*
X34545756Y27600295D01*
X34545492Y27524778D01*
X34545136Y27422598D01*
X34545079Y27406369D01*
X34550766Y27378166D01*
X34578753Y27239366D01*
X34583410Y27216268D01*
X34585905Y27210391D01*
X34585905Y27210390D01*
X34654893Y27047866D01*
X34659184Y27037757D01*
X34769304Y26878129D01*
X34909273Y26743904D01*
X34980272Y26699194D01*
X35067965Y26643970D01*
X35067969Y26643968D01*
X35073373Y26640565D01*
X35254900Y26572333D01*
X35261204Y26571335D01*
X35261206Y26571334D01*
X35350669Y26557165D01*
X35446439Y26541996D01*
X35640167Y26550793D01*
X35721344Y26571334D01*
X35821980Y26596799D01*
X35821982Y26596800D01*
X35828168Y26598365D01*
X35834221Y26601291D01*
X35887161Y26626883D01*
X35957197Y26638523D01*
X36022408Y26610451D01*
X36062090Y26551579D01*
X36068000Y26513443D01*
X36068000Y17486832D01*
X36047998Y17418711D01*
X35994342Y17372218D01*
X35924068Y17362114D01*
X35886371Y17373777D01*
X35840186Y17396502D01*
X35834455Y17399322D01*
X35828277Y17400931D01*
X35828275Y17400932D01*
X35652972Y17446595D01*
X35652969Y17446595D01*
X35646790Y17448205D01*
X35563491Y17452570D01*
X35459510Y17458020D01*
X35459506Y17458020D01*
X35453129Y17458354D01*
X35313987Y17437311D01*
X35267696Y17430311D01*
X35267695Y17430311D01*
X35261382Y17429356D01*
X35255393Y17427153D01*
X35255391Y17427152D01*
X35157737Y17391222D01*
X35079383Y17362393D01*
X34914566Y17260202D01*
X34773663Y17126957D01*
X34770004Y17121731D01*
X34683927Y16998800D01*
X34662431Y16968101D01*
X34585414Y16790124D01*
X34584108Y16783874D01*
X34584108Y16783873D01*
X34547096Y16606708D01*
X34545756Y16600295D01*
X34545079Y16406369D01*
X34557048Y16347009D01*
X34581742Y16224542D01*
X34583410Y16216268D01*
X34585905Y16210391D01*
X34585905Y16210390D01*
X34655778Y16045781D01*
X34659184Y16037757D01*
X34769304Y15878129D01*
X34909273Y15743904D01*
X34980272Y15699194D01*
X35067965Y15643970D01*
X35067969Y15643968D01*
X35073373Y15640565D01*
X35254900Y15572333D01*
X35261204Y15571335D01*
X35261206Y15571334D01*
X35321446Y15561793D01*
X35446439Y15541996D01*
X35640167Y15550793D01*
X35646352Y15552358D01*
X35821980Y15596799D01*
X35821982Y15596800D01*
X35828168Y15598365D01*
X35833915Y15601143D01*
X35887161Y15626883D01*
X35957197Y15638523D01*
X36022408Y15610451D01*
X36062090Y15551579D01*
X36068000Y15513443D01*
X36068000Y14307620D01*
X36047998Y14239499D01*
X35994342Y14193006D01*
X35924068Y14182902D01*
X35861685Y14210535D01*
X35792487Y14267781D01*
X35792483Y14267784D01*
X35786378Y14272834D01*
X35636797Y14343222D01*
X35629014Y14344707D01*
X35629013Y14344707D01*
X35482196Y14372714D01*
X35482194Y14372714D01*
X35474410Y14374199D01*
X35391916Y14369009D01*
X35317333Y14364316D01*
X35317331Y14364316D01*
X35309422Y14363818D01*
X35301886Y14361369D01*
X35301884Y14361369D01*
X35159741Y14315184D01*
X35159738Y14315183D01*
X35152199Y14312733D01*
X35051537Y14248851D01*
X35031115Y14235891D01*
X34962881Y14216278D01*
X34893601Y14237510D01*
X34876628Y14248851D01*
X34876624Y14248853D01*
X34866306Y14255747D01*
X34767000Y14275500D01*
X34067000Y14275500D01*
X33967694Y14255747D01*
X33883506Y14199494D01*
X33882663Y14200756D01*
X33832528Y14173379D01*
X33805745Y14170500D01*
X33342000Y14170500D01*
X33273879Y14190502D01*
X33227386Y14244158D01*
X33216000Y14296500D01*
X33216000Y14541500D01*
X33196247Y14640806D01*
X33139994Y14724994D01*
X33055806Y14781247D01*
X32956500Y14801000D01*
X31559500Y14801000D01*
X31460194Y14781247D01*
X31376006Y14724994D01*
X31319753Y14640806D01*
X31317698Y14630477D01*
X31273968Y14576209D01*
X31224741Y14555757D01*
X31205635Y14552268D01*
X31135029Y14559707D01*
X31079654Y14604138D01*
X31057000Y14676218D01*
X31057000Y15303500D01*
X31037247Y15402806D01*
X30980994Y15486994D01*
X30896806Y15543247D01*
X30797500Y15563000D01*
X30679500Y15563000D01*
X30611379Y15583002D01*
X30564886Y15636658D01*
X30553500Y15689000D01*
X30553500Y17373157D01*
X30573502Y17441278D01*
X30627158Y17487771D01*
X30676534Y17499122D01*
X30689111Y17499418D01*
X30693509Y17500150D01*
X30964718Y17545292D01*
X30964722Y17545293D01*
X30969108Y17546023D01*
X30973349Y17547364D01*
X30973352Y17547365D01*
X31235500Y17630271D01*
X31235502Y17630272D01*
X31239746Y17631614D01*
X31243757Y17633540D01*
X31243762Y17633542D01*
X31491605Y17752555D01*
X31491606Y17752556D01*
X31495624Y17754485D01*
X31647444Y17855928D01*
X31727929Y17909706D01*
X31727933Y17909709D01*
X31731637Y17912184D01*
X31734954Y17915155D01*
X31734958Y17915158D01*
X31939757Y18098591D01*
X31939758Y18098592D01*
X31943075Y18101563D01*
X32125720Y18318846D01*
X32275927Y18559695D01*
X32390700Y18819306D01*
X32429224Y18955903D01*
X32466537Y19088204D01*
X32466538Y19088208D01*
X32467748Y19092499D01*
X32505535Y19373822D01*
X32509500Y19500000D01*
X32489453Y19783141D01*
X32429710Y20060633D01*
X32331465Y20326938D01*
X32196677Y20576744D01*
X32028036Y20805066D01*
X31984864Y20848922D01*
X31832037Y21004167D01*
X31828906Y21007348D01*
X31825367Y21010049D01*
X31825360Y21010055D01*
X31606802Y21176853D01*
X31606798Y21176856D01*
X31603261Y21179555D01*
X31355603Y21318250D01*
X31090874Y21420666D01*
X31086549Y21421669D01*
X31086544Y21421670D01*
X30975442Y21447422D01*
X30814355Y21484760D01*
X30531564Y21509252D01*
X30527129Y21509008D01*
X30527125Y21509008D01*
X30252586Y21493899D01*
X30252579Y21493898D01*
X30248143Y21493654D01*
X30114887Y21467148D01*
X29974119Y21439148D01*
X29974114Y21439147D01*
X29969747Y21438278D01*
X29965544Y21436802D01*
X29706139Y21345706D01*
X29706136Y21345705D01*
X29701931Y21344228D01*
X29697978Y21342175D01*
X29697972Y21342172D01*
X29586284Y21284154D01*
X29450039Y21213380D01*
X29446424Y21210797D01*
X29446418Y21210793D01*
X29222717Y21050934D01*
X29222713Y21050931D01*
X29219096Y21048346D01*
X29013711Y20852419D01*
X28837982Y20629507D01*
X28695414Y20384058D01*
X28693746Y20379941D01*
X28693743Y20379934D01*
X28670586Y20322761D01*
X28588852Y20120970D01*
X28562699Y20015686D01*
X28535851Y19907600D01*
X28520423Y19845492D01*
X28491492Y19563120D01*
X28491667Y19558668D01*
X28502353Y19286678D01*
X28502635Y19279489D01*
X28553632Y19000258D01*
X28643464Y18730998D01*
X28770339Y18477081D01*
X28772868Y18473422D01*
X28877092Y18322623D01*
X28931725Y18243575D01*
X29029904Y18137366D01*
X29121046Y18038770D01*
X29124403Y18035138D01*
X29344527Y17855928D01*
X29348345Y17853629D01*
X29348347Y17853628D01*
X29430261Y17804312D01*
X29514040Y17753873D01*
X29583489Y17712061D01*
X29631533Y17659790D01*
X29644500Y17604115D01*
X29644500Y15689000D01*
X29624498Y15620879D01*
X29570842Y15574386D01*
X29518500Y15563000D01*
X29400500Y15563000D01*
X29301194Y15543247D01*
X29217006Y15486994D01*
X29160753Y15402806D01*
X29141000Y15303500D01*
X29141000Y14414500D01*
X29160753Y14315194D01*
X29217006Y14231006D01*
X29301194Y14174753D01*
X29400500Y14155000D01*
X30353050Y14155000D01*
X30421171Y14134998D01*
X30467664Y14081342D01*
X30477768Y14011068D01*
X30448274Y13946488D01*
X30442145Y13939905D01*
X30197145Y13694905D01*
X30134833Y13660879D01*
X30108050Y13658000D01*
X29400500Y13658000D01*
X29301194Y13638247D01*
X29217006Y13581994D01*
X29160753Y13497806D01*
X29141000Y13398500D01*
X29141000Y12509500D01*
X29160753Y12410194D01*
X29167648Y12399875D01*
X29197841Y12354689D01*
X29217006Y12326006D01*
X29301194Y12269753D01*
X29400500Y12250000D01*
X30797500Y12250000D01*
X30896806Y12269753D01*
X30980994Y12326006D01*
X31000160Y12354689D01*
X31030352Y12399875D01*
X31037247Y12410194D01*
X31057000Y12509500D01*
X31057000Y13217050D01*
X31077002Y13285171D01*
X31093905Y13306145D01*
X31231408Y13443648D01*
X31293720Y13477674D01*
X31364535Y13472609D01*
X31390505Y13459318D01*
X31460194Y13412753D01*
X31559500Y13393000D01*
X32267841Y13393000D01*
X32339479Y13370652D01*
X32366888Y13351709D01*
X32373147Y13347383D01*
X32376362Y13345086D01*
X32423986Y13309910D01*
X32430856Y13307497D01*
X32436848Y13303356D01*
X32445828Y13300516D01*
X32445830Y13300515D01*
X32466111Y13294101D01*
X32493307Y13285500D01*
X32497038Y13284255D01*
X32544008Y13267760D01*
X32544012Y13267759D01*
X32552897Y13264639D01*
X32560101Y13264356D01*
X32560268Y13264323D01*
X32567118Y13262157D01*
X32575466Y13261500D01*
X32630314Y13261500D01*
X32635261Y13261403D01*
X32689423Y13259275D01*
X32696260Y13261088D01*
X32703752Y13261500D01*
X33805745Y13261500D01*
X33873866Y13241498D01*
X33881735Y13235156D01*
X33883506Y13232506D01*
X33967694Y13176253D01*
X34067000Y13156500D01*
X34767000Y13156500D01*
X34866306Y13176253D01*
X34876624Y13183147D01*
X34876628Y13183149D01*
X34893601Y13194490D01*
X34961354Y13215704D01*
X35031115Y13196109D01*
X35152199Y13119267D01*
X35159738Y13116817D01*
X35159741Y13116816D01*
X35301884Y13070631D01*
X35301886Y13070631D01*
X35309422Y13068182D01*
X35317331Y13067684D01*
X35317333Y13067684D01*
X35391916Y13062992D01*
X35474410Y13057801D01*
X35482194Y13059286D01*
X35482196Y13059286D01*
X35629013Y13087293D01*
X35629014Y13087293D01*
X35636797Y13088778D01*
X35786378Y13159166D01*
X35792483Y13164216D01*
X35792487Y13164219D01*
X35861685Y13221465D01*
X35926923Y13249475D01*
X35996947Y13237768D01*
X36049527Y13190061D01*
X36068000Y13124380D01*
X36068000Y12661790D01*
X36047998Y12593669D01*
X35994342Y12547176D01*
X35979660Y12541550D01*
X35971675Y12539050D01*
X35966243Y12536084D01*
X35966241Y12536083D01*
X35917560Y12509500D01*
X35909363Y12505024D01*
X35905763Y12502329D01*
X35855092Y12464397D01*
X35855088Y12464393D01*
X35851490Y12461700D01*
X34452591Y11062801D01*
X34429080Y11035708D01*
X34411292Y11012018D01*
X34411091Y11011660D01*
X34407910Y11007961D01*
X34408434Y11007580D01*
X34339482Y10912676D01*
X34317863Y10889654D01*
X34256258Y10838689D01*
X34239238Y10826827D01*
X34223151Y10817481D01*
X34187705Y10792568D01*
X34185615Y10790811D01*
X34185611Y10790808D01*
X34156248Y10766125D01*
X34156243Y10766120D01*
X34154156Y10764366D01*
X33294355Y9904565D01*
X33245768Y9874349D01*
X33224578Y9867155D01*
X33219029Y9863892D01*
X33219025Y9863890D01*
X33196256Y9850500D01*
X33163379Y9831166D01*
X33161102Y9829538D01*
X33161092Y9829531D01*
X33152685Y9823518D01*
X33126550Y9804826D01*
X33065446Y9726799D01*
X33033631Y9663856D01*
X33031970Y9657880D01*
X33031969Y9657877D01*
X33025047Y9632969D01*
X33018113Y9616001D01*
X33016553Y9616468D01*
X33012671Y9603489D01*
X33012671Y9603488D01*
X32990754Y9530202D01*
X32975771Y9497776D01*
X32956396Y9467884D01*
X32932913Y9440965D01*
X32905928Y9417714D01*
X32875834Y9398469D01*
X32852170Y9387709D01*
X32843408Y9383725D01*
X32809119Y9373698D01*
X32797398Y9372020D01*
X32797394Y9372020D01*
X32797300Y9372007D01*
X32797273Y9372003D01*
X32781704Y9369773D01*
X32763842Y9368500D01*
X31488289Y9368500D01*
X31452191Y9373782D01*
X31446813Y9375390D01*
X31441278Y9377046D01*
X31441270Y9377049D01*
X31417203Y9384246D01*
X31384776Y9399229D01*
X31354884Y9418604D01*
X31327967Y9442085D01*
X31304716Y9469069D01*
X31285469Y9499164D01*
X31270726Y9531591D01*
X31268594Y9538883D01*
X31268185Y9538720D01*
X31268183Y9538725D01*
X31263251Y9557159D01*
X31260696Y9565900D01*
X31260447Y9567640D01*
X31260447Y9567641D01*
X31260445Y9567653D01*
X31260444Y9567654D01*
X31258694Y9579873D01*
X31250992Y9615352D01*
X31240879Y9649831D01*
X31236488Y9657877D01*
X31192346Y9738744D01*
X31189108Y9744676D01*
X31152367Y9787078D01*
X31144455Y9796209D01*
X31144450Y9796214D01*
X31142615Y9798332D01*
X31110031Y9829773D01*
X31022214Y9875709D01*
X30954093Y9895711D01*
X30949634Y9896352D01*
X30949630Y9896353D01*
X30918313Y9900855D01*
X30882533Y9906000D01*
X28828000Y9906000D01*
X28824653Y9905640D01*
X28824649Y9905640D01*
X28777374Y9900558D01*
X28777367Y9900557D01*
X28774010Y9900196D01*
X28770710Y9899478D01*
X28770709Y9899478D01*
X28723322Y9889170D01*
X28723315Y9889168D01*
X28721668Y9888810D01*
X28695445Y9881616D01*
X28654680Y9858403D01*
X28614702Y9835638D01*
X28614698Y9835635D01*
X28609324Y9832575D01*
X28604647Y9828522D01*
X28569111Y9797730D01*
X28555668Y9786082D01*
X28524227Y9753498D01*
X28478291Y9665681D01*
X28458289Y9597560D01*
X28457648Y9593101D01*
X28457647Y9593097D01*
X28456555Y9585500D01*
X28448000Y9526000D01*
X28448000Y8920400D01*
X28427998Y8852279D01*
X28411095Y8831305D01*
X27998695Y8418905D01*
X27936383Y8384879D01*
X27909600Y8382000D01*
X27785027Y8382000D01*
X27715026Y8403234D01*
X27693306Y8417747D01*
X27594000Y8437500D01*
X24848900Y8437500D01*
X24780779Y8457502D01*
X24734286Y8511158D01*
X24724182Y8581432D01*
X24753676Y8646012D01*
X24759805Y8652595D01*
X27955700Y11848490D01*
X27973865Y11868712D01*
X27990768Y11889686D01*
X28036709Y11977509D01*
X28038453Y11983448D01*
X28040771Y11989189D01*
X28041578Y11988863D01*
X28053583Y12014544D01*
X28074852Y12046375D01*
X28081747Y12056694D01*
X28101500Y12156000D01*
X28101500Y17016000D01*
X28081747Y17115306D01*
X28025494Y17199494D01*
X27941306Y17255747D01*
X27842000Y17275500D01*
X24482000Y17275500D01*
X24382694Y17255747D01*
X24298506Y17199494D01*
X24242253Y17115306D01*
X24222500Y17016000D01*
X24222500Y16759900D01*
X24202498Y16691779D01*
X24185595Y16670805D01*
X23903773Y16388983D01*
X23841461Y16354957D01*
X23770646Y16360022D01*
X23743134Y16377700D01*
X23741994Y16375994D01*
X23668125Y16425352D01*
X23657806Y16432247D01*
X23558500Y16452000D01*
X22352196Y16452000D01*
X22284075Y16472002D01*
X22237582Y16525658D01*
X22227478Y16595932D01*
X22227787Y16597478D01*
X22228781Y16599989D01*
X22230203Y16611240D01*
X22248506Y16756132D01*
X22249500Y16764000D01*
X22235108Y16877930D01*
X22229775Y16920146D01*
X22229774Y16920149D01*
X22228781Y16928011D01*
X22221829Y16945569D01*
X22170842Y17074348D01*
X22170841Y17074350D01*
X22167924Y17081717D01*
X22070755Y17215459D01*
X22030390Y17248852D01*
X21949487Y17315781D01*
X21949483Y17315784D01*
X21943378Y17320834D01*
X21793797Y17391222D01*
X21786014Y17392707D01*
X21786013Y17392707D01*
X21639196Y17420714D01*
X21639194Y17420714D01*
X21631410Y17422199D01*
X21548916Y17417009D01*
X21474333Y17412316D01*
X21474331Y17412316D01*
X21466422Y17411818D01*
X21458886Y17409369D01*
X21458884Y17409369D01*
X21316741Y17363184D01*
X21316738Y17363183D01*
X21309199Y17360733D01*
X21189934Y17285046D01*
X21121702Y17265434D01*
X21065219Y17279166D01*
X21026381Y17298955D01*
X21026377Y17298956D01*
X21017542Y17303458D01*
X20922569Y17318500D01*
X19209431Y17318500D01*
X19114458Y17303458D01*
X19000302Y17245292D01*
X18909708Y17154698D01*
X18851542Y17040542D01*
X18836500Y16945569D01*
X18836500Y16582431D01*
X18851542Y16487458D01*
X18909708Y16373302D01*
X19000302Y16282708D01*
X19066781Y16248835D01*
X19081634Y16241267D01*
X19133249Y16192518D01*
X19150315Y16123603D01*
X19127414Y16056402D01*
X19081634Y16016733D01*
X19000302Y15975292D01*
X18909708Y15884698D01*
X18851542Y15770542D01*
X18836500Y15675569D01*
X18836500Y15312431D01*
X18851542Y15217458D01*
X18909708Y15103302D01*
X19000302Y15012708D01*
X19114458Y14954542D01*
X19209431Y14939500D01*
X20922569Y14939500D01*
X21017542Y14954542D01*
X21131698Y15012708D01*
X21135319Y15016329D01*
X21199677Y15039294D01*
X21206874Y15039500D01*
X22250100Y15039500D01*
X22318221Y15019498D01*
X22364714Y14965842D01*
X22374818Y14895568D01*
X22345324Y14830988D01*
X22339195Y14824405D01*
X21054916Y13540126D01*
X20992604Y13506100D01*
X20946114Y13504772D01*
X20927469Y13507725D01*
X20927456Y13507726D01*
X20922569Y13508500D01*
X19209431Y13508500D01*
X19114458Y13493458D01*
X19000302Y13435292D01*
X18932506Y13367496D01*
X18925923Y13361366D01*
X18909786Y13347383D01*
X18903668Y13342082D01*
X18872227Y13309498D01*
X18826291Y13221681D01*
X18806289Y13153560D01*
X18805648Y13149101D01*
X18805647Y13149097D01*
X18803702Y13135569D01*
X18796000Y13082000D01*
X18796000Y12857400D01*
X18775998Y12789279D01*
X18759095Y12768305D01*
X15986300Y9995510D01*
X15968135Y9975288D01*
X15951232Y9954314D01*
X15948361Y9948825D01*
X15909402Y9874349D01*
X15905291Y9866491D01*
X15903548Y9860553D01*
X15903547Y9860552D01*
X15901520Y9853647D01*
X15885289Y9798370D01*
X15875741Y9731965D01*
X15846250Y9667388D01*
X15786524Y9629004D01*
X15751025Y9623900D01*
X15585609Y9623900D01*
X15517488Y9643902D01*
X15469383Y9701464D01*
X15467047Y9713206D01*
X15419702Y9784062D01*
X15417687Y9787078D01*
X15410794Y9797394D01*
X15326606Y9853647D01*
X15227300Y9873400D01*
X13830300Y9873400D01*
X13730994Y9853647D01*
X13646806Y9797394D01*
X13639913Y9787078D01*
X13637898Y9784062D01*
X13590553Y9713206D01*
X13570800Y9613900D01*
X13570800Y8724900D01*
X13590553Y8625594D01*
X13646806Y8541406D01*
X13657122Y8534513D01*
X13692075Y8511158D01*
X13730994Y8485153D01*
X13830300Y8465400D01*
X15227300Y8465400D01*
X15326606Y8485153D01*
X15365525Y8511158D01*
X15400478Y8534513D01*
X15410794Y8541406D01*
X15467047Y8625594D01*
X15469385Y8637347D01*
X15513749Y8692400D01*
X15585609Y8714900D01*
X15749000Y8714900D01*
X15817121Y8694898D01*
X15863614Y8641242D01*
X15875000Y8588900D01*
X15875000Y8346130D01*
X15865409Y8297912D01*
X15861148Y8287625D01*
X15854253Y8277306D01*
X15834500Y8178000D01*
X15834500Y4178000D01*
X15854253Y4078694D01*
X15910506Y3994506D01*
X15994694Y3938253D01*
X16094000Y3918500D01*
X19944000Y3918500D01*
X20043306Y3938253D01*
X20127494Y3994506D01*
X20172510Y4061877D01*
X20188180Y4080970D01*
X23269405Y7162195D01*
X23331717Y7196221D01*
X23402532Y7191156D01*
X23459368Y7148609D01*
X23484179Y7082089D01*
X23484500Y7073100D01*
X23484500Y4759161D01*
X23464498Y4691040D01*
X23447595Y4670066D01*
X21308935Y2531405D01*
X21246623Y2497380D01*
X21219840Y2494500D01*
X14620859Y2494500D01*
X14552738Y2514502D01*
X14516094Y2550497D01*
X14470994Y2617994D01*
X14386806Y2674247D01*
X14287500Y2694000D01*
X13015660Y2694000D01*
X12947539Y2714002D01*
X12926565Y2730905D01*
X12646573Y3010897D01*
X12612547Y3073209D01*
X12617612Y3144024D01*
X12660159Y3200860D01*
X12726679Y3225671D01*
X12782374Y3216646D01*
X12791194Y3210753D01*
X12803368Y3208332D01*
X12803369Y3208331D01*
X12881077Y3192874D01*
X12890500Y3191000D01*
X14287500Y3191000D01*
X14386806Y3210753D01*
X14470994Y3267006D01*
X14527247Y3351194D01*
X14547000Y3450500D01*
X14547000Y4339500D01*
X14527247Y4438806D01*
X14470994Y4522994D01*
X14386806Y4579247D01*
X14287500Y4599000D01*
X14219500Y4599000D01*
X14151379Y4619002D01*
X14104886Y4672658D01*
X14093500Y4725000D01*
X14093500Y5551177D01*
X14113502Y5619298D01*
X14149499Y5655943D01*
X14160977Y5663612D01*
X14160978Y5663613D01*
X14171294Y5670506D01*
X14227547Y5754694D01*
X14247300Y5854000D01*
X14247300Y7354000D01*
X14227547Y7453306D01*
X14171294Y7537494D01*
X14087106Y7593747D01*
X13987800Y7613500D01*
X13037800Y7613500D01*
X12938494Y7593747D01*
X12881393Y7555593D01*
X12813643Y7534379D01*
X12745176Y7553162D01*
X12715582Y7578528D01*
X12579096Y7738332D01*
X12575888Y7742088D01*
X12383840Y7906113D01*
X12168498Y8038075D01*
X12163928Y8039968D01*
X12163924Y8039970D01*
X11939736Y8132831D01*
X11939734Y8132832D01*
X11935163Y8134725D01*
X11831968Y8159500D01*
X11694394Y8192529D01*
X11694388Y8192530D01*
X11689581Y8193684D01*
X11590252Y8201502D01*
X11503786Y8208307D01*
X11503779Y8208307D01*
X11501330Y8208500D01*
X11374270Y8208500D01*
X11371821Y8208307D01*
X11371814Y8208307D01*
X11285348Y8201502D01*
X11186019Y8193684D01*
X11181212Y8192530D01*
X11181206Y8192529D01*
X11043632Y8159500D01*
X10940437Y8134725D01*
X10935866Y8132832D01*
X10935864Y8132831D01*
X10711676Y8039970D01*
X10711672Y8039968D01*
X10707102Y8038075D01*
X10491760Y7906113D01*
X10299712Y7742088D01*
X10296504Y7738332D01*
X10290940Y7731817D01*
X10135687Y7550040D01*
X10003725Y7334698D01*
X10001832Y7330128D01*
X10001830Y7330124D01*
X9910975Y7110778D01*
X9907075Y7101363D01*
X9902487Y7082253D01*
X9850160Y6864293D01*
X9848116Y6855781D01*
X9828300Y6604000D01*
X9848116Y6352219D01*
X9849270Y6347412D01*
X9849271Y6347406D01*
X9882845Y6207564D01*
X9907075Y6106637D01*
X9908968Y6102066D01*
X9908969Y6102064D01*
X9986978Y5913734D01*
X10003725Y5873302D01*
X10135687Y5657960D01*
X10299712Y5465912D01*
X10491760Y5301887D01*
X10707102Y5169925D01*
X10711672Y5168032D01*
X10711676Y5168030D01*
X10901348Y5089466D01*
X10940437Y5073275D01*
X11025821Y5052776D01*
X11181206Y5015471D01*
X11181212Y5015470D01*
X11186019Y5014316D01*
X11285348Y5006498D01*
X11371814Y4999693D01*
X11371821Y4999693D01*
X11374270Y4999500D01*
X11501330Y4999500D01*
X11503779Y4999693D01*
X11503786Y4999693D01*
X11590252Y5006498D01*
X11689581Y5014316D01*
X11694388Y5015470D01*
X11694394Y5015471D01*
X11849779Y5052776D01*
X11935163Y5073275D01*
X11974252Y5089466D01*
X12163924Y5168030D01*
X12163928Y5168032D01*
X12168498Y5169925D01*
X12383840Y5301887D01*
X12575888Y5465912D01*
X12615939Y5512805D01*
X12715582Y5629472D01*
X12775033Y5668281D01*
X12846027Y5668787D01*
X12881391Y5652408D01*
X12938494Y5614253D01*
X12966708Y5608641D01*
X12983082Y5605384D01*
X13045991Y5572476D01*
X13081123Y5510781D01*
X13084500Y5481805D01*
X13084500Y4725000D01*
X13064498Y4656879D01*
X13010842Y4610386D01*
X12958500Y4599000D01*
X12890500Y4599000D01*
X12791194Y4579247D01*
X12707006Y4522994D01*
X12650753Y4438806D01*
X12631000Y4339500D01*
X12631000Y3450500D01*
X12632207Y3444432D01*
X12642935Y3390500D01*
X12650753Y3351194D01*
X12656548Y3342522D01*
X12663990Y3273297D01*
X12632211Y3209810D01*
X12571153Y3173582D01*
X12500202Y3176116D01*
X12450897Y3206573D01*
X12043905Y3613565D01*
X12009879Y3675877D01*
X12007000Y3702660D01*
X12007000Y4339500D01*
X11987247Y4438806D01*
X11930994Y4522994D01*
X11846806Y4579247D01*
X11747500Y4599000D01*
X10350500Y4599000D01*
X10251194Y4579247D01*
X10167006Y4522994D01*
X10126263Y4462018D01*
X10121906Y4455497D01*
X10067428Y4409970D01*
X10017141Y4399500D01*
X9794859Y4399500D01*
X9726738Y4419502D01*
X9690094Y4455497D01*
X9685737Y4462018D01*
X9644994Y4522994D01*
X9560806Y4579247D01*
X9461500Y4599000D01*
X8824660Y4599000D01*
X8756539Y4619002D01*
X8735565Y4635905D01*
X8720205Y4651265D01*
X8686179Y4713577D01*
X8683300Y4740360D01*
X8683300Y5416615D01*
X8684548Y5427786D01*
X8683958Y5427833D01*
X8684678Y5436784D01*
X8686659Y5445538D01*
X8683542Y5495781D01*
X8683300Y5503582D01*
X8683300Y6889818D01*
X8684548Y6900990D01*
X8683958Y6901037D01*
X8684678Y6909983D01*
X8686659Y6918739D01*
X8683542Y6968982D01*
X8683300Y6976783D01*
X8683300Y6994514D01*
X8681647Y7006054D01*
X8680619Y7016097D01*
X8678270Y7053963D01*
X8678270Y7053965D01*
X8677714Y7062921D01*
X8674667Y7071362D01*
X8673985Y7074654D01*
X8670046Y7090454D01*
X8669094Y7093708D01*
X8667821Y7102600D01*
X8648402Y7145308D01*
X8644588Y7154677D01*
X8642162Y7161399D01*
X8640115Y7167069D01*
X8631708Y7190357D01*
X8631707Y7190360D01*
X8628661Y7198796D01*
X8623370Y7206039D01*
X8621790Y7209010D01*
X8613570Y7223078D01*
X8611744Y7225933D01*
X8608029Y7234104D01*
X8577397Y7269655D01*
X8571120Y7277561D01*
X8562471Y7289400D01*
X8550696Y7301175D01*
X8544337Y7308023D01*
X8519591Y7336743D01*
X8519589Y7336745D01*
X8513733Y7343541D01*
X8506204Y7348421D01*
X8499436Y7354325D01*
X8499491Y7354388D01*
X8488973Y7362898D01*
X8142882Y7708988D01*
X8135864Y7717772D01*
X8135413Y7717388D01*
X8129593Y7724226D01*
X8124804Y7731817D01*
X8087057Y7765154D01*
X8081370Y7770500D01*
X8068847Y7783023D01*
X8059534Y7790003D01*
X8051701Y7796380D01*
X8023253Y7821504D01*
X8023252Y7821504D01*
X8016527Y7827444D01*
X8008404Y7831258D01*
X8005573Y7833117D01*
X7991628Y7841495D01*
X7988661Y7843120D01*
X7981474Y7848506D01*
X7937554Y7864970D01*
X7928232Y7868898D01*
X7893893Y7885020D01*
X7893892Y7885020D01*
X7885763Y7888837D01*
X7876890Y7890218D01*
X7873653Y7891208D01*
X7857908Y7895338D01*
X7854613Y7896063D01*
X7846207Y7899214D01*
X7799404Y7902692D01*
X7789384Y7903844D01*
X7779714Y7905350D01*
X7779705Y7905351D01*
X7774893Y7906100D01*
X7758227Y7906100D01*
X7748888Y7906447D01*
X7711097Y7909256D01*
X7711095Y7909256D01*
X7702146Y7909921D01*
X7693371Y7908048D01*
X7684409Y7907437D01*
X7684403Y7907521D01*
X7670947Y7906100D01*
X7514093Y7906100D01*
X7444091Y7927335D01*
X7396025Y7959452D01*
X7385706Y7966347D01*
X7286400Y7986100D01*
X6226400Y7986100D01*
X6127094Y7966347D01*
X6116775Y7959452D01*
X6066864Y7926102D01*
X6042906Y7910094D01*
X5986653Y7825906D01*
X5966900Y7726600D01*
X5966900Y7076600D01*
X5986653Y6977294D01*
X6042906Y6893106D01*
X6127094Y6836853D01*
X6226400Y6817100D01*
X7286400Y6817100D01*
X7385706Y6836853D01*
X7406130Y6850500D01*
X7421041Y6860463D01*
X7488794Y6881677D01*
X7557261Y6862893D01*
X7580137Y6844792D01*
X7637395Y6787534D01*
X7671421Y6725222D01*
X7674300Y6698439D01*
X7674300Y6132100D01*
X7654298Y6063979D01*
X7600642Y6017486D01*
X7548300Y6006100D01*
X7514093Y6006100D01*
X7444091Y6027335D01*
X7396025Y6059452D01*
X7385706Y6066347D01*
X7286400Y6086100D01*
X6226400Y6086100D01*
X6127094Y6066347D01*
X6042906Y6010094D01*
X5986653Y5925906D01*
X5966900Y5826600D01*
X5966900Y5176600D01*
X5986653Y5077294D01*
X6042906Y4993106D01*
X6053222Y4986213D01*
X6068709Y4975865D01*
X6127094Y4936853D01*
X6226400Y4917100D01*
X7286400Y4917100D01*
X7385706Y4936853D01*
X7444091Y4975865D01*
X7514093Y4997100D01*
X7548300Y4997100D01*
X7616421Y4977098D01*
X7662914Y4923442D01*
X7674300Y4871100D01*
X7674300Y4548985D01*
X7673052Y4537814D01*
X7673642Y4537767D01*
X7672922Y4528816D01*
X7670941Y4520062D01*
X7674058Y4469820D01*
X7674300Y4462018D01*
X7674300Y4444286D01*
X7675953Y4432741D01*
X7676981Y4422704D01*
X7678222Y4402698D01*
X7679886Y4375880D01*
X7682934Y4367436D01*
X7683623Y4364111D01*
X7687559Y4348326D01*
X7688507Y4345085D01*
X7689779Y4336200D01*
X7693494Y4328029D01*
X7693495Y4328026D01*
X7709199Y4293489D01*
X7713009Y4284131D01*
X7718908Y4267789D01*
X7724506Y4252283D01*
X7728823Y4181418D01*
X7694141Y4119468D01*
X7631473Y4086103D01*
X7605992Y4083500D01*
X7017278Y4083500D01*
X6947275Y4104736D01*
X6947235Y4104763D01*
X6926306Y4118747D01*
X6827000Y4138500D01*
X6127000Y4138500D01*
X6027694Y4118747D01*
X5943506Y4062494D01*
X5887253Y3978306D01*
X5867500Y3879000D01*
X500000Y3879000D01*
X500000Y5826600D01*
X3766900Y5826600D01*
X3766900Y5176600D01*
X3786653Y5077294D01*
X3842906Y4993106D01*
X3853222Y4986213D01*
X3868709Y4975865D01*
X3927094Y4936853D01*
X4026400Y4917100D01*
X5086400Y4917100D01*
X5185706Y4936853D01*
X5244091Y4975865D01*
X5259578Y4986213D01*
X5269894Y4993106D01*
X5326147Y5077294D01*
X5345900Y5176600D01*
X5345900Y5826600D01*
X5326147Y5925906D01*
X5269894Y6010094D01*
X5185706Y6066347D01*
X5086400Y6086100D01*
X4026400Y6086100D01*
X3927094Y6066347D01*
X3842906Y6010094D01*
X3786653Y5925906D01*
X3766900Y5826600D01*
X500000Y5826600D01*
X500000Y7810500D01*
X1378800Y7810500D01*
X1378800Y6921500D01*
X1398553Y6822194D01*
X1454806Y6738006D01*
X1538994Y6681753D01*
X1638300Y6662000D01*
X3035300Y6662000D01*
X3134606Y6681753D01*
X3218794Y6738006D01*
X3275047Y6822194D01*
X3275537Y6824656D01*
X3315784Y6874599D01*
X3387644Y6897100D01*
X3798707Y6897100D01*
X3868709Y6875865D01*
X3927094Y6836853D01*
X4026400Y6817100D01*
X5086400Y6817100D01*
X5185706Y6836853D01*
X5269894Y6893106D01*
X5326147Y6977294D01*
X5345900Y7076600D01*
X5345900Y7726600D01*
X5326147Y7825906D01*
X5269894Y7910094D01*
X5245937Y7926102D01*
X5196025Y7959452D01*
X5185706Y7966347D01*
X5162318Y7970999D01*
X5099409Y8003907D01*
X5064277Y8065602D01*
X5060900Y8094578D01*
X5060900Y8153925D01*
X5080902Y8222046D01*
X5106585Y8251010D01*
X5173647Y8306488D01*
X5179755Y8311541D01*
X5246374Y8403234D01*
X5272265Y8438870D01*
X5272266Y8438872D01*
X5276924Y8445283D01*
X5291752Y8482732D01*
X5334864Y8591621D01*
X5334864Y8591623D01*
X5337781Y8598989D01*
X5339839Y8615275D01*
X5357506Y8755132D01*
X5358500Y8763000D01*
X5337781Y8927011D01*
X5334259Y8935907D01*
X5279842Y9073348D01*
X5279841Y9073350D01*
X5276924Y9080717D01*
X5243168Y9127179D01*
X5184415Y9208045D01*
X5179755Y9214459D01*
X5121908Y9262314D01*
X5058487Y9314781D01*
X5058483Y9314784D01*
X5052378Y9319834D01*
X4902797Y9390222D01*
X4895014Y9391707D01*
X4895013Y9391707D01*
X4748196Y9419714D01*
X4748194Y9419714D01*
X4740410Y9421199D01*
X4657916Y9416008D01*
X4583333Y9411316D01*
X4583331Y9411316D01*
X4575422Y9410818D01*
X4567886Y9408369D01*
X4567884Y9408369D01*
X4425741Y9362184D01*
X4425738Y9362183D01*
X4418199Y9359733D01*
X4278619Y9271153D01*
X4273192Y9265374D01*
X4273191Y9265373D01*
X4210973Y9199118D01*
X4165453Y9150644D01*
X4085812Y9005778D01*
X4044700Y8845657D01*
X4044700Y8680343D01*
X4046672Y8672664D01*
X4047628Y8668939D01*
X4051240Y8628273D01*
X4048079Y8585746D01*
X4049952Y8576969D01*
X4050563Y8568009D01*
X4050479Y8568003D01*
X4051900Y8554547D01*
X4051900Y8094578D01*
X4031898Y8026457D01*
X3978242Y7979964D01*
X3950483Y7970999D01*
X3927094Y7966347D01*
X3916775Y7959452D01*
X3868709Y7927335D01*
X3798707Y7906100D01*
X3344871Y7906100D01*
X3276750Y7926102D01*
X3240107Y7962097D01*
X3218794Y7993994D01*
X3134606Y8050247D01*
X3035300Y8070000D01*
X1638300Y8070000D01*
X1538994Y8050247D01*
X1454806Y7993994D01*
X1398553Y7909806D01*
X1378800Y7810500D01*
X500000Y7810500D01*
X500000Y14057423D01*
X889000Y14057423D01*
X889000Y12724400D01*
X889360Y12721053D01*
X889360Y12721049D01*
X892994Y12687251D01*
X894804Y12670410D01*
X906190Y12618068D01*
X913384Y12591845D01*
X917284Y12584997D01*
X959362Y12511102D01*
X959365Y12511098D01*
X962425Y12505724D01*
X966478Y12501047D01*
X994933Y12468208D01*
X1008918Y12452068D01*
X1041502Y12420627D01*
X1129319Y12374691D01*
X1197440Y12354689D01*
X1201899Y12354048D01*
X1201903Y12354047D01*
X1225976Y12350586D01*
X1269000Y12344400D01*
X12495410Y12344400D01*
X12522557Y12345855D01*
X12524228Y12346035D01*
X12524245Y12346036D01*
X12538199Y12347536D01*
X12549340Y12348734D01*
X12643925Y12378350D01*
X12644303Y12377141D01*
X12684384Y12385300D01*
X12851914Y12385300D01*
X12894403Y12391385D01*
X12951107Y12399505D01*
X12951110Y12399506D01*
X12960000Y12400779D01*
X12968176Y12404496D01*
X12968178Y12404497D01*
X13017410Y12426882D01*
X13091504Y12460571D01*
X13200941Y12554867D01*
X13279513Y12676089D01*
X13313364Y12789279D01*
X13318948Y12807950D01*
X13318948Y12807952D01*
X13320904Y12814491D01*
X13321500Y12822512D01*
X13321500Y12960900D01*
X13341502Y13029021D01*
X13358405Y13049995D01*
X13715690Y13407280D01*
X13778002Y13441306D01*
X13848817Y13436241D01*
X13905653Y13393694D01*
X13930464Y13327174D01*
X13917052Y13260982D01*
X13901542Y13230542D01*
X13886500Y13135569D01*
X13886500Y12772431D01*
X13901542Y12677458D01*
X13959708Y12563302D01*
X14050302Y12472708D01*
X14164458Y12414542D01*
X14259431Y12399500D01*
X14535500Y12399500D01*
X14603621Y12379498D01*
X14650114Y12325842D01*
X14661500Y12273500D01*
X14661500Y11904400D01*
X14641498Y11836279D01*
X14587842Y11789786D01*
X14535500Y11778400D01*
X13830300Y11778400D01*
X13730994Y11758647D01*
X13720675Y11751752D01*
X13661970Y11712526D01*
X13646806Y11702394D01*
X13590553Y11618206D01*
X13570800Y11518900D01*
X13570800Y10629900D01*
X13590553Y10530594D01*
X13646806Y10446406D01*
X13730994Y10390153D01*
X13830300Y10370400D01*
X15227300Y10370400D01*
X15326606Y10390153D01*
X15410794Y10446406D01*
X15467047Y10530594D01*
X15486800Y10629900D01*
X15486800Y11357319D01*
X15506802Y11425440D01*
X15511438Y11432163D01*
X15522091Y11446586D01*
X15524504Y11453459D01*
X15528644Y11459448D01*
X15546509Y11515939D01*
X15547745Y11519641D01*
X15564239Y11566608D01*
X15567361Y11575498D01*
X15567644Y11582700D01*
X15567677Y11582869D01*
X15569843Y11589718D01*
X15570500Y11598066D01*
X15570500Y11652914D01*
X15570597Y11657861D01*
X15571941Y11692078D01*
X15572725Y11712023D01*
X15570912Y11718860D01*
X15570500Y11726352D01*
X15570500Y12273500D01*
X15590502Y12341621D01*
X15644158Y12388114D01*
X15696500Y12399500D01*
X15972569Y12399500D01*
X16067542Y12414542D01*
X16181698Y12472708D01*
X16272292Y12563302D01*
X16330458Y12677458D01*
X16345500Y12772431D01*
X16345500Y13135569D01*
X16330458Y13230542D01*
X16272292Y13344698D01*
X16181698Y13435292D01*
X16172867Y13439792D01*
X16172861Y13439796D01*
X16116505Y13468511D01*
X16064890Y13517259D01*
X16047824Y13586174D01*
X16070725Y13653375D01*
X16111358Y13690269D01*
X16190898Y13735562D01*
X16190902Y13735565D01*
X16196276Y13738625D01*
X16249932Y13785118D01*
X16281373Y13817702D01*
X16327309Y13905519D01*
X16347311Y13973640D01*
X16357600Y14045200D01*
X16357600Y16083896D01*
X16352541Y16123603D01*
X16349990Y16143622D01*
X16349989Y16143626D01*
X16349484Y16147591D01*
X16348482Y16151460D01*
X16334217Y16206529D01*
X16334213Y16206542D01*
X16333637Y16208766D01*
X16331095Y16216268D01*
X16324445Y16235898D01*
X16324443Y16235902D01*
X16321716Y16243951D01*
X16297652Y16279413D01*
X16275953Y16347009D01*
X16289648Y16407365D01*
X16292396Y16412757D01*
X16316008Y16459098D01*
X16325956Y16478622D01*
X16325957Y16478625D01*
X16330458Y16487458D01*
X16345500Y16582431D01*
X16345500Y16945569D01*
X16330458Y17040542D01*
X16272292Y17154698D01*
X16181698Y17245292D01*
X16067542Y17303458D01*
X15972569Y17318500D01*
X15968765Y17318500D01*
X15902722Y17343671D01*
X15860582Y17400808D01*
X15856022Y17471658D01*
X15889853Y17533093D01*
X16382703Y18025943D01*
X16445015Y18059969D01*
X16515830Y18054904D01*
X16540912Y18038770D01*
X16542406Y18041006D01*
X16626594Y17984753D01*
X16725900Y17965000D01*
X18122900Y17965000D01*
X18222206Y17984753D01*
X18306394Y18041006D01*
X18362647Y18125194D01*
X18382400Y18224500D01*
X18382400Y19113500D01*
X18362647Y19212806D01*
X18306394Y19296994D01*
X18222206Y19353247D01*
X18122900Y19373000D01*
X16725900Y19373000D01*
X16626594Y19353247D01*
X16616275Y19346352D01*
X16553602Y19304475D01*
X16485849Y19283260D01*
X16417382Y19302043D01*
X16369939Y19354860D01*
X16357600Y19409240D01*
X16357600Y21159200D01*
X16357240Y21162551D01*
X16352158Y21209826D01*
X16352157Y21209833D01*
X16351796Y21213190D01*
X16340410Y21265532D01*
X16333216Y21291755D01*
X16310003Y21332520D01*
X16287238Y21372498D01*
X16287235Y21372502D01*
X16284175Y21377876D01*
X16260968Y21404658D01*
X16239522Y21429409D01*
X16239517Y21429414D01*
X16237682Y21431532D01*
X16205098Y21462973D01*
X16117281Y21508909D01*
X16049160Y21528911D01*
X16044701Y21529552D01*
X16044697Y21529553D01*
X16013380Y21534056D01*
X15977600Y21539200D01*
X11103720Y21539200D01*
X11035599Y21559202D01*
X11008266Y21582953D01*
X10969452Y21627999D01*
X10920733Y21684541D01*
X10799511Y21763113D01*
X10702593Y21792098D01*
X10667650Y21802548D01*
X10667648Y21802548D01*
X10661109Y21804504D01*
X10653088Y21805100D01*
X9800886Y21805100D01*
X9758397Y21799015D01*
X9701693Y21790895D01*
X9701690Y21790894D01*
X9692800Y21789621D01*
X9684624Y21785904D01*
X9684622Y21785903D01*
X9640158Y21765686D01*
X9561296Y21729829D01*
X9451859Y21635533D01*
X9373287Y21514311D01*
X9331896Y21375909D01*
X9331300Y21367888D01*
X9331300Y20015686D01*
X9346779Y19907600D01*
X9406571Y19776096D01*
X9412431Y19769295D01*
X9495009Y19673457D01*
X9495011Y19673455D01*
X9500867Y19666659D01*
X9508399Y19661777D01*
X9543731Y19638876D01*
X9590016Y19585041D01*
X9601200Y19533143D01*
X9601200Y18123662D01*
X9601322Y18121718D01*
X9601322Y18121705D01*
X9602369Y18104975D01*
X9603180Y18092006D01*
X9607094Y18060846D01*
X9640670Y17962894D01*
X9666224Y17919824D01*
X9672228Y17909706D01*
X9676897Y17901836D01*
X9678533Y17899567D01*
X9678539Y17899558D01*
X9688951Y17885119D01*
X9703378Y17865112D01*
X9781643Y17804312D01*
X9845129Y17772532D01*
X9847747Y17771502D01*
X9878874Y17759254D01*
X9878878Y17759253D01*
X9887265Y17755953D01*
X9896244Y17755149D01*
X9896246Y17755149D01*
X9979807Y17747671D01*
X9979808Y17747671D01*
X9985976Y17747119D01*
X10001758Y17748816D01*
X10047374Y17753719D01*
X10047395Y17753722D01*
X10048802Y17753873D01*
X10064067Y17756208D01*
X10071251Y17757307D01*
X10071434Y17756111D01*
X10073714Y17756080D01*
X10073301Y17758157D01*
X10084285Y17760341D01*
X10084286Y17760341D01*
X10084305Y17760345D01*
X10084316Y17760348D01*
X10105195Y17764501D01*
X10134748Y17770379D01*
X10159328Y17772800D01*
X11398400Y17772800D01*
X11466521Y17752798D01*
X11513014Y17699142D01*
X11524400Y17646800D01*
X11524400Y16998800D01*
X11504398Y16930679D01*
X11450742Y16884186D01*
X11398400Y16872800D01*
X10159326Y16872800D01*
X10134749Y16875221D01*
X10100408Y16882051D01*
X10086320Y16885984D01*
X10085562Y16886330D01*
X10077393Y16888571D01*
X10072568Y16889895D01*
X10072565Y16889895D01*
X10066330Y16891606D01*
X9977707Y16897150D01*
X9969443Y16897667D01*
X9969442Y16897667D01*
X9962984Y16898071D01*
X9956579Y16897150D01*
X9956577Y16897150D01*
X9895503Y16888369D01*
X9895494Y16888367D01*
X9892710Y16887967D01*
X9848645Y16877554D01*
X9840811Y16873093D01*
X9767902Y16831576D01*
X9767898Y16831573D01*
X9762524Y16828513D01*
X9757847Y16824460D01*
X9718221Y16790124D01*
X9708868Y16782020D01*
X9677427Y16749436D01*
X9673252Y16741454D01*
X9640686Y16679198D01*
X9591387Y16628108D01*
X9529038Y16611600D01*
X5104400Y16611600D01*
X5101053Y16611240D01*
X5101049Y16611240D01*
X5053774Y16606158D01*
X5053767Y16606157D01*
X5050410Y16605796D01*
X5047110Y16605078D01*
X5047109Y16605078D01*
X4999722Y16594770D01*
X4999715Y16594768D01*
X4998068Y16594410D01*
X4996424Y16593959D01*
X4996420Y16593958D01*
X4991240Y16592537D01*
X4971845Y16587216D01*
X4931080Y16564003D01*
X4891102Y16541238D01*
X4891098Y16541235D01*
X4885724Y16538175D01*
X4881047Y16534122D01*
X4837848Y16496690D01*
X4832068Y16491682D01*
X4800627Y16459098D01*
X4754691Y16371281D01*
X4734689Y16303160D01*
X4734048Y16298701D01*
X4734047Y16298697D01*
X4732756Y16289719D01*
X4724400Y16231600D01*
X4724400Y15315200D01*
X4704398Y15247079D01*
X4650742Y15200586D01*
X4598400Y15189200D01*
X1792966Y15189200D01*
X1770623Y15187010D01*
X1746693Y15184664D01*
X1746685Y15184663D01*
X1743637Y15184364D01*
X1740620Y15183767D01*
X1740622Y15183767D01*
X1696999Y15175131D01*
X1696983Y15175127D01*
X1695627Y15174859D01*
X1694293Y15174533D01*
X1694270Y15174528D01*
X1682962Y15171765D01*
X1673831Y15169534D01*
X1585932Y15123754D01*
X1581110Y15119882D01*
X1581108Y15119881D01*
X1551728Y15096291D01*
X1530572Y15079305D01*
X1481215Y15026481D01*
X1478642Y15022789D01*
X1478641Y15022788D01*
X1471616Y15012708D01*
X957249Y14274704D01*
X955138Y14270406D01*
X955137Y14270404D01*
X928555Y14216278D01*
X923303Y14205585D01*
X900673Y14133539D01*
X889000Y14057423D01*
X500000Y14057423D01*
X500000Y16406369D01*
X2380079Y16406369D01*
X2392048Y16347009D01*
X2416742Y16224542D01*
X2418410Y16216268D01*
X2420905Y16210391D01*
X2420905Y16210390D01*
X2490778Y16045781D01*
X2494184Y16037757D01*
X2604304Y15878129D01*
X2744273Y15743904D01*
X2815272Y15699194D01*
X2902965Y15643970D01*
X2902969Y15643968D01*
X2908373Y15640565D01*
X3089900Y15572333D01*
X3096204Y15571335D01*
X3096206Y15571334D01*
X3156446Y15561793D01*
X3281439Y15541996D01*
X3475167Y15550793D01*
X3481352Y15552358D01*
X3656980Y15596799D01*
X3656982Y15596800D01*
X3663168Y15598365D01*
X3668915Y15601143D01*
X3832016Y15679989D01*
X3832018Y15679990D01*
X3837764Y15682768D01*
X3842833Y15686644D01*
X3842837Y15686646D01*
X3939759Y15760749D01*
X3991823Y15800555D01*
X4071063Y15891709D01*
X4114863Y15942095D01*
X4114864Y15942097D01*
X4119051Y15946913D01*
X4214250Y16115865D01*
X4273533Y16300509D01*
X4294477Y16493301D01*
X4294500Y16500000D01*
X4284874Y16594770D01*
X4275547Y16686585D01*
X4275547Y16686586D01*
X4274902Y16692934D01*
X4216910Y16877987D01*
X4122893Y17047600D01*
X3996690Y17194843D01*
X3843458Y17313702D01*
X3685916Y17391222D01*
X3675182Y17396504D01*
X3669455Y17399322D01*
X3663277Y17400931D01*
X3663275Y17400932D01*
X3487972Y17446595D01*
X3487969Y17446595D01*
X3481790Y17448205D01*
X3398491Y17452570D01*
X3294510Y17458020D01*
X3294506Y17458020D01*
X3288129Y17458354D01*
X3148987Y17437311D01*
X3102696Y17430311D01*
X3102695Y17430311D01*
X3096382Y17429356D01*
X3090393Y17427153D01*
X3090391Y17427152D01*
X2992737Y17391222D01*
X2914383Y17362393D01*
X2749566Y17260202D01*
X2608663Y17126957D01*
X2605004Y17121731D01*
X2518927Y16998800D01*
X2497431Y16968101D01*
X2420414Y16790124D01*
X2419108Y16783874D01*
X2419108Y16783873D01*
X2382096Y16606708D01*
X2380756Y16600295D01*
X2380079Y16406369D01*
X500000Y16406369D01*
X500000Y26250000D01*
X11325500Y26250000D01*
X11325500Y22750000D01*
X11345253Y22650694D01*
X11401506Y22566506D01*
X11485694Y22510253D01*
X11585000Y22490500D01*
X15085000Y22490500D01*
X15142709Y22501979D01*
X15167291Y22504400D01*
X15387400Y22504400D01*
X15455521Y22484398D01*
X15476495Y22467495D01*
X15988690Y21955300D01*
X15989943Y21954174D01*
X15989953Y21954165D01*
X16000962Y21944276D01*
X16008912Y21937135D01*
X16029886Y21920232D01*
X16079739Y21894153D01*
X16102462Y21882267D01*
X16117709Y21874291D01*
X16123647Y21872548D01*
X16123648Y21872547D01*
X16141478Y21867312D01*
X16185830Y21854289D01*
X16190289Y21853648D01*
X16190293Y21853647D01*
X16212029Y21850522D01*
X16257390Y21844000D01*
X18974800Y21844000D01*
X18978147Y21844360D01*
X18978151Y21844360D01*
X19025426Y21849442D01*
X19025433Y21849443D01*
X19028790Y21849804D01*
X19037865Y21851778D01*
X19079478Y21860830D01*
X19079485Y21860832D01*
X19081132Y21861190D01*
X19107355Y21868384D01*
X19148120Y21891597D01*
X19188098Y21914362D01*
X19188102Y21914365D01*
X19193476Y21917425D01*
X19235736Y21954043D01*
X19245009Y21962078D01*
X19245014Y21962083D01*
X19247132Y21963918D01*
X19278573Y21996502D01*
X19324509Y22084319D01*
X19344511Y22152440D01*
X19345783Y22161283D01*
X19354158Y22219537D01*
X19354800Y22224000D01*
X19354800Y24207200D01*
X19350925Y24243246D01*
X19349358Y24257826D01*
X19349357Y24257833D01*
X19348996Y24261190D01*
X19339285Y24305834D01*
X19337970Y24311878D01*
X19337968Y24311885D01*
X19337610Y24313532D01*
X19330416Y24339755D01*
X19307203Y24380520D01*
X19284438Y24420498D01*
X19284435Y24420502D01*
X19281375Y24425876D01*
X19239311Y24474421D01*
X19236722Y24477409D01*
X19236717Y24477414D01*
X19234882Y24479532D01*
X19202298Y24510973D01*
X19114481Y24556909D01*
X19046360Y24576911D01*
X19041901Y24577552D01*
X19041897Y24577553D01*
X19010580Y24582056D01*
X18974800Y24587200D01*
X17277000Y24587200D01*
X17208879Y24607202D01*
X17187905Y24624105D01*
X17151605Y24660405D01*
X17117579Y24722717D01*
X17122644Y24793532D01*
X17165191Y24850368D01*
X17231711Y24875179D01*
X17240700Y24875500D01*
X17335000Y24875500D01*
X17434306Y24895253D01*
X17518494Y24951506D01*
X17574747Y25035694D01*
X17594500Y25135000D01*
X17594500Y25735000D01*
X21775500Y25735000D01*
X21775500Y25135000D01*
X21795253Y25035694D01*
X21851506Y24951506D01*
X21935694Y24895253D01*
X22035000Y24875500D01*
X22935000Y24875500D01*
X23034306Y24895253D01*
X23118494Y24951506D01*
X23174747Y25035694D01*
X23194500Y25135000D01*
X23194500Y25735000D01*
X23174747Y25834306D01*
X23118494Y25918494D01*
X23034306Y25974747D01*
X22935000Y25994500D01*
X22035000Y25994500D01*
X21935694Y25974747D01*
X21851506Y25918494D01*
X21795253Y25834306D01*
X21775500Y25735000D01*
X17594500Y25735000D01*
X17574747Y25834306D01*
X17518494Y25918494D01*
X17434306Y25974747D01*
X17335000Y25994500D01*
X16435000Y25994500D01*
X16335694Y25974747D01*
X16251506Y25918494D01*
X16216575Y25866216D01*
X16162097Y25820689D01*
X16091654Y25811842D01*
X16027610Y25842483D01*
X16019363Y25850607D01*
X15595533Y26308344D01*
X15514577Y26395776D01*
X15513144Y26397140D01*
X15513135Y26397149D01*
X15492792Y26416511D01*
X15492782Y26416520D01*
X15491353Y26417880D01*
X15467021Y26438272D01*
X15375430Y26487309D01*
X15307309Y26507311D01*
X15302850Y26507952D01*
X15302846Y26507953D01*
X15271529Y26512455D01*
X15235749Y26517600D01*
X11710240Y26517600D01*
X11706788Y26517216D01*
X11706784Y26517216D01*
X11691728Y26515542D01*
X11654451Y26511398D01*
X11653184Y26511113D01*
X11633807Y26509500D01*
X11585000Y26509500D01*
X11485694Y26489747D01*
X11401506Y26433494D01*
X11345253Y26349306D01*
X11325500Y26250000D01*
X500000Y26250000D01*
X500000Y27406369D01*
X2380079Y27406369D01*
X2385766Y27378166D01*
X2413753Y27239366D01*
X2418410Y27216268D01*
X2420905Y27210391D01*
X2420905Y27210390D01*
X2489893Y27047866D01*
X2494184Y27037757D01*
X2604304Y26878129D01*
X2744273Y26743904D01*
X2815272Y26699194D01*
X2902965Y26643970D01*
X2902969Y26643968D01*
X2908373Y26640565D01*
X3089900Y26572333D01*
X3096204Y26571335D01*
X3096206Y26571334D01*
X3185669Y26557165D01*
X3281439Y26541996D01*
X3475167Y26550793D01*
X3556344Y26571334D01*
X3656980Y26596799D01*
X3656982Y26596800D01*
X3663168Y26598365D01*
X3669221Y26601291D01*
X3832016Y26679989D01*
X3832018Y26679990D01*
X3837764Y26682768D01*
X3842833Y26686644D01*
X3842837Y26686646D01*
X3942279Y26762676D01*
X3991823Y26800555D01*
X4119051Y26946913D01*
X4214250Y27115865D01*
X4273533Y27300509D01*
X4294477Y27493301D01*
X4294500Y27500000D01*
X4293827Y27506631D01*
X4275547Y27686585D01*
X4275547Y27686586D01*
X4274902Y27692934D01*
X4216910Y27877987D01*
X4122893Y28047600D01*
X3996690Y28194843D01*
X3843458Y28313702D01*
X3669455Y28399322D01*
X3663277Y28400931D01*
X3663275Y28400932D01*
X3487972Y28446595D01*
X3487969Y28446595D01*
X3481790Y28448205D01*
X3398491Y28452570D01*
X3294510Y28458020D01*
X3294506Y28458020D01*
X3288129Y28458354D01*
X3187614Y28443153D01*
X3102696Y28430311D01*
X3102695Y28430311D01*
X3096382Y28429356D01*
X3090393Y28427153D01*
X3090391Y28427152D01*
X2988057Y28389500D01*
X2914383Y28362393D01*
X2749566Y28260202D01*
X2608663Y28126957D01*
X2497431Y27968101D01*
X2420414Y27790124D01*
X2419108Y27783874D01*
X2419108Y27783873D01*
X2400110Y27692934D01*
X2380756Y27600295D01*
X2380492Y27524778D01*
X2380136Y27422598D01*
X2380079Y27406369D01*
X500000Y27406369D01*
X500000Y28723500D01*
X14345500Y28723500D01*
X14345500Y27326500D01*
X14365253Y27227194D01*
X14421506Y27143006D01*
X14505694Y27086753D01*
X14605000Y27067000D01*
X15494000Y27067000D01*
X15593306Y27086753D01*
X15677494Y27143006D01*
X15733747Y27227194D01*
X15753500Y27326500D01*
X15753500Y27354500D01*
X15773502Y27422621D01*
X15827158Y27469114D01*
X15879500Y27480500D01*
X16116710Y27480500D01*
X16184831Y27460498D01*
X16208559Y27440754D01*
X16221619Y27426847D01*
X16361199Y27338267D01*
X16368738Y27335817D01*
X16368741Y27335816D01*
X16510884Y27289631D01*
X16510886Y27289631D01*
X16518422Y27287182D01*
X16526331Y27286684D01*
X16526333Y27286684D01*
X16600916Y27281992D01*
X16683410Y27276801D01*
X16691194Y27278286D01*
X16691196Y27278286D01*
X16838013Y27306293D01*
X16838014Y27306293D01*
X16845797Y27307778D01*
X16995378Y27378166D01*
X17001483Y27383216D01*
X17001487Y27383219D01*
X17084127Y27451585D01*
X17149365Y27479595D01*
X17164442Y27480500D01*
X17449500Y27480500D01*
X17517621Y27460498D01*
X17564114Y27406842D01*
X17575500Y27354500D01*
X17575500Y27135000D01*
X17595253Y27035694D01*
X17651506Y26951506D01*
X17735694Y26895253D01*
X17835000Y26875500D01*
X18335000Y26875500D01*
X18434306Y26895253D01*
X18518494Y26951506D01*
X18574747Y27035694D01*
X18594500Y27135000D01*
X18594500Y28735000D01*
X20775500Y28735000D01*
X20775500Y27135000D01*
X20795253Y27035694D01*
X20851506Y26951506D01*
X20935694Y26895253D01*
X21035000Y26875500D01*
X21535000Y26875500D01*
X21634306Y26895253D01*
X21718494Y26951506D01*
X21774747Y27035694D01*
X21794500Y27135000D01*
X21794500Y27354500D01*
X21814502Y27422621D01*
X21868158Y27469114D01*
X21920500Y27480500D01*
X23634724Y27480500D01*
X23702845Y27460498D01*
X23749338Y27406842D01*
X23758303Y27379081D01*
X23763253Y27354194D01*
X23819506Y27270006D01*
X23903694Y27213753D01*
X24003000Y27194000D01*
X24892000Y27194000D01*
X24991306Y27213753D01*
X25075494Y27270006D01*
X25131747Y27354194D01*
X25151500Y27453500D01*
X25151500Y28850500D01*
X25648500Y28850500D01*
X25648500Y27453500D01*
X25668253Y27354194D01*
X25724506Y27270006D01*
X25808694Y27213753D01*
X25908000Y27194000D01*
X26797000Y27194000D01*
X26896306Y27213753D01*
X26980494Y27270006D01*
X27036747Y27354194D01*
X27051051Y27426105D01*
X27083959Y27489014D01*
X27145654Y27524146D01*
X27213566Y27521356D01*
X27258884Y27506631D01*
X27258886Y27506631D01*
X27266422Y27504182D01*
X27274331Y27503684D01*
X27274333Y27503684D01*
X27348916Y27498992D01*
X27431410Y27493801D01*
X27439193Y27495286D01*
X27439197Y27495286D01*
X27479693Y27503011D01*
X27550355Y27496128D01*
X27606078Y27452134D01*
X27626881Y27403824D01*
X27636753Y27354194D01*
X27693006Y27270006D01*
X27777194Y27213753D01*
X27876500Y27194000D01*
X28765500Y27194000D01*
X28864806Y27213753D01*
X28948994Y27270006D01*
X29005247Y27354194D01*
X29025000Y27453500D01*
X29025000Y28850500D01*
X29005247Y28949806D01*
X28948994Y29033994D01*
X28864806Y29090247D01*
X28765500Y29110000D01*
X27876500Y29110000D01*
X27777194Y29090247D01*
X27693006Y29033994D01*
X27636753Y28949806D01*
X27634332Y28937634D01*
X27634332Y28937633D01*
X27626881Y28900176D01*
X27593974Y28837266D01*
X27532279Y28802134D01*
X27479693Y28800989D01*
X27439197Y28808714D01*
X27439193Y28808714D01*
X27431410Y28810199D01*
X27348916Y28805008D01*
X27274333Y28800316D01*
X27274331Y28800316D01*
X27266422Y28799818D01*
X27258886Y28797369D01*
X27258884Y28797369D01*
X27213566Y28782644D01*
X27142599Y28780616D01*
X27081801Y28817279D01*
X27051051Y28877895D01*
X27039168Y28937634D01*
X27036747Y28949806D01*
X26980494Y29033994D01*
X26896306Y29090247D01*
X26797000Y29110000D01*
X25908000Y29110000D01*
X25808694Y29090247D01*
X25724506Y29033994D01*
X25668253Y28949806D01*
X25648500Y28850500D01*
X25151500Y28850500D01*
X25131747Y28949806D01*
X25075494Y29033994D01*
X24991306Y29090247D01*
X24892000Y29110000D01*
X24003000Y29110000D01*
X23903694Y29090247D01*
X23819506Y29033994D01*
X23763253Y28949806D01*
X23743500Y28850500D01*
X23743500Y28515500D01*
X23723498Y28447379D01*
X23669842Y28400886D01*
X23617500Y28389500D01*
X21920500Y28389500D01*
X21852379Y28409502D01*
X21805886Y28463158D01*
X21794500Y28515500D01*
X21794500Y28735000D01*
X21774747Y28834306D01*
X21718494Y28918494D01*
X21634306Y28974747D01*
X21535000Y28994500D01*
X21035000Y28994500D01*
X20935694Y28974747D01*
X20851506Y28918494D01*
X20795253Y28834306D01*
X20775500Y28735000D01*
X18594500Y28735000D01*
X18574747Y28834306D01*
X18518494Y28918494D01*
X18434306Y28974747D01*
X18335000Y28994500D01*
X17835000Y28994500D01*
X17735694Y28974747D01*
X17651506Y28918494D01*
X17595253Y28834306D01*
X17575500Y28735000D01*
X17575500Y28515500D01*
X17555498Y28447379D01*
X17501842Y28400886D01*
X17449500Y28389500D01*
X17164442Y28389500D01*
X17096321Y28409502D01*
X17084127Y28418415D01*
X17001487Y28486781D01*
X17001483Y28486784D01*
X16995378Y28491834D01*
X16845797Y28562222D01*
X16838014Y28563707D01*
X16838013Y28563707D01*
X16691196Y28591714D01*
X16691194Y28591714D01*
X16683410Y28593199D01*
X16600916Y28588008D01*
X16526333Y28583316D01*
X16526331Y28583316D01*
X16518422Y28582818D01*
X16510886Y28580369D01*
X16510884Y28580369D01*
X16368741Y28534184D01*
X16368738Y28534183D01*
X16361199Y28531733D01*
X16221619Y28443153D01*
X16216191Y28437373D01*
X16216190Y28437372D01*
X16208559Y28429246D01*
X16147345Y28393281D01*
X16116710Y28389500D01*
X15879500Y28389500D01*
X15811379Y28409502D01*
X15764886Y28463158D01*
X15753500Y28515500D01*
X15753500Y28723500D01*
X15733747Y28822806D01*
X15677494Y28906994D01*
X15593306Y28963247D01*
X15494000Y28983000D01*
X14605000Y28983000D01*
X14505694Y28963247D01*
X14421506Y28906994D01*
X14365253Y28822806D01*
X14345500Y28723500D01*
X500000Y28723500D01*
X500000Y29374000D01*
X520002Y29442121D01*
X573658Y29488614D01*
X626000Y29500000D01*
X44374000Y29500000D01*
X44442121Y29479998D01*
G37*
%TD.AperFunction*%
%TD*%
%TA.AperFunction,Conductor*%
%TO.N,Net-(J18-Pad1)*%
G36*
X15303870Y26243598D02*
G01*
X15328202Y26223206D01*
X15409158Y26135774D01*
X16141954Y25344354D01*
X16173559Y25280781D01*
X16175500Y25258749D01*
X16175500Y25135000D01*
X16195253Y25035694D01*
X16251506Y24951506D01*
X16335694Y24895253D01*
X16435000Y24875500D01*
X16525110Y24875500D01*
X16593231Y24855498D01*
X16614205Y24838595D01*
X17119600Y24333200D01*
X18974800Y24333200D01*
X19042921Y24313198D01*
X19089414Y24259542D01*
X19100800Y24207200D01*
X19100800Y22224000D01*
X19080798Y22155879D01*
X19027142Y22109386D01*
X18974800Y22098000D01*
X16257390Y22098000D01*
X16189269Y22118002D01*
X16168295Y22134905D01*
X15544800Y22758400D01*
X11757387Y22758400D01*
X11689266Y22778402D01*
X11642773Y22832058D01*
X11631400Y22882574D01*
X11584253Y26135774D01*
X11603266Y26204178D01*
X11656242Y26251443D01*
X11710240Y26263600D01*
X15235749Y26263600D01*
X15303870Y26243598D01*
G37*
%TD.AperFunction*%
%TD*%
%TA.AperFunction,Conductor*%
%TO.N,/5V3*%
G36*
X41090121Y26649998D02*
G01*
X41136614Y26596342D01*
X41148000Y26544000D01*
X41148000Y24891000D01*
X41127998Y24822879D01*
X41074342Y24776386D01*
X41022000Y24765000D01*
X39370000Y24765000D01*
X38862000Y24257000D01*
X38862000Y12318000D01*
X38841998Y12249879D01*
X38788342Y12203386D01*
X38769836Y12199360D01*
X38770498Y12197104D01*
X38753116Y12192000D01*
X36322000Y12192000D01*
X36322000Y15981206D01*
X36338227Y16043059D01*
X36376115Y16110301D01*
X36376115Y16110302D01*
X36379250Y16115865D01*
X36438533Y16300509D01*
X36459477Y16493301D01*
X36459500Y16500000D01*
X36439902Y16692934D01*
X36381910Y16877987D01*
X36337798Y16957569D01*
X36322000Y17018653D01*
X36322000Y26544000D01*
X36342002Y26612121D01*
X36395658Y26658614D01*
X36448000Y26670000D01*
X41022000Y26670000D01*
X41090121Y26649998D01*
G37*
%TD.AperFunction*%
%TD*%
%TA.AperFunction,Conductor*%
%TO.N,VCC*%
G36*
X16045721Y21265198D02*
G01*
X16092214Y21211542D01*
X16103600Y21159200D01*
X16103600Y19084632D01*
X16083598Y19016511D01*
X16063129Y18992108D01*
X16024392Y18956299D01*
X16020839Y18950183D01*
X16015826Y18944586D01*
X14818188Y17746948D01*
X14807099Y17737093D01*
X14781039Y17716549D01*
X14747352Y17667809D01*
X14745088Y17664641D01*
X14709909Y17617013D01*
X14707496Y17610142D01*
X14703356Y17604152D01*
X14700517Y17595175D01*
X14685509Y17547720D01*
X14684265Y17543989D01*
X14664639Y17488102D01*
X14664356Y17480899D01*
X14664323Y17480732D01*
X14662157Y17473882D01*
X14661500Y17465534D01*
X14661500Y17444500D01*
X14641498Y17376379D01*
X14587842Y17329886D01*
X14535500Y17318500D01*
X14259431Y17318500D01*
X14164458Y17303458D01*
X14050302Y17245292D01*
X13959708Y17154698D01*
X13901542Y17040542D01*
X13886500Y16945569D01*
X13886500Y16582431D01*
X13901542Y16487458D01*
X13959708Y16373302D01*
X14050302Y16282708D01*
X14164458Y16224542D01*
X14259431Y16209500D01*
X15972569Y16209500D01*
X15972569Y16208487D01*
X16037193Y16194912D01*
X16087753Y16145071D01*
X16103600Y16083896D01*
X16103600Y14045200D01*
X16083598Y13977079D01*
X16029942Y13930586D01*
X15977600Y13919200D01*
X13868400Y13919200D01*
X12584505Y12635305D01*
X12522193Y12601279D01*
X12495410Y12598400D01*
X1269000Y12598400D01*
X1200879Y12618402D01*
X1154386Y12672058D01*
X1143000Y12724400D01*
X1143000Y14057423D01*
X1165630Y14129469D01*
X1689596Y14881246D01*
X1744956Y14925695D01*
X1792966Y14935200D01*
X4978400Y14935200D01*
X4978400Y16231600D01*
X4998402Y16299721D01*
X5052058Y16346214D01*
X5104400Y16357600D01*
X9855200Y16357600D01*
X9855200Y16521938D01*
X9875202Y16590059D01*
X9928858Y16636552D01*
X9999132Y16646656D01*
X10018364Y16641380D01*
X10022594Y16638553D01*
X10034763Y16636133D01*
X10034764Y16636132D01*
X10112409Y16620688D01*
X10121900Y16618800D01*
X11518900Y16618800D01*
X11618206Y16638553D01*
X11702394Y16694806D01*
X11758647Y16778994D01*
X11778400Y16878300D01*
X11778400Y17767300D01*
X11758647Y17866606D01*
X11702394Y17950794D01*
X11618206Y18007047D01*
X11518900Y18026800D01*
X10121900Y18026800D01*
X10115832Y18025593D01*
X10034764Y18009468D01*
X10034763Y18009467D01*
X10022594Y18007047D01*
X10021653Y18006418D01*
X9958827Y17999664D01*
X9895341Y18031444D01*
X9859114Y18092502D01*
X9855200Y18123662D01*
X9855200Y21159200D01*
X9875202Y21227321D01*
X9928858Y21273814D01*
X9981200Y21285200D01*
X15977600Y21285200D01*
X16045721Y21265198D01*
G37*
%TD.AperFunction*%
%TD*%
%TA.AperFunction,Conductor*%
%TO.N,/5V3*%
G36*
X38735000Y10286000D02*
G01*
X38714998Y10217879D01*
X38661342Y10171386D01*
X38609000Y10160000D01*
X36195000Y10160000D01*
X32675905Y6640905D01*
X32613593Y6606879D01*
X32586810Y6604000D01*
X28829000Y6604000D01*
X27595905Y5370905D01*
X27533593Y5336879D01*
X27506810Y5334000D01*
X24383000Y5334000D01*
X24314879Y5354002D01*
X24268386Y5407658D01*
X24257000Y5460000D01*
X24257000Y8002000D01*
X24277002Y8070121D01*
X24330658Y8116614D01*
X24383000Y8128000D01*
X28067000Y8128000D01*
X28702000Y8763000D01*
X28702000Y9526000D01*
X28722002Y9594121D01*
X28775658Y9640614D01*
X28828000Y9652000D01*
X30882533Y9652000D01*
X30950654Y9631998D01*
X30997147Y9578342D01*
X31007260Y9543863D01*
X31009010Y9531644D01*
X31016979Y9476000D01*
X31076771Y9344496D01*
X31171067Y9235059D01*
X31292289Y9156487D01*
X31368494Y9133697D01*
X31424150Y9117052D01*
X31424152Y9117052D01*
X31430691Y9115096D01*
X31438712Y9114500D01*
X32790914Y9114500D01*
X32833403Y9120585D01*
X32890107Y9128705D01*
X32890110Y9128706D01*
X32899000Y9129979D01*
X32907176Y9133696D01*
X32907178Y9133697D01*
X32957301Y9156487D01*
X33030504Y9189771D01*
X33139941Y9284067D01*
X33218513Y9405289D01*
X33259904Y9543691D01*
X33260319Y9549275D01*
X33292134Y9612218D01*
X33353333Y9648207D01*
X33382061Y9651758D01*
X33382885Y9652000D01*
X33401000Y9652000D01*
X34333761Y10584761D01*
X34369207Y10609674D01*
X34373320Y10611610D01*
X34389378Y10619166D01*
X34395483Y10624216D01*
X34395487Y10624219D01*
X34510647Y10719488D01*
X34516755Y10724541D01*
X34613924Y10858283D01*
X34614408Y10859506D01*
X34632196Y10883196D01*
X36031095Y12282095D01*
X36093407Y12316121D01*
X36120190Y12319000D01*
X38735000Y12319000D01*
X38735000Y10286000D01*
G37*
%TD.AperFunction*%
%TD*%
%TA.AperFunction,Conductor*%
%TO.N,Net-(C15-Pad2)*%
G36*
X27755121Y16743998D02*
G01*
X27801614Y16690342D01*
X27813000Y16638000D01*
X27813000Y12117190D01*
X27792998Y12049069D01*
X27776095Y12028095D01*
X24222405Y8474405D01*
X24160093Y8440379D01*
X24133310Y8437500D01*
X23744000Y8437500D01*
X23644694Y8417747D01*
X23560506Y8361494D01*
X23504253Y8277306D01*
X23484500Y8178000D01*
X23484500Y7788690D01*
X23464498Y7720569D01*
X23447595Y7699595D01*
X19975905Y4227905D01*
X19913593Y4193879D01*
X19886810Y4191000D01*
X16255000Y4191000D01*
X16186879Y4211002D01*
X16140386Y4264658D01*
X16129000Y4317000D01*
X16129000Y9726810D01*
X16149002Y9794931D01*
X16165905Y9815905D01*
X19050000Y12700000D01*
X19050000Y13082000D01*
X19070002Y13150121D01*
X19123658Y13196614D01*
X19176000Y13208000D01*
X21082000Y13208000D01*
X22881095Y15007095D01*
X22943407Y15041121D01*
X22970190Y15044000D01*
X23558500Y15044000D01*
X23657806Y15063753D01*
X23741994Y15120006D01*
X23798247Y15204194D01*
X23818000Y15303500D01*
X23818000Y15891810D01*
X23838002Y15959931D01*
X23854905Y15980905D01*
X24601095Y16727095D01*
X24663407Y16761121D01*
X24690190Y16764000D01*
X27687000Y16764000D01*
X27755121Y16743998D01*
G37*
%TD.AperFunction*%
%TD*%
M02*
