M48
; DRILL file {KiCad 6.0.4-6f826c9f35~116~ubuntu20.04.1} date Wed Mar 30 13:27:23 2022
; FORMAT={-:-/ absolute / metric / decimal}
; #@! TF.CreationDate,2022-03-30T13:27:23+00:00
; #@! TF.GenerationSoftware,Kicad,Pcbnew,6.0.4-6f826c9f35~116~ubuntu20.04.1
; #@! TF.FileFunction,Plated,1,2,PTH
FMAT,2
METRIC
; #@! TA.AperFunction,Plated,PTH,ComponentDrill
T1C0.200
; #@! TA.AperFunction,Plated,PTH,ViaDrill
T2C0.400
; #@! TA.AperFunction,Plated,PTH,ComponentDrill
T3C1.000
; #@! TA.AperFunction,Plated,PTH,ComponentDrill
T4C1.900
%
G90
G05
T1
X16.891Y16.059
X16.891Y14.859
X16.891Y13.659
X18.291Y16.059
X18.291Y14.859
X18.291Y13.659
T2
X1.27Y8.89
X1.524Y11.938
X2.286Y8.89
X2.54Y11.938
X3.302Y8.89
X3.556Y11.938
X3.81Y4.064
X3.81Y3.048
X3.81Y2.032
X4.699Y8.763
X4.826Y4.064
X4.826Y3.048
X4.826Y2.032
X5.842Y21.336
X5.842Y20.066
X6.096Y11.938
X6.096Y8.89
X7.112Y11.938
X7.112Y8.89
X7.62Y22.606
X8.128Y8.89
X8.382Y11.938
X8.89Y22.606
X9.144Y8.89
X9.398Y11.938
X9.652Y5.08
X10.16Y22.606
X10.16Y8.89
X10.414Y11.938
X11.176Y28.956
X11.176Y8.89
X11.43Y11.938
X11.938Y26.924
X12.192Y8.89
X12.446Y11.938
X14.986Y7.366
X14.986Y6.096
X15.494Y3.302
X16.256Y11.43
X16.642Y27.935
X17.018Y12.446
X17.526Y3.302
X19.558Y3.302
X21.082Y3.81
X21.59Y16.764
X22.606Y5.08
X23.368Y1.524
X23.876Y25.908
X23.876Y24.892
X23.876Y23.876
X23.876Y22.86
X24.13Y2.794
X24.638Y1.524
X24.892Y25.908
X24.892Y24.892
X24.892Y23.876
X24.892Y22.86
X25.4Y2.794
X25.908Y25.908
X25.908Y24.892
X25.908Y23.876
X25.908Y22.86
X25.908Y1.524
X26.162Y9.144
X26.67Y2.794
X26.924Y25.908
X26.924Y24.892
X26.924Y23.876
X26.924Y22.86
X27.39Y28.152
X27.432Y10.414
X27.432Y9.144
X27.94Y25.908
X27.94Y24.892
X27.94Y23.876
X27.94Y22.86
X29.464Y4.445
X31.75Y16.51
X31.75Y15.494
X32.512Y17.526
X32.766Y16.51
X32.766Y15.494
X34.036Y11.176
X34.036Y5.842
X34.036Y4.572
X34.036Y3.302
X34.036Y2.032
X34.798Y17.78
X35.306Y25.908
X35.306Y24.892
X35.306Y23.876
X35.306Y22.86
X35.306Y21.844
X35.306Y20.828
X35.306Y19.812
X35.306Y18.796
X35.306Y5.842
X35.306Y4.572
X35.306Y3.302
X35.306Y2.032
X35.433Y13.716
X39.624Y18.796
X40.132Y7.493
X40.259Y15.494
X40.64Y18.796
X42.291Y23.749
X42.291Y22.479
X43.688Y25.654
X43.688Y24.638
X43.688Y23.622
X43.688Y22.606
T3
X3.335Y27.5
X3.335Y16.5
X35.5Y27.5
X35.5Y16.5
T4
X13.335Y24.5
X13.335Y19.5
X30.5Y24.5
X30.5Y19.5
T0
M30
