%TF.GenerationSoftware,KiCad,Pcbnew,6.0.4-6f826c9f35~116~ubuntu20.04.1*%
%TF.CreationDate,2022-03-30T13:27:23+00:00*%
%TF.ProjectId,TFSBEC01A,54465342-4543-4303-9141-2e6b69636164,rev?*%
%TF.SameCoordinates,Original*%
%TF.FileFunction,Copper,L1,Top*%
%TF.FilePolarity,Positive*%
%FSLAX46Y46*%
G04 Gerber Fmt 4.6, Leading zero omitted, Abs format (unit mm)*
G04 Created by KiCad (PCBNEW 6.0.4-6f826c9f35~116~ubuntu20.04.1) date 2022-03-30 13:27:23*
%MOMM*%
%LPD*%
G01*
G04 APERTURE LIST*
G04 Aperture macros list*
%AMRoundRect*
0 Rectangle with rounded corners*
0 $1 Rounding radius*
0 $2 $3 $4 $5 $6 $7 $8 $9 X,Y pos of 4 corners*
0 Add a 4 corners polygon primitive as box body*
4,1,4,$2,$3,$4,$5,$6,$7,$8,$9,$2,$3,0*
0 Add four circle primitives for the rounded corners*
1,1,$1+$1,$2,$3*
1,1,$1+$1,$4,$5*
1,1,$1+$1,$6,$7*
1,1,$1+$1,$8,$9*
0 Add four rect primitives between the rounded corners*
20,1,$1+$1,$2,$3,$4,$5,0*
20,1,$1+$1,$4,$5,$6,$7,0*
20,1,$1+$1,$6,$7,$8,$9,0*
20,1,$1+$1,$8,$9,$2,$3,0*%
G04 Aperture macros list end*
%TA.AperFunction,ComponentPad*%
%ADD10C,1.400000*%
%TD*%
%TA.AperFunction,ComponentPad*%
%ADD11R,3.500000X3.500000*%
%TD*%
%TA.AperFunction,ComponentPad*%
%ADD12C,3.500000*%
%TD*%
%TA.AperFunction,ComponentPad*%
%ADD13C,0.500000*%
%TD*%
%TA.AperFunction,SMDPad,CuDef*%
%ADD14RoundRect,0.250000X-0.700000X-1.200000X0.700000X-1.200000X0.700000X1.200000X-0.700000X1.200000X0*%
%TD*%
%TA.AperFunction,ViaPad*%
%ADD15C,0.800000*%
%TD*%
%TA.AperFunction,Conductor*%
%ADD16C,0.500000*%
%TD*%
%TA.AperFunction,Conductor*%
%ADD17C,0.400000*%
%TD*%
G04 APERTURE END LIST*
D10*
%TO.P,J19,*%
%TO.N,*%
X35500000Y16500000D03*
X35500000Y27500000D03*
D11*
%TO.P,J19,1,-*%
%TO.N,GND*%
X30500000Y24500000D03*
D12*
%TO.P,J19,2,+*%
%TO.N,VCC*%
X30500000Y19500000D03*
%TD*%
D10*
%TO.P,J18,*%
%TO.N,*%
X3335000Y27500000D03*
X3335000Y16500000D03*
D11*
%TO.P,J18,1,-*%
%TO.N,Net-(J18-Pad1)*%
X13335000Y24500000D03*
D12*
%TO.P,J18,2,+*%
%TO.N,VCC*%
X13335000Y19500000D03*
%TD*%
D13*
%TO.P,U3,9,GND*%
%TO.N,GND*%
X18291000Y16059000D03*
X18291000Y13659000D03*
X18291000Y14859000D03*
D14*
X17591000Y14859000D03*
D13*
X16891000Y16059000D03*
X16891000Y13659000D03*
X16891000Y14859000D03*
%TD*%
D15*
%TO.N,GND*%
X27940000Y25908000D03*
X25908000Y24892000D03*
X7112000Y8890000D03*
X24638000Y1524000D03*
X3810000Y3048000D03*
X25400000Y2794000D03*
X34036000Y3302000D03*
X14986000Y7366000D03*
X2540000Y11938000D03*
X12446000Y11938000D03*
X24130000Y2794000D03*
X17018000Y12446000D03*
X43688000Y23622000D03*
X21082000Y3810000D03*
X24892000Y24892000D03*
X23368000Y1524000D03*
X10160000Y22606000D03*
X43688000Y24638000D03*
X43688000Y25654000D03*
X7112000Y11938000D03*
X11938000Y26924000D03*
X4826000Y2032000D03*
X9398000Y11938000D03*
X3302000Y8890000D03*
X31750000Y16510000D03*
X6096000Y8890000D03*
X4826000Y3048000D03*
X27940000Y22860000D03*
X35306000Y3302000D03*
X16256000Y11430000D03*
X10160000Y8890000D03*
X35306000Y5842000D03*
X26924000Y24892000D03*
X23876000Y22860000D03*
X5842000Y20066000D03*
X8382000Y11938000D03*
X31750000Y15494000D03*
X5842000Y21336000D03*
X35306000Y24892000D03*
X35306000Y22860000D03*
X27940000Y23876000D03*
X6096000Y11938000D03*
X25908000Y1524000D03*
X23876000Y23876000D03*
X26924000Y23876000D03*
X1270000Y8890000D03*
X8890000Y22606000D03*
X35306000Y21844000D03*
X32766000Y16510000D03*
X34036000Y11176000D03*
X35306000Y4572000D03*
X14986000Y6096000D03*
X26924000Y25908000D03*
X25908000Y22860000D03*
X2286000Y8890000D03*
X11176000Y28956000D03*
X34036000Y5842000D03*
X35306000Y25908000D03*
X12192000Y8890000D03*
X23876000Y25908000D03*
X26162000Y9144000D03*
X9144000Y8890000D03*
X24892000Y25908000D03*
X24892000Y23876000D03*
X22606000Y5080000D03*
X35306000Y20828000D03*
X19558000Y3302000D03*
X27940000Y24892000D03*
X35306000Y2032000D03*
X9652000Y5080000D03*
X35306000Y23876000D03*
X10414000Y11938000D03*
X23876000Y24892000D03*
X3556000Y11938000D03*
X11176000Y8890000D03*
X39624000Y18796000D03*
X11430000Y11938000D03*
X40640000Y18796000D03*
X7620000Y22606000D03*
X32766000Y15494000D03*
X34798000Y17780000D03*
X17526000Y3302000D03*
X34036000Y2032000D03*
X27432000Y10414000D03*
X4826000Y4064000D03*
X1524000Y11938000D03*
X43688000Y22606000D03*
X15494000Y3302000D03*
X3810000Y4064000D03*
X32512000Y17526000D03*
X8128000Y8890000D03*
X3810000Y2032000D03*
X26924000Y22860000D03*
X35306000Y19812000D03*
X25908000Y25908000D03*
X26670000Y2794000D03*
X25908000Y23876000D03*
X27432000Y9144000D03*
X24892000Y22860000D03*
X34036000Y4572000D03*
X35306000Y18796000D03*
%TO.N,+3V3*%
X16642000Y27935000D03*
X4699000Y8763000D03*
%TO.N,/SENSE_CURRENT*%
X27390000Y28152000D03*
X40259000Y15494000D03*
X42291000Y23749000D03*
%TO.N,/SENSE_VOLTAGE*%
X42291000Y22479000D03*
X40132000Y7493000D03*
X35433000Y13716000D03*
%TO.N,Net-(R5-Pad2)*%
X29464000Y4445000D03*
X21590000Y16764000D03*
%TD*%
D16*
%TO.N,+3V3*%
X4699000Y21590000D02*
X11049000Y27940000D01*
X16637000Y27940000D02*
X16642000Y27935000D01*
X4699000Y8763000D02*
X4699000Y21590000D01*
X11049000Y27940000D02*
X16637000Y27940000D01*
D17*
%TO.N,/SENSE_CURRENT*%
X41491489Y16599489D02*
X41491489Y22949489D01*
X31514631Y28599511D02*
X37440489Y28599511D01*
X40259000Y15494000D02*
X40386000Y15494000D01*
X40386000Y15494000D02*
X41491489Y16599489D01*
X41491489Y22949489D02*
X42291000Y23749000D01*
X31067120Y28152000D02*
X31514631Y28599511D01*
X27390000Y28152000D02*
X31067120Y28152000D01*
X37440489Y28599511D02*
X42291000Y23749000D01*
%TO.N,/SENSE_VOLTAGE*%
X40132000Y13462000D02*
X40132000Y7493000D01*
X42291000Y22479000D02*
X42291000Y16129000D01*
X42291000Y16129000D02*
X39878000Y13716000D01*
X35433000Y13716000D02*
X39878000Y13716000D01*
X39878000Y13716000D02*
X40132000Y13462000D01*
%TO.N,Net-(R5-Pad2)*%
X28956000Y15621000D02*
X30099000Y14478000D01*
X30099000Y14478000D02*
X30099000Y5080000D01*
X30099000Y5080000D02*
X29464000Y4445000D01*
X21590000Y16764000D02*
X21590000Y16510000D01*
X21590000Y16510000D02*
X22479000Y15621000D01*
X22479000Y15621000D02*
X28956000Y15621000D01*
%TD*%
%TA.AperFunction,Conductor*%
%TO.N,VCC*%
G36*
X30422121Y21823998D02*
G01*
X30468614Y21770342D01*
X30480000Y21718000D01*
X30480000Y16890000D01*
X30459998Y16821879D01*
X30406342Y16775386D01*
X30354000Y16764000D01*
X22360584Y16764000D01*
X22292463Y16784002D01*
X22245970Y16837658D01*
X22235578Y16874208D01*
X22229775Y16920146D01*
X22229774Y16920149D01*
X22228781Y16928011D01*
X22167924Y17081717D01*
X22070755Y17215459D01*
X22064647Y17220512D01*
X21949487Y17315781D01*
X21949483Y17315784D01*
X21943378Y17320834D01*
X21793797Y17391222D01*
X21786014Y17392707D01*
X21786013Y17392707D01*
X21639196Y17420714D01*
X21639194Y17420714D01*
X21631410Y17422199D01*
X21548916Y17417009D01*
X21474333Y17412316D01*
X21474331Y17412316D01*
X21466422Y17411818D01*
X21458886Y17409369D01*
X21458884Y17409369D01*
X21316741Y17363184D01*
X21316738Y17363183D01*
X21309199Y17360733D01*
X21169619Y17272153D01*
X21164192Y17266374D01*
X21164191Y17266373D01*
X21110356Y17209045D01*
X21056453Y17151644D01*
X20976812Y17006778D01*
X20974840Y16999097D01*
X20938783Y16858665D01*
X20902469Y16797659D01*
X20838937Y16765970D01*
X20816742Y16764000D01*
X13334000Y16764000D01*
X13265879Y16784002D01*
X13219386Y16837658D01*
X13208000Y16890000D01*
X13208000Y21718000D01*
X13228002Y21786121D01*
X13281658Y21832614D01*
X13334000Y21844000D01*
X30354000Y21844000D01*
X30422121Y21823998D01*
G37*
%TD.AperFunction*%
%TD*%
%TA.AperFunction,Conductor*%
%TO.N,GND*%
G36*
X44442121Y29479998D02*
G01*
X44488614Y29426342D01*
X44500000Y29374000D01*
X44500000Y626000D01*
X44479998Y557879D01*
X44426342Y511386D01*
X44374000Y500000D01*
X626000Y500000D01*
X557879Y520002D01*
X511386Y573658D01*
X500000Y626000D01*
X500000Y6604000D01*
X9828300Y6604000D01*
X9848116Y6352219D01*
X9907075Y6106637D01*
X10003725Y5873302D01*
X10135687Y5657960D01*
X10299712Y5465912D01*
X10491760Y5301887D01*
X10707102Y5169925D01*
X10711672Y5168032D01*
X10711676Y5168030D01*
X10899168Y5090369D01*
X10940437Y5073275D01*
X11025821Y5052776D01*
X11181206Y5015471D01*
X11181212Y5015470D01*
X11186019Y5014316D01*
X11285348Y5006498D01*
X11371814Y4999693D01*
X11371821Y4999693D01*
X11374270Y4999500D01*
X11501330Y4999500D01*
X11503779Y4999693D01*
X11503786Y4999693D01*
X11590252Y5006498D01*
X11689581Y5014316D01*
X11694388Y5015470D01*
X11694394Y5015471D01*
X11849779Y5052776D01*
X11935163Y5073275D01*
X11976432Y5090369D01*
X12163924Y5168030D01*
X12163928Y5168032D01*
X12168498Y5169925D01*
X12383840Y5301887D01*
X12575888Y5465912D01*
X12739913Y5657960D01*
X12871875Y5873302D01*
X12968525Y6106637D01*
X13027484Y6352219D01*
X13047300Y6604000D01*
X13027484Y6855781D01*
X13025441Y6864293D01*
X12969680Y7096551D01*
X12968525Y7101363D01*
X12940563Y7168870D01*
X12873770Y7330124D01*
X12873768Y7330128D01*
X12871875Y7334698D01*
X12739913Y7550040D01*
X12596692Y7717730D01*
X12579096Y7738332D01*
X12575888Y7742088D01*
X12383840Y7906113D01*
X12168498Y8038075D01*
X12163928Y8039968D01*
X12163924Y8039970D01*
X11939736Y8132831D01*
X11939734Y8132832D01*
X11935163Y8134725D01*
X11849779Y8155224D01*
X11694394Y8192529D01*
X11694388Y8192530D01*
X11689581Y8193684D01*
X11590252Y8201502D01*
X11503786Y8208307D01*
X11503779Y8208307D01*
X11501330Y8208500D01*
X11374270Y8208500D01*
X11371821Y8208307D01*
X11371814Y8208307D01*
X11285348Y8201502D01*
X11186019Y8193684D01*
X11181212Y8192530D01*
X11181206Y8192529D01*
X11025821Y8155224D01*
X10940437Y8134725D01*
X10935866Y8132832D01*
X10935864Y8132831D01*
X10711676Y8039970D01*
X10711672Y8039968D01*
X10707102Y8038075D01*
X10491760Y7906113D01*
X10299712Y7742088D01*
X10296504Y7738332D01*
X10278908Y7717730D01*
X10135687Y7550040D01*
X10003725Y7334698D01*
X10001832Y7330128D01*
X10001830Y7330124D01*
X9935037Y7168870D01*
X9907075Y7101363D01*
X9905920Y7096551D01*
X9850160Y6864293D01*
X9848116Y6855781D01*
X9828300Y6604000D01*
X500000Y6604000D01*
X500000Y16406369D01*
X2380079Y16406369D01*
X2418410Y16216268D01*
X2420905Y16210391D01*
X2420905Y16210390D01*
X2487823Y16052743D01*
X2494184Y16037757D01*
X2604304Y15878129D01*
X2744273Y15743904D01*
X2813042Y15700598D01*
X2902965Y15643970D01*
X2902969Y15643968D01*
X2908373Y15640565D01*
X3089900Y15572333D01*
X3096204Y15571335D01*
X3096206Y15571334D01*
X3185670Y15557164D01*
X3281439Y15541996D01*
X3475167Y15550793D01*
X3556344Y15571334D01*
X3656980Y15596799D01*
X3656982Y15596800D01*
X3663168Y15598365D01*
X3750463Y15640565D01*
X3832016Y15679989D01*
X3832018Y15679990D01*
X3837764Y15682768D01*
X3842833Y15686644D01*
X3842837Y15686646D01*
X3991823Y15800555D01*
X3993623Y15798201D01*
X4045589Y15824497D01*
X4116211Y15817216D01*
X4171685Y15772908D01*
X4194500Y15700598D01*
X4194500Y9229873D01*
X4174498Y9161752D01*
X4170785Y9156322D01*
X4165453Y9150644D01*
X4085812Y9005778D01*
X4044700Y8845657D01*
X4044700Y8680343D01*
X4085812Y8520222D01*
X4165453Y8375356D01*
X4170877Y8369580D01*
X4225380Y8311541D01*
X4278619Y8254847D01*
X4418199Y8166267D01*
X4425738Y8163817D01*
X4425741Y8163816D01*
X4567884Y8117631D01*
X4567886Y8117631D01*
X4575422Y8115182D01*
X4583331Y8114684D01*
X4583333Y8114684D01*
X4657916Y8109992D01*
X4740410Y8104801D01*
X4748194Y8106286D01*
X4748196Y8106286D01*
X4895013Y8134293D01*
X4895014Y8134293D01*
X4902797Y8135778D01*
X5052378Y8206166D01*
X5058483Y8211216D01*
X5058487Y8211219D01*
X5173647Y8306488D01*
X5179755Y8311541D01*
X5276924Y8445283D01*
X5337781Y8598989D01*
X5358500Y8763000D01*
X5337781Y8927011D01*
X5276924Y9080717D01*
X5227563Y9148657D01*
X5203500Y9222717D01*
X5203500Y19563120D01*
X11326492Y19563120D01*
X11337635Y19279489D01*
X11388632Y19000258D01*
X11478464Y18730998D01*
X11605339Y18477081D01*
X11607868Y18473422D01*
X11712092Y18322623D01*
X11766725Y18243575D01*
X11959403Y18035138D01*
X12179527Y17855928D01*
X12183345Y17853629D01*
X12183347Y17853628D01*
X12418889Y17711820D01*
X12422706Y17709522D01*
X12426801Y17707788D01*
X12426803Y17707787D01*
X12609864Y17630271D01*
X12684088Y17598841D01*
X12688381Y17597703D01*
X12688386Y17597701D01*
X12860292Y17552122D01*
X12921011Y17515329D01*
X12952200Y17451550D01*
X12954000Y17430330D01*
X12954000Y16890000D01*
X12954360Y16886653D01*
X12954360Y16886649D01*
X12959382Y16839939D01*
X12959804Y16836010D01*
X12960522Y16832710D01*
X12960522Y16832709D01*
X12969786Y16790124D01*
X12971190Y16783668D01*
X12978384Y16757445D01*
X13001597Y16716680D01*
X13024362Y16676702D01*
X13024365Y16676698D01*
X13027425Y16671324D01*
X13040686Y16656020D01*
X13064898Y16628078D01*
X13073918Y16617668D01*
X13106502Y16586227D01*
X13194319Y16540291D01*
X13262440Y16520289D01*
X13266899Y16519648D01*
X13266903Y16519647D01*
X13296151Y16515442D01*
X13334000Y16510000D01*
X20816742Y16510000D01*
X20827970Y16510498D01*
X20837781Y16510932D01*
X20837791Y16510933D01*
X20839198Y16510995D01*
X20861393Y16512965D01*
X20868791Y16515057D01*
X20869665Y16515048D01*
X20872863Y16515637D01*
X20872978Y16515015D01*
X20939784Y16514343D01*
X20999121Y16475361D01*
X21013486Y16454512D01*
X21056453Y16376356D01*
X21169619Y16255847D01*
X21209630Y16230455D01*
X21244112Y16208572D01*
X21269122Y16187716D01*
X21296305Y16158310D01*
X21296309Y16158307D01*
X21302701Y16151392D01*
X21308817Y16147839D01*
X21314414Y16142826D01*
X22134052Y15323188D01*
X22143907Y15312099D01*
X22164451Y15286039D01*
X22213191Y15252352D01*
X22216359Y15250088D01*
X22263987Y15214909D01*
X22270858Y15212496D01*
X22276848Y15208356D01*
X22333304Y15190501D01*
X22337011Y15189265D01*
X22392898Y15169639D01*
X22400101Y15169356D01*
X22400268Y15169323D01*
X22407118Y15167157D01*
X22415466Y15166500D01*
X22470314Y15166500D01*
X22475261Y15166403D01*
X22529423Y15164275D01*
X22536260Y15166088D01*
X22543752Y15166500D01*
X28715550Y15166500D01*
X28783671Y15146498D01*
X28804645Y15129595D01*
X29607595Y14326645D01*
X29641621Y14264333D01*
X29644500Y14237550D01*
X29644500Y5320450D01*
X29624498Y5252329D01*
X29607595Y5231355D01*
X29511361Y5135121D01*
X29449049Y5101095D01*
X29430182Y5098466D01*
X29385358Y5095645D01*
X29348333Y5093316D01*
X29348331Y5093316D01*
X29340422Y5092818D01*
X29332886Y5090369D01*
X29332884Y5090369D01*
X29190741Y5044184D01*
X29190738Y5044183D01*
X29183199Y5041733D01*
X29043619Y4953153D01*
X29038192Y4947374D01*
X29038191Y4947373D01*
X28965731Y4870211D01*
X28930453Y4832644D01*
X28850812Y4687778D01*
X28809700Y4527657D01*
X28809700Y4362343D01*
X28850812Y4202222D01*
X28930453Y4057356D01*
X28935877Y4051580D01*
X28990380Y3993541D01*
X29043619Y3936847D01*
X29183199Y3848267D01*
X29190738Y3845817D01*
X29190741Y3845816D01*
X29332884Y3799631D01*
X29332886Y3799631D01*
X29340422Y3797182D01*
X29348331Y3796684D01*
X29348333Y3796684D01*
X29422916Y3791991D01*
X29505410Y3786801D01*
X29513194Y3788286D01*
X29513196Y3788286D01*
X29660013Y3816293D01*
X29660014Y3816293D01*
X29667797Y3817778D01*
X29817378Y3888166D01*
X29823483Y3893216D01*
X29823487Y3893219D01*
X29938647Y3988488D01*
X29944755Y3993541D01*
X30041924Y4127283D01*
X30102781Y4280989D01*
X30120514Y4421362D01*
X30148896Y4486438D01*
X30156425Y4494665D01*
X30396812Y4735052D01*
X30407901Y4744907D01*
X30426564Y4759620D01*
X30433961Y4765451D01*
X30467648Y4814191D01*
X30469916Y4817364D01*
X30485468Y4838420D01*
X30505091Y4864987D01*
X30507504Y4871858D01*
X30511644Y4877848D01*
X30529499Y4934304D01*
X30530743Y4938034D01*
X30536053Y4953153D01*
X30550361Y4993898D01*
X30550644Y5001101D01*
X30550677Y5001268D01*
X30552843Y5008118D01*
X30553500Y5016466D01*
X30553500Y5071314D01*
X30553597Y5076261D01*
X30554151Y5090369D01*
X30555725Y5130423D01*
X30553912Y5137260D01*
X30553500Y5144752D01*
X30553500Y14444673D01*
X30554373Y14459482D01*
X30557166Y14483081D01*
X30558273Y14492434D01*
X30556581Y14501701D01*
X30547641Y14550653D01*
X30546991Y14554555D01*
X30539587Y14603802D01*
X30539586Y14603804D01*
X30538187Y14613112D01*
X30535034Y14619678D01*
X30533726Y14626840D01*
X30506423Y14679401D01*
X30504673Y14682903D01*
X30483121Y14727786D01*
X30479044Y14736277D01*
X30474149Y14741572D01*
X30474057Y14741709D01*
X30470744Y14748087D01*
X30465305Y14754455D01*
X30426541Y14793219D01*
X30423111Y14796785D01*
X30392691Y14829693D01*
X30386299Y14836608D01*
X30380183Y14840161D01*
X30374586Y14845174D01*
X29300948Y15918812D01*
X29291093Y15929901D01*
X29276380Y15948564D01*
X29270549Y15955961D01*
X29221809Y15989648D01*
X29218636Y15991916D01*
X29204776Y16002153D01*
X29171013Y16027091D01*
X29164142Y16029504D01*
X29158152Y16033644D01*
X29101696Y16051499D01*
X29097989Y16052735D01*
X29042102Y16072361D01*
X29034899Y16072644D01*
X29034732Y16072677D01*
X29027882Y16074843D01*
X29019534Y16075500D01*
X28964686Y16075500D01*
X28959739Y16075597D01*
X28905577Y16077725D01*
X28898740Y16075912D01*
X28891248Y16075500D01*
X22719450Y16075500D01*
X22651329Y16095502D01*
X22630355Y16112405D01*
X22447855Y16294905D01*
X22413829Y16357217D01*
X22417345Y16406369D01*
X34545079Y16406369D01*
X34583410Y16216268D01*
X34585905Y16210391D01*
X34585905Y16210390D01*
X34652823Y16052743D01*
X34659184Y16037757D01*
X34769304Y15878129D01*
X34909273Y15743904D01*
X34978042Y15700598D01*
X35067965Y15643970D01*
X35067969Y15643968D01*
X35073373Y15640565D01*
X35254900Y15572333D01*
X35261204Y15571335D01*
X35261206Y15571334D01*
X35350670Y15557164D01*
X35446439Y15541996D01*
X35640167Y15550793D01*
X35721344Y15571334D01*
X35821980Y15596799D01*
X35821982Y15596800D01*
X35828168Y15598365D01*
X35915463Y15640565D01*
X35997016Y15679989D01*
X35997018Y15679990D01*
X36002764Y15682768D01*
X36007833Y15686644D01*
X36007837Y15686646D01*
X36142116Y15789311D01*
X36156823Y15800555D01*
X36259623Y15918812D01*
X36279863Y15942095D01*
X36279864Y15942097D01*
X36284051Y15946913D01*
X36379250Y16115865D01*
X36438533Y16300509D01*
X36459477Y16493301D01*
X36459500Y16500000D01*
X36457972Y16515048D01*
X36440547Y16686585D01*
X36440547Y16686586D01*
X36439902Y16692934D01*
X36381910Y16877987D01*
X36287893Y17047600D01*
X36161690Y17194843D01*
X36008458Y17313702D01*
X35834455Y17399322D01*
X35828277Y17400931D01*
X35828275Y17400932D01*
X35652972Y17446595D01*
X35652969Y17446595D01*
X35646790Y17448205D01*
X35563491Y17452570D01*
X35459510Y17458020D01*
X35459506Y17458020D01*
X35453129Y17458354D01*
X35313987Y17437311D01*
X35267696Y17430311D01*
X35267695Y17430311D01*
X35261382Y17429356D01*
X35255393Y17427153D01*
X35255391Y17427152D01*
X35184128Y17400932D01*
X35079383Y17362393D01*
X34914566Y17260202D01*
X34773663Y17126957D01*
X34662431Y16968101D01*
X34620796Y16871888D01*
X34605271Y16836010D01*
X34585414Y16790124D01*
X34584108Y16783874D01*
X34584108Y16783873D01*
X34551945Y16629918D01*
X34545756Y16600295D01*
X34545464Y16516522D01*
X34545155Y16428032D01*
X34545079Y16406369D01*
X22417345Y16406369D01*
X22418894Y16428032D01*
X22461441Y16484868D01*
X22527961Y16509679D01*
X22536950Y16510000D01*
X30354000Y16510000D01*
X30357347Y16510360D01*
X30357351Y16510360D01*
X30404626Y16515442D01*
X30404633Y16515443D01*
X30407990Y16515804D01*
X30411291Y16516522D01*
X30458678Y16526830D01*
X30458685Y16526832D01*
X30460332Y16527190D01*
X30486555Y16534384D01*
X30527320Y16557597D01*
X30567298Y16580362D01*
X30567302Y16580365D01*
X30572676Y16583425D01*
X30599458Y16606632D01*
X30624209Y16628078D01*
X30624214Y16628083D01*
X30626332Y16629918D01*
X30657773Y16662502D01*
X30703709Y16750319D01*
X30723711Y16818440D01*
X30734000Y16890000D01*
X30734000Y17400129D01*
X30754002Y17468250D01*
X30807658Y17514743D01*
X30839311Y17524419D01*
X30879983Y17531188D01*
X30964718Y17545292D01*
X30964722Y17545293D01*
X30969108Y17546023D01*
X30973349Y17547364D01*
X30973352Y17547365D01*
X31235500Y17630271D01*
X31235502Y17630272D01*
X31239746Y17631614D01*
X31243757Y17633540D01*
X31243762Y17633542D01*
X31491605Y17752555D01*
X31491606Y17752556D01*
X31495624Y17754485D01*
X31647444Y17855928D01*
X31727929Y17909706D01*
X31727933Y17909709D01*
X31731637Y17912184D01*
X31734954Y17915155D01*
X31734958Y17915158D01*
X31939757Y18098591D01*
X31939758Y18098592D01*
X31943075Y18101563D01*
X32125720Y18318846D01*
X32275927Y18559695D01*
X32390700Y18819306D01*
X32429224Y18955903D01*
X32466537Y19088204D01*
X32466538Y19088208D01*
X32467748Y19092499D01*
X32505535Y19373822D01*
X32509500Y19500000D01*
X32489453Y19783141D01*
X32429710Y20060633D01*
X32331465Y20326938D01*
X32196677Y20576744D01*
X32028036Y20805066D01*
X31984864Y20848922D01*
X31832037Y21004167D01*
X31828906Y21007348D01*
X31825367Y21010049D01*
X31825360Y21010055D01*
X31606802Y21176853D01*
X31606798Y21176856D01*
X31603261Y21179555D01*
X31355603Y21318250D01*
X31090874Y21420666D01*
X31086549Y21421669D01*
X31086544Y21421670D01*
X30831549Y21480775D01*
X30769704Y21515643D01*
X30736527Y21578411D01*
X30734000Y21603521D01*
X30734000Y21718000D01*
X30733520Y21722463D01*
X30728558Y21768626D01*
X30728557Y21768633D01*
X30728196Y21771990D01*
X30724114Y21790754D01*
X30717170Y21822678D01*
X30717168Y21822685D01*
X30716810Y21824332D01*
X30709616Y21850555D01*
X30670947Y21918462D01*
X30663638Y21931298D01*
X30663635Y21931302D01*
X30660575Y21936676D01*
X30624697Y21978082D01*
X30615922Y21988209D01*
X30615917Y21988214D01*
X30614082Y21990332D01*
X30581498Y22021773D01*
X30493681Y22067709D01*
X30425560Y22087711D01*
X30421101Y22088352D01*
X30421097Y22088353D01*
X30389780Y22092856D01*
X30354000Y22098000D01*
X13334000Y22098000D01*
X13330653Y22097640D01*
X13330649Y22097640D01*
X13283374Y22092558D01*
X13283367Y22092557D01*
X13280010Y22092196D01*
X13276710Y22091478D01*
X13276709Y22091478D01*
X13229322Y22081170D01*
X13229315Y22081168D01*
X13227668Y22080810D01*
X13201445Y22073616D01*
X13160680Y22050403D01*
X13120702Y22027638D01*
X13120698Y22027635D01*
X13115324Y22024575D01*
X13104872Y22015518D01*
X13074340Y21989062D01*
X13061668Y21978082D01*
X13030227Y21945498D01*
X12984291Y21857681D01*
X12964289Y21789560D01*
X12954000Y21718000D01*
X12954000Y21571372D01*
X12933998Y21503251D01*
X12880342Y21456758D01*
X12852582Y21447793D01*
X12820568Y21441425D01*
X12804747Y21438278D01*
X12800544Y21436802D01*
X12541139Y21345706D01*
X12541136Y21345705D01*
X12536931Y21344228D01*
X12532978Y21342175D01*
X12532972Y21342172D01*
X12490009Y21319854D01*
X12285039Y21213380D01*
X12281424Y21210797D01*
X12281418Y21210793D01*
X12057717Y21050934D01*
X12057713Y21050931D01*
X12054096Y21048346D01*
X11848711Y20852419D01*
X11672982Y20629507D01*
X11530414Y20384058D01*
X11528746Y20379941D01*
X11528743Y20379934D01*
X11505586Y20322761D01*
X11423852Y20120970D01*
X11355423Y19845492D01*
X11326492Y19563120D01*
X5203500Y19563120D01*
X5203500Y21328839D01*
X5223502Y21396960D01*
X5240405Y21417934D01*
X10072471Y26250000D01*
X11325500Y26250000D01*
X11325500Y22750000D01*
X11345253Y22650694D01*
X11401506Y22566506D01*
X11485694Y22510253D01*
X11585000Y22490500D01*
X15085000Y22490500D01*
X15184306Y22510253D01*
X15268494Y22566506D01*
X15324747Y22650694D01*
X15344500Y22750000D01*
X15344500Y26250000D01*
X15324747Y26349306D01*
X15268494Y26433494D01*
X15184306Y26489747D01*
X15085000Y26509500D01*
X11585000Y26509500D01*
X11485694Y26489747D01*
X11401506Y26433494D01*
X11345253Y26349306D01*
X11325500Y26250000D01*
X10072471Y26250000D01*
X11221066Y27398595D01*
X11283378Y27432621D01*
X11310161Y27435500D01*
X16171378Y27435500D01*
X16238892Y27415885D01*
X16266137Y27398595D01*
X16361199Y27338267D01*
X16368738Y27335817D01*
X16368741Y27335816D01*
X16510884Y27289631D01*
X16510886Y27289631D01*
X16518422Y27287182D01*
X16526331Y27286684D01*
X16526333Y27286684D01*
X16600916Y27281992D01*
X16683410Y27276801D01*
X16691194Y27278286D01*
X16691196Y27278286D01*
X16838013Y27306293D01*
X16838014Y27306293D01*
X16845797Y27307778D01*
X16995378Y27378166D01*
X17001483Y27383216D01*
X17001487Y27383219D01*
X17116647Y27478488D01*
X17122755Y27483541D01*
X17139531Y27506631D01*
X17215265Y27610870D01*
X17215266Y27610872D01*
X17219924Y27617283D01*
X17228760Y27639598D01*
X17277864Y27763621D01*
X17277864Y27763623D01*
X17280781Y27770989D01*
X17283199Y27790124D01*
X17300506Y27927132D01*
X17301500Y27935000D01*
X17296658Y27973327D01*
X17281775Y28091146D01*
X17281774Y28091149D01*
X17280781Y28099011D01*
X17277180Y28108106D01*
X17227075Y28234657D01*
X26735700Y28234657D01*
X26735700Y28069343D01*
X26776812Y27909222D01*
X26856453Y27764356D01*
X26861877Y27758580D01*
X26922129Y27694419D01*
X26969619Y27643847D01*
X27109199Y27555267D01*
X27116738Y27552817D01*
X27116741Y27552816D01*
X27258884Y27506631D01*
X27258886Y27506631D01*
X27266422Y27504182D01*
X27274331Y27503684D01*
X27274333Y27503684D01*
X27348916Y27498992D01*
X27431410Y27493801D01*
X27439194Y27495286D01*
X27439196Y27495286D01*
X27586013Y27523293D01*
X27586014Y27523293D01*
X27593797Y27524778D01*
X27743378Y27595166D01*
X27749483Y27600216D01*
X27749487Y27600219D01*
X27832127Y27668585D01*
X27897365Y27696595D01*
X27912442Y27697500D01*
X31033792Y27697500D01*
X31048602Y27696627D01*
X31081553Y27692727D01*
X31090817Y27694419D01*
X31090818Y27694419D01*
X31139778Y27703361D01*
X31143684Y27704011D01*
X31192920Y27711413D01*
X31202232Y27712813D01*
X31208798Y27715966D01*
X31215960Y27717274D01*
X31268521Y27744577D01*
X31272009Y27746320D01*
X31325397Y27771956D01*
X31330692Y27776851D01*
X31330829Y27776943D01*
X31337207Y27780256D01*
X31343575Y27785695D01*
X31382339Y27824459D01*
X31385905Y27827889D01*
X31418813Y27858309D01*
X31425728Y27864701D01*
X31429281Y27870817D01*
X31434294Y27876414D01*
X31665986Y28108106D01*
X31728298Y28142132D01*
X31755081Y28145011D01*
X34547280Y28145011D01*
X34615401Y28125009D01*
X34661894Y28071353D01*
X34671998Y28001079D01*
X34661047Y27968700D01*
X34662431Y27968101D01*
X34601037Y27826226D01*
X34585414Y27790124D01*
X34584108Y27783874D01*
X34584108Y27783873D01*
X34550845Y27624652D01*
X34545756Y27600295D01*
X34545614Y27559517D01*
X34545171Y27432621D01*
X34545079Y27406369D01*
X34583410Y27216268D01*
X34659184Y27037757D01*
X34769304Y26878129D01*
X34909273Y26743904D01*
X34980272Y26699194D01*
X35067965Y26643970D01*
X35067969Y26643968D01*
X35073373Y26640565D01*
X35254900Y26572333D01*
X35261204Y26571335D01*
X35261206Y26571334D01*
X35350669Y26557165D01*
X35446439Y26541996D01*
X35640167Y26550793D01*
X35721344Y26571334D01*
X35821980Y26596799D01*
X35821982Y26596800D01*
X35828168Y26598365D01*
X35915463Y26640565D01*
X35997016Y26679989D01*
X35997018Y26679990D01*
X36002764Y26682768D01*
X36007833Y26686644D01*
X36007837Y26686646D01*
X36151749Y26796676D01*
X36156823Y26800555D01*
X36284051Y26946913D01*
X36379250Y27115865D01*
X36438533Y27300509D01*
X36459477Y27493301D01*
X36459500Y27500000D01*
X36458827Y27506631D01*
X36440547Y27686585D01*
X36440547Y27686586D01*
X36439902Y27692934D01*
X36381910Y27877987D01*
X36337600Y27957925D01*
X36322069Y28027202D01*
X36346457Y28093879D01*
X36403022Y28136785D01*
X36447802Y28145011D01*
X37200039Y28145011D01*
X37268160Y28125009D01*
X37289134Y28108106D01*
X41559145Y23838095D01*
X41593171Y23775783D01*
X41588106Y23704968D01*
X41559145Y23659905D01*
X41193677Y23294437D01*
X41182588Y23284582D01*
X41156528Y23264038D01*
X41122841Y23215298D01*
X41120577Y23212130D01*
X41085398Y23164502D01*
X41082985Y23157631D01*
X41078845Y23151641D01*
X41069401Y23121778D01*
X41060998Y23095209D01*
X41059754Y23091478D01*
X41040128Y23035591D01*
X41039845Y23028388D01*
X41039812Y23028221D01*
X41037646Y23021371D01*
X41036989Y23013023D01*
X41036989Y22958175D01*
X41036892Y22953228D01*
X41034764Y22899066D01*
X41036577Y22892229D01*
X41036989Y22884737D01*
X41036989Y16839939D01*
X41016987Y16771818D01*
X41000084Y16750844D01*
X40432428Y16183188D01*
X40370116Y16149162D01*
X40319724Y16148515D01*
X40308198Y16150714D01*
X40308193Y16150714D01*
X40300410Y16152199D01*
X40218274Y16147031D01*
X40143333Y16142316D01*
X40143331Y16142316D01*
X40135422Y16141818D01*
X40127886Y16139369D01*
X40127884Y16139369D01*
X39985741Y16093184D01*
X39985738Y16093183D01*
X39978199Y16090733D01*
X39838619Y16002153D01*
X39833192Y15996374D01*
X39833191Y15996373D01*
X39767880Y15926824D01*
X39725453Y15881644D01*
X39645812Y15736778D01*
X39604700Y15576657D01*
X39604700Y15411343D01*
X39645812Y15251222D01*
X39725453Y15106356D01*
X39838619Y14985847D01*
X39978199Y14897267D01*
X39985738Y14894817D01*
X39985741Y14894816D01*
X40113468Y14853315D01*
X40172074Y14813241D01*
X40199711Y14747845D01*
X40187604Y14677888D01*
X40163627Y14644387D01*
X39726645Y14207405D01*
X39664333Y14173379D01*
X39637550Y14170500D01*
X35955442Y14170500D01*
X35887321Y14190502D01*
X35875127Y14199415D01*
X35792487Y14267781D01*
X35792483Y14267784D01*
X35786378Y14272834D01*
X35636797Y14343222D01*
X35629014Y14344707D01*
X35629013Y14344707D01*
X35482196Y14372714D01*
X35482194Y14372714D01*
X35474410Y14374199D01*
X35391916Y14369009D01*
X35317333Y14364316D01*
X35317331Y14364316D01*
X35309422Y14363818D01*
X35301886Y14361369D01*
X35301884Y14361369D01*
X35159741Y14315184D01*
X35159738Y14315183D01*
X35152199Y14312733D01*
X35012619Y14224153D01*
X35007192Y14218374D01*
X35007191Y14218373D01*
X34989388Y14199415D01*
X34899453Y14103644D01*
X34819812Y13958778D01*
X34778700Y13798657D01*
X34778700Y13633343D01*
X34819812Y13473222D01*
X34899453Y13328356D01*
X35012619Y13207847D01*
X35152199Y13119267D01*
X35159738Y13116817D01*
X35159741Y13116816D01*
X35301884Y13070631D01*
X35301886Y13070631D01*
X35309422Y13068182D01*
X35317331Y13067684D01*
X35317333Y13067684D01*
X35391916Y13062992D01*
X35474410Y13057801D01*
X35482194Y13059286D01*
X35482196Y13059286D01*
X35629013Y13087293D01*
X35629014Y13087293D01*
X35636797Y13088778D01*
X35786378Y13159166D01*
X35792483Y13164216D01*
X35792487Y13164219D01*
X35875127Y13232585D01*
X35940365Y13260595D01*
X35955442Y13261500D01*
X39551500Y13261500D01*
X39619621Y13241498D01*
X39666114Y13187842D01*
X39677500Y13135500D01*
X39677500Y8014707D01*
X39657498Y7946586D01*
X39643351Y7928455D01*
X39598453Y7880644D01*
X39518812Y7735778D01*
X39477700Y7575657D01*
X39477700Y7410343D01*
X39518812Y7250222D01*
X39598453Y7105356D01*
X39603877Y7099580D01*
X39658380Y7041541D01*
X39711619Y6984847D01*
X39851199Y6896267D01*
X39858738Y6893817D01*
X39858741Y6893816D01*
X40000884Y6847631D01*
X40000886Y6847631D01*
X40008422Y6845182D01*
X40016331Y6844684D01*
X40016333Y6844684D01*
X40090916Y6839992D01*
X40173410Y6834801D01*
X40181194Y6836286D01*
X40181196Y6836286D01*
X40328013Y6864293D01*
X40328014Y6864293D01*
X40335797Y6865778D01*
X40485378Y6936166D01*
X40491483Y6941216D01*
X40491487Y6941219D01*
X40606647Y7036488D01*
X40612755Y7041541D01*
X40709924Y7175283D01*
X40770781Y7328989D01*
X40772036Y7338918D01*
X40790506Y7485132D01*
X40791500Y7493000D01*
X40784294Y7550040D01*
X40771775Y7649146D01*
X40771774Y7649149D01*
X40770781Y7657011D01*
X40739595Y7735778D01*
X40712842Y7803348D01*
X40712841Y7803350D01*
X40709924Y7810717D01*
X40612755Y7944459D01*
X40614881Y7946004D01*
X40588600Y7997946D01*
X40586500Y8020853D01*
X40586500Y13428673D01*
X40587373Y13443482D01*
X40590166Y13467081D01*
X40591273Y13476434D01*
X40589581Y13485701D01*
X40580641Y13534653D01*
X40579991Y13538555D01*
X40572587Y13587802D01*
X40572586Y13587804D01*
X40571187Y13597112D01*
X40568034Y13603678D01*
X40566726Y13610840D01*
X40557610Y13628389D01*
X40543957Y13698059D01*
X40570138Y13764052D01*
X40580328Y13775568D01*
X42588812Y15784052D01*
X42599901Y15793907D01*
X42608334Y15800555D01*
X42625961Y15814451D01*
X42659650Y15863194D01*
X42661918Y15866367D01*
X42691496Y15906412D01*
X42691497Y15906413D01*
X42697090Y15913986D01*
X42699503Y15920856D01*
X42703644Y15926848D01*
X42721500Y15983307D01*
X42722745Y15987038D01*
X42739240Y16034008D01*
X42739241Y16034012D01*
X42742361Y16042897D01*
X42742644Y16050101D01*
X42742677Y16050268D01*
X42744843Y16057118D01*
X42745500Y16065466D01*
X42745500Y16120314D01*
X42745597Y16125261D01*
X42746151Y16139369D01*
X42747725Y16179423D01*
X42745912Y16186260D01*
X42745500Y16193752D01*
X42745500Y21951147D01*
X42765502Y22019268D01*
X42771884Y22027447D01*
X42771755Y22027541D01*
X42864265Y22154870D01*
X42864266Y22154872D01*
X42868924Y22161283D01*
X42929781Y22314989D01*
X42950500Y22479000D01*
X42945681Y22517148D01*
X42930775Y22635146D01*
X42930774Y22635149D01*
X42929781Y22643011D01*
X42921920Y22662866D01*
X42871842Y22789348D01*
X42871841Y22789350D01*
X42868924Y22796717D01*
X42771755Y22930459D01*
X42667247Y23016915D01*
X42627509Y23075749D01*
X42625886Y23146727D01*
X42667247Y23211085D01*
X42670428Y23213716D01*
X42771755Y23297541D01*
X42868924Y23431283D01*
X42929781Y23584989D01*
X42950500Y23749000D01*
X42929781Y23913011D01*
X42868924Y24066717D01*
X42771755Y24200459D01*
X42765647Y24205512D01*
X42650487Y24300781D01*
X42650483Y24300784D01*
X42644378Y24305834D01*
X42494797Y24376222D01*
X42487014Y24377707D01*
X42487013Y24377707D01*
X42340195Y24405714D01*
X42340194Y24405714D01*
X42332410Y24407199D01*
X42324500Y24406701D01*
X42320324Y24406964D01*
X42253593Y24431203D01*
X42239140Y24443620D01*
X37785437Y28897323D01*
X37775582Y28908412D01*
X37760869Y28927075D01*
X37755038Y28934472D01*
X37706298Y28968159D01*
X37703125Y28970427D01*
X37693763Y28977342D01*
X37655502Y29005602D01*
X37648631Y29008015D01*
X37642641Y29012155D01*
X37586185Y29030010D01*
X37582478Y29031246D01*
X37526591Y29050872D01*
X37519388Y29051155D01*
X37519221Y29051188D01*
X37512371Y29053354D01*
X37504023Y29054011D01*
X37449175Y29054011D01*
X37444228Y29054108D01*
X37390066Y29056236D01*
X37383229Y29054423D01*
X37375737Y29054011D01*
X31547958Y29054011D01*
X31533149Y29054884D01*
X31524608Y29055895D01*
X31500197Y29058784D01*
X31490933Y29057092D01*
X31490930Y29057092D01*
X31441978Y29048152D01*
X31438076Y29047502D01*
X31388829Y29040098D01*
X31388827Y29040097D01*
X31379519Y29038698D01*
X31372953Y29035545D01*
X31365791Y29034237D01*
X31313230Y29006934D01*
X31309742Y29005191D01*
X31256354Y28979555D01*
X31251059Y28974660D01*
X31250922Y28974568D01*
X31244544Y28971255D01*
X31238176Y28965816D01*
X31199412Y28927052D01*
X31195847Y28923623D01*
X31156023Y28886810D01*
X31152470Y28880694D01*
X31147457Y28875097D01*
X30915765Y28643405D01*
X30853453Y28609379D01*
X30826670Y28606500D01*
X27912442Y28606500D01*
X27844321Y28626502D01*
X27832127Y28635415D01*
X27749487Y28703781D01*
X27749483Y28703784D01*
X27743378Y28708834D01*
X27593797Y28779222D01*
X27586014Y28780707D01*
X27586013Y28780707D01*
X27439196Y28808714D01*
X27439194Y28808714D01*
X27431410Y28810199D01*
X27348916Y28805008D01*
X27274333Y28800316D01*
X27274331Y28800316D01*
X27266422Y28799818D01*
X27258886Y28797369D01*
X27258884Y28797369D01*
X27116741Y28751184D01*
X27116738Y28751183D01*
X27109199Y28748733D01*
X26969619Y28660153D01*
X26964192Y28654374D01*
X26964191Y28654373D01*
X26946388Y28635415D01*
X26856453Y28539644D01*
X26776812Y28394778D01*
X26735700Y28234657D01*
X17227075Y28234657D01*
X17222842Y28245348D01*
X17222841Y28245350D01*
X17219924Y28252717D01*
X17212041Y28263568D01*
X17127415Y28380045D01*
X17122755Y28386459D01*
X17104303Y28401724D01*
X17001487Y28486781D01*
X17001483Y28486784D01*
X16995378Y28491834D01*
X16845797Y28562222D01*
X16838014Y28563707D01*
X16838013Y28563707D01*
X16691196Y28591714D01*
X16691194Y28591714D01*
X16683410Y28593199D01*
X16600916Y28588008D01*
X16526333Y28583316D01*
X16526331Y28583316D01*
X16518422Y28582818D01*
X16510886Y28580369D01*
X16510884Y28580369D01*
X16368741Y28534184D01*
X16368738Y28534183D01*
X16361199Y28531733D01*
X16290366Y28486781D01*
X16254650Y28464115D01*
X16187136Y28444500D01*
X11118782Y28444500D01*
X11107610Y28445748D01*
X11107563Y28445158D01*
X11098617Y28445878D01*
X11089861Y28447859D01*
X11039620Y28444742D01*
X11031818Y28444500D01*
X11014086Y28444500D01*
X11002554Y28442848D01*
X10992502Y28441819D01*
X10954642Y28439470D01*
X10945680Y28438914D01*
X10937236Y28435866D01*
X10933911Y28435177D01*
X10918126Y28431241D01*
X10914885Y28430293D01*
X10906000Y28429021D01*
X10897829Y28425306D01*
X10897826Y28425305D01*
X10874153Y28414541D01*
X10863284Y28409599D01*
X10853948Y28405798D01*
X10809804Y28389861D01*
X10802557Y28384567D01*
X10799580Y28382984D01*
X10785518Y28374767D01*
X10782670Y28372945D01*
X10774496Y28369229D01*
X10745981Y28344659D01*
X10738961Y28338611D01*
X10731045Y28332325D01*
X10719200Y28323671D01*
X10707425Y28311896D01*
X10700577Y28305537D01*
X10671857Y28280791D01*
X10671855Y28280789D01*
X10665059Y28274933D01*
X10660179Y28267404D01*
X10654275Y28260636D01*
X10654212Y28260691D01*
X10645699Y28250170D01*
X4391612Y21996082D01*
X4382826Y21989062D01*
X4383210Y21988611D01*
X4376377Y21982796D01*
X4368783Y21978004D01*
X4345064Y21951147D01*
X4335446Y21940257D01*
X4330100Y21934570D01*
X4317577Y21922047D01*
X4310601Y21912739D01*
X4304220Y21904901D01*
X4273156Y21869727D01*
X4269342Y21861604D01*
X4267483Y21858773D01*
X4259105Y21844828D01*
X4257480Y21841861D01*
X4252094Y21834674D01*
X4237848Y21796670D01*
X4235630Y21790754D01*
X4231702Y21781432D01*
X4228819Y21775291D01*
X4211763Y21738963D01*
X4210382Y21730090D01*
X4209392Y21726853D01*
X4205262Y21711108D01*
X4204537Y21707813D01*
X4201386Y21699407D01*
X4197908Y21652604D01*
X4196756Y21642584D01*
X4195250Y21632914D01*
X4195249Y21632905D01*
X4194500Y21628093D01*
X4194500Y21611427D01*
X4194153Y21602088D01*
X4190679Y21555346D01*
X4192552Y21546571D01*
X4193163Y21537609D01*
X4193079Y21537603D01*
X4194500Y21524147D01*
X4194500Y17298604D01*
X4174498Y17230483D01*
X4120842Y17183990D01*
X4050568Y17173886D01*
X3991274Y17199045D01*
X3848503Y17309789D01*
X3848497Y17309793D01*
X3843458Y17313702D01*
X3669455Y17399322D01*
X3663277Y17400931D01*
X3663275Y17400932D01*
X3487972Y17446595D01*
X3487969Y17446595D01*
X3481790Y17448205D01*
X3398491Y17452570D01*
X3294510Y17458020D01*
X3294506Y17458020D01*
X3288129Y17458354D01*
X3148987Y17437311D01*
X3102696Y17430311D01*
X3102695Y17430311D01*
X3096382Y17429356D01*
X3090393Y17427153D01*
X3090391Y17427152D01*
X3019128Y17400932D01*
X2914383Y17362393D01*
X2749566Y17260202D01*
X2608663Y17126957D01*
X2497431Y16968101D01*
X2455796Y16871888D01*
X2440271Y16836010D01*
X2420414Y16790124D01*
X2419108Y16783874D01*
X2419108Y16783873D01*
X2386945Y16629918D01*
X2380756Y16600295D01*
X2380464Y16516522D01*
X2380155Y16428032D01*
X2380079Y16406369D01*
X500000Y16406369D01*
X500000Y27406369D01*
X2380079Y27406369D01*
X2418410Y27216268D01*
X2494184Y27037757D01*
X2604304Y26878129D01*
X2744273Y26743904D01*
X2815272Y26699194D01*
X2902965Y26643970D01*
X2902969Y26643968D01*
X2908373Y26640565D01*
X3089900Y26572333D01*
X3096204Y26571335D01*
X3096206Y26571334D01*
X3185669Y26557165D01*
X3281439Y26541996D01*
X3475167Y26550793D01*
X3556344Y26571334D01*
X3656980Y26596799D01*
X3656982Y26596800D01*
X3663168Y26598365D01*
X3750463Y26640565D01*
X3832016Y26679989D01*
X3832018Y26679990D01*
X3837764Y26682768D01*
X3842833Y26686644D01*
X3842837Y26686646D01*
X3986749Y26796676D01*
X3991823Y26800555D01*
X4119051Y26946913D01*
X4214250Y27115865D01*
X4273533Y27300509D01*
X4294477Y27493301D01*
X4294500Y27500000D01*
X4293827Y27506631D01*
X4275547Y27686585D01*
X4275547Y27686586D01*
X4274902Y27692934D01*
X4216910Y27877987D01*
X4122893Y28047600D01*
X3996690Y28194843D01*
X3843458Y28313702D01*
X3669455Y28399322D01*
X3663277Y28400931D01*
X3663275Y28400932D01*
X3487972Y28446595D01*
X3487969Y28446595D01*
X3481790Y28448205D01*
X3398491Y28452570D01*
X3294510Y28458020D01*
X3294506Y28458020D01*
X3288129Y28458354D01*
X3178793Y28441819D01*
X3102696Y28430311D01*
X3102695Y28430311D01*
X3096382Y28429356D01*
X3090393Y28427153D01*
X3090391Y28427152D01*
X2989038Y28389861D01*
X2914383Y28362393D01*
X2749566Y28260202D01*
X2608663Y28126957D01*
X2497431Y27968101D01*
X2420414Y27790124D01*
X2419108Y27783874D01*
X2419108Y27783873D01*
X2385845Y27624652D01*
X2380756Y27600295D01*
X2380614Y27559517D01*
X2380171Y27432621D01*
X2380079Y27406369D01*
X500000Y27406369D01*
X500000Y29374000D01*
X520002Y29442121D01*
X573658Y29488614D01*
X626000Y29500000D01*
X44374000Y29500000D01*
X44442121Y29479998D01*
G37*
%TD.AperFunction*%
%TD*%
M02*
