%TF.GenerationSoftware,KiCad,Pcbnew,6.0.4-6f826c9f35~116~ubuntu20.04.1*%
%TF.CreationDate,2022-03-30T13:27:23+00:00*%
%TF.ProjectId,TFSBEC01A,54465342-4543-4303-9141-2e6b69636164,rev?*%
%TF.SameCoordinates,Original*%
%TF.FileFunction,Soldermask,Bot*%
%TF.FilePolarity,Negative*%
%FSLAX46Y46*%
G04 Gerber Fmt 4.6, Leading zero omitted, Abs format (unit mm)*
G04 Created by KiCad (PCBNEW 6.0.4-6f826c9f35~116~ubuntu20.04.1) date 2022-03-30 13:27:23*
%MOMM*%
%LPD*%
G01*
G04 APERTURE LIST*
G04 Aperture macros list*
%AMRoundRect*
0 Rectangle with rounded corners*
0 $1 Rounding radius*
0 $2 $3 $4 $5 $6 $7 $8 $9 X,Y pos of 4 corners*
0 Add a 4 corners polygon primitive as box body*
4,1,4,$2,$3,$4,$5,$6,$7,$8,$9,$2,$3,0*
0 Add four circle primitives for the rounded corners*
1,1,$1+$1,$2,$3*
1,1,$1+$1,$4,$5*
1,1,$1+$1,$6,$7*
1,1,$1+$1,$8,$9*
0 Add four rect primitives between the rounded corners*
20,1,$1+$1,$2,$3,$4,$5,0*
20,1,$1+$1,$4,$5,$6,$7,0*
20,1,$1+$1,$6,$7,$8,$9,0*
20,1,$1+$1,$8,$9,$2,$3,0*%
G04 Aperture macros list end*
%ADD10C,1.800000*%
%ADD11RoundRect,0.200000X-1.750000X1.750000X-1.750000X-1.750000X1.750000X-1.750000X1.750000X1.750000X0*%
%ADD12C,3.900000*%
%ADD13RoundRect,0.200000X1.750000X-1.750000X1.750000X1.750000X-1.750000X1.750000X-1.750000X-1.750000X0*%
%ADD14RoundRect,0.400000X1.000000X-0.200000X1.000000X0.200000X-1.000000X0.200000X-1.000000X-0.200000X0*%
%ADD15RoundRect,0.450000X1.400000X-0.650000X1.400000X0.650000X-1.400000X0.650000X-1.400000X-0.650000X0*%
%ADD16RoundRect,0.200000X-0.698500X0.444500X-0.698500X-0.444500X0.698500X-0.444500X0.698500X0.444500X0*%
%ADD17RoundRect,0.200000X0.698500X-0.444500X0.698500X0.444500X-0.698500X0.444500X-0.698500X-0.444500X0*%
%ADD18RoundRect,0.450000X-0.625000X0.375000X-0.625000X-0.375000X0.625000X-0.375000X0.625000X0.375000X0*%
%ADD19RoundRect,0.200000X-0.444500X-0.698500X0.444500X-0.698500X0.444500X0.698500X-0.444500X0.698500X0*%
%ADD20RoundRect,0.200000X-0.250000X0.800000X-0.250000X-0.800000X0.250000X-0.800000X0.250000X0.800000X0*%
%ADD21RoundRect,0.200000X-0.450000X0.300000X-0.450000X-0.300000X0.450000X-0.300000X0.450000X0.300000X0*%
%ADD22RoundRect,0.200000X-0.900000X0.850000X-0.900000X-0.850000X0.900000X-0.850000X0.900000X0.850000X0*%
%ADD23RoundRect,0.200000X-1.680000X2.430000X-1.680000X-2.430000X1.680000X-2.430000X1.680000X2.430000X0*%
%ADD24RoundRect,0.200000X-0.695000X0.700000X-0.695000X-0.700000X0.695000X-0.700000X0.695000X0.700000X0*%
%ADD25RoundRect,0.350000X-0.700000X0.150000X-0.700000X-0.150000X0.700000X-0.150000X0.700000X0.150000X0*%
%ADD26RoundRect,0.450000X-1.100000X0.250000X-1.100000X-0.250000X1.100000X-0.250000X1.100000X0.250000X0*%
%ADD27RoundRect,0.200000X0.350000X-0.300000X0.350000X0.300000X-0.350000X0.300000X-0.350000X-0.300000X0*%
%ADD28RoundRect,0.200000X0.444500X0.698500X-0.444500X0.698500X-0.444500X-0.698500X0.444500X-0.698500X0*%
%ADD29RoundRect,0.450000X0.625000X-0.375000X0.625000X0.375000X-0.625000X0.375000X-0.625000X-0.375000X0*%
%ADD30C,2.700000*%
%ADD31RoundRect,0.200000X0.475000X0.750000X-0.475000X0.750000X-0.475000X-0.750000X0.475000X-0.750000X0*%
%ADD32RoundRect,0.450000X0.375000X0.625000X-0.375000X0.625000X-0.375000X-0.625000X0.375000X-0.625000X0*%
%ADD33RoundRect,0.200000X-1.925000X-2.000000X1.925000X-2.000000X1.925000X2.000000X-1.925000X2.000000X0*%
%ADD34RoundRect,0.350000X-0.825000X-0.150000X0.825000X-0.150000X0.825000X0.150000X-0.825000X0.150000X0*%
%ADD35RoundRect,0.449999X-0.955001X-1.400001X0.955001X-1.400001X0.955001X1.400001X-0.955001X1.400001X0*%
%ADD36RoundRect,0.200000X0.530000X0.325000X-0.530000X0.325000X-0.530000X-0.325000X0.530000X-0.325000X0*%
G04 APERTURE END LIST*
D10*
%TO.C,J19*%
X35500000Y16500000D03*
X35500000Y27500000D03*
D11*
X30500000Y24500000D03*
D12*
X30500000Y19500000D03*
%TD*%
D10*
%TO.C,J18*%
X3335000Y27500000D03*
X3335000Y16500000D03*
D13*
X13335000Y24500000D03*
D12*
X13335000Y19500000D03*
%TD*%
D14*
%TO.C,J1*%
X37636000Y4505000D03*
X37636000Y6005000D03*
X37636000Y7505000D03*
X37636000Y9005000D03*
X37636000Y10505000D03*
X37636000Y12005000D03*
D15*
X42686000Y14605000D03*
X42686000Y1905000D03*
%TD*%
D16*
%TO.C,C15*%
X14528800Y11074400D03*
X14528800Y9169400D03*
%TD*%
D17*
%TO.C,C12*%
X10820400Y15417800D03*
X10820400Y17322800D03*
%TD*%
D18*
%TO.C,C8*%
X4572000Y13309600D03*
X4572000Y10509600D03*
%TD*%
D19*
%TO.C,R7*%
X24447500Y28152000D03*
X26352500Y28152000D03*
%TD*%
D17*
%TO.C,R1*%
X13589000Y1990000D03*
X13589000Y3895000D03*
%TD*%
%TO.C,R2*%
X17424400Y18669000D03*
X17424400Y20574000D03*
%TD*%
D18*
%TO.C,C9*%
X2032000Y13309600D03*
X2032000Y10509600D03*
%TD*%
D20*
%TO.C,U1*%
X18085000Y27935000D03*
X19685000Y27935000D03*
X21285000Y27935000D03*
D21*
X22485000Y25435000D03*
D22*
X21185000Y23085000D03*
X18185000Y23085000D03*
D21*
X16885000Y25435000D03*
%TD*%
D23*
%TO.C,D3*%
X26162000Y14586000D03*
D24*
X27082000Y18568000D03*
X25242000Y18568000D03*
%TD*%
D17*
%TO.C,C14*%
X22860000Y15748000D03*
X22860000Y17653000D03*
%TD*%
D25*
%TO.C,J2*%
X40314000Y26239000D03*
X40314000Y24989000D03*
X40314000Y23739000D03*
X40314000Y22489000D03*
X40314000Y21239000D03*
X40314000Y19989000D03*
D26*
X43514000Y18139000D03*
X43514000Y28089000D03*
%TD*%
D16*
%TO.C,R6*%
X29464000Y3586500D03*
X29464000Y1681500D03*
%TD*%
D18*
%TO.C,C7*%
X7112000Y13309600D03*
X7112000Y10509600D03*
%TD*%
D19*
%TO.C,C19*%
X28321000Y28152000D03*
X30226000Y28152000D03*
%TD*%
D27*
%TO.C,D2*%
X6477000Y3579000D03*
X6477000Y2179000D03*
%TD*%
D17*
%TO.C,C16*%
X29464000Y9174500D03*
X29464000Y11079500D03*
%TD*%
D18*
%TO.C,C18*%
X32131000Y4856500D03*
X32131000Y2056500D03*
%TD*%
D28*
%TO.C,C4*%
X15049500Y28025000D03*
X13144500Y28025000D03*
%TD*%
D16*
%TO.C,C13*%
X2336800Y7366000D03*
X2336800Y5461000D03*
%TD*%
D29*
%TO.C,C1*%
X5943600Y15668800D03*
X5943600Y18468800D03*
%TD*%
%TO.C,C11*%
X8483600Y15668800D03*
X8483600Y18468800D03*
%TD*%
D30*
%TO.C,D1*%
X11437800Y6604000D03*
D31*
X9362800Y6604000D03*
X13512800Y6604000D03*
%TD*%
D29*
%TO.C,C17*%
X32131000Y7194000D03*
X32131000Y9994000D03*
%TD*%
D16*
%TO.C,R4*%
X32258000Y14097000D03*
X32258000Y12192000D03*
%TD*%
%TO.C,C5*%
X8763000Y3895000D03*
X8763000Y1990000D03*
%TD*%
D32*
%TO.C,C6*%
X10210800Y20675600D03*
X7410800Y20675600D03*
%TD*%
D27*
%TO.C,D4*%
X34417000Y13716000D03*
X34417000Y12316000D03*
%TD*%
D16*
%TO.C,C3*%
X11049000Y3895000D03*
X11049000Y1990000D03*
%TD*%
%TO.C,R5*%
X29464000Y7142500D03*
X29464000Y5237500D03*
%TD*%
D33*
%TO.C,L1*%
X18019000Y6178000D03*
X25669000Y6178000D03*
%TD*%
D34*
%TO.C,U3*%
X15116000Y12954000D03*
X15116000Y14224000D03*
X15116000Y15494000D03*
X15116000Y16764000D03*
X20066000Y16764000D03*
X20066000Y15494000D03*
X20066000Y14224000D03*
X20066000Y12954000D03*
D35*
X17591000Y14859000D03*
%TD*%
D16*
%TO.C,R3*%
X30099000Y14859000D03*
X30099000Y12954000D03*
%TD*%
D36*
%TO.C,U2*%
X6756400Y7401600D03*
X6756400Y6451600D03*
X6756400Y5501600D03*
X4556400Y5501600D03*
X4556400Y7401600D03*
%TD*%
D18*
%TO.C,C10*%
X12192000Y13264800D03*
X12192000Y10464800D03*
%TD*%
%TO.C,C2*%
X9652000Y13258800D03*
X9652000Y10458800D03*
%TD*%
M02*
