M48
; DRILL file {KiCad (5.99.0-10394-g2e15de97e0)} date Mon Apr 26 17:42:35 2021
; FORMAT={3:3/ absolute / metric / suppress leading zeros}
; #@! TF.CreationDate,2021-04-26T17:42:35+02:00
; #@! TF.GenerationSoftware,Kicad,Pcbnew,(5.99.0-10394-g2e15de97e0)
; #@! TF.FileFunction,Plated,1,2,PTH
FMAT,2
METRIC,TZ
; #@! TA.AperFunction,Plated,PTH,ComponentDrill
T1C0.200
; #@! TA.AperFunction,Plated,PTH,ViaDrill
T2C0.400
; #@! TA.AperFunction,Plated,PTH,ComponentDrill
T3C1.000
; #@! TA.AperFunction,Plated,PTH,ComponentDrill
T4C1.900
%
G90
G05
T1
X16891Y16059
X16891Y14859
X16891Y13659
X18291Y16059
X18291Y14859
X18291Y13659
T2
X1270Y8890
X1524Y11938
X2286Y8890
X2540Y11938
X3302Y8890
X3556Y11938
X3810Y4064
X3810Y3048
X3810Y2032
X4699Y8763
X4826Y4064
X4826Y3048
X4826Y2032
X5842Y21336
X5842Y20066
X6096Y11938
X6096Y8890
X7112Y11938
X7112Y8890
X7620Y22606
X8128Y8890
X8382Y11938
X8890Y22606
X9144Y8890
X9398Y11938
X9652Y5080
X10160Y22606
X10160Y8890
X10414Y11938
X11176Y28956
X11176Y8890
X11430Y11938
X11938Y26924
X12192Y8890
X12446Y11938
X14986Y7366
X14986Y6096
X15494Y3302
X16256Y11430
X16642Y27935
X17018Y12446
X17526Y3302
X19558Y3302
X21082Y3810
X21590Y16764
X22606Y5080
X23368Y1524
X23876Y25908
X23876Y24892
X23876Y23876
X23876Y22860
X24130Y2794
X24638Y1524
X24892Y25908
X24892Y24892
X24892Y23876
X24892Y22860
X25400Y2794
X25908Y25908
X25908Y24892
X25908Y23876
X25908Y22860
X25908Y1524
X26162Y9144
X26670Y2794
X26924Y25908
X26924Y24892
X26924Y23876
X26924Y22860
X27390Y28152
X27432Y10414
X27432Y9144
X27940Y25908
X27940Y24892
X27940Y23876
X27940Y22860
X29464Y4445
X31750Y16510
X31750Y15494
X32512Y17526
X32766Y16510
X32766Y15494
X34036Y11176
X34036Y5842
X34036Y4572
X34036Y3302
X34036Y2032
X34798Y17780
X35306Y25908
X35306Y24892
X35306Y23876
X35306Y22860
X35306Y21844
X35306Y20828
X35306Y19812
X35306Y18796
X35306Y5842
X35306Y4572
X35306Y3302
X35306Y2032
X35433Y13716
X39624Y18796
X40132Y7493
X40259Y15494
X40640Y18796
X42291Y23749
X42291Y22479
X43688Y25654
X43688Y24638
X43688Y23622
X43688Y22606
T3
X3335Y27500
X3335Y16500
X35500Y27500
X35500Y16500
T4
X13335Y24500
X13335Y19500
X30500Y24500
X30500Y19500
T0
M30
