  0
SECTION
  2
HEADER
  9
$ANGBASE
  50
0.0
  9
$ANGDIR
  70
1
  9
$MEASUREMENT
  70
0
  0
ENDSEC
  0
SECTION
  2
TABLES
  0
TABLE
  2
LTYPE
  70
4
  0
LTYPE
  5
40F
  2
CONTINUOUS
  70
0
  3
Solid line
  72
65
  73
0
  40
0.0
  0
LTYPE
  5
410
  2
DASHDOT
 70
0
  3
Dash Dot ____ _ ____ _
 72
65
 73
4
 40
2.0
 49
1.25
 49
-0.25
 49
0.25
 49
-0.25
  0
LTYPE
  5
411
  2
DASHED
 70
0
  3
Dashed __ __ __ __ __
 72
65
 73
2
 40
0.75
 49
0.5
 49
-0.25
  0
LTYPE
  5
43B
  2
DOTTED
 70
0
  3
Dotted .  .  .  .
 72
65
 73
2
 40
0.2
 49
0.0
 49
-0.2
  0
ENDTAB
  0
TABLE
  2
STYLE
  70
4
  0
STYLE
  2
KICAD
  70
0
  40
0
  41
1
  42
1
  50
0
  71
0
  3
isocp.shx
  0
STYLE
  2
KICADB
  70
0
  40
0
  41
1
  42
1
  50
0
  71
0
  3
isocp.shx
  0
STYLE
  2
KICADI
  70
0
  40
0
  41
1
  42
1
  50
15
  71
0
  3
isocp.shx
  0
STYLE
  2
KICADBI
  70
0
  40
0
  41
1
  42
1
  50
15
  71
0
  3
isocp.shx
  0
ENDTAB
  0
TABLE
  2
LAYER
  70
1
  0
LAYER
  2
BLACK
  70
0
  62
7
  6
CONTINUOUS
  0
ENDTAB
  0
ENDSEC
  0
SECTION
  2
ENTITIES
0
LINE
8
BLACK
6
CONTINUOUS
10
1.73944
20
0.109684
11
1.74263
21
0.10755
0
LINE
8
BLACK
6
CONTINUOUS
10
1.74263
20
0.10755
11
1.74476
21
0.104357
0
LINE
8
BLACK
6
CONTINUOUS
10
1.74476
20
0.104357
11
1.74551
21
0.100591
0
LINE
8
BLACK
6
CONTINUOUS
10
1.74551
20
0.100591
11
1.74551
21
0.0494094
0
LINE
8
BLACK
6
CONTINUOUS
10
1.74551
20
0.0494094
11
1.74476
21
0.0456429
0
LINE
8
BLACK
6
CONTINUOUS
10
1.74476
20
0.0456429
11
1.74263
21
0.0424497
0
LINE
8
BLACK
6
CONTINUOUS
10
1.74263
20
0.0424497
11
1.73944
21
0.0403161
0
LINE
8
BLACK
6
CONTINUOUS
10
1.73944
20
0.0403161
11
1.73567
21
0.0395669
0
LINE
8
BLACK
6
CONTINUOUS
10
1.73567
20
0.0395669
11
1.62543
21
0.0395669
0
LINE
8
BLACK
6
CONTINUOUS
10
1.62543
20
0.0395669
11
1.62167
21
0.0403161
0
LINE
8
BLACK
6
CONTINUOUS
10
1.62167
20
0.0403161
11
1.61847
21
0.0424497
0
LINE
8
BLACK
6
CONTINUOUS
10
1.61847
20
0.0424497
11
1.61634
21
0.0456429
0
LINE
8
BLACK
6
CONTINUOUS
10
1.61634
20
0.0456429
11
1.61559
21
0.0494094
0
LINE
8
BLACK
6
CONTINUOUS
10
1.61559
20
0.0494094
11
1.61559
21
0.100591
0
LINE
8
BLACK
6
CONTINUOUS
10
1.61559
20
0.100591
11
1.61634
21
0.104357
0
LINE
8
BLACK
6
CONTINUOUS
10
1.61634
20
0.104357
11
1.61847
21
0.10755
0
LINE
8
BLACK
6
CONTINUOUS
10
1.61847
20
0.10755
11
1.62167
21
0.109684
0
LINE
8
BLACK
6
CONTINUOUS
10
1.62167
20
0.109684
11
1.62543
21
0.110433
0
LINE
8
BLACK
6
CONTINUOUS
10
1.62543
20
0.110433
11
1.73567
21
0.110433
0
LINE
8
BLACK
6
CONTINUOUS
10
1.73567
20
0.110433
11
1.73944
21
0.109684
0
LINE
8
BLACK
6
CONTINUOUS
10
1.1875
20
0.0487008
11
1.1325
21
0.0487008
0
LINE
8
BLACK
6
CONTINUOUS
10
1.1325
20
0.0487008
11
1.1325
21
0.0837008
0
LINE
8
BLACK
6
CONTINUOUS
10
1.1325
20
0.0837008
11
1.1875
21
0.0837008
0
LINE
8
BLACK
6
CONTINUOUS
10
1.1875
20
0.0837008
11
1.1875
21
0.0487008
0
LINE
8
BLACK
6
CONTINUOUS
10
1.29337
20
0.104822
11
1.29657
21
0.102688
0
LINE
8
BLACK
6
CONTINUOUS
10
1.29657
20
0.102688
11
1.2987
21
0.0994949
0
LINE
8
BLACK
6
CONTINUOUS
10
1.2987
20
0.0994949
11
1.29945
21
0.0957283
0
LINE
8
BLACK
6
CONTINUOUS
10
1.29945
20
0.0957283
11
1.29945
21
0.0662008
0
LINE
8
BLACK
6
CONTINUOUS
10
1.29945
20
0.0662008
11
1.2987
21
0.0624342
0
LINE
8
BLACK
6
CONTINUOUS
10
1.2987
20
0.0624342
11
1.29657
21
0.0592411
0
LINE
8
BLACK
6
CONTINUOUS
10
1.29657
20
0.0592411
11
1.29337
21
0.0571075
0
LINE
8
BLACK
6
CONTINUOUS
10
1.29337
20
0.0571075
11
1.28961
21
0.0563583
0
LINE
8
BLACK
6
CONTINUOUS
10
1.28961
20
0.0563583
11
1.24039
21
0.0563583
0
LINE
8
BLACK
6
CONTINUOUS
10
1.24039
20
0.0563583
11
1.23663
21
0.0571075
0
LINE
8
BLACK
6
CONTINUOUS
10
1.23663
20
0.0571075
11
1.23343
21
0.0592411
0
LINE
8
BLACK
6
CONTINUOUS
10
1.23343
20
0.0592411
11
1.2313
21
0.0624342
0
LINE
8
BLACK
6
CONTINUOUS
10
1.2313
20
0.0624342
11
1.23055
21
0.0662008
0
LINE
8
BLACK
6
CONTINUOUS
10
1.23055
20
0.0662008
11
1.23055
21
0.0957283
0
LINE
8
BLACK
6
CONTINUOUS
10
1.23055
20
0.0957283
11
1.2313
21
0.0994949
0
LINE
8
BLACK
6
CONTINUOUS
10
1.2313
20
0.0994949
11
1.23343
21
0.102688
0
LINE
8
BLACK
6
CONTINUOUS
10
1.23343
20
0.102688
11
1.23663
21
0.104822
0
LINE
8
BLACK
6
CONTINUOUS
10
1.23663
20
0.104822
11
1.24039
21
0.105571
0
LINE
8
BLACK
6
CONTINUOUS
10
1.24039
20
0.105571
11
1.28961
21
0.105571
0
LINE
8
BLACK
6
CONTINUOUS
10
1.28961
20
0.105571
11
1.29337
21
0.104822
0
LINE
8
BLACK
6
CONTINUOUS
10
0.3725
20
0.0608465
11
0.3175
21
0.0608465
0
LINE
8
BLACK
6
CONTINUOUS
10
0.3175
20
0.0608465
11
0.3175
21
0.0958465
0
LINE
8
BLACK
6
CONTINUOUS
10
0.3175
20
0.0958465
11
0.3725
21
0.0958465
0
LINE
8
BLACK
6
CONTINUOUS
10
0.3725
20
0.0958465
11
0.3725
21
0.0608465
0
LINE
8
BLACK
6
CONTINUOUS
10
0.4625
20
0.0608465
11
0.4075
21
0.0608465
0
LINE
8
BLACK
6
CONTINUOUS
10
0.4075
20
0.0608465
11
0.4075
21
0.0958465
0
LINE
8
BLACK
6
CONTINUOUS
10
0.4075
20
0.0958465
11
0.4625
21
0.0958465
0
LINE
8
BLACK
6
CONTINUOUS
10
0.4625
20
0.0958465
11
0.4625
21
0.0608465
0
LINE
8
BLACK
6
CONTINUOUS
10
0.5625
20
0.0608465
11
0.5075
21
0.0608465
0
LINE
8
BLACK
6
CONTINUOUS
10
0.5075
20
0.0608465
11
0.5075
21
0.0958465
0
LINE
8
BLACK
6
CONTINUOUS
10
0.5075
20
0.0958465
11
0.5625
21
0.0958465
0
LINE
8
BLACK
6
CONTINUOUS
10
0.5625
20
0.0958465
11
0.5625
21
0.0608465
0
LINE
8
BLACK
6
CONTINUOUS
10
0.26878
20
0.0739764
11
0.24122
21
0.0739764
0
LINE
8
BLACK
6
CONTINUOUS
10
0.24122
20
0.0739764
11
0.24122
21
0.0975984
0
LINE
8
BLACK
6
CONTINUOUS
10
0.24122
20
0.0975984
11
0.26878
21
0.0975984
0
LINE
8
BLACK
6
CONTINUOUS
10
0.26878
20
0.0975984
11
0.26878
21
0.0739764
0
LINE
8
BLACK
6
CONTINUOUS
10
1.1875
20
0.123701
11
1.1325
21
0.123701
0
LINE
8
BLACK
6
CONTINUOUS
10
1.1325
20
0.123701
11
1.1325
21
0.158701
0
LINE
8
BLACK
6
CONTINUOUS
10
1.1325
20
0.158701
11
1.1875
21
0.158701
0
LINE
8
BLACK
6
CONTINUOUS
10
1.1875
20
0.158701
11
1.1875
21
0.123701
0
LINE
8
BLACK
6
CONTINUOUS
10
0.26878
20
0.129094
11
0.24122
21
0.129094
0
LINE
8
BLACK
6
CONTINUOUS
10
0.24122
20
0.129094
11
0.24122
21
0.152717
0
LINE
8
BLACK
6
CONTINUOUS
10
0.24122
20
0.152717
11
0.26878
21
0.152717
0
LINE
8
BLACK
6
CONTINUOUS
10
0.26878
20
0.152717
11
0.26878
21
0.129094
0
LINE
8
BLACK
6
CONTINUOUS
10
0.5625
20
0.135846
11
0.5075
21
0.135846
0
LINE
8
BLACK
6
CONTINUOUS
10
0.5075
20
0.135846
11
0.5075
21
0.170846
0
LINE
8
BLACK
6
CONTINUOUS
10
0.5075
20
0.170846
11
0.5625
21
0.170846
0
LINE
8
BLACK
6
CONTINUOUS
10
0.5625
20
0.170846
11
0.5625
21
0.135846
0
LINE
8
BLACK
6
CONTINUOUS
10
0.3725
20
0.135846
11
0.3175
21
0.135846
0
LINE
8
BLACK
6
CONTINUOUS
10
0.3175
20
0.135846
11
0.3175
21
0.170846
0
LINE
8
BLACK
6
CONTINUOUS
10
0.3175
20
0.170846
11
0.3725
21
0.170846
0
LINE
8
BLACK
6
CONTINUOUS
10
0.3725
20
0.170846
11
0.3725
21
0.135846
0
LINE
8
BLACK
6
CONTINUOUS
10
0.4625
20
0.135846
11
0.4075
21
0.135846
0
LINE
8
BLACK
6
CONTINUOUS
10
0.4075
20
0.135846
11
0.4075
21
0.170846
0
LINE
8
BLACK
6
CONTINUOUS
10
0.4075
20
0.170846
11
0.4625
21
0.170846
0
LINE
8
BLACK
6
CONTINUOUS
10
0.4625
20
0.170846
11
0.4625
21
0.135846
0
LINE
8
BLACK
6
CONTINUOUS
10
1.52412
20
0.192511
11
1.52667
21
0.190804
0
LINE
8
BLACK
6
CONTINUOUS
10
1.52667
20
0.190804
11
1.52838
21
0.188249
0
LINE
8
BLACK
6
CONTINUOUS
10
1.52838
20
0.188249
11
1.52898
21
0.185236
0
LINE
8
BLACK
6
CONTINUOUS
10
1.52898
20
0.185236
11
1.52898
21
0.169488
0
LINE
8
BLACK
6
CONTINUOUS
10
1.52898
20
0.169488
11
1.52838
21
0.166475
0
LINE
8
BLACK
6
CONTINUOUS
10
1.52838
20
0.166475
11
1.52667
21
0.16392
0
LINE
8
BLACK
6
CONTINUOUS
10
1.52667
20
0.16392
11
1.52412
21
0.162214
0
LINE
8
BLACK
6
CONTINUOUS
10
1.52412
20
0.162214
11
1.5211
21
0.161614
0
LINE
8
BLACK
6
CONTINUOUS
10
1.5211
20
0.161614
11
1.44236
21
0.161614
0
LINE
8
BLACK
6
CONTINUOUS
10
1.44236
20
0.161614
11
1.43935
21
0.162214
0
LINE
8
BLACK
6
CONTINUOUS
10
1.43935
20
0.162214
11
1.43679
21
0.16392
0
LINE
8
BLACK
6
CONTINUOUS
10
1.43679
20
0.16392
11
1.43509
21
0.166475
0
LINE
8
BLACK
6
CONTINUOUS
10
1.43509
20
0.166475
11
1.43449
21
0.169488
0
LINE
8
BLACK
6
CONTINUOUS
10
1.43449
20
0.169488
11
1.43449
21
0.185236
0
LINE
8
BLACK
6
CONTINUOUS
10
1.43449
20
0.185236
11
1.43509
21
0.188249
0
LINE
8
BLACK
6
CONTINUOUS
10
1.43509
20
0.188249
11
1.43679
21
0.190804
0
LINE
8
BLACK
6
CONTINUOUS
10
1.43679
20
0.190804
11
1.43935
21
0.192511
0
LINE
8
BLACK
6
CONTINUOUS
10
1.43935
20
0.192511
11
1.44236
21
0.19311
0
LINE
8
BLACK
6
CONTINUOUS
10
1.44236
20
0.19311
11
1.5211
21
0.19311
0
LINE
8
BLACK
6
CONTINUOUS
10
1.5211
20
0.19311
11
1.52412
21
0.192511
0
LINE
8
BLACK
6
CONTINUOUS
10
0.785197
20
0.164488
11
0.633622
21
0.164488
0
LINE
8
BLACK
6
CONTINUOUS
10
0.633622
20
0.164488
11
0.633622
21
0.321969
0
LINE
8
BLACK
6
CONTINUOUS
10
0.633622
20
0.321969
11
0.785197
21
0.321969
0
LINE
8
BLACK
6
CONTINUOUS
10
0.785197
20
0.321969
11
0.785197
21
0.164488
0
LINE
8
BLACK
6
CONTINUOUS
10
1.08638
20
0.164488
11
0.934803
21
0.164488
0
LINE
8
BLACK
6
CONTINUOUS
10
0.934803
20
0.164488
11
0.934803
21
0.321969
0
LINE
8
BLACK
6
CONTINUOUS
10
0.934803
20
0.321969
11
1.08638
21
0.321969
0
LINE
8
BLACK
6
CONTINUOUS
10
1.08638
20
0.321969
11
1.08638
21
0.164488
0
LINE
8
BLACK
6
CONTINUOUS
10
1.29337
20
0.215058
11
1.29657
21
0.212924
0
LINE
8
BLACK
6
CONTINUOUS
10
1.29657
20
0.212924
11
1.2987
21
0.209731
0
LINE
8
BLACK
6
CONTINUOUS
10
1.2987
20
0.209731
11
1.29945
21
0.205965
0
LINE
8
BLACK
6
CONTINUOUS
10
1.29945
20
0.205965
11
1.29945
21
0.176437
0
LINE
8
BLACK
6
CONTINUOUS
10
1.29945
20
0.176437
11
1.2987
21
0.17267
0
LINE
8
BLACK
6
CONTINUOUS
10
1.2987
20
0.17267
11
1.29657
21
0.169477
0
LINE
8
BLACK
6
CONTINUOUS
10
1.29657
20
0.169477
11
1.29337
21
0.167344
0
LINE
8
BLACK
6
CONTINUOUS
10
1.29337
20
0.167344
11
1.28961
21
0.166594
0
LINE
8
BLACK
6
CONTINUOUS
10
1.28961
20
0.166594
11
1.24039
21
0.166594
0
LINE
8
BLACK
6
CONTINUOUS
10
1.24039
20
0.166594
11
1.23663
21
0.167344
0
LINE
8
BLACK
6
CONTINUOUS
10
1.23663
20
0.167344
11
1.23343
21
0.169477
0
LINE
8
BLACK
6
CONTINUOUS
10
1.23343
20
0.169477
11
1.2313
21
0.17267
0
LINE
8
BLACK
6
CONTINUOUS
10
1.2313
20
0.17267
11
1.23055
21
0.176437
0
LINE
8
BLACK
6
CONTINUOUS
10
1.23055
20
0.176437
11
1.23055
21
0.205965
0
LINE
8
BLACK
6
CONTINUOUS
10
1.23055
20
0.205965
11
1.2313
21
0.209731
0
LINE
8
BLACK
6
CONTINUOUS
10
1.2313
20
0.209731
11
1.23343
21
0.212924
0
LINE
8
BLACK
6
CONTINUOUS
10
1.23343
20
0.212924
11
1.23663
21
0.215058
0
LINE
8
BLACK
6
CONTINUOUS
10
1.23663
20
0.215058
11
1.24039
21
0.215807
0
LINE
8
BLACK
6
CONTINUOUS
10
1.24039
20
0.215807
11
1.28961
21
0.215807
0
LINE
8
BLACK
6
CONTINUOUS
10
1.28961
20
0.215807
11
1.29337
21
0.215058
0
LINE
8
BLACK
6
CONTINUOUS
10
1.1875
20
0.188701
11
1.1325
21
0.188701
0
LINE
8
BLACK
6
CONTINUOUS
10
1.1325
20
0.188701
11
1.1325
21
0.223701
0
LINE
8
BLACK
6
CONTINUOUS
10
1.1325
20
0.223701
11
1.1875
21
0.223701
0
LINE
8
BLACK
6
CONTINUOUS
10
1.1875
20
0.223701
11
1.1875
21
0.188701
0
LINE
8
BLACK
6
CONTINUOUS
10
0.1195
20
0.1975
11
0.0645
21
0.1975
0
LINE
8
BLACK
6
CONTINUOUS
10
0.0645
20
0.1975
11
0.0645
21
0.2325
0
LINE
8
BLACK
6
CONTINUOUS
10
0.0645
20
0.2325
11
0.1195
21
0.2325
0
LINE
8
BLACK
6
CONTINUOUS
10
0.1195
20
0.2325
11
0.1195
21
0.1975
0
LINE
8
BLACK
6
CONTINUOUS
10
0.200252
20
0.203803
11
0.15852
21
0.203803
0
LINE
8
BLACK
6
CONTINUOUS
10
0.15852
20
0.203803
11
0.15852
21
0.229394
0
LINE
8
BLACK
6
CONTINUOUS
10
0.15852
20
0.229394
11
0.200252
21
0.229394
0
LINE
8
BLACK
6
CONTINUOUS
10
0.200252
20
0.229394
11
0.200252
21
0.203803
0
LINE
8
BLACK
6
CONTINUOUS
10
0.286866
20
0.203803
11
0.245134
21
0.203803
0
LINE
8
BLACK
6
CONTINUOUS
10
0.245134
20
0.203803
11
0.245134
21
0.229394
0
LINE
8
BLACK
6
CONTINUOUS
10
0.245134
20
0.229394
11
0.286866
21
0.229394
0
LINE
8
BLACK
6
CONTINUOUS
10
0.286866
20
0.229394
11
0.286866
21
0.203803
0
LINE
8
BLACK
6
CONTINUOUS
10
1.52412
20
0.251566
11
1.52667
21
0.249859
0
LINE
8
BLACK
6
CONTINUOUS
10
1.52667
20
0.249859
11
1.52838
21
0.247305
0
LINE
8
BLACK
6
CONTINUOUS
10
1.52838
20
0.247305
11
1.52898
21
0.244291
0
LINE
8
BLACK
6
CONTINUOUS
10
1.52898
20
0.244291
11
1.52898
21
0.228543
0
LINE
8
BLACK
6
CONTINUOUS
10
1.52898
20
0.228543
11
1.52838
21
0.22553
0
LINE
8
BLACK
6
CONTINUOUS
10
1.52838
20
0.22553
11
1.52667
21
0.222976
0
LINE
8
BLACK
6
CONTINUOUS
10
1.52667
20
0.222976
11
1.52412
21
0.221269
0
LINE
8
BLACK
6
CONTINUOUS
10
1.52412
20
0.221269
11
1.5211
21
0.220669
0
LINE
8
BLACK
6
CONTINUOUS
10
1.5211
20
0.220669
11
1.44236
21
0.220669
0
LINE
8
BLACK
6
CONTINUOUS
10
1.44236
20
0.220669
11
1.43935
21
0.221269
0
LINE
8
BLACK
6
CONTINUOUS
10
1.43935
20
0.221269
11
1.43679
21
0.222976
0
LINE
8
BLACK
6
CONTINUOUS
10
1.43679
20
0.222976
11
1.43509
21
0.22553
0
LINE
8
BLACK
6
CONTINUOUS
10
1.43509
20
0.22553
11
1.43449
21
0.228543
0
LINE
8
BLACK
6
CONTINUOUS
10
1.43449
20
0.228543
11
1.43449
21
0.244291
0
LINE
8
BLACK
6
CONTINUOUS
10
1.43449
20
0.244291
11
1.43509
21
0.247305
0
LINE
8
BLACK
6
CONTINUOUS
10
1.43509
20
0.247305
11
1.43679
21
0.249859
0
LINE
8
BLACK
6
CONTINUOUS
10
1.43679
20
0.249859
11
1.43935
21
0.251566
0
LINE
8
BLACK
6
CONTINUOUS
10
1.43935
20
0.251566
11
1.44236
21
0.252165
0
LINE
8
BLACK
6
CONTINUOUS
10
1.44236
20
0.252165
11
1.5211
21
0.252165
0
LINE
8
BLACK
6
CONTINUOUS
10
1.5211
20
0.252165
11
1.52412
21
0.251566
0
LINE
8
BLACK
6
CONTINUOUS
10
0.550701
20
0.230472
11
0.513299
21
0.230472
0
LINE
8
BLACK
6
CONTINUOUS
10
0.513299
20
0.230472
11
0.513299
21
0.289528
0
LINE
8
BLACK
6
CONTINUOUS
10
0.513299
20
0.289528
11
0.550701
21
0.289528
0
LINE
8
BLACK
6
CONTINUOUS
10
0.550701
20
0.289528
11
0.550701
21
0.230472
0
LINE
8
BLACK
6
CONTINUOUS
10
0.387315
20
0.230472
11
0.349913
21
0.230472
0
LINE
8
BLACK
6
CONTINUOUS
10
0.349913
20
0.230472
11
0.349913
21
0.289528
0
LINE
8
BLACK
6
CONTINUOUS
10
0.349913
20
0.289528
11
0.387315
21
0.289528
0
LINE
8
BLACK
6
CONTINUOUS
10
0.387315
20
0.289528
11
0.387315
21
0.230472
0
LINE
8
BLACK
6
CONTINUOUS
10
0.286866
20
0.241205
11
0.245134
21
0.241205
0
LINE
8
BLACK
6
CONTINUOUS
10
0.245134
20
0.241205
11
0.245134
21
0.266795
0
LINE
8
BLACK
6
CONTINUOUS
10
0.245134
20
0.266795
11
0.286866
21
0.266795
0
LINE
8
BLACK
6
CONTINUOUS
10
0.286866
20
0.266795
11
0.286866
21
0.241205
0
LINE
8
BLACK
6
CONTINUOUS
10
1.29337
20
0.307085
11
1.29657
21
0.304952
0
LINE
8
BLACK
6
CONTINUOUS
10
1.29657
20
0.304952
11
1.2987
21
0.301759
0
LINE
8
BLACK
6
CONTINUOUS
10
1.2987
20
0.301759
11
1.29945
21
0.297992
0
LINE
8
BLACK
6
CONTINUOUS
10
1.29945
20
0.297992
11
1.29945
21
0.268465
0
LINE
8
BLACK
6
CONTINUOUS
10
1.29945
20
0.268465
11
1.2987
21
0.264698
0
LINE
8
BLACK
6
CONTINUOUS
10
1.2987
20
0.264698
11
1.29657
21
0.261505
0
LINE
8
BLACK
6
CONTINUOUS
10
1.29657
20
0.261505
11
1.29337
21
0.259371
0
LINE
8
BLACK
6
CONTINUOUS
10
1.29337
20
0.259371
11
1.28961
21
0.258622
0
LINE
8
BLACK
6
CONTINUOUS
10
1.28961
20
0.258622
11
1.24039
21
0.258622
0
LINE
8
BLACK
6
CONTINUOUS
10
1.24039
20
0.258622
11
1.23663
21
0.259371
0
LINE
8
BLACK
6
CONTINUOUS
10
1.23663
20
0.259371
11
1.23343
21
0.261505
0
LINE
8
BLACK
6
CONTINUOUS
10
1.23343
20
0.261505
11
1.2313
21
0.264698
0
LINE
8
BLACK
6
CONTINUOUS
10
1.2313
20
0.264698
11
1.23055
21
0.268465
0
LINE
8
BLACK
6
CONTINUOUS
10
1.23055
20
0.268465
11
1.23055
21
0.297992
0
LINE
8
BLACK
6
CONTINUOUS
10
1.23055
20
0.297992
11
1.2313
21
0.301759
0
LINE
8
BLACK
6
CONTINUOUS
10
1.2313
20
0.301759
11
1.23343
21
0.304952
0
LINE
8
BLACK
6
CONTINUOUS
10
1.23343
20
0.304952
11
1.23663
21
0.307085
0
LINE
8
BLACK
6
CONTINUOUS
10
1.23663
20
0.307085
11
1.24039
21
0.307835
0
LINE
8
BLACK
6
CONTINUOUS
10
1.24039
20
0.307835
11
1.28961
21
0.307835
0
LINE
8
BLACK
6
CONTINUOUS
10
1.28961
20
0.307835
11
1.29337
21
0.307085
0
LINE
8
BLACK
6
CONTINUOUS
10
1.1875
20
0.263701
11
1.1325
21
0.263701
0
LINE
8
BLACK
6
CONTINUOUS
10
1.1325
20
0.263701
11
1.1325
21
0.298701
0
LINE
8
BLACK
6
CONTINUOUS
10
1.1325
20
0.298701
11
1.1875
21
0.298701
0
LINE
8
BLACK
6
CONTINUOUS
10
1.1875
20
0.298701
11
1.1875
21
0.263701
0
LINE
8
BLACK
6
CONTINUOUS
10
0.1195
20
0.2725
11
0.0645
21
0.2725
0
LINE
8
BLACK
6
CONTINUOUS
10
0.0645
20
0.2725
11
0.0645
21
0.3075
0
LINE
8
BLACK
6
CONTINUOUS
10
0.0645
20
0.3075
11
0.1195
21
0.3075
0
LINE
8
BLACK
6
CONTINUOUS
10
0.1195
20
0.3075
11
0.1195
21
0.2725
0
LINE
8
BLACK
6
CONTINUOUS
10
0.200252
20
0.278606
11
0.15852
21
0.278606
0
LINE
8
BLACK
6
CONTINUOUS
10
0.15852
20
0.278606
11
0.15852
21
0.304197
0
LINE
8
BLACK
6
CONTINUOUS
10
0.15852
20
0.304197
11
0.200252
21
0.304197
0
LINE
8
BLACK
6
CONTINUOUS
10
0.200252
20
0.304197
11
0.200252
21
0.278606
0
LINE
8
BLACK
6
CONTINUOUS
10
0.286866
20
0.278606
11
0.245134
21
0.278606
0
LINE
8
BLACK
6
CONTINUOUS
10
0.245134
20
0.278606
11
0.245134
21
0.304197
0
LINE
8
BLACK
6
CONTINUOUS
10
0.245134
20
0.304197
11
0.286866
21
0.304197
0
LINE
8
BLACK
6
CONTINUOUS
10
0.286866
20
0.304197
11
0.286866
21
0.278606
0
LINE
8
BLACK
6
CONTINUOUS
10
1.52412
20
0.310621
11
1.52667
21
0.308914
0
LINE
8
BLACK
6
CONTINUOUS
10
1.52667
20
0.308914
11
1.52838
21
0.30636
0
LINE
8
BLACK
6
CONTINUOUS
10
1.52838
20
0.30636
11
1.52898
21
0.303346
0
LINE
8
BLACK
6
CONTINUOUS
10
1.52898
20
0.303346
11
1.52898
21
0.287598
0
LINE
8
BLACK
6
CONTINUOUS
10
1.52898
20
0.287598
11
1.52838
21
0.284585
0
LINE
8
BLACK
6
CONTINUOUS
10
1.52838
20
0.284585
11
1.52667
21
0.282031
0
LINE
8
BLACK
6
CONTINUOUS
10
1.52667
20
0.282031
11
1.52412
21
0.280324
0
LINE
8
BLACK
6
CONTINUOUS
10
1.52412
20
0.280324
11
1.5211
21
0.279724
0
LINE
8
BLACK
6
CONTINUOUS
10
1.5211
20
0.279724
11
1.44236
21
0.279724
0
LINE
8
BLACK
6
CONTINUOUS
10
1.44236
20
0.279724
11
1.43935
21
0.280324
0
LINE
8
BLACK
6
CONTINUOUS
10
1.43935
20
0.280324
11
1.43679
21
0.282031
0
LINE
8
BLACK
6
CONTINUOUS
10
1.43679
20
0.282031
11
1.43509
21
0.284585
0
LINE
8
BLACK
6
CONTINUOUS
10
1.43509
20
0.284585
11
1.43449
21
0.287598
0
LINE
8
BLACK
6
CONTINUOUS
10
1.43449
20
0.287598
11
1.43449
21
0.303346
0
LINE
8
BLACK
6
CONTINUOUS
10
1.43449
20
0.303346
11
1.43509
21
0.30636
0
LINE
8
BLACK
6
CONTINUOUS
10
1.43509
20
0.30636
11
1.43679
21
0.308914
0
LINE
8
BLACK
6
CONTINUOUS
10
1.43679
20
0.308914
11
1.43935
21
0.310621
0
LINE
8
BLACK
6
CONTINUOUS
10
1.43935
20
0.310621
11
1.44236
21
0.31122
0
LINE
8
BLACK
6
CONTINUOUS
10
1.44236
20
0.31122
11
1.5211
21
0.31122
0
LINE
8
BLACK
6
CONTINUOUS
10
1.5211
20
0.31122
11
1.52412
21
0.310621
0
LINE
8
BLACK
6
CONTINUOUS
10
1.52412
20
0.369676
11
1.52667
21
0.367969
0
LINE
8
BLACK
6
CONTINUOUS
10
1.52667
20
0.367969
11
1.52838
21
0.365415
0
LINE
8
BLACK
6
CONTINUOUS
10
1.52838
20
0.365415
11
1.52898
21
0.362402
0
LINE
8
BLACK
6
CONTINUOUS
10
1.52898
20
0.362402
11
1.52898
21
0.346654
0
LINE
8
BLACK
6
CONTINUOUS
10
1.52898
20
0.346654
11
1.52838
21
0.34364
0
LINE
8
BLACK
6
CONTINUOUS
10
1.52838
20
0.34364
11
1.52667
21
0.341086
0
LINE
8
BLACK
6
CONTINUOUS
10
1.52667
20
0.341086
11
1.52412
21
0.339379
0
LINE
8
BLACK
6
CONTINUOUS
10
1.52412
20
0.339379
11
1.5211
21
0.33878
0
LINE
8
BLACK
6
CONTINUOUS
10
1.5211
20
0.33878
11
1.44236
21
0.33878
0
LINE
8
BLACK
6
CONTINUOUS
10
1.44236
20
0.33878
11
1.43935
21
0.339379
0
LINE
8
BLACK
6
CONTINUOUS
10
1.43935
20
0.339379
11
1.43679
21
0.341086
0
LINE
8
BLACK
6
CONTINUOUS
10
1.43679
20
0.341086
11
1.43509
21
0.34364
0
LINE
8
BLACK
6
CONTINUOUS
10
1.43509
20
0.34364
11
1.43449
21
0.346654
0
LINE
8
BLACK
6
CONTINUOUS
10
1.43449
20
0.346654
11
1.43449
21
0.362402
0
LINE
8
BLACK
6
CONTINUOUS
10
1.43449
20
0.362402
11
1.43509
21
0.365415
0
LINE
8
BLACK
6
CONTINUOUS
10
1.43509
20
0.365415
11
1.43679
21
0.367969
0
LINE
8
BLACK
6
CONTINUOUS
10
1.43679
20
0.367969
11
1.43935
21
0.369676
0
LINE
8
BLACK
6
CONTINUOUS
10
1.43935
20
0.369676
11
1.44236
21
0.370276
0
LINE
8
BLACK
6
CONTINUOUS
10
1.44236
20
0.370276
11
1.5211
21
0.370276
0
LINE
8
BLACK
6
CONTINUOUS
10
1.5211
20
0.370276
11
1.52412
21
0.369676
0
LINE
8
BLACK
6
CONTINUOUS
10
0.5995
20
0.3435
11
0.5445
21
0.3435
0
LINE
8
BLACK
6
CONTINUOUS
10
0.5445
20
0.3435
11
0.5445
21
0.3785
0
LINE
8
BLACK
6
CONTINUOUS
10
0.5445
20
0.3785
11
0.5995
21
0.3785
0
LINE
8
BLACK
6
CONTINUOUS
10
0.5995
20
0.3785
11
0.5995
21
0.3435
0
LINE
8
BLACK
6
CONTINUOUS
10
1.1875
20
0.343701
11
1.1325
21
0.343701
0
LINE
8
BLACK
6
CONTINUOUS
10
1.1325
20
0.343701
11
1.1325
21
0.378701
0
LINE
8
BLACK
6
CONTINUOUS
10
1.1325
20
0.378701
11
1.1875
21
0.378701
0
LINE
8
BLACK
6
CONTINUOUS
10
1.1875
20
0.378701
11
1.1875
21
0.343701
0
LINE
8
BLACK
6
CONTINUOUS
10
1.29337
20
0.417322
11
1.29657
21
0.415188
0
LINE
8
BLACK
6
CONTINUOUS
10
1.29657
20
0.415188
11
1.2987
21
0.411995
0
LINE
8
BLACK
6
CONTINUOUS
10
1.2987
20
0.411995
11
1.29945
21
0.408228
0
LINE
8
BLACK
6
CONTINUOUS
10
1.29945
20
0.408228
11
1.29945
21
0.378701
0
LINE
8
BLACK
6
CONTINUOUS
10
1.29945
20
0.378701
11
1.2987
21
0.374934
0
LINE
8
BLACK
6
CONTINUOUS
10
1.2987
20
0.374934
11
1.29657
21
0.371741
0
LINE
8
BLACK
6
CONTINUOUS
10
1.29657
20
0.371741
11
1.29337
21
0.369607
0
LINE
8
BLACK
6
CONTINUOUS
10
1.29337
20
0.369607
11
1.28961
21
0.368858
0
LINE
8
BLACK
6
CONTINUOUS
10
1.28961
20
0.368858
11
1.24039
21
0.368858
0
LINE
8
BLACK
6
CONTINUOUS
10
1.24039
20
0.368858
11
1.23663
21
0.369607
0
LINE
8
BLACK
6
CONTINUOUS
10
1.23663
20
0.369607
11
1.23343
21
0.371741
0
LINE
8
BLACK
6
CONTINUOUS
10
1.23343
20
0.371741
11
1.2313
21
0.374934
0
LINE
8
BLACK
6
CONTINUOUS
10
1.2313
20
0.374934
11
1.23055
21
0.378701
0
LINE
8
BLACK
6
CONTINUOUS
10
1.23055
20
0.378701
11
1.23055
21
0.408228
0
LINE
8
BLACK
6
CONTINUOUS
10
1.23055
20
0.408228
11
1.2313
21
0.411995
0
LINE
8
BLACK
6
CONTINUOUS
10
1.2313
20
0.411995
11
1.23343
21
0.415188
0
LINE
8
BLACK
6
CONTINUOUS
10
1.23343
20
0.415188
11
1.23663
21
0.417322
0
LINE
8
BLACK
6
CONTINUOUS
10
1.23663
20
0.417322
11
1.24039
21
0.418071
0
LINE
8
BLACK
6
CONTINUOUS
10
1.24039
20
0.418071
11
1.28961
21
0.418071
0
LINE
8
BLACK
6
CONTINUOUS
10
1.28961
20
0.418071
11
1.29337
21
0.417322
0
LINE
8
BLACK
6
CONTINUOUS
10
0.408373
20
0.435621
11
0.411566
21
0.433487
0
LINE
8
BLACK
6
CONTINUOUS
10
0.411566
20
0.433487
11
0.4137
21
0.430294
0
LINE
8
BLACK
6
CONTINUOUS
10
0.4137
20
0.430294
11
0.414449
21
0.426528
0
LINE
8
BLACK
6
CONTINUOUS
10
0.414449
20
0.426528
11
0.414449
21
0.397
0
LINE
8
BLACK
6
CONTINUOUS
10
0.414449
20
0.397
11
0.4137
21
0.393233
0
LINE
8
BLACK
6
CONTINUOUS
10
0.4137
20
0.393233
11
0.411566
21
0.39004
0
LINE
8
BLACK
6
CONTINUOUS
10
0.411566
20
0.39004
11
0.408373
21
0.387907
0
LINE
8
BLACK
6
CONTINUOUS
10
0.408373
20
0.387907
11
0.404606
21
0.387157
0
LINE
8
BLACK
6
CONTINUOUS
10
0.404606
20
0.387157
11
0.355394
21
0.387157
0
LINE
8
BLACK
6
CONTINUOUS
10
0.355394
20
0.387157
11
0.351627
21
0.387907
0
LINE
8
BLACK
6
CONTINUOUS
10
0.351627
20
0.387907
11
0.348434
21
0.39004
0
LINE
8
BLACK
6
CONTINUOUS
10
0.348434
20
0.39004
11
0.3463
21
0.393233
0
LINE
8
BLACK
6
CONTINUOUS
10
0.3463
20
0.393233
11
0.345551
21
0.397
0
LINE
8
BLACK
6
CONTINUOUS
10
0.345551
20
0.397
11
0.345551
21
0.426528
0
LINE
8
BLACK
6
CONTINUOUS
10
0.345551
20
0.426528
11
0.3463
21
0.430294
0
LINE
8
BLACK
6
CONTINUOUS
10
0.3463
20
0.430294
11
0.348434
21
0.433487
0
LINE
8
BLACK
6
CONTINUOUS
10
0.348434
20
0.433487
11
0.351627
21
0.435621
0
LINE
8
BLACK
6
CONTINUOUS
10
0.351627
20
0.435621
11
0.355394
21
0.43637
0
LINE
8
BLACK
6
CONTINUOUS
10
0.355394
20
0.43637
11
0.404606
21
0.43637
0
LINE
8
BLACK
6
CONTINUOUS
10
0.404606
20
0.43637
11
0.408373
21
0.435621
0
LINE
8
BLACK
6
CONTINUOUS
10
0.508373
20
0.435857
11
0.511566
21
0.433724
0
LINE
8
BLACK
6
CONTINUOUS
10
0.511566
20
0.433724
11
0.5137
21
0.43053
0
LINE
8
BLACK
6
CONTINUOUS
10
0.5137
20
0.43053
11
0.514449
21
0.426764
0
LINE
8
BLACK
6
CONTINUOUS
10
0.514449
20
0.426764
11
0.514449
21
0.397236
0
LINE
8
BLACK
6
CONTINUOUS
10
0.514449
20
0.397236
11
0.5137
21
0.39347
0
LINE
8
BLACK
6
CONTINUOUS
10
0.5137
20
0.39347
11
0.511566
21
0.390276
0
LINE
8
BLACK
6
CONTINUOUS
10
0.511566
20
0.390276
11
0.508373
21
0.388143
0
LINE
8
BLACK
6
CONTINUOUS
10
0.508373
20
0.388143
11
0.504606
21
0.387394
0
LINE
8
BLACK
6
CONTINUOUS
10
0.504606
20
0.387394
11
0.455394
21
0.387394
0
LINE
8
BLACK
6
CONTINUOUS
10
0.455394
20
0.387394
11
0.451627
21
0.388143
0
LINE
8
BLACK
6
CONTINUOUS
10
0.451627
20
0.388143
11
0.448434
21
0.390276
0
LINE
8
BLACK
6
CONTINUOUS
10
0.448434
20
0.390276
11
0.4463
21
0.39347
0
LINE
8
BLACK
6
CONTINUOUS
10
0.4463
20
0.39347
11
0.445551
21
0.397236
0
LINE
8
BLACK
6
CONTINUOUS
10
0.445551
20
0.397236
11
0.445551
21
0.426764
0
LINE
8
BLACK
6
CONTINUOUS
10
0.445551
20
0.426764
11
0.4463
21
0.43053
0
LINE
8
BLACK
6
CONTINUOUS
10
0.4463
20
0.43053
11
0.448434
21
0.433724
0
LINE
8
BLACK
6
CONTINUOUS
10
0.448434
20
0.433724
11
0.451627
21
0.435857
0
LINE
8
BLACK
6
CONTINUOUS
10
0.451627
20
0.435857
11
0.455394
21
0.436606
0
LINE
8
BLACK
6
CONTINUOUS
10
0.455394
20
0.436606
11
0.504606
21
0.436606
0
LINE
8
BLACK
6
CONTINUOUS
10
0.504606
20
0.436606
11
0.508373
21
0.435857
0
LINE
8
BLACK
6
CONTINUOUS
10
0.108373
20
0.437621
11
0.111566
21
0.435487
0
LINE
8
BLACK
6
CONTINUOUS
10
0.111566
20
0.435487
11
0.1137
21
0.432294
0
LINE
8
BLACK
6
CONTINUOUS
10
0.1137
20
0.432294
11
0.114449
21
0.428528
0
LINE
8
BLACK
6
CONTINUOUS
10
0.114449
20
0.428528
11
0.114449
21
0.399
0
LINE
8
BLACK
6
CONTINUOUS
10
0.114449
20
0.399
11
0.1137
21
0.395233
0
LINE
8
BLACK
6
CONTINUOUS
10
0.1137
20
0.395233
11
0.111566
21
0.39204
0
LINE
8
BLACK
6
CONTINUOUS
10
0.111566
20
0.39204
11
0.108373
21
0.389907
0
LINE
8
BLACK
6
CONTINUOUS
10
0.108373
20
0.389907
11
0.104606
21
0.389157
0
LINE
8
BLACK
6
CONTINUOUS
10
0.104606
20
0.389157
11
0.0553937
21
0.389157
0
LINE
8
BLACK
6
CONTINUOUS
10
0.0553937
20
0.389157
11
0.0516271
21
0.389907
0
LINE
8
BLACK
6
CONTINUOUS
10
0.0516271
20
0.389907
11
0.048434
21
0.39204
0
LINE
8
BLACK
6
CONTINUOUS
10
0.048434
20
0.39204
11
0.0463004
21
0.395233
0
LINE
8
BLACK
6
CONTINUOUS
10
0.0463004
20
0.395233
11
0.0455512
21
0.399
0
LINE
8
BLACK
6
CONTINUOUS
10
0.0455512
20
0.399
11
0.0455512
21
0.428528
0
LINE
8
BLACK
6
CONTINUOUS
10
0.0455512
20
0.428528
11
0.0463004
21
0.432294
0
LINE
8
BLACK
6
CONTINUOUS
10
0.0463004
20
0.432294
11
0.048434
21
0.435487
0
LINE
8
BLACK
6
CONTINUOUS
10
0.048434
20
0.435487
11
0.0516271
21
0.437621
0
LINE
8
BLACK
6
CONTINUOUS
10
0.0516271
20
0.437621
11
0.0553937
21
0.43837
0
LINE
8
BLACK
6
CONTINUOUS
10
0.0553937
20
0.43837
11
0.104606
21
0.43837
0
LINE
8
BLACK
6
CONTINUOUS
10
0.104606
20
0.43837
11
0.108373
21
0.437621
0
LINE
8
BLACK
6
CONTINUOUS
10
0.208373
20
0.437621
11
0.211566
21
0.435487
0
LINE
8
BLACK
6
CONTINUOUS
10
0.211566
20
0.435487
11
0.2137
21
0.432294
0
LINE
8
BLACK
6
CONTINUOUS
10
0.2137
20
0.432294
11
0.214449
21
0.428528
0
LINE
8
BLACK
6
CONTINUOUS
10
0.214449
20
0.428528
11
0.214449
21
0.399
0
LINE
8
BLACK
6
CONTINUOUS
10
0.214449
20
0.399
11
0.2137
21
0.395233
0
LINE
8
BLACK
6
CONTINUOUS
10
0.2137
20
0.395233
11
0.211566
21
0.39204
0
LINE
8
BLACK
6
CONTINUOUS
10
0.211566
20
0.39204
11
0.208373
21
0.389907
0
LINE
8
BLACK
6
CONTINUOUS
10
0.208373
20
0.389907
11
0.204606
21
0.389157
0
LINE
8
BLACK
6
CONTINUOUS
10
0.204606
20
0.389157
11
0.155394
21
0.389157
0
LINE
8
BLACK
6
CONTINUOUS
10
0.155394
20
0.389157
11
0.151627
21
0.389907
0
LINE
8
BLACK
6
CONTINUOUS
10
0.151627
20
0.389907
11
0.148434
21
0.39204
0
LINE
8
BLACK
6
CONTINUOUS
10
0.148434
20
0.39204
11
0.1463
21
0.395233
0
LINE
8
BLACK
6
CONTINUOUS
10
0.1463
20
0.395233
11
0.145551
21
0.399
0
LINE
8
BLACK
6
CONTINUOUS
10
0.145551
20
0.399
11
0.145551
21
0.428528
0
LINE
8
BLACK
6
CONTINUOUS
10
0.145551
20
0.428528
11
0.1463
21
0.432294
0
LINE
8
BLACK
6
CONTINUOUS
10
0.1463
20
0.432294
11
0.148434
21
0.435487
0
LINE
8
BLACK
6
CONTINUOUS
10
0.148434
20
0.435487
11
0.151627
21
0.437621
0
LINE
8
BLACK
6
CONTINUOUS
10
0.151627
20
0.437621
11
0.155394
21
0.43837
0
LINE
8
BLACK
6
CONTINUOUS
10
0.155394
20
0.43837
11
0.204606
21
0.43837
0
LINE
8
BLACK
6
CONTINUOUS
10
0.204606
20
0.43837
11
0.208373
21
0.437621
0
LINE
8
BLACK
6
CONTINUOUS
10
0.308373
20
0.437621
11
0.311566
21
0.435487
0
LINE
8
BLACK
6
CONTINUOUS
10
0.311566
20
0.435487
11
0.3137
21
0.432294
0
LINE
8
BLACK
6
CONTINUOUS
10
0.3137
20
0.432294
11
0.314449
21
0.428528
0
LINE
8
BLACK
6
CONTINUOUS
10
0.314449
20
0.428528
11
0.314449
21
0.399
0
LINE
8
BLACK
6
CONTINUOUS
10
0.314449
20
0.399
11
0.3137
21
0.395233
0
LINE
8
BLACK
6
CONTINUOUS
10
0.3137
20
0.395233
11
0.311566
21
0.39204
0
LINE
8
BLACK
6
CONTINUOUS
10
0.311566
20
0.39204
11
0.308373
21
0.389907
0
LINE
8
BLACK
6
CONTINUOUS
10
0.308373
20
0.389907
11
0.304606
21
0.389157
0
LINE
8
BLACK
6
CONTINUOUS
10
0.304606
20
0.389157
11
0.255394
21
0.389157
0
LINE
8
BLACK
6
CONTINUOUS
10
0.255394
20
0.389157
11
0.251627
21
0.389907
0
LINE
8
BLACK
6
CONTINUOUS
10
0.251627
20
0.389907
11
0.248434
21
0.39204
0
LINE
8
BLACK
6
CONTINUOUS
10
0.248434
20
0.39204
11
0.2463
21
0.395233
0
LINE
8
BLACK
6
CONTINUOUS
10
0.2463
20
0.395233
11
0.245551
21
0.399
0
LINE
8
BLACK
6
CONTINUOUS
10
0.245551
20
0.399
11
0.245551
21
0.428528
0
LINE
8
BLACK
6
CONTINUOUS
10
0.245551
20
0.428528
11
0.2463
21
0.432294
0
LINE
8
BLACK
6
CONTINUOUS
10
0.2463
20
0.432294
11
0.248434
21
0.435487
0
LINE
8
BLACK
6
CONTINUOUS
10
0.248434
20
0.435487
11
0.251627
21
0.437621
0
LINE
8
BLACK
6
CONTINUOUS
10
0.251627
20
0.437621
11
0.255394
21
0.43837
0
LINE
8
BLACK
6
CONTINUOUS
10
0.255394
20
0.43837
11
0.304606
21
0.43837
0
LINE
8
BLACK
6
CONTINUOUS
10
0.304606
20
0.43837
11
0.308373
21
0.437621
0
LINE
8
BLACK
6
CONTINUOUS
10
1.52412
20
0.428731
11
1.52667
21
0.427024
0
LINE
8
BLACK
6
CONTINUOUS
10
1.52667
20
0.427024
11
1.52838
21
0.42447
0
LINE
8
BLACK
6
CONTINUOUS
10
1.52838
20
0.42447
11
1.52898
21
0.421457
0
LINE
8
BLACK
6
CONTINUOUS
10
1.52898
20
0.421457
11
1.52898
21
0.405709
0
LINE
8
BLACK
6
CONTINUOUS
10
1.52898
20
0.405709
11
1.52838
21
0.402695
0
LINE
8
BLACK
6
CONTINUOUS
10
1.52838
20
0.402695
11
1.52667
21
0.400141
0
LINE
8
BLACK
6
CONTINUOUS
10
1.52667
20
0.400141
11
1.52412
21
0.398434
0
LINE
8
BLACK
6
CONTINUOUS
10
1.52412
20
0.398434
11
1.5211
21
0.397835
0
LINE
8
BLACK
6
CONTINUOUS
10
1.5211
20
0.397835
11
1.44236
21
0.397835
0
LINE
8
BLACK
6
CONTINUOUS
10
1.44236
20
0.397835
11
1.43935
21
0.398434
0
LINE
8
BLACK
6
CONTINUOUS
10
1.43935
20
0.398434
11
1.43679
21
0.400141
0
LINE
8
BLACK
6
CONTINUOUS
10
1.43679
20
0.400141
11
1.43509
21
0.402695
0
LINE
8
BLACK
6
CONTINUOUS
10
1.43509
20
0.402695
11
1.43449
21
0.405709
0
LINE
8
BLACK
6
CONTINUOUS
10
1.43449
20
0.405709
11
1.43449
21
0.421457
0
LINE
8
BLACK
6
CONTINUOUS
10
1.43449
20
0.421457
11
1.43509
21
0.42447
0
LINE
8
BLACK
6
CONTINUOUS
10
1.43509
20
0.42447
11
1.43679
21
0.427024
0
LINE
8
BLACK
6
CONTINUOUS
10
1.43679
20
0.427024
11
1.43935
21
0.428731
0
LINE
8
BLACK
6
CONTINUOUS
10
1.43935
20
0.428731
11
1.44236
21
0.429331
0
LINE
8
BLACK
6
CONTINUOUS
10
1.44236
20
0.429331
11
1.5211
21
0.429331
0
LINE
8
BLACK
6
CONTINUOUS
10
1.5211
20
0.429331
11
1.52412
21
0.428731
0
LINE
8
BLACK
6
CONTINUOUS
10
0.5995
20
0.4185
11
0.5445
21
0.4185
0
LINE
8
BLACK
6
CONTINUOUS
10
0.5445
20
0.4185
11
0.5445
21
0.4535
0
LINE
8
BLACK
6
CONTINUOUS
10
0.5445
20
0.4535
11
0.5995
21
0.4535
0
LINE
8
BLACK
6
CONTINUOUS
10
0.5995
20
0.4535
11
0.5995
21
0.4185
0
LINE
8
BLACK
6
CONTINUOUS
10
1.1875
20
0.418701
11
1.1325
21
0.418701
0
LINE
8
BLACK
6
CONTINUOUS
10
1.1325
20
0.418701
11
1.1325
21
0.453701
0
LINE
8
BLACK
6
CONTINUOUS
10
1.1325
20
0.453701
11
1.1875
21
0.453701
0
LINE
8
BLACK
6
CONTINUOUS
10
1.1875
20
0.453701
11
1.1875
21
0.418701
0
LINE
8
BLACK
6
CONTINUOUS
10
1.52412
20
0.487786
11
1.52667
21
0.48608
0
LINE
8
BLACK
6
CONTINUOUS
10
1.52667
20
0.48608
11
1.52838
21
0.483525
0
LINE
8
BLACK
6
CONTINUOUS
10
1.52838
20
0.483525
11
1.52898
21
0.480512
0
LINE
8
BLACK
6
CONTINUOUS
10
1.52898
20
0.480512
11
1.52898
21
0.464764
0
LINE
8
BLACK
6
CONTINUOUS
10
1.52898
20
0.464764
11
1.52838
21
0.461751
0
LINE
8
BLACK
6
CONTINUOUS
10
1.52838
20
0.461751
11
1.52667
21
0.459196
0
LINE
8
BLACK
6
CONTINUOUS
10
1.52667
20
0.459196
11
1.52412
21
0.457489
0
LINE
8
BLACK
6
CONTINUOUS
10
1.52412
20
0.457489
11
1.5211
21
0.45689
0
LINE
8
BLACK
6
CONTINUOUS
10
1.5211
20
0.45689
11
1.44236
21
0.45689
0
LINE
8
BLACK
6
CONTINUOUS
10
1.44236
20
0.45689
11
1.43935
21
0.457489
0
LINE
8
BLACK
6
CONTINUOUS
10
1.43935
20
0.457489
11
1.43679
21
0.459196
0
LINE
8
BLACK
6
CONTINUOUS
10
1.43679
20
0.459196
11
1.43509
21
0.461751
0
LINE
8
BLACK
6
CONTINUOUS
10
1.43509
20
0.461751
11
1.43449
21
0.464764
0
LINE
8
BLACK
6
CONTINUOUS
10
1.43449
20
0.464764
11
1.43449
21
0.480512
0
LINE
8
BLACK
6
CONTINUOUS
10
1.43449
20
0.480512
11
1.43509
21
0.483525
0
LINE
8
BLACK
6
CONTINUOUS
10
1.43509
20
0.483525
11
1.43679
21
0.48608
0
LINE
8
BLACK
6
CONTINUOUS
10
1.43679
20
0.48608
11
1.43935
21
0.487786
0
LINE
8
BLACK
6
CONTINUOUS
10
1.43935
20
0.487786
11
1.44236
21
0.488386
0
LINE
8
BLACK
6
CONTINUOUS
10
1.44236
20
0.488386
11
1.5211
21
0.488386
0
LINE
8
BLACK
6
CONTINUOUS
10
1.5211
20
0.488386
11
1.52412
21
0.487786
0
LINE
8
BLACK
6
CONTINUOUS
10
1.2975
20
0.4625
11
1.2425
21
0.4625
0
LINE
8
BLACK
6
CONTINUOUS
10
1.2425
20
0.4625
11
1.2425
21
0.4975
0
LINE
8
BLACK
6
CONTINUOUS
10
1.2425
20
0.4975
11
1.2975
21
0.4975
0
LINE
8
BLACK
6
CONTINUOUS
10
1.2975
20
0.4975
11
1.2975
21
0.4625
0
LINE
8
BLACK
6
CONTINUOUS
10
1.36878
20
0.473071
11
1.34122
21
0.473071
0
LINE
8
BLACK
6
CONTINUOUS
10
1.34122
20
0.473071
11
1.34122
21
0.496693
0
LINE
8
BLACK
6
CONTINUOUS
10
1.34122
20
0.496693
11
1.36878
21
0.496693
0
LINE
8
BLACK
6
CONTINUOUS
10
1.36878
20
0.496693
11
1.36878
21
0.473071
0
LINE
8
BLACK
6
CONTINUOUS
10
1.09614
20
0.478583
11
0.963858
21
0.478583
0
LINE
8
BLACK
6
CONTINUOUS
10
0.963858
20
0.478583
11
0.963858
21
0.669921
0
LINE
8
BLACK
6
CONTINUOUS
10
0.963858
20
0.669921
11
1.09614
21
0.669921
0
LINE
8
BLACK
6
CONTINUOUS
10
1.09614
20
0.669921
11
1.09614
21
0.478583
0
LINE
8
BLACK
6
CONTINUOUS
10
1.2125
20
0.4925
11
1.1575
21
0.4925
0
LINE
8
BLACK
6
CONTINUOUS
10
1.1575
20
0.4925
11
1.1575
21
0.5275
0
LINE
8
BLACK
6
CONTINUOUS
10
1.1575
20
0.5275
11
1.2125
21
0.5275
0
LINE
8
BLACK
6
CONTINUOUS
10
1.2125
20
0.5275
11
1.2125
21
0.4925
0
LINE
8
BLACK
6
CONTINUOUS
10
0.408373
20
0.545857
11
0.411566
21
0.543724
0
LINE
8
BLACK
6
CONTINUOUS
10
0.411566
20
0.543724
11
0.4137
21
0.54053
0
LINE
8
BLACK
6
CONTINUOUS
10
0.4137
20
0.54053
11
0.414449
21
0.536764
0
LINE
8
BLACK
6
CONTINUOUS
10
0.414449
20
0.536764
11
0.414449
21
0.507236
0
LINE
8
BLACK
6
CONTINUOUS
10
0.414449
20
0.507236
11
0.4137
21
0.50347
0
LINE
8
BLACK
6
CONTINUOUS
10
0.4137
20
0.50347
11
0.411566
21
0.500276
0
LINE
8
BLACK
6
CONTINUOUS
10
0.411566
20
0.500276
11
0.408373
21
0.498143
0
LINE
8
BLACK
6
CONTINUOUS
10
0.408373
20
0.498143
11
0.404606
21
0.497394
0
LINE
8
BLACK
6
CONTINUOUS
10
0.404606
20
0.497394
11
0.355394
21
0.497394
0
LINE
8
BLACK
6
CONTINUOUS
10
0.355394
20
0.497394
11
0.351627
21
0.498143
0
LINE
8
BLACK
6
CONTINUOUS
10
0.351627
20
0.498143
11
0.348434
21
0.500276
0
LINE
8
BLACK
6
CONTINUOUS
10
0.348434
20
0.500276
11
0.3463
21
0.50347
0
LINE
8
BLACK
6
CONTINUOUS
10
0.3463
20
0.50347
11
0.345551
21
0.507236
0
LINE
8
BLACK
6
CONTINUOUS
10
0.345551
20
0.507236
11
0.345551
21
0.536764
0
LINE
8
BLACK
6
CONTINUOUS
10
0.345551
20
0.536764
11
0.3463
21
0.54053
0
LINE
8
BLACK
6
CONTINUOUS
10
0.3463
20
0.54053
11
0.348434
21
0.543724
0
LINE
8
BLACK
6
CONTINUOUS
10
0.348434
20
0.543724
11
0.351627
21
0.545857
0
LINE
8
BLACK
6
CONTINUOUS
10
0.351627
20
0.545857
11
0.355394
21
0.546606
0
LINE
8
BLACK
6
CONTINUOUS
10
0.355394
20
0.546606
11
0.404606
21
0.546606
0
LINE
8
BLACK
6
CONTINUOUS
10
0.404606
20
0.546606
11
0.408373
21
0.545857
0
LINE
8
BLACK
6
CONTINUOUS
10
0.508373
20
0.546093
11
0.511566
21
0.54396
0
LINE
8
BLACK
6
CONTINUOUS
10
0.511566
20
0.54396
11
0.5137
21
0.540767
0
LINE
8
BLACK
6
CONTINUOUS
10
0.5137
20
0.540767
11
0.514449
21
0.537
0
LINE
8
BLACK
6
CONTINUOUS
10
0.514449
20
0.537
11
0.514449
21
0.507472
0
LINE
8
BLACK
6
CONTINUOUS
10
0.514449
20
0.507472
11
0.5137
21
0.503706
0
LINE
8
BLACK
6
CONTINUOUS
10
0.5137
20
0.503706
11
0.511566
21
0.500513
0
LINE
8
BLACK
6
CONTINUOUS
10
0.511566
20
0.500513
11
0.508373
21
0.498379
0
LINE
8
BLACK
6
CONTINUOUS
10
0.508373
20
0.498379
11
0.504606
21
0.49763
0
LINE
8
BLACK
6
CONTINUOUS
10
0.504606
20
0.49763
11
0.455394
21
0.49763
0
LINE
8
BLACK
6
CONTINUOUS
10
0.455394
20
0.49763
11
0.451627
21
0.498379
0
LINE
8
BLACK
6
CONTINUOUS
10
0.451627
20
0.498379
11
0.448434
21
0.500513
0
LINE
8
BLACK
6
CONTINUOUS
10
0.448434
20
0.500513
11
0.4463
21
0.503706
0
LINE
8
BLACK
6
CONTINUOUS
10
0.4463
20
0.503706
11
0.445551
21
0.507472
0
LINE
8
BLACK
6
CONTINUOUS
10
0.445551
20
0.507472
11
0.445551
21
0.537
0
LINE
8
BLACK
6
CONTINUOUS
10
0.445551
20
0.537
11
0.4463
21
0.540767
0
LINE
8
BLACK
6
CONTINUOUS
10
0.4463
20
0.540767
11
0.448434
21
0.54396
0
LINE
8
BLACK
6
CONTINUOUS
10
0.448434
20
0.54396
11
0.451627
21
0.546093
0
LINE
8
BLACK
6
CONTINUOUS
10
0.451627
20
0.546093
11
0.455394
21
0.546843
0
LINE
8
BLACK
6
CONTINUOUS
10
0.455394
20
0.546843
11
0.504606
21
0.546843
0
LINE
8
BLACK
6
CONTINUOUS
10
0.504606
20
0.546843
11
0.508373
21
0.546093
0
LINE
8
BLACK
6
CONTINUOUS
10
0.629858
20
0.521361
11
0.631774
21
0.520081
0
LINE
8
BLACK
6
CONTINUOUS
10
0.631774
20
0.520081
11
0.633054
21
0.518165
0
LINE
8
BLACK
6
CONTINUOUS
10
0.633054
20
0.518165
11
0.633504
21
0.515906
0
LINE
8
BLACK
6
CONTINUOUS
10
0.633504
20
0.515906
11
0.633504
21
0.504094
0
LINE
8
BLACK
6
CONTINUOUS
10
0.633504
20
0.504094
11
0.633054
21
0.501835
0
LINE
8
BLACK
6
CONTINUOUS
10
0.633054
20
0.501835
11
0.631774
21
0.499919
0
LINE
8
BLACK
6
CONTINUOUS
10
0.631774
20
0.499919
11
0.629858
21
0.498639
0
LINE
8
BLACK
6
CONTINUOUS
10
0.629858
20
0.498639
11
0.627598
21
0.498189
0
LINE
8
BLACK
6
CONTINUOUS
10
0.627598
20
0.498189
11
0.562638
21
0.498189
0
LINE
8
BLACK
6
CONTINUOUS
10
0.562638
20
0.498189
11
0.560378
21
0.498639
0
LINE
8
BLACK
6
CONTINUOUS
10
0.560378
20
0.498639
11
0.558462
21
0.499919
0
LINE
8
BLACK
6
CONTINUOUS
10
0.558462
20
0.499919
11
0.557182
21
0.501835
0
LINE
8
BLACK
6
CONTINUOUS
10
0.557182
20
0.501835
11
0.556732
21
0.504094
0
LINE
8
BLACK
6
CONTINUOUS
10
0.556732
20
0.504094
11
0.556732
21
0.515906
0
LINE
8
BLACK
6
CONTINUOUS
10
0.556732
20
0.515906
11
0.557182
21
0.518165
0
LINE
8
BLACK
6
CONTINUOUS
10
0.557182
20
0.518165
11
0.558462
21
0.520081
0
LINE
8
BLACK
6
CONTINUOUS
10
0.558462
20
0.520081
11
0.560378
21
0.521361
0
LINE
8
BLACK
6
CONTINUOUS
10
0.560378
20
0.521361
11
0.562638
21
0.521811
0
LINE
8
BLACK
6
CONTINUOUS
10
0.562638
20
0.521811
11
0.627598
21
0.521811
0
LINE
8
BLACK
6
CONTINUOUS
10
0.627598
20
0.521811
11
0.629858
21
0.521361
0
LINE
8
BLACK
6
CONTINUOUS
10
0.82474
20
0.521361
11
0.826656
21
0.520081
0
LINE
8
BLACK
6
CONTINUOUS
10
0.826656
20
0.520081
11
0.827936
21
0.518165
0
LINE
8
BLACK
6
CONTINUOUS
10
0.827936
20
0.518165
11
0.828386
21
0.515906
0
LINE
8
BLACK
6
CONTINUOUS
10
0.828386
20
0.515906
11
0.828386
21
0.504094
0
LINE
8
BLACK
6
CONTINUOUS
10
0.828386
20
0.504094
11
0.827936
21
0.501835
0
LINE
8
BLACK
6
CONTINUOUS
10
0.827936
20
0.501835
11
0.826656
21
0.499919
0
LINE
8
BLACK
6
CONTINUOUS
10
0.826656
20
0.499919
11
0.82474
21
0.498639
0
LINE
8
BLACK
6
CONTINUOUS
10
0.82474
20
0.498639
11
0.82248
21
0.498189
0
LINE
8
BLACK
6
CONTINUOUS
10
0.82248
20
0.498189
11
0.75752
21
0.498189
0
LINE
8
BLACK
6
CONTINUOUS
10
0.75752
20
0.498189
11
0.75526
21
0.498639
0
LINE
8
BLACK
6
CONTINUOUS
10
0.75526
20
0.498639
11
0.753344
21
0.499919
0
LINE
8
BLACK
6
CONTINUOUS
10
0.753344
20
0.499919
11
0.752064
21
0.501835
0
LINE
8
BLACK
6
CONTINUOUS
10
0.752064
20
0.501835
11
0.751614
21
0.504094
0
LINE
8
BLACK
6
CONTINUOUS
10
0.751614
20
0.504094
11
0.751614
21
0.515906
0
LINE
8
BLACK
6
CONTINUOUS
10
0.751614
20
0.515906
11
0.752064
21
0.518165
0
LINE
8
BLACK
6
CONTINUOUS
10
0.752064
20
0.518165
11
0.753344
21
0.520081
0
LINE
8
BLACK
6
CONTINUOUS
10
0.753344
20
0.520081
11
0.75526
21
0.521361
0
LINE
8
BLACK
6
CONTINUOUS
10
0.75526
20
0.521361
11
0.75752
21
0.521811
0
LINE
8
BLACK
6
CONTINUOUS
10
0.75752
20
0.521811
11
0.82248
21
0.521811
0
LINE
8
BLACK
6
CONTINUOUS
10
0.82248
20
0.521811
11
0.82474
21
0.521361
0
LINE
8
BLACK
6
CONTINUOUS
10
0.208373
20
0.547857
11
0.211566
21
0.545724
0
LINE
8
BLACK
6
CONTINUOUS
10
0.211566
20
0.545724
11
0.2137
21
0.54253
0
LINE
8
BLACK
6
CONTINUOUS
10
0.2137
20
0.54253
11
0.214449
21
0.538764
0
LINE
8
BLACK
6
CONTINUOUS
10
0.214449
20
0.538764
11
0.214449
21
0.509236
0
LINE
8
BLACK
6
CONTINUOUS
10
0.214449
20
0.509236
11
0.2137
21
0.50547
0
LINE
8
BLACK
6
CONTINUOUS
10
0.2137
20
0.50547
11
0.211566
21
0.502276
0
LINE
8
BLACK
6
CONTINUOUS
10
0.211566
20
0.502276
11
0.208373
21
0.500143
0
LINE
8
BLACK
6
CONTINUOUS
10
0.208373
20
0.500143
11
0.204606
21
0.499394
0
LINE
8
BLACK
6
CONTINUOUS
10
0.204606
20
0.499394
11
0.155394
21
0.499394
0
LINE
8
BLACK
6
CONTINUOUS
10
0.155394
20
0.499394
11
0.151627
21
0.500143
0
LINE
8
BLACK
6
CONTINUOUS
10
0.151627
20
0.500143
11
0.148434
21
0.502276
0
LINE
8
BLACK
6
CONTINUOUS
10
0.148434
20
0.502276
11
0.1463
21
0.50547
0
LINE
8
BLACK
6
CONTINUOUS
10
0.1463
20
0.50547
11
0.145551
21
0.509236
0
LINE
8
BLACK
6
CONTINUOUS
10
0.145551
20
0.509236
11
0.145551
21
0.538764
0
LINE
8
BLACK
6
CONTINUOUS
10
0.145551
20
0.538764
11
0.1463
21
0.54253
0
LINE
8
BLACK
6
CONTINUOUS
10
0.1463
20
0.54253
11
0.148434
21
0.545724
0
LINE
8
BLACK
6
CONTINUOUS
10
0.148434
20
0.545724
11
0.151627
21
0.547857
0
LINE
8
BLACK
6
CONTINUOUS
10
0.151627
20
0.547857
11
0.155394
21
0.548606
0
LINE
8
BLACK
6
CONTINUOUS
10
0.155394
20
0.548606
11
0.204606
21
0.548606
0
LINE
8
BLACK
6
CONTINUOUS
10
0.204606
20
0.548606
11
0.208373
21
0.547857
0
LINE
8
BLACK
6
CONTINUOUS
10
0.108373
20
0.547857
11
0.111566
21
0.545724
0
LINE
8
BLACK
6
CONTINUOUS
10
0.111566
20
0.545724
11
0.1137
21
0.54253
0
LINE
8
BLACK
6
CONTINUOUS
10
0.1137
20
0.54253
11
0.114449
21
0.538764
0
LINE
8
BLACK
6
CONTINUOUS
10
0.114449
20
0.538764
11
0.114449
21
0.509236
0
LINE
8
BLACK
6
CONTINUOUS
10
0.114449
20
0.509236
11
0.1137
21
0.50547
0
LINE
8
BLACK
6
CONTINUOUS
10
0.1137
20
0.50547
11
0.111566
21
0.502276
0
LINE
8
BLACK
6
CONTINUOUS
10
0.111566
20
0.502276
11
0.108373
21
0.500143
0
LINE
8
BLACK
6
CONTINUOUS
10
0.108373
20
0.500143
11
0.104606
21
0.499394
0
LINE
8
BLACK
6
CONTINUOUS
10
0.104606
20
0.499394
11
0.0553937
21
0.499394
0
LINE
8
BLACK
6
CONTINUOUS
10
0.0553937
20
0.499394
11
0.0516271
21
0.500143
0
LINE
8
BLACK
6
CONTINUOUS
10
0.0516271
20
0.500143
11
0.048434
21
0.502276
0
LINE
8
BLACK
6
CONTINUOUS
10
0.048434
20
0.502276
11
0.0463004
21
0.50547
0
LINE
8
BLACK
6
CONTINUOUS
10
0.0463004
20
0.50547
11
0.0455512
21
0.509236
0
LINE
8
BLACK
6
CONTINUOUS
10
0.0455512
20
0.509236
11
0.0455512
21
0.538764
0
LINE
8
BLACK
6
CONTINUOUS
10
0.0455512
20
0.538764
11
0.0463004
21
0.54253
0
LINE
8
BLACK
6
CONTINUOUS
10
0.0463004
20
0.54253
11
0.048434
21
0.545724
0
LINE
8
BLACK
6
CONTINUOUS
10
0.048434
20
0.545724
11
0.0516271
21
0.547857
0
LINE
8
BLACK
6
CONTINUOUS
10
0.0516271
20
0.547857
11
0.0553937
21
0.548606
0
LINE
8
BLACK
6
CONTINUOUS
10
0.0553937
20
0.548606
11
0.104606
21
0.548606
0
LINE
8
BLACK
6
CONTINUOUS
10
0.104606
20
0.548606
11
0.108373
21
0.547857
0
LINE
8
BLACK
6
CONTINUOUS
10
0.308373
20
0.547857
11
0.311566
21
0.545724
0
LINE
8
BLACK
6
CONTINUOUS
10
0.311566
20
0.545724
11
0.3137
21
0.54253
0
LINE
8
BLACK
6
CONTINUOUS
10
0.3137
20
0.54253
11
0.314449
21
0.538764
0
LINE
8
BLACK
6
CONTINUOUS
10
0.314449
20
0.538764
11
0.314449
21
0.509236
0
LINE
8
BLACK
6
CONTINUOUS
10
0.314449
20
0.509236
11
0.3137
21
0.50547
0
LINE
8
BLACK
6
CONTINUOUS
10
0.3137
20
0.50547
11
0.311566
21
0.502276
0
LINE
8
BLACK
6
CONTINUOUS
10
0.311566
20
0.502276
11
0.308373
21
0.500143
0
LINE
8
BLACK
6
CONTINUOUS
10
0.308373
20
0.500143
11
0.304606
21
0.499394
0
LINE
8
BLACK
6
CONTINUOUS
10
0.304606
20
0.499394
11
0.255394
21
0.499394
0
LINE
8
BLACK
6
CONTINUOUS
10
0.255394
20
0.499394
11
0.251627
21
0.500143
0
LINE
8
BLACK
6
CONTINUOUS
10
0.251627
20
0.500143
11
0.248434
21
0.502276
0
LINE
8
BLACK
6
CONTINUOUS
10
0.248434
20
0.502276
11
0.2463
21
0.50547
0
LINE
8
BLACK
6
CONTINUOUS
10
0.2463
20
0.50547
11
0.245551
21
0.509236
0
LINE
8
BLACK
6
CONTINUOUS
10
0.245551
20
0.509236
11
0.245551
21
0.538764
0
LINE
8
BLACK
6
CONTINUOUS
10
0.245551
20
0.538764
11
0.2463
21
0.54253
0
LINE
8
BLACK
6
CONTINUOUS
10
0.2463
20
0.54253
11
0.248434
21
0.545724
0
LINE
8
BLACK
6
CONTINUOUS
10
0.248434
20
0.545724
11
0.251627
21
0.547857
0
LINE
8
BLACK
6
CONTINUOUS
10
0.251627
20
0.547857
11
0.255394
21
0.548606
0
LINE
8
BLACK
6
CONTINUOUS
10
0.255394
20
0.548606
11
0.304606
21
0.548606
0
LINE
8
BLACK
6
CONTINUOUS
10
0.304606
20
0.548606
11
0.308373
21
0.547857
0
LINE
8
BLACK
6
CONTINUOUS
10
0.729987
20
0.578936
11
0.73318
21
0.576802
0
LINE
8
BLACK
6
CONTINUOUS
10
0.73318
20
0.576802
11
0.735314
21
0.573609
0
LINE
8
BLACK
6
CONTINUOUS
10
0.735314
20
0.573609
11
0.736063
21
0.569843
0
LINE
8
BLACK
6
CONTINUOUS
10
0.736063
20
0.569843
11
0.736063
21
0.535197
0
LINE
8
BLACK
6
CONTINUOUS
10
0.736063
20
0.535197
11
0.735314
21
0.53143
0
LINE
8
BLACK
6
CONTINUOUS
10
0.735314
20
0.53143
11
0.73318
21
0.528237
0
LINE
8
BLACK
6
CONTINUOUS
10
0.73318
20
0.528237
11
0.729987
21
0.526104
0
LINE
8
BLACK
6
CONTINUOUS
10
0.729987
20
0.526104
11
0.72622
21
0.525354
0
LINE
8
BLACK
6
CONTINUOUS
10
0.72622
20
0.525354
11
0.706142
21
0.525354
0
LINE
8
BLACK
6
CONTINUOUS
10
0.706142
20
0.525354
11
0.702375
21
0.526104
0
LINE
8
BLACK
6
CONTINUOUS
10
0.702375
20
0.526104
11
0.699182
21
0.528237
0
LINE
8
BLACK
6
CONTINUOUS
10
0.699182
20
0.528237
11
0.697048
21
0.53143
0
LINE
8
BLACK
6
CONTINUOUS
10
0.697048
20
0.53143
11
0.696299
21
0.535197
0
LINE
8
BLACK
6
CONTINUOUS
10
0.696299
20
0.535197
11
0.696299
21
0.569843
0
LINE
8
BLACK
6
CONTINUOUS
10
0.696299
20
0.569843
11
0.697048
21
0.573609
0
LINE
8
BLACK
6
CONTINUOUS
10
0.697048
20
0.573609
11
0.699182
21
0.576802
0
LINE
8
BLACK
6
CONTINUOUS
10
0.699182
20
0.576802
11
0.702375
21
0.578936
0
LINE
8
BLACK
6
CONTINUOUS
10
0.702375
20
0.578936
11
0.706142
21
0.579685
0
LINE
8
BLACK
6
CONTINUOUS
10
0.706142
20
0.579685
11
0.72622
21
0.579685
0
LINE
8
BLACK
6
CONTINUOUS
10
0.72622
20
0.579685
11
0.729987
21
0.578936
0
LINE
8
BLACK
6
CONTINUOUS
10
0.682743
20
0.578936
11
0.685936
21
0.576802
0
LINE
8
BLACK
6
CONTINUOUS
10
0.685936
20
0.576802
11
0.68807
21
0.573609
0
LINE
8
BLACK
6
CONTINUOUS
10
0.68807
20
0.573609
11
0.688819
21
0.569843
0
LINE
8
BLACK
6
CONTINUOUS
10
0.688819
20
0.569843
11
0.688819
21
0.535197
0
LINE
8
BLACK
6
CONTINUOUS
10
0.688819
20
0.535197
11
0.68807
21
0.53143
0
LINE
8
BLACK
6
CONTINUOUS
10
0.68807
20
0.53143
11
0.685936
21
0.528237
0
LINE
8
BLACK
6
CONTINUOUS
10
0.685936
20
0.528237
11
0.682743
21
0.526104
0
LINE
8
BLACK
6
CONTINUOUS
10
0.682743
20
0.526104
11
0.678976
21
0.525354
0
LINE
8
BLACK
6
CONTINUOUS
10
0.678976
20
0.525354
11
0.658898
21
0.525354
0
LINE
8
BLACK
6
CONTINUOUS
10
0.658898
20
0.525354
11
0.655131
21
0.526104
0
LINE
8
BLACK
6
CONTINUOUS
10
0.655131
20
0.526104
11
0.651938
21
0.528237
0
LINE
8
BLACK
6
CONTINUOUS
10
0.651938
20
0.528237
11
0.649804
21
0.53143
0
LINE
8
BLACK
6
CONTINUOUS
10
0.649804
20
0.53143
11
0.649055
21
0.535197
0
LINE
8
BLACK
6
CONTINUOUS
10
0.649055
20
0.535197
11
0.649055
21
0.569843
0
LINE
8
BLACK
6
CONTINUOUS
10
0.649055
20
0.569843
11
0.649804
21
0.573609
0
LINE
8
BLACK
6
CONTINUOUS
10
0.649804
20
0.573609
11
0.651938
21
0.576802
0
LINE
8
BLACK
6
CONTINUOUS
10
0.651938
20
0.576802
11
0.655131
21
0.578936
0
LINE
8
BLACK
6
CONTINUOUS
10
0.655131
20
0.578936
11
0.658898
21
0.579685
0
LINE
8
BLACK
6
CONTINUOUS
10
0.658898
20
0.579685
11
0.678976
21
0.579685
0
LINE
8
BLACK
6
CONTINUOUS
10
0.678976
20
0.579685
11
0.682743
21
0.578936
0
LINE
8
BLACK
6
CONTINUOUS
10
1.36878
20
0.528189
11
1.34122
21
0.528189
0
LINE
8
BLACK
6
CONTINUOUS
10
1.34122
20
0.528189
11
1.34122
21
0.551811
0
LINE
8
BLACK
6
CONTINUOUS
10
1.34122
20
0.551811
11
1.36878
21
0.551811
0
LINE
8
BLACK
6
CONTINUOUS
10
1.36878
20
0.551811
11
1.36878
21
0.528189
0
LINE
8
BLACK
6
CONTINUOUS
10
1.2975
20
0.5375
11
1.2425
21
0.5375
0
LINE
8
BLACK
6
CONTINUOUS
10
1.2425
20
0.5375
11
1.2425
21
0.5725
0
LINE
8
BLACK
6
CONTINUOUS
10
1.2425
20
0.5725
11
1.2975
21
0.5725
0
LINE
8
BLACK
6
CONTINUOUS
10
1.2975
20
0.5725
11
1.2975
21
0.5375
0
LINE
8
BLACK
6
CONTINUOUS
10
1.73944
20
0.609684
11
1.74263
21
0.60755
0
LINE
8
BLACK
6
CONTINUOUS
10
1.74263
20
0.60755
11
1.74476
21
0.604357
0
LINE
8
BLACK
6
CONTINUOUS
10
1.74476
20
0.604357
11
1.74551
21
0.600591
0
LINE
8
BLACK
6
CONTINUOUS
10
1.74551
20
0.600591
11
1.74551
21
0.549409
0
LINE
8
BLACK
6
CONTINUOUS
10
1.74551
20
0.549409
11
1.74476
21
0.545643
0
LINE
8
BLACK
6
CONTINUOUS
10
1.74476
20
0.545643
11
1.74263
21
0.54245
0
LINE
8
BLACK
6
CONTINUOUS
10
1.74263
20
0.54245
11
1.73944
21
0.540316
0
LINE
8
BLACK
6
CONTINUOUS
10
1.73944
20
0.540316
11
1.73567
21
0.539567
0
LINE
8
BLACK
6
CONTINUOUS
10
1.73567
20
0.539567
11
1.62543
21
0.539567
0
LINE
8
BLACK
6
CONTINUOUS
10
1.62543
20
0.539567
11
1.62167
21
0.540316
0
LINE
8
BLACK
6
CONTINUOUS
10
1.62167
20
0.540316
11
1.61847
21
0.54245
0
LINE
8
BLACK
6
CONTINUOUS
10
1.61847
20
0.54245
11
1.61634
21
0.545643
0
LINE
8
BLACK
6
CONTINUOUS
10
1.61634
20
0.545643
11
1.61559
21
0.549409
0
LINE
8
BLACK
6
CONTINUOUS
10
1.61559
20
0.549409
11
1.61559
21
0.600591
0
LINE
8
BLACK
6
CONTINUOUS
10
1.61559
20
0.600591
11
1.61634
21
0.604357
0
LINE
8
BLACK
6
CONTINUOUS
10
1.61634
20
0.604357
11
1.61847
21
0.60755
0
LINE
8
BLACK
6
CONTINUOUS
10
1.61847
20
0.60755
11
1.62167
21
0.609684
0
LINE
8
BLACK
6
CONTINUOUS
10
1.62167
20
0.609684
11
1.62543
21
0.610433
0
LINE
8
BLACK
6
CONTINUOUS
10
1.62543
20
0.610433
11
1.73567
21
0.610433
0
LINE
8
BLACK
6
CONTINUOUS
10
1.73567
20
0.610433
11
1.73944
21
0.609684
0
LINE
8
BLACK
6
CONTINUOUS
10
0.82474
20
0.571361
11
0.826656
21
0.570081
0
LINE
8
BLACK
6
CONTINUOUS
10
0.826656
20
0.570081
11
0.827936
21
0.568165
0
LINE
8
BLACK
6
CONTINUOUS
10
0.827936
20
0.568165
11
0.828386
21
0.565906
0
LINE
8
BLACK
6
CONTINUOUS
10
0.828386
20
0.565906
11
0.828386
21
0.554094
0
LINE
8
BLACK
6
CONTINUOUS
10
0.828386
20
0.554094
11
0.827936
21
0.551835
0
LINE
8
BLACK
6
CONTINUOUS
10
0.827936
20
0.551835
11
0.826656
21
0.549919
0
LINE
8
BLACK
6
CONTINUOUS
10
0.826656
20
0.549919
11
0.82474
21
0.548639
0
LINE
8
BLACK
6
CONTINUOUS
10
0.82474
20
0.548639
11
0.82248
21
0.548189
0
LINE
8
BLACK
6
CONTINUOUS
10
0.82248
20
0.548189
11
0.75752
21
0.548189
0
LINE
8
BLACK
6
CONTINUOUS
10
0.75752
20
0.548189
11
0.75526
21
0.548639
0
LINE
8
BLACK
6
CONTINUOUS
10
0.75526
20
0.548639
11
0.753344
21
0.549919
0
LINE
8
BLACK
6
CONTINUOUS
10
0.753344
20
0.549919
11
0.752064
21
0.551835
0
LINE
8
BLACK
6
CONTINUOUS
10
0.752064
20
0.551835
11
0.751614
21
0.554094
0
LINE
8
BLACK
6
CONTINUOUS
10
0.751614
20
0.554094
11
0.751614
21
0.565906
0
LINE
8
BLACK
6
CONTINUOUS
10
0.751614
20
0.565906
11
0.752064
21
0.568165
0
LINE
8
BLACK
6
CONTINUOUS
10
0.752064
20
0.568165
11
0.753344
21
0.570081
0
LINE
8
BLACK
6
CONTINUOUS
10
0.753344
20
0.570081
11
0.75526
21
0.571361
0
LINE
8
BLACK
6
CONTINUOUS
10
0.75526
20
0.571361
11
0.75752
21
0.571811
0
LINE
8
BLACK
6
CONTINUOUS
10
0.75752
20
0.571811
11
0.82248
21
0.571811
0
LINE
8
BLACK
6
CONTINUOUS
10
0.82248
20
0.571811
11
0.82474
21
0.571361
0
LINE
8
BLACK
6
CONTINUOUS
10
0.629858
20
0.571361
11
0.631774
21
0.570081
0
LINE
8
BLACK
6
CONTINUOUS
10
0.631774
20
0.570081
11
0.633054
21
0.568165
0
LINE
8
BLACK
6
CONTINUOUS
10
0.633054
20
0.568165
11
0.633504
21
0.565906
0
LINE
8
BLACK
6
CONTINUOUS
10
0.633504
20
0.565906
11
0.633504
21
0.554094
0
LINE
8
BLACK
6
CONTINUOUS
10
0.633504
20
0.554094
11
0.633054
21
0.551835
0
LINE
8
BLACK
6
CONTINUOUS
10
0.633054
20
0.551835
11
0.631774
21
0.549919
0
LINE
8
BLACK
6
CONTINUOUS
10
0.631774
20
0.549919
11
0.629858
21
0.548639
0
LINE
8
BLACK
6
CONTINUOUS
10
0.629858
20
0.548639
11
0.627598
21
0.548189
0
LINE
8
BLACK
6
CONTINUOUS
10
0.627598
20
0.548189
11
0.562638
21
0.548189
0
LINE
8
BLACK
6
CONTINUOUS
10
0.562638
20
0.548189
11
0.560378
21
0.548639
0
LINE
8
BLACK
6
CONTINUOUS
10
0.560378
20
0.548639
11
0.558462
21
0.549919
0
LINE
8
BLACK
6
CONTINUOUS
10
0.558462
20
0.549919
11
0.557182
21
0.551835
0
LINE
8
BLACK
6
CONTINUOUS
10
0.557182
20
0.551835
11
0.556732
21
0.554094
0
LINE
8
BLACK
6
CONTINUOUS
10
0.556732
20
0.554094
11
0.556732
21
0.565906
0
LINE
8
BLACK
6
CONTINUOUS
10
0.556732
20
0.565906
11
0.557182
21
0.568165
0
LINE
8
BLACK
6
CONTINUOUS
10
0.557182
20
0.568165
11
0.558462
21
0.570081
0
LINE
8
BLACK
6
CONTINUOUS
10
0.558462
20
0.570081
11
0.560378
21
0.571361
0
LINE
8
BLACK
6
CONTINUOUS
10
0.560378
20
0.571361
11
0.562638
21
0.571811
0
LINE
8
BLACK
6
CONTINUOUS
10
0.562638
20
0.571811
11
0.627598
21
0.571811
0
LINE
8
BLACK
6
CONTINUOUS
10
0.627598
20
0.571811
11
0.629858
21
0.571361
0
LINE
8
BLACK
6
CONTINUOUS
10
1.2125
20
0.5675
11
1.1575
21
0.5675
0
LINE
8
BLACK
6
CONTINUOUS
10
1.1575
20
0.5675
11
1.1575
21
0.6025
0
LINE
8
BLACK
6
CONTINUOUS
10
1.1575
20
0.6025
11
1.2125
21
0.6025
0
LINE
8
BLACK
6
CONTINUOUS
10
1.2125
20
0.6025
11
1.2125
21
0.5675
0
LINE
8
BLACK
6
CONTINUOUS
10
0.4535
20
0.5895
11
0.3985
21
0.5895
0
LINE
8
BLACK
6
CONTINUOUS
10
0.3985
20
0.5895
11
0.3985
21
0.6245
0
LINE
8
BLACK
6
CONTINUOUS
10
0.3985
20
0.6245
11
0.4535
21
0.6245
0
LINE
8
BLACK
6
CONTINUOUS
10
0.4535
20
0.6245
11
0.4535
21
0.5895
0
LINE
8
BLACK
6
CONTINUOUS
10
0.682743
20
0.643896
11
0.685936
21
0.641763
0
LINE
8
BLACK
6
CONTINUOUS
10
0.685936
20
0.641763
11
0.68807
21
0.63857
0
LINE
8
BLACK
6
CONTINUOUS
10
0.68807
20
0.63857
11
0.688819
21
0.634803
0
LINE
8
BLACK
6
CONTINUOUS
10
0.688819
20
0.634803
11
0.688819
21
0.600157
0
LINE
8
BLACK
6
CONTINUOUS
10
0.688819
20
0.600157
11
0.68807
21
0.596391
0
LINE
8
BLACK
6
CONTINUOUS
10
0.68807
20
0.596391
11
0.685936
21
0.593198
0
LINE
8
BLACK
6
CONTINUOUS
10
0.685936
20
0.593198
11
0.682743
21
0.591064
0
LINE
8
BLACK
6
CONTINUOUS
10
0.682743
20
0.591064
11
0.678976
21
0.590315
0
LINE
8
BLACK
6
CONTINUOUS
10
0.678976
20
0.590315
11
0.658898
21
0.590315
0
LINE
8
BLACK
6
CONTINUOUS
10
0.658898
20
0.590315
11
0.655131
21
0.591064
0
LINE
8
BLACK
6
CONTINUOUS
10
0.655131
20
0.591064
11
0.651938
21
0.593198
0
LINE
8
BLACK
6
CONTINUOUS
10
0.651938
20
0.593198
11
0.649804
21
0.596391
0
LINE
8
BLACK
6
CONTINUOUS
10
0.649804
20
0.596391
11
0.649055
21
0.600157
0
LINE
8
BLACK
6
CONTINUOUS
10
0.649055
20
0.600157
11
0.649055
21
0.634803
0
LINE
8
BLACK
6
CONTINUOUS
10
0.649055
20
0.634803
11
0.649804
21
0.63857
0
LINE
8
BLACK
6
CONTINUOUS
10
0.649804
20
0.63857
11
0.651938
21
0.641763
0
LINE
8
BLACK
6
CONTINUOUS
10
0.651938
20
0.641763
11
0.655131
21
0.643896
0
LINE
8
BLACK
6
CONTINUOUS
10
0.655131
20
0.643896
11
0.658898
21
0.644646
0
LINE
8
BLACK
6
CONTINUOUS
10
0.658898
20
0.644646
11
0.678976
21
0.644646
0
LINE
8
BLACK
6
CONTINUOUS
10
0.678976
20
0.644646
11
0.682743
21
0.643896
0
LINE
8
BLACK
6
CONTINUOUS
10
0.729987
20
0.643896
11
0.73318
21
0.641763
0
LINE
8
BLACK
6
CONTINUOUS
10
0.73318
20
0.641763
11
0.735314
21
0.63857
0
LINE
8
BLACK
6
CONTINUOUS
10
0.735314
20
0.63857
11
0.736063
21
0.634803
0
LINE
8
BLACK
6
CONTINUOUS
10
0.736063
20
0.634803
11
0.736063
21
0.600157
0
LINE
8
BLACK
6
CONTINUOUS
10
0.736063
20
0.600157
11
0.735314
21
0.596391
0
LINE
8
BLACK
6
CONTINUOUS
10
0.735314
20
0.596391
11
0.73318
21
0.593198
0
LINE
8
BLACK
6
CONTINUOUS
10
0.73318
20
0.593198
11
0.729987
21
0.591064
0
LINE
8
BLACK
6
CONTINUOUS
10
0.729987
20
0.591064
11
0.72622
21
0.590315
0
LINE
8
BLACK
6
CONTINUOUS
10
0.72622
20
0.590315
11
0.706142
21
0.590315
0
LINE
8
BLACK
6
CONTINUOUS
10
0.706142
20
0.590315
11
0.702375
21
0.591064
0
LINE
8
BLACK
6
CONTINUOUS
10
0.702375
20
0.591064
11
0.699182
21
0.593198
0
LINE
8
BLACK
6
CONTINUOUS
10
0.699182
20
0.593198
11
0.697048
21
0.596391
0
LINE
8
BLACK
6
CONTINUOUS
10
0.697048
20
0.596391
11
0.696299
21
0.600157
0
LINE
8
BLACK
6
CONTINUOUS
10
0.696299
20
0.600157
11
0.696299
21
0.634803
0
LINE
8
BLACK
6
CONTINUOUS
10
0.696299
20
0.634803
11
0.697048
21
0.63857
0
LINE
8
BLACK
6
CONTINUOUS
10
0.697048
20
0.63857
11
0.699182
21
0.641763
0
LINE
8
BLACK
6
CONTINUOUS
10
0.699182
20
0.641763
11
0.702375
21
0.643896
0
LINE
8
BLACK
6
CONTINUOUS
10
0.702375
20
0.643896
11
0.706142
21
0.644646
0
LINE
8
BLACK
6
CONTINUOUS
10
0.706142
20
0.644646
11
0.72622
21
0.644646
0
LINE
8
BLACK
6
CONTINUOUS
10
0.72622
20
0.644646
11
0.729987
21
0.643896
0
LINE
8
BLACK
6
CONTINUOUS
10
0.362373
20
0.640739
11
0.365566
21
0.638605
0
LINE
8
BLACK
6
CONTINUOUS
10
0.365566
20
0.638605
11
0.3677
21
0.635412
0
LINE
8
BLACK
6
CONTINUOUS
10
0.3677
20
0.635412
11
0.368449
21
0.631646
0
LINE
8
BLACK
6
CONTINUOUS
10
0.368449
20
0.631646
11
0.368449
21
0.602118
0
LINE
8
BLACK
6
CONTINUOUS
10
0.368449
20
0.602118
11
0.3677
21
0.598352
0
LINE
8
BLACK
6
CONTINUOUS
10
0.3677
20
0.598352
11
0.365566
21
0.595158
0
LINE
8
BLACK
6
CONTINUOUS
10
0.365566
20
0.595158
11
0.362373
21
0.593025
0
LINE
8
BLACK
6
CONTINUOUS
10
0.362373
20
0.593025
11
0.358606
21
0.592276
0
LINE
8
BLACK
6
CONTINUOUS
10
0.358606
20
0.592276
11
0.309394
21
0.592276
0
LINE
8
BLACK
6
CONTINUOUS
10
0.309394
20
0.592276
11
0.305627
21
0.593025
0
LINE
8
BLACK
6
CONTINUOUS
10
0.305627
20
0.593025
11
0.302434
21
0.595158
0
LINE
8
BLACK
6
CONTINUOUS
10
0.302434
20
0.595158
11
0.3003
21
0.598352
0
LINE
8
BLACK
6
CONTINUOUS
10
0.3003
20
0.598352
11
0.299551
21
0.602118
0
LINE
8
BLACK
6
CONTINUOUS
10
0.299551
20
0.602118
11
0.299551
21
0.631646
0
LINE
8
BLACK
6
CONTINUOUS
10
0.299551
20
0.631646
11
0.3003
21
0.635412
0
LINE
8
BLACK
6
CONTINUOUS
10
0.3003
20
0.635412
11
0.302434
21
0.638605
0
LINE
8
BLACK
6
CONTINUOUS
10
0.302434
20
0.638605
11
0.305627
21
0.640739
0
LINE
8
BLACK
6
CONTINUOUS
10
0.305627
20
0.640739
11
0.309394
21
0.641488
0
LINE
8
BLACK
6
CONTINUOUS
10
0.309394
20
0.641488
11
0.358606
21
0.641488
0
LINE
8
BLACK
6
CONTINUOUS
10
0.358606
20
0.641488
11
0.362373
21
0.640739
0
LINE
8
BLACK
6
CONTINUOUS
10
0.262373
20
0.640739
11
0.265566
21
0.638605
0
LINE
8
BLACK
6
CONTINUOUS
10
0.265566
20
0.638605
11
0.2677
21
0.635412
0
LINE
8
BLACK
6
CONTINUOUS
10
0.2677
20
0.635412
11
0.268449
21
0.631646
0
LINE
8
BLACK
6
CONTINUOUS
10
0.268449
20
0.631646
11
0.268449
21
0.602118
0
LINE
8
BLACK
6
CONTINUOUS
10
0.268449
20
0.602118
11
0.2677
21
0.598352
0
LINE
8
BLACK
6
CONTINUOUS
10
0.2677
20
0.598352
11
0.265566
21
0.595158
0
LINE
8
BLACK
6
CONTINUOUS
10
0.265566
20
0.595158
11
0.262373
21
0.593025
0
LINE
8
BLACK
6
CONTINUOUS
10
0.262373
20
0.593025
11
0.258606
21
0.592276
0
LINE
8
BLACK
6
CONTINUOUS
10
0.258606
20
0.592276
11
0.209394
21
0.592276
0
LINE
8
BLACK
6
CONTINUOUS
10
0.209394
20
0.592276
11
0.205627
21
0.593025
0
LINE
8
BLACK
6
CONTINUOUS
10
0.205627
20
0.593025
11
0.202434
21
0.595158
0
LINE
8
BLACK
6
CONTINUOUS
10
0.202434
20
0.595158
11
0.2003
21
0.598352
0
LINE
8
BLACK
6
CONTINUOUS
10
0.2003
20
0.598352
11
0.199551
21
0.602118
0
LINE
8
BLACK
6
CONTINUOUS
10
0.199551
20
0.602118
11
0.199551
21
0.631646
0
LINE
8
BLACK
6
CONTINUOUS
10
0.199551
20
0.631646
11
0.2003
21
0.635412
0
LINE
8
BLACK
6
CONTINUOUS
10
0.2003
20
0.635412
11
0.202434
21
0.638605
0
LINE
8
BLACK
6
CONTINUOUS
10
0.202434
20
0.638605
11
0.205627
21
0.640739
0
LINE
8
BLACK
6
CONTINUOUS
10
0.205627
20
0.640739
11
0.209394
21
0.641488
0
LINE
8
BLACK
6
CONTINUOUS
10
0.209394
20
0.641488
11
0.258606
21
0.641488
0
LINE
8
BLACK
6
CONTINUOUS
10
0.258606
20
0.641488
11
0.262373
21
0.640739
0
LINE
8
BLACK
6
CONTINUOUS
10
0.82474
20
0.621361
11
0.826656
21
0.620081
0
LINE
8
BLACK
6
CONTINUOUS
10
0.826656
20
0.620081
11
0.827936
21
0.618165
0
LINE
8
BLACK
6
CONTINUOUS
10
0.827936
20
0.618165
11
0.828386
21
0.615906
0
LINE
8
BLACK
6
CONTINUOUS
10
0.828386
20
0.615906
11
0.828386
21
0.604094
0
LINE
8
BLACK
6
CONTINUOUS
10
0.828386
20
0.604094
11
0.827936
21
0.601835
0
LINE
8
BLACK
6
CONTINUOUS
10
0.827936
20
0.601835
11
0.826656
21
0.599919
0
LINE
8
BLACK
6
CONTINUOUS
10
0.826656
20
0.599919
11
0.82474
21
0.598639
0
LINE
8
BLACK
6
CONTINUOUS
10
0.82474
20
0.598639
11
0.82248
21
0.598189
0
LINE
8
BLACK
6
CONTINUOUS
10
0.82248
20
0.598189
11
0.75752
21
0.598189
0
LINE
8
BLACK
6
CONTINUOUS
10
0.75752
20
0.598189
11
0.75526
21
0.598639
0
LINE
8
BLACK
6
CONTINUOUS
10
0.75526
20
0.598639
11
0.753344
21
0.599919
0
LINE
8
BLACK
6
CONTINUOUS
10
0.753344
20
0.599919
11
0.752064
21
0.601835
0
LINE
8
BLACK
6
CONTINUOUS
10
0.752064
20
0.601835
11
0.751614
21
0.604094
0
LINE
8
BLACK
6
CONTINUOUS
10
0.751614
20
0.604094
11
0.751614
21
0.615906
0
LINE
8
BLACK
6
CONTINUOUS
10
0.751614
20
0.615906
11
0.752064
21
0.618165
0
LINE
8
BLACK
6
CONTINUOUS
10
0.752064
20
0.618165
11
0.753344
21
0.620081
0
LINE
8
BLACK
6
CONTINUOUS
10
0.753344
20
0.620081
11
0.75526
21
0.621361
0
LINE
8
BLACK
6
CONTINUOUS
10
0.75526
20
0.621361
11
0.75752
21
0.621811
0
LINE
8
BLACK
6
CONTINUOUS
10
0.75752
20
0.621811
11
0.82248
21
0.621811
0
LINE
8
BLACK
6
CONTINUOUS
10
0.82248
20
0.621811
11
0.82474
21
0.621361
0
LINE
8
BLACK
6
CONTINUOUS
10
0.629858
20
0.621361
11
0.631774
21
0.620081
0
LINE
8
BLACK
6
CONTINUOUS
10
0.631774
20
0.620081
11
0.633054
21
0.618165
0
LINE
8
BLACK
6
CONTINUOUS
10
0.633054
20
0.618165
11
0.633504
21
0.615906
0
LINE
8
BLACK
6
CONTINUOUS
10
0.633504
20
0.615906
11
0.633504
21
0.604094
0
LINE
8
BLACK
6
CONTINUOUS
10
0.633504
20
0.604094
11
0.633054
21
0.601835
0
LINE
8
BLACK
6
CONTINUOUS
10
0.633054
20
0.601835
11
0.631774
21
0.599919
0
LINE
8
BLACK
6
CONTINUOUS
10
0.631774
20
0.599919
11
0.629858
21
0.598639
0
LINE
8
BLACK
6
CONTINUOUS
10
0.629858
20
0.598639
11
0.627598
21
0.598189
0
LINE
8
BLACK
6
CONTINUOUS
10
0.627598
20
0.598189
11
0.562638
21
0.598189
0
LINE
8
BLACK
6
CONTINUOUS
10
0.562638
20
0.598189
11
0.560378
21
0.598639
0
LINE
8
BLACK
6
CONTINUOUS
10
0.560378
20
0.598639
11
0.558462
21
0.599919
0
LINE
8
BLACK
6
CONTINUOUS
10
0.558462
20
0.599919
11
0.557182
21
0.601835
0
LINE
8
BLACK
6
CONTINUOUS
10
0.557182
20
0.601835
11
0.556732
21
0.604094
0
LINE
8
BLACK
6
CONTINUOUS
10
0.556732
20
0.604094
11
0.556732
21
0.615906
0
LINE
8
BLACK
6
CONTINUOUS
10
0.556732
20
0.615906
11
0.557182
21
0.618165
0
LINE
8
BLACK
6
CONTINUOUS
10
0.557182
20
0.618165
11
0.558462
21
0.620081
0
LINE
8
BLACK
6
CONTINUOUS
10
0.558462
20
0.620081
11
0.560378
21
0.621361
0
LINE
8
BLACK
6
CONTINUOUS
10
0.560378
20
0.621361
11
0.562638
21
0.621811
0
LINE
8
BLACK
6
CONTINUOUS
10
0.562638
20
0.621811
11
0.627598
21
0.621811
0
LINE
8
BLACK
6
CONTINUOUS
10
0.627598
20
0.621811
11
0.629858
21
0.621361
0
LINE
8
BLACK
6
CONTINUOUS
10
0.9275
20
0.6025
11
0.8725
21
0.6025
0
LINE
8
BLACK
6
CONTINUOUS
10
0.8725
20
0.6025
11
0.8725
21
0.6375
0
LINE
8
BLACK
6
CONTINUOUS
10
0.8725
20
0.6375
11
0.9275
21
0.6375
0
LINE
8
BLACK
6
CONTINUOUS
10
0.9275
20
0.6375
11
0.9275
21
0.6025
0
LINE
8
BLACK
6
CONTINUOUS
10
0.629858
20
0.671361
11
0.631774
21
0.670081
0
LINE
8
BLACK
6
CONTINUOUS
10
0.631774
20
0.670081
11
0.633054
21
0.668165
0
LINE
8
BLACK
6
CONTINUOUS
10
0.633054
20
0.668165
11
0.633504
21
0.665906
0
LINE
8
BLACK
6
CONTINUOUS
10
0.633504
20
0.665906
11
0.633504
21
0.654094
0
LINE
8
BLACK
6
CONTINUOUS
10
0.633504
20
0.654094
11
0.633054
21
0.651835
0
LINE
8
BLACK
6
CONTINUOUS
10
0.633054
20
0.651835
11
0.631774
21
0.649919
0
LINE
8
BLACK
6
CONTINUOUS
10
0.631774
20
0.649919
11
0.629858
21
0.648639
0
LINE
8
BLACK
6
CONTINUOUS
10
0.629858
20
0.648639
11
0.627598
21
0.648189
0
LINE
8
BLACK
6
CONTINUOUS
10
0.627598
20
0.648189
11
0.562638
21
0.648189
0
LINE
8
BLACK
6
CONTINUOUS
10
0.562638
20
0.648189
11
0.560378
21
0.648639
0
LINE
8
BLACK
6
CONTINUOUS
10
0.560378
20
0.648639
11
0.558462
21
0.649919
0
LINE
8
BLACK
6
CONTINUOUS
10
0.558462
20
0.649919
11
0.557182
21
0.651835
0
LINE
8
BLACK
6
CONTINUOUS
10
0.557182
20
0.651835
11
0.556732
21
0.654094
0
LINE
8
BLACK
6
CONTINUOUS
10
0.556732
20
0.654094
11
0.556732
21
0.665906
0
LINE
8
BLACK
6
CONTINUOUS
10
0.556732
20
0.665906
11
0.557182
21
0.668165
0
LINE
8
BLACK
6
CONTINUOUS
10
0.557182
20
0.668165
11
0.558462
21
0.670081
0
LINE
8
BLACK
6
CONTINUOUS
10
0.558462
20
0.670081
11
0.560378
21
0.671361
0
LINE
8
BLACK
6
CONTINUOUS
10
0.560378
20
0.671361
11
0.562638
21
0.671811
0
LINE
8
BLACK
6
CONTINUOUS
10
0.562638
20
0.671811
11
0.627598
21
0.671811
0
LINE
8
BLACK
6
CONTINUOUS
10
0.627598
20
0.671811
11
0.629858
21
0.671361
0
LINE
8
BLACK
6
CONTINUOUS
10
0.82474
20
0.671361
11
0.826656
21
0.670081
0
LINE
8
BLACK
6
CONTINUOUS
10
0.826656
20
0.670081
11
0.827936
21
0.668165
0
LINE
8
BLACK
6
CONTINUOUS
10
0.827936
20
0.668165
11
0.828386
21
0.665906
0
LINE
8
BLACK
6
CONTINUOUS
10
0.828386
20
0.665906
11
0.828386
21
0.654094
0
LINE
8
BLACK
6
CONTINUOUS
10
0.828386
20
0.654094
11
0.827936
21
0.651835
0
LINE
8
BLACK
6
CONTINUOUS
10
0.827936
20
0.651835
11
0.826656
21
0.649919
0
LINE
8
BLACK
6
CONTINUOUS
10
0.826656
20
0.649919
11
0.82474
21
0.648639
0
LINE
8
BLACK
6
CONTINUOUS
10
0.82474
20
0.648639
11
0.82248
21
0.648189
0
LINE
8
BLACK
6
CONTINUOUS
10
0.82248
20
0.648189
11
0.75752
21
0.648189
0
LINE
8
BLACK
6
CONTINUOUS
10
0.75752
20
0.648189
11
0.75526
21
0.648639
0
LINE
8
BLACK
6
CONTINUOUS
10
0.75526
20
0.648639
11
0.753344
21
0.649919
0
LINE
8
BLACK
6
CONTINUOUS
10
0.753344
20
0.649919
11
0.752064
21
0.651835
0
LINE
8
BLACK
6
CONTINUOUS
10
0.752064
20
0.651835
11
0.751614
21
0.654094
0
LINE
8
BLACK
6
CONTINUOUS
10
0.751614
20
0.654094
11
0.751614
21
0.665906
0
LINE
8
BLACK
6
CONTINUOUS
10
0.751614
20
0.665906
11
0.752064
21
0.668165
0
LINE
8
BLACK
6
CONTINUOUS
10
0.752064
20
0.668165
11
0.753344
21
0.670081
0
LINE
8
BLACK
6
CONTINUOUS
10
0.753344
20
0.670081
11
0.75526
21
0.671361
0
LINE
8
BLACK
6
CONTINUOUS
10
0.75526
20
0.671361
11
0.75752
21
0.671811
0
LINE
8
BLACK
6
CONTINUOUS
10
0.75752
20
0.671811
11
0.82248
21
0.671811
0
LINE
8
BLACK
6
CONTINUOUS
10
0.82248
20
0.671811
11
0.82474
21
0.671361
0
LINE
8
BLACK
6
CONTINUOUS
10
0.4535
20
0.6645
11
0.3985
21
0.6645
0
LINE
8
BLACK
6
CONTINUOUS
10
0.3985
20
0.6645
11
0.3985
21
0.6995
0
LINE
8
BLACK
6
CONTINUOUS
10
0.3985
20
0.6995
11
0.4535
21
0.6995
0
LINE
8
BLACK
6
CONTINUOUS
10
0.4535
20
0.6995
11
0.4535
21
0.6645
0
LINE
8
BLACK
6
CONTINUOUS
10
0.9275
20
0.6775
11
0.8725
21
0.6775
0
LINE
8
BLACK
6
CONTINUOUS
10
0.8725
20
0.6775
11
0.8725
21
0.7125
0
LINE
8
BLACK
6
CONTINUOUS
10
0.8725
20
0.7125
11
0.9275
21
0.7125
0
LINE
8
BLACK
6
CONTINUOUS
10
0.9275
20
0.7125
11
0.9275
21
0.6775
0
LINE
8
BLACK
6
CONTINUOUS
10
1.76022
20
0.73307
11
1.76342
21
0.730936
0
LINE
8
BLACK
6
CONTINUOUS
10
1.76342
20
0.730936
11
1.76555
21
0.727743
0
LINE
8
BLACK
6
CONTINUOUS
10
1.76555
20
0.727743
11
1.7663
21
0.723976
0
LINE
8
BLACK
6
CONTINUOUS
10
1.7663
20
0.723976
11
1.7663
21
0.704291
0
LINE
8
BLACK
6
CONTINUOUS
10
1.7663
20
0.704291
11
1.76555
21
0.700525
0
LINE
8
BLACK
6
CONTINUOUS
10
1.76555
20
0.700525
11
1.76342
21
0.697332
0
LINE
8
BLACK
6
CONTINUOUS
10
1.76342
20
0.697332
11
1.76022
21
0.695198
0
LINE
8
BLACK
6
CONTINUOUS
10
1.76022
20
0.695198
11
1.75646
21
0.694449
0
LINE
8
BLACK
6
CONTINUOUS
10
1.75646
20
0.694449
11
1.66984
21
0.694449
0
LINE
8
BLACK
6
CONTINUOUS
10
1.66984
20
0.694449
11
1.66608
21
0.695198
0
LINE
8
BLACK
6
CONTINUOUS
10
1.66608
20
0.695198
11
1.66288
21
0.697332
0
LINE
8
BLACK
6
CONTINUOUS
10
1.66288
20
0.697332
11
1.66075
21
0.700525
0
LINE
8
BLACK
6
CONTINUOUS
10
1.66075
20
0.700525
11
1.66
21
0.704291
0
LINE
8
BLACK
6
CONTINUOUS
10
1.66
20
0.704291
11
1.66
21
0.723976
0
LINE
8
BLACK
6
CONTINUOUS
10
1.66
20
0.723976
11
1.66075
21
0.727743
0
LINE
8
BLACK
6
CONTINUOUS
10
1.66075
20
0.727743
11
1.66288
21
0.730936
0
LINE
8
BLACK
6
CONTINUOUS
10
1.66288
20
0.730936
11
1.66608
21
0.73307
0
LINE
8
BLACK
6
CONTINUOUS
10
1.66608
20
0.73307
11
1.66984
21
0.733819
0
LINE
8
BLACK
6
CONTINUOUS
10
1.66984
20
0.733819
11
1.75646
21
0.733819
0
LINE
8
BLACK
6
CONTINUOUS
10
1.75646
20
0.733819
11
1.76022
21
0.73307
0
LINE
8
BLACK
6
CONTINUOUS
10
0.262373
20
0.750975
11
0.265566
21
0.748842
0
LINE
8
BLACK
6
CONTINUOUS
10
0.265566
20
0.748842
11
0.2677
21
0.745648
0
LINE
8
BLACK
6
CONTINUOUS
10
0.2677
20
0.745648
11
0.268449
21
0.741882
0
LINE
8
BLACK
6
CONTINUOUS
10
0.268449
20
0.741882
11
0.268449
21
0.712354
0
LINE
8
BLACK
6
CONTINUOUS
10
0.268449
20
0.712354
11
0.2677
21
0.708588
0
LINE
8
BLACK
6
CONTINUOUS
10
0.2677
20
0.708588
11
0.265566
21
0.705395
0
LINE
8
BLACK
6
CONTINUOUS
10
0.265566
20
0.705395
11
0.262373
21
0.703261
0
LINE
8
BLACK
6
CONTINUOUS
10
0.262373
20
0.703261
11
0.258606
21
0.702512
0
LINE
8
BLACK
6
CONTINUOUS
10
0.258606
20
0.702512
11
0.209394
21
0.702512
0
LINE
8
BLACK
6
CONTINUOUS
10
0.209394
20
0.702512
11
0.205627
21
0.703261
0
LINE
8
BLACK
6
CONTINUOUS
10
0.205627
20
0.703261
11
0.202434
21
0.705395
0
LINE
8
BLACK
6
CONTINUOUS
10
0.202434
20
0.705395
11
0.2003
21
0.708588
0
LINE
8
BLACK
6
CONTINUOUS
10
0.2003
20
0.708588
11
0.199551
21
0.712354
0
LINE
8
BLACK
6
CONTINUOUS
10
0.199551
20
0.712354
11
0.199551
21
0.741882
0
LINE
8
BLACK
6
CONTINUOUS
10
0.199551
20
0.741882
11
0.2003
21
0.745648
0
LINE
8
BLACK
6
CONTINUOUS
10
0.2003
20
0.745648
11
0.202434
21
0.748842
0
LINE
8
BLACK
6
CONTINUOUS
10
0.202434
20
0.748842
11
0.205627
21
0.750975
0
LINE
8
BLACK
6
CONTINUOUS
10
0.205627
20
0.750975
11
0.209394
21
0.751724
0
LINE
8
BLACK
6
CONTINUOUS
10
0.209394
20
0.751724
11
0.258606
21
0.751724
0
LINE
8
BLACK
6
CONTINUOUS
10
0.258606
20
0.751724
11
0.262373
21
0.750975
0
LINE
8
BLACK
6
CONTINUOUS
10
0.362373
20
0.750975
11
0.365566
21
0.748842
0
LINE
8
BLACK
6
CONTINUOUS
10
0.365566
20
0.748842
11
0.3677
21
0.745648
0
LINE
8
BLACK
6
CONTINUOUS
10
0.3677
20
0.745648
11
0.368449
21
0.741882
0
LINE
8
BLACK
6
CONTINUOUS
10
0.368449
20
0.741882
11
0.368449
21
0.712354
0
LINE
8
BLACK
6
CONTINUOUS
10
0.368449
20
0.712354
11
0.3677
21
0.708588
0
LINE
8
BLACK
6
CONTINUOUS
10
0.3677
20
0.708588
11
0.365566
21
0.705395
0
LINE
8
BLACK
6
CONTINUOUS
10
0.365566
20
0.705395
11
0.362373
21
0.703261
0
LINE
8
BLACK
6
CONTINUOUS
10
0.362373
20
0.703261
11
0.358606
21
0.702512
0
LINE
8
BLACK
6
CONTINUOUS
10
0.358606
20
0.702512
11
0.309394
21
0.702512
0
LINE
8
BLACK
6
CONTINUOUS
10
0.309394
20
0.702512
11
0.305627
21
0.703261
0
LINE
8
BLACK
6
CONTINUOUS
10
0.305627
20
0.703261
11
0.302434
21
0.705395
0
LINE
8
BLACK
6
CONTINUOUS
10
0.302434
20
0.705395
11
0.3003
21
0.708588
0
LINE
8
BLACK
6
CONTINUOUS
10
0.3003
20
0.708588
11
0.299551
21
0.712354
0
LINE
8
BLACK
6
CONTINUOUS
10
0.299551
20
0.712354
11
0.299551
21
0.741882
0
LINE
8
BLACK
6
CONTINUOUS
10
0.299551
20
0.741882
11
0.3003
21
0.745648
0
LINE
8
BLACK
6
CONTINUOUS
10
0.3003
20
0.745648
11
0.302434
21
0.748842
0
LINE
8
BLACK
6
CONTINUOUS
10
0.302434
20
0.748842
11
0.305627
21
0.750975
0
LINE
8
BLACK
6
CONTINUOUS
10
0.305627
20
0.750975
11
0.309394
21
0.751724
0
LINE
8
BLACK
6
CONTINUOUS
10
0.309394
20
0.751724
11
0.358606
21
0.751724
0
LINE
8
BLACK
6
CONTINUOUS
10
0.358606
20
0.751724
11
0.362373
21
0.750975
0
LINE
8
BLACK
6
CONTINUOUS
10
1.02114
20
0.703465
11
0.966417
21
0.703465
0
LINE
8
BLACK
6
CONTINUOUS
10
0.966417
20
0.703465
11
0.966417
21
0.758583
0
LINE
8
BLACK
6
CONTINUOUS
10
0.966417
20
0.758583
11
1.02114
21
0.758583
0
LINE
8
BLACK
6
CONTINUOUS
10
1.02114
20
0.758583
11
1.02114
21
0.703465
0
LINE
8
BLACK
6
CONTINUOUS
10
1.09358
20
0.703465
11
1.03886
21
0.703465
0
LINE
8
BLACK
6
CONTINUOUS
10
1.03886
20
0.703465
11
1.03886
21
0.758583
0
LINE
8
BLACK
6
CONTINUOUS
10
1.03886
20
0.758583
11
1.09358
21
0.758583
0
LINE
8
BLACK
6
CONTINUOUS
10
1.09358
20
0.758583
11
1.09358
21
0.703465
0
LINE
8
BLACK
6
CONTINUOUS
10
0.7135
20
0.7175
11
0.6585
21
0.7175
0
LINE
8
BLACK
6
CONTINUOUS
10
0.6585
20
0.7175
11
0.6585
21
0.7525
0
LINE
8
BLACK
6
CONTINUOUS
10
0.6585
20
0.7525
11
0.7135
21
0.7525
0
LINE
8
BLACK
6
CONTINUOUS
10
0.7135
20
0.7525
11
0.7135
21
0.7175
0
LINE
8
BLACK
6
CONTINUOUS
10
1.61698
20
0.79833
11
1.6189
21
0.79705
0
LINE
8
BLACK
6
CONTINUOUS
10
1.6189
20
0.79705
11
1.62018
21
0.795134
0
LINE
8
BLACK
6
CONTINUOUS
10
1.62018
20
0.795134
11
1.62063
21
0.792874
0
LINE
8
BLACK
6
CONTINUOUS
10
1.62063
20
0.792874
11
1.62063
21
0.781063
0
LINE
8
BLACK
6
CONTINUOUS
10
1.62063
20
0.781063
11
1.62018
21
0.778803
0
LINE
8
BLACK
6
CONTINUOUS
10
1.62018
20
0.778803
11
1.6189
21
0.776887
0
LINE
8
BLACK
6
CONTINUOUS
10
1.6189
20
0.776887
11
1.61698
21
0.775607
0
LINE
8
BLACK
6
CONTINUOUS
10
1.61698
20
0.775607
11
1.61472
21
0.775157
0
LINE
8
BLACK
6
CONTINUOUS
10
1.61472
20
0.775157
11
1.55961
21
0.775157
0
LINE
8
BLACK
6
CONTINUOUS
10
1.55961
20
0.775157
11
1.55735
21
0.775607
0
LINE
8
BLACK
6
CONTINUOUS
10
1.55735
20
0.775607
11
1.55543
21
0.776887
0
LINE
8
BLACK
6
CONTINUOUS
10
1.55543
20
0.776887
11
1.55415
21
0.778803
0
LINE
8
BLACK
6
CONTINUOUS
10
1.55415
20
0.778803
11
1.5537
21
0.781063
0
LINE
8
BLACK
6
CONTINUOUS
10
1.5537
20
0.781063
11
1.5537
21
0.792874
0
LINE
8
BLACK
6
CONTINUOUS
10
1.5537
20
0.792874
11
1.55415
21
0.795134
0
LINE
8
BLACK
6
CONTINUOUS
10
1.55415
20
0.795134
11
1.55543
21
0.79705
0
LINE
8
BLACK
6
CONTINUOUS
10
1.55543
20
0.79705
11
1.55735
21
0.79833
0
LINE
8
BLACK
6
CONTINUOUS
10
1.55735
20
0.79833
11
1.55961
21
0.79878
0
LINE
8
BLACK
6
CONTINUOUS
10
1.55961
20
0.79878
11
1.61472
21
0.79878
0
LINE
8
BLACK
6
CONTINUOUS
10
1.61472
20
0.79878
11
1.61698
21
0.79833
0
LINE
8
BLACK
6
CONTINUOUS
10
0.310294
20
0.8477
11
0.313487
21
0.845566
0
LINE
8
BLACK
6
CONTINUOUS
10
0.313487
20
0.845566
11
0.315621
21
0.842373
0
LINE
8
BLACK
6
CONTINUOUS
10
0.315621
20
0.842373
11
0.31637
21
0.838606
0
LINE
8
BLACK
6
CONTINUOUS
10
0.31637
20
0.838606
11
0.31637
21
0.789394
0
LINE
8
BLACK
6
CONTINUOUS
10
0.31637
20
0.789394
11
0.315621
21
0.785627
0
LINE
8
BLACK
6
CONTINUOUS
10
0.315621
20
0.785627
11
0.313487
21
0.782434
0
LINE
8
BLACK
6
CONTINUOUS
10
0.313487
20
0.782434
11
0.310294
21
0.7803
0
LINE
8
BLACK
6
CONTINUOUS
10
0.310294
20
0.7803
11
0.306528
21
0.779551
0
LINE
8
BLACK
6
CONTINUOUS
10
0.306528
20
0.779551
11
0.277
21
0.779551
0
LINE
8
BLACK
6
CONTINUOUS
10
0.277
20
0.779551
11
0.273233
21
0.7803
0
LINE
8
BLACK
6
CONTINUOUS
10
0.273233
20
0.7803
11
0.27004
21
0.782434
0
LINE
8
BLACK
6
CONTINUOUS
10
0.27004
20
0.782434
11
0.267907
21
0.785627
0
LINE
8
BLACK
6
CONTINUOUS
10
0.267907
20
0.785627
11
0.267157
21
0.789394
0
LINE
8
BLACK
6
CONTINUOUS
10
0.267157
20
0.789394
11
0.267157
21
0.838606
0
LINE
8
BLACK
6
CONTINUOUS
10
0.267157
20
0.838606
11
0.267907
21
0.842373
0
LINE
8
BLACK
6
CONTINUOUS
10
0.267907
20
0.842373
11
0.27004
21
0.845566
0
LINE
8
BLACK
6
CONTINUOUS
10
0.27004
20
0.845566
11
0.273233
21
0.8477
0
LINE
8
BLACK
6
CONTINUOUS
10
0.273233
20
0.8477
11
0.277
21
0.848449
0
LINE
8
BLACK
6
CONTINUOUS
10
0.277
20
0.848449
11
0.306528
21
0.848449
0
LINE
8
BLACK
6
CONTINUOUS
10
0.306528
20
0.848449
11
0.310294
21
0.8477
0
LINE
8
BLACK
6
CONTINUOUS
10
0.42053
20
0.8477
11
0.423724
21
0.845566
0
LINE
8
BLACK
6
CONTINUOUS
10
0.423724
20
0.845566
11
0.425857
21
0.842373
0
LINE
8
BLACK
6
CONTINUOUS
10
0.425857
20
0.842373
11
0.426606
21
0.838606
0
LINE
8
BLACK
6
CONTINUOUS
10
0.426606
20
0.838606
11
0.426606
21
0.789394
0
LINE
8
BLACK
6
CONTINUOUS
10
0.426606
20
0.789394
11
0.425857
21
0.785627
0
LINE
8
BLACK
6
CONTINUOUS
10
0.425857
20
0.785627
11
0.423724
21
0.782434
0
LINE
8
BLACK
6
CONTINUOUS
10
0.423724
20
0.782434
11
0.42053
21
0.7803
0
LINE
8
BLACK
6
CONTINUOUS
10
0.42053
20
0.7803
11
0.416764
21
0.779551
0
LINE
8
BLACK
6
CONTINUOUS
10
0.416764
20
0.779551
11
0.387236
21
0.779551
0
LINE
8
BLACK
6
CONTINUOUS
10
0.387236
20
0.779551
11
0.38347
21
0.7803
0
LINE
8
BLACK
6
CONTINUOUS
10
0.38347
20
0.7803
11
0.380276
21
0.782434
0
LINE
8
BLACK
6
CONTINUOUS
10
0.380276
20
0.782434
11
0.378143
21
0.785627
0
LINE
8
BLACK
6
CONTINUOUS
10
0.378143
20
0.785627
11
0.377394
21
0.789394
0
LINE
8
BLACK
6
CONTINUOUS
10
0.377394
20
0.789394
11
0.377394
21
0.838606
0
LINE
8
BLACK
6
CONTINUOUS
10
0.377394
20
0.838606
11
0.378143
21
0.842373
0
LINE
8
BLACK
6
CONTINUOUS
10
0.378143
20
0.842373
11
0.380276
21
0.845566
0
LINE
8
BLACK
6
CONTINUOUS
10
0.380276
20
0.845566
11
0.38347
21
0.8477
0
LINE
8
BLACK
6
CONTINUOUS
10
0.38347
20
0.8477
11
0.387236
21
0.848449
0
LINE
8
BLACK
6
CONTINUOUS
10
0.387236
20
0.848449
11
0.416764
21
0.848449
0
LINE
8
BLACK
6
CONTINUOUS
10
0.416764
20
0.848449
11
0.42053
21
0.8477
0
LINE
8
BLACK
6
CONTINUOUS
10
0.7135
20
0.7925
11
0.6585
21
0.7925
0
LINE
8
BLACK
6
CONTINUOUS
10
0.6585
20
0.7925
11
0.6585
21
0.8275
0
LINE
8
BLACK
6
CONTINUOUS
10
0.6585
20
0.8275
11
0.7135
21
0.8275
0
LINE
8
BLACK
6
CONTINUOUS
10
0.7135
20
0.8275
11
0.7135
21
0.7925
0
LINE
8
BLACK
6
CONTINUOUS
10
1.61698
20
0.847543
11
1.6189
21
0.846262
0
LINE
8
BLACK
6
CONTINUOUS
10
1.6189
20
0.846262
11
1.62018
21
0.844347
0
LINE
8
BLACK
6
CONTINUOUS
10
1.62018
20
0.844347
11
1.62063
21
0.842087
0
LINE
8
BLACK
6
CONTINUOUS
10
1.62063
20
0.842087
11
1.62063
21
0.830276
0
LINE
8
BLACK
6
CONTINUOUS
10
1.62063
20
0.830276
11
1.62018
21
0.828016
0
LINE
8
BLACK
6
CONTINUOUS
10
1.62018
20
0.828016
11
1.6189
21
0.8261
0
LINE
8
BLACK
6
CONTINUOUS
10
1.6189
20
0.8261
11
1.61698
21
0.82482
0
LINE
8
BLACK
6
CONTINUOUS
10
1.61698
20
0.82482
11
1.61472
21
0.82437
0
LINE
8
BLACK
6
CONTINUOUS
10
1.61472
20
0.82437
11
1.55961
21
0.82437
0
LINE
8
BLACK
6
CONTINUOUS
10
1.55961
20
0.82437
11
1.55735
21
0.82482
0
LINE
8
BLACK
6
CONTINUOUS
10
1.55735
20
0.82482
11
1.55543
21
0.8261
0
LINE
8
BLACK
6
CONTINUOUS
10
1.55543
20
0.8261
11
1.55415
21
0.828016
0
LINE
8
BLACK
6
CONTINUOUS
10
1.55415
20
0.828016
11
1.5537
21
0.830276
0
LINE
8
BLACK
6
CONTINUOUS
10
1.5537
20
0.830276
11
1.5537
21
0.842087
0
LINE
8
BLACK
6
CONTINUOUS
10
1.5537
20
0.842087
11
1.55415
21
0.844347
0
LINE
8
BLACK
6
CONTINUOUS
10
1.55415
20
0.844347
11
1.55543
21
0.846262
0
LINE
8
BLACK
6
CONTINUOUS
10
1.55543
20
0.846262
11
1.55735
21
0.847543
0
LINE
8
BLACK
6
CONTINUOUS
10
1.55735
20
0.847543
11
1.55961
21
0.847992
0
LINE
8
BLACK
6
CONTINUOUS
10
1.55961
20
0.847992
11
1.61472
21
0.847992
0
LINE
8
BLACK
6
CONTINUOUS
10
1.61472
20
0.847992
11
1.61698
21
0.847543
0
LINE
8
BLACK
6
CONTINUOUS
10
1.61698
20
0.896755
11
1.6189
21
0.895475
0
LINE
8
BLACK
6
CONTINUOUS
10
1.6189
20
0.895475
11
1.62018
21
0.893559
0
LINE
8
BLACK
6
CONTINUOUS
10
1.62018
20
0.893559
11
1.62063
21
0.891299
0
LINE
8
BLACK
6
CONTINUOUS
10
1.62063
20
0.891299
11
1.62063
21
0.879488
0
LINE
8
BLACK
6
CONTINUOUS
10
1.62063
20
0.879488
11
1.62018
21
0.877228
0
LINE
8
BLACK
6
CONTINUOUS
10
1.62018
20
0.877228
11
1.6189
21
0.875312
0
LINE
8
BLACK
6
CONTINUOUS
10
1.6189
20
0.875312
11
1.61698
21
0.874032
0
LINE
8
BLACK
6
CONTINUOUS
10
1.61698
20
0.874032
11
1.61472
21
0.873583
0
LINE
8
BLACK
6
CONTINUOUS
10
1.61472
20
0.873583
11
1.55961
21
0.873583
0
LINE
8
BLACK
6
CONTINUOUS
10
1.55961
20
0.873583
11
1.55735
21
0.874032
0
LINE
8
BLACK
6
CONTINUOUS
10
1.55735
20
0.874032
11
1.55543
21
0.875312
0
LINE
8
BLACK
6
CONTINUOUS
10
1.55543
20
0.875312
11
1.55415
21
0.877228
0
LINE
8
BLACK
6
CONTINUOUS
10
1.55415
20
0.877228
11
1.5537
21
0.879488
0
LINE
8
BLACK
6
CONTINUOUS
10
1.5537
20
0.879488
11
1.5537
21
0.891299
0
LINE
8
BLACK
6
CONTINUOUS
10
1.5537
20
0.891299
11
1.55415
21
0.893559
0
LINE
8
BLACK
6
CONTINUOUS
10
1.55415
20
0.893559
11
1.55543
21
0.895475
0
LINE
8
BLACK
6
CONTINUOUS
10
1.55543
20
0.895475
11
1.55735
21
0.896755
0
LINE
8
BLACK
6
CONTINUOUS
10
1.55735
20
0.896755
11
1.55961
21
0.897205
0
LINE
8
BLACK
6
CONTINUOUS
10
1.55961
20
0.897205
11
1.61472
21
0.897205
0
LINE
8
BLACK
6
CONTINUOUS
10
1.61472
20
0.897205
11
1.61698
21
0.896755
0
LINE
8
BLACK
6
CONTINUOUS
10
0.751378
20
0.875394
11
0.680512
21
0.875394
0
LINE
8
BLACK
6
CONTINUOUS
10
0.680512
20
0.875394
11
0.680512
21
0.942323
0
LINE
8
BLACK
6
CONTINUOUS
10
0.680512
20
0.942323
11
0.751378
21
0.942323
0
LINE
8
BLACK
6
CONTINUOUS
10
0.751378
20
0.942323
11
0.751378
21
0.875394
0
LINE
8
BLACK
6
CONTINUOUS
10
0.869488
20
0.875394
11
0.798622
21
0.875394
0
LINE
8
BLACK
6
CONTINUOUS
10
0.798622
20
0.875394
11
0.798622
21
0.942323
0
LINE
8
BLACK
6
CONTINUOUS
10
0.798622
20
0.942323
11
0.869488
21
0.942323
0
LINE
8
BLACK
6
CONTINUOUS
10
0.869488
20
0.942323
11
0.869488
21
0.875394
0
LINE
8
BLACK
6
CONTINUOUS
10
1.61698
20
0.945968
11
1.6189
21
0.944688
0
LINE
8
BLACK
6
CONTINUOUS
10
1.6189
20
0.944688
11
1.62018
21
0.942772
0
LINE
8
BLACK
6
CONTINUOUS
10
1.62018
20
0.942772
11
1.62063
21
0.940512
0
LINE
8
BLACK
6
CONTINUOUS
10
1.62063
20
0.940512
11
1.62063
21
0.928701
0
LINE
8
BLACK
6
CONTINUOUS
10
1.62063
20
0.928701
11
1.62018
21
0.926441
0
LINE
8
BLACK
6
CONTINUOUS
10
1.62018
20
0.926441
11
1.6189
21
0.924525
0
LINE
8
BLACK
6
CONTINUOUS
10
1.6189
20
0.924525
11
1.61698
21
0.923245
0
LINE
8
BLACK
6
CONTINUOUS
10
1.61698
20
0.923245
11
1.61472
21
0.922795
0
LINE
8
BLACK
6
CONTINUOUS
10
1.61472
20
0.922795
11
1.55961
21
0.922795
0
LINE
8
BLACK
6
CONTINUOUS
10
1.55961
20
0.922795
11
1.55735
21
0.923245
0
LINE
8
BLACK
6
CONTINUOUS
10
1.55735
20
0.923245
11
1.55543
21
0.924525
0
LINE
8
BLACK
6
CONTINUOUS
10
1.55543
20
0.924525
11
1.55415
21
0.926441
0
LINE
8
BLACK
6
CONTINUOUS
10
1.55415
20
0.926441
11
1.5537
21
0.928701
0
LINE
8
BLACK
6
CONTINUOUS
10
1.5537
20
0.928701
11
1.5537
21
0.940512
0
LINE
8
BLACK
6
CONTINUOUS
10
1.5537
20
0.940512
11
1.55415
21
0.942772
0
LINE
8
BLACK
6
CONTINUOUS
10
1.55415
20
0.942772
11
1.55543
21
0.944688
0
LINE
8
BLACK
6
CONTINUOUS
10
1.55543
20
0.944688
11
1.55735
21
0.945968
0
LINE
8
BLACK
6
CONTINUOUS
10
1.55735
20
0.945968
11
1.55961
21
0.946417
0
LINE
8
BLACK
6
CONTINUOUS
10
1.55961
20
0.946417
11
1.61472
21
0.946417
0
LINE
8
BLACK
6
CONTINUOUS
10
1.61472
20
0.946417
11
1.61698
21
0.945968
0
LINE
8
BLACK
6
CONTINUOUS
10
1.61698
20
0.99518
11
1.6189
21
0.9939
0
LINE
8
BLACK
6
CONTINUOUS
10
1.6189
20
0.9939
11
1.62018
21
0.991984
0
LINE
8
BLACK
6
CONTINUOUS
10
1.62018
20
0.991984
11
1.62063
21
0.989724
0
LINE
8
BLACK
6
CONTINUOUS
10
1.62063
20
0.989724
11
1.62063
21
0.977913
0
LINE
8
BLACK
6
CONTINUOUS
10
1.62063
20
0.977913
11
1.62018
21
0.975653
0
LINE
8
BLACK
6
CONTINUOUS
10
1.62018
20
0.975653
11
1.6189
21
0.973738
0
LINE
8
BLACK
6
CONTINUOUS
10
1.6189
20
0.973738
11
1.61698
21
0.972457
0
LINE
8
BLACK
6
CONTINUOUS
10
1.61698
20
0.972457
11
1.61472
21
0.972008
0
LINE
8
BLACK
6
CONTINUOUS
10
1.61472
20
0.972008
11
1.55961
21
0.972008
0
LINE
8
BLACK
6
CONTINUOUS
10
1.55961
20
0.972008
11
1.55735
21
0.972457
0
LINE
8
BLACK
6
CONTINUOUS
10
1.55735
20
0.972457
11
1.55543
21
0.973738
0
LINE
8
BLACK
6
CONTINUOUS
10
1.55543
20
0.973738
11
1.55415
21
0.975653
0
LINE
8
BLACK
6
CONTINUOUS
10
1.55415
20
0.975653
11
1.5537
21
0.977913
0
LINE
8
BLACK
6
CONTINUOUS
10
1.5537
20
0.977913
11
1.5537
21
0.989724
0
LINE
8
BLACK
6
CONTINUOUS
10
1.5537
20
0.989724
11
1.55415
21
0.991984
0
LINE
8
BLACK
6
CONTINUOUS
10
1.55415
20
0.991984
11
1.55543
21
0.9939
0
LINE
8
BLACK
6
CONTINUOUS
10
1.55543
20
0.9939
11
1.55735
21
0.99518
0
LINE
8
BLACK
6
CONTINUOUS
10
1.55735
20
0.99518
11
1.55961
21
0.99563
0
LINE
8
BLACK
6
CONTINUOUS
10
1.55961
20
0.99563
11
1.61472
21
0.99563
0
LINE
8
BLACK
6
CONTINUOUS
10
1.61472
20
0.99563
11
1.61698
21
0.99518
0
LINE
8
BLACK
6
CONTINUOUS
10
0.68248
20
0.989567
11
0.647047
21
0.989567
0
LINE
8
BLACK
6
CONTINUOUS
10
0.647047
20
0.989567
11
0.647047
21
1.01319
0
LINE
8
BLACK
6
CONTINUOUS
10
0.647047
20
1.01319
11
0.68248
21
1.01319
0
LINE
8
BLACK
6
CONTINUOUS
10
0.68248
20
1.01319
11
0.68248
21
0.989567
0
LINE
8
BLACK
6
CONTINUOUS
10
0.902953
20
0.989567
11
0.86752
21
0.989567
0
LINE
8
BLACK
6
CONTINUOUS
10
0.86752
20
0.989567
11
0.86752
21
1.01319
0
LINE
8
BLACK
6
CONTINUOUS
10
0.86752
20
1.01319
11
0.902953
21
1.01319
0
LINE
8
BLACK
6
CONTINUOUS
10
0.902953
20
1.01319
11
0.902953
21
0.989567
0
LINE
8
BLACK
6
CONTINUOUS
10
1.61698
20
1.04439
11
1.6189
21
1.04311
0
LINE
8
BLACK
6
CONTINUOUS
10
1.6189
20
1.04311
11
1.62018
21
1.0412
0
LINE
8
BLACK
6
CONTINUOUS
10
1.62018
20
1.0412
11
1.62063
21
1.03894
0
LINE
8
BLACK
6
CONTINUOUS
10
1.62063
20
1.03894
11
1.62063
21
1.02713
0
LINE
8
BLACK
6
CONTINUOUS
10
1.62063
20
1.02713
11
1.62018
21
1.02487
0
LINE
8
BLACK
6
CONTINUOUS
10
1.62018
20
1.02487
11
1.6189
21
1.02295
0
LINE
8
BLACK
6
CONTINUOUS
10
1.6189
20
1.02295
11
1.61698
21
1.02167
0
LINE
8
BLACK
6
CONTINUOUS
10
1.61698
20
1.02167
11
1.61472
21
1.02122
0
LINE
8
BLACK
6
CONTINUOUS
10
1.61472
20
1.02122
11
1.55961
21
1.02122
0
LINE
8
BLACK
6
CONTINUOUS
10
1.55961
20
1.02122
11
1.55735
21
1.02167
0
LINE
8
BLACK
6
CONTINUOUS
10
1.55735
20
1.02167
11
1.55543
21
1.02295
0
LINE
8
BLACK
6
CONTINUOUS
10
1.55543
20
1.02295
11
1.55415
21
1.02487
0
LINE
8
BLACK
6
CONTINUOUS
10
1.55415
20
1.02487
11
1.5537
21
1.02713
0
LINE
8
BLACK
6
CONTINUOUS
10
1.5537
20
1.02713
11
1.5537
21
1.03894
0
LINE
8
BLACK
6
CONTINUOUS
10
1.5537
20
1.03894
11
1.55415
21
1.0412
0
LINE
8
BLACK
6
CONTINUOUS
10
1.55415
20
1.0412
11
1.55543
21
1.04311
0
LINE
8
BLACK
6
CONTINUOUS
10
1.55543
20
1.04311
11
1.55735
21
1.04439
0
LINE
8
BLACK
6
CONTINUOUS
10
1.55735
20
1.04439
11
1.55961
21
1.04484
0
LINE
8
BLACK
6
CONTINUOUS
10
1.55961
20
1.04484
11
1.61472
21
1.04484
0
LINE
8
BLACK
6
CONTINUOUS
10
1.61472
20
1.04484
11
1.61698
21
1.04439
0
LINE
8
BLACK
6
CONTINUOUS
10
0.847835
20
1.06831
11
0.82815
21
1.06831
0
LINE
8
BLACK
6
CONTINUOUS
10
0.82815
20
1.06831
11
0.82815
21
1.1313
0
LINE
8
BLACK
6
CONTINUOUS
10
0.82815
20
1.1313
11
0.847835
21
1.1313
0
LINE
8
BLACK
6
CONTINUOUS
10
0.847835
20
1.1313
11
0.847835
21
1.06831
0
LINE
8
BLACK
6
CONTINUOUS
10
0.784843
20
1.06831
11
0.765157
21
1.06831
0
LINE
8
BLACK
6
CONTINUOUS
10
0.765157
20
1.06831
11
0.765157
21
1.1313
0
LINE
8
BLACK
6
CONTINUOUS
10
0.765157
20
1.1313
11
0.784843
21
1.1313
0
LINE
8
BLACK
6
CONTINUOUS
10
0.784843
20
1.1313
11
0.784843
21
1.06831
0
LINE
8
BLACK
6
CONTINUOUS
10
0.72185
20
1.06831
11
0.702165
21
1.06831
0
LINE
8
BLACK
6
CONTINUOUS
10
0.702165
20
1.06831
11
0.702165
21
1.1313
0
LINE
8
BLACK
6
CONTINUOUS
10
0.702165
20
1.1313
11
0.72185
21
1.1313
0
LINE
8
BLACK
6
CONTINUOUS
10
0.72185
20
1.1313
11
0.72185
21
1.06831
0
LINE
8
BLACK
6
CONTINUOUS
10
0.61
20
1.07585
11
0.575
21
1.07585
0
LINE
8
BLACK
6
CONTINUOUS
10
0.575
20
1.07585
11
0.575
21
1.13085
0
LINE
8
BLACK
6
CONTINUOUS
10
0.575
20
1.13085
11
0.61
21
1.13085
0
LINE
8
BLACK
6
CONTINUOUS
10
0.61
20
1.13085
11
0.61
21
1.07585
0
LINE
8
BLACK
6
CONTINUOUS
10
0.535
20
1.07585
11
0.5
21
1.07585
0
LINE
8
BLACK
6
CONTINUOUS
10
0.5
20
1.07585
11
0.5
21
1.13085
0
LINE
8
BLACK
6
CONTINUOUS
10
0.5
20
1.13085
11
0.535
21
1.13085
0
LINE
8
BLACK
6
CONTINUOUS
10
0.535
20
1.13085
11
0.535
21
1.07585
0
LINE
8
BLACK
6
CONTINUOUS
10
1.1325
20
1.08085
11
1.0975
21
1.08085
0
LINE
8
BLACK
6
CONTINUOUS
10
1.0975
20
1.08085
11
1.0975
21
1.13585
0
LINE
8
BLACK
6
CONTINUOUS
10
1.0975
20
1.13585
11
1.1325
21
1.13585
0
LINE
8
BLACK
6
CONTINUOUS
10
1.1325
20
1.13585
11
1.1325
21
1.08085
0
LINE
8
BLACK
6
CONTINUOUS
10
1.2075
20
1.08085
11
1.1725
21
1.08085
0
LINE
8
BLACK
6
CONTINUOUS
10
1.1725
20
1.08085
11
1.1725
21
1.13585
0
LINE
8
BLACK
6
CONTINUOUS
10
1.1725
20
1.13585
11
1.2075
21
1.13585
0
LINE
8
BLACK
6
CONTINUOUS
10
1.2075
20
1.13585
11
1.2075
21
1.08085
0
LINE
8
BLACK
6
CONTINUOUS
10
0.98
20
1.08085
11
0.945
21
1.08085
0
LINE
8
BLACK
6
CONTINUOUS
10
0.945
20
1.08085
11
0.945
21
1.13585
0
LINE
8
BLACK
6
CONTINUOUS
10
0.945
20
1.13585
11
0.98
21
1.13585
0
LINE
8
BLACK
6
CONTINUOUS
10
0.98
20
1.13585
11
0.98
21
1.08085
0
LINE
8
BLACK
6
CONTINUOUS
10
1.055
20
1.08085
11
1.02
21
1.08085
0
LINE
8
BLACK
6
CONTINUOUS
10
1.02
20
1.08085
11
1.02
21
1.13585
0
LINE
8
BLACK
6
CONTINUOUS
10
1.02
20
1.13585
11
1.055
21
1.13585
0
LINE
8
BLACK
6
CONTINUOUS
10
1.055
20
1.13585
11
1.055
21
1.08085
0
LINE
8
BLACK
6
CONTINUOUS
10
1.76022
20
1.1248
11
1.76342
21
1.12267
0
LINE
8
BLACK
6
CONTINUOUS
10
1.76342
20
1.12267
11
1.76555
21
1.11948
0
LINE
8
BLACK
6
CONTINUOUS
10
1.76555
20
1.11948
11
1.7663
21
1.11571
0
LINE
8
BLACK
6
CONTINUOUS
10
1.7663
20
1.11571
11
1.7663
21
1.09602
0
LINE
8
BLACK
6
CONTINUOUS
10
1.7663
20
1.09602
11
1.76555
21
1.09226
0
LINE
8
BLACK
6
CONTINUOUS
10
1.76555
20
1.09226
11
1.76342
21
1.08906
0
LINE
8
BLACK
6
CONTINUOUS
10
1.76342
20
1.08906
11
1.76022
21
1.08693
0
LINE
8
BLACK
6
CONTINUOUS
10
1.76022
20
1.08693
11
1.75646
21
1.08618
0
LINE
8
BLACK
6
CONTINUOUS
10
1.75646
20
1.08618
11
1.66984
21
1.08618
0
LINE
8
BLACK
6
CONTINUOUS
10
1.66984
20
1.08618
11
1.66608
21
1.08693
0
LINE
8
BLACK
6
CONTINUOUS
10
1.66608
20
1.08693
11
1.66288
21
1.08906
0
LINE
8
BLACK
6
CONTINUOUS
10
1.66288
20
1.08906
11
1.66075
21
1.09226
0
LINE
8
BLACK
6
CONTINUOUS
10
1.66075
20
1.09226
11
1.66
21
1.09602
0
LINE
8
BLACK
6
CONTINUOUS
10
1.66
20
1.09602
11
1.66
21
1.11571
0
LINE
8
BLACK
6
CONTINUOUS
10
1.66
20
1.11571
11
1.66075
21
1.11948
0
LINE
8
BLACK
6
CONTINUOUS
10
1.66075
20
1.11948
11
1.66288
21
1.12267
0
LINE
8
BLACK
6
CONTINUOUS
10
1.66288
20
1.12267
11
1.66608
21
1.1248
0
LINE
8
BLACK
6
CONTINUOUS
10
1.66608
20
1.1248
11
1.66984
21
1.12555
0
LINE
8
BLACK
6
CONTINUOUS
10
1.66984
20
1.12555
11
1.75646
21
1.12555
0
LINE
8
BLACK
6
CONTINUOUS
10
1.75646
20
1.12555
11
1.76022
21
1.1248
  0
ENDSEC
  0
EOF
