  0
SECTION
  2
HEADER
  9
$ANGBASE
  50
0.0
  9
$ANGDIR
  70
1
  9
$MEASUREMENT
  70
0
  0
ENDSEC
  0
SECTION
  2
TABLES
  0
TABLE
  2
LTYPE
  70
4
  0
LTYPE
  5
40F
  2
CONTINUOUS
  70
0
  3
Solid line
  72
65
  73
0
  40
0.0
  0
LTYPE
  5
410
  2
DASHDOT
 70
0
  3
Dash Dot ____ _ ____ _
 72
65
 73
4
 40
2.0
 49
1.25
 49
-0.25
 49
0.25
 49
-0.25
  0
LTYPE
  5
411
  2
DASHED
 70
0
  3
Dashed __ __ __ __ __
 72
65
 73
2
 40
0.75
 49
0.5
 49
-0.25
  0
LTYPE
  5
43B
  2
DOTTED
 70
0
  3
Dotted .  .  .  .
 72
65
 73
2
 40
0.2
 49
0.0
 49
-0.2
  0
ENDTAB
  0
TABLE
  2
STYLE
  70
4
  0
STYLE
  2
KICAD
  70
0
  40
0
  41
1
  42
1
  50
0
  71
0
  3
isocp.shx
  0
STYLE
  2
KICADB
  70
0
  40
0
  41
1
  42
1
  50
0
  71
0
  3
isocp.shx
  0
STYLE
  2
KICADI
  70
0
  40
0
  41
1
  42
1
  50
15
  71
0
  3
isocp.shx
  0
STYLE
  2
KICADBI
  70
0
  40
0
  41
1
  42
1
  50
15
  71
0
  3
isocp.shx
  0
ENDTAB
  0
TABLE
  2
LAYER
  70
1
  0
LAYER
  2
BLACK
  70
0
  62
7
  6
CONTINUOUS
  0
ENDTAB
  0
ENDSEC
  0
SECTION
  2
ENTITIES
0
LINE
8
BLACK
6
CONTINUOUS
10
0.362258
20
0.281458
11
0.362949
21
0.27956
0
LINE
8
BLACK
6
CONTINUOUS
10
0.362949
20
0.27956
11
0.362949
21
0.264191
0
LINE
8
BLACK
6
CONTINUOUS
10
0.362949
20
0.264191
11
0.380405
21
0.281648
0
LINE
8
BLACK
6
CONTINUOUS
10
0.380405
20
0.281648
11
0.381245
21
0.282236
0
LINE
8
BLACK
6
CONTINUOUS
10
0.381245
20
0.282236
11
0.383257
21
0.282412
0
LINE
8
BLACK
6
CONTINUOUS
10
0.383257
20
0.282412
11
0.384912
21
0.281253
0
LINE
8
BLACK
6
CONTINUOUS
10
0.384912
20
0.281253
11
0.385435
21
0.279302
0
LINE
8
BLACK
6
CONTINUOUS
10
0.385435
20
0.279302
11
0.384581
21
0.277472
0
LINE
8
BLACK
6
CONTINUOUS
10
0.384581
20
0.277472
11
0.369519
21
0.26241
0
LINE
8
BLACK
6
CONTINUOUS
10
0.369519
20
0.26241
11
0.384855
21
0.241961
0
LINE
8
BLACK
6
CONTINUOUS
10
0.384855
20
0.241961
11
0.385319
21
0.241047
0
LINE
8
BLACK
6
CONTINUOUS
10
0.385319
20
0.241047
11
0.385208
21
0.23903
0
LINE
8
BLACK
6
CONTINUOUS
10
0.385208
20
0.23903
11
0.383828
21
0.237556
0
LINE
8
BLACK
6
CONTINUOUS
10
0.383828
20
0.237556
11
0.381822
21
0.237314
0
LINE
8
BLACK
6
CONTINUOUS
10
0.381822
20
0.237314
11
0.380131
21
0.238418
0
LINE
8
BLACK
6
CONTINUOUS
10
0.380131
20
0.238418
11
0.365301
21
0.258192
0
LINE
8
BLACK
6
CONTINUOUS
10
0.365301
20
0.258192
11
0.362949
21
0.25584
0
LINE
8
BLACK
6
CONTINUOUS
10
0.362949
20
0.25584
11
0.362949
21
0.24019
0
LINE
8
BLACK
6
CONTINUOUS
10
0.362949
20
0.24019
11
0.362771
21
0.23918
0
LINE
8
BLACK
6
CONTINUOUS
10
0.362771
20
0.23918
11
0.361472
21
0.237633
0
LINE
8
BLACK
6
CONTINUOUS
10
0.361472
20
0.237633
11
0.359483
21
0.237282
0
LINE
8
BLACK
6
CONTINUOUS
10
0.359483
20
0.237282
11
0.357734
21
0.238292
0
LINE
8
BLACK
6
CONTINUOUS
10
0.357734
20
0.238292
11
0.357043
21
0.24019
0
LINE
8
BLACK
6
CONTINUOUS
10
0.357043
20
0.24019
11
0.357043
21
0.27956
0
LINE
8
BLACK
6
CONTINUOUS
10
0.357043
20
0.27956
11
0.357221
21
0.28057
0
LINE
8
BLACK
6
CONTINUOUS
10
0.357221
20
0.28057
11
0.358519
21
0.282117
0
LINE
8
BLACK
6
CONTINUOUS
10
0.358519
20
0.282117
11
0.360509
21
0.282468
0
LINE
8
BLACK
6
CONTINUOUS
10
0.360509
20
0.282468
11
0.362258
21
0.281458
0
LINE
8
BLACK
6
CONTINUOUS
10
0.365551
20
1.06102
11
0.365551
21
0.67126
0
LINE
8
BLACK
6
CONTINUOUS
10
0.365551
20
0.67126
11
0.364975
21
0.669868
0
LINE
8
BLACK
6
CONTINUOUS
10
0.364975
20
0.669868
11
0.363583
21
0.669291
0
LINE
8
BLACK
6
CONTINUOUS
10
0.363583
20
0.669291
11
0.172638
21
0.669291
0
LINE
8
BLACK
6
CONTINUOUS
10
0.172638
20
0.669291
11
0.172638
21
0.643701
0
LINE
8
BLACK
6
CONTINUOUS
10
0.172638
20
0.643701
11
0.171934
21
0.636105
0
LINE
8
BLACK
6
CONTINUOUS
10
0.171934
20
0.636105
11
0.169846
21
0.628768
0
LINE
8
BLACK
6
CONTINUOUS
10
0.169846
20
0.628768
11
0.166446
21
0.621939
0
LINE
8
BLACK
6
CONTINUOUS
10
0.166446
20
0.621939
11
0.161849
21
0.615851
0
LINE
8
BLACK
6
CONTINUOUS
10
0.161849
20
0.615851
11
0.156211
21
0.610712
0
LINE
8
BLACK
6
CONTINUOUS
10
0.156211
20
0.610712
11
0.149725
21
0.606696
0
LINE
8
BLACK
6
CONTINUOUS
10
0.149725
20
0.606696
11
0.142612
21
0.60394
0
LINE
8
BLACK
6
CONTINUOUS
10
0.142612
20
0.60394
11
0.135113
21
0.602539
0
LINE
8
BLACK
6
CONTINUOUS
10
0.135113
20
0.602539
11
0.127485
21
0.602539
0
LINE
8
BLACK
6
CONTINUOUS
10
0.127485
20
0.602539
11
0.119986
21
0.60394
0
LINE
8
BLACK
6
CONTINUOUS
10
0.119986
20
0.60394
11
0.112873
21
0.606696
0
LINE
8
BLACK
6
CONTINUOUS
10
0.112873
20
0.606696
11
0.106387
21
0.610712
0
LINE
8
BLACK
6
CONTINUOUS
10
0.106387
20
0.610712
11
0.10075
21
0.615851
0
LINE
8
BLACK
6
CONTINUOUS
10
0.10075
20
0.615851
11
0.0961524
21
0.621939
0
LINE
8
BLACK
6
CONTINUOUS
10
0.0961524
20
0.621939
11
0.0927521
21
0.628768
0
LINE
8
BLACK
6
CONTINUOUS
10
0.0927521
20
0.628768
11
0.0906645
21
0.636105
0
LINE
8
BLACK
6
CONTINUOUS
10
0.0906645
20
0.636105
11
0.0899606
21
0.643701
0
LINE
8
BLACK
6
CONTINUOUS
10
0.0899606
20
0.643701
11
0.0899606
21
0.669291
0
LINE
8
BLACK
6
CONTINUOUS
10
0.0899606
20
0.669291
11
0.00925197
21
0.669291
0
LINE
8
BLACK
6
CONTINUOUS
10
0.00925197
20
0.669291
11
0.00786004
21
0.669868
0
LINE
8
BLACK
6
CONTINUOUS
10
0.00786004
20
0.669868
11
0.00728346
21
0.67126
0
LINE
8
BLACK
6
CONTINUOUS
10
0.00728346
20
0.67126
11
0.00728346
21
1.06102
0
LINE
8
BLACK
6
CONTINUOUS
10
0.00728346
20
1.06102
11
0.00786004
21
1.06242
0
LINE
8
BLACK
6
CONTINUOUS
10
0.00786004
20
1.06242
11
0.00925197
21
1.06299
0
LINE
8
BLACK
6
CONTINUOUS
10
0.00925197
20
1.06299
11
0.0899606
21
1.06299
0
LINE
8
BLACK
6
CONTINUOUS
10
0.0899606
20
1.06299
11
0.0899606
21
1.08858
0
LINE
8
BLACK
6
CONTINUOUS
10
0.0899606
20
1.08858
11
0.0906645
21
1.09618
0
LINE
8
BLACK
6
CONTINUOUS
10
0.0906645
20
1.09618
11
0.0927521
21
1.10352
0
LINE
8
BLACK
6
CONTINUOUS
10
0.0927521
20
1.10352
11
0.0961524
21
1.11034
0
LINE
8
BLACK
6
CONTINUOUS
10
0.0961524
20
1.11034
11
0.10075
21
1.11643
0
LINE
8
BLACK
6
CONTINUOUS
10
0.10075
20
1.11643
11
0.106387
21
1.12157
0
LINE
8
BLACK
6
CONTINUOUS
10
0.106387
20
1.12157
11
0.112873
21
1.12559
0
LINE
8
BLACK
6
CONTINUOUS
10
0.112873
20
1.12559
11
0.119986
21
1.12834
0
LINE
8
BLACK
6
CONTINUOUS
10
0.119986
20
1.12834
11
0.127485
21
1.12974
0
LINE
8
BLACK
6
CONTINUOUS
10
0.127485
20
1.12974
11
0.135113
21
1.12974
0
LINE
8
BLACK
6
CONTINUOUS
10
0.135113
20
1.12974
11
0.142612
21
1.12834
0
LINE
8
BLACK
6
CONTINUOUS
10
0.142612
20
1.12834
11
0.149725
21
1.12559
0
LINE
8
BLACK
6
CONTINUOUS
10
0.149725
20
1.12559
11
0.156211
21
1.12157
0
LINE
8
BLACK
6
CONTINUOUS
10
0.156211
20
1.12157
11
0.161849
21
1.11643
0
LINE
8
BLACK
6
CONTINUOUS
10
0.161849
20
1.11643
11
0.166446
21
1.11034
0
LINE
8
BLACK
6
CONTINUOUS
10
0.166446
20
1.11034
11
0.169846
21
1.10352
0
LINE
8
BLACK
6
CONTINUOUS
10
0.169846
20
1.10352
11
0.171934
21
1.09618
0
LINE
8
BLACK
6
CONTINUOUS
10
0.171934
20
1.09618
11
0.172638
21
1.08858
0
LINE
8
BLACK
6
CONTINUOUS
10
0.172638
20
1.08858
11
0.172638
21
1.06299
0
LINE
8
BLACK
6
CONTINUOUS
10
0.172638
20
1.06299
11
0.363583
21
1.06299
0
LINE
8
BLACK
6
CONTINUOUS
10
0.363583
20
1.06299
11
0.364975
21
1.06242
0
LINE
8
BLACK
6
CONTINUOUS
10
0.364975
20
1.06242
11
0.365551
21
1.06102
0
LINE
8
BLACK
6
CONTINUOUS
10
0.0112205
20
0.673228
11
0.0919291
21
0.673228
0
LINE
8
BLACK
6
CONTINUOUS
10
0.0919291
20
0.673228
11
0.0933211
21
0.672652
0
LINE
8
BLACK
6
CONTINUOUS
10
0.0933211
20
0.672652
11
0.0938976
21
0.67126
0
LINE
8
BLACK
6
CONTINUOUS
10
0.0938976
20
0.67126
11
0.0938976
21
0.643701
0
LINE
8
BLACK
6
CONTINUOUS
10
0.0938976
20
0.643701
11
0.0937514
21
0.643348
0
LINE
8
BLACK
6
CONTINUOUS
10
0.0937514
20
0.643348
11
0.0944388
21
0.636369
0
LINE
8
BLACK
6
CONTINUOUS
10
0.0944388
20
0.636369
11
0.0965774
21
0.629319
0
LINE
8
BLACK
6
CONTINUOUS
10
0.0965774
20
0.629319
11
0.10005
21
0.622821
0
LINE
8
BLACK
6
CONTINUOUS
10
0.10005
20
0.622821
11
0.104724
21
0.617126
0
LINE
8
BLACK
6
CONTINUOUS
10
0.104724
20
0.617126
11
0.110419
21
0.612452
0
LINE
8
BLACK
6
CONTINUOUS
10
0.110419
20
0.612452
11
0.116917
21
0.608979
0
LINE
8
BLACK
6
CONTINUOUS
10
0.116917
20
0.608979
11
0.123967
21
0.60684
0
LINE
8
BLACK
6
CONTINUOUS
10
0.123967
20
0.60684
11
0.131299
21
0.606118
0
LINE
8
BLACK
6
CONTINUOUS
10
0.131299
20
0.606118
11
0.138631
21
0.60684
0
LINE
8
BLACK
6
CONTINUOUS
10
0.138631
20
0.60684
11
0.145681
21
0.608979
0
LINE
8
BLACK
6
CONTINUOUS
10
0.145681
20
0.608979
11
0.152179
21
0.612452
0
LINE
8
BLACK
6
CONTINUOUS
10
0.152179
20
0.612452
11
0.157874
21
0.617126
0
LINE
8
BLACK
6
CONTINUOUS
10
0.157874
20
0.617126
11
0.162548
21
0.622821
0
LINE
8
BLACK
6
CONTINUOUS
10
0.162548
20
0.622821
11
0.166021
21
0.629319
0
LINE
8
BLACK
6
CONTINUOUS
10
0.166021
20
0.629319
11
0.16816
21
0.636369
0
LINE
8
BLACK
6
CONTINUOUS
10
0.16816
20
0.636369
11
0.168847
21
0.643348
0
LINE
8
BLACK
6
CONTINUOUS
10
0.168847
20
0.643348
11
0.168701
21
0.643701
0
LINE
8
BLACK
6
CONTINUOUS
10
0.168701
20
0.643701
11
0.168701
21
0.67126
0
LINE
8
BLACK
6
CONTINUOUS
10
0.168701
20
0.67126
11
0.169277
21
0.672652
0
LINE
8
BLACK
6
CONTINUOUS
10
0.169277
20
0.672652
11
0.170669
21
0.673228
0
LINE
8
BLACK
6
CONTINUOUS
10
0.170669
20
0.673228
11
0.361614
21
0.673228
0
LINE
8
BLACK
6
CONTINUOUS
10
0.361614
20
0.673228
11
0.361614
21
1.05906
0
LINE
8
BLACK
6
CONTINUOUS
10
0.361614
20
1.05906
11
0.170669
21
1.05906
0
LINE
8
BLACK
6
CONTINUOUS
10
0.170669
20
1.05906
11
0.169277
21
1.05963
0
LINE
8
BLACK
6
CONTINUOUS
10
0.169277
20
1.05963
11
0.168701
21
1.06102
0
LINE
8
BLACK
6
CONTINUOUS
10
0.168701
20
1.06102
11
0.168701
21
1.08858
0
LINE
8
BLACK
6
CONTINUOUS
10
0.168701
20
1.08858
11
0.168847
21
1.08894
0
LINE
8
BLACK
6
CONTINUOUS
10
0.168847
20
1.08894
11
0.16816
21
1.09591
0
LINE
8
BLACK
6
CONTINUOUS
10
0.16816
20
1.09591
11
0.166021
21
1.10296
0
LINE
8
BLACK
6
CONTINUOUS
10
0.166021
20
1.10296
11
0.162548
21
1.10946
0
LINE
8
BLACK
6
CONTINUOUS
10
0.162548
20
1.10946
11
0.157874
21
1.11516
0
LINE
8
BLACK
6
CONTINUOUS
10
0.157874
20
1.11516
11
0.152179
21
1.11983
0
LINE
8
BLACK
6
CONTINUOUS
10
0.152179
20
1.11983
11
0.145681
21
1.1233
0
LINE
8
BLACK
6
CONTINUOUS
10
0.145681
20
1.1233
11
0.138631
21
1.12544
0
LINE
8
BLACK
6
CONTINUOUS
10
0.138631
20
1.12544
11
0.131299
21
1.12617
0
LINE
8
BLACK
6
CONTINUOUS
10
0.131299
20
1.12617
11
0.123967
21
1.12544
0
LINE
8
BLACK
6
CONTINUOUS
10
0.123967
20
1.12544
11
0.116917
21
1.1233
0
LINE
8
BLACK
6
CONTINUOUS
10
0.116917
20
1.1233
11
0.110419
21
1.11983
0
LINE
8
BLACK
6
CONTINUOUS
10
0.110419
20
1.11983
11
0.104724
21
1.11516
0
LINE
8
BLACK
6
CONTINUOUS
10
0.104724
20
1.11516
11
0.10005
21
1.10946
0
LINE
8
BLACK
6
CONTINUOUS
10
0.10005
20
1.10946
11
0.0965774
21
1.10296
0
LINE
8
BLACK
6
CONTINUOUS
10
0.0965774
20
1.10296
11
0.0944388
21
1.09591
0
LINE
8
BLACK
6
CONTINUOUS
10
0.0944388
20
1.09591
11
0.0937514
21
1.08894
0
LINE
8
BLACK
6
CONTINUOUS
10
0.0937514
20
1.08894
11
0.0938976
21
1.08858
0
LINE
8
BLACK
6
CONTINUOUS
10
0.0938976
20
1.08858
11
0.0938976
21
1.06102
0
LINE
8
BLACK
6
CONTINUOUS
10
0.0938976
20
1.06102
11
0.0933211
21
1.05963
0
LINE
8
BLACK
6
CONTINUOUS
10
0.0933211
20
1.05963
11
0.0919291
21
1.05906
0
LINE
8
BLACK
6
CONTINUOUS
10
0.0919291
20
1.05906
11
0.0112205
21
1.05906
0
LINE
8
BLACK
6
CONTINUOUS
10
0.0112205
20
1.05906
11
0.0112205
21
0.673228
0
LINE
8
BLACK
6
CONTINUOUS
10
1.51969
20
1.06102
11
1.51969
21
1.04213
0
LINE
8
BLACK
6
CONTINUOUS
10
1.51969
20
1.04213
11
1.75394
21
1.04213
0
LINE
8
BLACK
6
CONTINUOUS
10
1.75394
20
1.04213
11
1.75533
21
1.04155
0
LINE
8
BLACK
6
CONTINUOUS
10
1.75533
20
1.04155
11
1.75591
21
1.04016
0
LINE
8
BLACK
6
CONTINUOUS
10
1.75591
20
1.04016
11
1.75591
21
0.692126
0
LINE
8
BLACK
6
CONTINUOUS
10
1.75591
20
0.692126
11
1.75533
21
0.690734
0
LINE
8
BLACK
6
CONTINUOUS
10
1.75533
20
0.690734
11
1.75394
21
0.690157
0
LINE
8
BLACK
6
CONTINUOUS
10
1.75394
20
0.690157
11
1.51969
21
0.690157
0
LINE
8
BLACK
6
CONTINUOUS
10
1.51969
20
0.690157
11
1.51969
21
0.67126
0
LINE
8
BLACK
6
CONTINUOUS
10
1.51969
20
0.67126
11
1.51911
21
0.669868
0
LINE
8
BLACK
6
CONTINUOUS
10
1.51911
20
0.669868
11
1.51772
21
0.669291
0
LINE
8
BLACK
6
CONTINUOUS
10
1.51772
20
0.669291
11
1.43898
21
0.669291
0
LINE
8
BLACK
6
CONTINUOUS
10
1.43898
20
0.669291
11
1.43898
21
0.643701
0
LINE
8
BLACK
6
CONTINUOUS
10
1.43898
20
0.643701
11
1.43827
21
0.636105
0
LINE
8
BLACK
6
CONTINUOUS
10
1.43827
20
0.636105
11
1.43618
21
0.628768
0
LINE
8
BLACK
6
CONTINUOUS
10
1.43618
20
0.628768
11
1.43278
21
0.621939
0
LINE
8
BLACK
6
CONTINUOUS
10
1.43278
20
0.621939
11
1.42819
21
0.615851
0
LINE
8
BLACK
6
CONTINUOUS
10
1.42819
20
0.615851
11
1.42255
21
0.610712
0
LINE
8
BLACK
6
CONTINUOUS
10
1.42255
20
0.610712
11
1.41606
21
0.606696
0
LINE
8
BLACK
6
CONTINUOUS
10
1.41606
20
0.606696
11
1.40895
21
0.60394
0
LINE
8
BLACK
6
CONTINUOUS
10
1.40895
20
0.60394
11
1.40145
21
0.602539
0
LINE
8
BLACK
6
CONTINUOUS
10
1.40145
20
0.602539
11
1.39382
21
0.602539
0
LINE
8
BLACK
6
CONTINUOUS
10
1.39382
20
0.602539
11
1.38632
21
0.60394
0
LINE
8
BLACK
6
CONTINUOUS
10
1.38632
20
0.60394
11
1.37921
21
0.606696
0
LINE
8
BLACK
6
CONTINUOUS
10
1.37921
20
0.606696
11
1.37273
21
0.610712
0
LINE
8
BLACK
6
CONTINUOUS
10
1.37273
20
0.610712
11
1.36709
21
0.615851
0
LINE
8
BLACK
6
CONTINUOUS
10
1.36709
20
0.615851
11
1.36249
21
0.621939
0
LINE
8
BLACK
6
CONTINUOUS
10
1.36249
20
0.621939
11
1.35909
21
0.628768
0
LINE
8
BLACK
6
CONTINUOUS
10
1.35909
20
0.628768
11
1.357
21
0.636105
0
LINE
8
BLACK
6
CONTINUOUS
10
1.357
20
0.636105
11
1.3563
21
0.643701
0
LINE
8
BLACK
6
CONTINUOUS
10
1.3563
20
0.643701
11
1.3563
21
1.08858
0
LINE
8
BLACK
6
CONTINUOUS
10
1.3563
20
1.08858
11
1.357
21
1.09618
0
LINE
8
BLACK
6
CONTINUOUS
10
1.357
20
1.09618
11
1.35909
21
1.10352
0
LINE
8
BLACK
6
CONTINUOUS
10
1.35909
20
1.10352
11
1.36249
21
1.11034
0
LINE
8
BLACK
6
CONTINUOUS
10
1.36249
20
1.11034
11
1.36709
21
1.11643
0
LINE
8
BLACK
6
CONTINUOUS
10
1.36709
20
1.11643
11
1.37273
21
1.12157
0
LINE
8
BLACK
6
CONTINUOUS
10
1.37273
20
1.12157
11
1.37921
21
1.12559
0
LINE
8
BLACK
6
CONTINUOUS
10
1.37921
20
1.12559
11
1.38632
21
1.12834
0
LINE
8
BLACK
6
CONTINUOUS
10
1.38632
20
1.12834
11
1.39382
21
1.12974
0
LINE
8
BLACK
6
CONTINUOUS
10
1.39382
20
1.12974
11
1.40145
21
1.12974
0
LINE
8
BLACK
6
CONTINUOUS
10
1.40145
20
1.12974
11
1.40895
21
1.12834
0
LINE
8
BLACK
6
CONTINUOUS
10
1.40895
20
1.12834
11
1.41606
21
1.12559
0
LINE
8
BLACK
6
CONTINUOUS
10
1.41606
20
1.12559
11
1.42255
21
1.12157
0
LINE
8
BLACK
6
CONTINUOUS
10
1.42255
20
1.12157
11
1.42819
21
1.11643
0
LINE
8
BLACK
6
CONTINUOUS
10
1.42819
20
1.11643
11
1.43278
21
1.11034
0
LINE
8
BLACK
6
CONTINUOUS
10
1.43278
20
1.11034
11
1.43618
21
1.10352
0
LINE
8
BLACK
6
CONTINUOUS
10
1.43618
20
1.10352
11
1.43827
21
1.09618
0
LINE
8
BLACK
6
CONTINUOUS
10
1.43827
20
1.09618
11
1.43898
21
1.08858
0
LINE
8
BLACK
6
CONTINUOUS
10
1.43898
20
1.08858
11
1.43898
21
1.06299
0
LINE
8
BLACK
6
CONTINUOUS
10
1.43898
20
1.06299
11
1.51772
21
1.06299
0
LINE
8
BLACK
6
CONTINUOUS
10
1.51772
20
1.06299
11
1.51911
21
1.06242
0
LINE
8
BLACK
6
CONTINUOUS
10
1.51911
20
1.06242
11
1.51969
21
1.06102
0
LINE
8
BLACK
6
CONTINUOUS
10
1.39031
20
1.12544
11
1.38326
21
1.1233
0
LINE
8
BLACK
6
CONTINUOUS
10
1.38326
20
1.1233
11
1.37676
21
1.11983
0
LINE
8
BLACK
6
CONTINUOUS
10
1.37676
20
1.11983
11
1.37106
21
1.11516
0
LINE
8
BLACK
6
CONTINUOUS
10
1.37106
20
1.11516
11
1.36639
21
1.10946
0
LINE
8
BLACK
6
CONTINUOUS
10
1.36639
20
1.10946
11
1.36292
21
1.10296
0
LINE
8
BLACK
6
CONTINUOUS
10
1.36292
20
1.10296
11
1.36078
21
1.09591
0
LINE
8
BLACK
6
CONTINUOUS
10
1.36078
20
1.09591
11
1.36009
21
1.08894
0
LINE
8
BLACK
6
CONTINUOUS
10
1.36009
20
1.08894
11
1.36024
21
1.08858
0
LINE
8
BLACK
6
CONTINUOUS
10
1.36024
20
1.08858
11
1.36024
21
0.643701
0
LINE
8
BLACK
6
CONTINUOUS
10
1.36024
20
0.643701
11
1.36009
21
0.643348
0
LINE
8
BLACK
6
CONTINUOUS
10
1.36009
20
0.643348
11
1.36078
21
0.636369
0
LINE
8
BLACK
6
CONTINUOUS
10
1.36078
20
0.636369
11
1.36292
21
0.629319
0
LINE
8
BLACK
6
CONTINUOUS
10
1.36292
20
0.629319
11
1.36639
21
0.622821
0
LINE
8
BLACK
6
CONTINUOUS
10
1.36639
20
0.622821
11
1.37106
21
0.617126
0
LINE
8
BLACK
6
CONTINUOUS
10
1.37106
20
0.617126
11
1.37676
21
0.612452
0
LINE
8
BLACK
6
CONTINUOUS
10
1.37676
20
0.612452
11
1.38326
21
0.608979
0
LINE
8
BLACK
6
CONTINUOUS
10
1.38326
20
0.608979
11
1.39031
21
0.60684
0
LINE
8
BLACK
6
CONTINUOUS
10
1.39031
20
0.60684
11
1.39764
21
0.606118
0
LINE
8
BLACK
6
CONTINUOUS
10
1.39764
20
0.606118
11
1.40497
21
0.60684
0
LINE
8
BLACK
6
CONTINUOUS
10
1.40497
20
0.60684
11
1.41202
21
0.608979
0
LINE
8
BLACK
6
CONTINUOUS
10
1.41202
20
0.608979
11
1.41852
21
0.612452
0
LINE
8
BLACK
6
CONTINUOUS
10
1.41852
20
0.612452
11
1.42421
21
0.617126
0
LINE
8
BLACK
6
CONTINUOUS
10
1.42421
20
0.617126
11
1.42889
21
0.622821
0
LINE
8
BLACK
6
CONTINUOUS
10
1.42889
20
0.622821
11
1.43236
21
0.629319
0
LINE
8
BLACK
6
CONTINUOUS
10
1.43236
20
0.629319
11
1.4345
21
0.636369
0
LINE
8
BLACK
6
CONTINUOUS
10
1.4345
20
0.636369
11
1.43519
21
0.643348
0
LINE
8
BLACK
6
CONTINUOUS
10
1.43519
20
0.643348
11
1.43504
21
0.643701
0
LINE
8
BLACK
6
CONTINUOUS
10
1.43504
20
0.643701
11
1.43504
21
0.67126
0
LINE
8
BLACK
6
CONTINUOUS
10
1.43504
20
0.67126
11
1.43562
21
0.672652
0
LINE
8
BLACK
6
CONTINUOUS
10
1.43562
20
0.672652
11
1.43701
21
0.673228
0
LINE
8
BLACK
6
CONTINUOUS
10
1.43701
20
0.673228
11
1.43799
21
0.672821
0
LINE
8
BLACK
6
CONTINUOUS
10
1.43799
20
0.672821
11
1.43898
21
0.673228
0
LINE
8
BLACK
6
CONTINUOUS
10
1.43898
20
0.673228
11
1.51575
21
0.673228
0
LINE
8
BLACK
6
CONTINUOUS
10
1.51575
20
0.673228
11
1.51575
21
1.05906
0
LINE
8
BLACK
6
CONTINUOUS
10
1.51575
20
1.05906
11
1.43701
21
1.05906
0
LINE
8
BLACK
6
CONTINUOUS
10
1.43701
20
1.05906
11
1.43562
21
1.05963
0
LINE
8
BLACK
6
CONTINUOUS
10
1.43562
20
1.05963
11
1.43504
21
1.06102
0
LINE
8
BLACK
6
CONTINUOUS
10
1.43504
20
1.06102
11
1.43504
21
1.08858
0
LINE
8
BLACK
6
CONTINUOUS
10
1.43504
20
1.08858
11
1.43519
21
1.08894
0
LINE
8
BLACK
6
CONTINUOUS
10
1.43519
20
1.08894
11
1.4345
21
1.09591
0
LINE
8
BLACK
6
CONTINUOUS
10
1.4345
20
1.09591
11
1.43236
21
1.10296
0
LINE
8
BLACK
6
CONTINUOUS
10
1.43236
20
1.10296
11
1.42889
21
1.10946
0
LINE
8
BLACK
6
CONTINUOUS
10
1.42889
20
1.10946
11
1.42421
21
1.11516
0
LINE
8
BLACK
6
CONTINUOUS
10
1.42421
20
1.11516
11
1.41852
21
1.11983
0
LINE
8
BLACK
6
CONTINUOUS
10
1.41852
20
1.11983
11
1.41202
21
1.1233
0
LINE
8
BLACK
6
CONTINUOUS
10
1.41202
20
1.1233
11
1.40497
21
1.12544
0
LINE
8
BLACK
6
CONTINUOUS
10
1.40497
20
1.12544
11
1.39764
21
1.12617
0
LINE
8
BLACK
6
CONTINUOUS
10
1.39764
20
1.12617
11
1.39031
21
1.12544
0
LINE
8
BLACK
6
CONTINUOUS
10
1.51969
20
1.03819
11
1.51969
21
0.694094
0
LINE
8
BLACK
6
CONTINUOUS
10
1.51969
20
0.694094
11
1.75197
21
0.694094
0
LINE
8
BLACK
6
CONTINUOUS
10
1.75197
20
0.694094
11
1.75197
21
1.03819
0
LINE
8
BLACK
6
CONTINUOUS
10
1.75197
20
1.03819
11
1.51969
21
1.03819
0
LINE
8
BLACK
6
CONTINUOUS
10
0.562873
20
0.725059
11
0.58092
21
0.713028
0
LINE
8
BLACK
6
CONTINUOUS
10
0.58092
20
0.713028
11
0.598968
21
0.725059
0
LINE
8
BLACK
6
CONTINUOUS
10
0.598968
20
0.725059
11
0.599907
21
0.725471
0
LINE
8
BLACK
6
CONTINUOUS
10
0.599907
20
0.725471
11
0.601914
21
0.725249
0
LINE
8
BLACK
6
CONTINUOUS
10
0.601914
20
0.725249
11
0.603309
21
0.723789
0
LINE
8
BLACK
6
CONTINUOUS
10
0.603309
20
0.723789
11
0.603439
21
0.721773
0
LINE
8
BLACK
6
CONTINUOUS
10
0.603439
20
0.721773
11
0.602243
21
0.720145
0
LINE
8
BLACK
6
CONTINUOUS
10
0.602243
20
0.720145
11
0.586244
21
0.709479
0
LINE
8
BLACK
6
CONTINUOUS
10
0.586244
20
0.709479
11
0.602243
21
0.698812
0
LINE
8
BLACK
6
CONTINUOUS
10
0.602243
20
0.698812
11
0.602985
21
0.698104
0
LINE
8
BLACK
6
CONTINUOUS
10
0.602985
20
0.698104
11
0.603552
21
0.696165
0
LINE
8
BLACK
6
CONTINUOUS
10
0.603552
20
0.696165
11
0.602741
21
0.694316
0
LINE
8
BLACK
6
CONTINUOUS
10
0.602741
20
0.694316
11
0.60093
21
0.693421
0
LINE
8
BLACK
6
CONTINUOUS
10
0.60093
20
0.693421
11
0.598968
21
0.693899
0
LINE
8
BLACK
6
CONTINUOUS
10
0.598968
20
0.693899
11
0.58092
21
0.70593
0
LINE
8
BLACK
6
CONTINUOUS
10
0.58092
20
0.70593
11
0.562873
21
0.693899
0
LINE
8
BLACK
6
CONTINUOUS
10
0.562873
20
0.693899
11
0.561934
21
0.693487
0
LINE
8
BLACK
6
CONTINUOUS
10
0.561934
20
0.693487
11
0.559927
21
0.693709
0
LINE
8
BLACK
6
CONTINUOUS
10
0.559927
20
0.693709
11
0.558531
21
0.695169
0
LINE
8
BLACK
6
CONTINUOUS
10
0.558531
20
0.695169
11
0.558401
21
0.697185
0
LINE
8
BLACK
6
CONTINUOUS
10
0.558401
20
0.697185
11
0.559598
21
0.698812
0
LINE
8
BLACK
6
CONTINUOUS
10
0.559598
20
0.698812
11
0.575597
21
0.709479
0
LINE
8
BLACK
6
CONTINUOUS
10
0.575597
20
0.709479
11
0.559598
21
0.720145
0
LINE
8
BLACK
6
CONTINUOUS
10
0.559598
20
0.720145
11
0.558856
21
0.720854
0
LINE
8
BLACK
6
CONTINUOUS
10
0.558856
20
0.720854
11
0.558289
21
0.722792
0
LINE
8
BLACK
6
CONTINUOUS
10
0.558289
20
0.722792
11
0.5591
21
0.724642
0
LINE
8
BLACK
6
CONTINUOUS
10
0.5591
20
0.724642
11
0.560911
21
0.725537
0
LINE
8
BLACK
6
CONTINUOUS
10
0.560911
20
0.725537
11
0.562873
21
0.725059
0
LINE
8
BLACK
6
CONTINUOUS
10
1.04307
20
0.745801
11
1.06112
21
0.73377
0
LINE
8
BLACK
6
CONTINUOUS
10
1.06112
20
0.73377
11
1.07916
21
0.745801
0
LINE
8
BLACK
6
CONTINUOUS
10
1.07916
20
0.745801
11
1.0801
21
0.746213
0
LINE
8
BLACK
6
CONTINUOUS
10
1.0801
20
0.746213
11
1.08211
21
0.745991
0
LINE
8
BLACK
6
CONTINUOUS
10
1.08211
20
0.745991
11
1.08351
21
0.744531
0
LINE
8
BLACK
6
CONTINUOUS
10
1.08351
20
0.744531
11
1.08364
21
0.742515
0
LINE
8
BLACK
6
CONTINUOUS
10
1.08364
20
0.742515
11
1.08244
21
0.740888
0
LINE
8
BLACK
6
CONTINUOUS
10
1.08244
20
0.740888
11
1.06644
21
0.730221
0
LINE
8
BLACK
6
CONTINUOUS
10
1.06644
20
0.730221
11
1.08244
21
0.719555
0
LINE
8
BLACK
6
CONTINUOUS
10
1.08244
20
0.719555
11
1.08318
21
0.718846
0
LINE
8
BLACK
6
CONTINUOUS
10
1.08318
20
0.718846
11
1.08375
21
0.716908
0
LINE
8
BLACK
6
CONTINUOUS
10
1.08375
20
0.716908
11
1.08294
21
0.715058
0
LINE
8
BLACK
6
CONTINUOUS
10
1.08294
20
0.715058
11
1.08113
21
0.714163
0
LINE
8
BLACK
6
CONTINUOUS
10
1.08113
20
0.714163
11
1.07916
21
0.714641
0
LINE
8
BLACK
6
CONTINUOUS
10
1.07916
20
0.714641
11
1.06112
21
0.726672
0
LINE
8
BLACK
6
CONTINUOUS
10
1.06112
20
0.726672
11
1.04307
21
0.714641
0
LINE
8
BLACK
6
CONTINUOUS
10
1.04307
20
0.714641
11
1.04213
21
0.714229
0
LINE
8
BLACK
6
CONTINUOUS
10
1.04213
20
0.714229
11
1.04012
21
0.714451
0
LINE
8
BLACK
6
CONTINUOUS
10
1.04012
20
0.714451
11
1.03873
21
0.715911
0
LINE
8
BLACK
6
CONTINUOUS
10
1.03873
20
0.715911
11
1.0386
21
0.717927
0
LINE
8
BLACK
6
CONTINUOUS
10
1.0386
20
0.717927
11
1.03979
21
0.719555
0
LINE
8
BLACK
6
CONTINUOUS
10
1.03979
20
0.719555
11
1.05579
21
0.730221
0
LINE
8
BLACK
6
CONTINUOUS
10
1.05579
20
0.730221
11
1.03979
21
0.740888
0
LINE
8
BLACK
6
CONTINUOUS
10
1.03979
20
0.740888
11
1.03905
21
0.741596
0
LINE
8
BLACK
6
CONTINUOUS
10
1.03905
20
0.741596
11
1.03849
21
0.743535
0
LINE
8
BLACK
6
CONTINUOUS
10
1.03849
20
0.743535
11
1.0393
21
0.745384
0
LINE
8
BLACK
6
CONTINUOUS
10
1.0393
20
0.745384
11
1.04111
21
0.746279
0
LINE
8
BLACK
6
CONTINUOUS
10
1.04111
20
0.746279
11
1.04307
21
0.745801
0
LINE
8
BLACK
6
CONTINUOUS
10
0.563497
20
0.756371
11
0.564188
21
0.754473
0
LINE
8
BLACK
6
CONTINUOUS
10
0.564188
20
0.754473
11
0.564188
21
0.746177
0
LINE
8
BLACK
6
CONTINUOUS
10
0.564188
20
0.746177
11
0.600606
21
0.746177
0
LINE
8
BLACK
6
CONTINUOUS
10
0.600606
20
0.746177
11
0.601615
21
0.745999
0
LINE
8
BLACK
6
CONTINUOUS
10
0.601615
20
0.745999
11
0.603163
21
0.744701
0
LINE
8
BLACK
6
CONTINUOUS
10
0.603163
20
0.744701
11
0.603513
21
0.742712
0
LINE
8
BLACK
6
CONTINUOUS
10
0.603513
20
0.742712
11
0.602504
21
0.740963
0
LINE
8
BLACK
6
CONTINUOUS
10
0.602504
20
0.740963
11
0.600606
21
0.740272
0
LINE
8
BLACK
6
CONTINUOUS
10
0.600606
20
0.740272
11
0.564188
21
0.740272
0
LINE
8
BLACK
6
CONTINUOUS
10
0.564188
20
0.740272
11
0.564188
21
0.731976
0
LINE
8
BLACK
6
CONTINUOUS
10
0.564188
20
0.731976
11
0.56401
21
0.730966
0
LINE
8
BLACK
6
CONTINUOUS
10
0.56401
20
0.730966
11
0.562712
21
0.729419
0
LINE
8
BLACK
6
CONTINUOUS
10
0.562712
20
0.729419
11
0.560723
21
0.729068
0
LINE
8
BLACK
6
CONTINUOUS
10
0.560723
20
0.729068
11
0.558974
21
0.730078
0
LINE
8
BLACK
6
CONTINUOUS
10
0.558974
20
0.730078
11
0.558283
21
0.731976
0
LINE
8
BLACK
6
CONTINUOUS
10
0.558283
20
0.731976
11
0.558283
21
0.754473
0
LINE
8
BLACK
6
CONTINUOUS
10
0.558283
20
0.754473
11
0.558461
21
0.755483
0
LINE
8
BLACK
6
CONTINUOUS
10
0.558461
20
0.755483
11
0.559759
21
0.75703
0
LINE
8
BLACK
6
CONTINUOUS
10
0.559759
20
0.75703
11
0.561748
21
0.757381
0
LINE
8
BLACK
6
CONTINUOUS
10
0.561748
20
0.757381
11
0.563497
21
0.756371
0
LINE
8
BLACK
6
CONTINUOUS
10
1.04369
20
0.777114
11
1.04439
21
0.775216
0
LINE
8
BLACK
6
CONTINUOUS
10
1.04439
20
0.775216
11
1.04439
21
0.76692
0
LINE
8
BLACK
6
CONTINUOUS
10
1.04439
20
0.76692
11
1.0808
21
0.76692
0
LINE
8
BLACK
6
CONTINUOUS
10
1.0808
20
0.76692
11
1.08181
21
0.766742
0
LINE
8
BLACK
6
CONTINUOUS
10
1.08181
20
0.766742
11
1.08336
21
0.765443
0
LINE
8
BLACK
6
CONTINUOUS
10
1.08336
20
0.765443
11
1.08371
21
0.763454
0
LINE
8
BLACK
6
CONTINUOUS
10
1.08371
20
0.763454
11
1.0827
21
0.761705
0
LINE
8
BLACK
6
CONTINUOUS
10
1.0827
20
0.761705
11
1.0808
21
0.761014
0
LINE
8
BLACK
6
CONTINUOUS
10
1.0808
20
0.761014
11
1.04439
21
0.761014
0
LINE
8
BLACK
6
CONTINUOUS
10
1.04439
20
0.761014
11
1.04439
21
0.752718
0
LINE
8
BLACK
6
CONTINUOUS
10
1.04439
20
0.752718
11
1.04421
21
0.751708
0
LINE
8
BLACK
6
CONTINUOUS
10
1.04421
20
0.751708
11
1.04291
21
0.750161
0
LINE
8
BLACK
6
CONTINUOUS
10
1.04291
20
0.750161
11
1.04092
21
0.74981
0
LINE
8
BLACK
6
CONTINUOUS
10
1.04092
20
0.74981
11
1.03917
21
0.75082
0
LINE
8
BLACK
6
CONTINUOUS
10
1.03917
20
0.75082
11
1.03848
21
0.752718
0
LINE
8
BLACK
6
CONTINUOUS
10
1.03848
20
0.752718
11
1.03848
21
0.775216
0
LINE
8
BLACK
6
CONTINUOUS
10
1.03848
20
0.775216
11
1.03866
21
0.776226
0
LINE
8
BLACK
6
CONTINUOUS
10
1.03866
20
0.776226
11
1.03996
21
0.777773
0
LINE
8
BLACK
6
CONTINUOUS
10
1.03996
20
0.777773
11
1.04195
21
0.778124
0
LINE
8
BLACK
6
CONTINUOUS
10
1.04195
20
0.778124
11
1.04369
21
0.777114
0
LINE
8
BLACK
6
CONTINUOUS
10
0.594116
20
0.790994
11
0.594252
21
0.79088
0
LINE
8
BLACK
6
CONTINUOUS
10
0.594252
20
0.79088
11
0.594427
21
0.79086
0
LINE
8
BLACK
6
CONTINUOUS
10
0.594427
20
0.79086
11
0.598176
21
0.788985
0
LINE
8
BLACK
6
CONTINUOUS
10
0.598176
20
0.788985
11
0.598886
21
0.788459
0
LINE
8
BLACK
6
CONTINUOUS
10
0.598886
20
0.788459
11
0.598944
21
0.788432
0
LINE
8
BLACK
6
CONTINUOUS
10
0.598944
20
0.788432
11
0.600819
21
0.786557
0
LINE
8
BLACK
6
CONTINUOUS
10
0.600819
20
0.786557
11
0.601325
21
0.785834
0
LINE
8
BLACK
6
CONTINUOUS
10
0.601325
20
0.785834
11
0.601372
21
0.78579
0
LINE
8
BLACK
6
CONTINUOUS
10
0.601372
20
0.78579
11
0.603247
21
0.78204
0
LINE
8
BLACK
6
CONTINUOUS
10
0.603247
20
0.78204
11
0.603539
21
0.781057
0
LINE
8
BLACK
6
CONTINUOUS
10
0.603539
20
0.781057
11
0.603498
21
0.780886
0
LINE
8
BLACK
6
CONTINUOUS
10
0.603498
20
0.780886
11
0.603558
21
0.78072
0
LINE
8
BLACK
6
CONTINUOUS
10
0.603558
20
0.78072
11
0.603558
21
0.769471
0
LINE
8
BLACK
6
CONTINUOUS
10
0.603558
20
0.769471
11
0.60338
21
0.768461
0
LINE
8
BLACK
6
CONTINUOUS
10
0.60338
20
0.768461
11
0.603267
21
0.768326
0
LINE
8
BLACK
6
CONTINUOUS
10
0.603267
20
0.768326
11
0.603247
21
0.768151
0
LINE
8
BLACK
6
CONTINUOUS
10
0.603247
20
0.768151
11
0.601372
21
0.764401
0
LINE
8
BLACK
6
CONTINUOUS
10
0.601372
20
0.764401
11
0.600846
21
0.763692
0
LINE
8
BLACK
6
CONTINUOUS
10
0.600846
20
0.763692
11
0.600819
21
0.763634
0
LINE
8
BLACK
6
CONTINUOUS
10
0.600819
20
0.763634
11
0.598944
21
0.761759
0
LINE
8
BLACK
6
CONTINUOUS
10
0.598944
20
0.761759
11
0.598104
21
0.761171
0
LINE
8
BLACK
6
CONTINUOUS
10
0.598104
20
0.761171
11
0.596092
21
0.760995
0
LINE
8
BLACK
6
CONTINUOUS
10
0.596092
20
0.760995
11
0.594437
21
0.762153
0
LINE
8
BLACK
6
CONTINUOUS
10
0.594437
20
0.762153
11
0.593914
21
0.764104
0
LINE
8
BLACK
6
CONTINUOUS
10
0.593914
20
0.764104
11
0.594768
21
0.765935
0
LINE
8
BLACK
6
CONTINUOUS
10
0.594768
20
0.765935
11
0.596304
21
0.767471
0
LINE
8
BLACK
6
CONTINUOUS
10
0.596304
20
0.767471
11
0.597653
21
0.770168
0
LINE
8
BLACK
6
CONTINUOUS
10
0.597653
20
0.770168
11
0.597653
21
0.780023
0
LINE
8
BLACK
6
CONTINUOUS
10
0.597653
20
0.780023
11
0.596304
21
0.78272
0
LINE
8
BLACK
6
CONTINUOUS
10
0.596304
20
0.78272
11
0.595107
21
0.783917
0
LINE
8
BLACK
6
CONTINUOUS
10
0.595107
20
0.783917
11
0.592409
21
0.785266
0
LINE
8
BLACK
6
CONTINUOUS
10
0.592409
20
0.785266
11
0.58443
21
0.785266
0
LINE
8
BLACK
6
CONTINUOUS
10
0.58443
20
0.785266
11
0.581732
21
0.783917
0
LINE
8
BLACK
6
CONTINUOUS
10
0.581732
20
0.783917
11
0.580535
21
0.78272
0
LINE
8
BLACK
6
CONTINUOUS
10
0.580535
20
0.78272
11
0.579186
21
0.780023
0
LINE
8
BLACK
6
CONTINUOUS
10
0.579186
20
0.780023
11
0.579186
21
0.775096
0
LINE
8
BLACK
6
CONTINUOUS
10
0.579186
20
0.775096
11
0.579109
21
0.774658
0
LINE
8
BLACK
6
CONTINUOUS
10
0.579109
20
0.774658
11
0.57913
21
0.774523
0
LINE
8
BLACK
6
CONTINUOUS
10
0.57913
20
0.774523
11
0.579067
21
0.774418
0
LINE
8
BLACK
6
CONTINUOUS
10
0.579067
20
0.774418
11
0.579008
21
0.774086
0
LINE
8
BLACK
6
CONTINUOUS
10
0.579008
20
0.774086
11
0.578497
21
0.773476
0
LINE
8
BLACK
6
CONTINUOUS
10
0.578497
20
0.773476
11
0.578084
21
0.772795
0
LINE
8
BLACK
6
CONTINUOUS
10
0.578084
20
0.772795
11
0.577861
21
0.772719
0
LINE
8
BLACK
6
CONTINUOUS
10
0.577861
20
0.772719
11
0.57771
21
0.772538
0
LINE
8
BLACK
6
CONTINUOUS
10
0.57771
20
0.772538
11
0.576926
21
0.7724
0
LINE
8
BLACK
6
CONTINUOUS
10
0.576926
20
0.7724
11
0.576172
21
0.772143
0
LINE
8
BLACK
6
CONTINUOUS
10
0.576172
20
0.772143
11
0.575953
21
0.772229
0
LINE
8
BLACK
6
CONTINUOUS
10
0.575953
20
0.772229
11
0.575721
21
0.772188
0
LINE
8
BLACK
6
CONTINUOUS
10
0.575721
20
0.772188
11
0.575031
21
0.772586
0
LINE
8
BLACK
6
CONTINUOUS
10
0.575031
20
0.772586
11
0.574289
21
0.772873
0
LINE
8
BLACK
6
CONTINUOUS
10
0.574289
20
0.772873
11
0.564188
21
0.781712
0
LINE
8
BLACK
6
CONTINUOUS
10
0.564188
20
0.781712
11
0.564188
21
0.763847
0
LINE
8
BLACK
6
CONTINUOUS
10
0.564188
20
0.763847
11
0.56401
21
0.762837
0
LINE
8
BLACK
6
CONTINUOUS
10
0.56401
20
0.762837
11
0.562712
21
0.76129
0
LINE
8
BLACK
6
CONTINUOUS
10
0.562712
20
0.76129
11
0.560723
21
0.760939
0
LINE
8
BLACK
6
CONTINUOUS
10
0.560723
20
0.760939
11
0.558974
21
0.761949
0
LINE
8
BLACK
6
CONTINUOUS
10
0.558974
20
0.761949
11
0.558283
21
0.763847
0
LINE
8
BLACK
6
CONTINUOUS
10
0.558283
20
0.763847
11
0.558283
21
0.788219
0
LINE
8
BLACK
6
CONTINUOUS
10
0.558283
20
0.788219
11
0.55836
21
0.788656
0
LINE
8
BLACK
6
CONTINUOUS
10
0.55836
20
0.788656
11
0.558339
21
0.788792
0
LINE
8
BLACK
6
CONTINUOUS
10
0.558339
20
0.788792
11
0.558402
21
0.788896
0
LINE
8
BLACK
6
CONTINUOUS
10
0.558402
20
0.788896
11
0.558461
21
0.789229
0
LINE
8
BLACK
6
CONTINUOUS
10
0.558461
20
0.789229
11
0.558972
21
0.789839
0
LINE
8
BLACK
6
CONTINUOUS
10
0.558972
20
0.789839
11
0.559385
21
0.79052
0
LINE
8
BLACK
6
CONTINUOUS
10
0.559385
20
0.79052
11
0.559608
21
0.790596
0
LINE
8
BLACK
6
CONTINUOUS
10
0.559608
20
0.790596
11
0.559759
21
0.790776
0
LINE
8
BLACK
6
CONTINUOUS
10
0.559759
20
0.790776
11
0.560543
21
0.790914
0
LINE
8
BLACK
6
CONTINUOUS
10
0.560543
20
0.790914
11
0.561297
21
0.791171
0
LINE
8
BLACK
6
CONTINUOUS
10
0.561297
20
0.791171
11
0.561516
21
0.791086
0
LINE
8
BLACK
6
CONTINUOUS
10
0.561516
20
0.791086
11
0.561748
21
0.791127
0
LINE
8
BLACK
6
CONTINUOUS
10
0.561748
20
0.791127
11
0.562438
21
0.790729
0
LINE
8
BLACK
6
CONTINUOUS
10
0.562438
20
0.790729
11
0.56318
21
0.790441
0
LINE
8
BLACK
6
CONTINUOUS
10
0.56318
20
0.790441
11
0.573416
21
0.781485
0
LINE
8
BLACK
6
CONTINUOUS
10
0.573416
20
0.781485
11
0.573459
21
0.78173
0
LINE
8
BLACK
6
CONTINUOUS
10
0.573459
20
0.78173
11
0.573572
21
0.781865
0
LINE
8
BLACK
6
CONTINUOUS
10
0.573572
20
0.781865
11
0.573593
21
0.78204
0
LINE
8
BLACK
6
CONTINUOUS
10
0.573593
20
0.78204
11
0.575467
21
0.78579
0
LINE
8
BLACK
6
CONTINUOUS
10
0.575467
20
0.78579
11
0.575993
21
0.786499
0
LINE
8
BLACK
6
CONTINUOUS
10
0.575993
20
0.786499
11
0.57602
21
0.786557
0
LINE
8
BLACK
6
CONTINUOUS
10
0.57602
20
0.786557
11
0.577895
21
0.788432
0
LINE
8
BLACK
6
CONTINUOUS
10
0.577895
20
0.788432
11
0.578618
21
0.788938
0
LINE
8
BLACK
6
CONTINUOUS
10
0.578618
20
0.788938
11
0.578663
21
0.788985
0
LINE
8
BLACK
6
CONTINUOUS
10
0.578663
20
0.788985
11
0.582412
21
0.79086
0
LINE
8
BLACK
6
CONTINUOUS
10
0.582412
20
0.79086
11
0.583395
21
0.791152
0
LINE
8
BLACK
6
CONTINUOUS
10
0.583395
20
0.791152
11
0.583567
21
0.791111
0
LINE
8
BLACK
6
CONTINUOUS
10
0.583567
20
0.791111
11
0.583733
21
0.791172
0
LINE
8
BLACK
6
CONTINUOUS
10
0.583733
20
0.791172
11
0.593106
21
0.791172
0
LINE
8
BLACK
6
CONTINUOUS
10
0.593106
20
0.791172
11
0.594116
21
0.790994
0
LINE
8
BLACK
6
CONTINUOUS
10
1.07431
20
0.811736
11
1.07445
21
0.811623
0
LINE
8
BLACK
6
CONTINUOUS
10
1.07445
20
0.811623
11
1.07462
21
0.811602
0
LINE
8
BLACK
6
CONTINUOUS
10
1.07462
20
0.811602
11
1.07837
21
0.809728
0
LINE
8
BLACK
6
CONTINUOUS
10
1.07837
20
0.809728
11
1.07908
21
0.809202
0
LINE
8
BLACK
6
CONTINUOUS
10
1.07908
20
0.809202
11
1.07914
21
0.809174
0
LINE
8
BLACK
6
CONTINUOUS
10
1.07914
20
0.809174
11
1.08102
21
0.8073
0
LINE
8
BLACK
6
CONTINUOUS
10
1.08102
20
0.8073
11
1.08152
21
0.806577
0
LINE
8
BLACK
6
CONTINUOUS
10
1.08152
20
0.806577
11
1.08157
21
0.806532
0
LINE
8
BLACK
6
CONTINUOUS
10
1.08157
20
0.806532
11
1.08344
21
0.802783
0
LINE
8
BLACK
6
CONTINUOUS
10
1.08344
20
0.802783
11
1.08374
21
0.8018
0
LINE
8
BLACK
6
CONTINUOUS
10
1.08374
20
0.8018
11
1.08369
21
0.801628
0
LINE
8
BLACK
6
CONTINUOUS
10
1.08369
20
0.801628
11
1.08376
21
0.801462
0
LINE
8
BLACK
6
CONTINUOUS
10
1.08376
20
0.801462
11
1.08376
21
0.790214
0
LINE
8
BLACK
6
CONTINUOUS
10
1.08376
20
0.790214
11
1.08358
21
0.789204
0
LINE
8
BLACK
6
CONTINUOUS
10
1.08358
20
0.789204
11
1.08346
21
0.789069
0
LINE
8
BLACK
6
CONTINUOUS
10
1.08346
20
0.789069
11
1.08344
21
0.788893
0
LINE
8
BLACK
6
CONTINUOUS
10
1.08344
20
0.788893
11
1.08157
21
0.785144
0
LINE
8
BLACK
6
CONTINUOUS
10
1.08157
20
0.785144
11
1.08104
21
0.784435
0
LINE
8
BLACK
6
CONTINUOUS
10
1.08104
20
0.784435
11
1.08102
21
0.784376
0
LINE
8
BLACK
6
CONTINUOUS
10
1.08102
20
0.784376
11
1.07914
21
0.782501
0
LINE
8
BLACK
6
CONTINUOUS
10
1.07914
20
0.782501
11
1.0783
21
0.781913
0
LINE
8
BLACK
6
CONTINUOUS
10
1.0783
20
0.781913
11
1.07629
21
0.781737
0
LINE
8
BLACK
6
CONTINUOUS
10
1.07629
20
0.781737
11
1.07463
21
0.782896
0
LINE
8
BLACK
6
CONTINUOUS
10
1.07463
20
0.782896
11
1.07411
21
0.784847
0
LINE
8
BLACK
6
CONTINUOUS
10
1.07411
20
0.784847
11
1.07496
21
0.786677
0
LINE
8
BLACK
6
CONTINUOUS
10
1.07496
20
0.786677
11
1.0765
21
0.788213
0
LINE
8
BLACK
6
CONTINUOUS
10
1.0765
20
0.788213
11
1.07785
21
0.790911
0
LINE
8
BLACK
6
CONTINUOUS
10
1.07785
20
0.790911
11
1.07785
21
0.800765
0
LINE
8
BLACK
6
CONTINUOUS
10
1.07785
20
0.800765
11
1.0765
21
0.803463
0
LINE
8
BLACK
6
CONTINUOUS
10
1.0765
20
0.803463
11
1.0753
21
0.80466
0
LINE
8
BLACK
6
CONTINUOUS
10
1.0753
20
0.80466
11
1.07261
21
0.806009
0
LINE
8
BLACK
6
CONTINUOUS
10
1.07261
20
0.806009
11
1.06463
21
0.806009
0
LINE
8
BLACK
6
CONTINUOUS
10
1.06463
20
0.806009
11
1.06193
21
0.80466
0
LINE
8
BLACK
6
CONTINUOUS
10
1.06193
20
0.80466
11
1.06073
21
0.803463
0
LINE
8
BLACK
6
CONTINUOUS
10
1.06073
20
0.803463
11
1.05938
21
0.800765
0
LINE
8
BLACK
6
CONTINUOUS
10
1.05938
20
0.800765
11
1.05938
21
0.795838
0
LINE
8
BLACK
6
CONTINUOUS
10
1.05938
20
0.795838
11
1.05931
21
0.795401
0
LINE
8
BLACK
6
CONTINUOUS
10
1.05931
20
0.795401
11
1.05933
21
0.795265
0
LINE
8
BLACK
6
CONTINUOUS
10
1.05933
20
0.795265
11
1.05926
21
0.795161
0
LINE
8
BLACK
6
CONTINUOUS
10
1.05926
20
0.795161
11
1.05921
21
0.794828
0
LINE
8
BLACK
6
CONTINUOUS
10
1.05921
20
0.794828
11
1.05869
21
0.794218
0
LINE
8
BLACK
6
CONTINUOUS
10
1.05869
20
0.794218
11
1.05828
21
0.793537
0
LINE
8
BLACK
6
CONTINUOUS
10
1.05828
20
0.793537
11
1.05806
21
0.793461
0
LINE
8
BLACK
6
CONTINUOUS
10
1.05806
20
0.793461
11
1.05791
21
0.793281
0
LINE
8
BLACK
6
CONTINUOUS
10
1.05791
20
0.793281
11
1.05712
21
0.793143
0
LINE
8
BLACK
6
CONTINUOUS
10
1.05712
20
0.793143
11
1.05637
21
0.792886
0
LINE
8
BLACK
6
CONTINUOUS
10
1.05637
20
0.792886
11
1.05615
21
0.792971
0
LINE
8
BLACK
6
CONTINUOUS
10
1.05615
20
0.792971
11
1.05592
21
0.79293
0
LINE
8
BLACK
6
CONTINUOUS
10
1.05592
20
0.79293
11
1.05523
21
0.793328
0
LINE
8
BLACK
6
CONTINUOUS
10
1.05523
20
0.793328
11
1.05449
21
0.793616
0
LINE
8
BLACK
6
CONTINUOUS
10
1.05449
20
0.793616
11
1.04439
21
0.802454
0
LINE
8
BLACK
6
CONTINUOUS
10
1.04439
20
0.802454
11
1.04439
21
0.784589
0
LINE
8
BLACK
6
CONTINUOUS
10
1.04439
20
0.784589
11
1.04421
21
0.783579
0
LINE
8
BLACK
6
CONTINUOUS
10
1.04421
20
0.783579
11
1.04291
21
0.782032
0
LINE
8
BLACK
6
CONTINUOUS
10
1.04291
20
0.782032
11
1.04092
21
0.781681
0
LINE
8
BLACK
6
CONTINUOUS
10
1.04092
20
0.781681
11
1.03917
21
0.782691
0
LINE
8
BLACK
6
CONTINUOUS
10
1.03917
20
0.782691
11
1.03848
21
0.784589
0
LINE
8
BLACK
6
CONTINUOUS
10
1.03848
20
0.784589
11
1.03848
21
0.808961
0
LINE
8
BLACK
6
CONTINUOUS
10
1.03848
20
0.808961
11
1.03856
21
0.809399
0
LINE
8
BLACK
6
CONTINUOUS
10
1.03856
20
0.809399
11
1.03854
21
0.809534
0
LINE
8
BLACK
6
CONTINUOUS
10
1.03854
20
0.809534
11
1.0386
21
0.809639
0
LINE
8
BLACK
6
CONTINUOUS
10
1.0386
20
0.809639
11
1.03866
21
0.809971
0
LINE
8
BLACK
6
CONTINUOUS
10
1.03866
20
0.809971
11
1.03917
21
0.810581
0
LINE
8
BLACK
6
CONTINUOUS
10
1.03917
20
0.810581
11
1.03958
21
0.811262
0
LINE
8
BLACK
6
CONTINUOUS
10
1.03958
20
0.811262
11
1.0398
21
0.811338
0
LINE
8
BLACK
6
CONTINUOUS
10
1.0398
20
0.811338
11
1.03996
21
0.811519
0
LINE
8
BLACK
6
CONTINUOUS
10
1.03996
20
0.811519
11
1.04074
21
0.811657
0
LINE
8
BLACK
6
CONTINUOUS
10
1.04074
20
0.811657
11
1.04149
21
0.811914
0
LINE
8
BLACK
6
CONTINUOUS
10
1.04149
20
0.811914
11
1.04171
21
0.811828
0
LINE
8
BLACK
6
CONTINUOUS
10
1.04171
20
0.811828
11
1.04195
21
0.811869
0
LINE
8
BLACK
6
CONTINUOUS
10
1.04195
20
0.811869
11
1.04263
21
0.811471
0
LINE
8
BLACK
6
CONTINUOUS
10
1.04263
20
0.811471
11
1.04338
21
0.811184
0
LINE
8
BLACK
6
CONTINUOUS
10
1.04338
20
0.811184
11
1.05361
21
0.802227
0
LINE
8
BLACK
6
CONTINUOUS
10
1.05361
20
0.802227
11
1.05366
21
0.802472
0
LINE
8
BLACK
6
CONTINUOUS
10
1.05366
20
0.802472
11
1.05377
21
0.802607
0
LINE
8
BLACK
6
CONTINUOUS
10
1.05377
20
0.802607
11
1.05379
21
0.802783
0
LINE
8
BLACK
6
CONTINUOUS
10
1.05379
20
0.802783
11
1.05566
21
0.806532
0
LINE
8
BLACK
6
CONTINUOUS
10
1.05566
20
0.806532
11
1.05619
21
0.807241
0
LINE
8
BLACK
6
CONTINUOUS
10
1.05619
20
0.807241
11
1.05622
21
0.8073
0
LINE
8
BLACK
6
CONTINUOUS
10
1.05622
20
0.8073
11
1.05809
21
0.809174
0
LINE
8
BLACK
6
CONTINUOUS
10
1.05809
20
0.809174
11
1.05882
21
0.809681
0
LINE
8
BLACK
6
CONTINUOUS
10
1.05882
20
0.809681
11
1.05886
21
0.809728
0
LINE
8
BLACK
6
CONTINUOUS
10
1.05886
20
0.809728
11
1.06261
21
0.811602
0
LINE
8
BLACK
6
CONTINUOUS
10
1.06261
20
0.811602
11
1.06359
21
0.811895
0
LINE
8
BLACK
6
CONTINUOUS
10
1.06359
20
0.811895
11
1.06376
21
0.811854
0
LINE
8
BLACK
6
CONTINUOUS
10
1.06376
20
0.811854
11
1.06393
21
0.811914
0
LINE
8
BLACK
6
CONTINUOUS
10
1.06393
20
0.811914
11
1.0733
21
0.811914
0
LINE
8
BLACK
6
CONTINUOUS
10
1.0733
20
0.811914
11
1.07431
21
0.811736
0
LINE
8
BLACK
6
CONTINUOUS
10
0.586188
20
0.828565
11
0.586324
21
0.828579
0
LINE
8
BLACK
6
CONTINUOUS
10
0.586324
20
0.828579
11
0.593823
21
0.826704
0
LINE
8
BLACK
6
CONTINUOUS
10
0.593823
20
0.826704
11
0.594288
21
0.826496
0
LINE
8
BLACK
6
CONTINUOUS
10
0.594288
20
0.826496
11
0.594427
21
0.826481
0
LINE
8
BLACK
6
CONTINUOUS
10
0.594427
20
0.826481
11
0.598176
21
0.824606
0
LINE
8
BLACK
6
CONTINUOUS
10
0.598176
20
0.824606
11
0.598886
21
0.82408
0
LINE
8
BLACK
6
CONTINUOUS
10
0.598886
20
0.82408
11
0.598944
21
0.824053
0
LINE
8
BLACK
6
CONTINUOUS
10
0.598944
20
0.824053
11
0.600819
21
0.822178
0
LINE
8
BLACK
6
CONTINUOUS
10
0.600819
20
0.822178
11
0.601325
21
0.821455
0
LINE
8
BLACK
6
CONTINUOUS
10
0.601325
20
0.821455
11
0.601372
21
0.82141
0
LINE
8
BLACK
6
CONTINUOUS
10
0.601372
20
0.82141
11
0.603247
21
0.817661
0
LINE
8
BLACK
6
CONTINUOUS
10
0.603247
20
0.817661
11
0.603539
21
0.816678
0
LINE
8
BLACK
6
CONTINUOUS
10
0.603539
20
0.816678
11
0.603498
21
0.816506
0
LINE
8
BLACK
6
CONTINUOUS
10
0.603498
20
0.816506
11
0.603558
21
0.81634
0
LINE
8
BLACK
6
CONTINUOUS
10
0.603558
20
0.81634
11
0.603558
21
0.812591
0
LINE
8
BLACK
6
CONTINUOUS
10
0.603558
20
0.812591
11
0.60338
21
0.811581
0
LINE
8
BLACK
6
CONTINUOUS
10
0.60338
20
0.811581
11
0.603267
21
0.811446
0
LINE
8
BLACK
6
CONTINUOUS
10
0.603267
20
0.811446
11
0.603247
21
0.81127
0
LINE
8
BLACK
6
CONTINUOUS
10
0.603247
20
0.81127
11
0.601372
21
0.807521
0
LINE
8
BLACK
6
CONTINUOUS
10
0.601372
20
0.807521
11
0.600846
21
0.806812
0
LINE
8
BLACK
6
CONTINUOUS
10
0.600846
20
0.806812
11
0.600819
21
0.806753
0
LINE
8
BLACK
6
CONTINUOUS
10
0.600819
20
0.806753
11
0.598944
21
0.804879
0
LINE
8
BLACK
6
CONTINUOUS
10
0.598944
20
0.804879
11
0.598221
21
0.804372
0
LINE
8
BLACK
6
CONTINUOUS
10
0.598221
20
0.804372
11
0.598176
21
0.804326
0
LINE
8
BLACK
6
CONTINUOUS
10
0.598176
20
0.804326
11
0.594427
21
0.802451
0
LINE
8
BLACK
6
CONTINUOUS
10
0.594427
20
0.802451
11
0.593939
21
0.802306
0
LINE
8
BLACK
6
CONTINUOUS
10
0.593939
20
0.802306
11
0.593823
21
0.802227
0
LINE
8
BLACK
6
CONTINUOUS
10
0.593823
20
0.802227
11
0.586324
21
0.800352
0
LINE
8
BLACK
6
CONTINUOUS
10
0.586324
20
0.800352
11
0.585736
21
0.800311
0
LINE
8
BLACK
6
CONTINUOUS
10
0.585736
20
0.800311
11
0.585607
21
0.800264
0
LINE
8
BLACK
6
CONTINUOUS
10
0.585607
20
0.800264
11
0.576234
21
0.800264
0
LINE
8
BLACK
6
CONTINUOUS
10
0.576234
20
0.800264
11
0.575653
21
0.800367
0
LINE
8
BLACK
6
CONTINUOUS
10
0.575653
20
0.800367
11
0.575517
21
0.800352
0
LINE
8
BLACK
6
CONTINUOUS
10
0.575517
20
0.800352
11
0.568018
21
0.802227
0
LINE
8
BLACK
6
CONTINUOUS
10
0.568018
20
0.802227
11
0.567553
21
0.802435
0
LINE
8
BLACK
6
CONTINUOUS
10
0.567553
20
0.802435
11
0.567414
21
0.802451
0
LINE
8
BLACK
6
CONTINUOUS
10
0.567414
20
0.802451
11
0.563664
21
0.804326
0
LINE
8
BLACK
6
CONTINUOUS
10
0.563664
20
0.804326
11
0.562955
21
0.804851
0
LINE
8
BLACK
6
CONTINUOUS
10
0.562955
20
0.804851
11
0.562897
21
0.804879
0
LINE
8
BLACK
6
CONTINUOUS
10
0.562897
20
0.804879
11
0.561022
21
0.806753
0
LINE
8
BLACK
6
CONTINUOUS
10
0.561022
20
0.806753
11
0.560516
21
0.807476
0
LINE
8
BLACK
6
CONTINUOUS
10
0.560516
20
0.807476
11
0.560469
21
0.807521
0
LINE
8
BLACK
6
CONTINUOUS
10
0.560469
20
0.807521
11
0.558594
21
0.81127
0
LINE
8
BLACK
6
CONTINUOUS
10
0.558594
20
0.81127
11
0.558302
21
0.812253
0
LINE
8
BLACK
6
CONTINUOUS
10
0.558302
20
0.812253
11
0.558343
21
0.812425
0
LINE
8
BLACK
6
CONTINUOUS
10
0.558343
20
0.812425
11
0.558283
21
0.812591
0
LINE
8
BLACK
6
CONTINUOUS
10
0.558283
20
0.812591
11
0.558283
21
0.81634
0
LINE
8
BLACK
6
CONTINUOUS
10
0.558283
20
0.81634
11
0.558461
21
0.81735
0
LINE
8
BLACK
6
CONTINUOUS
10
0.558461
20
0.81735
11
0.558574
21
0.817486
0
LINE
8
BLACK
6
CONTINUOUS
10
0.558574
20
0.817486
11
0.558594
21
0.817661
0
LINE
8
BLACK
6
CONTINUOUS
10
0.558594
20
0.817661
11
0.560469
21
0.821411
0
LINE
8
BLACK
6
CONTINUOUS
10
0.560469
20
0.821411
11
0.560995
21
0.82212
0
LINE
8
BLACK
6
CONTINUOUS
10
0.560995
20
0.82212
11
0.561022
21
0.822178
0
LINE
8
BLACK
6
CONTINUOUS
10
0.561022
20
0.822178
11
0.562897
21
0.824053
0
LINE
8
BLACK
6
CONTINUOUS
10
0.562897
20
0.824053
11
0.56362
21
0.824559
0
LINE
8
BLACK
6
CONTINUOUS
10
0.56362
20
0.824559
11
0.563664
21
0.824606
0
LINE
8
BLACK
6
CONTINUOUS
10
0.563664
20
0.824606
11
0.567414
21
0.826481
0
LINE
8
BLACK
6
CONTINUOUS
10
0.567414
20
0.826481
11
0.567902
21
0.826626
0
LINE
8
BLACK
6
CONTINUOUS
10
0.567902
20
0.826626
11
0.568018
21
0.826704
0
LINE
8
BLACK
6
CONTINUOUS
10
0.568018
20
0.826704
11
0.575517
21
0.828579
0
LINE
8
BLACK
6
CONTINUOUS
10
0.575517
20
0.828579
11
0.576105
21
0.82862
0
LINE
8
BLACK
6
CONTINUOUS
10
0.576105
20
0.82862
11
0.576234
21
0.828667
0
LINE
8
BLACK
6
CONTINUOUS
10
0.576234
20
0.828667
11
0.585607
21
0.828667
0
LINE
8
BLACK
6
CONTINUOUS
10
0.585607
20
0.828667
11
0.586188
21
0.828565
0
LINE
8
BLACK
6
CONTINUOUS
10
0.576597
20
0.822761
11
0.569765
21
0.821054
0
LINE
8
BLACK
6
CONTINUOUS
10
0.569765
20
0.821054
11
0.566734
21
0.819538
0
LINE
8
BLACK
6
CONTINUOUS
10
0.566734
20
0.819538
11
0.565537
21
0.818341
0
LINE
8
BLACK
6
CONTINUOUS
10
0.565537
20
0.818341
11
0.564188
21
0.815643
0
LINE
8
BLACK
6
CONTINUOUS
10
0.564188
20
0.815643
11
0.564188
21
0.813288
0
LINE
8
BLACK
6
CONTINUOUS
10
0.564188
20
0.813288
11
0.565537
21
0.81059
0
LINE
8
BLACK
6
CONTINUOUS
10
0.565537
20
0.81059
11
0.566734
21
0.809393
0
LINE
8
BLACK
6
CONTINUOUS
10
0.566734
20
0.809393
11
0.569765
21
0.807878
0
LINE
8
BLACK
6
CONTINUOUS
10
0.569765
20
0.807878
11
0.576597
21
0.80617
0
LINE
8
BLACK
6
CONTINUOUS
10
0.576597
20
0.80617
11
0.585244
21
0.80617
0
LINE
8
BLACK
6
CONTINUOUS
10
0.585244
20
0.80617
11
0.592076
21
0.807878
0
LINE
8
BLACK
6
CONTINUOUS
10
0.592076
20
0.807878
11
0.595107
21
0.809393
0
LINE
8
BLACK
6
CONTINUOUS
10
0.595107
20
0.809393
11
0.596304
21
0.81059
0
LINE
8
BLACK
6
CONTINUOUS
10
0.596304
20
0.81059
11
0.597653
21
0.813288
0
LINE
8
BLACK
6
CONTINUOUS
10
0.597653
20
0.813288
11
0.597653
21
0.815643
0
LINE
8
BLACK
6
CONTINUOUS
10
0.597653
20
0.815643
11
0.596304
21
0.818341
0
LINE
8
BLACK
6
CONTINUOUS
10
0.596304
20
0.818341
11
0.595107
21
0.819538
0
LINE
8
BLACK
6
CONTINUOUS
10
0.595107
20
0.819538
11
0.592076
21
0.821054
0
LINE
8
BLACK
6
CONTINUOUS
10
0.592076
20
0.821054
11
0.585244
21
0.822761
0
LINE
8
BLACK
6
CONTINUOUS
10
0.585244
20
0.822761
11
0.576597
21
0.822761
0
LINE
8
BLACK
6
CONTINUOUS
10
0.414321
20
0.83707
11
0.414385
21
0.837072
0
LINE
8
BLACK
6
CONTINUOUS
10
0.414385
20
0.837072
11
0.420009
21
0.835197
0
LINE
8
BLACK
6
CONTINUOUS
10
0.420009
20
0.835197
11
0.420911
21
0.834709
0
LINE
8
BLACK
6
CONTINUOUS
10
0.420911
20
0.834709
11
0.421004
21
0.834558
0
LINE
8
BLACK
6
CONTINUOUS
10
0.421004
20
0.834558
11
0.421164
21
0.834484
0
LINE
8
BLACK
6
CONTINUOUS
10
0.421164
20
0.834484
11
0.424913
21
0.830734
0
LINE
8
BLACK
6
CONTINUOUS
10
0.424913
20
0.830734
11
0.425501
21
0.829894
0
LINE
8
BLACK
6
CONTINUOUS
10
0.425501
20
0.829894
11
0.425517
21
0.829718
0
LINE
8
BLACK
6
CONTINUOUS
10
0.425517
20
0.829718
11
0.425626
21
0.82958
0
LINE
8
BLACK
6
CONTINUOUS
10
0.425626
20
0.82958
11
0.427501
21
0.823956
0
LINE
8
BLACK
6
CONTINUOUS
10
0.427501
20
0.823956
11
0.427631
21
0.823083
0
LINE
8
BLACK
6
CONTINUOUS
10
0.427631
20
0.823083
11
0.427653
21
0.823022
0
LINE
8
BLACK
6
CONTINUOUS
10
0.427653
20
0.823022
11
0.427653
21
0.819273
0
LINE
8
BLACK
6
CONTINUOUS
10
0.427653
20
0.819273
11
0.427475
21
0.818263
0
LINE
8
BLACK
6
CONTINUOUS
10
0.427475
20
0.818263
11
0.426176
21
0.816715
0
LINE
8
BLACK
6
CONTINUOUS
10
0.426176
20
0.816715
11
0.424187
21
0.816365
0
LINE
8
BLACK
6
CONTINUOUS
10
0.424187
20
0.816365
11
0.422438
21
0.817375
0
LINE
8
BLACK
6
CONTINUOUS
10
0.422438
20
0.817375
11
0.421747
21
0.819273
0
LINE
8
BLACK
6
CONTINUOUS
10
0.421747
20
0.819273
11
0.421747
21
0.822543
0
LINE
8
BLACK
6
CONTINUOUS
10
0.421747
20
0.822543
11
0.420244
21
0.827051
0
LINE
8
BLACK
6
CONTINUOUS
10
0.420244
20
0.827051
11
0.417481
21
0.829815
0
LINE
8
BLACK
6
CONTINUOUS
10
0.417481
20
0.829815
11
0.412972
21
0.831318
0
LINE
8
BLACK
6
CONTINUOUS
10
0.412972
20
0.831318
11
0.38533
21
0.831318
0
LINE
8
BLACK
6
CONTINUOUS
10
0.38533
20
0.831318
11
0.38432
21
0.831496
0
LINE
8
BLACK
6
CONTINUOUS
10
0.38432
20
0.831496
11
0.382773
21
0.832794
0
LINE
8
BLACK
6
CONTINUOUS
10
0.382773
20
0.832794
11
0.382422
21
0.834783
0
LINE
8
BLACK
6
CONTINUOUS
10
0.382422
20
0.834783
11
0.383432
21
0.836533
0
LINE
8
BLACK
6
CONTINUOUS
10
0.383432
20
0.836533
11
0.38533
21
0.837223
0
LINE
8
BLACK
6
CONTINUOUS
10
0.38533
20
0.837223
11
0.413451
21
0.837223
0
LINE
8
BLACK
6
CONTINUOUS
10
0.413451
20
0.837223
11
0.414321
21
0.83707
0
LINE
8
BLACK
6
CONTINUOUS
10
1.32633
20
0.83707
11
1.32639
21
0.837072
0
LINE
8
BLACK
6
CONTINUOUS
10
1.32639
20
0.837072
11
1.33202
21
0.835197
0
LINE
8
BLACK
6
CONTINUOUS
10
1.33202
20
0.835197
11
1.33292
21
0.834709
0
LINE
8
BLACK
6
CONTINUOUS
10
1.33292
20
0.834709
11
1.33301
21
0.834558
0
LINE
8
BLACK
6
CONTINUOUS
10
1.33301
20
0.834558
11
1.33317
21
0.834484
0
LINE
8
BLACK
6
CONTINUOUS
10
1.33317
20
0.834484
11
1.33692
21
0.830734
0
LINE
8
BLACK
6
CONTINUOUS
10
1.33692
20
0.830734
11
1.33751
21
0.829894
0
LINE
8
BLACK
6
CONTINUOUS
10
1.33751
20
0.829894
11
1.33752
21
0.829718
0
LINE
8
BLACK
6
CONTINUOUS
10
1.33752
20
0.829718
11
1.33763
21
0.82958
0
LINE
8
BLACK
6
CONTINUOUS
10
1.33763
20
0.82958
11
1.33951
21
0.823956
0
LINE
8
BLACK
6
CONTINUOUS
10
1.33951
20
0.823956
11
1.33964
21
0.823083
0
LINE
8
BLACK
6
CONTINUOUS
10
1.33964
20
0.823083
11
1.33966
21
0.823022
0
LINE
8
BLACK
6
CONTINUOUS
10
1.33966
20
0.823022
11
1.33966
21
0.819273
0
LINE
8
BLACK
6
CONTINUOUS
10
1.33966
20
0.819273
11
1.33948
21
0.818263
0
LINE
8
BLACK
6
CONTINUOUS
10
1.33948
20
0.818263
11
1.33818
21
0.816715
0
LINE
8
BLACK
6
CONTINUOUS
10
1.33818
20
0.816715
11
1.3362
21
0.816365
0
LINE
8
BLACK
6
CONTINUOUS
10
1.3362
20
0.816365
11
1.33445
21
0.817375
0
LINE
8
BLACK
6
CONTINUOUS
10
1.33445
20
0.817375
11
1.33376
21
0.819273
0
LINE
8
BLACK
6
CONTINUOUS
10
1.33376
20
0.819273
11
1.33376
21
0.822543
0
LINE
8
BLACK
6
CONTINUOUS
10
1.33376
20
0.822543
11
1.33225
21
0.827051
0
LINE
8
BLACK
6
CONTINUOUS
10
1.33225
20
0.827051
11
1.32949
21
0.829815
0
LINE
8
BLACK
6
CONTINUOUS
10
1.32949
20
0.829815
11
1.32498
21
0.831318
0
LINE
8
BLACK
6
CONTINUOUS
10
1.32498
20
0.831318
11
1.29734
21
0.831318
0
LINE
8
BLACK
6
CONTINUOUS
10
1.29734
20
0.831318
11
1.29633
21
0.831496
0
LINE
8
BLACK
6
CONTINUOUS
10
1.29633
20
0.831496
11
1.29478
21
0.832794
0
LINE
8
BLACK
6
CONTINUOUS
10
1.29478
20
0.832794
11
1.29443
21
0.834783
0
LINE
8
BLACK
6
CONTINUOUS
10
1.29443
20
0.834783
11
1.29544
21
0.836533
0
LINE
8
BLACK
6
CONTINUOUS
10
1.29544
20
0.836533
11
1.29734
21
0.837223
0
LINE
8
BLACK
6
CONTINUOUS
10
1.29734
20
0.837223
11
1.32546
21
0.837223
0
LINE
8
BLACK
6
CONTINUOUS
10
1.32546
20
0.837223
11
1.32633
21
0.83707
0
LINE
8
BLACK
6
CONTINUOUS
10
1.06638
20
0.849307
11
1.06652
21
0.849321
0
LINE
8
BLACK
6
CONTINUOUS
10
1.06652
20
0.849321
11
1.07402
21
0.847446
0
LINE
8
BLACK
6
CONTINUOUS
10
1.07402
20
0.847446
11
1.07448
21
0.847239
0
LINE
8
BLACK
6
CONTINUOUS
10
1.07448
20
0.847239
11
1.07462
21
0.847223
0
LINE
8
BLACK
6
CONTINUOUS
10
1.07462
20
0.847223
11
1.07837
21
0.845348
0
LINE
8
BLACK
6
CONTINUOUS
10
1.07837
20
0.845348
11
1.07908
21
0.844822
0
LINE
8
BLACK
6
CONTINUOUS
10
1.07908
20
0.844822
11
1.07914
21
0.844795
0
LINE
8
BLACK
6
CONTINUOUS
10
1.07914
20
0.844795
11
1.08102
21
0.84292
0
LINE
8
BLACK
6
CONTINUOUS
10
1.08102
20
0.84292
11
1.08152
21
0.842197
0
LINE
8
BLACK
6
CONTINUOUS
10
1.08152
20
0.842197
11
1.08157
21
0.842153
0
LINE
8
BLACK
6
CONTINUOUS
10
1.08157
20
0.842153
11
1.08344
21
0.838403
0
LINE
8
BLACK
6
CONTINUOUS
10
1.08344
20
0.838403
11
1.08374
21
0.83742
0
LINE
8
BLACK
6
CONTINUOUS
10
1.08374
20
0.83742
11
1.08369
21
0.837249
0
LINE
8
BLACK
6
CONTINUOUS
10
1.08369
20
0.837249
11
1.08376
21
0.837083
0
LINE
8
BLACK
6
CONTINUOUS
10
1.08376
20
0.837083
11
1.08376
21
0.833333
0
LINE
8
BLACK
6
CONTINUOUS
10
1.08376
20
0.833333
11
1.08358
21
0.832323
0
LINE
8
BLACK
6
CONTINUOUS
10
1.08358
20
0.832323
11
1.08346
21
0.832188
0
LINE
8
BLACK
6
CONTINUOUS
10
1.08346
20
0.832188
11
1.08344
21
0.832013
0
LINE
8
BLACK
6
CONTINUOUS
10
1.08344
20
0.832013
11
1.08157
21
0.828263
0
LINE
8
BLACK
6
CONTINUOUS
10
1.08157
20
0.828263
11
1.08104
21
0.827554
0
LINE
8
BLACK
6
CONTINUOUS
10
1.08104
20
0.827554
11
1.08102
21
0.827496
0
LINE
8
BLACK
6
CONTINUOUS
10
1.08102
20
0.827496
11
1.07914
21
0.825621
0
LINE
8
BLACK
6
CONTINUOUS
10
1.07914
20
0.825621
11
1.07842
21
0.825115
0
LINE
8
BLACK
6
CONTINUOUS
10
1.07842
20
0.825115
11
1.07837
21
0.825068
0
LINE
8
BLACK
6
CONTINUOUS
10
1.07837
20
0.825068
11
1.07462
21
0.823193
0
LINE
8
BLACK
6
CONTINUOUS
10
1.07462
20
0.823193
11
1.07414
21
0.823048
0
LINE
8
BLACK
6
CONTINUOUS
10
1.07414
20
0.823048
11
1.07402
21
0.82297
0
LINE
8
BLACK
6
CONTINUOUS
10
1.07402
20
0.82297
11
1.06652
21
0.821095
0
LINE
8
BLACK
6
CONTINUOUS
10
1.06652
20
0.821095
11
1.06593
21
0.821053
0
LINE
8
BLACK
6
CONTINUOUS
10
1.06593
20
0.821053
11
1.0658
21
0.821007
0
LINE
8
BLACK
6
CONTINUOUS
10
1.0658
20
0.821007
11
1.05643
21
0.821007
0
LINE
8
BLACK
6
CONTINUOUS
10
1.05643
20
0.821007
11
1.05585
21
0.821109
0
LINE
8
BLACK
6
CONTINUOUS
10
1.05585
20
0.821109
11
1.05571
21
0.821095
0
LINE
8
BLACK
6
CONTINUOUS
10
1.05571
20
0.821095
11
1.04822
21
0.82297
0
LINE
8
BLACK
6
CONTINUOUS
10
1.04822
20
0.82297
11
1.04775
21
0.823177
0
LINE
8
BLACK
6
CONTINUOUS
10
1.04775
20
0.823177
11
1.04761
21
0.823193
0
LINE
8
BLACK
6
CONTINUOUS
10
1.04761
20
0.823193
11
1.04386
21
0.825068
0
LINE
8
BLACK
6
CONTINUOUS
10
1.04386
20
0.825068
11
1.04315
21
0.825594
0
LINE
8
BLACK
6
CONTINUOUS
10
1.04315
20
0.825594
11
1.04309
21
0.825621
0
LINE
8
BLACK
6
CONTINUOUS
10
1.04309
20
0.825621
11
1.04122
21
0.827496
0
LINE
8
BLACK
6
CONTINUOUS
10
1.04122
20
0.827496
11
1.04071
21
0.828219
0
LINE
8
BLACK
6
CONTINUOUS
10
1.04071
20
0.828219
11
1.04067
21
0.828263
0
LINE
8
BLACK
6
CONTINUOUS
10
1.04067
20
0.828263
11
1.03879
21
0.832013
0
LINE
8
BLACK
6
CONTINUOUS
10
1.03879
20
0.832013
11
1.0385
21
0.832996
0
LINE
8
BLACK
6
CONTINUOUS
10
1.0385
20
0.832996
11
1.03854
21
0.833167
0
LINE
8
BLACK
6
CONTINUOUS
10
1.03854
20
0.833167
11
1.03848
21
0.833333
0
LINE
8
BLACK
6
CONTINUOUS
10
1.03848
20
0.833333
11
1.03848
21
0.837083
0
LINE
8
BLACK
6
CONTINUOUS
10
1.03848
20
0.837083
11
1.03866
21
0.838093
0
LINE
8
BLACK
6
CONTINUOUS
10
1.03866
20
0.838093
11
1.03877
21
0.838228
0
LINE
8
BLACK
6
CONTINUOUS
10
1.03877
20
0.838228
11
1.03879
21
0.838403
0
LINE
8
BLACK
6
CONTINUOUS
10
1.03879
20
0.838403
11
1.04067
21
0.842153
0
LINE
8
BLACK
6
CONTINUOUS
10
1.04067
20
0.842153
11
1.04119
21
0.842862
0
LINE
8
BLACK
6
CONTINUOUS
10
1.04119
20
0.842862
11
1.04122
21
0.84292
0
LINE
8
BLACK
6
CONTINUOUS
10
1.04122
20
0.84292
11
1.04309
21
0.844795
0
LINE
8
BLACK
6
CONTINUOUS
10
1.04309
20
0.844795
11
1.04382
21
0.845301
0
LINE
8
BLACK
6
CONTINUOUS
10
1.04382
20
0.845301
11
1.04386
21
0.845348
0
LINE
8
BLACK
6
CONTINUOUS
10
1.04386
20
0.845348
11
1.04761
21
0.847223
0
LINE
8
BLACK
6
CONTINUOUS
10
1.04761
20
0.847223
11
1.0481
21
0.847368
0
LINE
8
BLACK
6
CONTINUOUS
10
1.0481
20
0.847368
11
1.04822
21
0.847446
0
LINE
8
BLACK
6
CONTINUOUS
10
1.04822
20
0.847446
11
1.05571
21
0.849321
0
LINE
8
BLACK
6
CONTINUOUS
10
1.05571
20
0.849321
11
1.0563
21
0.849363
0
LINE
8
BLACK
6
CONTINUOUS
10
1.0563
20
0.849363
11
1.05643
21
0.849409
0
LINE
8
BLACK
6
CONTINUOUS
10
1.05643
20
0.849409
11
1.0658
21
0.849409
0
LINE
8
BLACK
6
CONTINUOUS
10
1.0658
20
0.849409
11
1.06638
21
0.849307
0
LINE
8
BLACK
6
CONTINUOUS
10
1.05679
20
0.843504
11
1.04996
21
0.841796
0
LINE
8
BLACK
6
CONTINUOUS
10
1.04996
20
0.841796
11
1.04693
21
0.84028
0
LINE
8
BLACK
6
CONTINUOUS
10
1.04693
20
0.84028
11
1.04573
21
0.839083
0
LINE
8
BLACK
6
CONTINUOUS
10
1.04573
20
0.839083
11
1.04439
21
0.836386
0
LINE
8
BLACK
6
CONTINUOUS
10
1.04439
20
0.836386
11
1.04439
21
0.83403
0
LINE
8
BLACK
6
CONTINUOUS
10
1.04439
20
0.83403
11
1.04573
21
0.831333
0
LINE
8
BLACK
6
CONTINUOUS
10
1.04573
20
0.831333
11
1.04693
21
0.830136
0
LINE
8
BLACK
6
CONTINUOUS
10
1.04693
20
0.830136
11
1.04996
21
0.82862
0
LINE
8
BLACK
6
CONTINUOUS
10
1.04996
20
0.82862
11
1.05679
21
0.826912
0
LINE
8
BLACK
6
CONTINUOUS
10
1.05679
20
0.826912
11
1.06544
21
0.826912
0
LINE
8
BLACK
6
CONTINUOUS
10
1.06544
20
0.826912
11
1.07227
21
0.82862
0
LINE
8
BLACK
6
CONTINUOUS
10
1.07227
20
0.82862
11
1.0753
21
0.830136
0
LINE
8
BLACK
6
CONTINUOUS
10
1.0753
20
0.830136
11
1.0765
21
0.831333
0
LINE
8
BLACK
6
CONTINUOUS
10
1.0765
20
0.831333
11
1.07785
21
0.83403
0
LINE
8
BLACK
6
CONTINUOUS
10
1.07785
20
0.83403
11
1.07785
21
0.836386
0
LINE
8
BLACK
6
CONTINUOUS
10
1.07785
20
0.836386
11
1.0765
21
0.839083
0
LINE
8
BLACK
6
CONTINUOUS
10
1.0765
20
0.839083
11
1.0753
21
0.84028
0
LINE
8
BLACK
6
CONTINUOUS
10
1.0753
20
0.84028
11
1.07227
21
0.841796
0
LINE
8
BLACK
6
CONTINUOUS
10
1.07227
20
0.841796
11
1.06544
21
0.843504
0
LINE
8
BLACK
6
CONTINUOUS
10
1.06544
20
0.843504
11
1.05679
21
0.843504
0
LINE
8
BLACK
6
CONTINUOUS
10
0.575369
20
0.867859
11
0.575504
21
0.867746
0
LINE
8
BLACK
6
CONTINUOUS
10
0.575504
20
0.867746
11
0.575679
21
0.867725
0
LINE
8
BLACK
6
CONTINUOUS
10
0.575679
20
0.867725
11
0.579429
21
0.865851
0
LINE
8
BLACK
6
CONTINUOUS
10
0.579429
20
0.865851
11
0.580138
21
0.865325
0
LINE
8
BLACK
6
CONTINUOUS
10
0.580138
20
0.865325
11
0.580196
21
0.865297
0
LINE
8
BLACK
6
CONTINUOUS
10
0.580196
20
0.865297
11
0.582071
21
0.863423
0
LINE
8
BLACK
6
CONTINUOUS
10
0.582071
20
0.863423
11
0.582577
21
0.8627
0
LINE
8
BLACK
6
CONTINUOUS
10
0.582577
20
0.8627
11
0.582624
21
0.862655
0
LINE
8
BLACK
6
CONTINUOUS
10
0.582624
20
0.862655
11
0.584499
21
0.858906
0
LINE
8
BLACK
6
CONTINUOUS
10
0.584499
20
0.858906
11
0.584791
21
0.857923
0
LINE
8
BLACK
6
CONTINUOUS
10
0.584791
20
0.857923
11
0.58475
21
0.857751
0
LINE
8
BLACK
6
CONTINUOUS
10
0.58475
20
0.857751
11
0.584811
21
0.857585
0
LINE
8
BLACK
6
CONTINUOUS
10
0.584811
20
0.857585
11
0.584811
21
0.84554
0
LINE
8
BLACK
6
CONTINUOUS
10
0.584811
20
0.84554
11
0.600606
21
0.84554
0
LINE
8
BLACK
6
CONTINUOUS
10
0.600606
20
0.84554
11
0.601615
21
0.845362
0
LINE
8
BLACK
6
CONTINUOUS
10
0.601615
20
0.845362
11
0.603163
21
0.844064
0
LINE
8
BLACK
6
CONTINUOUS
10
0.603163
20
0.844064
11
0.603513
21
0.842074
0
LINE
8
BLACK
6
CONTINUOUS
10
0.603513
20
0.842074
11
0.602504
21
0.840325
0
LINE
8
BLACK
6
CONTINUOUS
10
0.602504
20
0.840325
11
0.600606
21
0.839634
0
LINE
8
BLACK
6
CONTINUOUS
10
0.600606
20
0.839634
11
0.561235
21
0.839634
0
LINE
8
BLACK
6
CONTINUOUS
10
0.561235
20
0.839634
11
0.560852
21
0.839702
0
LINE
8
BLACK
6
CONTINUOUS
10
0.560852
20
0.839702
11
0.560723
21
0.839679
0
LINE
8
BLACK
6
CONTINUOUS
10
0.560723
20
0.839679
11
0.560609
21
0.839745
0
LINE
8
BLACK
6
CONTINUOUS
10
0.560609
20
0.839745
11
0.560226
21
0.839812
0
LINE
8
BLACK
6
CONTINUOUS
10
0.560226
20
0.839812
11
0.559638
21
0.840306
0
LINE
8
BLACK
6
CONTINUOUS
10
0.559638
20
0.840306
11
0.558974
21
0.840689
0
LINE
8
BLACK
6
CONTINUOUS
10
0.558974
20
0.840689
11
0.558882
21
0.84094
0
LINE
8
BLACK
6
CONTINUOUS
10
0.558882
20
0.84094
11
0.558678
21
0.841111
0
LINE
8
BLACK
6
CONTINUOUS
10
0.558678
20
0.841111
11
0.558545
21
0.841866
0
LINE
8
BLACK
6
CONTINUOUS
10
0.558545
20
0.841866
11
0.558283
21
0.842587
0
LINE
8
BLACK
6
CONTINUOUS
10
0.558283
20
0.842587
11
0.558283
21
0.857585
0
LINE
8
BLACK
6
CONTINUOUS
10
0.558283
20
0.857585
11
0.558461
21
0.858595
0
LINE
8
BLACK
6
CONTINUOUS
10
0.558461
20
0.858595
11
0.558574
21
0.85873
0
LINE
8
BLACK
6
CONTINUOUS
10
0.558574
20
0.85873
11
0.558594
21
0.858906
0
LINE
8
BLACK
6
CONTINUOUS
10
0.558594
20
0.858906
11
0.560469
21
0.862655
0
LINE
8
BLACK
6
CONTINUOUS
10
0.560469
20
0.862655
11
0.560995
21
0.863364
0
LINE
8
BLACK
6
CONTINUOUS
10
0.560995
20
0.863364
11
0.561022
21
0.863423
0
LINE
8
BLACK
6
CONTINUOUS
10
0.561022
20
0.863423
11
0.562897
21
0.865297
0
LINE
8
BLACK
6
CONTINUOUS
10
0.562897
20
0.865297
11
0.56362
21
0.865804
0
LINE
8
BLACK
6
CONTINUOUS
10
0.56362
20
0.865804
11
0.563664
21
0.865851
0
LINE
8
BLACK
6
CONTINUOUS
10
0.563664
20
0.865851
11
0.567414
21
0.867725
0
LINE
8
BLACK
6
CONTINUOUS
10
0.567414
20
0.867725
11
0.568397
21
0.868018
0
LINE
8
BLACK
6
CONTINUOUS
10
0.568397
20
0.868018
11
0.568569
21
0.867977
0
LINE
8
BLACK
6
CONTINUOUS
10
0.568569
20
0.867977
11
0.568735
21
0.868037
0
LINE
8
BLACK
6
CONTINUOUS
10
0.568735
20
0.868037
11
0.574359
21
0.868037
0
LINE
8
BLACK
6
CONTINUOUS
10
0.574359
20
0.868037
11
0.575369
21
0.867859
0
LINE
8
BLACK
6
CONTINUOUS
10
0.569432
20
0.862132
11
0.566734
21
0.860783
0
LINE
8
BLACK
6
CONTINUOUS
10
0.566734
20
0.860783
11
0.565537
21
0.859586
0
LINE
8
BLACK
6
CONTINUOUS
10
0.565537
20
0.859586
11
0.564188
21
0.856888
0
LINE
8
BLACK
6
CONTINUOUS
10
0.564188
20
0.856888
11
0.564188
21
0.84554
0
LINE
8
BLACK
6
CONTINUOUS
10
0.564188
20
0.84554
11
0.578905
21
0.84554
0
LINE
8
BLACK
6
CONTINUOUS
10
0.578905
20
0.84554
11
0.578905
21
0.856888
0
LINE
8
BLACK
6
CONTINUOUS
10
0.578905
20
0.856888
11
0.577556
21
0.859586
0
LINE
8
BLACK
6
CONTINUOUS
10
0.577556
20
0.859586
11
0.576359
21
0.860783
0
LINE
8
BLACK
6
CONTINUOUS
10
0.576359
20
0.860783
11
0.573662
21
0.862132
0
LINE
8
BLACK
6
CONTINUOUS
10
0.573662
20
0.862132
11
0.569432
21
0.862132
0
LINE
8
BLACK
6
CONTINUOUS
10
1.33897
20
0.875539
11
1.33966
21
0.873641
0
LINE
8
BLACK
6
CONTINUOUS
10
1.33966
20
0.873641
11
1.33966
21
0.851144
0
LINE
8
BLACK
6
CONTINUOUS
10
1.33966
20
0.851144
11
1.33948
21
0.850134
0
LINE
8
BLACK
6
CONTINUOUS
10
1.33948
20
0.850134
11
1.33818
21
0.848586
0
LINE
8
BLACK
6
CONTINUOUS
10
1.33818
20
0.848586
11
1.3362
21
0.848236
0
LINE
8
BLACK
6
CONTINUOUS
10
1.3362
20
0.848236
11
1.33445
21
0.849246
0
LINE
8
BLACK
6
CONTINUOUS
10
1.33445
20
0.849246
11
1.33376
21
0.851144
0
LINE
8
BLACK
6
CONTINUOUS
10
1.33376
20
0.851144
11
1.33376
21
0.859439
0
LINE
8
BLACK
6
CONTINUOUS
10
1.33376
20
0.859439
11
1.30634
21
0.859439
0
LINE
8
BLACK
6
CONTINUOUS
10
1.30634
20
0.859439
11
1.3088
21
0.856981
0
LINE
8
BLACK
6
CONTINUOUS
10
1.3088
20
0.856981
11
1.30931
21
0.856258
0
LINE
8
BLACK
6
CONTINUOUS
10
1.30931
20
0.856258
11
1.30935
21
0.856214
0
LINE
8
BLACK
6
CONTINUOUS
10
1.30935
20
0.856214
11
1.31123
21
0.852464
0
LINE
8
BLACK
6
CONTINUOUS
10
1.31123
20
0.852464
11
1.31152
21
0.851481
0
LINE
8
BLACK
6
CONTINUOUS
10
1.31152
20
0.851481
11
1.31105
21
0.849517
0
LINE
8
BLACK
6
CONTINUOUS
10
1.31105
20
0.849517
11
1.30943
21
0.848313
0
LINE
8
BLACK
6
CONTINUOUS
10
1.30943
20
0.848313
11
1.30741
21
0.848434
0
LINE
8
BLACK
6
CONTINUOUS
10
1.30741
20
0.848434
11
1.30595
21
0.849823
0
LINE
8
BLACK
6
CONTINUOUS
10
1.30595
20
0.849823
11
1.30428
21
0.853144
0
LINE
8
BLACK
6
CONTINUOUS
10
1.30428
20
0.853144
11
1.30108
21
0.856348
0
LINE
8
BLACK
6
CONTINUOUS
10
1.30108
20
0.856348
11
1.2957
21
0.859935
0
LINE
8
BLACK
6
CONTINUOUS
10
1.2957
20
0.859935
11
1.29496
21
0.860644
0
LINE
8
BLACK
6
CONTINUOUS
10
1.29496
20
0.860644
11
1.29491
21
0.860807
0
LINE
8
BLACK
6
CONTINUOUS
10
1.29491
20
0.860807
11
1.29478
21
0.860916
0
LINE
8
BLACK
6
CONTINUOUS
10
1.29478
20
0.860916
11
1.29463
21
0.86176
0
LINE
8
BLACK
6
CONTINUOUS
10
1.29463
20
0.86176
11
1.29439
21
0.862582
0
LINE
8
BLACK
6
CONTINUOUS
10
1.29439
20
0.862582
11
1.29446
21
0.862738
0
LINE
8
BLACK
6
CONTINUOUS
10
1.29446
20
0.862738
11
1.29443
21
0.862905
0
LINE
8
BLACK
6
CONTINUOUS
10
1.29443
20
0.862905
11
1.29486
21
0.863647
0
LINE
8
BLACK
6
CONTINUOUS
10
1.29486
20
0.863647
11
1.2952
21
0.864432
0
LINE
8
BLACK
6
CONTINUOUS
10
1.2952
20
0.864432
11
1.29535
21
0.864507
0
LINE
8
BLACK
6
CONTINUOUS
10
1.29535
20
0.864507
11
1.29544
21
0.864654
0
LINE
8
BLACK
6
CONTINUOUS
10
1.29544
20
0.864654
11
1.29625
21
0.864947
0
LINE
8
BLACK
6
CONTINUOUS
10
1.29625
20
0.864947
11
1.29701
21
0.865327
0
LINE
8
BLACK
6
CONTINUOUS
10
1.29701
20
0.865327
11
1.29718
21
0.865287
0
LINE
8
BLACK
6
CONTINUOUS
10
1.29718
20
0.865287
11
1.29734
21
0.865345
0
LINE
8
BLACK
6
CONTINUOUS
10
1.29734
20
0.865345
11
1.33376
21
0.865345
0
LINE
8
BLACK
6
CONTINUOUS
10
1.33376
20
0.865345
11
1.33376
21
0.873641
0
LINE
8
BLACK
6
CONTINUOUS
10
1.33376
20
0.873641
11
1.33393
21
0.874651
0
LINE
8
BLACK
6
CONTINUOUS
10
1.33393
20
0.874651
11
1.33523
21
0.876198
0
LINE
8
BLACK
6
CONTINUOUS
10
1.33523
20
0.876198
11
1.33722
21
0.876549
0
LINE
8
BLACK
6
CONTINUOUS
10
1.33722
20
0.876549
11
1.33897
21
0.875539
0
LINE
8
BLACK
6
CONTINUOUS
10
0.426962
20
0.875539
11
0.427653
21
0.873641
0
LINE
8
BLACK
6
CONTINUOUS
10
0.427653
20
0.873641
11
0.427653
21
0.851144
0
LINE
8
BLACK
6
CONTINUOUS
10
0.427653
20
0.851144
11
0.427475
21
0.850134
0
LINE
8
BLACK
6
CONTINUOUS
10
0.427475
20
0.850134
11
0.426176
21
0.848586
0
LINE
8
BLACK
6
CONTINUOUS
10
0.426176
20
0.848586
11
0.424187
21
0.848236
0
LINE
8
BLACK
6
CONTINUOUS
10
0.424187
20
0.848236
11
0.422438
21
0.849246
0
LINE
8
BLACK
6
CONTINUOUS
10
0.422438
20
0.849246
11
0.421747
21
0.851144
0
LINE
8
BLACK
6
CONTINUOUS
10
0.421747
20
0.851144
11
0.421747
21
0.859439
0
LINE
8
BLACK
6
CONTINUOUS
10
0.421747
20
0.859439
11
0.394333
21
0.859439
0
LINE
8
BLACK
6
CONTINUOUS
10
0.394333
20
0.859439
11
0.396792
21
0.856981
0
LINE
8
BLACK
6
CONTINUOUS
10
0.396792
20
0.856981
11
0.397298
21
0.856258
0
LINE
8
BLACK
6
CONTINUOUS
10
0.397298
20
0.856258
11
0.397345
21
0.856214
0
LINE
8
BLACK
6
CONTINUOUS
10
0.397345
20
0.856214
11
0.39922
21
0.852464
0
LINE
8
BLACK
6
CONTINUOUS
10
0.39922
20
0.852464
11
0.399512
21
0.851481
0
LINE
8
BLACK
6
CONTINUOUS
10
0.399512
20
0.851481
11
0.399043
21
0.849517
0
LINE
8
BLACK
6
CONTINUOUS
10
0.399043
20
0.849517
11
0.39742
21
0.848313
0
LINE
8
BLACK
6
CONTINUOUS
10
0.39742
20
0.848313
11
0.395404
21
0.848434
0
LINE
8
BLACK
6
CONTINUOUS
10
0.395404
20
0.848434
11
0.393938
21
0.849823
0
LINE
8
BLACK
6
CONTINUOUS
10
0.393938
20
0.849823
11
0.392277
21
0.853144
0
LINE
8
BLACK
6
CONTINUOUS
10
0.392277
20
0.853144
11
0.389073
21
0.856348
0
LINE
8
BLACK
6
CONTINUOUS
10
0.389073
20
0.856348
11
0.383692
21
0.859935
0
LINE
8
BLACK
6
CONTINUOUS
10
0.383692
20
0.859935
11
0.382951
21
0.860644
0
LINE
8
BLACK
6
CONTINUOUS
10
0.382951
20
0.860644
11
0.382903
21
0.860807
0
LINE
8
BLACK
6
CONTINUOUS
10
0.382903
20
0.860807
11
0.382773
21
0.860916
0
LINE
8
BLACK
6
CONTINUOUS
10
0.382773
20
0.860916
11
0.382624
21
0.86176
0
LINE
8
BLACK
6
CONTINUOUS
10
0.382624
20
0.86176
11
0.382383
21
0.862582
0
LINE
8
BLACK
6
CONTINUOUS
10
0.382383
20
0.862582
11
0.382451
21
0.862738
0
LINE
8
BLACK
6
CONTINUOUS
10
0.382451
20
0.862738
11
0.382422
21
0.862905
0
LINE
8
BLACK
6
CONTINUOUS
10
0.382422
20
0.862905
11
0.38285
21
0.863647
0
LINE
8
BLACK
6
CONTINUOUS
10
0.38285
20
0.863647
11
0.383195
21
0.864432
0
LINE
8
BLACK
6
CONTINUOUS
10
0.383195
20
0.864432
11
0.383347
21
0.864507
0
LINE
8
BLACK
6
CONTINUOUS
10
0.383347
20
0.864507
11
0.383432
21
0.864654
0
LINE
8
BLACK
6
CONTINUOUS
10
0.383432
20
0.864654
11
0.384237
21
0.864947
0
LINE
8
BLACK
6
CONTINUOUS
10
0.384237
20
0.864947
11
0.385005
21
0.865327
0
LINE
8
BLACK
6
CONTINUOUS
10
0.385005
20
0.865327
11
0.38517
21
0.865287
0
LINE
8
BLACK
6
CONTINUOUS
10
0.38517
20
0.865287
11
0.38533
21
0.865345
0
LINE
8
BLACK
6
CONTINUOUS
10
0.38533
20
0.865345
11
0.421747
21
0.865345
0
LINE
8
BLACK
6
CONTINUOUS
10
0.421747
20
0.865345
11
0.421747
21
0.873641
0
LINE
8
BLACK
6
CONTINUOUS
10
0.421747
20
0.873641
11
0.421925
21
0.874651
0
LINE
8
BLACK
6
CONTINUOUS
10
0.421925
20
0.874651
11
0.423224
21
0.876198
0
LINE
8
BLACK
6
CONTINUOUS
10
0.423224
20
0.876198
11
0.425213
21
0.876549
0
LINE
8
BLACK
6
CONTINUOUS
10
0.425213
20
0.876549
11
0.426962
21
0.875539
0
LINE
8
BLACK
6
CONTINUOUS
10
1.05557
20
0.888601
11
1.0557
21
0.888488
0
LINE
8
BLACK
6
CONTINUOUS
10
1.0557
20
0.888488
11
1.05588
21
0.888468
0
LINE
8
BLACK
6
CONTINUOUS
10
1.05588
20
0.888468
11
1.05963
21
0.886593
0
LINE
8
BLACK
6
CONTINUOUS
10
1.05963
20
0.886593
11
1.06033
21
0.886067
0
LINE
8
BLACK
6
CONTINUOUS
10
1.06033
20
0.886067
11
1.06039
21
0.88604
0
LINE
8
BLACK
6
CONTINUOUS
10
1.06039
20
0.88604
11
1.06227
21
0.884165
0
LINE
8
BLACK
6
CONTINUOUS
10
1.06227
20
0.884165
11
1.06277
21
0.883442
0
LINE
8
BLACK
6
CONTINUOUS
10
1.06277
20
0.883442
11
1.06282
21
0.883398
0
LINE
8
BLACK
6
CONTINUOUS
10
1.06282
20
0.883398
11
1.0647
21
0.879648
0
LINE
8
BLACK
6
CONTINUOUS
10
1.0647
20
0.879648
11
1.06499
21
0.878665
0
LINE
8
BLACK
6
CONTINUOUS
10
1.06499
20
0.878665
11
1.06495
21
0.878494
0
LINE
8
BLACK
6
CONTINUOUS
10
1.06495
20
0.878494
11
1.06501
21
0.878328
0
LINE
8
BLACK
6
CONTINUOUS
10
1.06501
20
0.878328
11
1.06501
21
0.866282
0
LINE
8
BLACK
6
CONTINUOUS
10
1.06501
20
0.866282
11
1.0808
21
0.866282
0
LINE
8
BLACK
6
CONTINUOUS
10
1.0808
20
0.866282
11
1.08181
21
0.866104
0
LINE
8
BLACK
6
CONTINUOUS
10
1.08181
20
0.866104
11
1.08336
21
0.864806
0
LINE
8
BLACK
6
CONTINUOUS
10
1.08336
20
0.864806
11
1.08371
21
0.862817
0
LINE
8
BLACK
6
CONTINUOUS
10
1.08371
20
0.862817
11
1.0827
21
0.861068
0
LINE
8
BLACK
6
CONTINUOUS
10
1.0827
20
0.861068
11
1.0808
21
0.860377
0
LINE
8
BLACK
6
CONTINUOUS
10
1.0808
20
0.860377
11
1.04143
21
0.860377
0
LINE
8
BLACK
6
CONTINUOUS
10
1.04143
20
0.860377
11
1.04105
21
0.860444
0
LINE
8
BLACK
6
CONTINUOUS
10
1.04105
20
0.860444
11
1.04092
21
0.860422
0
LINE
8
BLACK
6
CONTINUOUS
10
1.04092
20
0.860422
11
1.04081
21
0.860487
0
LINE
8
BLACK
6
CONTINUOUS
10
1.04081
20
0.860487
11
1.04042
21
0.860555
0
LINE
8
BLACK
6
CONTINUOUS
10
1.04042
20
0.860555
11
1.03983
21
0.861048
0
LINE
8
BLACK
6
CONTINUOUS
10
1.03983
20
0.861048
11
1.03917
21
0.861432
0
LINE
8
BLACK
6
CONTINUOUS
10
1.03917
20
0.861432
11
1.03908
21
0.861682
0
LINE
8
BLACK
6
CONTINUOUS
10
1.03908
20
0.861682
11
1.03888
21
0.861853
0
LINE
8
BLACK
6
CONTINUOUS
10
1.03888
20
0.861853
11
1.03874
21
0.862609
0
LINE
8
BLACK
6
CONTINUOUS
10
1.03874
20
0.862609
11
1.03848
21
0.86333
0
LINE
8
BLACK
6
CONTINUOUS
10
1.03848
20
0.86333
11
1.03848
21
0.878328
0
LINE
8
BLACK
6
CONTINUOUS
10
1.03848
20
0.878328
11
1.03866
21
0.879338
0
LINE
8
BLACK
6
CONTINUOUS
10
1.03866
20
0.879338
11
1.03877
21
0.879473
0
LINE
8
BLACK
6
CONTINUOUS
10
1.03877
20
0.879473
11
1.03879
21
0.879648
0
LINE
8
BLACK
6
CONTINUOUS
10
1.03879
20
0.879648
11
1.04067
21
0.883398
0
LINE
8
BLACK
6
CONTINUOUS
10
1.04067
20
0.883398
11
1.04119
21
0.884107
0
LINE
8
BLACK
6
CONTINUOUS
10
1.04119
20
0.884107
11
1.04122
21
0.884165
0
LINE
8
BLACK
6
CONTINUOUS
10
1.04122
20
0.884165
11
1.04309
21
0.88604
0
LINE
8
BLACK
6
CONTINUOUS
10
1.04309
20
0.88604
11
1.04382
21
0.886546
0
LINE
8
BLACK
6
CONTINUOUS
10
1.04382
20
0.886546
11
1.04386
21
0.886593
0
LINE
8
BLACK
6
CONTINUOUS
10
1.04386
20
0.886593
11
1.04761
21
0.888468
0
LINE
8
BLACK
6
CONTINUOUS
10
1.04761
20
0.888468
11
1.04859
21
0.88876
0
LINE
8
BLACK
6
CONTINUOUS
10
1.04859
20
0.88876
11
1.04877
21
0.888719
0
LINE
8
BLACK
6
CONTINUOUS
10
1.04877
20
0.888719
11
1.04893
21
0.88878
0
LINE
8
BLACK
6
CONTINUOUS
10
1.04893
20
0.88878
11
1.05456
21
0.88878
0
LINE
8
BLACK
6
CONTINUOUS
10
1.05456
20
0.88878
11
1.05557
21
0.888601
0
LINE
8
BLACK
6
CONTINUOUS
10
1.04963
20
0.882874
11
1.04693
21
0.881525
0
LINE
8
BLACK
6
CONTINUOUS
10
1.04693
20
0.881525
11
1.04573
21
0.880328
0
LINE
8
BLACK
6
CONTINUOUS
10
1.04573
20
0.880328
11
1.04439
21
0.877631
0
LINE
8
BLACK
6
CONTINUOUS
10
1.04439
20
0.877631
11
1.04439
21
0.866282
0
LINE
8
BLACK
6
CONTINUOUS
10
1.04439
20
0.866282
11
1.0591
21
0.866282
0
LINE
8
BLACK
6
CONTINUOUS
10
1.0591
20
0.866282
11
1.0591
21
0.877631
0
LINE
8
BLACK
6
CONTINUOUS
10
1.0591
20
0.877631
11
1.05775
21
0.880328
0
LINE
8
BLACK
6
CONTINUOUS
10
1.05775
20
0.880328
11
1.05656
21
0.881525
0
LINE
8
BLACK
6
CONTINUOUS
10
1.05656
20
0.881525
11
1.05386
21
0.882874
0
LINE
8
BLACK
6
CONTINUOUS
10
1.05386
20
0.882874
11
1.04963
21
0.882874
0
LINE
8
BLACK
6
CONTINUOUS
10
0.601289
20
0.905452
11
0.602231
21
0.905045
0
LINE
8
BLACK
6
CONTINUOUS
10
0.602231
20
0.905045
11
0.602415
21
0.904796
0
LINE
8
BLACK
6
CONTINUOUS
10
0.602415
20
0.904796
11
0.602696
21
0.904665
0
LINE
8
BLACK
6
CONTINUOUS
10
0.602696
20
0.904665
11
0.603002
21
0.904006
0
LINE
8
BLACK
6
CONTINUOUS
10
0.603002
20
0.904006
11
0.603435
21
0.903424
0
LINE
8
BLACK
6
CONTINUOUS
10
0.603435
20
0.903424
11
0.603417
21
0.903114
0
LINE
8
BLACK
6
CONTINUOUS
10
0.603417
20
0.903114
11
0.603547
21
0.902833
0
LINE
8
BLACK
6
CONTINUOUS
10
0.603547
20
0.902833
11
0.603359
21
0.902132
0
LINE
8
BLACK
6
CONTINUOUS
10
0.603359
20
0.902132
11
0.603316
21
0.901407
0
LINE
8
BLACK
6
CONTINUOUS
10
0.603316
20
0.901407
11
0.603103
21
0.901182
0
LINE
8
BLACK
6
CONTINUOUS
10
0.603103
20
0.901182
11
0.603022
21
0.900883
0
LINE
8
BLACK
6
CONTINUOUS
10
0.603022
20
0.900883
11
0.602427
21
0.900467
0
LINE
8
BLACK
6
CONTINUOUS
10
0.602427
20
0.900467
11
0.601928
21
0.89994
0
LINE
8
BLACK
6
CONTINUOUS
10
0.601928
20
0.89994
11
0.60162
21
0.899904
0
LINE
8
BLACK
6
CONTINUOUS
10
0.60162
20
0.899904
11
0.601366
21
0.899727
0
LINE
8
BLACK
6
CONTINUOUS
10
0.601366
20
0.899727
11
0.583944
21
0.895081
0
LINE
8
BLACK
6
CONTINUOUS
10
0.583944
20
0.895081
11
0.601366
21
0.890435
0
LINE
8
BLACK
6
CONTINUOUS
10
0.601366
20
0.890435
11
0.602296
21
0.890002
0
LINE
8
BLACK
6
CONTINUOUS
10
0.602296
20
0.890002
11
0.602474
21
0.889749
0
LINE
8
BLACK
6
CONTINUOUS
10
0.602474
20
0.889749
11
0.602751
21
0.88961
0
LINE
8
BLACK
6
CONTINUOUS
10
0.602751
20
0.88961
11
0.603039
21
0.888944
0
LINE
8
BLACK
6
CONTINUOUS
10
0.603039
20
0.888944
11
0.603457
21
0.888349
0
LINE
8
BLACK
6
CONTINUOUS
10
0.603457
20
0.888349
11
0.60343
21
0.888041
0
LINE
8
BLACK
6
CONTINUOUS
10
0.60343
20
0.888041
11
0.603553
21
0.887756
0
LINE
8
BLACK
6
CONTINUOUS
10
0.603553
20
0.887756
11
0.603346
21
0.887061
0
LINE
8
BLACK
6
CONTINUOUS
10
0.603346
20
0.887061
11
0.603283
21
0.886337
0
LINE
8
BLACK
6
CONTINUOUS
10
0.603283
20
0.886337
11
0.603064
21
0.886117
0
LINE
8
BLACK
6
CONTINUOUS
10
0.603064
20
0.886117
11
0.602976
21
0.885821
0
LINE
8
BLACK
6
CONTINUOUS
10
0.602976
20
0.885821
11
0.60237
21
0.885421
0
LINE
8
BLACK
6
CONTINUOUS
10
0.60237
20
0.885421
11
0.601857
21
0.884907
0
LINE
8
BLACK
6
CONTINUOUS
10
0.601857
20
0.884907
11
0.601548
21
0.88488
0
LINE
8
BLACK
6
CONTINUOUS
10
0.601548
20
0.88488
11
0.601289
21
0.884709
0
LINE
8
BLACK
6
CONTINUOUS
10
0.601289
20
0.884709
11
0.561919
21
0.875335
0
LINE
8
BLACK
6
CONTINUOUS
10
0.561919
20
0.875335
11
0.560896
21
0.875275
0
LINE
8
BLACK
6
CONTINUOUS
10
0.560896
20
0.875275
11
0.55909
21
0.876179
0
LINE
8
BLACK
6
CONTINUOUS
10
0.55909
20
0.876179
11
0.558288
21
0.878033
0
LINE
8
BLACK
6
CONTINUOUS
10
0.558288
20
0.878033
11
0.558865
21
0.879969
0
LINE
8
BLACK
6
CONTINUOUS
10
0.558865
20
0.879969
11
0.560551
21
0.88108
0
LINE
8
BLACK
6
CONTINUOUS
10
0.560551
20
0.88108
11
0.588538
21
0.887744
0
LINE
8
BLACK
6
CONTINUOUS
10
0.588538
20
0.887744
11
0.571723
21
0.892228
0
LINE
8
BLACK
6
CONTINUOUS
10
0.571723
20
0.892228
11
0.570793
21
0.89266
0
LINE
8
BLACK
6
CONTINUOUS
10
0.570793
20
0.89266
11
0.570638
21
0.892881
0
LINE
8
BLACK
6
CONTINUOUS
10
0.570638
20
0.892881
11
0.570394
21
0.892995
0
LINE
8
BLACK
6
CONTINUOUS
10
0.570394
20
0.892995
11
0.570072
21
0.893688
0
LINE
8
BLACK
6
CONTINUOUS
10
0.570072
20
0.893688
11
0.569633
21
0.894313
0
LINE
8
BLACK
6
CONTINUOUS
10
0.569633
20
0.894313
11
0.569656
21
0.894582
0
LINE
8
BLACK
6
CONTINUOUS
10
0.569656
20
0.894582
11
0.569542
21
0.894827
0
LINE
8
BLACK
6
CONTINUOUS
10
0.569542
20
0.894827
11
0.569741
21
0.895564
0
LINE
8
BLACK
6
CONTINUOUS
10
0.569741
20
0.895564
11
0.569806
21
0.896325
0
LINE
8
BLACK
6
CONTINUOUS
10
0.569806
20
0.896325
11
0.569997
21
0.896516
0
LINE
8
BLACK
6
CONTINUOUS
10
0.569997
20
0.896516
11
0.570067
21
0.896777
0
LINE
8
BLACK
6
CONTINUOUS
10
0.570067
20
0.896777
11
0.570693
21
0.897214
0
LINE
8
BLACK
6
CONTINUOUS
10
0.570693
20
0.897214
11
0.571233
21
0.897755
0
LINE
8
BLACK
6
CONTINUOUS
10
0.571233
20
0.897755
11
0.571502
21
0.897779
0
LINE
8
BLACK
6
CONTINUOUS
10
0.571502
20
0.897779
11
0.571723
21
0.897934
0
LINE
8
BLACK
6
CONTINUOUS
10
0.571723
20
0.897934
11
0.588538
21
0.902418
0
LINE
8
BLACK
6
CONTINUOUS
10
0.588538
20
0.902418
11
0.560551
21
0.909081
0
LINE
8
BLACK
6
CONTINUOUS
10
0.560551
20
0.909081
11
0.55961
21
0.909488
0
LINE
8
BLACK
6
CONTINUOUS
10
0.55961
20
0.909488
11
0.558406
21
0.91111
0
LINE
8
BLACK
6
CONTINUOUS
10
0.558406
20
0.91111
11
0.558525
21
0.913126
0
LINE
8
BLACK
6
CONTINUOUS
10
0.558525
20
0.913126
11
0.559913
21
0.914594
0
LINE
8
BLACK
6
CONTINUOUS
10
0.559913
20
0.914594
11
0.561919
21
0.914826
0
LINE
8
BLACK
6
CONTINUOUS
10
0.561919
20
0.914826
11
0.601289
21
0.905452
0
LINE
8
BLACK
6
CONTINUOUS
10
1.32042
20
0.913987
11
1.32055
21
0.914001
0
LINE
8
BLACK
6
CONTINUOUS
10
1.32055
20
0.914001
11
1.32805
21
0.912126
0
LINE
8
BLACK
6
CONTINUOUS
10
1.32805
20
0.912126
11
1.32896
21
0.911722
0
LINE
8
BLACK
6
CONTINUOUS
10
1.32896
20
0.911722
11
1.32897
21
0.911718
0
LINE
8
BLACK
6
CONTINUOUS
10
1.32897
20
0.911718
11
1.3346
21
0.907969
0
LINE
8
BLACK
6
CONTINUOUS
10
1.3346
20
0.907969
11
1.33492
21
0.907658
0
LINE
8
BLACK
6
CONTINUOUS
10
1.33492
20
0.907658
11
1.33505
21
0.9076
0
LINE
8
BLACK
6
CONTINUOUS
10
1.33505
20
0.9076
11
1.33692
21
0.905725
0
LINE
8
BLACK
6
CONTINUOUS
10
1.33692
20
0.905725
11
1.33743
21
0.905002
0
LINE
8
BLACK
6
CONTINUOUS
10
1.33743
20
0.905002
11
1.33747
21
0.904958
0
LINE
8
BLACK
6
CONTINUOUS
10
1.33747
20
0.904958
11
1.33935
21
0.901208
0
LINE
8
BLACK
6
CONTINUOUS
10
1.33935
20
0.901208
11
1.33964
21
0.900225
0
LINE
8
BLACK
6
CONTINUOUS
10
1.33964
20
0.900225
11
1.3396
21
0.900053
0
LINE
8
BLACK
6
CONTINUOUS
10
1.3396
20
0.900053
11
1.33966
21
0.899887
0
LINE
8
BLACK
6
CONTINUOUS
10
1.33966
20
0.899887
11
1.33966
21
0.892388
0
LINE
8
BLACK
6
CONTINUOUS
10
1.33966
20
0.892388
11
1.33948
21
0.891379
0
LINE
8
BLACK
6
CONTINUOUS
10
1.33948
20
0.891379
11
1.33818
21
0.889831
0
LINE
8
BLACK
6
CONTINUOUS
10
1.33818
20
0.889831
11
1.3362
21
0.889481
0
LINE
8
BLACK
6
CONTINUOUS
10
1.3362
20
0.889481
11
1.33445
21
0.89049
0
LINE
8
BLACK
6
CONTINUOUS
10
1.33445
20
0.89049
11
1.33376
21
0.892388
0
LINE
8
BLACK
6
CONTINUOUS
10
1.33376
20
0.892388
11
1.33376
21
0.89919
0
LINE
8
BLACK
6
CONTINUOUS
10
1.33376
20
0.89919
11
1.33241
21
0.901888
0
LINE
8
BLACK
6
CONTINUOUS
10
1.33241
20
0.901888
11
1.33108
21
0.903217
0
LINE
8
BLACK
6
CONTINUOUS
10
1.33108
20
0.903217
11
1.32612
21
0.906521
0
LINE
8
BLACK
6
CONTINUOUS
10
1.32612
20
0.906521
11
1.3232
21
0.90725
0
LINE
8
BLACK
6
CONTINUOUS
10
1.3232
20
0.90725
11
1.32435
21
0.904958
0
LINE
8
BLACK
6
CONTINUOUS
10
1.32435
20
0.904958
11
1.32464
21
0.903975
0
LINE
8
BLACK
6
CONTINUOUS
10
1.32464
20
0.903975
11
1.3246
21
0.903803
0
LINE
8
BLACK
6
CONTINUOUS
10
1.3246
20
0.903803
11
1.32466
21
0.903637
0
LINE
8
BLACK
6
CONTINUOUS
10
1.32466
20
0.903637
11
1.32466
21
0.896138
0
LINE
8
BLACK
6
CONTINUOUS
10
1.32466
20
0.896138
11
1.32448
21
0.895128
0
LINE
8
BLACK
6
CONTINUOUS
10
1.32448
20
0.895128
11
1.32437
21
0.894993
0
LINE
8
BLACK
6
CONTINUOUS
10
1.32437
20
0.894993
11
1.32435
21
0.894817
0
LINE
8
BLACK
6
CONTINUOUS
10
1.32435
20
0.894817
11
1.32248
21
0.891068
0
LINE
8
BLACK
6
CONTINUOUS
10
1.32248
20
0.891068
11
1.32195
21
0.890359
0
LINE
8
BLACK
6
CONTINUOUS
10
1.32195
20
0.890359
11
1.32192
21
0.890301
0
LINE
8
BLACK
6
CONTINUOUS
10
1.32192
20
0.890301
11
1.32005
21
0.888426
0
LINE
8
BLACK
6
CONTINUOUS
10
1.32005
20
0.888426
11
1.31933
21
0.887919
0
LINE
8
BLACK
6
CONTINUOUS
10
1.31933
20
0.887919
11
1.31928
21
0.887873
0
LINE
8
BLACK
6
CONTINUOUS
10
1.31928
20
0.887873
11
1.31553
21
0.885998
0
LINE
8
BLACK
6
CONTINUOUS
10
1.31553
20
0.885998
11
1.31455
21
0.885706
0
LINE
8
BLACK
6
CONTINUOUS
10
1.31455
20
0.885706
11
1.31438
21
0.885747
0
LINE
8
BLACK
6
CONTINUOUS
10
1.31438
20
0.885747
11
1.31421
21
0.885686
0
LINE
8
BLACK
6
CONTINUOUS
10
1.31421
20
0.885686
11
1.30484
21
0.885686
0
LINE
8
BLACK
6
CONTINUOUS
10
1.30484
20
0.885686
11
1.30383
21
0.885864
0
LINE
8
BLACK
6
CONTINUOUS
10
1.30383
20
0.885864
11
1.30369
21
0.885978
0
LINE
8
BLACK
6
CONTINUOUS
10
1.30369
20
0.885978
11
1.30352
21
0.885998
0
LINE
8
BLACK
6
CONTINUOUS
10
1.30352
20
0.885998
11
1.29977
21
0.887873
0
LINE
8
BLACK
6
CONTINUOUS
10
1.29977
20
0.887873
11
1.29906
21
0.888399
0
LINE
8
BLACK
6
CONTINUOUS
10
1.29906
20
0.888399
11
1.299
21
0.888426
0
LINE
8
BLACK
6
CONTINUOUS
10
1.299
20
0.888426
11
1.29712
21
0.890301
0
LINE
8
BLACK
6
CONTINUOUS
10
1.29712
20
0.890301
11
1.29662
21
0.891023
0
LINE
8
BLACK
6
CONTINUOUS
10
1.29662
20
0.891023
11
1.29657
21
0.891068
0
LINE
8
BLACK
6
CONTINUOUS
10
1.29657
20
0.891068
11
1.2947
21
0.894817
0
LINE
8
BLACK
6
CONTINUOUS
10
1.2947
20
0.894817
11
1.2944
21
0.8958
0
LINE
8
BLACK
6
CONTINUOUS
10
1.2944
20
0.8958
11
1.29445
21
0.895972
0
LINE
8
BLACK
6
CONTINUOUS
10
1.29445
20
0.895972
11
1.29439
21
0.896138
0
LINE
8
BLACK
6
CONTINUOUS
10
1.29439
20
0.896138
11
1.29439
21
0.903637
0
LINE
8
BLACK
6
CONTINUOUS
10
1.29439
20
0.903637
11
1.29456
21
0.904647
0
LINE
8
BLACK
6
CONTINUOUS
10
1.29456
20
0.904647
11
1.29468
21
0.904782
0
LINE
8
BLACK
6
CONTINUOUS
10
1.29468
20
0.904782
11
1.2947
21
0.904958
0
LINE
8
BLACK
6
CONTINUOUS
10
1.2947
20
0.904958
11
1.29657
21
0.908707
0
LINE
8
BLACK
6
CONTINUOUS
10
1.29657
20
0.908707
11
1.2971
21
0.909416
0
LINE
8
BLACK
6
CONTINUOUS
10
1.2971
20
0.909416
11
1.29712
21
0.909474
0
LINE
8
BLACK
6
CONTINUOUS
10
1.29712
20
0.909474
11
1.299
21
0.911349
0
LINE
8
BLACK
6
CONTINUOUS
10
1.299
20
0.911349
11
1.29972
21
0.911856
0
LINE
8
BLACK
6
CONTINUOUS
10
1.29972
20
0.911856
11
1.29977
21
0.911902
0
LINE
8
BLACK
6
CONTINUOUS
10
1.29977
20
0.911902
11
1.30352
21
0.913777
0
LINE
8
BLACK
6
CONTINUOUS
10
1.30352
20
0.913777
11
1.3045
21
0.914069
0
LINE
8
BLACK
6
CONTINUOUS
10
1.3045
20
0.914069
11
1.30467
21
0.914028
0
LINE
8
BLACK
6
CONTINUOUS
10
1.30467
20
0.914028
11
1.30484
21
0.914089
0
LINE
8
BLACK
6
CONTINUOUS
10
1.30484
20
0.914089
11
1.31983
21
0.914089
0
LINE
8
BLACK
6
CONTINUOUS
10
1.31983
20
0.914089
11
1.32042
21
0.913987
0
LINE
8
BLACK
6
CONTINUOUS
10
1.30553
20
0.908183
11
1.30284
21
0.906835
0
LINE
8
BLACK
6
CONTINUOUS
10
1.30284
20
0.906835
11
1.30164
21
0.905637
0
LINE
8
BLACK
6
CONTINUOUS
10
1.30164
20
0.905637
11
1.30029
21
0.90294
0
LINE
8
BLACK
6
CONTINUOUS
10
1.30029
20
0.90294
11
1.30029
21
0.896835
0
LINE
8
BLACK
6
CONTINUOUS
10
1.30029
20
0.896835
11
1.30164
21
0.894138
0
LINE
8
BLACK
6
CONTINUOUS
10
1.30164
20
0.894138
11
1.30284
21
0.89294
0
LINE
8
BLACK
6
CONTINUOUS
10
1.30284
20
0.89294
11
1.30553
21
0.891592
0
LINE
8
BLACK
6
CONTINUOUS
10
1.30553
20
0.891592
11
1.31351
21
0.891592
0
LINE
8
BLACK
6
CONTINUOUS
10
1.31351
20
0.891592
11
1.31621
21
0.89294
0
LINE
8
BLACK
6
CONTINUOUS
10
1.31621
20
0.89294
11
1.31741
21
0.894138
0
LINE
8
BLACK
6
CONTINUOUS
10
1.31741
20
0.894138
11
1.31876
21
0.896835
0
LINE
8
BLACK
6
CONTINUOUS
10
1.31876
20
0.896835
11
1.31876
21
0.90294
0
LINE
8
BLACK
6
CONTINUOUS
10
1.31876
20
0.90294
11
1.31741
21
0.905637
0
LINE
8
BLACK
6
CONTINUOUS
10
1.31741
20
0.905637
11
1.31621
21
0.906835
0
LINE
8
BLACK
6
CONTINUOUS
10
1.31621
20
0.906835
11
1.31351
21
0.908183
0
LINE
8
BLACK
6
CONTINUOUS
10
1.31351
20
0.908183
11
1.30553
21
0.908183
0
LINE
8
BLACK
6
CONTINUOUS
10
0.395714
20
0.913911
11
0.395849
21
0.913797
0
LINE
8
BLACK
6
CONTINUOUS
10
0.395849
20
0.913797
11
0.396024
21
0.913777
0
LINE
8
BLACK
6
CONTINUOUS
10
0.396024
20
0.913777
11
0.399774
21
0.911902
0
LINE
8
BLACK
6
CONTINUOUS
10
0.399774
20
0.911902
11
0.400483
21
0.911376
0
LINE
8
BLACK
6
CONTINUOUS
10
0.400483
20
0.911376
11
0.400541
21
0.911349
0
LINE
8
BLACK
6
CONTINUOUS
10
0.400541
20
0.911349
11
0.402203
21
0.909688
0
LINE
8
BLACK
6
CONTINUOUS
10
0.402203
20
0.909688
11
0.403864
21
0.911349
0
LINE
8
BLACK
6
CONTINUOUS
10
0.403864
20
0.911349
11
0.404588
21
0.911856
0
LINE
8
BLACK
6
CONTINUOUS
10
0.404588
20
0.911856
11
0.404632
21
0.911902
0
LINE
8
BLACK
6
CONTINUOUS
10
0.404632
20
0.911902
11
0.408381
21
0.913777
0
LINE
8
BLACK
6
CONTINUOUS
10
0.408381
20
0.913777
11
0.409364
21
0.914069
0
LINE
8
BLACK
6
CONTINUOUS
10
0.409364
20
0.914069
11
0.409536
21
0.914028
0
LINE
8
BLACK
6
CONTINUOUS
10
0.409536
20
0.914028
11
0.409702
21
0.914089
0
LINE
8
BLACK
6
CONTINUOUS
10
0.409702
20
0.914089
11
0.417201
21
0.914089
0
LINE
8
BLACK
6
CONTINUOUS
10
0.417201
20
0.914089
11
0.418211
21
0.913911
0
LINE
8
BLACK
6
CONTINUOUS
10
0.418211
20
0.913911
11
0.418346
21
0.913797
0
LINE
8
BLACK
6
CONTINUOUS
10
0.418346
20
0.913797
11
0.418521
21
0.913777
0
LINE
8
BLACK
6
CONTINUOUS
10
0.418521
20
0.913777
11
0.422271
21
0.911902
0
LINE
8
BLACK
6
CONTINUOUS
10
0.422271
20
0.911902
11
0.42298
21
0.911376
0
LINE
8
BLACK
6
CONTINUOUS
10
0.42298
20
0.911376
11
0.423038
21
0.911349
0
LINE
8
BLACK
6
CONTINUOUS
10
0.423038
20
0.911349
11
0.424913
21
0.909474
0
LINE
8
BLACK
6
CONTINUOUS
10
0.424913
20
0.909474
11
0.425419
21
0.908751
0
LINE
8
BLACK
6
CONTINUOUS
10
0.425419
20
0.908751
11
0.425466
21
0.908707
0
LINE
8
BLACK
6
CONTINUOUS
10
0.425466
20
0.908707
11
0.427341
21
0.904958
0
LINE
8
BLACK
6
CONTINUOUS
10
0.427341
20
0.904958
11
0.427633
21
0.903975
0
LINE
8
BLACK
6
CONTINUOUS
10
0.427633
20
0.903975
11
0.427592
21
0.903803
0
LINE
8
BLACK
6
CONTINUOUS
10
0.427592
20
0.903803
11
0.427653
21
0.903637
0
LINE
8
BLACK
6
CONTINUOUS
10
0.427653
20
0.903637
11
0.427653
21
0.896138
0
LINE
8
BLACK
6
CONTINUOUS
10
0.427653
20
0.896138
11
0.427475
21
0.895128
0
LINE
8
BLACK
6
CONTINUOUS
10
0.427475
20
0.895128
11
0.427361
21
0.894993
0
LINE
8
BLACK
6
CONTINUOUS
10
0.427361
20
0.894993
11
0.427341
21
0.894817
0
LINE
8
BLACK
6
CONTINUOUS
10
0.427341
20
0.894817
11
0.425466
21
0.891068
0
LINE
8
BLACK
6
CONTINUOUS
10
0.425466
20
0.891068
11
0.42494
21
0.890359
0
LINE
8
BLACK
6
CONTINUOUS
10
0.42494
20
0.890359
11
0.424913
21
0.890301
0
LINE
8
BLACK
6
CONTINUOUS
10
0.424913
20
0.890301
11
0.423038
21
0.888426
0
LINE
8
BLACK
6
CONTINUOUS
10
0.423038
20
0.888426
11
0.422315
21
0.887919
0
LINE
8
BLACK
6
CONTINUOUS
10
0.422315
20
0.887919
11
0.422271
21
0.887873
0
LINE
8
BLACK
6
CONTINUOUS
10
0.422271
20
0.887873
11
0.418521
21
0.885998
0
LINE
8
BLACK
6
CONTINUOUS
10
0.418521
20
0.885998
11
0.417539
21
0.885706
0
LINE
8
BLACK
6
CONTINUOUS
10
0.417539
20
0.885706
11
0.417367
21
0.885747
0
LINE
8
BLACK
6
CONTINUOUS
10
0.417367
20
0.885747
11
0.417201
21
0.885686
0
LINE
8
BLACK
6
CONTINUOUS
10
0.417201
20
0.885686
11
0.409702
21
0.885686
0
LINE
8
BLACK
6
CONTINUOUS
10
0.409702
20
0.885686
11
0.408692
21
0.885864
0
LINE
8
BLACK
6
CONTINUOUS
10
0.408692
20
0.885864
11
0.408557
21
0.885978
0
LINE
8
BLACK
6
CONTINUOUS
10
0.408557
20
0.885978
11
0.408381
21
0.885998
0
LINE
8
BLACK
6
CONTINUOUS
10
0.408381
20
0.885998
11
0.404632
21
0.887873
0
LINE
8
BLACK
6
CONTINUOUS
10
0.404632
20
0.887873
11
0.403923
21
0.888399
0
LINE
8
BLACK
6
CONTINUOUS
10
0.403923
20
0.888399
11
0.403864
21
0.888426
0
LINE
8
BLACK
6
CONTINUOUS
10
0.403864
20
0.888426
11
0.402203
21
0.890087
0
LINE
8
BLACK
6
CONTINUOUS
10
0.402203
20
0.890087
11
0.400541
21
0.888426
0
LINE
8
BLACK
6
CONTINUOUS
10
0.400541
20
0.888426
11
0.399818
21
0.887919
0
LINE
8
BLACK
6
CONTINUOUS
10
0.399818
20
0.887919
11
0.399774
21
0.887873
0
LINE
8
BLACK
6
CONTINUOUS
10
0.399774
20
0.887873
11
0.396024
21
0.885998
0
LINE
8
BLACK
6
CONTINUOUS
10
0.396024
20
0.885998
11
0.395041
21
0.885706
0
LINE
8
BLACK
6
CONTINUOUS
10
0.395041
20
0.885706
11
0.39487
21
0.885747
0
LINE
8
BLACK
6
CONTINUOUS
10
0.39487
20
0.885747
11
0.394704
21
0.885686
0
LINE
8
BLACK
6
CONTINUOUS
10
0.394704
20
0.885686
11
0.392829
21
0.885686
0
LINE
8
BLACK
6
CONTINUOUS
10
0.392829
20
0.885686
11
0.391819
21
0.885864
0
LINE
8
BLACK
6
CONTINUOUS
10
0.391819
20
0.885864
11
0.391684
21
0.885978
0
LINE
8
BLACK
6
CONTINUOUS
10
0.391684
20
0.885978
11
0.391509
21
0.885998
0
LINE
8
BLACK
6
CONTINUOUS
10
0.391509
20
0.885998
11
0.387759
21
0.887873
0
LINE
8
BLACK
6
CONTINUOUS
10
0.387759
20
0.887873
11
0.38705
21
0.888399
0
LINE
8
BLACK
6
CONTINUOUS
10
0.38705
20
0.888399
11
0.386992
21
0.888426
0
LINE
8
BLACK
6
CONTINUOUS
10
0.386992
20
0.888426
11
0.385117
21
0.890301
0
LINE
8
BLACK
6
CONTINUOUS
10
0.385117
20
0.890301
11
0.384611
21
0.891023
0
LINE
8
BLACK
6
CONTINUOUS
10
0.384611
20
0.891023
11
0.384564
21
0.891068
0
LINE
8
BLACK
6
CONTINUOUS
10
0.384564
20
0.891068
11
0.382689
21
0.894817
0
LINE
8
BLACK
6
CONTINUOUS
10
0.382689
20
0.894817
11
0.382397
21
0.8958
0
LINE
8
BLACK
6
CONTINUOUS
10
0.382397
20
0.8958
11
0.382438
21
0.895972
0
LINE
8
BLACK
6
CONTINUOUS
10
0.382438
20
0.895972
11
0.382377
21
0.896138
0
LINE
8
BLACK
6
CONTINUOUS
10
0.382377
20
0.896138
11
0.382377
21
0.903637
0
LINE
8
BLACK
6
CONTINUOUS
10
0.382377
20
0.903637
11
0.382555
21
0.904647
0
LINE
8
BLACK
6
CONTINUOUS
10
0.382555
20
0.904647
11
0.382669
21
0.904782
0
LINE
8
BLACK
6
CONTINUOUS
10
0.382669
20
0.904782
11
0.382689
21
0.904958
0
LINE
8
BLACK
6
CONTINUOUS
10
0.382689
20
0.904958
11
0.384564
21
0.908707
0
LINE
8
BLACK
6
CONTINUOUS
10
0.384564
20
0.908707
11
0.38509
21
0.909416
0
LINE
8
BLACK
6
CONTINUOUS
10
0.38509
20
0.909416
11
0.385117
21
0.909474
0
LINE
8
BLACK
6
CONTINUOUS
10
0.385117
20
0.909474
11
0.386992
21
0.911349
0
LINE
8
BLACK
6
CONTINUOUS
10
0.386992
20
0.911349
11
0.387715
21
0.911856
0
LINE
8
BLACK
6
CONTINUOUS
10
0.387715
20
0.911856
11
0.387759
21
0.911902
0
LINE
8
BLACK
6
CONTINUOUS
10
0.387759
20
0.911902
11
0.391509
21
0.913777
0
LINE
8
BLACK
6
CONTINUOUS
10
0.391509
20
0.913777
11
0.392491
21
0.914069
0
LINE
8
BLACK
6
CONTINUOUS
10
0.392491
20
0.914069
11
0.392663
21
0.914028
0
LINE
8
BLACK
6
CONTINUOUS
10
0.392663
20
0.914028
11
0.392829
21
0.914089
0
LINE
8
BLACK
6
CONTINUOUS
10
0.392829
20
0.914089
11
0.394704
21
0.914089
0
LINE
8
BLACK
6
CONTINUOUS
10
0.394704
20
0.914089
11
0.395714
21
0.913911
0
LINE
8
BLACK
6
CONTINUOUS
10
0.410399
20
0.908183
11
0.407701
21
0.906835
0
LINE
8
BLACK
6
CONTINUOUS
10
0.407701
20
0.906835
11
0.406504
21
0.905637
0
LINE
8
BLACK
6
CONTINUOUS
10
0.406504
20
0.905637
11
0.405156
21
0.90294
0
LINE
8
BLACK
6
CONTINUOUS
10
0.405156
20
0.90294
11
0.405156
21
0.896835
0
LINE
8
BLACK
6
CONTINUOUS
10
0.405156
20
0.896835
11
0.406504
21
0.894138
0
LINE
8
BLACK
6
CONTINUOUS
10
0.406504
20
0.894138
11
0.407701
21
0.89294
0
LINE
8
BLACK
6
CONTINUOUS
10
0.407701
20
0.89294
11
0.410399
21
0.891592
0
LINE
8
BLACK
6
CONTINUOUS
10
0.410399
20
0.891592
11
0.416504
21
0.891592
0
LINE
8
BLACK
6
CONTINUOUS
10
0.416504
20
0.891592
11
0.419201
21
0.89294
0
LINE
8
BLACK
6
CONTINUOUS
10
0.419201
20
0.89294
11
0.420399
21
0.894138
0
LINE
8
BLACK
6
CONTINUOUS
10
0.420399
20
0.894138
11
0.421747
21
0.896835
0
LINE
8
BLACK
6
CONTINUOUS
10
0.421747
20
0.896835
11
0.421747
21
0.90294
0
LINE
8
BLACK
6
CONTINUOUS
10
0.421747
20
0.90294
11
0.420399
21
0.905637
0
LINE
8
BLACK
6
CONTINUOUS
10
0.420399
20
0.905637
11
0.419201
21
0.906835
0
LINE
8
BLACK
6
CONTINUOUS
10
0.419201
20
0.906835
11
0.416504
21
0.908183
0
LINE
8
BLACK
6
CONTINUOUS
10
0.416504
20
0.908183
11
0.410399
21
0.908183
0
LINE
8
BLACK
6
CONTINUOUS
10
0.393526
20
0.908183
11
0.390829
21
0.906835
0
LINE
8
BLACK
6
CONTINUOUS
10
0.390829
20
0.906835
11
0.389631
21
0.905637
0
LINE
8
BLACK
6
CONTINUOUS
10
0.389631
20
0.905637
11
0.388283
21
0.90294
0
LINE
8
BLACK
6
CONTINUOUS
10
0.388283
20
0.90294
11
0.388283
21
0.896835
0
LINE
8
BLACK
6
CONTINUOUS
10
0.388283
20
0.896835
11
0.389631
21
0.894138
0
LINE
8
BLACK
6
CONTINUOUS
10
0.389631
20
0.894138
11
0.390829
21
0.89294
0
LINE
8
BLACK
6
CONTINUOUS
10
0.390829
20
0.89294
11
0.393526
21
0.891592
0
LINE
8
BLACK
6
CONTINUOUS
10
0.393526
20
0.891592
11
0.394007
21
0.891592
0
LINE
8
BLACK
6
CONTINUOUS
10
0.394007
20
0.891592
11
0.396704
21
0.89294
0
LINE
8
BLACK
6
CONTINUOUS
10
0.396704
20
0.89294
11
0.397901
21
0.894138
0
LINE
8
BLACK
6
CONTINUOUS
10
0.397901
20
0.894138
11
0.39925
21
0.896835
0
LINE
8
BLACK
6
CONTINUOUS
10
0.39925
20
0.896835
11
0.39925
21
0.90294
0
LINE
8
BLACK
6
CONTINUOUS
10
0.39925
20
0.90294
11
0.397901
21
0.905637
0
LINE
8
BLACK
6
CONTINUOUS
10
0.397901
20
0.905637
11
0.396704
21
0.906835
0
LINE
8
BLACK
6
CONTINUOUS
10
0.396704
20
0.906835
11
0.394007
21
0.908183
0
LINE
8
BLACK
6
CONTINUOUS
10
0.394007
20
0.908183
11
0.393526
21
0.908183
0
LINE
8
BLACK
6
CONTINUOUS
10
1.08149
20
0.926194
11
1.08243
21
0.925787
0
LINE
8
BLACK
6
CONTINUOUS
10
1.08243
20
0.925787
11
1.08261
21
0.925539
0
LINE
8
BLACK
6
CONTINUOUS
10
1.08261
20
0.925539
11
1.08289
21
0.925407
0
LINE
8
BLACK
6
CONTINUOUS
10
1.08289
20
0.925407
11
1.0832
21
0.924749
0
LINE
8
BLACK
6
CONTINUOUS
10
1.0832
20
0.924749
11
1.08363
21
0.924166
0
LINE
8
BLACK
6
CONTINUOUS
10
1.08363
20
0.924166
11
1.08361
21
0.923857
0
LINE
8
BLACK
6
CONTINUOUS
10
1.08361
20
0.923857
11
1.08374
21
0.923576
0
LINE
8
BLACK
6
CONTINUOUS
10
1.08374
20
0.923576
11
1.08356
21
0.922875
0
LINE
8
BLACK
6
CONTINUOUS
10
1.08356
20
0.922875
11
1.08351
21
0.92215
0
LINE
8
BLACK
6
CONTINUOUS
10
1.08351
20
0.92215
11
1.0833
21
0.921925
0
LINE
8
BLACK
6
CONTINUOUS
10
1.0833
20
0.921925
11
1.08322
21
0.921626
0
LINE
8
BLACK
6
CONTINUOUS
10
1.08322
20
0.921626
11
1.08262
21
0.92121
0
LINE
8
BLACK
6
CONTINUOUS
10
1.08262
20
0.92121
11
1.08212
21
0.920682
0
LINE
8
BLACK
6
CONTINUOUS
10
1.08212
20
0.920682
11
1.08182
21
0.920646
0
LINE
8
BLACK
6
CONTINUOUS
10
1.08182
20
0.920646
11
1.08156
21
0.920469
0
LINE
8
BLACK
6
CONTINUOUS
10
1.08156
20
0.920469
11
1.06414
21
0.915823
0
LINE
8
BLACK
6
CONTINUOUS
10
1.06414
20
0.915823
11
1.08156
21
0.911177
0
LINE
8
BLACK
6
CONTINUOUS
10
1.08156
20
0.911177
11
1.08249
21
0.910745
0
LINE
8
BLACK
6
CONTINUOUS
10
1.08249
20
0.910745
11
1.08267
21
0.910491
0
LINE
8
BLACK
6
CONTINUOUS
10
1.08267
20
0.910491
11
1.08295
21
0.910352
0
LINE
8
BLACK
6
CONTINUOUS
10
1.08295
20
0.910352
11
1.08324
21
0.909686
0
LINE
8
BLACK
6
CONTINUOUS
10
1.08324
20
0.909686
11
1.08365
21
0.909092
0
LINE
8
BLACK
6
CONTINUOUS
10
1.08365
20
0.909092
11
1.08363
21
0.908783
0
LINE
8
BLACK
6
CONTINUOUS
10
1.08363
20
0.908783
11
1.08375
21
0.908499
0
LINE
8
BLACK
6
CONTINUOUS
10
1.08375
20
0.908499
11
1.08354
21
0.907803
0
LINE
8
BLACK
6
CONTINUOUS
10
1.08354
20
0.907803
11
1.08348
21
0.907079
0
LINE
8
BLACK
6
CONTINUOUS
10
1.08348
20
0.907079
11
1.08326
21
0.90686
0
LINE
8
BLACK
6
CONTINUOUS
10
1.08326
20
0.90686
11
1.08317
21
0.906563
0
LINE
8
BLACK
6
CONTINUOUS
10
1.08317
20
0.906563
11
1.08257
21
0.906164
0
LINE
8
BLACK
6
CONTINUOUS
10
1.08257
20
0.906164
11
1.08205
21
0.905649
0
LINE
8
BLACK
6
CONTINUOUS
10
1.08205
20
0.905649
11
1.08174
21
0.905622
0
LINE
8
BLACK
6
CONTINUOUS
10
1.08174
20
0.905622
11
1.08149
21
0.905451
0
LINE
8
BLACK
6
CONTINUOUS
10
1.08149
20
0.905451
11
1.04212
21
0.896078
0
LINE
8
BLACK
6
CONTINUOUS
10
1.04212
20
0.896078
11
1.04109
21
0.896017
0
LINE
8
BLACK
6
CONTINUOUS
10
1.04109
20
0.896017
11
1.03929
21
0.896922
0
LINE
8
BLACK
6
CONTINUOUS
10
1.03929
20
0.896922
11
1.03848
21
0.898775
0
LINE
8
BLACK
6
CONTINUOUS
10
1.03848
20
0.898775
11
1.03906
21
0.900711
0
LINE
8
BLACK
6
CONTINUOUS
10
1.03906
20
0.900711
11
1.04075
21
0.901823
0
LINE
8
BLACK
6
CONTINUOUS
10
1.04075
20
0.901823
11
1.06873
21
0.908486
0
LINE
8
BLACK
6
CONTINUOUS
10
1.06873
20
0.908486
11
1.05192
21
0.91297
0
LINE
8
BLACK
6
CONTINUOUS
10
1.05192
20
0.91297
11
1.05099
21
0.913402
0
LINE
8
BLACK
6
CONTINUOUS
10
1.05099
20
0.913402
11
1.05084
21
0.913623
0
LINE
8
BLACK
6
CONTINUOUS
10
1.05084
20
0.913623
11
1.05059
21
0.913738
0
LINE
8
BLACK
6
CONTINUOUS
10
1.05059
20
0.913738
11
1.05027
21
0.91443
0
LINE
8
BLACK
6
CONTINUOUS
10
1.05027
20
0.91443
11
1.04983
21
0.915055
0
LINE
8
BLACK
6
CONTINUOUS
10
1.04983
20
0.915055
11
1.04985
21
0.915324
0
LINE
8
BLACK
6
CONTINUOUS
10
1.04985
20
0.915324
11
1.04974
21
0.915569
0
LINE
8
BLACK
6
CONTINUOUS
10
1.04974
20
0.915569
11
1.04994
21
0.916307
0
LINE
8
BLACK
6
CONTINUOUS
10
1.04994
20
0.916307
11
1.05
21
0.917068
0
LINE
8
BLACK
6
CONTINUOUS
10
1.05
20
0.917068
11
1.05019
21
0.917259
0
LINE
8
BLACK
6
CONTINUOUS
10
1.05019
20
0.917259
11
1.05026
21
0.917519
0
LINE
8
BLACK
6
CONTINUOUS
10
1.05026
20
0.917519
11
1.05089
21
0.917957
0
LINE
8
BLACK
6
CONTINUOUS
10
1.05089
20
0.917957
11
1.05143
21
0.918498
0
LINE
8
BLACK
6
CONTINUOUS
10
1.05143
20
0.918498
11
1.0517
21
0.918521
0
LINE
8
BLACK
6
CONTINUOUS
10
1.0517
20
0.918521
11
1.05192
21
0.918676
0
LINE
8
BLACK
6
CONTINUOUS
10
1.05192
20
0.918676
11
1.06873
21
0.92316
0
LINE
8
BLACK
6
CONTINUOUS
10
1.06873
20
0.92316
11
1.04075
21
0.929823
0
LINE
8
BLACK
6
CONTINUOUS
10
1.04075
20
0.929823
11
1.03981
21
0.930231
0
LINE
8
BLACK
6
CONTINUOUS
10
1.03981
20
0.930231
11
1.0386
21
0.931852
0
LINE
8
BLACK
6
CONTINUOUS
10
1.0386
20
0.931852
11
1.03872
21
0.933868
0
LINE
8
BLACK
6
CONTINUOUS
10
1.03872
20
0.933868
11
1.04011
21
0.935336
0
LINE
8
BLACK
6
CONTINUOUS
10
1.04011
20
0.935336
11
1.04212
21
0.935568
0
LINE
8
BLACK
6
CONTINUOUS
10
1.04212
20
0.935568
11
1.08149
21
0.926194
0
LINE
8
BLACK
6
CONTINUOUS
10
0.587869
20
0.958846
11
0.58856
21
0.956948
0
LINE
8
BLACK
6
CONTINUOUS
10
0.58856
20
0.956948
11
0.58856
21
0.926952
0
LINE
8
BLACK
6
CONTINUOUS
10
0.58856
20
0.926952
11
0.588382
21
0.925942
0
LINE
8
BLACK
6
CONTINUOUS
10
0.588382
20
0.925942
11
0.587084
21
0.924394
0
LINE
8
BLACK
6
CONTINUOUS
10
0.587084
20
0.924394
11
0.585095
21
0.924044
0
LINE
8
BLACK
6
CONTINUOUS
10
0.585095
20
0.924044
11
0.583345
21
0.925054
0
LINE
8
BLACK
6
CONTINUOUS
10
0.583345
20
0.925054
11
0.582655
21
0.926952
0
LINE
8
BLACK
6
CONTINUOUS
10
0.582655
20
0.926952
11
0.582655
21
0.956948
0
LINE
8
BLACK
6
CONTINUOUS
10
0.582655
20
0.956948
11
0.582833
21
0.957958
0
LINE
8
BLACK
6
CONTINUOUS
10
0.582833
20
0.957958
11
0.584131
21
0.959505
0
LINE
8
BLACK
6
CONTINUOUS
10
0.584131
20
0.959505
11
0.58612
21
0.959856
0
LINE
8
BLACK
6
CONTINUOUS
10
0.58612
20
0.959856
11
0.587869
21
0.958846
0
LINE
8
BLACK
6
CONTINUOUS
10
1.06807
20
0.979588
11
1.06876
21
0.97769
0
LINE
8
BLACK
6
CONTINUOUS
10
1.06876
20
0.97769
11
1.06876
21
0.947694
0
LINE
8
BLACK
6
CONTINUOUS
10
1.06876
20
0.947694
11
1.06858
21
0.946684
0
LINE
8
BLACK
6
CONTINUOUS
10
1.06858
20
0.946684
11
1.06728
21
0.945137
0
LINE
8
BLACK
6
CONTINUOUS
10
1.06728
20
0.945137
11
1.06529
21
0.944786
0
LINE
8
BLACK
6
CONTINUOUS
10
1.06529
20
0.944786
11
1.06354
21
0.945796
0
LINE
8
BLACK
6
CONTINUOUS
10
1.06354
20
0.945796
11
1.06285
21
0.947694
0
LINE
8
BLACK
6
CONTINUOUS
10
1.06285
20
0.947694
11
1.06285
21
0.97769
0
LINE
8
BLACK
6
CONTINUOUS
10
1.06285
20
0.97769
11
1.06303
21
0.9787
0
LINE
8
BLACK
6
CONTINUOUS
10
1.06303
20
0.9787
11
1.06433
21
0.980247
0
LINE
8
BLACK
6
CONTINUOUS
10
1.06433
20
0.980247
11
1.06632
21
0.980598
0
LINE
8
BLACK
6
CONTINUOUS
10
1.06632
20
0.980598
11
1.06807
21
0.979588
0
LINE
8
BLACK
6
CONTINUOUS
10
0.601615
20
1.00472
11
0.603163
21
1.00342
0
LINE
8
BLACK
6
CONTINUOUS
10
0.603163
20
1.00342
11
0.603513
21
1.00143
0
LINE
8
BLACK
6
CONTINUOUS
10
0.603513
20
1.00143
11
0.602504
21
0.99968
0
LINE
8
BLACK
6
CONTINUOUS
10
0.602504
20
0.99968
11
0.600606
21
0.998989
0
LINE
8
BLACK
6
CONTINUOUS
10
0.600606
20
0.998989
11
0.574545
21
0.998989
0
LINE
8
BLACK
6
CONTINUOUS
10
0.574545
20
0.998989
11
0.590606
21
0.991495
0
LINE
8
BLACK
6
CONTINUOUS
10
0.590606
20
0.991495
11
0.590923
21
0.991272
0
LINE
8
BLACK
6
CONTINUOUS
10
0.590923
20
0.991272
11
0.59105
21
0.991238
0
LINE
8
BLACK
6
CONTINUOUS
10
0.59105
20
0.991238
11
0.591125
21
0.991131
0
LINE
8
BLACK
6
CONTINUOUS
10
0.591125
20
0.991131
11
0.591445
21
0.990906
0
LINE
8
BLACK
6
CONTINUOUS
10
0.591445
20
0.990906
11
0.591769
21
0.990212
0
LINE
8
BLACK
6
CONTINUOUS
10
0.591769
20
0.990212
11
0.592209
21
0.989584
0
LINE
8
BLACK
6
CONTINUOUS
10
0.592209
20
0.989584
11
0.592186
21
0.989318
0
LINE
8
BLACK
6
CONTINUOUS
10
0.592186
20
0.989318
11
0.592299
21
0.989075
0
LINE
8
BLACK
6
CONTINUOUS
10
0.592299
20
0.989075
11
0.5921
21
0.988335
0
LINE
8
BLACK
6
CONTINUOUS
10
0.5921
20
0.988335
11
0.592033
21
0.987572
0
LINE
8
BLACK
6
CONTINUOUS
10
0.592033
20
0.987572
11
0.591844
21
0.987383
0
LINE
8
BLACK
6
CONTINUOUS
10
0.591844
20
0.987383
11
0.591775
21
0.987125
0
LINE
8
BLACK
6
CONTINUOUS
10
0.591775
20
0.987125
11
0.591147
21
0.986685
0
LINE
8
BLACK
6
CONTINUOUS
10
0.591147
20
0.986685
11
0.590606
21
0.986143
0
LINE
8
BLACK
6
CONTINUOUS
10
0.590606
20
0.986143
11
0.574545
21
0.978648
0
LINE
8
BLACK
6
CONTINUOUS
10
0.574545
20
0.978648
11
0.600606
21
0.978648
0
LINE
8
BLACK
6
CONTINUOUS
10
0.600606
20
0.978648
11
0.601615
21
0.97847
0
LINE
8
BLACK
6
CONTINUOUS
10
0.601615
20
0.97847
11
0.603163
21
0.977172
0
LINE
8
BLACK
6
CONTINUOUS
10
0.603163
20
0.977172
11
0.603513
21
0.975183
0
LINE
8
BLACK
6
CONTINUOUS
10
0.603513
20
0.975183
11
0.602504
21
0.973434
0
LINE
8
BLACK
6
CONTINUOUS
10
0.602504
20
0.973434
11
0.600606
21
0.972743
0
LINE
8
BLACK
6
CONTINUOUS
10
0.600606
20
0.972743
11
0.561235
21
0.972743
0
LINE
8
BLACK
6
CONTINUOUS
10
0.561235
20
0.972743
11
0.560226
21
0.972921
0
LINE
8
BLACK
6
CONTINUOUS
10
0.560226
20
0.972921
11
0.559923
21
0.973174
0
LINE
8
BLACK
6
CONTINUOUS
10
0.559923
20
0.973174
11
0.559543
21
0.973276
0
LINE
8
BLACK
6
CONTINUOUS
10
0.559543
20
0.973276
11
0.559172
21
0.973804
0
LINE
8
BLACK
6
CONTINUOUS
10
0.559172
20
0.973804
11
0.558678
21
0.974219
0
LINE
8
BLACK
6
CONTINUOUS
10
0.558678
20
0.974219
11
0.55861
21
0.974607
0
LINE
8
BLACK
6
CONTINUOUS
10
0.55861
20
0.974607
11
0.558384
21
0.97493
0
LINE
8
BLACK
6
CONTINUOUS
10
0.558384
20
0.97493
11
0.55844
21
0.975573
0
LINE
8
BLACK
6
CONTINUOUS
10
0.55844
20
0.975573
11
0.558328
21
0.976208
0
LINE
8
BLACK
6
CONTINUOUS
10
0.558328
20
0.976208
11
0.558525
21
0.97655
0
LINE
8
BLACK
6
CONTINUOUS
10
0.558525
20
0.97655
11
0.558559
21
0.976943
0
LINE
8
BLACK
6
CONTINUOUS
10
0.558559
20
0.976943
11
0.559015
21
0.977399
0
LINE
8
BLACK
6
CONTINUOUS
10
0.559015
20
0.977399
11
0.559337
21
0.977957
0
LINE
8
BLACK
6
CONTINUOUS
10
0.559337
20
0.977957
11
0.559708
21
0.978092
0
LINE
8
BLACK
6
CONTINUOUS
10
0.559708
20
0.978092
11
0.559987
21
0.978371
0
LINE
8
BLACK
6
CONTINUOUS
10
0.559987
20
0.978371
11
0.582375
21
0.988819
0
LINE
8
BLACK
6
CONTINUOUS
10
0.582375
20
0.988819
11
0.559987
21
0.999266
0
LINE
8
BLACK
6
CONTINUOUS
10
0.559987
20
0.999266
11
0.559147
21
0.999855
0
LINE
8
BLACK
6
CONTINUOUS
10
0.559147
20
0.999855
11
0.55898
21
1.00021
0
LINE
8
BLACK
6
CONTINUOUS
10
0.55898
20
1.00021
11
0.558678
21
1.00047
0
LINE
8
BLACK
6
CONTINUOUS
10
0.558678
20
1.00047
11
0.558566
21
1.0011
0
LINE
8
BLACK
6
CONTINUOUS
10
0.558566
20
1.0011
11
0.558294
21
1.00169
0
LINE
8
BLACK
6
CONTINUOUS
10
0.558294
20
1.00169
11
0.558396
21
1.00207
0
LINE
8
BLACK
6
CONTINUOUS
10
0.558396
20
1.00207
11
0.558328
21
1.00245
0
LINE
8
BLACK
6
CONTINUOUS
10
0.558328
20
1.00245
11
0.55865
21
1.00301
0
LINE
8
BLACK
6
CONTINUOUS
10
0.55865
20
1.00301
11
0.558817
21
1.00364
0
LINE
8
BLACK
6
CONTINUOUS
10
0.558817
20
1.00364
11
0.55914
21
1.00386
0
LINE
8
BLACK
6
CONTINUOUS
10
0.55914
20
1.00386
11
0.559337
21
1.0042
0
LINE
8
BLACK
6
CONTINUOUS
10
0.559337
20
1.0042
11
0.559944
21
1.00442
0
LINE
8
BLACK
6
CONTINUOUS
10
0.559944
20
1.00442
11
0.560472
21
1.00479
0
LINE
8
BLACK
6
CONTINUOUS
10
0.560472
20
1.00479
11
0.560865
21
1.00476
0
LINE
8
BLACK
6
CONTINUOUS
10
0.560865
20
1.00476
11
0.561235
21
1.00489
0
LINE
8
BLACK
6
CONTINUOUS
10
0.561235
20
1.00489
11
0.600606
21
1.00489
0
LINE
8
BLACK
6
CONTINUOUS
10
0.600606
20
1.00489
11
0.601615
21
1.00472
0
LINE
8
BLACK
6
CONTINUOUS
10
1.04369
20
1.01708
11
1.04439
21
1.01519
0
LINE
8
BLACK
6
CONTINUOUS
10
1.04439
20
1.01519
11
1.04439
21
0.999391
0
LINE
8
BLACK
6
CONTINUOUS
10
1.04439
20
0.999391
11
1.05723
21
0.999391
0
LINE
8
BLACK
6
CONTINUOUS
10
1.05723
20
0.999391
11
1.05723
21
1.00956
0
LINE
8
BLACK
6
CONTINUOUS
10
1.05723
20
1.00956
11
1.05741
21
1.01057
0
LINE
8
BLACK
6
CONTINUOUS
10
1.05741
20
1.01057
11
1.0587
21
1.01212
0
LINE
8
BLACK
6
CONTINUOUS
10
1.0587
20
1.01212
11
1.06069
21
1.01247
0
LINE
8
BLACK
6
CONTINUOUS
10
1.06069
20
1.01247
11
1.06244
21
1.01146
0
LINE
8
BLACK
6
CONTINUOUS
10
1.06244
20
1.01146
11
1.06313
21
1.00956
0
LINE
8
BLACK
6
CONTINUOUS
10
1.06313
20
1.00956
11
1.06313
21
0.999391
0
LINE
8
BLACK
6
CONTINUOUS
10
1.06313
20
0.999391
11
1.0808
21
0.999391
0
LINE
8
BLACK
6
CONTINUOUS
10
1.0808
20
0.999391
11
1.08181
21
0.999213
0
LINE
8
BLACK
6
CONTINUOUS
10
1.08181
20
0.999213
11
1.08336
21
0.997914
0
LINE
8
BLACK
6
CONTINUOUS
10
1.08336
20
0.997914
11
1.08371
21
0.995925
0
LINE
8
BLACK
6
CONTINUOUS
10
1.08371
20
0.995925
11
1.0827
21
0.994176
0
LINE
8
BLACK
6
CONTINUOUS
10
1.0827
20
0.994176
11
1.0808
21
0.993485
0
LINE
8
BLACK
6
CONTINUOUS
10
1.0808
20
0.993485
11
1.04143
21
0.993485
0
LINE
8
BLACK
6
CONTINUOUS
10
1.04143
20
0.993485
11
1.04105
21
0.993553
0
LINE
8
BLACK
6
CONTINUOUS
10
1.04105
20
0.993553
11
1.04092
21
0.99353
0
LINE
8
BLACK
6
CONTINUOUS
10
1.04092
20
0.99353
11
1.04081
21
0.993596
0
LINE
8
BLACK
6
CONTINUOUS
10
1.04081
20
0.993596
11
1.04042
21
0.993663
0
LINE
8
BLACK
6
CONTINUOUS
10
1.04042
20
0.993663
11
1.03983
21
0.994156
0
LINE
8
BLACK
6
CONTINUOUS
10
1.03983
20
0.994156
11
1.03917
21
0.99454
0
LINE
8
BLACK
6
CONTINUOUS
10
1.03917
20
0.99454
11
1.03908
21
0.99479
0
LINE
8
BLACK
6
CONTINUOUS
10
1.03908
20
0.99479
11
1.03888
21
0.994962
0
LINE
8
BLACK
6
CONTINUOUS
10
1.03888
20
0.994962
11
1.03874
21
0.995717
0
LINE
8
BLACK
6
CONTINUOUS
10
1.03874
20
0.995717
11
1.03848
21
0.996438
0
LINE
8
BLACK
6
CONTINUOUS
10
1.03848
20
0.996438
11
1.03848
21
1.01519
0
LINE
8
BLACK
6
CONTINUOUS
10
1.03848
20
1.01519
11
1.03866
21
1.0162
0
LINE
8
BLACK
6
CONTINUOUS
10
1.03866
20
1.0162
11
1.03996
21
1.01774
0
LINE
8
BLACK
6
CONTINUOUS
10
1.03996
20
1.01774
11
1.04195
21
1.01809
0
LINE
8
BLACK
6
CONTINUOUS
10
1.04195
20
1.01809
11
1.04369
21
1.01708
  0
ENDSEC
  0
EOF
