  0
SECTION
  2
HEADER
  9
$ANGBASE
  50
0.0
  9
$ANGDIR
  70
1
  9
$MEASUREMENT
  70
0
  0
ENDSEC
  0
SECTION
  2
TABLES
  0
TABLE
  2
LTYPE
  70
4
  0
LTYPE
  5
40F
  2
CONTINUOUS
  70
0
  3
Solid line
  72
65
  73
0
  40
0.0
  0
LTYPE
  5
410
  2
DASHDOT
 70
0
  3
Dash Dot ____ _ ____ _
 72
65
 73
4
 40
2.0
 49
1.25
 49
-0.25
 49
0.25
 49
-0.25
  0
LTYPE
  5
411
  2
DASHED
 70
0
  3
Dashed __ __ __ __ __
 72
65
 73
2
 40
0.75
 49
0.5
 49
-0.25
  0
LTYPE
  5
43B
  2
DOTTED
 70
0
  3
Dotted .  .  .  .
 72
65
 73
2
 40
0.2
 49
0.0
 49
-0.2
  0
ENDTAB
  0
TABLE
  2
STYLE
  70
4
  0
STYLE
  2
KICAD
  70
0
  40
0
  41
1
  42
1
  50
0
  71
0
  3
isocp.shx
  0
STYLE
  2
KICADB
  70
0
  40
0
  41
1
  42
1
  50
0
  71
0
  3
isocp.shx
  0
STYLE
  2
KICADI
  70
0
  40
0
  41
1
  42
1
  50
15
  71
0
  3
isocp.shx
  0
STYLE
  2
KICADBI
  70
0
  40
0
  41
1
  42
1
  50
15
  71
0
  3
isocp.shx
  0
ENDTAB
  0
TABLE
  2
LAYER
  70
1
  0
LAYER
  2
BLACK
  70
0
  62
7
  6
CONTINUOUS
  0
ENDTAB
  0
ENDSEC
  0
SECTION
  2
ENTITIES
0
LINE
8
BLACK
6
CONTINUOUS
10
0.0204725
20
1.15914
11
0.022585
21
1.16097
0
LINE
8
BLACK
6
CONTINUOUS
10
0.022585
20
1.16097
11
0.0246457
21
1.16142
0
LINE
8
BLACK
6
CONTINUOUS
10
0.0246457
20
1.16142
11
1.74701
21
1.16142
0
LINE
8
BLACK
6
CONTINUOUS
10
1.74701
20
1.16142
11
1.74969
21
1.16063
0
LINE
8
BLACK
6
CONTINUOUS
10
1.74969
20
1.16063
11
1.75152
21
1.15852
0
LINE
8
BLACK
6
CONTINUOUS
10
1.75152
20
1.15852
11
1.75197
21
1.15646
0
LINE
8
BLACK
6
CONTINUOUS
10
1.75197
20
1.15646
11
1.75197
21
0.0246457
0
LINE
8
BLACK
6
CONTINUOUS
10
1.75197
20
0.0246457
11
1.75118
21
0.0219637
0
LINE
8
BLACK
6
CONTINUOUS
10
1.75118
20
0.0219637
11
1.74907
21
0.0201333
0
LINE
8
BLACK
6
CONTINUOUS
10
1.74907
20
0.0201333
11
1.74701
21
0.019685
0
LINE
8
BLACK
6
CONTINUOUS
10
1.74701
20
0.019685
11
0.0246457
21
0.019685
0
LINE
8
BLACK
6
CONTINUOUS
10
0.0246457
20
0.019685
11
0.0219637
21
0.0204725
0
LINE
8
BLACK
6
CONTINUOUS
10
0.0219637
20
0.0204725
11
0.0201333
21
0.022585
0
LINE
8
BLACK
6
CONTINUOUS
10
0.0201333
20
0.022585
11
0.019685
21
0.0246457
0
LINE
8
BLACK
6
CONTINUOUS
10
0.019685
20
0.0246457
11
0.019685
21
1.15646
0
LINE
8
BLACK
6
CONTINUOUS
10
0.019685
20
1.15646
11
0.0204725
21
1.15914
0
LINE
8
BLACK
6
CONTINUOUS
10
0.390042
20
0.240419
11
0.393847
21
0.231232
0
LINE
8
BLACK
6
CONTINUOUS
10
0.393847
20
0.231232
11
0.399043
21
0.222754
0
LINE
8
BLACK
6
CONTINUOUS
10
0.399043
20
0.222754
11
0.4055
21
0.215193
0
LINE
8
BLACK
6
CONTINUOUS
10
0.4055
20
0.215193
11
0.413061
21
0.208736
0
LINE
8
BLACK
6
CONTINUOUS
10
0.413061
20
0.208736
11
0.421539
21
0.20354
0
LINE
8
BLACK
6
CONTINUOUS
10
0.421539
20
0.20354
11
0.421719
21
0.203466
0
LINE
8
BLACK
6
CONTINUOUS
10
0.421719
20
0.203466
11
0.42172
21
0.203466
0
LINE
8
BLACK
6
CONTINUOUS
10
0.42172
20
0.203466
11
0.429101
21
0.200408
0
LINE
8
BLACK
6
CONTINUOUS
10
0.429101
20
0.200408
11
0.430726
21
0.199735
0
LINE
8
BLACK
6
CONTINUOUS
10
0.430726
20
0.199735
11
0.434087
21
0.198928
0
LINE
8
BLACK
6
CONTINUOUS
10
0.434087
20
0.198928
11
0.440205
21
0.197459
0
LINE
8
BLACK
6
CONTINUOUS
10
0.440205
20
0.197459
11
0.440205
21
0.197459
0
LINE
8
BLACK
6
CONTINUOUS
10
0.440205
20
0.197459
11
0.440394
21
0.197414
0
LINE
8
BLACK
6
CONTINUOUS
10
0.440394
20
0.197414
11
0.444305
21
0.197106
0
LINE
8
BLACK
6
CONTINUOUS
10
0.444305
20
0.197106
11
0.447709
21
0.196838
0
LINE
8
BLACK
6
CONTINUOUS
10
0.447709
20
0.196838
11
0.447709
21
0.196838
0
LINE
8
BLACK
6
CONTINUOUS
10
0.447709
20
0.196838
11
0.447806
21
0.196831
0
LINE
8
BLACK
6
CONTINUOUS
10
0.447806
20
0.196831
11
0.452808
21
0.196831
0
LINE
8
BLACK
6
CONTINUOUS
10
0.452808
20
0.196831
11
0.452905
21
0.196838
0
LINE
8
BLACK
6
CONTINUOUS
10
0.452905
20
0.196838
11
0.452905
21
0.196838
0
LINE
8
BLACK
6
CONTINUOUS
10
0.452905
20
0.196838
11
0.456309
21
0.197106
0
LINE
8
BLACK
6
CONTINUOUS
10
0.456309
20
0.197106
11
0.46022
21
0.197414
0
LINE
8
BLACK
6
CONTINUOUS
10
0.46022
20
0.197414
11
0.460409
21
0.197459
0
LINE
8
BLACK
6
CONTINUOUS
10
0.460409
20
0.197459
11
0.460409
21
0.197459
0
LINE
8
BLACK
6
CONTINUOUS
10
0.460409
20
0.197459
11
0.466527
21
0.198928
0
LINE
8
BLACK
6
CONTINUOUS
10
0.466527
20
0.198928
11
0.469888
21
0.199735
0
LINE
8
BLACK
6
CONTINUOUS
10
0.469888
20
0.199735
11
0.471513
21
0.200408
0
LINE
8
BLACK
6
CONTINUOUS
10
0.471513
20
0.200408
11
0.478895
21
0.203466
0
LINE
8
BLACK
6
CONTINUOUS
10
0.478895
20
0.203466
11
0.478895
21
0.203466
0
LINE
8
BLACK
6
CONTINUOUS
10
0.478895
20
0.203466
11
0.479075
21
0.20354
0
LINE
8
BLACK
6
CONTINUOUS
10
0.479075
20
0.20354
11
0.487553
21
0.208736
0
LINE
8
BLACK
6
CONTINUOUS
10
0.487553
20
0.208736
11
0.495114
21
0.215193
0
LINE
8
BLACK
6
CONTINUOUS
10
0.495114
20
0.215193
11
0.501571
21
0.222754
0
LINE
8
BLACK
6
CONTINUOUS
10
0.501571
20
0.222754
11
0.506767
21
0.231232
0
LINE
8
BLACK
6
CONTINUOUS
10
0.506767
20
0.231232
11
0.510572
21
0.240419
0
LINE
8
BLACK
6
CONTINUOUS
10
0.510572
20
0.240419
11
0.512893
21
0.250087
0
LINE
8
BLACK
6
CONTINUOUS
10
0.512893
20
0.250087
11
0.513673
21
0.26
0
LINE
8
BLACK
6
CONTINUOUS
10
0.513673
20
0.26
11
0.512893
21
0.269913
0
LINE
8
BLACK
6
CONTINUOUS
10
0.512893
20
0.269913
11
0.512813
21
0.270248
0
LINE
8
BLACK
6
CONTINUOUS
10
0.512813
20
0.270248
11
0.510617
21
0.279392
0
LINE
8
BLACK
6
CONTINUOUS
10
0.510617
20
0.279392
11
0.510572
21
0.279581
0
LINE
8
BLACK
6
CONTINUOUS
10
0.510572
20
0.279581
11
0.509471
21
0.282239
0
LINE
8
BLACK
6
CONTINUOUS
10
0.509471
20
0.282239
11
0.506841
21
0.288588
0
LINE
8
BLACK
6
CONTINUOUS
10
0.506841
20
0.288588
11
0.506841
21
0.288588
0
LINE
8
BLACK
6
CONTINUOUS
10
0.506841
20
0.288588
11
0.506767
21
0.288768
0
LINE
8
BLACK
6
CONTINUOUS
10
0.506767
20
0.288768
11
0.501571
21
0.297246
0
LINE
8
BLACK
6
CONTINUOUS
10
0.501571
20
0.297246
11
0.495933
21
0.303848
0
LINE
8
BLACK
6
CONTINUOUS
10
0.495933
20
0.303848
11
0.49524
21
0.304659
0
LINE
8
BLACK
6
CONTINUOUS
10
0.49524
20
0.304659
11
0.495114
21
0.304807
0
LINE
8
BLACK
6
CONTINUOUS
10
0.495114
20
0.304807
11
0.487553
21
0.311264
0
LINE
8
BLACK
6
CONTINUOUS
10
0.487553
20
0.311264
11
0.479075
21
0.31646
0
LINE
8
BLACK
6
CONTINUOUS
10
0.479075
20
0.31646
11
0.478895
21
0.316534
0
LINE
8
BLACK
6
CONTINUOUS
10
0.478895
20
0.316534
11
0.478895
21
0.316534
0
LINE
8
BLACK
6
CONTINUOUS
10
0.478895
20
0.316534
11
0.470068
21
0.32019
0
LINE
8
BLACK
6
CONTINUOUS
10
0.470068
20
0.32019
11
0.470068
21
0.32019
0
LINE
8
BLACK
6
CONTINUOUS
10
0.470068
20
0.32019
11
0.469888
21
0.320265
0
LINE
8
BLACK
6
CONTINUOUS
10
0.469888
20
0.320265
11
0.466527
21
0.321072
0
LINE
8
BLACK
6
CONTINUOUS
10
0.466527
20
0.321072
11
0.460409
21
0.322541
0
LINE
8
BLACK
6
CONTINUOUS
10
0.460409
20
0.322541
11
0.460409
21
0.322541
0
LINE
8
BLACK
6
CONTINUOUS
10
0.460409
20
0.322541
11
0.46022
21
0.322586
0
LINE
8
BLACK
6
CONTINUOUS
10
0.46022
20
0.322586
11
0.456309
21
0.322894
0
LINE
8
BLACK
6
CONTINUOUS
10
0.456309
20
0.322894
11
0.452905
21
0.323162
0
LINE
8
BLACK
6
CONTINUOUS
10
0.452905
20
0.323162
11
0.452905
21
0.323162
0
LINE
8
BLACK
6
CONTINUOUS
10
0.452905
20
0.323162
11
0.452808
21
0.323169
0
LINE
8
BLACK
6
CONTINUOUS
10
0.452808
20
0.323169
11
0.447806
21
0.323169
0
LINE
8
BLACK
6
CONTINUOUS
10
0.447806
20
0.323169
11
0.447709
21
0.323162
0
LINE
8
BLACK
6
CONTINUOUS
10
0.447709
20
0.323162
11
0.447709
21
0.323162
0
LINE
8
BLACK
6
CONTINUOUS
10
0.447709
20
0.323162
11
0.444305
21
0.322894
0
LINE
8
BLACK
6
CONTINUOUS
10
0.444305
20
0.322894
11
0.440394
21
0.322586
0
LINE
8
BLACK
6
CONTINUOUS
10
0.440394
20
0.322586
11
0.440205
21
0.322541
0
LINE
8
BLACK
6
CONTINUOUS
10
0.440205
20
0.322541
11
0.440205
21
0.322541
0
LINE
8
BLACK
6
CONTINUOUS
10
0.440205
20
0.322541
11
0.434087
21
0.321072
0
LINE
8
BLACK
6
CONTINUOUS
10
0.434087
20
0.321072
11
0.430726
21
0.320265
0
LINE
8
BLACK
6
CONTINUOUS
10
0.430726
20
0.320265
11
0.430546
21
0.32019
0
LINE
8
BLACK
6
CONTINUOUS
10
0.430546
20
0.32019
11
0.430546
21
0.32019
0
LINE
8
BLACK
6
CONTINUOUS
10
0.430546
20
0.32019
11
0.42172
21
0.316534
0
LINE
8
BLACK
6
CONTINUOUS
10
0.42172
20
0.316534
11
0.421719
21
0.316534
0
LINE
8
BLACK
6
CONTINUOUS
10
0.421719
20
0.316534
11
0.421539
21
0.31646
0
LINE
8
BLACK
6
CONTINUOUS
10
0.421539
20
0.31646
11
0.413061
21
0.311264
0
LINE
8
BLACK
6
CONTINUOUS
10
0.413061
20
0.311264
11
0.4055
21
0.304807
0
LINE
8
BLACK
6
CONTINUOUS
10
0.4055
20
0.304807
11
0.405374
21
0.304659
0
LINE
8
BLACK
6
CONTINUOUS
10
0.405374
20
0.304659
11
0.404681
21
0.303848
0
LINE
8
BLACK
6
CONTINUOUS
10
0.404681
20
0.303848
11
0.399043
21
0.297246
0
LINE
8
BLACK
6
CONTINUOUS
10
0.399043
20
0.297246
11
0.393847
21
0.288768
0
LINE
8
BLACK
6
CONTINUOUS
10
0.393847
20
0.288768
11
0.393773
21
0.288588
0
LINE
8
BLACK
6
CONTINUOUS
10
0.393773
20
0.288588
11
0.393773
21
0.288588
0
LINE
8
BLACK
6
CONTINUOUS
10
0.393773
20
0.288588
11
0.391143
21
0.282239
0
LINE
8
BLACK
6
CONTINUOUS
10
0.391143
20
0.282239
11
0.390042
21
0.279581
0
LINE
8
BLACK
6
CONTINUOUS
10
0.390042
20
0.279581
11
0.389997
21
0.279392
0
LINE
8
BLACK
6
CONTINUOUS
10
0.389997
20
0.279392
11
0.387802
21
0.270248
0
LINE
8
BLACK
6
CONTINUOUS
10
0.387802
20
0.270248
11
0.387721
21
0.269913
0
LINE
8
BLACK
6
CONTINUOUS
10
0.387721
20
0.269913
11
0.386941
21
0.26
0
LINE
8
BLACK
6
CONTINUOUS
10
0.386941
20
0.26
11
0.387721
21
0.250087
0
LINE
8
BLACK
6
CONTINUOUS
10
0.387721
20
0.250087
11
0.390042
21
0.240419
0
LINE
8
BLACK
6
CONTINUOUS
10
1.36165
20
0.638204
11
1.36165
21
0.638204
0
LINE
8
BLACK
6
CONTINUOUS
10
1.36165
20
0.638204
11
1.36428
21
0.631998
0
LINE
8
BLACK
6
CONTINUOUS
10
1.36428
20
0.631998
11
1.36453
21
0.631408
0
LINE
8
BLACK
6
CONTINUOUS
10
1.36453
20
0.631408
11
1.36887
21
0.625123
0
LINE
8
BLACK
6
CONTINUOUS
10
1.36887
20
0.625123
11
1.37438
21
0.619839
0
LINE
8
BLACK
6
CONTINUOUS
10
1.37438
20
0.619839
11
1.37709
21
0.618134
0
LINE
8
BLACK
6
CONTINUOUS
10
1.37709
20
0.618134
11
1.38063
21
0.615904
0
LINE
8
BLACK
6
CONTINUOUS
10
1.38063
20
0.615904
11
1.38063
21
0.615904
0
LINE
8
BLACK
6
CONTINUOUS
10
1.38063
20
0.615904
11
1.38084
21
0.61577
0
LINE
8
BLACK
6
CONTINUOUS
10
1.38084
20
0.61577
11
1.38799
21
0.613084
0
LINE
8
BLACK
6
CONTINUOUS
10
1.38799
20
0.613084
11
1.38824
21
0.613045
0
LINE
8
BLACK
6
CONTINUOUS
10
1.38824
20
0.613045
11
1.38824
21
0.613045
0
LINE
8
BLACK
6
CONTINUOUS
10
1.38824
20
0.613045
11
1.39176
21
0.612487
0
LINE
8
BLACK
6
CONTINUOUS
10
1.39176
20
0.612487
11
1.39553
21
0.61189
0
LINE
8
BLACK
6
CONTINUOUS
10
1.39553
20
0.61189
11
1.40316
21
0.612236
0
LINE
8
BLACK
6
CONTINUOUS
10
1.40316
20
0.612236
11
1.40635
21
0.613045
0
LINE
8
BLACK
6
CONTINUOUS
10
1.40635
20
0.613045
11
1.41031
21
0.614047
0
LINE
8
BLACK
6
CONTINUOUS
10
1.41031
20
0.614047
11
1.41031
21
0.614047
0
LINE
8
BLACK
6
CONTINUOUS
10
1.41031
20
0.614047
11
1.41056
21
0.614109
0
LINE
8
BLACK
6
CONTINUOUS
10
1.41056
20
0.614109
11
1.41399
21
0.61577
0
LINE
8
BLACK
6
CONTINUOUS
10
1.41399
20
0.61577
11
1.41721
21
0.617322
0
LINE
8
BLACK
6
CONTINUOUS
10
1.41721
20
0.617322
11
1.41721
21
0.617322
0
LINE
8
BLACK
6
CONTINUOUS
10
1.41721
20
0.617322
11
1.41743
21
0.617432
0
LINE
8
BLACK
6
CONTINUOUS
10
1.41743
20
0.617432
11
1.41763
21
0.617584
0
LINE
8
BLACK
6
CONTINUOUS
10
1.41763
20
0.617584
11
1.41763
21
0.617584
0
LINE
8
BLACK
6
CONTINUOUS
10
1.41763
20
0.617584
11
1.42292
21
0.621626
0
LINE
8
BLACK
6
CONTINUOUS
10
1.42292
20
0.621626
11
1.4235
21
0.622069
0
LINE
8
BLACK
6
CONTINUOUS
10
1.4235
20
0.622069
11
1.42754
21
0.626725
0
LINE
8
BLACK
6
CONTINUOUS
10
1.42754
20
0.626725
11
1.42834
21
0.627642
0
LINE
8
BLACK
6
CONTINUOUS
10
1.42834
20
0.627642
11
1.42834
21
0.627642
0
LINE
8
BLACK
6
CONTINUOUS
10
1.42834
20
0.627642
11
1.42851
21
0.627831
0
LINE
8
BLACK
6
CONTINUOUS
10
1.42851
20
0.627831
11
1.43225
21
0.634483
0
LINE
8
BLACK
6
CONTINUOUS
10
1.43225
20
0.634483
11
1.43459
21
0.641752
0
LINE
8
BLACK
6
CONTINUOUS
10
1.43459
20
0.641752
11
1.43541
21
0.649343
0
LINE
8
BLACK
6
CONTINUOUS
10
1.43541
20
0.649343
11
1.43541
21
0.649606
0
LINE
8
BLACK
6
CONTINUOUS
10
1.43541
20
0.649606
11
1.43535
21
0.650199
0
LINE
8
BLACK
6
CONTINUOUS
10
1.43535
20
0.650199
11
1.43467
21
0.656952
0
LINE
8
BLACK
6
CONTINUOUS
10
1.43467
20
0.656952
11
1.43467
21
0.656952
0
LINE
8
BLACK
6
CONTINUOUS
10
1.43467
20
0.656952
11
1.43464
21
0.657202
0
LINE
8
BLACK
6
CONTINUOUS
10
1.43464
20
0.657202
11
1.43236
21
0.664488
0
LINE
8
BLACK
6
CONTINUOUS
10
1.43236
20
0.664488
11
1.42866
21
0.671165
0
LINE
8
BLACK
6
CONTINUOUS
10
1.42866
20
0.671165
11
1.42369
21
0.676962
0
LINE
8
BLACK
6
CONTINUOUS
10
1.42369
20
0.676962
11
1.41766
21
0.681642
0
LINE
8
BLACK
6
CONTINUOUS
10
1.41766
20
0.681642
11
1.41081
21
0.685013
0
LINE
8
BLACK
6
CONTINUOUS
10
1.41081
20
0.685013
11
1.41056
21
0.685076
0
LINE
8
BLACK
6
CONTINUOUS
10
1.41056
20
0.685076
11
1.41056
21
0.685076
0
LINE
8
BLACK
6
CONTINUOUS
10
1.41056
20
0.685076
11
1.40366
21
0.686874
0
LINE
8
BLACK
6
CONTINUOUS
10
1.40366
20
0.686874
11
1.40366
21
0.686874
0
LINE
8
BLACK
6
CONTINUOUS
10
1.40366
20
0.686874
11
1.40342
21
0.686937
0
LINE
8
BLACK
6
CONTINUOUS
10
1.40342
20
0.686937
11
1.40014
21
0.687109
0
LINE
8
BLACK
6
CONTINUOUS
10
1.40014
20
0.687109
11
1.39604
21
0.687324
0
LINE
8
BLACK
6
CONTINUOUS
10
1.39604
20
0.687324
11
1.39604
21
0.687324
0
LINE
8
BLACK
6
CONTINUOUS
10
1.39604
20
0.687324
11
1.39579
21
0.687337
0
LINE
8
BLACK
6
CONTINUOUS
10
1.39579
20
0.687337
11
1.39031
21
0.686508
0
LINE
8
BLACK
6
CONTINUOUS
10
1.39031
20
0.686508
11
1.38849
21
0.686233
0
LINE
8
BLACK
6
CONTINUOUS
10
1.38849
20
0.686233
11
1.38849
21
0.686233
0
LINE
8
BLACK
6
CONTINUOUS
10
1.38849
20
0.686233
11
1.38824
21
0.686195
0
LINE
8
BLACK
6
CONTINUOUS
10
1.38824
20
0.686195
11
1.38801
21
0.686108
0
LINE
8
BLACK
6
CONTINUOUS
10
1.38801
20
0.686108
11
1.38801
21
0.686108
0
LINE
8
BLACK
6
CONTINUOUS
10
1.38801
20
0.686108
11
1.3852
21
0.685076
0
LINE
8
BLACK
6
CONTINUOUS
10
1.3852
20
0.685076
11
1.38108
21
0.683559
0
LINE
8
BLACK
6
CONTINUOUS
10
1.38108
20
0.683559
11
1.37459
21
0.679536
0
LINE
8
BLACK
6
CONTINUOUS
10
1.37459
20
0.679536
11
1.36904
21
0.67429
0
LINE
8
BLACK
6
CONTINUOUS
10
1.36904
20
0.67429
11
1.36466
21
0.668035
0
LINE
8
BLACK
6
CONTINUOUS
10
1.36466
20
0.668035
11
1.36302
21
0.664248
0
LINE
8
BLACK
6
CONTINUOUS
10
1.36302
20
0.664248
11
1.36241
21
0.662835
0
LINE
8
BLACK
6
CONTINUOUS
10
1.36241
20
0.662835
11
1.36163
21
0.661029
0
LINE
8
BLACK
6
CONTINUOUS
10
1.36163
20
0.661029
11
1.36158
21
0.660782
0
LINE
8
BLACK
6
CONTINUOUS
10
1.36158
20
0.660782
11
1.36158
21
0.660782
0
LINE
8
BLACK
6
CONTINUOUS
10
1.36158
20
0.660782
11
1.36031
21
0.654721
0
LINE
8
BLACK
6
CONTINUOUS
10
1.36031
20
0.654721
11
1.36007
21
0.653555
0
LINE
8
BLACK
6
CONTINUOUS
10
1.36007
20
0.653555
11
1.36006
21
0.650257
0
LINE
8
BLACK
6
CONTINUOUS
10
1.36006
20
0.650257
11
1.36005
21
0.646773
0
LINE
8
BLACK
6
CONTINUOUS
10
1.36005
20
0.646773
11
1.36004
21
0.64592
0
LINE
8
BLACK
6
CONTINUOUS
10
1.36004
20
0.64592
11
1.36155
21
0.638436
0
LINE
8
BLACK
6
CONTINUOUS
10
1.36155
20
0.638436
11
1.36165
21
0.638204
0
LINE
8
BLACK
6
CONTINUOUS
10
0.884309
20
0.649011
11
0.886928
21
0.649987
0
LINE
8
BLACK
6
CONTINUOUS
10
0.886928
20
0.649987
11
0.887281
21
0.65
0
LINE
8
BLACK
6
CONTINUOUS
10
0.887281
20
0.65
11
1.19504
21
0.65
0
LINE
8
BLACK
6
CONTINUOUS
10
1.19504
20
0.65
11
1.19517
21
0.650014
0
LINE
8
BLACK
6
CONTINUOUS
10
1.19517
20
0.650014
11
1.19517
21
0.650014
0
LINE
8
BLACK
6
CONTINUOUS
10
1.19517
20
0.650014
11
1.19703
21
0.650214
0
LINE
8
BLACK
6
CONTINUOUS
10
1.19703
20
0.650214
11
1.19703
21
0.650214
0
LINE
8
BLACK
6
CONTINUOUS
10
1.19703
20
0.650214
11
1.19716
21
0.650229
0
LINE
8
BLACK
6
CONTINUOUS
10
1.19716
20
0.650229
11
1.19729
21
0.650257
0
LINE
8
BLACK
6
CONTINUOUS
10
1.19729
20
0.650257
11
1.19916
21
0.650663
0
LINE
8
BLACK
6
CONTINUOUS
10
1.19916
20
0.650663
11
1.19916
21
0.650663
0
LINE
8
BLACK
6
CONTINUOUS
10
1.19916
20
0.650663
11
1.19923
21
0.650677
0
LINE
8
BLACK
6
CONTINUOUS
10
1.19923
20
0.650677
11
1.20026
21
0.65096
0
LINE
8
BLACK
6
CONTINUOUS
10
1.20026
20
0.65096
11
1.20186
21
0.651874
0
LINE
8
BLACK
6
CONTINUOUS
10
1.20186
20
0.651874
11
1.20344
21
0.65277
0
LINE
8
BLACK
6
CONTINUOUS
10
1.20344
20
0.65277
11
1.20344
21
0.65277
0
LINE
8
BLACK
6
CONTINUOUS
10
1.20344
20
0.65277
11
1.20365
21
0.652891
0
LINE
8
BLACK
6
CONTINUOUS
10
1.20365
20
0.652891
11
1.2047
21
0.653804
0
LINE
8
BLACK
6
CONTINUOUS
10
1.2047
20
0.653804
11
1.20568
21
0.654649
0
LINE
8
BLACK
6
CONTINUOUS
10
1.20568
20
0.654649
11
1.20568
21
0.654649
0
LINE
8
BLACK
6
CONTINUOUS
10
1.20568
20
0.654649
11
1.20576
21
0.654721
0
LINE
8
BLACK
6
CONTINUOUS
10
1.20576
20
0.654721
11
1.207
21
0.656004
0
LINE
8
BLACK
6
CONTINUOUS
10
1.207
20
0.656004
11
1.20881
21
0.659461
0
LINE
8
BLACK
6
CONTINUOUS
10
1.20881
20
0.659461
11
1.20959
21
0.662143
0
LINE
8
BLACK
6
CONTINUOUS
10
1.20959
20
0.662143
11
1.21
21
0.664961
0
LINE
8
BLACK
6
CONTINUOUS
10
1.21
20
0.664961
11
1.21
21
0.685044
0
LINE
8
BLACK
6
CONTINUOUS
10
1.21
20
0.685044
11
1.21079
21
0.687726
0
LINE
8
BLACK
6
CONTINUOUS
10
1.21079
20
0.687726
11
1.2129
21
0.689557
0
LINE
8
BLACK
6
CONTINUOUS
10
1.2129
20
0.689557
11
1.21415
21
0.689938
0
LINE
8
BLACK
6
CONTINUOUS
10
1.21415
20
0.689938
11
1.21575
21
0.690204
0
LINE
8
BLACK
6
CONTINUOUS
10
1.21575
20
0.690204
11
1.21908
21
0.69076
0
LINE
8
BLACK
6
CONTINUOUS
10
1.21908
20
0.69076
11
1.21908
21
0.69076
0
LINE
8
BLACK
6
CONTINUOUS
10
1.21908
20
0.69076
11
1.21926
21
0.690788
0
LINE
8
BLACK
6
CONTINUOUS
10
1.21926
20
0.690788
11
1.21942
21
0.690841
0
LINE
8
BLACK
6
CONTINUOUS
10
1.21942
20
0.690841
11
1.21942
21
0.690841
0
LINE
8
BLACK
6
CONTINUOUS
10
1.21942
20
0.690841
11
1.22974
21
0.694105
0
LINE
8
BLACK
6
CONTINUOUS
10
1.22974
20
0.694105
11
1.22974
21
0.694105
0
LINE
8
BLACK
6
CONTINUOUS
10
1.22974
20
0.694105
11
1.22991
21
0.694158
0
LINE
8
BLACK
6
CONTINUOUS
10
1.22991
20
0.694158
11
1.23007
21
0.694234
0
LINE
8
BLACK
6
CONTINUOUS
10
1.23007
20
0.694234
11
1.23007
21
0.694234
0
LINE
8
BLACK
6
CONTINUOUS
10
1.23007
20
0.694234
11
1.23983
21
0.698919
0
LINE
8
BLACK
6
CONTINUOUS
10
1.23983
20
0.698919
11
1.23983
21
0.69892
0
LINE
8
BLACK
6
CONTINUOUS
10
1.23983
20
0.69892
11
1.23999
21
0.698995
0
LINE
8
BLACK
6
CONTINUOUS
10
1.23999
20
0.698995
11
1.24596
21
0.702989
0
LINE
8
BLACK
6
CONTINUOUS
10
1.24596
20
0.702989
11
1.24913
21
0.705107
0
LINE
8
BLACK
6
CONTINUOUS
10
1.24913
20
0.705107
11
1.24913
21
0.705107
0
LINE
8
BLACK
6
CONTINUOUS
10
1.24913
20
0.705107
11
1.24928
21
0.705204
0
LINE
8
BLACK
6
CONTINUOUS
10
1.24928
20
0.705204
11
1.24941
21
0.705321
0
LINE
8
BLACK
6
CONTINUOUS
10
1.24941
20
0.705321
11
1.24941
21
0.705321
0
LINE
8
BLACK
6
CONTINUOUS
10
1.24941
20
0.705321
11
1.25747
21
0.712543
0
LINE
8
BLACK
6
CONTINUOUS
10
1.25747
20
0.712543
11
1.25747
21
0.712543
0
LINE
8
BLACK
6
CONTINUOUS
10
1.25747
20
0.712543
11
1.2576
21
0.71266
0
LINE
8
BLACK
6
CONTINUOUS
10
1.2576
20
0.71266
11
1.26479
21
0.721214
0
LINE
8
BLACK
6
CONTINUOUS
10
1.26479
20
0.721214
11
1.27071
21
0.730697
0
LINE
8
BLACK
6
CONTINUOUS
10
1.27071
20
0.730697
11
1.27522
21
0.740918
0
LINE
8
BLACK
6
CONTINUOUS
10
1.27522
20
0.740918
11
1.27674
21
0.746295
0
LINE
8
BLACK
6
CONTINUOUS
10
1.27674
20
0.746295
11
1.27821
21
0.751504
0
LINE
8
BLACK
6
CONTINUOUS
10
1.27821
20
0.751504
11
1.27821
21
0.751504
0
LINE
8
BLACK
6
CONTINUOUS
10
1.27821
20
0.751504
11
1.27826
21
0.751673
0
LINE
8
BLACK
6
CONTINUOUS
10
1.27826
20
0.751673
11
1.27975
21
0.762749
0
LINE
8
BLACK
6
CONTINUOUS
10
1.27975
20
0.762749
11
1.2799
21
0.767717
0
LINE
8
BLACK
6
CONTINUOUS
10
1.2799
20
0.767717
11
1.27911
21
0.778864
0
LINE
8
BLACK
6
CONTINUOUS
10
1.27911
20
0.778864
11
1.27676
21
0.789789
0
LINE
8
BLACK
6
CONTINUOUS
10
1.27676
20
0.789789
11
1.27289
21
0.800273
0
LINE
8
BLACK
6
CONTINUOUS
10
1.27289
20
0.800273
11
1.26759
21
0.810108
0
LINE
8
BLACK
6
CONTINUOUS
10
1.26759
20
0.810108
11
1.26095
21
0.819097
0
LINE
8
BLACK
6
CONTINUOUS
10
1.26095
20
0.819097
11
1.25925
21
0.820824
0
LINE
8
BLACK
6
CONTINUOUS
10
1.25925
20
0.820824
11
1.25323
21
0.826936
0
LINE
8
BLACK
6
CONTINUOUS
10
1.25323
20
0.826936
11
1.25311
21
0.827061
0
LINE
8
BLACK
6
CONTINUOUS
10
1.25311
20
0.827061
11
1.25297
21
0.827167
0
LINE
8
BLACK
6
CONTINUOUS
10
1.25297
20
0.827167
11
1.25297
21
0.827168
0
LINE
8
BLACK
6
CONTINUOUS
10
1.25297
20
0.827168
11
1.24436
21
0.833734
0
LINE
8
BLACK
6
CONTINUOUS
10
1.24436
20
0.833734
11
1.24436
21
0.833734
0
LINE
8
BLACK
6
CONTINUOUS
10
1.24436
20
0.833734
11
1.24422
21
0.833841
0
LINE
8
BLACK
6
CONTINUOUS
10
1.24422
20
0.833841
11
1.23447
21
0.839301
0
LINE
8
BLACK
6
CONTINUOUS
10
1.23447
20
0.839301
11
1.22405
21
0.843333
0
LINE
8
BLACK
6
CONTINUOUS
10
1.22405
20
0.843333
11
1.22388
21
0.843373
0
LINE
8
BLACK
6
CONTINUOUS
10
1.22388
20
0.843373
11
1.22388
21
0.843373
0
LINE
8
BLACK
6
CONTINUOUS
10
1.22388
20
0.843373
11
1.21384
21
0.8457
0
LINE
8
BLACK
6
CONTINUOUS
10
1.21384
20
0.8457
11
1.21141
21
0.847073
0
LINE
8
BLACK
6
CONTINUOUS
10
1.21141
20
0.847073
11
1.2101
21
0.849544
0
LINE
8
BLACK
6
CONTINUOUS
10
1.2101
20
0.849544
11
1.21
21
0.850532
0
LINE
8
BLACK
6
CONTINUOUS
10
1.21
20
0.850532
11
1.21
21
0.855039
0
LINE
8
BLACK
6
CONTINUOUS
10
1.21
20
0.855039
11
1.20998
21
0.855215
0
LINE
8
BLACK
6
CONTINUOUS
10
1.20998
20
0.855215
11
1.20979
21
0.857033
0
LINE
8
BLACK
6
CONTINUOUS
10
1.20979
20
0.857033
11
1.20979
21
0.857033
0
LINE
8
BLACK
6
CONTINUOUS
10
1.20979
20
0.857033
11
1.20977
21
0.857165
0
LINE
8
BLACK
6
CONTINUOUS
10
1.20977
20
0.857165
11
1.20961
21
0.857904
0
LINE
8
BLACK
6
CONTINUOUS
10
1.20961
20
0.857904
11
1.20934
21
0.859161
0
LINE
8
BLACK
6
CONTINUOUS
10
1.20934
20
0.859161
11
1.20934
21
0.859161
0
LINE
8
BLACK
6
CONTINUOUS
10
1.20934
20
0.859161
11
1.20932
21
0.859226
0
LINE
8
BLACK
6
CONTINUOUS
10
1.20932
20
0.859226
11
1.20904
21
0.860258
0
LINE
8
BLACK
6
CONTINUOUS
10
1.20904
20
0.860258
11
1.20752
21
0.862932
0
LINE
8
BLACK
6
CONTINUOUS
10
1.20752
20
0.862932
11
1.20723
21
0.863437
0
LINE
8
BLACK
6
CONTINUOUS
10
1.20723
20
0.863437
11
1.20723
21
0.863437
0
LINE
8
BLACK
6
CONTINUOUS
10
1.20723
20
0.863437
11
1.20711
21
0.863649
0
LINE
8
BLACK
6
CONTINUOUS
10
1.20711
20
0.863649
11
1.2057
21
0.865279
0
LINE
8
BLACK
6
CONTINUOUS
10
1.2057
20
0.865279
11
1.20535
21
0.865678
0
LINE
8
BLACK
6
CONTINUOUS
10
1.20535
20
0.865678
11
1.20535
21
0.865678
0
LINE
8
BLACK
6
CONTINUOUS
10
1.20535
20
0.865678
11
1.20528
21
0.865761
0
LINE
8
BLACK
6
CONTINUOUS
10
1.20528
20
0.865761
11
1.204
21
0.866999
0
LINE
8
BLACK
6
CONTINUOUS
10
1.204
20
0.866999
11
1.20054
21
0.868807
0
LINE
8
BLACK
6
CONTINUOUS
10
1.20054
20
0.868807
11
1.19786
21
0.869595
0
LINE
8
BLACK
6
CONTINUOUS
10
1.19786
20
0.869595
11
1.19768
21
0.86962
0
LINE
8
BLACK
6
CONTINUOUS
10
1.19768
20
0.86962
11
1.19768
21
0.86962
0
LINE
8
BLACK
6
CONTINUOUS
10
1.19768
20
0.86962
11
1.19645
21
0.869797
0
LINE
8
BLACK
6
CONTINUOUS
10
1.19645
20
0.869797
11
1.19504
21
0.87
0
LINE
8
BLACK
6
CONTINUOUS
10
1.19504
20
0.87
11
0.524961
21
0.87
0
LINE
8
BLACK
6
CONTINUOUS
10
0.524961
20
0.87
11
0.524829
21
0.869986
0
LINE
8
BLACK
6
CONTINUOUS
10
0.524829
20
0.869986
11
0.524829
21
0.869986
0
LINE
8
BLACK
6
CONTINUOUS
10
0.524829
20
0.869986
11
0.522967
21
0.869786
0
LINE
8
BLACK
6
CONTINUOUS
10
0.522967
20
0.869786
11
0.522967
21
0.869786
0
LINE
8
BLACK
6
CONTINUOUS
10
0.522967
20
0.869786
11
0.522835
21
0.869771
0
LINE
8
BLACK
6
CONTINUOUS
10
0.522835
20
0.869771
11
0.522705
21
0.869743
0
LINE
8
BLACK
6
CONTINUOUS
10
0.522705
20
0.869743
11
0.522705
21
0.869743
0
LINE
8
BLACK
6
CONTINUOUS
10
0.522705
20
0.869743
11
0.520839
21
0.869337
0
LINE
8
BLACK
6
CONTINUOUS
10
0.520839
20
0.869337
11
0.520839
21
0.869337
0
LINE
8
BLACK
6
CONTINUOUS
10
0.520839
20
0.869337
11
0.520774
21
0.869323
0
LINE
8
BLACK
6
CONTINUOUS
10
0.520774
20
0.869323
11
0.519742
21
0.86904
0
LINE
8
BLACK
6
CONTINUOUS
10
0.519742
20
0.86904
11
0.518137
21
0.868126
0
LINE
8
BLACK
6
CONTINUOUS
10
0.518137
20
0.868126
11
0.516563
21
0.86723
0
LINE
8
BLACK
6
CONTINUOUS
10
0.516563
20
0.86723
11
0.516563
21
0.86723
0
LINE
8
BLACK
6
CONTINUOUS
10
0.516563
20
0.86723
11
0.516351
21
0.867109
0
LINE
8
BLACK
6
CONTINUOUS
10
0.516351
20
0.867109
11
0.51594
21
0.866753
0
LINE
8
BLACK
6
CONTINUOUS
10
0.51594
20
0.866753
11
0.514738
21
0.865711
0
LINE
8
BLACK
6
CONTINUOUS
10
0.514738
20
0.865711
11
0.514239
21
0.865279
0
LINE
8
BLACK
6
CONTINUOUS
10
0.514239
20
0.865279
11
0.513001
21
0.863996
0
LINE
8
BLACK
6
CONTINUOUS
10
0.513001
20
0.863996
11
0.511193
21
0.860539
0
LINE
8
BLACK
6
CONTINUOUS
10
0.511193
20
0.860539
11
0.510405
21
0.857857
0
LINE
8
BLACK
6
CONTINUOUS
10
0.510405
20
0.857857
11
0.51
21
0.855039
0
LINE
8
BLACK
6
CONTINUOUS
10
0.51
20
0.855039
11
0.51
21
0.849267
0
LINE
8
BLACK
6
CONTINUOUS
10
0.51
20
0.849267
11
0.509213
21
0.846585
0
LINE
8
BLACK
6
CONTINUOUS
10
0.509213
20
0.846585
11
0.5071
21
0.844754
0
LINE
8
BLACK
6
CONTINUOUS
10
0.5071
20
0.844754
11
0.506007
21
0.844401
0
LINE
8
BLACK
6
CONTINUOUS
10
0.506007
20
0.844401
11
0.504747
21
0.844151
0
LINE
8
BLACK
6
CONTINUOUS
10
0.504747
20
0.844151
11
0.504124
21
0.844027
0
LINE
8
BLACK
6
CONTINUOUS
10
0.504124
20
0.844027
11
0.503958
21
0.843969
0
LINE
8
BLACK
6
CONTINUOUS
10
0.503958
20
0.843969
11
0.493746
21
0.840382
0
LINE
8
BLACK
6
CONTINUOUS
10
0.493746
20
0.840382
11
0.493746
21
0.840382
0
LINE
8
BLACK
6
CONTINUOUS
10
0.493746
20
0.840382
11
0.49358
21
0.840324
0
LINE
8
BLACK
6
CONTINUOUS
10
0.49358
20
0.840324
11
0.493424
21
0.840243
0
LINE
8
BLACK
6
CONTINUOUS
10
0.493424
20
0.840243
11
0.493424
21
0.840243
0
LINE
8
BLACK
6
CONTINUOUS
10
0.493424
20
0.840243
11
0.491733
21
0.839364
0
LINE
8
BLACK
6
CONTINUOUS
10
0.491733
20
0.839364
11
0.483663
21
0.835172
0
LINE
8
BLACK
6
CONTINUOUS
10
0.483663
20
0.835172
11
0.483521
21
0.835071
0
LINE
8
BLACK
6
CONTINUOUS
10
0.483521
20
0.835071
11
0.48352
21
0.835071
0
LINE
8
BLACK
6
CONTINUOUS
10
0.48352
20
0.835071
11
0.474713
21
0.828777
0
LINE
8
BLACK
6
CONTINUOUS
10
0.474713
20
0.828777
11
0.474713
21
0.828777
0
LINE
8
BLACK
6
CONTINUOUS
10
0.474713
20
0.828777
11
0.474571
21
0.828675
0
LINE
8
BLACK
6
CONTINUOUS
10
0.474571
20
0.828675
11
0.466485
21
0.820961
0
LINE
8
BLACK
6
CONTINUOUS
10
0.466485
20
0.820961
11
0.459566
21
0.812185
0
LINE
8
BLACK
6
CONTINUOUS
10
0.459566
20
0.812185
11
0.453953
21
0.802522
0
LINE
8
BLACK
6
CONTINUOUS
10
0.453953
20
0.802522
11
0.453888
21
0.80236
0
LINE
8
BLACK
6
CONTINUOUS
10
0.453888
20
0.80236
11
0.453888
21
0.80236
0
LINE
8
BLACK
6
CONTINUOUS
10
0.453888
20
0.80236
11
0.452976
21
0.800109
0
LINE
8
BLACK
6
CONTINUOUS
10
0.452976
20
0.800109
11
0.449758
21
0.792164
0
LINE
8
BLACK
6
CONTINUOUS
10
0.449758
20
0.792164
11
0.447064
21
0.781319
0
LINE
8
BLACK
6
CONTINUOUS
10
0.447064
20
0.781319
11
0.445925
21
0.770202
0
LINE
8
BLACK
6
CONTINUOUS
10
0.445925
20
0.770202
11
0.446364
21
0.759035
0
LINE
8
BLACK
6
CONTINUOUS
10
0.446364
20
0.759035
11
0.448371
21
0.748042
0
LINE
8
BLACK
6
CONTINUOUS
10
0.448371
20
0.748042
11
0.451908
21
0.737441
0
LINE
8
BLACK
6
CONTINUOUS
10
0.451908
20
0.737441
11
0.456903
21
0.727444
0
LINE
8
BLACK
6
CONTINUOUS
10
0.456903
20
0.727444
11
0.457003
21
0.7273
0
LINE
8
BLACK
6
CONTINUOUS
10
0.457003
20
0.7273
11
0.461106
21
0.721363
0
LINE
8
BLACK
6
CONTINUOUS
10
0.461106
20
0.721363
11
0.463257
21
0.718251
0
LINE
8
BLACK
6
CONTINUOUS
10
0.463257
20
0.718251
11
0.470843
21
0.710045
0
LINE
8
BLACK
6
CONTINUOUS
10
0.470843
20
0.710045
11
0.479509
21
0.702989
0
LINE
8
BLACK
6
CONTINUOUS
10
0.479509
20
0.702989
11
0.479659
21
0.702899
0
LINE
8
BLACK
6
CONTINUOUS
10
0.479659
20
0.702899
11
0.479659
21
0.702899
0
LINE
8
BLACK
6
CONTINUOUS
10
0.479659
20
0.702899
11
0.488933
21
0.697316
0
LINE
8
BLACK
6
CONTINUOUS
10
0.488933
20
0.697316
11
0.489083
21
0.697225
0
LINE
8
BLACK
6
CONTINUOUS
10
0.489083
20
0.697225
11
0.489244
21
0.697157
0
LINE
8
BLACK
6
CONTINUOUS
10
0.489244
20
0.697157
11
0.489244
21
0.697157
0
LINE
8
BLACK
6
CONTINUOUS
10
0.489244
20
0.697157
11
0.496451
21
0.694105
0
LINE
8
BLACK
6
CONTINUOUS
10
0.496451
20
0.694105
11
0.499374
21
0.692868
0
LINE
8
BLACK
6
CONTINUOUS
10
0.499374
20
0.692868
11
0.499543
21
0.692823
0
LINE
8
BLACK
6
CONTINUOUS
10
0.499543
20
0.692823
11
0.499543
21
0.692823
0
LINE
8
BLACK
6
CONTINUOUS
10
0.499543
20
0.692823
11
0.506311
21
0.691028
0
LINE
8
BLACK
6
CONTINUOUS
10
0.506311
20
0.691028
11
0.508701
21
0.68958
0
LINE
8
BLACK
6
CONTINUOUS
10
0.508701
20
0.68958
11
0.509929
21
0.687069
0
LINE
8
BLACK
6
CONTINUOUS
10
0.509929
20
0.687069
11
0.51
21
0.686233
0
LINE
8
BLACK
6
CONTINUOUS
10
0.51
20
0.686233
11
0.51
21
0.664961
0
LINE
8
BLACK
6
CONTINUOUS
10
0.51
20
0.664961
11
0.510014
21
0.664829
0
LINE
8
BLACK
6
CONTINUOUS
10
0.510014
20
0.664829
11
0.510014
21
0.664829
0
LINE
8
BLACK
6
CONTINUOUS
10
0.510014
20
0.664829
11
0.510212
21
0.66299
0
LINE
8
BLACK
6
CONTINUOUS
10
0.510212
20
0.66299
11
0.510229
21
0.662835
0
LINE
8
BLACK
6
CONTINUOUS
10
0.510229
20
0.662835
11
0.510257
21
0.662705
0
LINE
8
BLACK
6
CONTINUOUS
10
0.510257
20
0.662705
11
0.510257
21
0.662705
0
LINE
8
BLACK
6
CONTINUOUS
10
0.510257
20
0.662705
11
0.510621
21
0.661029
0
LINE
8
BLACK
6
CONTINUOUS
10
0.510621
20
0.661029
11
0.510677
21
0.660774
0
LINE
8
BLACK
6
CONTINUOUS
10
0.510677
20
0.660774
11
0.51096
21
0.659742
0
LINE
8
BLACK
6
CONTINUOUS
10
0.51096
20
0.659742
11
0.511874
21
0.658137
0
LINE
8
BLACK
6
CONTINUOUS
10
0.511874
20
0.658137
11
0.51277
21
0.656563
0
LINE
8
BLACK
6
CONTINUOUS
10
0.51277
20
0.656563
11
0.51277
21
0.656563
0
LINE
8
BLACK
6
CONTINUOUS
10
0.51277
20
0.656563
11
0.512891
21
0.656351
0
LINE
8
BLACK
6
CONTINUOUS
10
0.512891
20
0.656351
11
0.513413
21
0.655749
0
LINE
8
BLACK
6
CONTINUOUS
10
0.513413
20
0.655749
11
0.514366
21
0.654649
0
LINE
8
BLACK
6
CONTINUOUS
10
0.514366
20
0.654649
11
0.514721
21
0.654239
0
LINE
8
BLACK
6
CONTINUOUS
10
0.514721
20
0.654239
11
0.516004
21
0.653001
0
LINE
8
BLACK
6
CONTINUOUS
10
0.516004
20
0.653001
11
0.519461
21
0.651193
0
LINE
8
BLACK
6
CONTINUOUS
10
0.519461
20
0.651193
11
0.522143
21
0.650405
0
LINE
8
BLACK
6
CONTINUOUS
10
0.522143
20
0.650405
11
0.522319
21
0.65038
0
LINE
8
BLACK
6
CONTINUOUS
10
0.522319
20
0.65038
11
0.522319
21
0.65038
0
LINE
8
BLACK
6
CONTINUOUS
10
0.522319
20
0.65038
11
0.523471
21
0.650214
0
LINE
8
BLACK
6
CONTINUOUS
10
0.523471
20
0.650214
11
0.524961
21
0.65
0
LINE
8
BLACK
6
CONTINUOUS
10
0.524961
20
0.65
11
0.819557
21
0.65
0
LINE
8
BLACK
6
CONTINUOUS
10
0.819557
20
0.65
11
0.819999
21
0.65002
0
LINE
8
BLACK
6
CONTINUOUS
10
0.819999
20
0.65002
11
0.820385
21
0.650037
0
LINE
8
BLACK
6
CONTINUOUS
10
0.820385
20
0.650037
11
0.820385
21
0.650037
0
LINE
8
BLACK
6
CONTINUOUS
10
0.820385
20
0.650037
11
0.820441
21
0.650039
0
LINE
8
BLACK
6
CONTINUOUS
10
0.820441
20
0.650039
11
0.821315
21
0.650117
0
LINE
8
BLACK
6
CONTINUOUS
10
0.821315
20
0.650117
11
0.821606
21
0.650199
0
LINE
8
BLACK
6
CONTINUOUS
10
0.821606
20
0.650199
11
0.82164
21
0.650199
0
LINE
8
BLACK
6
CONTINUOUS
10
0.82164
20
0.650199
11
0.821766
21
0.650222
0
LINE
8
BLACK
6
CONTINUOUS
10
0.821766
20
0.650222
11
0.821771
21
0.650197
0
LINE
8
BLACK
6
CONTINUOUS
10
0.821771
20
0.650197
11
0.824401
21
0.650171
0
LINE
8
BLACK
6
CONTINUOUS
10
0.824401
20
0.650171
11
0.826737
21
0.648636
0
LINE
8
BLACK
6
CONTINUOUS
10
0.826737
20
0.648636
11
0.827303
21
0.647815
0
LINE
8
BLACK
6
CONTINUOUS
10
0.827303
20
0.647815
11
0.828994
21
0.644738
0
LINE
8
BLACK
6
CONTINUOUS
10
0.828994
20
0.644738
11
0.83345
21
0.639994
0
LINE
8
BLACK
6
CONTINUOUS
10
0.83345
20
0.639994
11
0.835025
21
0.638994
0
LINE
8
BLACK
6
CONTINUOUS
10
0.835025
20
0.638994
11
0.836382
21
0.638133
0
LINE
8
BLACK
6
CONTINUOUS
10
0.836382
20
0.638133
11
0.837367
21
0.637312
0
LINE
8
BLACK
6
CONTINUOUS
10
0.837367
20
0.637312
11
0.838437
21
0.636154
0
LINE
8
BLACK
6
CONTINUOUS
10
0.838437
20
0.636154
11
0.838437
21
0.636154
0
LINE
8
BLACK
6
CONTINUOUS
10
0.838437
20
0.636154
11
0.838689
21
0.635882
0
LINE
8
BLACK
6
CONTINUOUS
10
0.838689
20
0.635882
11
0.83893
21
0.635742
0
LINE
8
BLACK
6
CONTINUOUS
10
0.83893
20
0.635742
11
0.83915
21
0.635544
0
LINE
8
BLACK
6
CONTINUOUS
10
0.83915
20
0.635544
11
0.871419
21
0.603275
0
LINE
8
BLACK
6
CONTINUOUS
10
0.871419
20
0.603275
11
0.871807
21
0.602839
0
LINE
8
BLACK
6
CONTINUOUS
10
0.871807
20
0.602839
11
0.872616
21
0.601813
0
LINE
8
BLACK
6
CONTINUOUS
10
0.872616
20
0.601813
11
0.874535
21
0.600486
0
LINE
8
BLACK
6
CONTINUOUS
10
0.874535
20
0.600486
11
0.87466
21
0.600397
0
LINE
8
BLACK
6
CONTINUOUS
10
0.87466
20
0.600397
11
0.876535
21
0.599012
0
LINE
8
BLACK
6
CONTINUOUS
10
0.876535
20
0.599012
11
0.876805
21
0.598917
0
LINE
8
BLACK
6
CONTINUOUS
10
0.876805
20
0.598917
11
0.877041
21
0.598754
0
LINE
8
BLACK
6
CONTINUOUS
10
0.877041
20
0.598754
11
0.879264
21
0.598051
0
LINE
8
BLACK
6
CONTINUOUS
10
0.879264
20
0.598051
11
0.87941
21
0.598003
0
LINE
8
BLACK
6
CONTINUOUS
10
0.87941
20
0.598003
11
0.88161
21
0.59723
0
LINE
8
BLACK
6
CONTINUOUS
10
0.88161
20
0.59723
11
0.881894
21
0.597219
0
LINE
8
BLACK
6
CONTINUOUS
10
0.881894
20
0.597219
11
0.8819
21
0.597217
0
LINE
8
BLACK
6
CONTINUOUS
10
0.8819
20
0.597217
11
0.88217
21
0.597132
0
LINE
8
BLACK
6
CONTINUOUS
10
0.88217
20
0.597132
11
0.882499
21
0.597106
0
LINE
8
BLACK
6
CONTINUOUS
10
0.882499
20
0.597106
11
0.884658
21
0.597106
0
LINE
8
BLACK
6
CONTINUOUS
10
0.884658
20
0.597106
11
0.884853
21
0.597102
0
LINE
8
BLACK
6
CONTINUOUS
10
0.884853
20
0.597102
11
0.886985
21
0.597019
0
LINE
8
BLACK
6
CONTINUOUS
10
0.886985
20
0.597019
11
0.887254
21
0.59709
0
LINE
8
BLACK
6
CONTINUOUS
10
0.887254
20
0.59709
11
0.887549
21
0.597106
0
LINE
8
BLACK
6
CONTINUOUS
10
0.887549
20
0.597106
11
1.13053
21
0.597106
0
LINE
8
BLACK
6
CONTINUOUS
10
1.13053
20
0.597106
11
1.13322
21
0.596319
0
LINE
8
BLACK
6
CONTINUOUS
10
1.13322
20
0.596319
11
1.13404
21
0.595653
0
LINE
8
BLACK
6
CONTINUOUS
10
1.13404
20
0.595653
11
1.16565
21
0.564041
0
LINE
8
BLACK
6
CONTINUOUS
10
1.16565
20
0.564041
11
1.16699
21
0.561588
0
LINE
8
BLACK
6
CONTINUOUS
10
1.16699
20
0.561588
11
1.16711
21
0.560533
0
LINE
8
BLACK
6
CONTINUOUS
10
1.16711
20
0.560533
11
1.16711
21
0.209467
0
LINE
8
BLACK
6
CONTINUOUS
10
1.16711
20
0.209467
11
1.16632
21
0.206785
0
LINE
8
BLACK
6
CONTINUOUS
10
1.16632
20
0.206785
11
1.16565
21
0.205959
0
LINE
8
BLACK
6
CONTINUOUS
10
1.16565
20
0.205959
11
1.16186
21
0.20217
0
LINE
8
BLACK
6
CONTINUOUS
10
1.16186
20
0.20217
11
1.15941
21
0.200831
0
LINE
8
BLACK
6
CONTINUOUS
10
1.15941
20
0.200831
11
1.15867
21
0.200727
0
LINE
8
BLACK
6
CONTINUOUS
10
1.15867
20
0.200727
11
1.1569
21
0.200616
0
LINE
8
BLACK
6
CONTINUOUS
10
1.1569
20
0.200616
11
1.15545
21
0.200524
0
LINE
8
BLACK
6
CONTINUOUS
10
1.15545
20
0.200524
11
1.15545
21
0.200524
0
LINE
8
BLACK
6
CONTINUOUS
10
1.15545
20
0.200524
11
1.15513
21
0.200505
0
LINE
8
BLACK
6
CONTINUOUS
10
1.15513
20
0.200505
11
1.15484
21
0.200408
0
LINE
8
BLACK
6
CONTINUOUS
10
1.15484
20
0.200408
11
1.15484
21
0.200408
0
LINE
8
BLACK
6
CONTINUOUS
10
1.15484
20
0.200408
11
1.14924
21
0.19859
0
LINE
8
BLACK
6
CONTINUOUS
10
1.14924
20
0.19859
11
1.14924
21
0.19859
0
LINE
8
BLACK
6
CONTINUOUS
10
1.14924
20
0.19859
11
1.14894
21
0.198493
0
LINE
8
BLACK
6
CONTINUOUS
10
1.14894
20
0.198493
11
1.14345
21
0.195006
0
LINE
8
BLACK
6
CONTINUOUS
10
1.14345
20
0.195006
11
1.14324
21
0.194779
0
LINE
8
BLACK
6
CONTINUOUS
10
1.14324
20
0.194779
11
1.14324
21
0.194778
0
LINE
8
BLACK
6
CONTINUOUS
10
1.14324
20
0.194778
11
1.14038
21
0.191741
0
LINE
8
BLACK
6
CONTINUOUS
10
1.14038
20
0.191741
11
1.13899
21
0.190262
0
LINE
8
BLACK
6
CONTINUOUS
10
1.13899
20
0.190262
11
1.13586
21
0.184558
0
LINE
8
BLACK
6
CONTINUOUS
10
1.13586
20
0.184558
11
1.13424
21
0.178254
0
LINE
8
BLACK
6
CONTINUOUS
10
1.13424
20
0.178254
11
1.13424
21
0.171746
0
LINE
8
BLACK
6
CONTINUOUS
10
1.13424
20
0.171746
11
1.13586
21
0.165442
0
LINE
8
BLACK
6
CONTINUOUS
10
1.13586
20
0.165442
11
1.13899
21
0.159738
0
LINE
8
BLACK
6
CONTINUOUS
10
1.13899
20
0.159738
11
1.13921
21
0.159511
0
LINE
8
BLACK
6
CONTINUOUS
10
1.13921
20
0.159511
11
1.14135
21
0.157226
0
LINE
8
BLACK
6
CONTINUOUS
10
1.14135
20
0.157226
11
1.14345
21
0.154994
0
LINE
8
BLACK
6
CONTINUOUS
10
1.14345
20
0.154994
11
1.14894
21
0.151507
0
LINE
8
BLACK
6
CONTINUOUS
10
1.14894
20
0.151507
11
1.14924
21
0.15141
0
LINE
8
BLACK
6
CONTINUOUS
10
1.14924
20
0.15141
11
1.14924
21
0.15141
0
LINE
8
BLACK
6
CONTINUOUS
10
1.14924
20
0.15141
11
1.15484
21
0.149592
0
LINE
8
BLACK
6
CONTINUOUS
10
1.15484
20
0.149592
11
1.15484
21
0.149592
0
LINE
8
BLACK
6
CONTINUOUS
10
1.15484
20
0.149592
11
1.15513
21
0.149495
0
LINE
8
BLACK
6
CONTINUOUS
10
1.15513
20
0.149495
11
1.15545
21
0.149476
0
LINE
8
BLACK
6
CONTINUOUS
10
1.15545
20
0.149476
11
1.15545
21
0.149476
0
LINE
8
BLACK
6
CONTINUOUS
10
1.15545
20
0.149476
11
1.15838
21
0.149291
0
LINE
8
BLACK
6
CONTINUOUS
10
1.15838
20
0.149291
11
1.16163
21
0.149087
0
LINE
8
BLACK
6
CONTINUOUS
10
1.16163
20
0.149087
11
1.16194
21
0.149145
0
LINE
8
BLACK
6
CONTINUOUS
10
1.16194
20
0.149145
11
1.16194
21
0.149145
0
LINE
8
BLACK
6
CONTINUOUS
10
1.16194
20
0.149145
11
1.16772
21
0.150248
0
LINE
8
BLACK
6
CONTINUOUS
10
1.16772
20
0.150248
11
1.16772
21
0.150248
0
LINE
8
BLACK
6
CONTINUOUS
10
1.16772
20
0.150248
11
1.16802
21
0.150306
0
LINE
8
BLACK
6
CONTINUOUS
10
1.16802
20
0.150306
11
1.17391
21
0.153077
0
LINE
8
BLACK
6
CONTINUOUS
10
1.17391
20
0.153077
11
1.17415
21
0.153276
0
LINE
8
BLACK
6
CONTINUOUS
10
1.17415
20
0.153276
11
1.17415
21
0.153276
0
LINE
8
BLACK
6
CONTINUOUS
10
1.17415
20
0.153276
11
1.17869
21
0.157027
0
LINE
8
BLACK
6
CONTINUOUS
10
1.17869
20
0.157027
11
1.17893
21
0.157226
0
LINE
8
BLACK
6
CONTINUOUS
10
1.17893
20
0.157226
11
1.18275
21
0.162491
0
LINE
8
BLACK
6
CONTINUOUS
10
1.18275
20
0.162491
11
1.18515
21
0.168543
0
LINE
8
BLACK
6
CONTINUOUS
10
1.18515
20
0.168543
11
1.18585
21
0.174069
0
LINE
8
BLACK
6
CONTINUOUS
10
1.18585
20
0.174069
11
1.18696
21
0.176631
0
LINE
8
BLACK
6
CONTINUOUS
10
1.18696
20
0.176631
11
1.18726
21
0.176955
0
LINE
8
BLACK
6
CONTINUOUS
10
1.18726
20
0.176955
11
1.19672
21
0.186419
0
LINE
8
BLACK
6
CONTINUOUS
10
1.19672
20
0.186419
11
1.19716
21
0.186807
0
LINE
8
BLACK
6
CONTINUOUS
10
1.19716
20
0.186807
11
1.1979
21
0.187387
0
LINE
8
BLACK
6
CONTINUOUS
10
1.1979
20
0.187387
11
1.19819
21
0.187616
0
LINE
8
BLACK
6
CONTINUOUS
10
1.19819
20
0.187616
11
1.19951
21
0.189535
0
LINE
8
BLACK
6
CONTINUOUS
10
1.19951
20
0.189535
11
1.1996
21
0.18966
0
LINE
8
BLACK
6
CONTINUOUS
10
1.1996
20
0.18966
11
1.20022
21
0.190489
0
LINE
8
BLACK
6
CONTINUOUS
10
1.20022
20
0.190489
11
1.20099
21
0.191535
0
LINE
8
BLACK
6
CONTINUOUS
10
1.20099
20
0.191535
11
1.20108
21
0.191805
0
LINE
8
BLACK
6
CONTINUOUS
10
1.20108
20
0.191805
11
1.20125
21
0.192041
0
LINE
8
BLACK
6
CONTINUOUS
10
1.20125
20
0.192041
11
1.20195
21
0.194264
0
LINE
8
BLACK
6
CONTINUOUS
10
1.20195
20
0.194264
11
1.202
21
0.194411
0
LINE
8
BLACK
6
CONTINUOUS
10
1.202
20
0.194411
11
1.20221
21
0.195006
0
LINE
8
BLACK
6
CONTINUOUS
10
1.20221
20
0.195006
11
1.20277
21
0.19661
0
LINE
8
BLACK
6
CONTINUOUS
10
1.20277
20
0.19661
11
1.20278
21
0.196894
0
LINE
8
BLACK
6
CONTINUOUS
10
1.20278
20
0.196894
11
1.20278
21
0.1969
0
LINE
8
BLACK
6
CONTINUOUS
10
1.20278
20
0.1969
11
1.20287
21
0.19717
0
LINE
8
BLACK
6
CONTINUOUS
10
1.20287
20
0.19717
11
1.20289
21
0.197499
0
LINE
8
BLACK
6
CONTINUOUS
10
1.20289
20
0.197499
11
1.20289
21
0.199658
0
LINE
8
BLACK
6
CONTINUOUS
10
1.20289
20
0.199658
11
1.2029
21
0.199853
0
LINE
8
BLACK
6
CONTINUOUS
10
1.2029
20
0.199853
11
1.20292
21
0.200408
0
LINE
8
BLACK
6
CONTINUOUS
10
1.20292
20
0.200408
11
1.20298
21
0.201985
0
LINE
8
BLACK
6
CONTINUOUS
10
1.20298
20
0.201985
11
1.20291
21
0.202254
0
LINE
8
BLACK
6
CONTINUOUS
10
1.20291
20
0.202254
11
1.20289
21
0.202549
0
LINE
8
BLACK
6
CONTINUOUS
10
1.20289
20
0.202549
11
1.20289
21
0.568688
0
LINE
8
BLACK
6
CONTINUOUS
10
1.20289
20
0.568688
11
1.20293
21
0.569271
0
LINE
8
BLACK
6
CONTINUOUS
10
1.20293
20
0.569271
11
1.20304
21
0.5702
0
LINE
8
BLACK
6
CONTINUOUS
10
1.20304
20
0.5702
11
1.20308
21
0.570568
0
LINE
8
BLACK
6
CONTINUOUS
10
1.20308
20
0.570568
11
1.20301
21
0.570933
0
LINE
8
BLACK
6
CONTINUOUS
10
1.20301
20
0.570933
11
1.20266
21
0.57286
0
LINE
8
BLACK
6
CONTINUOUS
10
1.20266
20
0.57286
11
1.20264
21
0.573014
0
LINE
8
BLACK
6
CONTINUOUS
10
1.20264
20
0.573014
11
1.20235
21
0.574953
0
LINE
8
BLACK
6
CONTINUOUS
10
1.20235
20
0.574953
11
1.20235
21
0.574953
0
LINE
8
BLACK
6
CONTINUOUS
10
1.20235
20
0.574953
11
1.20229
21
0.575319
0
LINE
8
BLACK
6
CONTINUOUS
10
1.20229
20
0.575319
11
1.20217
21
0.575578
0
LINE
8
BLACK
6
CONTINUOUS
10
1.20217
20
0.575578
11
1.20212
21
0.57586
0
LINE
8
BLACK
6
CONTINUOUS
10
1.20212
20
0.57586
11
1.20104
21
0.577929
0
LINE
8
BLACK
6
CONTINUOUS
10
1.20104
20
0.577929
11
1.20097
21
0.578067
0
LINE
8
BLACK
6
CONTINUOUS
10
1.20097
20
0.578067
11
1.20012
21
0.579834
0
LINE
8
BLACK
6
CONTINUOUS
10
1.20012
20
0.579834
11
1.19996
21
0.580168
0
LINE
8
BLACK
6
CONTINUOUS
10
1.19996
20
0.580168
11
1.19977
21
0.580377
0
LINE
8
BLACK
6
CONTINUOUS
10
1.19977
20
0.580377
11
1.19977
21
0.580382
0
LINE
8
BLACK
6
CONTINUOUS
10
1.19977
20
0.580382
11
1.19964
21
0.580633
0
LINE
8
BLACK
6
CONTINUOUS
10
1.19964
20
0.580633
11
1.19942
21
0.580884
0
LINE
8
BLACK
6
CONTINUOUS
10
1.19942
20
0.580884
11
1.1979
21
0.58241
0
LINE
8
BLACK
6
CONTINUOUS
10
1.1979
20
0.58241
11
1.19776
21
0.582551
0
LINE
8
BLACK
6
CONTINUOUS
10
1.19776
20
0.582551
11
1.19656
21
0.583846
0
LINE
8
BLACK
6
CONTINUOUS
10
1.19656
20
0.583846
11
1.19631
21
0.584118
0
LINE
8
BLACK
6
CONTINUOUS
10
1.19631
20
0.584118
11
1.19607
21
0.584258
0
LINE
8
BLACK
6
CONTINUOUS
10
1.19607
20
0.584258
11
1.19585
21
0.584456
0
LINE
8
BLACK
6
CONTINUOUS
10
1.19585
20
0.584456
11
1.15358
21
0.626725
0
LINE
8
BLACK
6
CONTINUOUS
10
1.15358
20
0.626725
11
1.15319
21
0.627161
0
LINE
8
BLACK
6
CONTINUOUS
10
1.15319
20
0.627161
11
1.15261
21
0.627896
0
LINE
8
BLACK
6
CONTINUOUS
10
1.15261
20
0.627896
11
1.15238
21
0.628187
0
LINE
8
BLACK
6
CONTINUOUS
10
1.15238
20
0.628187
11
1.15046
21
0.629514
0
LINE
8
BLACK
6
CONTINUOUS
10
1.15046
20
0.629514
11
1.15034
21
0.629603
0
LINE
8
BLACK
6
CONTINUOUS
10
1.15034
20
0.629603
11
1.14979
21
0.630006
0
LINE
8
BLACK
6
CONTINUOUS
10
1.14979
20
0.630006
11
1.14847
21
0.630988
0
LINE
8
BLACK
6
CONTINUOUS
10
1.14847
20
0.630988
11
1.14819
21
0.631083
0
LINE
8
BLACK
6
CONTINUOUS
10
1.14819
20
0.631083
11
1.14796
21
0.631246
0
LINE
8
BLACK
6
CONTINUOUS
10
1.14796
20
0.631246
11
1.14574
21
0.631949
0
LINE
8
BLACK
6
CONTINUOUS
10
1.14574
20
0.631949
11
1.14559
21
0.631997
0
LINE
8
BLACK
6
CONTINUOUS
10
1.14559
20
0.631997
11
1.14339
21
0.63277
0
LINE
8
BLACK
6
CONTINUOUS
10
1.14339
20
0.63277
11
1.14311
21
0.632781
0
LINE
8
BLACK
6
CONTINUOUS
10
1.14311
20
0.632781
11
1.1431
21
0.632783
0
LINE
8
BLACK
6
CONTINUOUS
10
1.1431
20
0.632783
11
1.14283
21
0.632868
0
LINE
8
BLACK
6
CONTINUOUS
10
1.14283
20
0.632868
11
1.1425
21
0.632894
0
LINE
8
BLACK
6
CONTINUOUS
10
1.1425
20
0.632894
11
1.14034
21
0.632894
0
LINE
8
BLACK
6
CONTINUOUS
10
1.14034
20
0.632894
11
1.14015
21
0.632898
0
LINE
8
BLACK
6
CONTINUOUS
10
1.14015
20
0.632898
11
1.13801
21
0.632981
0
LINE
8
BLACK
6
CONTINUOUS
10
1.13801
20
0.632981
11
1.13775
21
0.63291
0
LINE
8
BLACK
6
CONTINUOUS
10
1.13775
20
0.63291
11
1.13745
21
0.632894
0
LINE
8
BLACK
6
CONTINUOUS
10
1.13745
20
0.632894
11
0.894467
21
0.632894
0
LINE
8
BLACK
6
CONTINUOUS
10
0.894467
20
0.632894
11
0.891785
21
0.633681
0
LINE
8
BLACK
6
CONTINUOUS
10
0.891785
20
0.633681
11
0.890959
21
0.634347
0
LINE
8
BLACK
6
CONTINUOUS
10
0.890959
20
0.634347
11
0.883774
21
0.641532
0
LINE
8
BLACK
6
CONTINUOUS
10
0.883774
20
0.641532
11
0.882434
21
0.643985
0
LINE
8
BLACK
6
CONTINUOUS
10
0.882434
20
0.643985
11
0.882573
21
0.64592
0
LINE
8
BLACK
6
CONTINUOUS
10
0.882573
20
0.64592
11
0.882634
21
0.646773
0
LINE
8
BLACK
6
CONTINUOUS
10
0.882634
20
0.646773
11
0.884309
21
0.649011
0
LINE
8
BLACK
6
CONTINUOUS
10
0.0981962
20
1.06448
11
0.102532
21
1.05819
0
LINE
8
BLACK
6
CONTINUOUS
10
0.102532
20
1.05819
11
0.108042
21
1.05291
0
LINE
8
BLACK
6
CONTINUOUS
10
0.108042
20
1.05291
11
0.110837
21
1.05115
0
LINE
8
BLACK
6
CONTINUOUS
10
0.110837
20
1.05115
11
0.11429
21
1.04898
0
LINE
8
BLACK
6
CONTINUOUS
10
0.11429
20
1.04898
11
0.11429
21
1.04898
0
LINE
8
BLACK
6
CONTINUOUS
10
0.11429
20
1.04898
11
0.114503
21
1.04884
0
LINE
8
BLACK
6
CONTINUOUS
10
0.114503
20
1.04884
11
0.12165
21
1.04615
0
LINE
8
BLACK
6
CONTINUOUS
10
0.12165
20
1.04615
11
0.121898
21
1.04612
0
LINE
8
BLACK
6
CONTINUOUS
10
0.121898
20
1.04612
11
0.121898
21
1.04612
0
LINE
8
BLACK
6
CONTINUOUS
10
0.121898
20
1.04612
11
0.12542
21
1.04556
0
LINE
8
BLACK
6
CONTINUOUS
10
0.12542
20
1.04556
11
0.129191
21
1.04496
0
LINE
8
BLACK
6
CONTINUOUS
10
0.129191
20
1.04496
11
0.136818
21
1.04531
0
LINE
8
BLACK
6
CONTINUOUS
10
0.136818
20
1.04531
11
0.140014
21
1.04612
0
LINE
8
BLACK
6
CONTINUOUS
10
0.140014
20
1.04612
11
0.143976
21
1.04712
0
LINE
8
BLACK
6
CONTINUOUS
10
0.143976
20
1.04712
11
0.143976
21
1.04712
0
LINE
8
BLACK
6
CONTINUOUS
10
0.143976
20
1.04712
11
0.144219
21
1.04718
0
LINE
8
BLACK
6
CONTINUOUS
10
0.144219
20
1.04718
11
0.147656
21
1.04884
0
LINE
8
BLACK
6
CONTINUOUS
10
0.147656
20
1.04884
11
0.150867
21
1.05039
0
LINE
8
BLACK
6
CONTINUOUS
10
0.150867
20
1.05039
11
0.150867
21
1.05039
0
LINE
8
BLACK
6
CONTINUOUS
10
0.150867
20
1.05039
11
0.151093
21
1.0505
0
LINE
8
BLACK
6
CONTINUOUS
10
0.151093
20
1.0505
11
0.151293
21
1.05066
0
LINE
8
BLACK
6
CONTINUOUS
10
0.151293
20
1.05066
11
0.151293
21
1.05066
0
LINE
8
BLACK
6
CONTINUOUS
10
0.151293
20
1.05066
11
0.156959
21
1.05499
0
LINE
8
BLACK
6
CONTINUOUS
10
0.156959
20
1.05499
11
0.157158
21
1.05514
0
LINE
8
BLACK
6
CONTINUOUS
10
0.157158
20
1.05514
11
0.162167
21
1.0609
0
LINE
8
BLACK
6
CONTINUOUS
10
0.162167
20
1.0609
11
0.165915
21
1.06755
0
LINE
8
BLACK
6
CONTINUOUS
10
0.165915
20
1.06755
11
0.168249
21
1.07482
0
LINE
8
BLACK
6
CONTINUOUS
10
0.168249
20
1.07482
11
0.169074
21
1.08241
0
LINE
8
BLACK
6
CONTINUOUS
10
0.169074
20
1.08241
11
0.169075
21
1.08268
0
LINE
8
BLACK
6
CONTINUOUS
10
0.169075
20
1.08268
11
0.169048
21
1.08294
0
LINE
8
BLACK
6
CONTINUOUS
10
0.169048
20
1.08294
11
0.168329
21
1.09002
0
LINE
8
BLACK
6
CONTINUOUS
10
0.168329
20
1.09002
11
0.168329
21
1.09002
0
LINE
8
BLACK
6
CONTINUOUS
10
0.168329
20
1.09002
11
0.168303
21
1.09027
0
LINE
8
BLACK
6
CONTINUOUS
10
0.168303
20
1.09027
11
0.16602
21
1.09756
0
LINE
8
BLACK
6
CONTINUOUS
10
0.16602
20
1.09756
11
0.162319
21
1.10424
0
LINE
8
BLACK
6
CONTINUOUS
10
0.162319
20
1.10424
11
0.15735
21
1.11003
0
LINE
8
BLACK
6
CONTINUOUS
10
0.15735
20
1.11003
11
0.151317
21
1.11471
0
LINE
8
BLACK
6
CONTINUOUS
10
0.151317
20
1.11471
11
0.144467
21
1.11808
0
LINE
8
BLACK
6
CONTINUOUS
10
0.144467
20
1.11808
11
0.144224
21
1.11815
0
LINE
8
BLACK
6
CONTINUOUS
10
0.144224
20
1.11815
11
0.144223
21
1.11815
0
LINE
8
BLACK
6
CONTINUOUS
10
0.144223
20
1.11815
11
0.137322
21
1.11994
0
LINE
8
BLACK
6
CONTINUOUS
10
0.137322
20
1.11994
11
0.137322
21
1.11994
0
LINE
8
BLACK
6
CONTINUOUS
10
0.137322
20
1.11994
11
0.137078
21
1.12001
0
LINE
8
BLACK
6
CONTINUOUS
10
0.137078
20
1.12001
11
0.133799
21
1.12018
0
LINE
8
BLACK
6
CONTINUOUS
10
0.133799
20
1.12018
11
0.129705
21
1.12039
0
LINE
8
BLACK
6
CONTINUOUS
10
0.129705
20
1.12039
11
0.129705
21
1.12039
0
LINE
8
BLACK
6
CONTINUOUS
10
0.129705
20
1.12039
11
0.129454
21
1.12041
0
LINE
8
BLACK
6
CONTINUOUS
10
0.129454
20
1.12041
11
0.125149
21
1.11976
0
LINE
8
BLACK
6
CONTINUOUS
10
0.125149
20
1.11976
11
0.122153
21
1.1193
0
LINE
8
BLACK
6
CONTINUOUS
10
0.122153
20
1.1193
11
0.122153
21
1.1193
0
LINE
8
BLACK
6
CONTINUOUS
10
0.122153
20
1.1193
11
0.121905
21
1.11927
0
LINE
8
BLACK
6
CONTINUOUS
10
0.121905
20
1.11927
11
0.121669
21
1.11918
0
LINE
8
BLACK
6
CONTINUOUS
10
0.121669
20
1.11918
11
0.121669
21
1.11918
0
LINE
8
BLACK
6
CONTINUOUS
10
0.121669
20
1.11918
11
0.117679
21
1.11771
0
LINE
8
BLACK
6
CONTINUOUS
10
0.117679
20
1.11771
11
0.114739
21
1.11663
0
LINE
8
BLACK
6
CONTINUOUS
10
0.114739
20
1.11663
11
0.108251
21
1.11261
0
LINE
8
BLACK
6
CONTINUOUS
10
0.108251
20
1.11261
11
0.102703
21
1.10736
0
LINE
8
BLACK
6
CONTINUOUS
10
0.102703
20
1.10736
11
0.0983241
21
1.10111
0
LINE
8
BLACK
6
CONTINUOUS
10
0.0983241
20
1.10111
11
0.0952919
21
1.0941
0
LINE
8
BLACK
6
CONTINUOUS
10
0.0952919
20
1.0941
11
0.0952405
21
1.09385
0
LINE
8
BLACK
6
CONTINUOUS
10
0.0952405
20
1.09385
11
0.0952405
21
1.09385
0
LINE
8
BLACK
6
CONTINUOUS
10
0.0952405
20
1.09385
11
0.0939309
21
1.08758
0
LINE
8
BLACK
6
CONTINUOUS
10
0.0939309
20
1.08758
11
0.0937306
21
1.08663
0
LINE
8
BLACK
6
CONTINUOUS
10
0.0937306
20
1.08663
11
0.093725
21
1.08502
0
LINE
8
BLACK
6
CONTINUOUS
10
0.093725
20
1.08502
11
0.0937075
21
1.08002
0
LINE
8
BLACK
6
CONTINUOUS
10
0.0937075
20
1.08002
11
0.0937039
21
1.07899
0
LINE
8
BLACK
6
CONTINUOUS
10
0.0937039
20
1.07899
11
0.095213
21
1.07151
0
LINE
8
BLACK
6
CONTINUOUS
10
0.095213
20
1.07151
11
0.0981962
21
1.06448
0
LINE
8
BLACK
6
CONTINUOUS
10
0.446664
20
0.89176
11
0.448878
21
0.888445
0
LINE
8
BLACK
6
CONTINUOUS
10
0.448878
20
0.888445
11
0.452193
21
0.88623
0
LINE
8
BLACK
6
CONTINUOUS
10
0.452193
20
0.88623
11
0.456102
21
0.885453
0
LINE
8
BLACK
6
CONTINUOUS
10
0.456102
20
0.885453
11
0.593898
21
0.885453
0
LINE
8
BLACK
6
CONTINUOUS
10
0.593898
20
0.885453
11
0.597807
21
0.88623
0
LINE
8
BLACK
6
CONTINUOUS
10
0.597807
20
0.88623
11
0.601122
21
0.888445
0
LINE
8
BLACK
6
CONTINUOUS
10
0.601122
20
0.888445
11
0.603336
21
0.89176
0
LINE
8
BLACK
6
CONTINUOUS
10
0.603336
20
0.89176
11
0.604114
21
0.895669
0
LINE
8
BLACK
6
CONTINUOUS
10
0.604114
20
0.895669
11
0.604114
21
1.03346
0
LINE
8
BLACK
6
CONTINUOUS
10
0.604114
20
1.03346
11
0.603336
21
1.03737
0
LINE
8
BLACK
6
CONTINUOUS
10
0.603336
20
1.03737
11
0.601122
21
1.04069
0
LINE
8
BLACK
6
CONTINUOUS
10
0.601122
20
1.04069
11
0.597807
21
1.0429
0
LINE
8
BLACK
6
CONTINUOUS
10
0.597807
20
1.0429
11
0.593898
21
1.04368
0
LINE
8
BLACK
6
CONTINUOUS
10
0.593898
20
1.04368
11
0.456102
21
1.04368
0
LINE
8
BLACK
6
CONTINUOUS
10
0.456102
20
1.04368
11
0.452193
21
1.0429
0
LINE
8
BLACK
6
CONTINUOUS
10
0.452193
20
1.0429
11
0.448878
21
1.04069
0
LINE
8
BLACK
6
CONTINUOUS
10
0.448878
20
1.04069
11
0.446664
21
1.03737
0
LINE
8
BLACK
6
CONTINUOUS
10
0.446664
20
1.03737
11
0.445886
21
1.03346
0
LINE
8
BLACK
6
CONTINUOUS
10
0.445886
20
1.03346
11
0.445886
21
0.895669
0
LINE
8
BLACK
6
CONTINUOUS
10
0.445886
20
0.895669
11
0.446664
21
0.89176
0
LINE
8
BLACK
6
CONTINUOUS
10
1.05421
20
1.09879
11
1.05734
21
1.09308
0
LINE
8
BLACK
6
CONTINUOUS
10
1.05734
20
1.09308
11
1.05755
21
1.09286
0
LINE
8
BLACK
6
CONTINUOUS
10
1.05755
20
1.09286
11
1.05993
21
1.09033
0
LINE
8
BLACK
6
CONTINUOUS
10
1.05993
20
1.09033
11
1.0618
21
1.08834
0
LINE
8
BLACK
6
CONTINUOUS
10
1.0618
20
1.08834
11
1.06729
21
1.08485
0
LINE
8
BLACK
6
CONTINUOUS
10
1.06729
20
1.08485
11
1.06759
21
1.08476
0
LINE
8
BLACK
6
CONTINUOUS
10
1.06759
20
1.08476
11
1.06759
21
1.08476
0
LINE
8
BLACK
6
CONTINUOUS
10
1.06759
20
1.08476
11
1.07318
21
1.08294
0
LINE
8
BLACK
6
CONTINUOUS
10
1.07318
20
1.08294
11
1.07318
21
1.08294
0
LINE
8
BLACK
6
CONTINUOUS
10
1.07318
20
1.08294
11
1.07348
21
1.08284
0
LINE
8
BLACK
6
CONTINUOUS
10
1.07348
20
1.08284
11
1.07379
21
1.08282
0
LINE
8
BLACK
6
CONTINUOUS
10
1.07379
20
1.08282
11
1.07379
21
1.08282
0
LINE
8
BLACK
6
CONTINUOUS
10
1.07379
20
1.08282
11
1.07673
21
1.08264
0
LINE
8
BLACK
6
CONTINUOUS
10
1.07673
20
1.08264
11
1.07998
21
1.08243
0
LINE
8
BLACK
6
CONTINUOUS
10
1.07998
20
1.08243
11
1.08028
21
1.08249
0
LINE
8
BLACK
6
CONTINUOUS
10
1.08028
20
1.08249
11
1.08028
21
1.08249
0
LINE
8
BLACK
6
CONTINUOUS
10
1.08028
20
1.08249
11
1.08606
21
1.08359
0
LINE
8
BLACK
6
CONTINUOUS
10
1.08606
20
1.08359
11
1.08606
21
1.08359
0
LINE
8
BLACK
6
CONTINUOUS
10
1.08606
20
1.08359
11
1.08637
21
1.08365
0
LINE
8
BLACK
6
CONTINUOUS
10
1.08637
20
1.08365
11
1.09226
21
1.08642
0
LINE
8
BLACK
6
CONTINUOUS
10
1.09226
20
1.08642
11
1.0925
21
1.08662
0
LINE
8
BLACK
6
CONTINUOUS
10
1.0925
20
1.08662
11
1.0925
21
1.08662
0
LINE
8
BLACK
6
CONTINUOUS
10
1.0925
20
1.08662
11
1.09575
21
1.08931
0
LINE
8
BLACK
6
CONTINUOUS
10
1.09575
20
1.08931
11
1.09832
21
1.09042
0
LINE
8
BLACK
6
CONTINUOUS
10
1.09832
20
1.09042
11
1.09892
21
1.09045
0
LINE
8
BLACK
6
CONTINUOUS
10
1.09892
20
1.09045
11
1.2218
21
1.09045
0
LINE
8
BLACK
6
CONTINUOUS
10
1.2218
20
1.09045
11
1.22239
21
1.09042
0
LINE
8
BLACK
6
CONTINUOUS
10
1.22239
20
1.09042
11
1.22368
21
1.09026
0
LINE
8
BLACK
6
CONTINUOUS
10
1.22368
20
1.09026
11
1.22405
21
1.09033
0
LINE
8
BLACK
6
CONTINUOUS
10
1.22405
20
1.09033
11
1.22405
21
1.09033
0
LINE
8
BLACK
6
CONTINUOUS
10
1.22405
20
1.09033
11
1.22598
21
1.09068
0
LINE
8
BLACK
6
CONTINUOUS
10
1.22598
20
1.09068
11
1.22613
21
1.09071
0
LINE
8
BLACK
6
CONTINUOUS
10
1.22613
20
1.09071
11
1.22807
21
1.091
0
LINE
8
BLACK
6
CONTINUOUS
10
1.22807
20
1.091
11
1.22843
21
1.09106
0
LINE
8
BLACK
6
CONTINUOUS
10
1.22843
20
1.09106
11
1.22869
21
1.09118
0
LINE
8
BLACK
6
CONTINUOUS
10
1.22869
20
1.09118
11
1.22897
21
1.09123
0
LINE
8
BLACK
6
CONTINUOUS
10
1.22897
20
1.09123
11
1.23104
21
1.09231
0
LINE
8
BLACK
6
CONTINUOUS
10
1.23104
20
1.09231
11
1.23118
21
1.09237
0
LINE
8
BLACK
6
CONTINUOUS
10
1.23118
20
1.09237
11
1.23328
21
1.09338
0
LINE
8
BLACK
6
CONTINUOUS
10
1.23328
20
1.09338
11
1.23349
21
1.09358
0
LINE
8
BLACK
6
CONTINUOUS
10
1.23349
20
1.09358
11
1.2335
21
1.09358
0
LINE
8
BLACK
6
CONTINUOUS
10
1.2335
20
1.09358
11
1.23375
21
1.09371
0
LINE
8
BLACK
6
CONTINUOUS
10
1.23375
20
1.09371
11
1.234
21
1.09393
0
LINE
8
BLACK
6
CONTINUOUS
10
1.234
20
1.09393
11
1.23553
21
1.09545
0
LINE
8
BLACK
6
CONTINUOUS
10
1.23553
20
1.09545
11
1.23567
21
1.09559
0
LINE
8
BLACK
6
CONTINUOUS
10
1.23567
20
1.09559
11
1.23696
21
1.09678
0
LINE
8
BLACK
6
CONTINUOUS
10
1.23696
20
1.09678
11
1.23723
21
1.09704
0
LINE
8
BLACK
6
CONTINUOUS
10
1.23723
20
1.09704
11
1.23737
21
1.09728
0
LINE
8
BLACK
6
CONTINUOUS
10
1.23737
20
1.09728
11
1.23757
21
1.0975
0
LINE
8
BLACK
6
CONTINUOUS
10
1.23757
20
1.0975
11
1.24669
21
1.10662
0
LINE
8
BLACK
6
CONTINUOUS
10
1.24669
20
1.10662
11
1.24915
21
1.10796
0
LINE
8
BLACK
6
CONTINUOUS
10
1.24915
20
1.10796
11
1.2502
21
1.10807
0
LINE
8
BLACK
6
CONTINUOUS
10
1.2502
20
1.10807
11
1.36013
21
1.10807
0
LINE
8
BLACK
6
CONTINUOUS
10
1.36013
20
1.10807
11
1.36281
21
1.10728
0
LINE
8
BLACK
6
CONTINUOUS
10
1.36281
20
1.10728
11
1.36464
21
1.10517
0
LINE
8
BLACK
6
CONTINUOUS
10
1.36464
20
1.10517
11
1.36504
21
1.1024
0
LINE
8
BLACK
6
CONTINUOUS
10
1.36504
20
1.1024
11
1.36461
21
1.10113
0
LINE
8
BLACK
6
CONTINUOUS
10
1.36461
20
1.10113
11
1.36466
21
1.10111
0
LINE
8
BLACK
6
CONTINUOUS
10
1.36466
20
1.10111
11
1.36225
21
1.09552
0
LINE
8
BLACK
6
CONTINUOUS
10
1.36225
20
1.09552
11
1.36163
21
1.0941
0
LINE
8
BLACK
6
CONTINUOUS
10
1.36163
20
1.0941
11
1.36158
21
1.09385
0
LINE
8
BLACK
6
CONTINUOUS
10
1.36158
20
1.09385
11
1.36158
21
1.09385
0
LINE
8
BLACK
6
CONTINUOUS
10
1.36158
20
1.09385
11
1.36027
21
1.08758
0
LINE
8
BLACK
6
CONTINUOUS
10
1.36027
20
1.08758
11
1.36007
21
1.08663
0
LINE
8
BLACK
6
CONTINUOUS
10
1.36007
20
1.08663
11
1.36006
21
1.08502
0
LINE
8
BLACK
6
CONTINUOUS
10
1.36006
20
1.08502
11
1.36005
21
1.08002
0
LINE
8
BLACK
6
CONTINUOUS
10
1.36005
20
1.08002
11
1.36004
21
1.07899
0
LINE
8
BLACK
6
CONTINUOUS
10
1.36004
20
1.07899
11
1.36155
21
1.07151
0
LINE
8
BLACK
6
CONTINUOUS
10
1.36155
20
1.07151
11
1.36453
21
1.06448
0
LINE
8
BLACK
6
CONTINUOUS
10
1.36453
20
1.06448
11
1.36887
21
1.05819
0
LINE
8
BLACK
6
CONTINUOUS
10
1.36887
20
1.05819
11
1.37438
21
1.05291
0
LINE
8
BLACK
6
CONTINUOUS
10
1.37438
20
1.05291
11
1.37718
21
1.05115
0
LINE
8
BLACK
6
CONTINUOUS
10
1.37718
20
1.05115
11
1.38063
21
1.04898
0
LINE
8
BLACK
6
CONTINUOUS
10
1.38063
20
1.04898
11
1.38063
21
1.04898
0
LINE
8
BLACK
6
CONTINUOUS
10
1.38063
20
1.04898
11
1.38084
21
1.04884
0
LINE
8
BLACK
6
CONTINUOUS
10
1.38084
20
1.04884
11
1.38799
21
1.04615
0
LINE
8
BLACK
6
CONTINUOUS
10
1.38799
20
1.04615
11
1.38824
21
1.04612
0
LINE
8
BLACK
6
CONTINUOUS
10
1.38824
20
1.04612
11
1.38824
21
1.04612
0
LINE
8
BLACK
6
CONTINUOUS
10
1.38824
20
1.04612
11
1.39176
21
1.04556
0
LINE
8
BLACK
6
CONTINUOUS
10
1.39176
20
1.04556
11
1.39553
21
1.04496
0
LINE
8
BLACK
6
CONTINUOUS
10
1.39553
20
1.04496
11
1.40316
21
1.04531
0
LINE
8
BLACK
6
CONTINUOUS
10
1.40316
20
1.04531
11
1.40635
21
1.04612
0
LINE
8
BLACK
6
CONTINUOUS
10
1.40635
20
1.04612
11
1.41031
21
1.04712
0
LINE
8
BLACK
6
CONTINUOUS
10
1.41031
20
1.04712
11
1.41031
21
1.04712
0
LINE
8
BLACK
6
CONTINUOUS
10
1.41031
20
1.04712
11
1.41056
21
1.04718
0
LINE
8
BLACK
6
CONTINUOUS
10
1.41056
20
1.04718
11
1.41399
21
1.04884
0
LINE
8
BLACK
6
CONTINUOUS
10
1.41399
20
1.04884
11
1.41721
21
1.05039
0
LINE
8
BLACK
6
CONTINUOUS
10
1.41721
20
1.05039
11
1.41721
21
1.05039
0
LINE
8
BLACK
6
CONTINUOUS
10
1.41721
20
1.05039
11
1.41743
21
1.0505
0
LINE
8
BLACK
6
CONTINUOUS
10
1.41743
20
1.0505
11
1.41763
21
1.05066
0
LINE
8
BLACK
6
CONTINUOUS
10
1.41763
20
1.05066
11
1.41763
21
1.05066
0
LINE
8
BLACK
6
CONTINUOUS
10
1.41763
20
1.05066
11
1.4233
21
1.05499
0
LINE
8
BLACK
6
CONTINUOUS
10
1.4233
20
1.05499
11
1.4235
21
1.05514
0
LINE
8
BLACK
6
CONTINUOUS
10
1.4235
20
1.05514
11
1.42851
21
1.0609
0
LINE
8
BLACK
6
CONTINUOUS
10
1.42851
20
1.0609
11
1.43225
21
1.06755
0
LINE
8
BLACK
6
CONTINUOUS
10
1.43225
20
1.06755
11
1.43459
21
1.07482
0
LINE
8
BLACK
6
CONTINUOUS
10
1.43459
20
1.07482
11
1.43541
21
1.08241
0
LINE
8
BLACK
6
CONTINUOUS
10
1.43541
20
1.08241
11
1.43541
21
1.08268
0
LINE
8
BLACK
6
CONTINUOUS
10
1.43541
20
1.08268
11
1.43539
21
1.08294
0
LINE
8
BLACK
6
CONTINUOUS
10
1.43539
20
1.08294
11
1.43467
21
1.09002
0
LINE
8
BLACK
6
CONTINUOUS
10
1.43467
20
1.09002
11
1.43467
21
1.09002
0
LINE
8
BLACK
6
CONTINUOUS
10
1.43467
20
1.09002
11
1.43464
21
1.09027
0
LINE
8
BLACK
6
CONTINUOUS
10
1.43464
20
1.09027
11
1.43236
21
1.09756
0
LINE
8
BLACK
6
CONTINUOUS
10
1.43236
20
1.09756
11
1.43061
21
1.10071
0
LINE
8
BLACK
6
CONTINUOUS
10
1.43061
20
1.10071
11
1.43
21
1.10343
0
LINE
8
BLACK
6
CONTINUOUS
10
1.43
20
1.10343
11
1.43096
21
1.10606
0
LINE
8
BLACK
6
CONTINUOUS
10
1.43096
20
1.10606
11
1.43319
21
1.10775
0
LINE
8
BLACK
6
CONTINUOUS
10
1.43319
20
1.10775
11
1.43495
21
1.10807
0
LINE
8
BLACK
6
CONTINUOUS
10
1.43495
20
1.10807
11
1.46457
21
1.10807
0
LINE
8
BLACK
6
CONTINUOUS
10
1.46457
20
1.10807
11
1.46725
21
1.10728
0
LINE
8
BLACK
6
CONTINUOUS
10
1.46725
20
1.10728
11
1.46808
21
1.10662
0
LINE
8
BLACK
6
CONTINUOUS
10
1.46808
20
1.10662
11
1.63619
21
0.938508
0
LINE
8
BLACK
6
CONTINUOUS
10
1.63619
20
0.938508
11
1.63753
21
0.936054
0
LINE
8
BLACK
6
CONTINUOUS
10
1.63753
20
0.936054
11
1.63733
21
0.933266
0
LINE
8
BLACK
6
CONTINUOUS
10
1.63733
20
0.933266
11
1.63619
21
0.931492
0
LINE
8
BLACK
6
CONTINUOUS
10
1.63619
20
0.931492
11
1.6218
21
0.917104
0
LINE
8
BLACK
6
CONTINUOUS
10
1.6218
20
0.917104
11
1.62136
21
0.916716
0
LINE
8
BLACK
6
CONTINUOUS
10
1.62136
20
0.916716
11
1.62034
21
0.915907
0
LINE
8
BLACK
6
CONTINUOUS
10
1.62034
20
0.915907
11
1.61901
21
0.913988
0
LINE
8
BLACK
6
CONTINUOUS
10
1.61901
20
0.913988
11
1.61892
21
0.913863
0
LINE
8
BLACK
6
CONTINUOUS
10
1.61892
20
0.913863
11
1.61754
21
0.911988
0
LINE
8
BLACK
6
CONTINUOUS
10
1.61754
20
0.911988
11
1.61744
21
0.911718
0
LINE
8
BLACK
6
CONTINUOUS
10
1.61744
20
0.911718
11
1.61728
21
0.911482
0
LINE
8
BLACK
6
CONTINUOUS
10
1.61728
20
0.911482
11
1.61691
21
0.910306
0
LINE
8
BLACK
6
CONTINUOUS
10
1.61691
20
0.910306
11
1.61657
21
0.90926
0
LINE
8
BLACK
6
CONTINUOUS
10
1.61657
20
0.90926
11
1.61653
21
0.909113
0
LINE
8
BLACK
6
CONTINUOUS
10
1.61653
20
0.909113
11
1.61575
21
0.906913
0
LINE
8
BLACK
6
CONTINUOUS
10
1.61575
20
0.906913
11
1.61574
21
0.906629
0
LINE
8
BLACK
6
CONTINUOUS
10
1.61574
20
0.906629
11
1.61574
21
0.906623
0
LINE
8
BLACK
6
CONTINUOUS
10
1.61574
20
0.906623
11
1.61566
21
0.906353
0
LINE
8
BLACK
6
CONTINUOUS
10
1.61566
20
0.906353
11
1.61563
21
0.906025
0
LINE
8
BLACK
6
CONTINUOUS
10
1.61563
20
0.906025
11
1.61563
21
0.903865
0
LINE
8
BLACK
6
CONTINUOUS
10
1.61563
20
0.903865
11
1.61563
21
0.90367
0
LINE
8
BLACK
6
CONTINUOUS
10
1.61563
20
0.90367
11
1.61554
21
0.901538
0
LINE
8
BLACK
6
CONTINUOUS
10
1.61554
20
0.901538
11
1.61561
21
0.901269
0
LINE
8
BLACK
6
CONTINUOUS
10
1.61561
20
0.901269
11
1.61563
21
0.900974
0
LINE
8
BLACK
6
CONTINUOUS
10
1.61563
20
0.900974
11
1.61563
21
0.740748
0
LINE
8
BLACK
6
CONTINUOUS
10
1.61563
20
0.740748
11
1.61575
21
0.74
0
LINE
8
BLACK
6
CONTINUOUS
10
1.61575
20
0.74
11
1.61563
21
0.739252
0
LINE
8
BLACK
6
CONTINUOUS
10
1.61563
20
0.739252
11
1.61563
21
0.66299
0
LINE
8
BLACK
6
CONTINUOUS
10
1.61563
20
0.66299
11
1.61484
21
0.660308
0
LINE
8
BLACK
6
CONTINUOUS
10
1.61484
20
0.660308
11
1.61418
21
0.659482
0
LINE
8
BLACK
6
CONTINUOUS
10
1.61418
20
0.659482
11
1.59183
21
0.637133
0
LINE
8
BLACK
6
CONTINUOUS
10
1.59183
20
0.637133
11
1.58937
21
0.635794
0
LINE
8
BLACK
6
CONTINUOUS
10
1.58937
20
0.635794
11
1.58739
21
0.635768
0
LINE
8
BLACK
6
CONTINUOUS
10
1.58739
20
0.635768
11
1.58694
21
0.635855
0
LINE
8
BLACK
6
CONTINUOUS
10
1.58694
20
0.635855
11
1.58694
21
0.635855
0
LINE
8
BLACK
6
CONTINUOUS
10
1.58694
20
0.635855
11
1.58663
21
0.635913
0
LINE
8
BLACK
6
CONTINUOUS
10
1.58663
20
0.635913
11
1.5834
21
0.63571
0
LINE
8
BLACK
6
CONTINUOUS
10
1.5834
20
0.63571
11
1.58045
21
0.635524
0
LINE
8
BLACK
6
CONTINUOUS
10
1.58045
20
0.635524
11
1.58045
21
0.635524
0
LINE
8
BLACK
6
CONTINUOUS
10
1.58045
20
0.635524
11
1.58013
21
0.635505
0
LINE
8
BLACK
6
CONTINUOUS
10
1.58013
20
0.635505
11
1.57984
21
0.635408
0
LINE
8
BLACK
6
CONTINUOUS
10
1.57984
20
0.635408
11
1.57984
21
0.635408
0
LINE
8
BLACK
6
CONTINUOUS
10
1.57984
20
0.635408
11
1.57424
21
0.63359
0
LINE
8
BLACK
6
CONTINUOUS
10
1.57424
20
0.63359
11
1.57424
21
0.63359
0
LINE
8
BLACK
6
CONTINUOUS
10
1.57424
20
0.63359
11
1.57394
21
0.633493
0
LINE
8
BLACK
6
CONTINUOUS
10
1.57394
20
0.633493
11
1.56845
21
0.630006
0
LINE
8
BLACK
6
CONTINUOUS
10
1.56845
20
0.630006
11
1.56824
21
0.629779
0
LINE
8
BLACK
6
CONTINUOUS
10
1.56824
20
0.629779
11
1.56824
21
0.629778
0
LINE
8
BLACK
6
CONTINUOUS
10
1.56824
20
0.629778
11
1.56566
21
0.62704
0
LINE
8
BLACK
6
CONTINUOUS
10
1.56566
20
0.62704
11
1.56399
21
0.625262
0
LINE
8
BLACK
6
CONTINUOUS
10
1.56399
20
0.625262
11
1.56086
21
0.619558
0
LINE
8
BLACK
6
CONTINUOUS
10
1.56086
20
0.619558
11
1.55924
21
0.613254
0
LINE
8
BLACK
6
CONTINUOUS
10
1.55924
20
0.613254
11
1.55924
21
0.606746
0
LINE
8
BLACK
6
CONTINUOUS
10
1.55924
20
0.606746
11
1.56086
21
0.600442
0
LINE
8
BLACK
6
CONTINUOUS
10
1.56086
20
0.600442
11
1.56399
21
0.594738
0
LINE
8
BLACK
6
CONTINUOUS
10
1.56399
20
0.594738
11
1.56845
21
0.589994
0
LINE
8
BLACK
6
CONTINUOUS
10
1.56845
20
0.589994
11
1.57394
21
0.586507
0
LINE
8
BLACK
6
CONTINUOUS
10
1.57394
20
0.586507
11
1.57424
21
0.58641
0
LINE
8
BLACK
6
CONTINUOUS
10
1.57424
20
0.58641
11
1.57424
21
0.58641
0
LINE
8
BLACK
6
CONTINUOUS
10
1.57424
20
0.58641
11
1.57927
21
0.584776
0
LINE
8
BLACK
6
CONTINUOUS
10
1.57927
20
0.584776
11
1.58158
21
0.583198
0
LINE
8
BLACK
6
CONTINUOUS
10
1.58158
20
0.583198
11
1.58267
21
0.580624
0
LINE
8
BLACK
6
CONTINUOUS
10
1.58267
20
0.580624
11
1.58219
21
0.57787
0
LINE
8
BLACK
6
CONTINUOUS
10
1.58219
20
0.57787
11
1.58125
21
0.576551
0
LINE
8
BLACK
6
CONTINUOUS
10
1.58125
20
0.576551
11
1.56404
21
0.559347
0
LINE
8
BLACK
6
CONTINUOUS
10
1.56404
20
0.559347
11
1.56159
21
0.558007
0
LINE
8
BLACK
6
CONTINUOUS
10
1.56159
20
0.558007
11
1.56053
21
0.557894
0
LINE
8
BLACK
6
CONTINUOUS
10
1.56053
20
0.557894
11
1.41557
21
0.557894
0
LINE
8
BLACK
6
CONTINUOUS
10
1.41557
20
0.557894
11
1.41289
21
0.558681
0
LINE
8
BLACK
6
CONTINUOUS
10
1.41289
20
0.558681
11
1.41241
21
0.559032
0
LINE
8
BLACK
6
CONTINUOUS
10
1.41241
20
0.559032
11
1.40915
21
0.561724
0
LINE
8
BLACK
6
CONTINUOUS
10
1.40915
20
0.561724
11
1.40915
21
0.561724
0
LINE
8
BLACK
6
CONTINUOUS
10
1.40915
20
0.561724
11
1.40891
21
0.561923
0
LINE
8
BLACK
6
CONTINUOUS
10
1.40891
20
0.561923
11
1.40302
21
0.564694
0
LINE
8
BLACK
6
CONTINUOUS
10
1.40302
20
0.564694
11
1.40272
21
0.564752
0
LINE
8
BLACK
6
CONTINUOUS
10
1.40272
20
0.564752
11
1.40272
21
0.564752
0
LINE
8
BLACK
6
CONTINUOUS
10
1.40272
20
0.564752
11
1.39694
21
0.565855
0
LINE
8
BLACK
6
CONTINUOUS
10
1.39694
20
0.565855
11
1.39694
21
0.565855
0
LINE
8
BLACK
6
CONTINUOUS
10
1.39694
20
0.565855
11
1.39663
21
0.565913
0
LINE
8
BLACK
6
CONTINUOUS
10
1.39663
20
0.565913
11
1.39338
21
0.565709
0
LINE
8
BLACK
6
CONTINUOUS
10
1.39338
20
0.565709
11
1.39045
21
0.565524
0
LINE
8
BLACK
6
CONTINUOUS
10
1.39045
20
0.565524
11
1.39045
21
0.565524
0
LINE
8
BLACK
6
CONTINUOUS
10
1.39045
20
0.565524
11
1.39013
21
0.565505
0
LINE
8
BLACK
6
CONTINUOUS
10
1.39013
20
0.565505
11
1.38984
21
0.565408
0
LINE
8
BLACK
6
CONTINUOUS
10
1.38984
20
0.565408
11
1.38984
21
0.565408
0
LINE
8
BLACK
6
CONTINUOUS
10
1.38984
20
0.565408
11
1.38424
21
0.56359
0
LINE
8
BLACK
6
CONTINUOUS
10
1.38424
20
0.56359
11
1.38424
21
0.56359
0
LINE
8
BLACK
6
CONTINUOUS
10
1.38424
20
0.56359
11
1.38394
21
0.563493
0
LINE
8
BLACK
6
CONTINUOUS
10
1.38394
20
0.563493
11
1.37845
21
0.560006
0
LINE
8
BLACK
6
CONTINUOUS
10
1.37845
20
0.560006
11
1.37824
21
0.559779
0
LINE
8
BLACK
6
CONTINUOUS
10
1.37824
20
0.559779
11
1.37824
21
0.559778
0
LINE
8
BLACK
6
CONTINUOUS
10
1.37824
20
0.559778
11
1.37753
21
0.559032
0
LINE
8
BLACK
6
CONTINUOUS
10
1.37753
20
0.559032
11
1.37399
21
0.555262
0
LINE
8
BLACK
6
CONTINUOUS
10
1.37399
20
0.555262
11
1.37086
21
0.549558
0
LINE
8
BLACK
6
CONTINUOUS
10
1.37086
20
0.549558
11
1.36924
21
0.543254
0
LINE
8
BLACK
6
CONTINUOUS
10
1.36924
20
0.543254
11
1.36924
21
0.536746
0
LINE
8
BLACK
6
CONTINUOUS
10
1.36924
20
0.536746
11
1.37086
21
0.530442
0
LINE
8
BLACK
6
CONTINUOUS
10
1.37086
20
0.530442
11
1.37399
21
0.524738
0
LINE
8
BLACK
6
CONTINUOUS
10
1.37399
20
0.524738
11
1.37845
21
0.519994
0
LINE
8
BLACK
6
CONTINUOUS
10
1.37845
20
0.519994
11
1.38394
21
0.516507
0
LINE
8
BLACK
6
CONTINUOUS
10
1.38394
20
0.516507
11
1.38424
21
0.51641
0
LINE
8
BLACK
6
CONTINUOUS
10
1.38424
20
0.51641
11
1.38424
21
0.51641
0
LINE
8
BLACK
6
CONTINUOUS
10
1.38424
20
0.51641
11
1.38984
21
0.514592
0
LINE
8
BLACK
6
CONTINUOUS
10
1.38984
20
0.514592
11
1.38984
21
0.514592
0
LINE
8
BLACK
6
CONTINUOUS
10
1.38984
20
0.514592
11
1.39013
21
0.514495
0
LINE
8
BLACK
6
CONTINUOUS
10
1.39013
20
0.514495
11
1.39045
21
0.514476
0
LINE
8
BLACK
6
CONTINUOUS
10
1.39045
20
0.514476
11
1.39045
21
0.514476
0
LINE
8
BLACK
6
CONTINUOUS
10
1.39045
20
0.514476
11
1.39338
21
0.514291
0
LINE
8
BLACK
6
CONTINUOUS
10
1.39338
20
0.514291
11
1.39663
21
0.514087
0
LINE
8
BLACK
6
CONTINUOUS
10
1.39663
20
0.514087
11
1.39694
21
0.514145
0
LINE
8
BLACK
6
CONTINUOUS
10
1.39694
20
0.514145
11
1.39694
21
0.514145
0
LINE
8
BLACK
6
CONTINUOUS
10
1.39694
20
0.514145
11
1.40272
21
0.515248
0
LINE
8
BLACK
6
CONTINUOUS
10
1.40272
20
0.515248
11
1.40272
21
0.515248
0
LINE
8
BLACK
6
CONTINUOUS
10
1.40272
20
0.515248
11
1.40302
21
0.515306
0
LINE
8
BLACK
6
CONTINUOUS
10
1.40302
20
0.515306
11
1.40891
21
0.518077
0
LINE
8
BLACK
6
CONTINUOUS
10
1.40891
20
0.518077
11
1.40915
21
0.518276
0
LINE
8
BLACK
6
CONTINUOUS
10
1.40915
20
0.518276
11
1.40915
21
0.518276
0
LINE
8
BLACK
6
CONTINUOUS
10
1.40915
20
0.518276
11
1.41241
21
0.520968
0
LINE
8
BLACK
6
CONTINUOUS
10
1.41241
20
0.520968
11
1.41497
21
0.522071
0
LINE
8
BLACK
6
CONTINUOUS
10
1.41497
20
0.522071
11
1.41557
21
0.522106
0
LINE
8
BLACK
6
CONTINUOUS
10
1.41557
20
0.522106
11
1.55715
21
0.522106
0
LINE
8
BLACK
6
CONTINUOUS
10
1.55715
20
0.522106
11
1.55983
21
0.521319
0
LINE
8
BLACK
6
CONTINUOUS
10
1.55983
20
0.521319
11
1.56166
21
0.519206
0
LINE
8
BLACK
6
CONTINUOUS
10
1.56166
20
0.519206
11
1.56211
21
0.517146
0
LINE
8
BLACK
6
CONTINUOUS
10
1.56211
20
0.517146
11
1.56211
21
0.31554
0
LINE
8
BLACK
6
CONTINUOUS
10
1.56211
20
0.31554
11
1.56132
21
0.312858
0
LINE
8
BLACK
6
CONTINUOUS
10
1.56132
20
0.312858
11
1.56076
21
0.312144
0
LINE
8
BLACK
6
CONTINUOUS
10
1.56076
20
0.312144
11
1.55899
21
0.310262
0
LINE
8
BLACK
6
CONTINUOUS
10
1.55899
20
0.310262
11
1.55586
21
0.304558
0
LINE
8
BLACK
6
CONTINUOUS
10
1.55586
20
0.304558
11
1.55424
21
0.298254
0
LINE
8
BLACK
6
CONTINUOUS
10
1.55424
20
0.298254
11
1.55424
21
0.291746
0
LINE
8
BLACK
6
CONTINUOUS
10
1.55424
20
0.291746
11
1.55586
21
0.285442
0
LINE
8
BLACK
6
CONTINUOUS
10
1.55586
20
0.285442
11
1.55899
21
0.279738
0
LINE
8
BLACK
6
CONTINUOUS
10
1.55899
20
0.279738
11
1.55921
21
0.279511
0
LINE
8
BLACK
6
CONTINUOUS
10
1.55921
20
0.279511
11
1.56135
21
0.277226
0
LINE
8
BLACK
6
CONTINUOUS
10
1.56135
20
0.277226
11
1.56345
21
0.274994
0
LINE
8
BLACK
6
CONTINUOUS
10
1.56345
20
0.274994
11
1.56894
21
0.271507
0
LINE
8
BLACK
6
CONTINUOUS
10
1.56894
20
0.271507
11
1.56924
21
0.27141
0
LINE
8
BLACK
6
CONTINUOUS
10
1.56924
20
0.27141
11
1.56924
21
0.27141
0
LINE
8
BLACK
6
CONTINUOUS
10
1.56924
20
0.27141
11
1.57484
21
0.269592
0
LINE
8
BLACK
6
CONTINUOUS
10
1.57484
20
0.269592
11
1.57484
21
0.269592
0
LINE
8
BLACK
6
CONTINUOUS
10
1.57484
20
0.269592
11
1.57513
21
0.269495
0
LINE
8
BLACK
6
CONTINUOUS
10
1.57513
20
0.269495
11
1.57545
21
0.269476
0
LINE
8
BLACK
6
CONTINUOUS
10
1.57545
20
0.269476
11
1.57545
21
0.269476
0
LINE
8
BLACK
6
CONTINUOUS
10
1.57545
20
0.269476
11
1.57838
21
0.269291
0
LINE
8
BLACK
6
CONTINUOUS
10
1.57838
20
0.269291
11
1.58163
21
0.269087
0
LINE
8
BLACK
6
CONTINUOUS
10
1.58163
20
0.269087
11
1.58194
21
0.269145
0
LINE
8
BLACK
6
CONTINUOUS
10
1.58194
20
0.269145
11
1.58194
21
0.269145
0
LINE
8
BLACK
6
CONTINUOUS
10
1.58194
20
0.269145
11
1.58772
21
0.270248
0
LINE
8
BLACK
6
CONTINUOUS
10
1.58772
20
0.270248
11
1.58772
21
0.270248
0
LINE
8
BLACK
6
CONTINUOUS
10
1.58772
20
0.270248
11
1.58802
21
0.270306
0
LINE
8
BLACK
6
CONTINUOUS
10
1.58802
20
0.270306
11
1.59391
21
0.273077
0
LINE
8
BLACK
6
CONTINUOUS
10
1.59391
20
0.273077
11
1.59415
21
0.273276
0
LINE
8
BLACK
6
CONTINUOUS
10
1.59415
20
0.273276
11
1.59415
21
0.273276
0
LINE
8
BLACK
6
CONTINUOUS
10
1.59415
20
0.273276
11
1.59869
21
0.277027
0
LINE
8
BLACK
6
CONTINUOUS
10
1.59869
20
0.277027
11
1.59893
21
0.277226
0
LINE
8
BLACK
6
CONTINUOUS
10
1.59893
20
0.277226
11
1.60275
21
0.282491
0
LINE
8
BLACK
6
CONTINUOUS
10
1.60275
20
0.282491
11
1.60515
21
0.288543
0
LINE
8
BLACK
6
CONTINUOUS
10
1.60515
20
0.288543
11
1.6052
21
0.288934
0
LINE
8
BLACK
6
CONTINUOUS
10
1.6052
20
0.288934
11
1.60593
21
0.29469
0
LINE
8
BLACK
6
CONTINUOUS
10
1.60593
20
0.29469
11
1.60596
21
0.295
0
LINE
8
BLACK
6
CONTINUOUS
10
1.60596
20
0.295
11
1.60568
21
0.297246
0
LINE
8
BLACK
6
CONTINUOUS
10
1.60568
20
0.297246
11
1.60519
21
0.301147
0
LINE
8
BLACK
6
CONTINUOUS
10
1.60519
20
0.301147
11
1.60519
21
0.301148
0
LINE
8
BLACK
6
CONTINUOUS
10
1.60519
20
0.301148
11
1.60515
21
0.301457
0
LINE
8
BLACK
6
CONTINUOUS
10
1.60515
20
0.301457
11
1.60392
21
0.304558
0
LINE
8
BLACK
6
CONTINUOUS
10
1.60392
20
0.304558
11
1.60287
21
0.307218
0
LINE
8
BLACK
6
CONTINUOUS
10
1.60287
20
0.307218
11
1.60287
21
0.307219
0
LINE
8
BLACK
6
CONTINUOUS
10
1.60287
20
0.307219
11
1.60275
21
0.307509
0
LINE
8
BLACK
6
CONTINUOUS
10
1.60275
20
0.307509
11
1.59893
21
0.312774
0
LINE
8
BLACK
6
CONTINUOUS
10
1.59893
20
0.312774
11
1.59901
21
0.312835
0
LINE
8
BLACK
6
CONTINUOUS
10
1.59901
20
0.312835
11
1.59798
21
0.31488
0
LINE
8
BLACK
6
CONTINUOUS
10
1.59798
20
0.31488
11
1.59789
21
0.315782
0
LINE
8
BLACK
6
CONTINUOUS
10
1.59789
20
0.315782
11
1.59789
21
0.528688
0
LINE
8
BLACK
6
CONTINUOUS
10
1.59789
20
0.528688
11
1.59793
21
0.529271
0
LINE
8
BLACK
6
CONTINUOUS
10
1.59793
20
0.529271
11
1.59804
21
0.5302
0
LINE
8
BLACK
6
CONTINUOUS
10
1.59804
20
0.5302
11
1.59808
21
0.530568
0
LINE
8
BLACK
6
CONTINUOUS
10
1.59808
20
0.530568
11
1.59801
21
0.530933
0
LINE
8
BLACK
6
CONTINUOUS
10
1.59801
20
0.530933
11
1.59766
21
0.53286
0
LINE
8
BLACK
6
CONTINUOUS
10
1.59766
20
0.53286
11
1.59764
21
0.533014
0
LINE
8
BLACK
6
CONTINUOUS
10
1.59764
20
0.533014
11
1.59735
21
0.534953
0
LINE
8
BLACK
6
CONTINUOUS
10
1.59735
20
0.534953
11
1.59735
21
0.534953
0
LINE
8
BLACK
6
CONTINUOUS
10
1.59735
20
0.534953
11
1.59729
21
0.535319
0
LINE
8
BLACK
6
CONTINUOUS
10
1.59729
20
0.535319
11
1.59717
21
0.535578
0
LINE
8
BLACK
6
CONTINUOUS
10
1.59717
20
0.535578
11
1.59712
21
0.53586
0
LINE
8
BLACK
6
CONTINUOUS
10
1.59712
20
0.53586
11
1.59676
21
0.536551
0
LINE
8
BLACK
6
CONTINUOUS
10
1.59676
20
0.536551
11
1.59622
21
0.539294
0
LINE
8
BLACK
6
CONTINUOUS
10
1.59622
20
0.539294
11
1.59725
21
0.541892
0
LINE
8
BLACK
6
CONTINUOUS
10
1.59725
20
0.541892
11
1.59765
21
0.542345
0
LINE
8
BLACK
6
CONTINUOUS
10
1.59765
20
0.542345
11
1.67672
21
0.621419
0
LINE
8
BLACK
6
CONTINUOUS
10
1.67672
20
0.621419
11
1.67716
21
0.621807
0
LINE
8
BLACK
6
CONTINUOUS
10
1.67716
20
0.621807
11
1.67749
21
0.622069
0
LINE
8
BLACK
6
CONTINUOUS
10
1.67749
20
0.622069
11
1.67819
21
0.622616
0
LINE
8
BLACK
6
CONTINUOUS
10
1.67819
20
0.622616
11
1.67951
21
0.624535
0
LINE
8
BLACK
6
CONTINUOUS
10
1.67951
20
0.624535
11
1.6796
21
0.62466
0
LINE
8
BLACK
6
CONTINUOUS
10
1.6796
20
0.62466
11
1.68077
21
0.626237
0
LINE
8
BLACK
6
CONTINUOUS
10
1.68077
20
0.626237
11
1.68077
21
0.626237
0
LINE
8
BLACK
6
CONTINUOUS
10
1.68077
20
0.626237
11
1.68099
21
0.626535
0
LINE
8
BLACK
6
CONTINUOUS
10
1.68099
20
0.626535
11
1.68108
21
0.626805
0
LINE
8
BLACK
6
CONTINUOUS
10
1.68108
20
0.626805
11
1.68125
21
0.627041
0
LINE
8
BLACK
6
CONTINUOUS
10
1.68125
20
0.627041
11
1.68195
21
0.629264
0
LINE
8
BLACK
6
CONTINUOUS
10
1.68195
20
0.629264
11
1.682
21
0.629411
0
LINE
8
BLACK
6
CONTINUOUS
10
1.682
20
0.629411
11
1.68265
21
0.63126
0
LINE
8
BLACK
6
CONTINUOUS
10
1.68265
20
0.63126
11
1.68265
21
0.63126
0
LINE
8
BLACK
6
CONTINUOUS
10
1.68265
20
0.63126
11
1.68277
21
0.63161
0
LINE
8
BLACK
6
CONTINUOUS
10
1.68277
20
0.63161
11
1.68278
21
0.631894
0
LINE
8
BLACK
6
CONTINUOUS
10
1.68278
20
0.631894
11
1.68278
21
0.6319
0
LINE
8
BLACK
6
CONTINUOUS
10
1.68278
20
0.6319
11
1.68287
21
0.63217
0
LINE
8
BLACK
6
CONTINUOUS
10
1.68287
20
0.63217
11
1.68289
21
0.632499
0
LINE
8
BLACK
6
CONTINUOUS
10
1.68289
20
0.632499
11
1.68289
21
0.634658
0
LINE
8
BLACK
6
CONTINUOUS
10
1.68289
20
0.634658
11
1.6829
21
0.634853
0
LINE
8
BLACK
6
CONTINUOUS
10
1.6829
20
0.634853
11
1.68292
21
0.635408
0
LINE
8
BLACK
6
CONTINUOUS
10
1.68292
20
0.635408
11
1.68298
21
0.636985
0
LINE
8
BLACK
6
CONTINUOUS
10
1.68298
20
0.636985
11
1.68291
21
0.637254
0
LINE
8
BLACK
6
CONTINUOUS
10
1.68291
20
0.637254
11
1.68289
21
0.637549
0
LINE
8
BLACK
6
CONTINUOUS
10
1.68289
20
0.637549
11
1.68289
21
0.864218
0
LINE
8
BLACK
6
CONTINUOUS
10
1.68289
20
0.864218
11
1.68368
21
0.8669
0
LINE
8
BLACK
6
CONTINUOUS
10
1.68368
20
0.8669
11
1.68393
21
0.867222
0
LINE
8
BLACK
6
CONTINUOUS
10
1.68393
20
0.867222
11
1.68393
21
0.867226
0
LINE
8
BLACK
6
CONTINUOUS
10
1.68393
20
0.867226
11
1.68757
21
0.872239
0
LINE
8
BLACK
6
CONTINUOUS
10
1.68757
20
0.872239
11
1.68757
21
0.872239
0
LINE
8
BLACK
6
CONTINUOUS
10
1.68757
20
0.872239
11
1.68775
21
0.872491
0
LINE
8
BLACK
6
CONTINUOUS
10
1.68775
20
0.872491
11
1.69015
21
0.878543
0
LINE
8
BLACK
6
CONTINUOUS
10
1.69015
20
0.878543
11
1.69096
21
0.885
0
LINE
8
BLACK
6
CONTINUOUS
10
1.69096
20
0.885
11
1.69077
21
0.886502
0
LINE
8
BLACK
6
CONTINUOUS
10
1.69077
20
0.886502
11
1.69019
21
0.891147
0
LINE
8
BLACK
6
CONTINUOUS
10
1.69019
20
0.891147
11
1.69019
21
0.891148
0
LINE
8
BLACK
6
CONTINUOUS
10
1.69019
20
0.891148
11
1.69015
21
0.891457
0
LINE
8
BLACK
6
CONTINUOUS
10
1.69015
20
0.891457
11
1.68984
21
0.892239
0
LINE
8
BLACK
6
CONTINUOUS
10
1.68984
20
0.892239
11
1.68787
21
0.897218
0
LINE
8
BLACK
6
CONTINUOUS
10
1.68787
20
0.897218
11
1.68787
21
0.897219
0
LINE
8
BLACK
6
CONTINUOUS
10
1.68787
20
0.897219
11
1.68775
21
0.897509
0
LINE
8
BLACK
6
CONTINUOUS
10
1.68775
20
0.897509
11
1.68393
21
0.902774
0
LINE
8
BLACK
6
CONTINUOUS
10
1.68393
20
0.902774
11
1.67981
21
0.906178
0
LINE
8
BLACK
6
CONTINUOUS
10
1.67981
20
0.906178
11
1.67825
21
0.908494
0
LINE
8
BLACK
6
CONTINUOUS
10
1.67825
20
0.908494
11
1.67818
21
0.911288
0
LINE
8
BLACK
6
CONTINUOUS
10
1.67818
20
0.911288
11
1.67981
21
0.913822
0
LINE
8
BLACK
6
CONTINUOUS
10
1.67981
20
0.913822
11
1.67994
21
0.913926
0
LINE
8
BLACK
6
CONTINUOUS
10
1.67994
20
0.913926
11
1.68393
21
0.917226
0
LINE
8
BLACK
6
CONTINUOUS
10
1.68393
20
0.917226
11
1.68775
21
0.922491
0
LINE
8
BLACK
6
CONTINUOUS
10
1.68775
20
0.922491
11
1.69015
21
0.928543
0
LINE
8
BLACK
6
CONTINUOUS
10
1.69015
20
0.928543
11
1.69096
21
0.935
0
LINE
8
BLACK
6
CONTINUOUS
10
1.69096
20
0.935
11
1.69015
21
0.941457
0
LINE
8
BLACK
6
CONTINUOUS
10
1.69015
20
0.941457
11
1.68775
21
0.947509
0
LINE
8
BLACK
6
CONTINUOUS
10
1.68775
20
0.947509
11
1.68393
21
0.952774
0
LINE
8
BLACK
6
CONTINUOUS
10
1.68393
20
0.952774
11
1.68369
21
0.952973
0
LINE
8
BLACK
6
CONTINUOUS
10
1.68369
20
0.952973
11
1.67915
21
0.956724
0
LINE
8
BLACK
6
CONTINUOUS
10
1.67915
20
0.956724
11
1.67915
21
0.956724
0
LINE
8
BLACK
6
CONTINUOUS
10
1.67915
20
0.956724
11
1.67891
21
0.956923
0
LINE
8
BLACK
6
CONTINUOUS
10
1.67891
20
0.956923
11
1.67302
21
0.959694
0
LINE
8
BLACK
6
CONTINUOUS
10
1.67302
20
0.959694
11
1.67272
21
0.959752
0
LINE
8
BLACK
6
CONTINUOUS
10
1.67272
20
0.959752
11
1.67272
21
0.959752
0
LINE
8
BLACK
6
CONTINUOUS
10
1.67272
20
0.959752
11
1.66694
21
0.960855
0
LINE
8
BLACK
6
CONTINUOUS
10
1.66694
20
0.960855
11
1.66694
21
0.960855
0
LINE
8
BLACK
6
CONTINUOUS
10
1.66694
20
0.960855
11
1.66663
21
0.960913
0
LINE
8
BLACK
6
CONTINUOUS
10
1.66663
20
0.960913
11
1.66632
21
0.960894
0
LINE
8
BLACK
6
CONTINUOUS
10
1.66632
20
0.960894
11
1.66615
21
0.960904
0
LINE
8
BLACK
6
CONTINUOUS
10
1.66615
20
0.960904
11
1.66353
21
0.961858
0
LINE
8
BLACK
6
CONTINUOUS
10
1.66353
20
0.961858
11
1.66296
21
0.962347
0
LINE
8
BLACK
6
CONTINUOUS
10
1.66296
20
0.962347
11
1.48762
21
1.13769
0
LINE
8
BLACK
6
CONTINUOUS
10
1.48762
20
1.13769
11
1.48723
21
1.13813
0
LINE
8
BLACK
6
CONTINUOUS
10
1.48723
20
1.13813
11
1.48665
21
1.13886
0
LINE
8
BLACK
6
CONTINUOUS
10
1.48665
20
1.13886
11
1.48642
21
1.13915
0
LINE
8
BLACK
6
CONTINUOUS
10
1.48642
20
1.13915
11
1.4845
21
1.14048
0
LINE
8
BLACK
6
CONTINUOUS
10
1.4845
20
1.14048
11
1.48438
21
1.14057
0
LINE
8
BLACK
6
CONTINUOUS
10
1.48438
20
1.14057
11
1.48401
21
1.14084
0
LINE
8
BLACK
6
CONTINUOUS
10
1.48401
20
1.14084
11
1.4825
21
1.14195
0
LINE
8
BLACK
6
CONTINUOUS
10
1.4825
20
1.14195
11
1.48223
21
1.14205
0
LINE
8
BLACK
6
CONTINUOUS
10
1.48223
20
1.14205
11
1.48199
21
1.14221
0
LINE
8
BLACK
6
CONTINUOUS
10
1.48199
20
1.14221
11
1.47977
21
1.14291
0
LINE
8
BLACK
6
CONTINUOUS
10
1.47977
20
1.14291
11
1.47963
21
1.14296
0
LINE
8
BLACK
6
CONTINUOUS
10
1.47963
20
1.14296
11
1.47742
21
1.14374
0
LINE
8
BLACK
6
CONTINUOUS
10
1.47742
20
1.14374
11
1.47714
21
1.14375
0
LINE
8
BLACK
6
CONTINUOUS
10
1.47714
20
1.14375
11
1.47713
21
1.14375
0
LINE
8
BLACK
6
CONTINUOUS
10
1.47713
20
1.14375
11
1.47686
21
1.14383
0
LINE
8
BLACK
6
CONTINUOUS
10
1.47686
20
1.14383
11
1.47654
21
1.14386
0
LINE
8
BLACK
6
CONTINUOUS
10
1.47654
20
1.14386
11
1.47438
21
1.14386
0
LINE
8
BLACK
6
CONTINUOUS
10
1.47438
20
1.14386
11
1.47418
21
1.14386
0
LINE
8
BLACK
6
CONTINUOUS
10
1.47418
20
1.14386
11
1.47205
21
1.14395
0
LINE
8
BLACK
6
CONTINUOUS
10
1.47205
20
1.14395
11
1.47178
21
1.14387
0
LINE
8
BLACK
6
CONTINUOUS
10
1.47178
20
1.14387
11
1.47149
21
1.14386
0
LINE
8
BLACK
6
CONTINUOUS
10
1.47149
20
1.14386
11
1.24205
21
1.14386
0
LINE
8
BLACK
6
CONTINUOUS
10
1.24205
20
1.14386
11
1.24146
21
1.14389
0
LINE
8
BLACK
6
CONTINUOUS
10
1.24146
20
1.14389
11
1.24113
21
1.14393
0
LINE
8
BLACK
6
CONTINUOUS
10
1.24113
20
1.14393
11
1.24017
21
1.14405
0
LINE
8
BLACK
6
CONTINUOUS
10
1.24017
20
1.14405
11
1.2398
21
1.14398
0
LINE
8
BLACK
6
CONTINUOUS
10
1.2398
20
1.14398
11
1.2398
21
1.14398
0
LINE
8
BLACK
6
CONTINUOUS
10
1.2398
20
1.14398
11
1.23787
21
1.14363
0
LINE
8
BLACK
6
CONTINUOUS
10
1.23787
20
1.14363
11
1.23772
21
1.1436
0
LINE
8
BLACK
6
CONTINUOUS
10
1.23772
20
1.1436
11
1.23578
21
1.14331
0
LINE
8
BLACK
6
CONTINUOUS
10
1.23578
20
1.14331
11
1.23578
21
1.14331
0
LINE
8
BLACK
6
CONTINUOUS
10
1.23578
20
1.14331
11
1.23541
21
1.14326
0
LINE
8
BLACK
6
CONTINUOUS
10
1.23541
20
1.14326
11
1.23516
21
1.14313
0
LINE
8
BLACK
6
CONTINUOUS
10
1.23516
20
1.14313
11
1.23487
21
1.14308
0
LINE
8
BLACK
6
CONTINUOUS
10
1.23487
20
1.14308
11
1.2328
21
1.14201
0
LINE
8
BLACK
6
CONTINUOUS
10
1.2328
20
1.14201
11
1.23267
21
1.14194
0
LINE
8
BLACK
6
CONTINUOUS
10
1.23267
20
1.14194
11
1.23057
21
1.14093
0
LINE
8
BLACK
6
CONTINUOUS
10
1.23057
20
1.14093
11
1.23036
21
1.14073
0
LINE
8
BLACK
6
CONTINUOUS
10
1.23036
20
1.14073
11
1.23035
21
1.14073
0
LINE
8
BLACK
6
CONTINUOUS
10
1.23035
20
1.14073
11
1.2301
21
1.1406
0
LINE
8
BLACK
6
CONTINUOUS
10
1.2301
20
1.1406
11
1.22985
21
1.14039
0
LINE
8
BLACK
6
CONTINUOUS
10
1.22985
20
1.14039
11
1.22832
21
1.13886
0
LINE
8
BLACK
6
CONTINUOUS
10
1.22832
20
1.13886
11
1.22818
21
1.13873
0
LINE
8
BLACK
6
CONTINUOUS
10
1.22818
20
1.13873
11
1.22662
21
1.13728
0
LINE
8
BLACK
6
CONTINUOUS
10
1.22662
20
1.13728
11
1.22648
21
1.13704
0
LINE
8
BLACK
6
CONTINUOUS
10
1.22648
20
1.13704
11
1.22628
21
1.13681
0
LINE
8
BLACK
6
CONTINUOUS
10
1.22628
20
1.13681
11
1.21716
21
1.12769
0
LINE
8
BLACK
6
CONTINUOUS
10
1.21716
20
1.12769
11
1.2147
21
1.12635
0
LINE
8
BLACK
6
CONTINUOUS
10
1.2147
20
1.12635
11
1.21365
21
1.12624
0
LINE
8
BLACK
6
CONTINUOUS
10
1.21365
20
1.12624
11
1.09892
21
1.12624
0
LINE
8
BLACK
6
CONTINUOUS
10
1.09892
20
1.12624
11
1.09623
21
1.12703
0
LINE
8
BLACK
6
CONTINUOUS
10
1.09623
20
1.12703
11
1.09575
21
1.12738
0
LINE
8
BLACK
6
CONTINUOUS
10
1.09575
20
1.12738
11
1.0925
21
1.13007
0
LINE
8
BLACK
6
CONTINUOUS
10
1.0925
20
1.13007
11
1.0925
21
1.13007
0
LINE
8
BLACK
6
CONTINUOUS
10
1.0925
20
1.13007
11
1.09226
21
1.13027
0
LINE
8
BLACK
6
CONTINUOUS
10
1.09226
20
1.13027
11
1.08637
21
1.13304
0
LINE
8
BLACK
6
CONTINUOUS
10
1.08637
20
1.13304
11
1.08606
21
1.1331
0
LINE
8
BLACK
6
CONTINUOUS
10
1.08606
20
1.1331
11
1.08606
21
1.1331
0
LINE
8
BLACK
6
CONTINUOUS
10
1.08606
20
1.1331
11
1.08028
21
1.1342
0
LINE
8
BLACK
6
CONTINUOUS
10
1.08028
20
1.1342
11
1.08028
21
1.1342
0
LINE
8
BLACK
6
CONTINUOUS
10
1.08028
20
1.1342
11
1.07998
21
1.13426
0
LINE
8
BLACK
6
CONTINUOUS
10
1.07998
20
1.13426
11
1.07673
21
1.13406
0
LINE
8
BLACK
6
CONTINUOUS
10
1.07673
20
1.13406
11
1.07379
21
1.13387
0
LINE
8
BLACK
6
CONTINUOUS
10
1.07379
20
1.13387
11
1.07379
21
1.13387
0
LINE
8
BLACK
6
CONTINUOUS
10
1.07379
20
1.13387
11
1.07348
21
1.13385
0
LINE
8
BLACK
6
CONTINUOUS
10
1.07348
20
1.13385
11
1.07318
21
1.13375
0
LINE
8
BLACK
6
CONTINUOUS
10
1.07318
20
1.13375
11
1.07318
21
1.13375
0
LINE
8
BLACK
6
CONTINUOUS
10
1.07318
20
1.13375
11
1.06759
21
1.13194
0
LINE
8
BLACK
6
CONTINUOUS
10
1.06759
20
1.13194
11
1.06759
21
1.13194
0
LINE
8
BLACK
6
CONTINUOUS
10
1.06759
20
1.13194
11
1.06729
21
1.13184
0
LINE
8
BLACK
6
CONTINUOUS
10
1.06729
20
1.13184
11
1.0618
21
1.12835
0
LINE
8
BLACK
6
CONTINUOUS
10
1.0618
20
1.12835
11
1.06158
21
1.12812
0
LINE
8
BLACK
6
CONTINUOUS
10
1.06158
20
1.12812
11
1.06158
21
1.12812
0
LINE
8
BLACK
6
CONTINUOUS
10
1.06158
20
1.12812
11
1.06088
21
1.12738
0
LINE
8
BLACK
6
CONTINUOUS
10
1.06088
20
1.12738
11
1.05734
21
1.12361
0
LINE
8
BLACK
6
CONTINUOUS
10
1.05734
20
1.12361
11
1.05421
21
1.1179
0
LINE
8
BLACK
6
CONTINUOUS
10
1.05421
20
1.1179
11
1.05259
21
1.1116
0
LINE
8
BLACK
6
CONTINUOUS
10
1.05259
20
1.1116
11
1.05259
21
1.10509
0
LINE
8
BLACK
6
CONTINUOUS
10
1.05259
20
1.10509
11
1.05421
21
1.09879
0
LINE
8
BLACK
6
CONTINUOUS
10
0.0953112
20
0.638204
11
0.0953112
21
0.638204
0
LINE
8
BLACK
6
CONTINUOUS
10
0.0953112
20
0.638204
11
0.0979458
21
0.631998
0
LINE
8
BLACK
6
CONTINUOUS
10
0.0979458
20
0.631998
11
0.0981962
21
0.631408
0
LINE
8
BLACK
6
CONTINUOUS
10
0.0981962
20
0.631408
11
0.102532
21
0.625123
0
LINE
8
BLACK
6
CONTINUOUS
10
0.102532
20
0.625123
11
0.108042
21
0.619839
0
LINE
8
BLACK
6
CONTINUOUS
10
0.108042
20
0.619839
11
0.11075
21
0.618134
0
LINE
8
BLACK
6
CONTINUOUS
10
0.11075
20
0.618134
11
0.11429
21
0.615904
0
LINE
8
BLACK
6
CONTINUOUS
10
0.11429
20
0.615904
11
0.11429
21
0.615904
0
LINE
8
BLACK
6
CONTINUOUS
10
0.11429
20
0.615904
11
0.114503
21
0.61577
0
LINE
8
BLACK
6
CONTINUOUS
10
0.114503
20
0.61577
11
0.12165
21
0.613084
0
LINE
8
BLACK
6
CONTINUOUS
10
0.12165
20
0.613084
11
0.121898
21
0.613045
0
LINE
8
BLACK
6
CONTINUOUS
10
0.121898
20
0.613045
11
0.121898
21
0.613045
0
LINE
8
BLACK
6
CONTINUOUS
10
0.121898
20
0.613045
11
0.12542
21
0.612487
0
LINE
8
BLACK
6
CONTINUOUS
10
0.12542
20
0.612487
11
0.129191
21
0.61189
0
LINE
8
BLACK
6
CONTINUOUS
10
0.129191
20
0.61189
11
0.136818
21
0.612236
0
LINE
8
BLACK
6
CONTINUOUS
10
0.136818
20
0.612236
11
0.140014
21
0.613045
0
LINE
8
BLACK
6
CONTINUOUS
10
0.140014
20
0.613045
11
0.143976
21
0.614047
0
LINE
8
BLACK
6
CONTINUOUS
10
0.143976
20
0.614047
11
0.143976
21
0.614047
0
LINE
8
BLACK
6
CONTINUOUS
10
0.143976
20
0.614047
11
0.144219
21
0.614109
0
LINE
8
BLACK
6
CONTINUOUS
10
0.144219
20
0.614109
11
0.147656
21
0.61577
0
LINE
8
BLACK
6
CONTINUOUS
10
0.147656
20
0.61577
11
0.150867
21
0.617322
0
LINE
8
BLACK
6
CONTINUOUS
10
0.150867
20
0.617322
11
0.150867
21
0.617322
0
LINE
8
BLACK
6
CONTINUOUS
10
0.150867
20
0.617322
11
0.151093
21
0.617432
0
LINE
8
BLACK
6
CONTINUOUS
10
0.151093
20
0.617432
11
0.151293
21
0.617584
0
LINE
8
BLACK
6
CONTINUOUS
10
0.151293
20
0.617584
11
0.151293
21
0.617584
0
LINE
8
BLACK
6
CONTINUOUS
10
0.151293
20
0.617584
11
0.157158
21
0.622069
0
LINE
8
BLACK
6
CONTINUOUS
10
0.157158
20
0.622069
11
0.157229
21
0.621976
0
LINE
8
BLACK
6
CONTINUOUS
10
0.157229
20
0.621976
11
0.159275
21
0.623012
0
LINE
8
BLACK
6
CONTINUOUS
10
0.159275
20
0.623012
11
0.162056
21
0.622725
0
LINE
8
BLACK
6
CONTINUOUS
10
0.162056
20
0.622725
11
0.16424
21
0.620981
0
LINE
8
BLACK
6
CONTINUOUS
10
0.16424
20
0.620981
11
0.165138
21
0.618134
0
LINE
8
BLACK
6
CONTINUOUS
10
0.165138
20
0.618134
11
0.165138
21
0.363381
0
LINE
8
BLACK
6
CONTINUOUS
10
0.165138
20
0.363381
11
0.16435
21
0.360699
0
LINE
8
BLACK
6
CONTINUOUS
10
0.16435
20
0.360699
11
0.164204
21
0.360485
0
LINE
8
BLACK
6
CONTINUOUS
10
0.164204
20
0.360485
11
0.163994
21
0.360262
0
LINE
8
BLACK
6
CONTINUOUS
10
0.163994
20
0.360262
11
0.160859
21
0.354558
0
LINE
8
BLACK
6
CONTINUOUS
10
0.160859
20
0.354558
11
0.15924
21
0.348254
0
LINE
8
BLACK
6
CONTINUOUS
10
0.15924
20
0.348254
11
0.15924
21
0.341746
0
LINE
8
BLACK
6
CONTINUOUS
10
0.15924
20
0.341746
11
0.160859
21
0.335442
0
LINE
8
BLACK
6
CONTINUOUS
10
0.160859
20
0.335442
11
0.163994
21
0.329738
0
LINE
8
BLACK
6
CONTINUOUS
10
0.163994
20
0.329738
11
0.164208
21
0.329511
0
LINE
8
BLACK
6
CONTINUOUS
10
0.164208
20
0.329511
11
0.166354
21
0.327226
0
LINE
8
BLACK
6
CONTINUOUS
10
0.166354
20
0.327226
11
0.16845
21
0.324994
0
LINE
8
BLACK
6
CONTINUOUS
10
0.16845
20
0.324994
11
0.173945
21
0.321507
0
LINE
8
BLACK
6
CONTINUOUS
10
0.173945
20
0.321507
11
0.174242
21
0.32141
0
LINE
8
BLACK
6
CONTINUOUS
10
0.174242
20
0.32141
11
0.174242
21
0.32141
0
LINE
8
BLACK
6
CONTINUOUS
10
0.174242
20
0.32141
11
0.179838
21
0.319592
0
LINE
8
BLACK
6
CONTINUOUS
10
0.179838
20
0.319592
11
0.179838
21
0.319592
0
LINE
8
BLACK
6
CONTINUOUS
10
0.179838
20
0.319592
11
0.180135
21
0.319495
0
LINE
8
BLACK
6
CONTINUOUS
10
0.180135
20
0.319495
11
0.180446
21
0.319476
0
LINE
8
BLACK
6
CONTINUOUS
10
0.180446
20
0.319476
11
0.180446
21
0.319476
0
LINE
8
BLACK
6
CONTINUOUS
10
0.180446
20
0.319476
11
0.183383
21
0.319291
0
LINE
8
BLACK
6
CONTINUOUS
10
0.183383
20
0.319291
11
0.18663
21
0.319087
0
LINE
8
BLACK
6
CONTINUOUS
10
0.18663
20
0.319087
11
0.186937
21
0.319145
0
LINE
8
BLACK
6
CONTINUOUS
10
0.186937
20
0.319145
11
0.186937
21
0.319145
0
LINE
8
BLACK
6
CONTINUOUS
10
0.186937
20
0.319145
11
0.192717
21
0.320248
0
LINE
8
BLACK
6
CONTINUOUS
10
0.192717
20
0.320248
11
0.192717
21
0.320248
0
LINE
8
BLACK
6
CONTINUOUS
10
0.192717
20
0.320248
11
0.193024
21
0.320306
0
LINE
8
BLACK
6
CONTINUOUS
10
0.193024
20
0.320306
11
0.198913
21
0.323077
0
LINE
8
BLACK
6
CONTINUOUS
10
0.198913
20
0.323077
11
0.199153
21
0.323276
0
LINE
8
BLACK
6
CONTINUOUS
10
0.199153
20
0.323276
11
0.199153
21
0.323276
0
LINE
8
BLACK
6
CONTINUOUS
10
0.199153
20
0.323276
11
0.203687
21
0.327027
0
LINE
8
BLACK
6
CONTINUOUS
10
0.203687
20
0.327027
11
0.203927
21
0.327226
0
LINE
8
BLACK
6
CONTINUOUS
10
0.203927
20
0.327226
11
0.207753
21
0.332491
0
LINE
8
BLACK
6
CONTINUOUS
10
0.207753
20
0.332491
11
0.210149
21
0.338543
0
LINE
8
BLACK
6
CONTINUOUS
10
0.210149
20
0.338543
11
0.210965
21
0.345
0
LINE
8
BLACK
6
CONTINUOUS
10
0.210965
20
0.345
11
0.210149
21
0.351457
0
LINE
8
BLACK
6
CONTINUOUS
10
0.210149
20
0.351457
11
0.207753
21
0.357509
0
LINE
8
BLACK
6
CONTINUOUS
10
0.207753
20
0.357509
11
0.20581
21
0.360183
0
LINE
8
BLACK
6
CONTINUOUS
10
0.20581
20
0.360183
11
0.204862
21
0.363099
0
LINE
8
BLACK
6
CONTINUOUS
10
0.204862
20
0.363099
11
0.204862
21
0.839718
0
LINE
8
BLACK
6
CONTINUOUS
10
0.204862
20
0.839718
11
0.20565
21
0.8424
0
LINE
8
BLACK
6
CONTINUOUS
10
0.20565
20
0.8424
11
0.206315
21
0.843226
0
LINE
8
BLACK
6
CONTINUOUS
10
0.206315
20
0.843226
11
0.441774
21
1.07868
0
LINE
8
BLACK
6
CONTINUOUS
10
0.441774
20
1.07868
11
0.444227
21
1.08002
0
LINE
8
BLACK
6
CONTINUOUS
10
0.444227
20
1.08002
11
0.445282
21
1.08014
0
LINE
8
BLACK
6
CONTINUOUS
10
0.445282
20
1.08014
11
0.636668
21
1.08014
0
LINE
8
BLACK
6
CONTINUOUS
10
0.636668
20
1.08014
11
0.639326
21
1.07937
0
LINE
8
BLACK
6
CONTINUOUS
10
0.639326
20
1.07937
11
0.640399
21
1.07868
0
LINE
8
BLACK
6
CONTINUOUS
10
0.640399
20
1.07868
11
0.644142
21
1.07631
0
LINE
8
BLACK
6
CONTINUOUS
10
0.644142
20
1.07631
11
0.644439
21
1.07621
0
LINE
8
BLACK
6
CONTINUOUS
10
0.644439
20
1.07621
11
0.644439
21
1.07621
0
LINE
8
BLACK
6
CONTINUOUS
10
0.644439
20
1.07621
11
0.650035
21
1.07439
0
LINE
8
BLACK
6
CONTINUOUS
10
0.650035
20
1.07439
11
0.650035
21
1.07439
0
LINE
8
BLACK
6
CONTINUOUS
10
0.650035
20
1.07439
11
0.650332
21
1.0743
0
LINE
8
BLACK
6
CONTINUOUS
10
0.650332
20
1.0743
11
0.650643
21
1.07428
0
LINE
8
BLACK
6
CONTINUOUS
10
0.650643
20
1.07428
11
0.650643
21
1.07428
0
LINE
8
BLACK
6
CONTINUOUS
10
0.650643
20
1.07428
11
0.653579
21
1.07409
0
LINE
8
BLACK
6
CONTINUOUS
10
0.653579
20
1.07409
11
0.656827
21
1.07389
0
LINE
8
BLACK
6
CONTINUOUS
10
0.656827
20
1.07389
11
0.657134
21
1.07395
0
LINE
8
BLACK
6
CONTINUOUS
10
0.657134
20
1.07395
11
0.657134
21
1.07395
0
LINE
8
BLACK
6
CONTINUOUS
10
0.657134
20
1.07395
11
0.662914
21
1.07505
0
LINE
8
BLACK
6
CONTINUOUS
10
0.662914
20
1.07505
11
0.662914
21
1.07505
0
LINE
8
BLACK
6
CONTINUOUS
10
0.662914
20
1.07505
11
0.66322
21
1.07511
0
LINE
8
BLACK
6
CONTINUOUS
10
0.66322
20
1.07511
11
0.669109
21
1.07788
0
LINE
8
BLACK
6
CONTINUOUS
10
0.669109
20
1.07788
11
0.66935
21
1.07808
0
LINE
8
BLACK
6
CONTINUOUS
10
0.66935
20
1.07808
11
0.66935
21
1.07808
0
LINE
8
BLACK
6
CONTINUOUS
10
0.66935
20
1.07808
11
0.673884
21
1.08183
0
LINE
8
BLACK
6
CONTINUOUS
10
0.673884
20
1.08183
11
0.674124
21
1.08203
0
LINE
8
BLACK
6
CONTINUOUS
10
0.674124
20
1.08203
11
0.674785
21
1.08294
0
LINE
8
BLACK
6
CONTINUOUS
10
0.674785
20
1.08294
11
0.677766
21
1.08704
0
LINE
8
BLACK
6
CONTINUOUS
10
0.677766
20
1.08704
11
0.677766
21
1.08704
0
LINE
8
BLACK
6
CONTINUOUS
10
0.677766
20
1.08704
11
0.67795
21
1.08729
0
LINE
8
BLACK
6
CONTINUOUS
10
0.67795
20
1.08729
11
0.678298
21
1.08817
0
LINE
8
BLACK
6
CONTINUOUS
10
0.678298
20
1.08817
11
0.680231
21
1.09306
0
LINE
8
BLACK
6
CONTINUOUS
10
0.680231
20
1.09306
11
0.680231
21
1.09306
0
LINE
8
BLACK
6
CONTINUOUS
10
0.680231
20
1.09306
11
0.680346
21
1.09335
0
LINE
8
BLACK
6
CONTINUOUS
10
0.680346
20
1.09335
11
0.680441
21
1.0941
0
LINE
8
BLACK
6
CONTINUOUS
10
0.680441
20
1.0941
11
0.681122
21
1.09949
0
LINE
8
BLACK
6
CONTINUOUS
10
0.681122
20
1.09949
11
0.681161
21
1.0998
0
LINE
8
BLACK
6
CONTINUOUS
10
0.681161
20
1.0998
11
0.680971
21
1.10131
0
LINE
8
BLACK
6
CONTINUOUS
10
0.680971
20
1.10131
11
0.680385
21
1.10595
0
LINE
8
BLACK
6
CONTINUOUS
10
0.680385
20
1.10595
11
0.680385
21
1.10595
0
LINE
8
BLACK
6
CONTINUOUS
10
0.680385
20
1.10595
11
0.680346
21
1.10626
0
LINE
8
BLACK
6
CONTINUOUS
10
0.680346
20
1.10626
11
0.680204
21
1.10662
0
LINE
8
BLACK
6
CONTINUOUS
10
0.680204
20
1.10662
11
0.678231
21
1.1116
0
LINE
8
BLACK
6
CONTINUOUS
10
0.678231
20
1.1116
11
0.678065
21
1.11202
0
LINE
8
BLACK
6
CONTINUOUS
10
0.678065
20
1.11202
11
0.678065
21
1.11202
0
LINE
8
BLACK
6
CONTINUOUS
10
0.678065
20
1.11202
11
0.67795
21
1.11231
0
LINE
8
BLACK
6
CONTINUOUS
10
0.67795
20
1.11231
11
0.677639
21
1.11274
0
LINE
8
BLACK
6
CONTINUOUS
10
0.677639
20
1.11274
11
0.674308
21
1.11732
0
LINE
8
BLACK
6
CONTINUOUS
10
0.674308
20
1.11732
11
0.674124
21
1.11758
0
LINE
8
BLACK
6
CONTINUOUS
10
0.674124
20
1.11758
11
0.673398
21
1.11818
0
LINE
8
BLACK
6
CONTINUOUS
10
0.673398
20
1.11818
11
0.66935
21
1.12153
0
LINE
8
BLACK
6
CONTINUOUS
10
0.66935
20
1.12153
11
0.66935
21
1.12153
0
LINE
8
BLACK
6
CONTINUOUS
10
0.66935
20
1.12153
11
0.669109
21
1.12173
0
LINE
8
BLACK
6
CONTINUOUS
10
0.669109
20
1.12173
11
0.66322
21
1.1245
0
LINE
8
BLACK
6
CONTINUOUS
10
0.66322
20
1.1245
11
0.662914
21
1.12456
0
LINE
8
BLACK
6
CONTINUOUS
10
0.662914
20
1.12456
11
0.662914
21
1.12456
0
LINE
8
BLACK
6
CONTINUOUS
10
0.662914
20
1.12456
11
0.657134
21
1.12566
0
LINE
8
BLACK
6
CONTINUOUS
10
0.657134
20
1.12566
11
0.657134
21
1.12566
0
LINE
8
BLACK
6
CONTINUOUS
10
0.657134
20
1.12566
11
0.656827
21
1.12572
0
LINE
8
BLACK
6
CONTINUOUS
10
0.656827
20
1.12572
11
0.653579
21
1.12551
0
LINE
8
BLACK
6
CONTINUOUS
10
0.653579
20
1.12551
11
0.650643
21
1.12533
0
LINE
8
BLACK
6
CONTINUOUS
10
0.650643
20
1.12533
11
0.650643
21
1.12533
0
LINE
8
BLACK
6
CONTINUOUS
10
0.650643
20
1.12533
11
0.650332
21
1.12531
0
LINE
8
BLACK
6
CONTINUOUS
10
0.650332
20
1.12531
11
0.650035
21
1.12521
0
LINE
8
BLACK
6
CONTINUOUS
10
0.650035
20
1.12521
11
0.650035
21
1.12521
0
LINE
8
BLACK
6
CONTINUOUS
10
0.650035
20
1.12521
11
0.644439
21
1.12339
0
LINE
8
BLACK
6
CONTINUOUS
10
0.644439
20
1.12339
11
0.644439
21
1.12339
0
LINE
8
BLACK
6
CONTINUOUS
10
0.644439
20
1.12339
11
0.644142
21
1.1233
0
LINE
8
BLACK
6
CONTINUOUS
10
0.644142
20
1.1233
11
0.641353
21
1.12153
0
LINE
8
BLACK
6
CONTINUOUS
10
0.641353
20
1.12153
11
0.639947
21
1.12063
0
LINE
8
BLACK
6
CONTINUOUS
10
0.639947
20
1.12063
11
0.637289
21
1.11986
0
LINE
8
BLACK
6
CONTINUOUS
10
0.637289
20
1.11986
11
0.437747
21
1.11986
0
LINE
8
BLACK
6
CONTINUOUS
10
0.437747
20
1.11986
11
0.437307
21
1.11991
0
LINE
8
BLACK
6
CONTINUOUS
10
0.437307
20
1.11991
11
0.437306
21
1.11989
0
LINE
8
BLACK
6
CONTINUOUS
10
0.437306
20
1.11989
11
0.436953
21
1.11992
0
LINE
8
BLACK
6
CONTINUOUS
10
0.436953
20
1.11992
11
0.436609
21
1.11999
0
LINE
8
BLACK
6
CONTINUOUS
10
0.436609
20
1.11999
11
0.434631
21
1.11987
0
LINE
8
BLACK
6
CONTINUOUS
10
0.434631
20
1.11987
11
0.434324
21
1.11986
0
LINE
8
BLACK
6
CONTINUOUS
10
0.434324
20
1.11986
11
0.433625
21
1.11986
0
LINE
8
BLACK
6
CONTINUOUS
10
0.433625
20
1.11986
11
0.433171
21
1.1198
0
LINE
8
BLACK
6
CONTINUOUS
10
0.433171
20
1.1198
11
0.432776
21
1.11976
0
LINE
8
BLACK
6
CONTINUOUS
10
0.432776
20
1.11976
11
0.431285
21
1.11966
0
LINE
8
BLACK
6
CONTINUOUS
10
0.431285
20
1.11966
11
0.430932
21
1.11964
0
LINE
8
BLACK
6
CONTINUOUS
10
0.430932
20
1.11964
11
0.4306
21
1.11952
0
LINE
8
BLACK
6
CONTINUOUS
10
0.4306
20
1.11952
11
0.430469
21
1.1195
0
LINE
8
BLACK
6
CONTINUOUS
10
0.430469
20
1.1195
11
0.429847
21
1.11934
0
LINE
8
BLACK
6
CONTINUOUS
10
0.429847
20
1.11934
11
0.42972
21
1.1193
0
LINE
8
BLACK
6
CONTINUOUS
10
0.42972
20
1.1193
11
0.42937
21
1.11925
0
LINE
8
BLACK
6
CONTINUOUS
10
0.42937
20
1.11925
11
0.429048
21
1.11911
0
LINE
8
BLACK
6
CONTINUOUS
10
0.429048
20
1.11911
11
0.429048
21
1.11911
0
LINE
8
BLACK
6
CONTINUOUS
10
0.429048
20
1.11911
11
0.428116
21
1.11868
0
LINE
8
BLACK
6
CONTINUOUS
10
0.428116
20
1.11868
11
0.427688
21
1.11849
0
LINE
8
BLACK
6
CONTINUOUS
10
0.427688
20
1.11849
11
0.427321
21
1.11834
0
LINE
8
BLACK
6
CONTINUOUS
10
0.427321
20
1.11834
11
0.425583
21
1.11771
0
LINE
8
BLACK
6
CONTINUOUS
10
0.425583
20
1.11771
11
0.425298
21
1.1175
0
LINE
8
BLACK
6
CONTINUOUS
10
0.425298
20
1.1175
11
0.42518
21
1.11744
0
LINE
8
BLACK
6
CONTINUOUS
10
0.42518
20
1.11744
11
0.424627
21
1.11712
0
LINE
8
BLACK
6
CONTINUOUS
10
0.424627
20
1.11712
11
0.424515
21
1.11705
0
LINE
8
BLACK
6
CONTINUOUS
10
0.424515
20
1.11705
11
0.424193
21
1.1169
0
LINE
8
BLACK
6
CONTINUOUS
10
0.424193
20
1.1169
11
0.42307
21
1.11593
0
LINE
8
BLACK
6
CONTINUOUS
10
0.42307
20
1.11593
11
0.422794
21
1.11569
0
LINE
8
BLACK
6
CONTINUOUS
10
0.422794
20
1.11569
11
0.422482
21
1.11545
0
LINE
8
BLACK
6
CONTINUOUS
10
0.422482
20
1.11545
11
0.422016
21
1.11511
0
LINE
8
BLACK
6
CONTINUOUS
10
0.422016
20
1.11511
11
0.421552
21
1.11464
0
LINE
8
BLACK
6
CONTINUOUS
10
0.421552
20
1.11464
11
0.421283
21
1.11439
0
LINE
8
BLACK
6
CONTINUOUS
10
0.421283
20
1.11439
11
0.420152
21
1.11342
0
LINE
8
BLACK
6
CONTINUOUS
10
0.420152
20
1.11342
11
0.420152
21
1.11342
0
LINE
8
BLACK
6
CONTINUOUS
10
0.420152
20
1.11342
11
0.419884
21
1.11319
0
LINE
8
BLACK
6
CONTINUOUS
10
0.419884
20
1.11319
11
0.419692
21
1.11289
0
LINE
8
BLACK
6
CONTINUOUS
10
0.419692
20
1.11289
11
0.41946
21
1.11262
0
LINE
8
BLACK
6
CONTINUOUS
10
0.41946
20
1.11262
11
0.419457
21
1.11263
0
LINE
8
BLACK
6
CONTINUOUS
10
0.419457
20
1.11263
11
0.419122
21
1.11221
0
LINE
8
BLACK
6
CONTINUOUS
10
0.419122
20
1.11221
11
0.172898
21
0.865987
0
LINE
8
BLACK
6
CONTINUOUS
10
0.172898
20
0.865987
11
0.172552
21
0.865711
0
LINE
8
BLACK
6
CONTINUOUS
10
0.172552
20
0.865711
11
0.172567
21
0.865693
0
LINE
8
BLACK
6
CONTINUOUS
10
0.172567
20
0.865693
11
0.172298
21
0.865464
0
LINE
8
BLACK
6
CONTINUOUS
10
0.172298
20
0.865464
11
0.171999
21
0.865276
0
LINE
8
BLACK
6
CONTINUOUS
10
0.171999
20
0.865276
11
0.171066
21
0.864218
0
LINE
8
BLACK
6
CONTINUOUS
10
0.171066
20
0.864218
11
0.170687
21
0.86379
0
LINE
8
BLACK
6
CONTINUOUS
10
0.170687
20
0.86379
11
0.170476
21
0.863566
0
LINE
8
BLACK
6
CONTINUOUS
10
0.170476
20
0.863566
11
0.169983
21
0.863073
0
LINE
8
BLACK
6
CONTINUOUS
10
0.169983
20
0.863073
11
0.169709
21
0.862706
0
LINE
8
BLACK
6
CONTINUOUS
10
0.169709
20
0.862706
11
0.169457
21
0.862398
0
LINE
8
BLACK
6
CONTINUOUS
10
0.169457
20
0.862398
11
0.168234
21
0.861013
0
LINE
8
BLACK
6
CONTINUOUS
10
0.168234
20
0.861013
11
0.168084
21
0.860693
0
LINE
8
BLACK
6
CONTINUOUS
10
0.168084
20
0.860693
11
0.168011
21
0.860582
0
LINE
8
BLACK
6
CONTINUOUS
10
0.168011
20
0.860582
11
0.167681
21
0.860033
0
LINE
8
BLACK
6
CONTINUOUS
10
0.167681
20
0.860033
11
0.167617
21
0.859916
0
LINE
8
BLACK
6
CONTINUOUS
10
0.167617
20
0.859916
11
0.167405
21
0.859633
0
LINE
8
BLACK
6
CONTINUOUS
10
0.167405
20
0.859633
11
0.166844
21
0.858137
0
LINE
8
BLACK
6
CONTINUOUS
10
0.166844
20
0.858137
11
0.166757
21
0.857904
0
LINE
8
BLACK
6
CONTINUOUS
10
0.166757
20
0.857904
11
0.166602
21
0.857537
0
LINE
8
BLACK
6
CONTINUOUS
10
0.166602
20
0.857537
11
0.166489
21
0.857295
0
LINE
8
BLACK
6
CONTINUOUS
10
0.166489
20
0.857295
11
0.165817
21
0.855865
0
LINE
8
BLACK
6
CONTINUOUS
10
0.165817
20
0.855865
11
0.165763
21
0.855515
0
LINE
8
BLACK
6
CONTINUOUS
10
0.165763
20
0.855515
11
0.165724
21
0.855388
0
LINE
8
BLACK
6
CONTINUOUS
10
0.165724
20
0.855388
11
0.165561
21
0.854768
0
LINE
8
BLACK
6
CONTINUOUS
10
0.165561
20
0.854768
11
0.165533
21
0.854638
0
LINE
8
BLACK
6
CONTINUOUS
10
0.165533
20
0.854638
11
0.165409
21
0.854307
0
LINE
8
BLACK
6
CONTINUOUS
10
0.165409
20
0.854307
11
0.165272
21
0.852465
0
LINE
8
BLACK
6
CONTINUOUS
10
0.165272
20
0.852465
11
0.165227
21
0.85207
0
LINE
8
BLACK
6
CONTINUOUS
10
0.165227
20
0.85207
11
0.165167
21
0.85169
0
LINE
8
BLACK
6
CONTINUOUS
10
0.165167
20
0.85169
11
0.165167
21
0.851689
0
LINE
8
BLACK
6
CONTINUOUS
10
0.165167
20
0.851689
11
0.165138
21
0.8515
0
LINE
8
BLACK
6
CONTINUOUS
10
0.165138
20
0.8515
11
0.165138
21
0.850844
0
LINE
8
BLACK
6
CONTINUOUS
10
0.165138
20
0.850844
11
0.165124
21
0.850476
0
LINE
8
BLACK
6
CONTINUOUS
10
0.165124
20
0.850476
11
0.164987
21
0.848636
0
LINE
8
BLACK
6
CONTINUOUS
10
0.164987
20
0.848636
11
0.165061
21
0.84829
0
LINE
8
BLACK
6
CONTINUOUS
10
0.165061
20
0.84829
11
0.165085
21
0.847937
0
LINE
8
BLACK
6
CONTINUOUS
10
0.165085
20
0.847937
11
0.165082
21
0.847937
0
LINE
8
BLACK
6
CONTINUOUS
10
0.165082
20
0.847937
11
0.165138
21
0.847407
0
LINE
8
BLACK
6
CONTINUOUS
10
0.165138
20
0.847407
11
0.165138
21
0.681047
0
LINE
8
BLACK
6
CONTINUOUS
10
0.165138
20
0.681047
11
0.16435
21
0.678365
0
LINE
8
BLACK
6
CONTINUOUS
10
0.16435
20
0.678365
11
0.162238
21
0.676535
0
LINE
8
BLACK
6
CONTINUOUS
10
0.162238
20
0.676535
11
0.159471
21
0.676137
0
LINE
8
BLACK
6
CONTINUOUS
10
0.159471
20
0.676137
11
0.157137
21
0.677128
0
LINE
8
BLACK
6
CONTINUOUS
10
0.157137
20
0.677128
11
0.151516
21
0.681488
0
LINE
8
BLACK
6
CONTINUOUS
10
0.151516
20
0.681488
11
0.151516
21
0.681488
0
LINE
8
BLACK
6
CONTINUOUS
10
0.151516
20
0.681488
11
0.151317
21
0.681642
0
LINE
8
BLACK
6
CONTINUOUS
10
0.151317
20
0.681642
11
0.144467
21
0.685013
0
LINE
8
BLACK
6
CONTINUOUS
10
0.144467
20
0.685013
11
0.144224
21
0.685076
0
LINE
8
BLACK
6
CONTINUOUS
10
0.144224
20
0.685076
11
0.144223
21
0.685076
0
LINE
8
BLACK
6
CONTINUOUS
10
0.144223
20
0.685076
11
0.137322
21
0.686874
0
LINE
8
BLACK
6
CONTINUOUS
10
0.137322
20
0.686874
11
0.137322
21
0.686874
0
LINE
8
BLACK
6
CONTINUOUS
10
0.137322
20
0.686874
11
0.137078
21
0.686937
0
LINE
8
BLACK
6
CONTINUOUS
10
0.137078
20
0.686937
11
0.133799
21
0.687109
0
LINE
8
BLACK
6
CONTINUOUS
10
0.133799
20
0.687109
11
0.129705
21
0.687324
0
LINE
8
BLACK
6
CONTINUOUS
10
0.129705
20
0.687324
11
0.129705
21
0.687324
0
LINE
8
BLACK
6
CONTINUOUS
10
0.129705
20
0.687324
11
0.129454
21
0.687337
0
LINE
8
BLACK
6
CONTINUOUS
10
0.129454
20
0.687337
11
0.123976
21
0.686508
0
LINE
8
BLACK
6
CONTINUOUS
10
0.123976
20
0.686508
11
0.122153
21
0.686233
0
LINE
8
BLACK
6
CONTINUOUS
10
0.122153
20
0.686233
11
0.122153
21
0.686233
0
LINE
8
BLACK
6
CONTINUOUS
10
0.122153
20
0.686233
11
0.121905
21
0.686195
0
LINE
8
BLACK
6
CONTINUOUS
10
0.121905
20
0.686195
11
0.121669
21
0.686108
0
LINE
8
BLACK
6
CONTINUOUS
10
0.121669
20
0.686108
11
0.121669
21
0.686108
0
LINE
8
BLACK
6
CONTINUOUS
10
0.121669
20
0.686108
11
0.118863
21
0.685076
0
LINE
8
BLACK
6
CONTINUOUS
10
0.118863
20
0.685076
11
0.114739
21
0.683559
0
LINE
8
BLACK
6
CONTINUOUS
10
0.114739
20
0.683559
11
0.108251
21
0.679536
0
LINE
8
BLACK
6
CONTINUOUS
10
0.108251
20
0.679536
11
0.102703
21
0.67429
0
LINE
8
BLACK
6
CONTINUOUS
10
0.102703
20
0.67429
11
0.0983241
21
0.668035
0
LINE
8
BLACK
6
CONTINUOUS
10
0.0983241
20
0.668035
11
0.0966849
21
0.664248
0
LINE
8
BLACK
6
CONTINUOUS
10
0.0966849
20
0.664248
11
0.0960737
21
0.662835
0
LINE
8
BLACK
6
CONTINUOUS
10
0.0960737
20
0.662835
11
0.0952919
21
0.661029
0
LINE
8
BLACK
6
CONTINUOUS
10
0.0952919
20
0.661029
11
0.0952405
21
0.660782
0
LINE
8
BLACK
6
CONTINUOUS
10
0.0952405
20
0.660782
11
0.0952405
21
0.660782
0
LINE
8
BLACK
6
CONTINUOUS
10
0.0952405
20
0.660782
11
0.0939742
21
0.654721
0
LINE
8
BLACK
6
CONTINUOUS
10
0.0939742
20
0.654721
11
0.0937306
21
0.653555
0
LINE
8
BLACK
6
CONTINUOUS
10
0.0937306
20
0.653555
11
0.0937191
21
0.650257
0
LINE
8
BLACK
6
CONTINUOUS
10
0.0937191
20
0.650257
11
0.0937069
21
0.646773
0
LINE
8
BLACK
6
CONTINUOUS
10
0.0937069
20
0.646773
11
0.0937039
21
0.64592
0
LINE
8
BLACK
6
CONTINUOUS
10
0.0937039
20
0.64592
11
0.095213
21
0.638436
0
LINE
8
BLACK
6
CONTINUOUS
10
0.095213
20
0.638436
11
0.0953112
21
0.638204
0
LINE
8
BLACK
6
CONTINUOUS
10
0.854866
20
0.674977
11
0.859256
21
0.67274
0
LINE
8
BLACK
6
CONTINUOUS
10
0.859256
20
0.67274
11
0.86274
21
0.669256
0
LINE
8
BLACK
6
CONTINUOUS
10
0.86274
20
0.669256
11
0.864977
21
0.664866
0
LINE
8
BLACK
6
CONTINUOUS
10
0.864977
20
0.664866
11
0.865748
21
0.66
0
LINE
8
BLACK
6
CONTINUOUS
10
0.865748
20
0.66
11
0.864977
21
0.655134
0
LINE
8
BLACK
6
CONTINUOUS
10
0.864977
20
0.655134
11
0.86274
21
0.650744
0
LINE
8
BLACK
6
CONTINUOUS
10
0.86274
20
0.650744
11
0.861566
21
0.649569
0
LINE
8
BLACK
6
CONTINUOUS
10
0.861566
20
0.649569
11
0.888261
21
0.622874
0
LINE
8
BLACK
6
CONTINUOUS
10
0.888261
20
0.622874
11
1.14001
21
0.622874
0
LINE
8
BLACK
6
CONTINUOUS
10
1.14001
20
0.622874
11
1.1413
21
0.622579
0
LINE
8
BLACK
6
CONTINUOUS
10
1.1413
20
0.622579
11
1.1426
21
0.622431
0
LINE
8
BLACK
6
CONTINUOUS
10
1.1426
20
0.622431
11
1.14299
21
0.622191
0
LINE
8
BLACK
6
CONTINUOUS
10
1.14299
20
0.622191
11
1.14343
21
0.622089
0
LINE
8
BLACK
6
CONTINUOUS
10
1.14343
20
0.622089
11
1.14445
21
0.621268
0
LINE
8
BLACK
6
CONTINUOUS
10
1.14445
20
0.621268
11
1.14557
21
0.620568
0
LINE
8
BLACK
6
CONTINUOUS
10
1.14557
20
0.620568
11
1.19058
21
0.575558
0
LINE
8
BLACK
6
CONTINUOUS
10
1.19058
20
0.575558
11
1.19128
21
0.574443
0
LINE
8
BLACK
6
CONTINUOUS
10
1.19128
20
0.574443
11
1.1921
21
0.573415
0
LINE
8
BLACK
6
CONTINUOUS
10
1.1921
20
0.573415
11
1.1922
21
0.572973
0
LINE
8
BLACK
6
CONTINUOUS
10
1.1922
20
0.572973
11
1.19244
21
0.57259
0
LINE
8
BLACK
6
CONTINUOUS
10
1.19244
20
0.57259
11
1.19258
21
0.571282
0
LINE
8
BLACK
6
CONTINUOUS
10
1.19258
20
0.571282
11
1.19287
21
0.57
0
LINE
8
BLACK
6
CONTINUOUS
10
1.19287
20
0.57
11
1.19287
21
0.199986
0
LINE
8
BLACK
6
CONTINUOUS
10
1.19287
20
0.199986
11
1.19258
21
0.198704
0
LINE
8
BLACK
6
CONTINUOUS
10
1.19258
20
0.198704
11
1.19243
21
0.197398
0
LINE
8
BLACK
6
CONTINUOUS
10
1.19243
20
0.197398
11
1.19219
21
0.197014
0
LINE
8
BLACK
6
CONTINUOUS
10
1.19219
20
0.197014
11
1.19209
21
0.196573
0
LINE
8
BLACK
6
CONTINUOUS
10
1.19209
20
0.196573
11
1.19127
21
0.195546
0
LINE
8
BLACK
6
CONTINUOUS
10
1.19127
20
0.195546
11
1.19057
21
0.194432
0
LINE
8
BLACK
6
CONTINUOUS
10
1.19057
20
0.194432
11
1.17512
21
0.178982
0
LINE
8
BLACK
6
CONTINUOUS
10
1.17512
20
0.178982
11
1.17575
21
0.175
0
LINE
8
BLACK
6
CONTINUOUS
10
1.17575
20
0.175
11
1.17498
21
0.170134
0
LINE
8
BLACK
6
CONTINUOUS
10
1.17498
20
0.170134
11
1.17274
21
0.165744
0
LINE
8
BLACK
6
CONTINUOUS
10
1.17274
20
0.165744
11
1.16926
21
0.16226
0
LINE
8
BLACK
6
CONTINUOUS
10
1.16926
20
0.16226
11
1.16487
21
0.160023
0
LINE
8
BLACK
6
CONTINUOUS
10
1.16487
20
0.160023
11
1.16
21
0.159252
0
LINE
8
BLACK
6
CONTINUOUS
10
1.16
20
0.159252
11
1.15513
21
0.160023
0
LINE
8
BLACK
6
CONTINUOUS
10
1.15513
20
0.160023
11
1.15074
21
0.16226
0
LINE
8
BLACK
6
CONTINUOUS
10
1.15074
20
0.16226
11
1.14726
21
0.165744
0
LINE
8
BLACK
6
CONTINUOUS
10
1.14726
20
0.165744
11
1.14502
21
0.170134
0
LINE
8
BLACK
6
CONTINUOUS
10
1.14502
20
0.170134
11
1.14425
21
0.175
0
LINE
8
BLACK
6
CONTINUOUS
10
1.14425
20
0.175
11
1.14502
21
0.179866
0
LINE
8
BLACK
6
CONTINUOUS
10
1.14502
20
0.179866
11
1.14726
21
0.184256
0
LINE
8
BLACK
6
CONTINUOUS
10
1.14726
20
0.184256
11
1.15074
21
0.18774
0
LINE
8
BLACK
6
CONTINUOUS
10
1.15074
20
0.18774
11
1.15513
21
0.189977
0
LINE
8
BLACK
6
CONTINUOUS
10
1.15513
20
0.189977
11
1.16
21
0.190748
0
LINE
8
BLACK
6
CONTINUOUS
10
1.16
20
0.190748
11
1.16398
21
0.190117
0
LINE
8
BLACK
6
CONTINUOUS
10
1.16398
20
0.190117
11
1.17713
21
0.203261
0
LINE
8
BLACK
6
CONTINUOUS
10
1.17713
20
0.203261
11
1.17713
21
0.566739
0
LINE
8
BLACK
6
CONTINUOUS
10
1.17713
20
0.566739
11
1.13674
21
0.607126
0
LINE
8
BLACK
6
CONTINUOUS
10
1.13674
20
0.607126
11
0.884986
21
0.607126
0
LINE
8
BLACK
6
CONTINUOUS
10
0.884986
20
0.607126
11
0.883704
21
0.607421
0
LINE
8
BLACK
6
CONTINUOUS
10
0.883704
20
0.607421
11
0.882398
21
0.607569
0
LINE
8
BLACK
6
CONTINUOUS
10
0.882398
20
0.607569
11
0.882014
21
0.607809
0
LINE
8
BLACK
6
CONTINUOUS
10
0.882014
20
0.607809
11
0.881573
21
0.607911
0
LINE
8
BLACK
6
CONTINUOUS
10
0.881573
20
0.607911
11
0.880546
21
0.608732
0
LINE
8
BLACK
6
CONTINUOUS
10
0.880546
20
0.608732
11
0.879432
21
0.609432
0
LINE
8
BLACK
6
CONTINUOUS
10
0.879432
20
0.609432
11
0.844423
21
0.644442
0
LINE
8
BLACK
6
CONTINUOUS
10
0.844423
20
0.644442
11
0.843724
21
0.645557
0
LINE
8
BLACK
6
CONTINUOUS
10
0.843724
20
0.645557
11
0.843478
21
0.645866
0
LINE
8
BLACK
6
CONTINUOUS
10
0.843478
20
0.645866
11
0.840744
21
0.64726
0
LINE
8
BLACK
6
CONTINUOUS
10
0.840744
20
0.64726
11
0.83726
21
0.650744
0
LINE
8
BLACK
6
CONTINUOUS
10
0.83726
20
0.650744
11
0.835023
21
0.655134
0
LINE
8
BLACK
6
CONTINUOUS
10
0.835023
20
0.655134
11
0.834252
21
0.66
0
LINE
8
BLACK
6
CONTINUOUS
10
0.834252
20
0.66
11
0.835023
21
0.664866
0
LINE
8
BLACK
6
CONTINUOUS
10
0.835023
20
0.664866
11
0.83726
21
0.669256
0
LINE
8
BLACK
6
CONTINUOUS
10
0.83726
20
0.669256
11
0.840744
21
0.67274
0
LINE
8
BLACK
6
CONTINUOUS
10
0.840744
20
0.67274
11
0.845134
21
0.674977
0
LINE
8
BLACK
6
CONTINUOUS
10
0.845134
20
0.674977
11
0.85
21
0.675748
0
LINE
8
BLACK
6
CONTINUOUS
10
0.85
20
0.675748
11
0.854866
21
0.674977
0
LINE
8
BLACK
6
CONTINUOUS
10
1.66987
20
0.899977
11
1.67426
21
0.89774
0
LINE
8
BLACK
6
CONTINUOUS
10
1.67426
20
0.89774
11
1.67774
21
0.894256
0
LINE
8
BLACK
6
CONTINUOUS
10
1.67774
20
0.894256
11
1.67998
21
0.889866
0
LINE
8
BLACK
6
CONTINUOUS
10
1.67998
20
0.889866
11
1.68075
21
0.885
0
LINE
8
BLACK
6
CONTINUOUS
10
1.68075
20
0.885
11
1.67998
21
0.880134
0
LINE
8
BLACK
6
CONTINUOUS
10
1.67998
20
0.880134
11
1.67774
21
0.875744
0
LINE
8
BLACK
6
CONTINUOUS
10
1.67774
20
0.875744
11
1.67426
21
0.87226
0
LINE
8
BLACK
6
CONTINUOUS
10
1.67426
20
0.87226
11
1.67287
21
0.871555
0
LINE
8
BLACK
6
CONTINUOUS
10
1.67287
20
0.871555
11
1.67287
21
0.634986
0
LINE
8
BLACK
6
CONTINUOUS
10
1.67287
20
0.634986
11
1.67258
21
0.633704
0
LINE
8
BLACK
6
CONTINUOUS
10
1.67258
20
0.633704
11
1.67243
21
0.632398
0
LINE
8
BLACK
6
CONTINUOUS
10
1.67243
20
0.632398
11
1.67219
21
0.632014
0
LINE
8
BLACK
6
CONTINUOUS
10
1.67219
20
0.632014
11
1.67209
21
0.631573
0
LINE
8
BLACK
6
CONTINUOUS
10
1.67209
20
0.631573
11
1.67127
21
0.630546
0
LINE
8
BLACK
6
CONTINUOUS
10
1.67127
20
0.630546
11
1.67057
21
0.629432
0
LINE
8
BLACK
6
CONTINUOUS
10
1.67057
20
0.629432
11
1.58114
21
0.54
0
LINE
8
BLACK
6
CONTINUOUS
10
1.58114
20
0.54
11
1.58558
21
0.535558
0
LINE
8
BLACK
6
CONTINUOUS
10
1.58558
20
0.535558
11
1.58628
21
0.534443
0
LINE
8
BLACK
6
CONTINUOUS
10
1.58628
20
0.534443
11
1.5871
21
0.533415
0
LINE
8
BLACK
6
CONTINUOUS
10
1.5871
20
0.533415
11
1.5872
21
0.532973
0
LINE
8
BLACK
6
CONTINUOUS
10
1.5872
20
0.532973
11
1.58744
21
0.53259
0
LINE
8
BLACK
6
CONTINUOUS
10
1.58744
20
0.53259
11
1.58758
21
0.531282
0
LINE
8
BLACK
6
CONTINUOUS
10
1.58758
20
0.531282
11
1.58787
21
0.53
0
LINE
8
BLACK
6
CONTINUOUS
10
1.58787
20
0.53
11
1.58787
21
0.308445
0
LINE
8
BLACK
6
CONTINUOUS
10
1.58787
20
0.308445
11
1.58926
21
0.30774
0
LINE
8
BLACK
6
CONTINUOUS
10
1.58926
20
0.30774
11
1.59274
21
0.304256
0
LINE
8
BLACK
6
CONTINUOUS
10
1.59274
20
0.304256
11
1.59498
21
0.299866
0
LINE
8
BLACK
6
CONTINUOUS
10
1.59498
20
0.299866
11
1.59575
21
0.295
0
LINE
8
BLACK
6
CONTINUOUS
10
1.59575
20
0.295
11
1.59498
21
0.290134
0
LINE
8
BLACK
6
CONTINUOUS
10
1.59498
20
0.290134
11
1.59274
21
0.285744
0
LINE
8
BLACK
6
CONTINUOUS
10
1.59274
20
0.285744
11
1.58926
21
0.28226
0
LINE
8
BLACK
6
CONTINUOUS
10
1.58926
20
0.28226
11
1.58487
21
0.280023
0
LINE
8
BLACK
6
CONTINUOUS
10
1.58487
20
0.280023
11
1.58
21
0.279252
0
LINE
8
BLACK
6
CONTINUOUS
10
1.58
20
0.279252
11
1.57513
21
0.280023
0
LINE
8
BLACK
6
CONTINUOUS
10
1.57513
20
0.280023
11
1.57074
21
0.28226
0
LINE
8
BLACK
6
CONTINUOUS
10
1.57074
20
0.28226
11
1.56726
21
0.285744
0
LINE
8
BLACK
6
CONTINUOUS
10
1.56726
20
0.285744
11
1.56502
21
0.290134
0
LINE
8
BLACK
6
CONTINUOUS
10
1.56502
20
0.290134
11
1.56425
21
0.295
0
LINE
8
BLACK
6
CONTINUOUS
10
1.56425
20
0.295
11
1.56502
21
0.299866
0
LINE
8
BLACK
6
CONTINUOUS
10
1.56502
20
0.299866
11
1.56726
21
0.304256
0
LINE
8
BLACK
6
CONTINUOUS
10
1.56726
20
0.304256
11
1.57074
21
0.30774
0
LINE
8
BLACK
6
CONTINUOUS
10
1.57074
20
0.30774
11
1.57213
21
0.308445
0
LINE
8
BLACK
6
CONTINUOUS
10
1.57213
20
0.308445
11
1.57213
21
0.526738
0
LINE
8
BLACK
6
CONTINUOUS
10
1.57213
20
0.526738
11
1.56674
21
0.532126
0
LINE
8
BLACK
6
CONTINUOUS
10
1.56674
20
0.532126
11
1.40844
21
0.532126
0
LINE
8
BLACK
6
CONTINUOUS
10
1.40844
20
0.532126
11
1.40774
21
0.530744
0
LINE
8
BLACK
6
CONTINUOUS
10
1.40774
20
0.530744
11
1.40426
21
0.52726
0
LINE
8
BLACK
6
CONTINUOUS
10
1.40426
20
0.52726
11
1.39987
21
0.525023
0
LINE
8
BLACK
6
CONTINUOUS
10
1.39987
20
0.525023
11
1.395
21
0.524252
0
LINE
8
BLACK
6
CONTINUOUS
10
1.395
20
0.524252
11
1.39013
21
0.525023
0
LINE
8
BLACK
6
CONTINUOUS
10
1.39013
20
0.525023
11
1.38574
21
0.52726
0
LINE
8
BLACK
6
CONTINUOUS
10
1.38574
20
0.52726
11
1.38226
21
0.530744
0
LINE
8
BLACK
6
CONTINUOUS
10
1.38226
20
0.530744
11
1.38002
21
0.535134
0
LINE
8
BLACK
6
CONTINUOUS
10
1.38002
20
0.535134
11
1.37925
21
0.54
0
LINE
8
BLACK
6
CONTINUOUS
10
1.37925
20
0.54
11
1.38002
21
0.544866
0
LINE
8
BLACK
6
CONTINUOUS
10
1.38002
20
0.544866
11
1.38226
21
0.549256
0
LINE
8
BLACK
6
CONTINUOUS
10
1.38226
20
0.549256
11
1.38574
21
0.55274
0
LINE
8
BLACK
6
CONTINUOUS
10
1.38574
20
0.55274
11
1.39013
21
0.554977
0
LINE
8
BLACK
6
CONTINUOUS
10
1.39013
20
0.554977
11
1.395
21
0.555748
0
LINE
8
BLACK
6
CONTINUOUS
10
1.395
20
0.555748
11
1.39987
21
0.554977
0
LINE
8
BLACK
6
CONTINUOUS
10
1.39987
20
0.554977
11
1.40426
21
0.55274
0
LINE
8
BLACK
6
CONTINUOUS
10
1.40426
20
0.55274
11
1.40774
21
0.549256
0
LINE
8
BLACK
6
CONTINUOUS
10
1.40774
20
0.549256
11
1.40844
21
0.547874
0
LINE
8
BLACK
6
CONTINUOUS
10
1.40844
20
0.547874
11
1.56674
21
0.547874
0
LINE
8
BLACK
6
CONTINUOUS
10
1.56674
20
0.547874
11
1.65713
21
0.638262
0
LINE
8
BLACK
6
CONTINUOUS
10
1.65713
20
0.638262
11
1.65713
21
0.871555
0
LINE
8
BLACK
6
CONTINUOUS
10
1.65713
20
0.871555
11
1.65574
21
0.87226
0
LINE
8
BLACK
6
CONTINUOUS
10
1.65574
20
0.87226
11
1.65226
21
0.875744
0
LINE
8
BLACK
6
CONTINUOUS
10
1.65226
20
0.875744
11
1.65002
21
0.880134
0
LINE
8
BLACK
6
CONTINUOUS
10
1.65002
20
0.880134
11
1.64925
21
0.885
0
LINE
8
BLACK
6
CONTINUOUS
10
1.64925
20
0.885
11
1.65002
21
0.889866
0
LINE
8
BLACK
6
CONTINUOUS
10
1.65002
20
0.889866
11
1.65226
21
0.894256
0
LINE
8
BLACK
6
CONTINUOUS
10
1.65226
20
0.894256
11
1.65574
21
0.89774
0
LINE
8
BLACK
6
CONTINUOUS
10
1.65574
20
0.89774
11
1.66013
21
0.899977
0
LINE
8
BLACK
6
CONTINUOUS
10
1.66013
20
0.899977
11
1.665
21
0.900748
0
LINE
8
BLACK
6
CONTINUOUS
10
1.665
20
0.900748
11
1.66987
21
0.899977
0
LINE
8
BLACK
6
CONTINUOUS
10
0.660063
20
1.11478
11
0.664453
21
1.11254
0
LINE
8
BLACK
6
CONTINUOUS
10
0.664453
20
1.11254
11
0.667937
21
1.10906
0
LINE
8
BLACK
6
CONTINUOUS
10
0.667937
20
1.10906
11
0.670174
21
1.10467
0
LINE
8
BLACK
6
CONTINUOUS
10
0.670174
20
1.10467
11
0.670945
21
1.0998
0
LINE
8
BLACK
6
CONTINUOUS
10
0.670945
20
1.0998
11
0.670174
21
1.09494
0
LINE
8
BLACK
6
CONTINUOUS
10
0.670174
20
1.09494
11
0.667937
21
1.09055
0
LINE
8
BLACK
6
CONTINUOUS
10
0.667937
20
1.09055
11
0.664453
21
1.08706
0
LINE
8
BLACK
6
CONTINUOUS
10
0.664453
20
1.08706
11
0.660063
21
1.08483
0
LINE
8
BLACK
6
CONTINUOUS
10
0.660063
20
1.08483
11
0.655197
21
1.08406
0
LINE
8
BLACK
6
CONTINUOUS
10
0.655197
20
1.08406
11
0.65033
21
1.08483
0
LINE
8
BLACK
6
CONTINUOUS
10
0.65033
20
1.08483
11
0.64594
21
1.08706
0
LINE
8
BLACK
6
CONTINUOUS
10
0.64594
20
1.08706
11
0.642846
21
1.09016
0
LINE
8
BLACK
6
CONTINUOUS
10
0.642846
20
1.09016
11
0.439077
21
1.09016
0
LINE
8
BLACK
6
CONTINUOUS
10
0.439077
20
1.09016
11
0.194843
21
0.845923
0
LINE
8
BLACK
6
CONTINUOUS
10
0.194843
20
0.845923
11
0.194843
21
0.357154
0
LINE
8
BLACK
6
CONTINUOUS
10
0.194843
20
0.357154
11
0.19774
21
0.354256
0
LINE
8
BLACK
6
CONTINUOUS
10
0.19774
20
0.354256
11
0.199977
21
0.349866
0
LINE
8
BLACK
6
CONTINUOUS
10
0.199977
20
0.349866
11
0.200748
21
0.345
0
LINE
8
BLACK
6
CONTINUOUS
10
0.200748
20
0.345
11
0.199977
21
0.340134
0
LINE
8
BLACK
6
CONTINUOUS
10
0.199977
20
0.340134
11
0.19774
21
0.335744
0
LINE
8
BLACK
6
CONTINUOUS
10
0.19774
20
0.335744
11
0.194256
21
0.33226
0
LINE
8
BLACK
6
CONTINUOUS
10
0.194256
20
0.33226
11
0.189866
21
0.330023
0
LINE
8
BLACK
6
CONTINUOUS
10
0.189866
20
0.330023
11
0.185
21
0.329252
0
LINE
8
BLACK
6
CONTINUOUS
10
0.185
20
0.329252
11
0.180134
21
0.330023
0
LINE
8
BLACK
6
CONTINUOUS
10
0.180134
20
0.330023
11
0.175744
21
0.33226
0
LINE
8
BLACK
6
CONTINUOUS
10
0.175744
20
0.33226
11
0.17226
21
0.335744
0
LINE
8
BLACK
6
CONTINUOUS
10
0.17226
20
0.335744
11
0.170023
21
0.340134
0
LINE
8
BLACK
6
CONTINUOUS
10
0.170023
20
0.340134
11
0.169252
21
0.345
0
LINE
8
BLACK
6
CONTINUOUS
10
0.169252
20
0.345
11
0.170023
21
0.349866
0
LINE
8
BLACK
6
CONTINUOUS
10
0.170023
20
0.349866
11
0.17226
21
0.354256
0
LINE
8
BLACK
6
CONTINUOUS
10
0.17226
20
0.354256
11
0.175157
21
0.357154
0
LINE
8
BLACK
6
CONTINUOUS
10
0.175157
20
0.357154
11
0.175157
21
0.85
0
LINE
8
BLACK
6
CONTINUOUS
10
0.175157
20
0.85
11
0.175907
21
0.853767
0
LINE
8
BLACK
6
CONTINUOUS
10
0.175907
20
0.853767
11
0.17804
21
0.85696
0
LINE
8
BLACK
6
CONTINUOUS
10
0.17804
20
0.85696
11
0.42804
21
1.10696
0
LINE
8
BLACK
6
CONTINUOUS
10
0.42804
20
1.10696
11
0.431233
21
1.10909
0
LINE
8
BLACK
6
CONTINUOUS
10
0.431233
20
1.10909
11
0.435
21
1.10984
0
LINE
8
BLACK
6
CONTINUOUS
10
0.435
20
1.10984
11
0.643239
21
1.10984
0
LINE
8
BLACK
6
CONTINUOUS
10
0.643239
20
1.10984
11
0.64594
21
1.11254
0
LINE
8
BLACK
6
CONTINUOUS
10
0.64594
20
1.11254
11
0.65033
21
1.11478
0
LINE
8
BLACK
6
CONTINUOUS
10
0.65033
20
1.11478
11
0.655197
21
1.11555
0
LINE
8
BLACK
6
CONTINUOUS
10
0.655197
20
1.11555
11
0.660063
21
1.11478
0
LINE
8
BLACK
6
CONTINUOUS
10
1.47533
20
1.13354
11
1.47664
21
1.1334
0
LINE
8
BLACK
6
CONTINUOUS
10
1.47664
20
1.1334
11
1.47702
21
1.13316
0
LINE
8
BLACK
6
CONTINUOUS
10
1.47702
20
1.13316
11
1.47746
21
1.13305
0
LINE
8
BLACK
6
CONTINUOUS
10
1.47746
20
1.13305
11
1.47849
21
1.13223
0
LINE
8
BLACK
6
CONTINUOUS
10
1.47849
20
1.13223
11
1.4796
21
1.13153
0
LINE
8
BLACK
6
CONTINUOUS
10
1.4796
20
1.13153
11
1.66102
21
0.950117
0
LINE
8
BLACK
6
CONTINUOUS
10
1.66102
20
0.950117
11
1.665
21
0.950748
0
LINE
8
BLACK
6
CONTINUOUS
10
1.665
20
0.950748
11
1.66987
21
0.949977
0
LINE
8
BLACK
6
CONTINUOUS
10
1.66987
20
0.949977
11
1.67426
21
0.94774
0
LINE
8
BLACK
6
CONTINUOUS
10
1.67426
20
0.94774
11
1.67774
21
0.944256
0
LINE
8
BLACK
6
CONTINUOUS
10
1.67774
20
0.944256
11
1.67998
21
0.939866
0
LINE
8
BLACK
6
CONTINUOUS
10
1.67998
20
0.939866
11
1.68075
21
0.935
0
LINE
8
BLACK
6
CONTINUOUS
10
1.68075
20
0.935
11
1.67998
21
0.930134
0
LINE
8
BLACK
6
CONTINUOUS
10
1.67998
20
0.930134
11
1.67774
21
0.925744
0
LINE
8
BLACK
6
CONTINUOUS
10
1.67774
20
0.925744
11
1.67426
21
0.92226
0
LINE
8
BLACK
6
CONTINUOUS
10
1.67426
20
0.92226
11
1.66987
21
0.920023
0
LINE
8
BLACK
6
CONTINUOUS
10
1.66987
20
0.920023
11
1.665
21
0.919252
0
LINE
8
BLACK
6
CONTINUOUS
10
1.665
20
0.919252
11
1.66102
21
0.919883
0
LINE
8
BLACK
6
CONTINUOUS
10
1.66102
20
0.919883
11
1.6414
21
0.900262
0
LINE
8
BLACK
6
CONTINUOUS
10
1.6414
20
0.900262
11
1.6414
21
0.653509
0
LINE
8
BLACK
6
CONTINUOUS
10
1.6414
20
0.653509
11
1.6411
21
0.652228
0
LINE
8
BLACK
6
CONTINUOUS
10
1.6411
20
0.652228
11
1.64095
21
0.650921
0
LINE
8
BLACK
6
CONTINUOUS
10
1.64095
20
0.650921
11
1.64071
21
0.650537
0
LINE
8
BLACK
6
CONTINUOUS
10
1.64071
20
0.650537
11
1.64061
21
0.650096
0
LINE
8
BLACK
6
CONTINUOUS
10
1.64061
20
0.650096
11
1.63979
21
0.649069
0
LINE
8
BLACK
6
CONTINUOUS
10
1.63979
20
0.649069
11
1.63909
21
0.647955
0
LINE
8
BLACK
6
CONTINUOUS
10
1.63909
20
0.647955
11
1.60068
21
0.60954
0
LINE
8
BLACK
6
CONTINUOUS
10
1.60068
20
0.60954
11
1.59998
21
0.605134
0
LINE
8
BLACK
6
CONTINUOUS
10
1.59998
20
0.605134
11
1.59774
21
0.600744
0
LINE
8
BLACK
6
CONTINUOUS
10
1.59774
20
0.600744
11
1.59426
21
0.59726
0
LINE
8
BLACK
6
CONTINUOUS
10
1.59426
20
0.59726
11
1.58987
21
0.595023
0
LINE
8
BLACK
6
CONTINUOUS
10
1.58987
20
0.595023
11
1.585
21
0.594252
0
LINE
8
BLACK
6
CONTINUOUS
10
1.585
20
0.594252
11
1.58013
21
0.595023
0
LINE
8
BLACK
6
CONTINUOUS
10
1.58013
20
0.595023
11
1.57574
21
0.59726
0
LINE
8
BLACK
6
CONTINUOUS
10
1.57574
20
0.59726
11
1.57226
21
0.600744
0
LINE
8
BLACK
6
CONTINUOUS
10
1.57226
20
0.600744
11
1.57002
21
0.605134
0
LINE
8
BLACK
6
CONTINUOUS
10
1.57002
20
0.605134
11
1.56925
21
0.61
0
LINE
8
BLACK
6
CONTINUOUS
10
1.56925
20
0.61
11
1.57002
21
0.614866
0
LINE
8
BLACK
6
CONTINUOUS
10
1.57002
20
0.614866
11
1.57226
21
0.619256
0
LINE
8
BLACK
6
CONTINUOUS
10
1.57226
20
0.619256
11
1.57574
21
0.62274
0
LINE
8
BLACK
6
CONTINUOUS
10
1.57574
20
0.62274
11
1.58013
21
0.624977
0
LINE
8
BLACK
6
CONTINUOUS
10
1.58013
20
0.624977
11
1.585
21
0.625748
0
LINE
8
BLACK
6
CONTINUOUS
10
1.585
20
0.625748
11
1.58987
21
0.624977
0
LINE
8
BLACK
6
CONTINUOUS
10
1.58987
20
0.624977
11
1.5925
21
0.623635
0
LINE
8
BLACK
6
CONTINUOUS
10
1.5925
20
0.623635
11
1.62565
21
0.656785
0
LINE
8
BLACK
6
CONTINUOUS
10
1.62565
20
0.656785
11
1.62565
21
0.903537
0
LINE
8
BLACK
6
CONTINUOUS
10
1.62565
20
0.903537
11
1.62594
21
0.904819
0
LINE
8
BLACK
6
CONTINUOUS
10
1.62594
20
0.904819
11
1.62609
21
0.906126
0
LINE
8
BLACK
6
CONTINUOUS
10
1.62609
20
0.906126
11
1.62633
21
0.906509
0
LINE
8
BLACK
6
CONTINUOUS
10
1.62633
20
0.906509
11
1.62643
21
0.90695
0
LINE
8
BLACK
6
CONTINUOUS
10
1.62643
20
0.90695
11
1.62726
21
0.907978
0
LINE
8
BLACK
6
CONTINUOUS
10
1.62726
20
0.907978
11
1.62796
21
0.909091
0
LINE
8
BLACK
6
CONTINUOUS
10
1.62796
20
0.909091
11
1.64988
21
0.931018
0
LINE
8
BLACK
6
CONTINUOUS
10
1.64988
20
0.931018
11
1.64925
21
0.935
0
LINE
8
BLACK
6
CONTINUOUS
10
1.64925
20
0.935
11
1.64988
21
0.938982
0
LINE
8
BLACK
6
CONTINUOUS
10
1.64988
20
0.938982
11
1.47077
21
1.11809
0
LINE
8
BLACK
6
CONTINUOUS
10
1.47077
20
1.11809
11
1.24399
21
1.11809
0
LINE
8
BLACK
6
CONTINUOUS
10
1.24399
20
1.11809
11
1.22867
21
1.10277
0
LINE
8
BLACK
6
CONTINUOUS
10
1.22867
20
1.10277
11
1.22756
21
1.10207
0
LINE
8
BLACK
6
CONTINUOUS
10
1.22756
20
1.10207
11
1.22653
21
1.10125
0
LINE
8
BLACK
6
CONTINUOUS
10
1.22653
20
1.10125
11
1.22609
21
1.10115
0
LINE
8
BLACK
6
CONTINUOUS
10
1.22609
20
1.10115
11
1.2257
21
1.10091
0
LINE
8
BLACK
6
CONTINUOUS
10
1.2257
20
1.10091
11
1.2244
21
1.10076
0
LINE
8
BLACK
6
CONTINUOUS
10
1.2244
20
1.10076
11
1.22311
21
1.10047
0
LINE
8
BLACK
6
CONTINUOUS
10
1.22311
20
1.10047
11
1.09179
21
1.10047
0
LINE
8
BLACK
6
CONTINUOUS
10
1.09179
20
1.10047
11
1.09109
21
1.09909
0
LINE
8
BLACK
6
CONTINUOUS
10
1.09109
20
1.09909
11
1.0876
21
1.09561
0
LINE
8
BLACK
6
CONTINUOUS
10
1.0876
20
1.09561
11
1.08321
21
1.09337
0
LINE
8
BLACK
6
CONTINUOUS
10
1.08321
20
1.09337
11
1.07835
21
1.0926
0
LINE
8
BLACK
6
CONTINUOUS
10
1.07835
20
1.0926
11
1.07348
21
1.09337
0
LINE
8
BLACK
6
CONTINUOUS
10
1.07348
20
1.09337
11
1.06909
21
1.09561
0
LINE
8
BLACK
6
CONTINUOUS
10
1.06909
20
1.09561
11
1.06561
21
1.09909
0
LINE
8
BLACK
6
CONTINUOUS
10
1.06561
20
1.09909
11
1.06337
21
1.10348
0
LINE
8
BLACK
6
CONTINUOUS
10
1.06337
20
1.10348
11
1.0626
21
1.10835
0
LINE
8
BLACK
6
CONTINUOUS
10
1.0626
20
1.10835
11
1.06337
21
1.11321
0
LINE
8
BLACK
6
CONTINUOUS
10
1.06337
20
1.11321
11
1.06561
21
1.1176
0
LINE
8
BLACK
6
CONTINUOUS
10
1.06561
20
1.1176
11
1.06909
21
1.12109
0
LINE
8
BLACK
6
CONTINUOUS
10
1.06909
20
1.12109
11
1.07348
21
1.12332
0
LINE
8
BLACK
6
CONTINUOUS
10
1.07348
20
1.12332
11
1.07835
21
1.12409
0
LINE
8
BLACK
6
CONTINUOUS
10
1.07835
20
1.12409
11
1.08321
21
1.12332
0
LINE
8
BLACK
6
CONTINUOUS
10
1.08321
20
1.12332
11
1.0876
21
1.12109
0
LINE
8
BLACK
6
CONTINUOUS
10
1.0876
20
1.12109
11
1.09109
21
1.1176
0
LINE
8
BLACK
6
CONTINUOUS
10
1.09109
20
1.1176
11
1.09179
21
1.11622
0
LINE
8
BLACK
6
CONTINUOUS
10
1.09179
20
1.11622
11
1.21985
21
1.11622
0
LINE
8
BLACK
6
CONTINUOUS
10
1.21985
20
1.11622
11
1.23518
21
1.13154
0
LINE
8
BLACK
6
CONTINUOUS
10
1.23518
20
1.13154
11
1.23629
21
1.13224
0
LINE
8
BLACK
6
CONTINUOUS
10
1.23629
20
1.13224
11
1.23732
21
1.13306
0
LINE
8
BLACK
6
CONTINUOUS
10
1.23732
20
1.13306
11
1.23776
21
1.13316
0
LINE
8
BLACK
6
CONTINUOUS
10
1.23776
20
1.13316
11
1.23814
21
1.1334
0
LINE
8
BLACK
6
CONTINUOUS
10
1.23814
20
1.1334
11
1.23945
21
1.13355
0
LINE
8
BLACK
6
CONTINUOUS
10
1.23945
20
1.13355
11
1.24073
21
1.13384
0
LINE
8
BLACK
6
CONTINUOUS
10
1.24073
20
1.13384
11
1.47405
21
1.13384
0
LINE
8
BLACK
6
CONTINUOUS
10
1.47405
20
1.13384
11
1.47533
21
1.13354
0
LINE
8
BLACK
6
CONTINUOUS
10
0.134753
20
0.676948
11
0.141176
21
0.675335
0
LINE
8
BLACK
6
CONTINUOUS
10
0.141176
20
0.675335
11
0.147028
21
0.672236
0
LINE
8
BLACK
6
CONTINUOUS
10
0.147028
20
0.672236
11
0.151972
21
0.667831
0
LINE
8
BLACK
6
CONTINUOUS
10
0.151972
20
0.667831
11
0.155722
21
0.662374
0
LINE
8
BLACK
6
CONTINUOUS
10
0.155722
20
0.662374
11
0.158063
21
0.65618
0
LINE
8
BLACK
6
CONTINUOUS
10
0.158063
20
0.65618
11
0.158858
21
0.649606
0
LINE
8
BLACK
6
CONTINUOUS
10
0.158858
20
0.649606
11
0.158852
21
0.649029
0
LINE
8
BLACK
6
CONTINUOUS
10
0.158852
20
0.649029
11
0.157919
21
0.642474
0
LINE
8
BLACK
6
CONTINUOUS
10
0.157919
20
0.642474
11
0.155449
21
0.63633
0
LINE
8
BLACK
6
CONTINUOUS
10
0.155449
20
0.63633
11
0.151585
21
0.630952
0
LINE
8
BLACK
6
CONTINUOUS
10
0.151585
20
0.630952
11
0.14655
21
0.626652
0
LINE
8
BLACK
6
CONTINUOUS
10
0.14655
20
0.626652
11
0.140635
21
0.623676
0
LINE
8
BLACK
6
CONTINUOUS
10
0.140635
20
0.623676
11
0.13418
21
0.622198
0
LINE
8
BLACK
6
CONTINUOUS
10
0.13418
20
0.622198
11
0.127559
21
0.622302
0
LINE
8
BLACK
6
CONTINUOUS
10
0.127559
20
0.622302
11
0.121154
21
0.623983
0
LINE
8
BLACK
6
CONTINUOUS
10
0.121154
20
0.623983
11
0.115335
21
0.627142
0
LINE
8
BLACK
6
CONTINUOUS
10
0.115335
20
0.627142
11
0.110437
21
0.631599
0
LINE
8
BLACK
6
CONTINUOUS
10
0.110437
20
0.631599
11
0.106744
21
0.637095
0
LINE
8
BLACK
6
CONTINUOUS
10
0.106744
20
0.637095
11
0.104468
21
0.643313
0
LINE
8
BLACK
6
CONTINUOUS
10
0.104468
20
0.643313
11
0.103742
21
0.649895
0
LINE
8
BLACK
6
CONTINUOUS
10
0.103742
20
0.649895
11
0.104606
21
0.65646
0
LINE
8
BLACK
6
CONTINUOUS
10
0.104606
20
0.65646
11
0.107011
21
0.662629
0
LINE
8
BLACK
6
CONTINUOUS
10
0.107011
20
0.662629
11
0.110819
21
0.668047
0
LINE
8
BLACK
6
CONTINUOUS
10
0.110819
20
0.668047
11
0.115809
21
0.6724
0
LINE
8
BLACK
6
CONTINUOUS
10
0.115809
20
0.6724
11
0.121693
21
0.675437
0
LINE
8
BLACK
6
CONTINUOUS
10
0.121693
20
0.675437
11
0.128132
21
0.676983
0
LINE
8
BLACK
6
CONTINUOUS
10
0.128132
20
0.676983
11
0.134753
21
0.676948
0
LINE
8
BLACK
6
CONTINUOUS
10
1.19772
20
0.859213
11
1.19955
21
0.8571
0
LINE
8
BLACK
6
CONTINUOUS
10
1.19955
20
0.8571
11
1.2
21
0.855039
0
LINE
8
BLACK
6
CONTINUOUS
10
1.2
20
0.855039
11
1.2
21
0.836441
0
LINE
8
BLACK
6
CONTINUOUS
10
1.2
20
0.836441
11
1.20679
21
0.836352
0
LINE
8
BLACK
6
CONTINUOUS
10
1.20679
20
0.836352
11
1.21687
21
0.834711
0
LINE
8
BLACK
6
CONTINUOUS
10
1.21687
20
0.834711
11
1.2266
21
0.831597
0
LINE
8
BLACK
6
CONTINUOUS
10
1.2266
20
0.831597
11
1.23576
21
0.827081
0
LINE
8
BLACK
6
CONTINUOUS
10
1.23576
20
0.827081
11
1.24415
21
0.82126
0
LINE
8
BLACK
6
CONTINUOUS
10
1.24415
20
0.82126
11
1.25158
21
0.814263
0
LINE
8
BLACK
6
CONTINUOUS
10
1.25158
20
0.814263
11
1.25791
21
0.806244
0
LINE
8
BLACK
6
CONTINUOUS
10
1.25791
20
0.806244
11
1.26297
21
0.797378
0
LINE
8
BLACK
6
CONTINUOUS
10
1.26297
20
0.797378
11
1.26667
21
0.78786
0
LINE
8
BLACK
6
CONTINUOUS
10
1.26667
20
0.78786
11
1.26893
21
0.7779
0
LINE
8
BLACK
6
CONTINUOUS
10
1.26893
20
0.7779
11
1.26969
21
0.767717
0
LINE
8
BLACK
6
CONTINUOUS
10
1.26969
20
0.767717
11
1.26959
21
0.764111
0
LINE
8
BLACK
6
CONTINUOUS
10
1.26959
20
0.764111
11
1.2683
21
0.753981
0
LINE
8
BLACK
6
CONTINUOUS
10
1.2683
20
0.753981
11
1.26553
21
0.744152
0
LINE
8
BLACK
6
CONTINUOUS
10
1.26553
20
0.744152
11
1.26134
21
0.734841
0
LINE
8
BLACK
6
CONTINUOUS
10
1.26134
20
0.734841
11
1.25581
21
0.726253
0
LINE
8
BLACK
6
CONTINUOUS
10
1.25581
20
0.726253
11
1.24908
21
0.718575
0
LINE
8
BLACK
6
CONTINUOUS
10
1.24908
20
0.718575
11
1.24128
21
0.711977
0
LINE
8
BLACK
6
CONTINUOUS
10
1.24128
20
0.711977
11
1.2326
21
0.706604
0
LINE
8
BLACK
6
CONTINUOUS
10
1.2326
20
0.706604
11
1.22322
21
0.702573
0
LINE
8
BLACK
6
CONTINUOUS
10
1.22322
20
0.702573
11
1.21334
21
0.699973
0
LINE
8
BLACK
6
CONTINUOUS
10
1.21334
20
0.699973
11
1.20319
21
0.698861
0
LINE
8
BLACK
6
CONTINUOUS
10
1.20319
20
0.698861
11
1.2
21
0.698986
0
LINE
8
BLACK
6
CONTINUOUS
10
1.2
20
0.698986
11
1.2
21
0.664961
0
LINE
8
BLACK
6
CONTINUOUS
10
1.2
20
0.664961
11
1.19921
21
0.662279
0
LINE
8
BLACK
6
CONTINUOUS
10
1.19921
20
0.662279
11
1.1971
21
0.660448
0
LINE
8
BLACK
6
CONTINUOUS
10
1.1971
20
0.660448
11
1.19504
21
0.66
0
LINE
8
BLACK
6
CONTINUOUS
10
1.19504
20
0.66
11
0.880338
21
0.66
0
LINE
8
BLACK
6
CONTINUOUS
10
0.880338
20
0.66
11
0.877656
21
0.660787
0
LINE
8
BLACK
6
CONTINUOUS
10
0.877656
20
0.660787
11
0.875826
21
0.6629
0
LINE
8
BLACK
6
CONTINUOUS
10
0.875826
20
0.6629
11
0.875416
21
0.664339
0
LINE
8
BLACK
6
CONTINUOUS
10
0.875416
20
0.664339
11
0.875188
21
0.666147
0
LINE
8
BLACK
6
CONTINUOUS
10
0.875188
20
0.666147
11
0.875188
21
0.666148
0
LINE
8
BLACK
6
CONTINUOUS
10
0.875188
20
0.666148
11
0.875149
21
0.666457
0
LINE
8
BLACK
6
CONTINUOUS
10
0.875149
20
0.666457
11
0.872753
21
0.672509
0
LINE
8
BLACK
6
CONTINUOUS
10
0.872753
20
0.672509
11
0.868927
21
0.677774
0
LINE
8
BLACK
6
CONTINUOUS
10
0.868927
20
0.677774
11
0.868687
21
0.677973
0
LINE
8
BLACK
6
CONTINUOUS
10
0.868687
20
0.677973
11
0.864153
21
0.681724
0
LINE
8
BLACK
6
CONTINUOUS
10
0.864153
20
0.681724
11
0.864153
21
0.681724
0
LINE
8
BLACK
6
CONTINUOUS
10
0.864153
20
0.681724
11
0.863913
21
0.681923
0
LINE
8
BLACK
6
CONTINUOUS
10
0.863913
20
0.681923
11
0.858024
21
0.684694
0
LINE
8
BLACK
6
CONTINUOUS
10
0.858024
20
0.684694
11
0.857717
21
0.684752
0
LINE
8
BLACK
6
CONTINUOUS
10
0.857717
20
0.684752
11
0.857717
21
0.684752
0
LINE
8
BLACK
6
CONTINUOUS
10
0.857717
20
0.684752
11
0.851937
21
0.685855
0
LINE
8
BLACK
6
CONTINUOUS
10
0.851937
20
0.685855
11
0.851937
21
0.685855
0
LINE
8
BLACK
6
CONTINUOUS
10
0.851937
20
0.685855
11
0.85163
21
0.685913
0
LINE
8
BLACK
6
CONTINUOUS
10
0.85163
20
0.685913
11
0.848383
21
0.685709
0
LINE
8
BLACK
6
CONTINUOUS
10
0.848383
20
0.685709
11
0.845446
21
0.685524
0
LINE
8
BLACK
6
CONTINUOUS
10
0.845446
20
0.685524
11
0.845446
21
0.685524
0
LINE
8
BLACK
6
CONTINUOUS
10
0.845446
20
0.685524
11
0.845135
21
0.685505
0
LINE
8
BLACK
6
CONTINUOUS
10
0.845135
20
0.685505
11
0.844838
21
0.685408
0
LINE
8
BLACK
6
CONTINUOUS
10
0.844838
20
0.685408
11
0.844838
21
0.685408
0
LINE
8
BLACK
6
CONTINUOUS
10
0.844838
20
0.685408
11
0.839242
21
0.68359
0
LINE
8
BLACK
6
CONTINUOUS
10
0.839242
20
0.68359
11
0.839242
21
0.68359
0
LINE
8
BLACK
6
CONTINUOUS
10
0.839242
20
0.68359
11
0.838945
21
0.683493
0
LINE
8
BLACK
6
CONTINUOUS
10
0.838945
20
0.683493
11
0.83345
21
0.680006
0
LINE
8
BLACK
6
CONTINUOUS
10
0.83345
20
0.680006
11
0.833236
21
0.679779
0
LINE
8
BLACK
6
CONTINUOUS
10
0.833236
20
0.679779
11
0.833236
21
0.679778
0
LINE
8
BLACK
6
CONTINUOUS
10
0.833236
20
0.679778
11
0.831116
21
0.677521
0
LINE
8
BLACK
6
CONTINUOUS
10
0.831116
20
0.677521
11
0.828994
21
0.675262
0
LINE
8
BLACK
6
CONTINUOUS
10
0.828994
20
0.675262
11
0.825859
21
0.669558
0
LINE
8
BLACK
6
CONTINUOUS
10
0.825859
20
0.669558
11
0.825781
21
0.669256
0
LINE
8
BLACK
6
CONTINUOUS
10
0.825781
20
0.669256
11
0.824362
21
0.663727
0
LINE
8
BLACK
6
CONTINUOUS
10
0.824362
20
0.663727
11
0.822932
21
0.661325
0
LINE
8
BLACK
6
CONTINUOUS
10
0.822932
20
0.661325
11
0.820431
21
0.660078
0
LINE
8
BLACK
6
CONTINUOUS
10
0.820431
20
0.660078
11
0.819557
21
0.66
0
LINE
8
BLACK
6
CONTINUOUS
10
0.819557
20
0.66
11
0.524961
21
0.66
0
LINE
8
BLACK
6
CONTINUOUS
10
0.524961
20
0.66
11
0.522279
21
0.660787
0
LINE
8
BLACK
6
CONTINUOUS
10
0.522279
20
0.660787
11
0.520448
21
0.6629
0
LINE
8
BLACK
6
CONTINUOUS
10
0.520448
20
0.6629
11
0.52
21
0.664961
0
LINE
8
BLACK
6
CONTINUOUS
10
0.52
20
0.664961
11
0.52
21
0.699152
0
LINE
8
BLACK
6
CONTINUOUS
10
0.52
20
0.699152
11
0.517201
21
0.699262
0
LINE
8
BLACK
6
CONTINUOUS
10
0.517201
20
0.699262
11
0.507168
21
0.701167
0
LINE
8
BLACK
6
CONTINUOUS
10
0.507168
20
0.701167
11
0.497527
21
0.704533
0
LINE
8
BLACK
6
CONTINUOUS
10
0.497527
20
0.704533
11
0.48849
21
0.709288
0
LINE
8
BLACK
6
CONTINUOUS
10
0.48849
20
0.709288
11
0.480255
21
0.715326
0
LINE
8
BLACK
6
CONTINUOUS
10
0.480255
20
0.715326
11
0.473002
21
0.722516
0
LINE
8
BLACK
6
CONTINUOUS
10
0.473002
20
0.722516
11
0.466892
21
0.730698
0
LINE
8
BLACK
6
CONTINUOUS
10
0.466892
20
0.730698
11
0.462059
21
0.739693
0
LINE
8
BLACK
6
CONTINUOUS
10
0.462059
20
0.739693
11
0.458608
21
0.749304
0
LINE
8
BLACK
6
CONTINUOUS
10
0.458608
20
0.749304
11
0.456616
21
0.75932
0
LINE
8
BLACK
6
CONTINUOUS
10
0.456616
20
0.75932
11
0.456126
21
0.76952
0
LINE
8
BLACK
6
CONTINUOUS
10
0.456126
20
0.76952
11
0.457149
21
0.77968
0
LINE
8
BLACK
6
CONTINUOUS
10
0.457149
20
0.77968
11
0.459663
21
0.789578
0
LINE
8
BLACK
6
CONTINUOUS
10
0.459663
20
0.789578
11
0.463612
21
0.798995
0
LINE
8
BLACK
6
CONTINUOUS
10
0.463612
20
0.798995
11
0.468909
21
0.807726
0
LINE
8
BLACK
6
CONTINUOUS
10
0.468909
20
0.807726
11
0.475439
21
0.815577
0
LINE
8
BLACK
6
CONTINUOUS
10
0.475439
20
0.815577
11
0.483058
21
0.822377
0
LINE
8
BLACK
6
CONTINUOUS
10
0.483058
20
0.822377
11
0.491598
21
0.827976
0
LINE
8
BLACK
6
CONTINUOUS
10
0.491598
20
0.827976
11
0.500872
21
0.832251
0
LINE
8
BLACK
6
CONTINUOUS
10
0.500872
20
0.832251
11
0.510675
21
0.835109
0
LINE
8
BLACK
6
CONTINUOUS
10
0.510675
20
0.835109
11
0.52
21
0.836378
0
LINE
8
BLACK
6
CONTINUOUS
10
0.52
20
0.836378
11
0.52
21
0.855039
0
LINE
8
BLACK
6
CONTINUOUS
10
0.52
20
0.855039
11
0.520787
21
0.857721
0
LINE
8
BLACK
6
CONTINUOUS
10
0.520787
20
0.857721
11
0.5229
21
0.859552
0
LINE
8
BLACK
6
CONTINUOUS
10
0.5229
20
0.859552
11
0.524961
21
0.86
0
LINE
8
BLACK
6
CONTINUOUS
10
0.524961
20
0.86
11
1.19504
21
0.86
0
LINE
8
BLACK
6
CONTINUOUS
10
1.19504
20
0.86
11
1.19772
21
0.859213
0
LINE
8
BLACK
6
CONTINUOUS
10
0.593898
20
0.895669
11
0.456102
21
0.895669
0
LINE
8
BLACK
6
CONTINUOUS
10
0.456102
20
0.895669
11
0.456102
21
1.03346
0
LINE
8
BLACK
6
CONTINUOUS
10
0.456102
20
1.03346
11
0.593898
21
1.03346
0
LINE
8
BLACK
6
CONTINUOUS
10
0.593898
20
1.03346
11
0.593898
21
0.895669
0
LINE
8
BLACK
6
CONTINUOUS
10
0.134753
20
1.11002
11
0.141176
21
1.10841
0
LINE
8
BLACK
6
CONTINUOUS
10
0.141176
20
1.10841
11
0.147028
21
1.10531
0
LINE
8
BLACK
6
CONTINUOUS
10
0.147028
20
1.10531
11
0.151972
21
1.1009
0
LINE
8
BLACK
6
CONTINUOUS
10
0.151972
20
1.1009
11
0.155722
21
1.09545
0
LINE
8
BLACK
6
CONTINUOUS
10
0.155722
20
1.09545
11
0.158063
21
1.08925
0
LINE
8
BLACK
6
CONTINUOUS
10
0.158063
20
1.08925
11
0.158858
21
1.08268
0
LINE
8
BLACK
6
CONTINUOUS
10
0.158858
20
1.08268
11
0.158852
21
1.0821
0
LINE
8
BLACK
6
CONTINUOUS
10
0.158852
20
1.0821
11
0.157919
21
1.07554
0
LINE
8
BLACK
6
CONTINUOUS
10
0.157919
20
1.07554
11
0.155449
21
1.0694
0
LINE
8
BLACK
6
CONTINUOUS
10
0.155449
20
1.0694
11
0.151585
21
1.06402
0
LINE
8
BLACK
6
CONTINUOUS
10
0.151585
20
1.06402
11
0.14655
21
1.05972
0
LINE
8
BLACK
6
CONTINUOUS
10
0.14655
20
1.05972
11
0.140635
21
1.05675
0
LINE
8
BLACK
6
CONTINUOUS
10
0.140635
20
1.05675
11
0.13418
21
1.05527
0
LINE
8
BLACK
6
CONTINUOUS
10
0.13418
20
1.05527
11
0.127559
21
1.05537
0
LINE
8
BLACK
6
CONTINUOUS
10
0.127559
20
1.05537
11
0.121154
21
1.05705
0
LINE
8
BLACK
6
CONTINUOUS
10
0.121154
20
1.05705
11
0.115335
21
1.06021
0
LINE
8
BLACK
6
CONTINUOUS
10
0.115335
20
1.06021
11
0.110437
21
1.06467
0
LINE
8
BLACK
6
CONTINUOUS
10
0.110437
20
1.06467
11
0.106744
21
1.07017
0
LINE
8
BLACK
6
CONTINUOUS
10
0.106744
20
1.07017
11
0.104468
21
1.07638
0
LINE
8
BLACK
6
CONTINUOUS
10
0.104468
20
1.07638
11
0.103742
21
1.08297
0
LINE
8
BLACK
6
CONTINUOUS
10
0.103742
20
1.08297
11
0.104606
21
1.08953
0
LINE
8
BLACK
6
CONTINUOUS
10
0.104606
20
1.08953
11
0.107011
21
1.0957
0
LINE
8
BLACK
6
CONTINUOUS
10
0.107011
20
1.0957
11
0.110819
21
1.10112
0
LINE
8
BLACK
6
CONTINUOUS
10
0.110819
20
1.10112
11
0.115809
21
1.10547
0
LINE
8
BLACK
6
CONTINUOUS
10
0.115809
20
1.10547
11
0.121693
21
1.10851
0
LINE
8
BLACK
6
CONTINUOUS
10
0.121693
20
1.10851
11
0.128132
21
1.11005
0
LINE
8
BLACK
6
CONTINUOUS
10
0.128132
20
1.11005
11
0.134753
21
1.11002
0
LINE
8
BLACK
6
CONTINUOUS
10
1.40109
20
1.11002
11
1.40751
21
1.10841
0
LINE
8
BLACK
6
CONTINUOUS
10
1.40751
20
1.10841
11
1.41337
21
1.10531
0
LINE
8
BLACK
6
CONTINUOUS
10
1.41337
20
1.10531
11
1.41831
21
1.1009
0
LINE
8
BLACK
6
CONTINUOUS
10
1.41831
20
1.1009
11
1.42206
21
1.09545
0
LINE
8
BLACK
6
CONTINUOUS
10
1.42206
20
1.09545
11
1.4244
21
1.08925
0
LINE
8
BLACK
6
CONTINUOUS
10
1.4244
20
1.08925
11
1.4252
21
1.08268
0
LINE
8
BLACK
6
CONTINUOUS
10
1.4252
20
1.08268
11
1.42519
21
1.0821
0
LINE
8
BLACK
6
CONTINUOUS
10
1.42519
20
1.0821
11
1.42426
21
1.07554
0
LINE
8
BLACK
6
CONTINUOUS
10
1.42426
20
1.07554
11
1.42179
21
1.0694
0
LINE
8
BLACK
6
CONTINUOUS
10
1.42179
20
1.0694
11
1.41792
21
1.06402
0
LINE
8
BLACK
6
CONTINUOUS
10
1.41792
20
1.06402
11
1.41289
21
1.05972
0
LINE
8
BLACK
6
CONTINUOUS
10
1.41289
20
1.05972
11
1.40697
21
1.05675
0
LINE
8
BLACK
6
CONTINUOUS
10
1.40697
20
1.05675
11
1.40052
21
1.05527
0
LINE
8
BLACK
6
CONTINUOUS
10
1.40052
20
1.05527
11
1.3939
21
1.05537
0
LINE
8
BLACK
6
CONTINUOUS
10
1.3939
20
1.05537
11
1.38749
21
1.05705
0
LINE
8
BLACK
6
CONTINUOUS
10
1.38749
20
1.05705
11
1.38167
21
1.06021
0
LINE
8
BLACK
6
CONTINUOUS
10
1.38167
20
1.06021
11
1.37678
21
1.06467
0
LINE
8
BLACK
6
CONTINUOUS
10
1.37678
20
1.06467
11
1.37308
21
1.07017
0
LINE
8
BLACK
6
CONTINUOUS
10
1.37308
20
1.07017
11
1.37081
21
1.07638
0
LINE
8
BLACK
6
CONTINUOUS
10
1.37081
20
1.07638
11
1.37008
21
1.08297
0
LINE
8
BLACK
6
CONTINUOUS
10
1.37008
20
1.08297
11
1.37094
21
1.08953
0
LINE
8
BLACK
6
CONTINUOUS
10
1.37094
20
1.08953
11
1.37335
21
1.0957
0
LINE
8
BLACK
6
CONTINUOUS
10
1.37335
20
1.0957
11
1.37716
21
1.10112
0
LINE
8
BLACK
6
CONTINUOUS
10
1.37716
20
1.10112
11
1.38215
21
1.10547
0
LINE
8
BLACK
6
CONTINUOUS
10
1.38215
20
1.10547
11
1.38803
21
1.10851
0
LINE
8
BLACK
6
CONTINUOUS
10
1.38803
20
1.10851
11
1.39447
21
1.11005
0
LINE
8
BLACK
6
CONTINUOUS
10
1.39447
20
1.11005
11
1.40109
21
1.11002
0
LINE
8
BLACK
6
CONTINUOUS
10
1.40109
20
0.676948
11
1.40751
21
0.675335
0
LINE
8
BLACK
6
CONTINUOUS
10
1.40751
20
0.675335
11
1.41337
21
0.672236
0
LINE
8
BLACK
6
CONTINUOUS
10
1.41337
20
0.672236
11
1.41831
21
0.667831
0
LINE
8
BLACK
6
CONTINUOUS
10
1.41831
20
0.667831
11
1.42206
21
0.662374
0
LINE
8
BLACK
6
CONTINUOUS
10
1.42206
20
0.662374
11
1.4244
21
0.65618
0
LINE
8
BLACK
6
CONTINUOUS
10
1.4244
20
0.65618
11
1.4252
21
0.649606
0
LINE
8
BLACK
6
CONTINUOUS
10
1.4252
20
0.649606
11
1.42519
21
0.649029
0
LINE
8
BLACK
6
CONTINUOUS
10
1.42519
20
0.649029
11
1.42426
21
0.642474
0
LINE
8
BLACK
6
CONTINUOUS
10
1.42426
20
0.642474
11
1.42179
21
0.63633
0
LINE
8
BLACK
6
CONTINUOUS
10
1.42179
20
0.63633
11
1.41792
21
0.630952
0
LINE
8
BLACK
6
CONTINUOUS
10
1.41792
20
0.630952
11
1.41289
21
0.626652
0
LINE
8
BLACK
6
CONTINUOUS
10
1.41289
20
0.626652
11
1.40697
21
0.623676
0
LINE
8
BLACK
6
CONTINUOUS
10
1.40697
20
0.623676
11
1.40052
21
0.622198
0
LINE
8
BLACK
6
CONTINUOUS
10
1.40052
20
0.622198
11
1.3939
21
0.622302
0
LINE
8
BLACK
6
CONTINUOUS
10
1.3939
20
0.622302
11
1.38749
21
0.623983
0
LINE
8
BLACK
6
CONTINUOUS
10
1.38749
20
0.623983
11
1.38167
21
0.627142
0
LINE
8
BLACK
6
CONTINUOUS
10
1.38167
20
0.627142
11
1.37678
21
0.631599
0
LINE
8
BLACK
6
CONTINUOUS
10
1.37678
20
0.631599
11
1.37308
21
0.637095
0
LINE
8
BLACK
6
CONTINUOUS
10
1.37308
20
0.637095
11
1.37081
21
0.643313
0
LINE
8
BLACK
6
CONTINUOUS
10
1.37081
20
0.643313
11
1.37008
21
0.649895
0
LINE
8
BLACK
6
CONTINUOUS
10
1.37008
20
0.649895
11
1.37094
21
0.65646
0
LINE
8
BLACK
6
CONTINUOUS
10
1.37094
20
0.65646
11
1.37335
21
0.662629
0
LINE
8
BLACK
6
CONTINUOUS
10
1.37335
20
0.662629
11
1.37716
21
0.668047
0
LINE
8
BLACK
6
CONTINUOUS
10
1.37716
20
0.668047
11
1.38215
21
0.6724
0
LINE
8
BLACK
6
CONTINUOUS
10
1.38215
20
0.6724
11
1.38803
21
0.675437
0
LINE
8
BLACK
6
CONTINUOUS
10
1.38803
20
0.675437
11
1.39447
21
0.676983
0
LINE
8
BLACK
6
CONTINUOUS
10
1.39447
20
0.676983
11
1.40109
21
0.676948
0
CIRCLE
8
BLACK
10
1.1
20
1.02
40
0.00787402
0
CIRCLE
8
BLACK
10
1.02
20
0.98
40
0.00787402
0
CIRCLE
8
BLACK
10
0.28
20
0.35
40
0.00787402
0
CIRCLE
8
BLACK
10
0.97
20
0.06
40
0.00787402
0
CIRCLE
8
BLACK
10
0.15
20
0.12
40
0.00787402
0
CIRCLE
8
BLACK
10
1
20
0.11
40
0.00787402
0
CIRCLE
8
BLACK
10
1.34
20
0.13
40
0.00787402
0
CIRCLE
8
BLACK
10
0.59
20
0.29
40
0.00787402
0
CIRCLE
8
BLACK
10
0.1
20
0.47
40
0.00787402
0
CIRCLE
8
BLACK
10
0.49
20
0.47
40
0.00787402
0
CIRCLE
8
BLACK
10
0.95
20
0.11
40
0.00787402
0
CIRCLE
8
BLACK
10
0.67
20
0.49
40
0.00787402
0
CIRCLE
8
BLACK
10
1.72
20
0.93
40
0.00787402
0
CIRCLE
8
BLACK
10
0.83
20
0.15
40
0.00787402
0
CIRCLE
8
BLACK
10
0.98
20
0.98
40
0.00787402
0
CIRCLE
8
BLACK
10
0.92
20
0.06
40
0.00787402
0
CIRCLE
8
BLACK
10
0.4
20
0.89
40
0.00787402
0
CIRCLE
8
BLACK
10
1.72
20
0.97
40
0.00787402
0
CIRCLE
8
BLACK
10
1.72
20
1.01
40
0.00787402
0
CIRCLE
8
BLACK
10
0.28
20
0.47
40
0.00787402
0
CIRCLE
8
BLACK
10
0.47
20
1.06
40
0.00787402
0
CIRCLE
8
BLACK
10
0.19
20
0.08
40
0.00787402
0
CIRCLE
8
BLACK
10
0.37
20
0.47
40
0.00787402
0
CIRCLE
8
BLACK
10
0.13
20
0.35
40
0.00787402
0
CIRCLE
8
BLACK
10
1.25
20
0.65
40
0.00787402
0
CIRCLE
8
BLACK
10
0.24
20
0.35
40
0.00787402
0
CIRCLE
8
BLACK
10
0.19
20
0.12
40
0.00787402
0
CIRCLE
8
BLACK
10
1.1
20
0.9
40
0.00787402
0
CIRCLE
8
BLACK
10
1.39
20
0.13
40
0.00787402
0
CIRCLE
8
BLACK
10
0.64
20
0.45
40
0.00787402
0
CIRCLE
8
BLACK
10
0.4
20
0.35
40
0.00787402
0
CIRCLE
8
BLACK
10
1.39
20
0.23
40
0.00787402
0
CIRCLE
8
BLACK
10
1.06
20
0.98
40
0.00787402
0
CIRCLE
8
BLACK
10
0.94
20
0.9
40
0.00787402
0
CIRCLE
8
BLACK
10
0.23
20
0.79
40
0.00787402
0
CIRCLE
8
BLACK
10
0.33
20
0.47
40
0.00787402
0
CIRCLE
8
BLACK
10
1.25
20
0.61
40
0.00787402
0
CIRCLE
8
BLACK
10
0.23
20
0.84
40
0.00787402
0
CIRCLE
8
BLACK
10
1.39
20
0.98
40
0.00787402
0
CIRCLE
8
BLACK
10
1.39
20
0.9
40
0.00787402
0
CIRCLE
8
BLACK
10
1.1
20
0.94
40
0.00787402
0
CIRCLE
8
BLACK
10
0.24
20
0.47
40
0.00787402
0
CIRCLE
8
BLACK
10
1.02
20
0.06
40
0.00787402
0
CIRCLE
8
BLACK
10
0.94
20
0.94
40
0.00787402
0
CIRCLE
8
BLACK
10
1.06
20
0.94
40
0.00787402
0
CIRCLE
8
BLACK
10
0.05
20
0.35
40
0.00787402
0
CIRCLE
8
BLACK
10
0.35
20
0.89
40
0.00787402
0
CIRCLE
8
BLACK
10
1.39
20
0.86
40
0.00787402
0
CIRCLE
8
BLACK
10
1.29
20
0.65
40
0.00787402
0
CIRCLE
8
BLACK
10
1.34
20
0.44
40
0.00787402
0
CIRCLE
8
BLACK
10
1.39
20
0.18
40
0.00787402
0
CIRCLE
8
BLACK
10
0.59
20
0.24
40
0.00787402
0
CIRCLE
8
BLACK
10
1.06
20
1.02
40
0.00787402
0
CIRCLE
8
BLACK
10
1.02
20
0.9
40
0.00787402
0
CIRCLE
8
BLACK
10
0.09
20
0.35
40
0.00787402
0
CIRCLE
8
BLACK
10
0.44
20
1.14
40
0.00787402
0
CIRCLE
8
BLACK
10
1.34
20
0.23
40
0.00787402
0
CIRCLE
8
BLACK
10
1.39
20
1.02
40
0.00787402
0
CIRCLE
8
BLACK
10
0.48
20
0.35
40
0.00787402
0
CIRCLE
8
BLACK
10
0.94
20
1.02
40
0.00787402
0
CIRCLE
8
BLACK
10
1.03
20
0.36
40
0.00787402
0
CIRCLE
8
BLACK
10
0.36
20
0.35
40
0.00787402
0
CIRCLE
8
BLACK
10
0.98
20
1.02
40
0.00787402
0
CIRCLE
8
BLACK
10
0.98
20
0.94
40
0.00787402
0
CIRCLE
8
BLACK
10
0.89
20
0.2
40
0.00787402
0
CIRCLE
8
BLACK
10
1.39
20
0.82
40
0.00787402
0
CIRCLE
8
BLACK
10
0.77
20
0.13
40
0.00787402
0
CIRCLE
8
BLACK
10
1.1
20
0.98
40
0.00787402
0
CIRCLE
8
BLACK
10
1.39
20
0.08
40
0.00787402
0
CIRCLE
8
BLACK
10
0.38
20
0.2
40
0.00787402
0
CIRCLE
8
BLACK
10
1.39
20
0.94
40
0.00787402
0
CIRCLE
8
BLACK
10
0.41
20
0.47
40
0.00787402
0
CIRCLE
8
BLACK
10
0.94
20
0.98
40
0.00787402
0
CIRCLE
8
BLACK
10
0.14
20
0.47
40
0.00787402
0
CIRCLE
8
BLACK
10
0.44
20
0.35
40
0.00787402
0
CIRCLE
8
BLACK
10
1.56
20
0.74
40
0.00787402
0
CIRCLE
8
BLACK
10
0.45
20
0.47
40
0.00787402
0
CIRCLE
8
BLACK
10
1.6
20
0.74
40
0.00787402
0
CIRCLE
8
BLACK
10
0.3
20
0.89
40
0.00787402
0
CIRCLE
8
BLACK
10
1.29
20
0.61
40
0.00787402
0
CIRCLE
8
BLACK
10
1.37
20
0.7
40
0.00787402
0
CIRCLE
8
BLACK
10
0.69
20
0.13
40
0.00787402
0
CIRCLE
8
BLACK
10
1.34
20
0.08
40
0.00787402
0
CIRCLE
8
BLACK
10
1.08
20
0.41
40
0.00787402
0
CIRCLE
8
BLACK
10
0.19
20
0.16
40
0.00787402
0
CIRCLE
8
BLACK
10
0.06
20
0.47
40
0.00787402
0
CIRCLE
8
BLACK
10
1.72
20
0.89
40
0.00787402
0
CIRCLE
8
BLACK
10
0.61
20
0.13
40
0.00787402
0
CIRCLE
8
BLACK
10
0.15
20
0.16
40
0.00787402
0
CIRCLE
8
BLACK
10
1.28
20
0.69
40
0.00787402
0
CIRCLE
8
BLACK
10
0.32
20
0.35
40
0.00787402
0
CIRCLE
8
BLACK
10
0.15
20
0.08
40
0.00787402
0
CIRCLE
8
BLACK
10
1.06
20
0.9
40
0.00787402
0
CIRCLE
8
BLACK
10
1.39
20
0.78
40
0.00787402
0
CIRCLE
8
BLACK
10
1.02
20
1.02
40
0.00787402
0
CIRCLE
8
BLACK
10
1.05
20
0.11
40
0.00787402
0
CIRCLE
8
BLACK
10
1.02
20
0.94
40
0.00787402
0
CIRCLE
8
BLACK
10
1.08
20
0.36
40
0.00787402
0
CIRCLE
8
BLACK
10
0.98
20
0.9
40
0.00787402
0
CIRCLE
8
BLACK
10
1.34
20
0.18
40
0.00787402
0
CIRCLE
8
BLACK
10
1.39
20
0.74
40
0.00787402
0
CIRCLE
8
BLACK
10
0.655197
20
1.0998
40
0.00787402
0
CIRCLE
8
BLACK
10
0.185
20
0.345
40
0.00787402
0
CIRCLE
8
BLACK
10
1.07835
20
1.10835
40
0.00787402
0
CIRCLE
8
BLACK
10
1.585
20
0.61
40
0.00787402
0
CIRCLE
8
BLACK
10
1.665
20
0.935
40
0.00787402
0
CIRCLE
8
BLACK
10
1.665
20
0.885
40
0.00787402
0
CIRCLE
8
BLACK
10
1.58
20
0.295
40
0.00787402
0
CIRCLE
8
BLACK
10
1.395
20
0.54
40
0.00787402
0
CIRCLE
8
BLACK
10
1.16
20
0.175
40
0.00787402
0
CIRCLE
8
BLACK
10
0.85
20
0.66
40
0.00787402
  0
ENDSEC
  0
EOF
