  0
SECTION
  2
HEADER
  9
$ANGBASE
  50
0.0
  9
$ANGDIR
  70
1
  9
$MEASUREMENT
  70
0
  0
ENDSEC
  0
SECTION
  2
TABLES
  0
TABLE
  2
LTYPE
  70
4
  0
LTYPE
  5
40F
  2
CONTINUOUS
  70
0
  3
Solid line
  72
65
  73
0
  40
0.0
  0
LTYPE
  5
410
  2
DASHDOT
 70
0
  3
Dash Dot ____ _ ____ _
 72
65
 73
4
 40
2.0
 49
1.25
 49
-0.25
 49
0.25
 49
-0.25
  0
LTYPE
  5
411
  2
DASHED
 70
0
  3
Dashed __ __ __ __ __
 72
65
 73
2
 40
0.75
 49
0.5
 49
-0.25
  0
LTYPE
  5
43B
  2
DOTTED
 70
0
  3
Dotted .  .  .  .
 72
65
 73
2
 40
0.2
 49
0.0
 49
-0.2
  0
ENDTAB
  0
TABLE
  2
STYLE
  70
4
  0
STYLE
  2
KICAD
  70
0
  40
0
  41
1
  42
1
  50
0
  71
0
  3
isocp.shx
  0
STYLE
  2
KICADB
  70
0
  40
0
  41
1
  42
1
  50
0
  71
0
  3
isocp.shx
  0
STYLE
  2
KICADI
  70
0
  40
0
  41
1
  42
1
  50
15
  71
0
  3
isocp.shx
  0
STYLE
  2
KICADBI
  70
0
  40
0
  41
1
  42
1
  50
15
  71
0
  3
isocp.shx
  0
ENDTAB
  0
TABLE
  2
LAYER
  70
1
  0
LAYER
  2
BLACK
  70
0
  62
7
  6
CONTINUOUS
  0
ENDTAB
  0
ENDSEC
  0
SECTION
  2
ENTITIES
0
LINE
8
BLACK
6
CONTINUOUS
10
0.459536
20
0.312342
11
0.468485
21
0.309944
0
LINE
8
BLACK
6
CONTINUOUS
10
0.468485
20
0.309944
11
0.476882
21
0.306029
0
LINE
8
BLACK
6
CONTINUOUS
10
0.476882
20
0.306029
11
0.484471
21
0.300715
0
LINE
8
BLACK
6
CONTINUOUS
10
0.484471
20
0.300715
11
0.491022
21
0.294164
0
LINE
8
BLACK
6
CONTINUOUS
10
0.491022
20
0.294164
11
0.496336
21
0.286575
0
LINE
8
BLACK
6
CONTINUOUS
10
0.496336
20
0.286575
11
0.500251
21
0.278178
0
LINE
8
BLACK
6
CONTINUOUS
10
0.500251
20
0.278178
11
0.502649
21
0.269229
0
LINE
8
BLACK
6
CONTINUOUS
10
0.502649
20
0.269229
11
0.503457
21
0.26
0
LINE
8
BLACK
6
CONTINUOUS
10
0.503457
20
0.26
11
0.502649
21
0.250771
0
LINE
8
BLACK
6
CONTINUOUS
10
0.502649
20
0.250771
11
0.500251
21
0.241822
0
LINE
8
BLACK
6
CONTINUOUS
10
0.500251
20
0.241822
11
0.496336
21
0.233425
0
LINE
8
BLACK
6
CONTINUOUS
10
0.496336
20
0.233425
11
0.491022
21
0.225836
0
LINE
8
BLACK
6
CONTINUOUS
10
0.491022
20
0.225836
11
0.484471
21
0.219285
0
LINE
8
BLACK
6
CONTINUOUS
10
0.484471
20
0.219285
11
0.476882
21
0.213971
0
LINE
8
BLACK
6
CONTINUOUS
10
0.476882
20
0.213971
11
0.468485
21
0.210056
0
LINE
8
BLACK
6
CONTINUOUS
10
0.468485
20
0.210056
11
0.459536
21
0.207658
0
LINE
8
BLACK
6
CONTINUOUS
10
0.459536
20
0.207658
11
0.450307
21
0.20685
0
LINE
8
BLACK
6
CONTINUOUS
10
0.450307
20
0.20685
11
0.441078
21
0.207658
0
LINE
8
BLACK
6
CONTINUOUS
10
0.441078
20
0.207658
11
0.432129
21
0.210056
0
LINE
8
BLACK
6
CONTINUOUS
10
0.432129
20
0.210056
11
0.423732
21
0.213971
0
LINE
8
BLACK
6
CONTINUOUS
10
0.423732
20
0.213971
11
0.416143
21
0.219285
0
LINE
8
BLACK
6
CONTINUOUS
10
0.416143
20
0.219285
11
0.409592
21
0.225836
0
LINE
8
BLACK
6
CONTINUOUS
10
0.409592
20
0.225836
11
0.404278
21
0.233425
0
LINE
8
BLACK
6
CONTINUOUS
10
0.404278
20
0.233425
11
0.400363
21
0.241822
0
LINE
8
BLACK
6
CONTINUOUS
10
0.400363
20
0.241822
11
0.397965
21
0.250771
0
LINE
8
BLACK
6
CONTINUOUS
10
0.397965
20
0.250771
11
0.397157
21
0.26
0
LINE
8
BLACK
6
CONTINUOUS
10
0.397157
20
0.26
11
0.397965
21
0.269229
0
LINE
8
BLACK
6
CONTINUOUS
10
0.397965
20
0.269229
11
0.400363
21
0.278178
0
LINE
8
BLACK
6
CONTINUOUS
10
0.400363
20
0.278178
11
0.404278
21
0.286575
0
LINE
8
BLACK
6
CONTINUOUS
10
0.404278
20
0.286575
11
0.409592
21
0.294164
0
LINE
8
BLACK
6
CONTINUOUS
10
0.409592
20
0.294164
11
0.416143
21
0.300715
0
LINE
8
BLACK
6
CONTINUOUS
10
0.416143
20
0.300715
11
0.423732
21
0.306029
0
LINE
8
BLACK
6
CONTINUOUS
10
0.423732
20
0.306029
11
0.432129
21
0.309944
0
LINE
8
BLACK
6
CONTINUOUS
10
0.432129
20
0.309944
11
0.441078
21
0.312342
0
LINE
8
BLACK
6
CONTINUOUS
10
0.441078
20
0.312342
11
0.450307
21
0.31315
0
LINE
8
BLACK
6
CONTINUOUS
10
0.450307
20
0.31315
11
0.459536
21
0.312342
0
LINE
8
BLACK
6
CONTINUOUS
10
1.40859
20
0.683305
11
1.41535
21
0.680292
0
LINE
8
BLACK
6
CONTINUOUS
10
1.41535
20
0.680292
11
1.42135
21
0.675938
0
LINE
8
BLACK
6
CONTINUOUS
10
1.42135
20
0.675938
11
1.4263
21
0.670433
0
LINE
8
BLACK
6
CONTINUOUS
10
1.4263
20
0.670433
11
1.43001
21
0.664018
0
LINE
8
BLACK
6
CONTINUOUS
10
1.43001
20
0.664018
11
1.4323
21
0.656973
0
LINE
8
BLACK
6
CONTINUOUS
10
1.4323
20
0.656973
11
1.43307
21
0.649606
0
LINE
8
BLACK
6
CONTINUOUS
10
1.43307
20
0.649606
11
1.4323
21
0.642239
0
LINE
8
BLACK
6
CONTINUOUS
10
1.4323
20
0.642239
11
1.43001
21
0.635194
0
LINE
8
BLACK
6
CONTINUOUS
10
1.43001
20
0.635194
11
1.4263
21
0.628779
0
LINE
8
BLACK
6
CONTINUOUS
10
1.4263
20
0.628779
11
1.42135
21
0.623274
0
LINE
8
BLACK
6
CONTINUOUS
10
1.42135
20
0.623274
11
1.41535
21
0.61892
0
LINE
8
BLACK
6
CONTINUOUS
10
1.41535
20
0.61892
11
1.40859
21
0.615907
0
LINE
8
BLACK
6
CONTINUOUS
10
1.40859
20
0.615907
11
1.40134
21
0.614367
0
LINE
8
BLACK
6
CONTINUOUS
10
1.40134
20
0.614367
11
1.39393
21
0.614367
0
LINE
8
BLACK
6
CONTINUOUS
10
1.39393
20
0.614367
11
1.38669
21
0.615907
0
LINE
8
BLACK
6
CONTINUOUS
10
1.38669
20
0.615907
11
1.37992
21
0.61892
0
LINE
8
BLACK
6
CONTINUOUS
10
1.37992
20
0.61892
11
1.37393
21
0.623274
0
LINE
8
BLACK
6
CONTINUOUS
10
1.37393
20
0.623274
11
1.36897
21
0.628779
0
LINE
8
BLACK
6
CONTINUOUS
10
1.36897
20
0.628779
11
1.36527
21
0.635194
0
LINE
8
BLACK
6
CONTINUOUS
10
1.36527
20
0.635194
11
1.36298
21
0.642239
0
LINE
8
BLACK
6
CONTINUOUS
10
1.36298
20
0.642239
11
1.3622
21
0.649606
0
LINE
8
BLACK
6
CONTINUOUS
10
1.3622
20
0.649606
11
1.36298
21
0.656973
0
LINE
8
BLACK
6
CONTINUOUS
10
1.36298
20
0.656973
11
1.36527
21
0.664018
0
LINE
8
BLACK
6
CONTINUOUS
10
1.36527
20
0.664018
11
1.36897
21
0.670433
0
LINE
8
BLACK
6
CONTINUOUS
10
1.36897
20
0.670433
11
1.37393
21
0.675938
0
LINE
8
BLACK
6
CONTINUOUS
10
1.37393
20
0.675938
11
1.37992
21
0.680292
0
LINE
8
BLACK
6
CONTINUOUS
10
1.37992
20
0.680292
11
1.38669
21
0.683305
0
LINE
8
BLACK
6
CONTINUOUS
10
1.38669
20
0.683305
11
1.39393
21
0.684845
0
LINE
8
BLACK
6
CONTINUOUS
10
1.39393
20
0.684845
11
1.40134
21
0.684845
0
LINE
8
BLACK
6
CONTINUOUS
10
1.40134
20
0.684845
11
1.40859
21
0.683305
0
LINE
8
BLACK
6
CONTINUOUS
10
0.142249
20
0.683305
11
0.149016
21
0.680292
0
LINE
8
BLACK
6
CONTINUOUS
10
0.149016
20
0.680292
11
0.155009
21
0.675938
0
LINE
8
BLACK
6
CONTINUOUS
10
0.155009
20
0.675938
11
0.159965
21
0.670433
0
LINE
8
BLACK
6
CONTINUOUS
10
0.159965
20
0.670433
11
0.163669
21
0.664018
0
LINE
8
BLACK
6
CONTINUOUS
10
0.163669
20
0.664018
11
0.165958
21
0.656973
0
LINE
8
BLACK
6
CONTINUOUS
10
0.165958
20
0.656973
11
0.166732
21
0.649606
0
LINE
8
BLACK
6
CONTINUOUS
10
0.166732
20
0.649606
11
0.165958
21
0.642239
0
LINE
8
BLACK
6
CONTINUOUS
10
0.165958
20
0.642239
11
0.163669
21
0.635194
0
LINE
8
BLACK
6
CONTINUOUS
10
0.163669
20
0.635194
11
0.159965
21
0.628779
0
LINE
8
BLACK
6
CONTINUOUS
10
0.159965
20
0.628779
11
0.155009
21
0.623274
0
LINE
8
BLACK
6
CONTINUOUS
10
0.155009
20
0.623274
11
0.149016
21
0.61892
0
LINE
8
BLACK
6
CONTINUOUS
10
0.149016
20
0.61892
11
0.142249
21
0.615907
0
LINE
8
BLACK
6
CONTINUOUS
10
0.142249
20
0.615907
11
0.135003
21
0.614367
0
LINE
8
BLACK
6
CONTINUOUS
10
0.135003
20
0.614367
11
0.127595
21
0.614367
0
LINE
8
BLACK
6
CONTINUOUS
10
0.127595
20
0.614367
11
0.12035
21
0.615907
0
LINE
8
BLACK
6
CONTINUOUS
10
0.12035
20
0.615907
11
0.113583
21
0.61892
0
LINE
8
BLACK
6
CONTINUOUS
10
0.113583
20
0.61892
11
0.10759
21
0.623274
0
LINE
8
BLACK
6
CONTINUOUS
10
0.10759
20
0.623274
11
0.102633
21
0.628779
0
LINE
8
BLACK
6
CONTINUOUS
10
0.102633
20
0.628779
11
0.0989295
21
0.635194
0
LINE
8
BLACK
6
CONTINUOUS
10
0.0989295
20
0.635194
11
0.0966404
21
0.642239
0
LINE
8
BLACK
6
CONTINUOUS
10
0.0966404
20
0.642239
11
0.0958661
21
0.649606
0
LINE
8
BLACK
6
CONTINUOUS
10
0.0958661
20
0.649606
11
0.0966404
21
0.656973
0
LINE
8
BLACK
6
CONTINUOUS
10
0.0966404
20
0.656973
11
0.0989295
21
0.664018
0
LINE
8
BLACK
6
CONTINUOUS
10
0.0989295
20
0.664018
11
0.102633
21
0.670433
0
LINE
8
BLACK
6
CONTINUOUS
10
0.102633
20
0.670433
11
0.10759
21
0.675938
0
LINE
8
BLACK
6
CONTINUOUS
10
0.10759
20
0.675938
11
0.113583
21
0.680292
0
LINE
8
BLACK
6
CONTINUOUS
10
0.113583
20
0.680292
11
0.12035
21
0.683305
0
LINE
8
BLACK
6
CONTINUOUS
10
0.12035
20
0.683305
11
0.127595
21
0.684845
0
LINE
8
BLACK
6
CONTINUOUS
10
0.127595
20
0.684845
11
0.135003
21
0.684845
0
LINE
8
BLACK
6
CONTINUOUS
10
0.135003
20
0.684845
11
0.142249
21
0.683305
0
LINE
8
BLACK
6
CONTINUOUS
10
1.2128
20
0.843543
11
1.22336
21
0.841094
0
LINE
8
BLACK
6
CONTINUOUS
10
1.22336
20
0.841094
11
1.23348
21
0.837182
0
LINE
8
BLACK
6
CONTINUOUS
10
1.23348
20
0.837182
11
1.24294
21
0.831883
0
LINE
8
BLACK
6
CONTINUOUS
10
1.24294
20
0.831883
11
1.25156
21
0.825304
0
LINE
8
BLACK
6
CONTINUOUS
10
1.25156
20
0.825304
11
1.25917
21
0.817576
0
LINE
8
BLACK
6
CONTINUOUS
10
1.25917
20
0.817576
11
1.26561
21
0.808853
0
LINE
8
BLACK
6
CONTINUOUS
10
1.26561
20
0.808853
11
1.27076
21
0.799309
0
LINE
8
BLACK
6
CONTINUOUS
10
1.27076
20
0.799309
11
1.27451
21
0.789135
0
LINE
8
BLACK
6
CONTINUOUS
10
1.27451
20
0.789135
11
1.27679
21
0.778534
0
LINE
8
BLACK
6
CONTINUOUS
10
1.27679
20
0.778534
11
1.27756
21
0.767717
0
LINE
8
BLACK
6
CONTINUOUS
10
1.27756
20
0.767717
11
1.27741
21
0.762896
0
LINE
8
BLACK
6
CONTINUOUS
10
1.27741
20
0.762896
11
1.27596
21
0.752148
0
LINE
8
BLACK
6
CONTINUOUS
10
1.27596
20
0.752148
11
1.27302
21
0.741711
0
LINE
8
BLACK
6
CONTINUOUS
10
1.27302
20
0.741711
11
1.26864
21
0.731793
0
LINE
8
BLACK
6
CONTINUOUS
10
1.26864
20
0.731793
11
1.2629
21
0.722591
0
LINE
8
BLACK
6
CONTINUOUS
10
1.2629
20
0.722591
11
1.25592
21
0.71429
0
LINE
8
BLACK
6
CONTINUOUS
10
1.25592
20
0.71429
11
1.24784
21
0.707055
0
LINE
8
BLACK
6
CONTINUOUS
10
1.24784
20
0.707055
11
1.23882
21
0.70103
0
LINE
8
BLACK
6
CONTINUOUS
10
1.23882
20
0.70103
11
1.22905
21
0.696336
0
LINE
8
BLACK
6
CONTINUOUS
10
1.22905
20
0.696336
11
1.21871
21
0.693066
0
LINE
8
BLACK
6
CONTINUOUS
10
1.21871
20
0.693066
11
1.20801
21
0.691286
0
LINE
8
BLACK
6
CONTINUOUS
10
1.20801
20
0.691286
11
1.19717
21
0.69103
0
LINE
8
BLACK
6
CONTINUOUS
10
1.19717
20
0.69103
11
1.1864
21
0.692305
0
LINE
8
BLACK
6
CONTINUOUS
10
1.1864
20
0.692305
11
1.17592
21
0.695084
0
LINE
8
BLACK
6
CONTINUOUS
10
1.17592
20
0.695084
11
1.16593
21
0.699312
0
LINE
8
BLACK
6
CONTINUOUS
10
1.16593
20
0.699312
11
1.15664
21
0.704906
0
LINE
8
BLACK
6
CONTINUOUS
10
1.15664
20
0.704906
11
1.14823
21
0.711752
0
LINE
8
BLACK
6
CONTINUOUS
10
1.14823
20
0.711752
11
1.14087
21
0.719716
0
LINE
8
BLACK
6
CONTINUOUS
10
1.14087
20
0.719716
11
1.13471
21
0.728637
0
LINE
8
BLACK
6
CONTINUOUS
10
1.13471
20
0.728637
11
1.12986
21
0.738337
0
LINE
8
BLACK
6
CONTINUOUS
10
1.12986
20
0.738337
11
1.12643
21
0.748624
0
LINE
8
BLACK
6
CONTINUOUS
10
1.12643
20
0.748624
11
1.12448
21
0.759292
0
LINE
8
BLACK
6
CONTINUOUS
10
1.12448
20
0.759292
11
1.12405
21
0.770128
0
LINE
8
BLACK
6
CONTINUOUS
10
1.12405
20
0.770128
11
1.12516
21
0.780916
0
LINE
8
BLACK
6
CONTINUOUS
10
1.12516
20
0.780916
11
1.12777
21
0.79144
0
LINE
8
BLACK
6
CONTINUOUS
10
1.12777
20
0.79144
11
1.13184
21
0.801491
0
LINE
8
BLACK
6
CONTINUOUS
10
1.13184
20
0.801491
11
1.13729
21
0.810869
0
LINE
8
BLACK
6
CONTINUOUS
10
1.13729
20
0.810869
11
1.144
21
0.819385
0
LINE
8
BLACK
6
CONTINUOUS
10
1.144
20
0.819385
11
1.15185
21
0.82687
0
LINE
8
BLACK
6
CONTINUOUS
10
1.15185
20
0.82687
11
1.16067
21
0.833175
0
LINE
8
BLACK
6
CONTINUOUS
10
1.16067
20
0.833175
11
1.1703
21
0.838174
0
LINE
8
BLACK
6
CONTINUOUS
10
1.1703
20
0.838174
11
1.18053
21
0.841767
0
LINE
8
BLACK
6
CONTINUOUS
10
1.18053
20
0.841767
11
1.19117
21
0.843883
0
LINE
8
BLACK
6
CONTINUOUS
10
1.19117
20
0.843883
11
1.20199
21
0.844479
0
LINE
8
BLACK
6
CONTINUOUS
10
1.20199
20
0.844479
11
1.2128
21
0.843543
0
LINE
8
BLACK
6
CONTINUOUS
10
0.53701
20
0.843543
11
0.547574
21
0.841094
0
LINE
8
BLACK
6
CONTINUOUS
10
0.547574
20
0.841094
11
0.557688
21
0.837182
0
LINE
8
BLACK
6
CONTINUOUS
10
0.557688
20
0.837182
11
0.567149
21
0.831883
0
LINE
8
BLACK
6
CONTINUOUS
10
0.567149
20
0.831883
11
0.57577
21
0.825304
0
LINE
8
BLACK
6
CONTINUOUS
10
0.57577
20
0.825304
11
0.583378
21
0.817576
0
LINE
8
BLACK
6
CONTINUOUS
10
0.583378
20
0.817576
11
0.58982
21
0.808853
0
LINE
8
BLACK
6
CONTINUOUS
10
0.58982
20
0.808853
11
0.59497
21
0.799309
0
LINE
8
BLACK
6
CONTINUOUS
10
0.59497
20
0.799309
11
0.598723
21
0.789135
0
LINE
8
BLACK
6
CONTINUOUS
10
0.598723
20
0.789135
11
0.601006
21
0.778534
0
LINE
8
BLACK
6
CONTINUOUS
10
0.601006
20
0.778534
11
0.601772
21
0.767717
0
LINE
8
BLACK
6
CONTINUOUS
10
0.601772
20
0.767717
11
0.60162
21
0.762896
0
LINE
8
BLACK
6
CONTINUOUS
10
0.60162
20
0.762896
11
0.600177
21
0.752148
0
LINE
8
BLACK
6
CONTINUOUS
10
0.600177
20
0.752148
11
0.597233
21
0.741711
0
LINE
8
BLACK
6
CONTINUOUS
10
0.597233
20
0.741711
11
0.592848
21
0.731793
0
LINE
8
BLACK
6
CONTINUOUS
10
0.592848
20
0.731793
11
0.58711
21
0.722591
0
LINE
8
BLACK
6
CONTINUOUS
10
0.58711
20
0.722591
11
0.580132
21
0.71429
0
LINE
8
BLACK
6
CONTINUOUS
10
0.580132
20
0.71429
11
0.572054
21
0.707055
0
LINE
8
BLACK
6
CONTINUOUS
10
0.572054
20
0.707055
11
0.563037
21
0.70103
0
LINE
8
BLACK
6
CONTINUOUS
10
0.563037
20
0.70103
11
0.553262
21
0.696336
0
LINE
8
BLACK
6
CONTINUOUS
10
0.553262
20
0.696336
11
0.542922
21
0.693066
0
LINE
8
BLACK
6
CONTINUOUS
10
0.542922
20
0.693066
11
0.532225
21
0.691286
0
LINE
8
BLACK
6
CONTINUOUS
10
0.532225
20
0.691286
11
0.521384
21
0.69103
0
LINE
8
BLACK
6
CONTINUOUS
10
0.521384
20
0.69103
11
0.510614
21
0.692305
0
LINE
8
BLACK
6
CONTINUOUS
10
0.510614
20
0.692305
11
0.500132
21
0.695084
0
LINE
8
BLACK
6
CONTINUOUS
10
0.500132
20
0.695084
11
0.490146
21
0.699312
0
LINE
8
BLACK
6
CONTINUOUS
10
0.490146
20
0.699312
11
0.480856
21
0.704906
0
LINE
8
BLACK
6
CONTINUOUS
10
0.480856
20
0.704906
11
0.472446
21
0.711752
0
LINE
8
BLACK
6
CONTINUOUS
10
0.472446
20
0.711752
11
0.465085
21
0.719716
0
LINE
8
BLACK
6
CONTINUOUS
10
0.465085
20
0.719716
11
0.458919
21
0.728637
0
LINE
8
BLACK
6
CONTINUOUS
10
0.458919
20
0.728637
11
0.454072
21
0.738337
0
LINE
8
BLACK
6
CONTINUOUS
10
0.454072
20
0.738337
11
0.45064
21
0.748624
0
LINE
8
BLACK
6
CONTINUOUS
10
0.45064
20
0.748624
11
0.448692
21
0.759292
0
LINE
8
BLACK
6
CONTINUOUS
10
0.448692
20
0.759292
11
0.448266
21
0.770128
0
LINE
8
BLACK
6
CONTINUOUS
10
0.448266
20
0.770128
11
0.449372
21
0.780916
0
LINE
8
BLACK
6
CONTINUOUS
10
0.449372
20
0.780916
11
0.451986
21
0.79144
0
LINE
8
BLACK
6
CONTINUOUS
10
0.451986
20
0.79144
11
0.456057
21
0.801491
0
LINE
8
BLACK
6
CONTINUOUS
10
0.456057
20
0.801491
11
0.461504
21
0.810869
0
LINE
8
BLACK
6
CONTINUOUS
10
0.461504
20
0.810869
11
0.468217
21
0.819385
0
LINE
8
BLACK
6
CONTINUOUS
10
0.468217
20
0.819385
11
0.476064
21
0.82687
0
LINE
8
BLACK
6
CONTINUOUS
10
0.476064
20
0.82687
11
0.484887
21
0.833175
0
LINE
8
BLACK
6
CONTINUOUS
10
0.484887
20
0.833175
11
0.49451
21
0.838174
0
LINE
8
BLACK
6
CONTINUOUS
10
0.49451
20
0.838174
11
0.504742
21
0.841767
0
LINE
8
BLACK
6
CONTINUOUS
10
0.504742
20
0.841767
11
0.515378
21
0.843883
0
LINE
8
BLACK
6
CONTINUOUS
10
0.515378
20
0.843883
11
0.526206
21
0.844479
0
LINE
8
BLACK
6
CONTINUOUS
10
0.526206
20
0.844479
11
0.53701
21
0.843543
0
LINE
8
BLACK
6
CONTINUOUS
10
1.2727
20
1.04074
11
1.27525
21
1.03903
0
LINE
8
BLACK
6
CONTINUOUS
10
1.27525
20
1.03903
11
1.27696
21
1.03648
0
LINE
8
BLACK
6
CONTINUOUS
10
1.27696
20
1.03648
11
1.27756
21
1.03346
0
LINE
8
BLACK
6
CONTINUOUS
10
1.27756
20
1.03346
11
1.27756
21
0.895669
0
LINE
8
BLACK
6
CONTINUOUS
10
1.27756
20
0.895669
11
1.27696
21
0.892656
0
LINE
8
BLACK
6
CONTINUOUS
10
1.27696
20
0.892656
11
1.27525
21
0.890102
0
LINE
8
BLACK
6
CONTINUOUS
10
1.27525
20
0.890102
11
1.2727
21
0.888395
0
LINE
8
BLACK
6
CONTINUOUS
10
1.2727
20
0.888395
11
1.26969
21
0.887795
0
LINE
8
BLACK
6
CONTINUOUS
10
1.26969
20
0.887795
11
1.13189
21
0.887795
0
LINE
8
BLACK
6
CONTINUOUS
10
1.13189
20
0.887795
11
1.12888
21
0.888395
0
LINE
8
BLACK
6
CONTINUOUS
10
1.12888
20
0.888395
11
1.12632
21
0.890102
0
LINE
8
BLACK
6
CONTINUOUS
10
1.12632
20
0.890102
11
1.12462
21
0.892656
0
LINE
8
BLACK
6
CONTINUOUS
10
1.12462
20
0.892656
11
1.12402
21
0.895669
0
LINE
8
BLACK
6
CONTINUOUS
10
1.12402
20
0.895669
11
1.12402
21
1.03346
0
LINE
8
BLACK
6
CONTINUOUS
10
1.12402
20
1.03346
11
1.12462
21
1.03648
0
LINE
8
BLACK
6
CONTINUOUS
10
1.12462
20
1.03648
11
1.12632
21
1.03903
0
LINE
8
BLACK
6
CONTINUOUS
10
1.12632
20
1.03903
11
1.12888
21
1.04074
0
LINE
8
BLACK
6
CONTINUOUS
10
1.12888
20
1.04074
11
1.13189
21
1.04134
0
LINE
8
BLACK
6
CONTINUOUS
10
1.13189
20
1.04134
11
1.26969
21
1.04134
0
LINE
8
BLACK
6
CONTINUOUS
10
1.26969
20
1.04134
11
1.2727
21
1.04074
0
LINE
8
BLACK
6
CONTINUOUS
10
0.596911
20
1.04074
11
0.599465
21
1.03903
0
LINE
8
BLACK
6
CONTINUOUS
10
0.599465
20
1.03903
11
0.601172
21
1.03648
0
LINE
8
BLACK
6
CONTINUOUS
10
0.601172
20
1.03648
11
0.601772
21
1.03346
0
LINE
8
BLACK
6
CONTINUOUS
10
0.601772
20
1.03346
11
0.601772
21
0.895669
0
LINE
8
BLACK
6
CONTINUOUS
10
0.601772
20
0.895669
11
0.601172
21
0.892656
0
LINE
8
BLACK
6
CONTINUOUS
10
0.601172
20
0.892656
11
0.599465
21
0.890102
0
LINE
8
BLACK
6
CONTINUOUS
10
0.599465
20
0.890102
11
0.596911
21
0.888395
0
LINE
8
BLACK
6
CONTINUOUS
10
0.596911
20
0.888395
11
0.593898
21
0.887795
0
LINE
8
BLACK
6
CONTINUOUS
10
0.593898
20
0.887795
11
0.456102
21
0.887795
0
LINE
8
BLACK
6
CONTINUOUS
10
0.456102
20
0.887795
11
0.453089
21
0.888395
0
LINE
8
BLACK
6
CONTINUOUS
10
0.453089
20
0.888395
11
0.450535
21
0.890102
0
LINE
8
BLACK
6
CONTINUOUS
10
0.450535
20
0.890102
11
0.448828
21
0.892656
0
LINE
8
BLACK
6
CONTINUOUS
10
0.448828
20
0.892656
11
0.448228
21
0.895669
0
LINE
8
BLACK
6
CONTINUOUS
10
0.448228
20
0.895669
11
0.448228
21
1.03346
0
LINE
8
BLACK
6
CONTINUOUS
10
0.448228
20
1.03346
11
0.448828
21
1.03648
0
LINE
8
BLACK
6
CONTINUOUS
10
0.448828
20
1.03648
11
0.450535
21
1.03903
0
LINE
8
BLACK
6
CONTINUOUS
10
0.450535
20
1.03903
11
0.453089
21
1.04074
0
LINE
8
BLACK
6
CONTINUOUS
10
0.453089
20
1.04074
11
0.456102
21
1.04134
0
LINE
8
BLACK
6
CONTINUOUS
10
0.456102
20
1.04134
11
0.593898
21
1.04134
0
LINE
8
BLACK
6
CONTINUOUS
10
0.593898
20
1.04134
11
0.596911
21
1.04074
0
LINE
8
BLACK
6
CONTINUOUS
10
1.40859
20
1.11638
11
1.41535
21
1.11336
0
LINE
8
BLACK
6
CONTINUOUS
10
1.41535
20
1.11336
11
1.42135
21
1.10901
0
LINE
8
BLACK
6
CONTINUOUS
10
1.42135
20
1.10901
11
1.4263
21
1.1035
0
LINE
8
BLACK
6
CONTINUOUS
10
1.4263
20
1.1035
11
1.43001
21
1.09709
0
LINE
8
BLACK
6
CONTINUOUS
10
1.43001
20
1.09709
11
1.4323
21
1.09004
0
LINE
8
BLACK
6
CONTINUOUS
10
1.4323
20
1.09004
11
1.43307
21
1.08268
0
LINE
8
BLACK
6
CONTINUOUS
10
1.43307
20
1.08268
11
1.4323
21
1.07531
0
LINE
8
BLACK
6
CONTINUOUS
10
1.4323
20
1.07531
11
1.43001
21
1.06827
0
LINE
8
BLACK
6
CONTINUOUS
10
1.43001
20
1.06827
11
1.4263
21
1.06185
0
LINE
8
BLACK
6
CONTINUOUS
10
1.4263
20
1.06185
11
1.42135
21
1.05635
0
LINE
8
BLACK
6
CONTINUOUS
10
1.42135
20
1.05635
11
1.41535
21
1.05199
0
LINE
8
BLACK
6
CONTINUOUS
10
1.41535
20
1.05199
11
1.40859
21
1.04898
0
LINE
8
BLACK
6
CONTINUOUS
10
1.40859
20
1.04898
11
1.40134
21
1.04744
0
LINE
8
BLACK
6
CONTINUOUS
10
1.40134
20
1.04744
11
1.39393
21
1.04744
0
LINE
8
BLACK
6
CONTINUOUS
10
1.39393
20
1.04744
11
1.38669
21
1.04898
0
LINE
8
BLACK
6
CONTINUOUS
10
1.38669
20
1.04898
11
1.37992
21
1.05199
0
LINE
8
BLACK
6
CONTINUOUS
10
1.37992
20
1.05199
11
1.37393
21
1.05635
0
LINE
8
BLACK
6
CONTINUOUS
10
1.37393
20
1.05635
11
1.36897
21
1.06185
0
LINE
8
BLACK
6
CONTINUOUS
10
1.36897
20
1.06185
11
1.36527
21
1.06827
0
LINE
8
BLACK
6
CONTINUOUS
10
1.36527
20
1.06827
11
1.36298
21
1.07531
0
LINE
8
BLACK
6
CONTINUOUS
10
1.36298
20
1.07531
11
1.3622
21
1.08268
0
LINE
8
BLACK
6
CONTINUOUS
10
1.3622
20
1.08268
11
1.36298
21
1.09004
0
LINE
8
BLACK
6
CONTINUOUS
10
1.36298
20
1.09004
11
1.36527
21
1.09709
0
LINE
8
BLACK
6
CONTINUOUS
10
1.36527
20
1.09709
11
1.36897
21
1.1035
0
LINE
8
BLACK
6
CONTINUOUS
10
1.36897
20
1.1035
11
1.37393
21
1.10901
0
LINE
8
BLACK
6
CONTINUOUS
10
1.37393
20
1.10901
11
1.37992
21
1.11336
0
LINE
8
BLACK
6
CONTINUOUS
10
1.37992
20
1.11336
11
1.38669
21
1.11638
0
LINE
8
BLACK
6
CONTINUOUS
10
1.38669
20
1.11638
11
1.39393
21
1.11792
0
LINE
8
BLACK
6
CONTINUOUS
10
1.39393
20
1.11792
11
1.40134
21
1.11792
0
LINE
8
BLACK
6
CONTINUOUS
10
1.40134
20
1.11792
11
1.40859
21
1.11638
0
LINE
8
BLACK
6
CONTINUOUS
10
0.142249
20
1.11638
11
0.149016
21
1.11336
0
LINE
8
BLACK
6
CONTINUOUS
10
0.149016
20
1.11336
11
0.155009
21
1.10901
0
LINE
8
BLACK
6
CONTINUOUS
10
0.155009
20
1.10901
11
0.159965
21
1.1035
0
LINE
8
BLACK
6
CONTINUOUS
10
0.159965
20
1.1035
11
0.163669
21
1.09709
0
LINE
8
BLACK
6
CONTINUOUS
10
0.163669
20
1.09709
11
0.165958
21
1.09004
0
LINE
8
BLACK
6
CONTINUOUS
10
0.165958
20
1.09004
11
0.166732
21
1.08268
0
LINE
8
BLACK
6
CONTINUOUS
10
0.166732
20
1.08268
11
0.165958
21
1.07531
0
LINE
8
BLACK
6
CONTINUOUS
10
0.165958
20
1.07531
11
0.163669
21
1.06827
0
LINE
8
BLACK
6
CONTINUOUS
10
0.163669
20
1.06827
11
0.159965
21
1.06185
0
LINE
8
BLACK
6
CONTINUOUS
10
0.159965
20
1.06185
11
0.155009
21
1.05635
0
LINE
8
BLACK
6
CONTINUOUS
10
0.155009
20
1.05635
11
0.149016
21
1.05199
0
LINE
8
BLACK
6
CONTINUOUS
10
0.149016
20
1.05199
11
0.142249
21
1.04898
0
LINE
8
BLACK
6
CONTINUOUS
10
0.142249
20
1.04898
11
0.135003
21
1.04744
0
LINE
8
BLACK
6
CONTINUOUS
10
0.135003
20
1.04744
11
0.127595
21
1.04744
0
LINE
8
BLACK
6
CONTINUOUS
10
0.127595
20
1.04744
11
0.12035
21
1.04898
0
LINE
8
BLACK
6
CONTINUOUS
10
0.12035
20
1.04898
11
0.113583
21
1.05199
0
LINE
8
BLACK
6
CONTINUOUS
10
0.113583
20
1.05199
11
0.10759
21
1.05635
0
LINE
8
BLACK
6
CONTINUOUS
10
0.10759
20
1.05635
11
0.102633
21
1.06185
0
LINE
8
BLACK
6
CONTINUOUS
10
0.102633
20
1.06185
11
0.0989295
21
1.06827
0
LINE
8
BLACK
6
CONTINUOUS
10
0.0989295
20
1.06827
11
0.0966404
21
1.07531
0
LINE
8
BLACK
6
CONTINUOUS
10
0.0966404
20
1.07531
11
0.0958661
21
1.08268
0
LINE
8
BLACK
6
CONTINUOUS
10
0.0958661
20
1.08268
11
0.0966404
21
1.09004
0
LINE
8
BLACK
6
CONTINUOUS
10
0.0966404
20
1.09004
11
0.0989295
21
1.09709
0
LINE
8
BLACK
6
CONTINUOUS
10
0.0989295
20
1.09709
11
0.102633
21
1.1035
0
LINE
8
BLACK
6
CONTINUOUS
10
0.102633
20
1.1035
11
0.10759
21
1.10901
0
LINE
8
BLACK
6
CONTINUOUS
10
0.10759
20
1.10901
11
0.113583
21
1.11336
0
LINE
8
BLACK
6
CONTINUOUS
10
0.113583
20
1.11336
11
0.12035
21
1.11638
0
LINE
8
BLACK
6
CONTINUOUS
10
0.12035
20
1.11638
11
0.127595
21
1.11792
0
LINE
8
BLACK
6
CONTINUOUS
10
0.127595
20
1.11792
11
0.135003
21
1.11792
0
LINE
8
BLACK
6
CONTINUOUS
10
0.135003
20
1.11792
11
0.142249
21
1.11638
  0
ENDSEC
  0
EOF
