  0
SECTION
  2
HEADER
  9
$ANGBASE
  50
0.0
  9
$ANGDIR
  70
1
  9
$MEASUREMENT
  70
0
  0
ENDSEC
  0
SECTION
  2
TABLES
  0
TABLE
  2
LTYPE
  70
4
  0
LTYPE
  5
40F
  2
CONTINUOUS
  70
0
  3
Solid line
  72
65
  73
0
  40
0.0
  0
LTYPE
  5
410
  2
DASHDOT
 70
0
  3
Dash Dot ____ _ ____ _
 72
65
 73
4
 40
2.0
 49
1.25
 49
-0.25
 49
0.25
 49
-0.25
  0
LTYPE
  5
411
  2
DASHED
 70
0
  3
Dashed __ __ __ __ __
 72
65
 73
2
 40
0.75
 49
0.5
 49
-0.25
  0
LTYPE
  5
43B
  2
DOTTED
 70
0
  3
Dotted .  .  .  .
 72
65
 73
2
 40
0.2
 49
0.0
 49
-0.2
  0
ENDTAB
  0
TABLE
  2
STYLE
  70
4
  0
STYLE
  2
KICAD
  70
0
  40
0
  41
1
  42
1
  50
0
  71
0
  3
isocp.shx
  0
STYLE
  2
KICADB
  70
0
  40
0
  41
1
  42
1
  50
0
  71
0
  3
isocp.shx
  0
STYLE
  2
KICADI
  70
0
  40
0
  41
1
  42
1
  50
15
  71
0
  3
isocp.shx
  0
STYLE
  2
KICADBI
  70
0
  40
0
  41
1
  42
1
  50
15
  71
0
  3
isocp.shx
  0
ENDTAB
  0
TABLE
  2
LAYER
  70
1
  0
LAYER
  2
BLACK
  70
0
  62
7
  6
CONTINUOUS
  0
ENDTAB
  0
ENDSEC
  0
SECTION
  2
ENTITIES
0
LINE
8
BLACK
6
CONTINUOUS
10
1.41411
20
0.0191859
11
1.41382
21
0.0198819
0
LINE
8
BLACK
6
CONTINUOUS
10
1.41382
20
0.0198819
11
1.41382
21
0.630118
0
LINE
8
BLACK
6
CONTINUOUS
10
1.41382
20
0.630118
11
1.41411
21
0.630814
0
LINE
8
BLACK
6
CONTINUOUS
10
1.41411
20
0.630814
11
1.4148
21
0.631102
0
LINE
8
BLACK
6
CONTINUOUS
10
1.4148
20
0.631102
11
1.77583
21
0.631102
0
LINE
8
BLACK
6
CONTINUOUS
10
1.77583
20
0.631102
11
1.77652
21
0.630814
0
LINE
8
BLACK
6
CONTINUOUS
10
1.77652
20
0.630814
11
1.77681
21
0.630118
0
LINE
8
BLACK
6
CONTINUOUS
10
1.77681
20
0.630118
11
1.77681
21
0.0198819
0
LINE
8
BLACK
6
CONTINUOUS
10
1.77681
20
0.0198819
11
1.77652
21
0.0191859
0
LINE
8
BLACK
6
CONTINUOUS
10
1.77652
20
0.0191859
11
1.77583
21
0.0188976
0
LINE
8
BLACK
6
CONTINUOUS
10
1.77583
20
0.0188976
11
1.4148
21
0.0188976
0
LINE
8
BLACK
6
CONTINUOUS
10
1.4148
20
0.0188976
11
1.41411
21
0.0191859
0
LINE
8
BLACK
6
CONTINUOUS
10
1.41579
20
0.629134
11
1.41579
21
0.0208661
0
LINE
8
BLACK
6
CONTINUOUS
10
1.41579
20
0.0208661
11
1.77484
21
0.0208661
0
LINE
8
BLACK
6
CONTINUOUS
10
1.77484
20
0.0208661
11
1.77484
21
0.629134
0
LINE
8
BLACK
6
CONTINUOUS
10
1.77484
20
0.629134
11
1.41579
21
0.629134
0
LINE
8
BLACK
6
CONTINUOUS
10
0.623084
20
0.0319024
11
0.622795
21
0.0325984
0
LINE
8
BLACK
6
CONTINUOUS
10
0.622795
20
0.0325984
11
0.622795
21
0.453858
0
LINE
8
BLACK
6
CONTINUOUS
10
0.622795
20
0.453858
11
0.623084
21
0.454554
0
LINE
8
BLACK
6
CONTINUOUS
10
0.623084
20
0.454554
11
0.62378
21
0.454843
0
LINE
8
BLACK
6
CONTINUOUS
10
0.62378
20
0.454843
11
1.09622
21
0.454843
0
LINE
8
BLACK
6
CONTINUOUS
10
1.09622
20
0.454843
11
1.09692
21
0.454554
0
LINE
8
BLACK
6
CONTINUOUS
10
1.09692
20
0.454554
11
1.0972
21
0.453858
0
LINE
8
BLACK
6
CONTINUOUS
10
1.0972
20
0.453858
11
1.0972
21
0.0325984
0
LINE
8
BLACK
6
CONTINUOUS
10
1.0972
20
0.0325984
11
1.09692
21
0.0319024
0
LINE
8
BLACK
6
CONTINUOUS
10
1.09692
20
0.0319024
11
1.09622
21
0.0316142
0
LINE
8
BLACK
6
CONTINUOUS
10
1.09622
20
0.0316142
11
0.62378
21
0.0316142
0
LINE
8
BLACK
6
CONTINUOUS
10
0.62378
20
0.0316142
11
0.623084
21
0.0319024
0
LINE
8
BLACK
6
CONTINUOUS
10
0.624764
20
0.452874
11
0.624764
21
0.0335827
0
LINE
8
BLACK
6
CONTINUOUS
10
0.624764
20
0.0335827
11
1.09524
21
0.0335827
0
LINE
8
BLACK
6
CONTINUOUS
10
1.09524
20
0.0335827
11
1.09524
21
0.452874
0
LINE
8
BLACK
6
CONTINUOUS
10
1.09524
20
0.452874
11
0.624764
21
0.452874
0
LINE
8
BLACK
6
CONTINUOUS
10
1.22021
20
0.0456229
11
1.21992
21
0.0463189
0
LINE
8
BLACK
6
CONTINUOUS
10
1.21992
20
0.0463189
11
1.21992
21
0.225846
0
LINE
8
BLACK
6
CONTINUOUS
10
1.21992
20
0.225846
11
1.22021
21
0.226542
0
LINE
8
BLACK
6
CONTINUOUS
10
1.22021
20
0.226542
11
1.22091
21
0.226831
0
LINE
8
BLACK
6
CONTINUOUS
10
1.22091
20
0.226831
11
1.30909
21
0.226831
0
LINE
8
BLACK
6
CONTINUOUS
10
1.30909
20
0.226831
11
1.30979
21
0.226542
0
LINE
8
BLACK
6
CONTINUOUS
10
1.30979
20
0.226542
11
1.31008
21
0.225846
0
LINE
8
BLACK
6
CONTINUOUS
10
1.31008
20
0.225846
11
1.31008
21
0.0463189
0
LINE
8
BLACK
6
CONTINUOUS
10
1.31008
20
0.0463189
11
1.30979
21
0.0456229
0
LINE
8
BLACK
6
CONTINUOUS
10
1.30979
20
0.0456229
11
1.30909
21
0.0453346
0
LINE
8
BLACK
6
CONTINUOUS
10
1.30909
20
0.0453346
11
1.22091
21
0.0453346
0
LINE
8
BLACK
6
CONTINUOUS
10
1.22091
20
0.0453346
11
1.22021
21
0.0456229
0
LINE
8
BLACK
6
CONTINUOUS
10
1.22189
20
0.224862
11
1.22189
21
0.0473031
0
LINE
8
BLACK
6
CONTINUOUS
10
1.22189
20
0.0473031
11
1.30811
21
0.0473031
0
LINE
8
BLACK
6
CONTINUOUS
10
1.30811
20
0.0473031
11
1.30811
21
0.224862
0
LINE
8
BLACK
6
CONTINUOUS
10
1.30811
20
0.224862
11
1.22189
21
0.224862
0
LINE
8
BLACK
6
CONTINUOUS
10
0.226745
20
0.0634379
11
0.226457
21
0.0641339
0
LINE
8
BLACK
6
CONTINUOUS
10
0.226457
20
0.0641339
11
0.226457
21
0.162559
0
LINE
8
BLACK
6
CONTINUOUS
10
0.226457
20
0.162559
11
0.226745
21
0.163255
0
LINE
8
BLACK
6
CONTINUOUS
10
0.226745
20
0.163255
11
0.227441
21
0.163543
0
LINE
8
BLACK
6
CONTINUOUS
10
0.227441
20
0.163543
11
0.282559
21
0.163543
0
LINE
8
BLACK
6
CONTINUOUS
10
0.282559
20
0.163543
11
0.283255
21
0.163255
0
LINE
8
BLACK
6
CONTINUOUS
10
0.283255
20
0.163255
11
0.283543
21
0.162559
0
LINE
8
BLACK
6
CONTINUOUS
10
0.283543
20
0.162559
11
0.283543
21
0.0641339
0
LINE
8
BLACK
6
CONTINUOUS
10
0.283543
20
0.0641339
11
0.283255
21
0.0634379
0
LINE
8
BLACK
6
CONTINUOUS
10
0.283255
20
0.0634379
11
0.282559
21
0.0631496
0
LINE
8
BLACK
6
CONTINUOUS
10
0.282559
20
0.0631496
11
0.227441
21
0.0631496
0
LINE
8
BLACK
6
CONTINUOUS
10
0.227441
20
0.0631496
11
0.226745
21
0.0634379
0
LINE
8
BLACK
6
CONTINUOUS
10
0.228425
20
0.161575
11
0.228425
21
0.0651181
0
LINE
8
BLACK
6
CONTINUOUS
10
0.228425
20
0.0651181
11
0.281575
21
0.0651181
0
LINE
8
BLACK
6
CONTINUOUS
10
0.281575
20
0.0651181
11
0.281575
21
0.161575
0
LINE
8
BLACK
6
CONTINUOUS
10
0.281575
20
0.161575
11
0.228425
21
0.161575
0
LINE
8
BLACK
6
CONTINUOUS
10
0.147194
20
0.182438
11
0.146906
21
0.183134
0
LINE
8
BLACK
6
CONTINUOUS
10
0.146906
20
0.183134
11
0.146906
21
0.324866
0
LINE
8
BLACK
6
CONTINUOUS
10
0.146906
20
0.324866
11
0.147194
21
0.325562
0
LINE
8
BLACK
6
CONTINUOUS
10
0.147194
20
0.325562
11
0.14789
21
0.32585
0
LINE
8
BLACK
6
CONTINUOUS
10
0.14789
20
0.32585
11
0.297496
21
0.32585
0
LINE
8
BLACK
6
CONTINUOUS
10
0.297496
20
0.32585
11
0.298192
21
0.325562
0
LINE
8
BLACK
6
CONTINUOUS
10
0.298192
20
0.325562
11
0.29848
21
0.324866
0
LINE
8
BLACK
6
CONTINUOUS
10
0.29848
20
0.324866
11
0.29848
21
0.183134
0
LINE
8
BLACK
6
CONTINUOUS
10
0.29848
20
0.183134
11
0.298192
21
0.182438
0
LINE
8
BLACK
6
CONTINUOUS
10
0.298192
20
0.182438
11
0.297496
21
0.18215
0
LINE
8
BLACK
6
CONTINUOUS
10
0.297496
20
0.18215
11
0.14789
21
0.18215
0
LINE
8
BLACK
6
CONTINUOUS
10
0.14789
20
0.18215
11
0.147194
21
0.182438
0
LINE
8
BLACK
6
CONTINUOUS
10
0.148874
20
0.323882
11
0.148874
21
0.184118
0
LINE
8
BLACK
6
CONTINUOUS
10
0.148874
20
0.184118
11
0.296512
21
0.184118
0
LINE
8
BLACK
6
CONTINUOUS
10
0.296512
20
0.184118
11
0.296512
21
0.323882
0
LINE
8
BLACK
6
CONTINUOUS
10
0.296512
20
0.323882
11
0.148874
21
0.323882
0
LINE
8
BLACK
6
CONTINUOUS
10
1.22021
20
0.247887
11
1.21992
21
0.248583
0
LINE
8
BLACK
6
CONTINUOUS
10
1.21992
20
0.248583
11
1.21992
21
0.42811
0
LINE
8
BLACK
6
CONTINUOUS
10
1.21992
20
0.42811
11
1.22021
21
0.428806
0
LINE
8
BLACK
6
CONTINUOUS
10
1.22021
20
0.428806
11
1.22091
21
0.429094
0
LINE
8
BLACK
6
CONTINUOUS
10
1.22091
20
0.429094
11
1.30909
21
0.429094
0
LINE
8
BLACK
6
CONTINUOUS
10
1.30909
20
0.429094
11
1.30979
21
0.428806
0
LINE
8
BLACK
6
CONTINUOUS
10
1.30979
20
0.428806
11
1.31008
21
0.42811
0
LINE
8
BLACK
6
CONTINUOUS
10
1.31008
20
0.42811
11
1.31008
21
0.248583
0
LINE
8
BLACK
6
CONTINUOUS
10
1.31008
20
0.248583
11
1.30979
21
0.247887
0
LINE
8
BLACK
6
CONTINUOUS
10
1.30979
20
0.247887
11
1.30909
21
0.247598
0
LINE
8
BLACK
6
CONTINUOUS
10
1.30909
20
0.247598
11
1.22091
21
0.247598
0
LINE
8
BLACK
6
CONTINUOUS
10
1.22091
20
0.247598
11
1.22021
21
0.247887
0
LINE
8
BLACK
6
CONTINUOUS
10
1.22189
20
0.427126
11
1.22189
21
0.249567
0
LINE
8
BLACK
6
CONTINUOUS
10
1.22189
20
0.249567
11
1.30811
21
0.249567
0
LINE
8
BLACK
6
CONTINUOUS
10
1.30811
20
0.249567
11
1.30811
21
0.427126
0
LINE
8
BLACK
6
CONTINUOUS
10
1.30811
20
0.427126
11
1.22189
21
0.427126
0
LINE
8
BLACK
6
CONTINUOUS
10
0.33521
20
0.376422
11
0.334921
21
0.377118
0
LINE
8
BLACK
6
CONTINUOUS
10
0.334921
20
0.377118
11
0.334921
21
0.556646
0
LINE
8
BLACK
6
CONTINUOUS
10
0.334921
20
0.556646
11
0.33521
21
0.557342
0
LINE
8
BLACK
6
CONTINUOUS
10
0.33521
20
0.557342
11
0.335906
21
0.55763
0
LINE
8
BLACK
6
CONTINUOUS
10
0.335906
20
0.55763
11
0.424094
21
0.55763
0
LINE
8
BLACK
6
CONTINUOUS
10
0.424094
20
0.55763
11
0.42479
21
0.557342
0
LINE
8
BLACK
6
CONTINUOUS
10
0.42479
20
0.557342
11
0.425079
21
0.556646
0
LINE
8
BLACK
6
CONTINUOUS
10
0.425079
20
0.556646
11
0.425079
21
0.377118
0
LINE
8
BLACK
6
CONTINUOUS
10
0.425079
20
0.377118
11
0.42479
21
0.376422
0
LINE
8
BLACK
6
CONTINUOUS
10
0.42479
20
0.376422
11
0.424094
21
0.376134
0
LINE
8
BLACK
6
CONTINUOUS
10
0.424094
20
0.376134
11
0.335906
21
0.376134
0
LINE
8
BLACK
6
CONTINUOUS
10
0.335906
20
0.376134
11
0.33521
21
0.376422
0
LINE
8
BLACK
6
CONTINUOUS
10
0.33689
20
0.555661
11
0.33689
21
0.378102
0
LINE
8
BLACK
6
CONTINUOUS
10
0.33689
20
0.378102
11
0.42311
21
0.378102
0
LINE
8
BLACK
6
CONTINUOUS
10
0.42311
20
0.378102
11
0.42311
21
0.555661
0
LINE
8
BLACK
6
CONTINUOUS
10
0.42311
20
0.555661
11
0.33689
21
0.555661
0
LINE
8
BLACK
6
CONTINUOUS
10
0.43521
20
0.376658
11
0.434921
21
0.377354
0
LINE
8
BLACK
6
CONTINUOUS
10
0.434921
20
0.377354
11
0.434921
21
0.556882
0
LINE
8
BLACK
6
CONTINUOUS
10
0.434921
20
0.556882
11
0.43521
21
0.557578
0
LINE
8
BLACK
6
CONTINUOUS
10
0.43521
20
0.557578
11
0.435906
21
0.557866
0
LINE
8
BLACK
6
CONTINUOUS
10
0.435906
20
0.557866
11
0.524094
21
0.557866
0
LINE
8
BLACK
6
CONTINUOUS
10
0.524094
20
0.557866
11
0.52479
21
0.557578
0
LINE
8
BLACK
6
CONTINUOUS
10
0.52479
20
0.557578
11
0.525079
21
0.556882
0
LINE
8
BLACK
6
CONTINUOUS
10
0.525079
20
0.556882
11
0.525079
21
0.377354
0
LINE
8
BLACK
6
CONTINUOUS
10
0.525079
20
0.377354
11
0.52479
21
0.376658
0
LINE
8
BLACK
6
CONTINUOUS
10
0.52479
20
0.376658
11
0.524094
21
0.37637
0
LINE
8
BLACK
6
CONTINUOUS
10
0.524094
20
0.37637
11
0.435906
21
0.37637
0
LINE
8
BLACK
6
CONTINUOUS
10
0.435906
20
0.37637
11
0.43521
21
0.376658
0
LINE
8
BLACK
6
CONTINUOUS
10
0.43689
20
0.555898
11
0.43689
21
0.378339
0
LINE
8
BLACK
6
CONTINUOUS
10
0.43689
20
0.378339
11
0.52311
21
0.378339
0
LINE
8
BLACK
6
CONTINUOUS
10
0.52311
20
0.378339
11
0.52311
21
0.555898
0
LINE
8
BLACK
6
CONTINUOUS
10
0.52311
20
0.555898
11
0.43689
21
0.555898
0
LINE
8
BLACK
6
CONTINUOUS
10
0.0352095
20
0.378422
11
0.0349213
21
0.379118
0
LINE
8
BLACK
6
CONTINUOUS
10
0.0349213
20
0.379118
11
0.0349213
21
0.558646
0
LINE
8
BLACK
6
CONTINUOUS
10
0.0349213
20
0.558646
11
0.0352095
21
0.559342
0
LINE
8
BLACK
6
CONTINUOUS
10
0.0352095
20
0.559342
11
0.0359055
21
0.55963
0
LINE
8
BLACK
6
CONTINUOUS
10
0.0359055
20
0.55963
11
0.124094
21
0.55963
0
LINE
8
BLACK
6
CONTINUOUS
10
0.124094
20
0.55963
11
0.12479
21
0.559342
0
LINE
8
BLACK
6
CONTINUOUS
10
0.12479
20
0.559342
11
0.125079
21
0.558646
0
LINE
8
BLACK
6
CONTINUOUS
10
0.125079
20
0.558646
11
0.125079
21
0.379118
0
LINE
8
BLACK
6
CONTINUOUS
10
0.125079
20
0.379118
11
0.12479
21
0.378422
0
LINE
8
BLACK
6
CONTINUOUS
10
0.12479
20
0.378422
11
0.124094
21
0.378134
0
LINE
8
BLACK
6
CONTINUOUS
10
0.124094
20
0.378134
11
0.0359055
21
0.378134
0
LINE
8
BLACK
6
CONTINUOUS
10
0.0359055
20
0.378134
11
0.0352095
21
0.378422
0
LINE
8
BLACK
6
CONTINUOUS
10
0.0368898
20
0.557661
11
0.0368898
21
0.380102
0
LINE
8
BLACK
6
CONTINUOUS
10
0.0368898
20
0.380102
11
0.12311
21
0.380102
0
LINE
8
BLACK
6
CONTINUOUS
10
0.12311
20
0.380102
11
0.12311
21
0.557661
0
LINE
8
BLACK
6
CONTINUOUS
10
0.12311
20
0.557661
11
0.0368898
21
0.557661
0
LINE
8
BLACK
6
CONTINUOUS
10
0.13521
20
0.378422
11
0.134921
21
0.379118
0
LINE
8
BLACK
6
CONTINUOUS
10
0.134921
20
0.379118
11
0.134921
21
0.558646
0
LINE
8
BLACK
6
CONTINUOUS
10
0.134921
20
0.558646
11
0.13521
21
0.559342
0
LINE
8
BLACK
6
CONTINUOUS
10
0.13521
20
0.559342
11
0.135906
21
0.55963
0
LINE
8
BLACK
6
CONTINUOUS
10
0.135906
20
0.55963
11
0.224094
21
0.55963
0
LINE
8
BLACK
6
CONTINUOUS
10
0.224094
20
0.55963
11
0.22479
21
0.559342
0
LINE
8
BLACK
6
CONTINUOUS
10
0.22479
20
0.559342
11
0.225079
21
0.558646
0
LINE
8
BLACK
6
CONTINUOUS
10
0.225079
20
0.558646
11
0.225079
21
0.379118
0
LINE
8
BLACK
6
CONTINUOUS
10
0.225079
20
0.379118
11
0.22479
21
0.378422
0
LINE
8
BLACK
6
CONTINUOUS
10
0.22479
20
0.378422
11
0.224094
21
0.378134
0
LINE
8
BLACK
6
CONTINUOUS
10
0.224094
20
0.378134
11
0.135906
21
0.378134
0
LINE
8
BLACK
6
CONTINUOUS
10
0.135906
20
0.378134
11
0.13521
21
0.378422
0
LINE
8
BLACK
6
CONTINUOUS
10
0.13689
20
0.557661
11
0.13689
21
0.380102
0
LINE
8
BLACK
6
CONTINUOUS
10
0.13689
20
0.380102
11
0.22311
21
0.380102
0
LINE
8
BLACK
6
CONTINUOUS
10
0.22311
20
0.380102
11
0.22311
21
0.557661
0
LINE
8
BLACK
6
CONTINUOUS
10
0.22311
20
0.557661
11
0.13689
21
0.557661
0
LINE
8
BLACK
6
CONTINUOUS
10
0.23521
20
0.378422
11
0.234921
21
0.379118
0
LINE
8
BLACK
6
CONTINUOUS
10
0.234921
20
0.379118
11
0.234921
21
0.558646
0
LINE
8
BLACK
6
CONTINUOUS
10
0.234921
20
0.558646
11
0.23521
21
0.559342
0
LINE
8
BLACK
6
CONTINUOUS
10
0.23521
20
0.559342
11
0.235906
21
0.55963
0
LINE
8
BLACK
6
CONTINUOUS
10
0.235906
20
0.55963
11
0.324094
21
0.55963
0
LINE
8
BLACK
6
CONTINUOUS
10
0.324094
20
0.55963
11
0.32479
21
0.559342
0
LINE
8
BLACK
6
CONTINUOUS
10
0.32479
20
0.559342
11
0.325079
21
0.558646
0
LINE
8
BLACK
6
CONTINUOUS
10
0.325079
20
0.558646
11
0.325079
21
0.379118
0
LINE
8
BLACK
6
CONTINUOUS
10
0.325079
20
0.379118
11
0.32479
21
0.378422
0
LINE
8
BLACK
6
CONTINUOUS
10
0.32479
20
0.378422
11
0.324094
21
0.378134
0
LINE
8
BLACK
6
CONTINUOUS
10
0.324094
20
0.378134
11
0.235906
21
0.378134
0
LINE
8
BLACK
6
CONTINUOUS
10
0.235906
20
0.378134
11
0.23521
21
0.378422
0
LINE
8
BLACK
6
CONTINUOUS
10
0.23689
20
0.557661
11
0.23689
21
0.380102
0
LINE
8
BLACK
6
CONTINUOUS
10
0.23689
20
0.380102
11
0.32311
21
0.380102
0
LINE
8
BLACK
6
CONTINUOUS
10
0.32311
20
0.380102
11
0.32311
21
0.557661
0
LINE
8
BLACK
6
CONTINUOUS
10
0.32311
20
0.557661
11
0.23689
21
0.557661
0
LINE
8
BLACK
6
CONTINUOUS
10
1.32674
20
0.462532
11
1.32646
21
0.463228
0
LINE
8
BLACK
6
CONTINUOUS
10
1.32646
20
0.463228
11
1.32646
21
0.561654
0
LINE
8
BLACK
6
CONTINUOUS
10
1.32646
20
0.561654
11
1.32674
21
0.56235
0
LINE
8
BLACK
6
CONTINUOUS
10
1.32674
20
0.56235
11
1.32744
21
0.562638
0
LINE
8
BLACK
6
CONTINUOUS
10
1.32744
20
0.562638
11
1.38256
21
0.562638
0
LINE
8
BLACK
6
CONTINUOUS
10
1.38256
20
0.562638
11
1.38326
21
0.56235
0
LINE
8
BLACK
6
CONTINUOUS
10
1.38326
20
0.56235
11
1.38354
21
0.561654
0
LINE
8
BLACK
6
CONTINUOUS
10
1.38354
20
0.561654
11
1.38354
21
0.463228
0
LINE
8
BLACK
6
CONTINUOUS
10
1.38354
20
0.463228
11
1.38326
21
0.462532
0
LINE
8
BLACK
6
CONTINUOUS
10
1.38326
20
0.462532
11
1.38256
21
0.462244
0
LINE
8
BLACK
6
CONTINUOUS
10
1.38256
20
0.462244
11
1.32744
21
0.462244
0
LINE
8
BLACK
6
CONTINUOUS
10
1.32744
20
0.462244
11
1.32674
21
0.462532
0
LINE
8
BLACK
6
CONTINUOUS
10
1.32843
20
0.560669
11
1.32843
21
0.464213
0
LINE
8
BLACK
6
CONTINUOUS
10
1.32843
20
0.464213
11
1.38157
21
0.464213
0
LINE
8
BLACK
6
CONTINUOUS
10
1.38157
20
0.464213
11
1.38157
21
0.560669
0
LINE
8
BLACK
6
CONTINUOUS
10
1.38157
20
0.560669
11
1.32843
21
0.560669
0
LINE
8
BLACK
6
CONTINUOUS
10
0.93954
20
0.468044
11
0.939252
21
0.46874
0
LINE
8
BLACK
6
CONTINUOUS
10
0.939252
20
0.46874
11
0.939252
21
0.768346
0
LINE
8
BLACK
6
CONTINUOUS
10
0.939252
20
0.768346
11
0.93954
21
0.769042
0
LINE
8
BLACK
6
CONTINUOUS
10
0.93954
20
0.769042
11
0.940236
21
0.769331
0
LINE
8
BLACK
6
CONTINUOUS
10
0.940236
20
0.769331
11
1.11976
21
0.769331
0
LINE
8
BLACK
6
CONTINUOUS
10
1.11976
20
0.769331
11
1.12046
21
0.769042
0
LINE
8
BLACK
6
CONTINUOUS
10
1.12046
20
0.769042
11
1.12075
21
0.768346
0
LINE
8
BLACK
6
CONTINUOUS
10
1.12075
20
0.768346
11
1.12075
21
0.46874
0
LINE
8
BLACK
6
CONTINUOUS
10
1.12075
20
0.46874
11
1.12046
21
0.468044
0
LINE
8
BLACK
6
CONTINUOUS
10
1.12046
20
0.468044
11
1.11976
21
0.467756
0
LINE
8
BLACK
6
CONTINUOUS
10
1.11976
20
0.467756
11
0.940236
21
0.467756
0
LINE
8
BLACK
6
CONTINUOUS
10
0.940236
20
0.467756
11
0.93954
21
0.468044
0
LINE
8
BLACK
6
CONTINUOUS
10
0.94122
20
0.767362
11
0.94122
21
0.469724
0
LINE
8
BLACK
6
CONTINUOUS
10
0.94122
20
0.469724
11
1.11878
21
0.469724
0
LINE
8
BLACK
6
CONTINUOUS
10
1.11878
20
0.469724
11
1.11878
21
0.767362
0
LINE
8
BLACK
6
CONTINUOUS
10
1.11878
20
0.767362
11
0.94122
21
0.767362
0
LINE
8
BLACK
6
CONTINUOUS
10
0.546194
20
0.478005
11
0.545906
21
0.478701
0
LINE
8
BLACK
6
CONTINUOUS
10
0.545906
20
0.478701
11
0.545906
21
0.691299
0
LINE
8
BLACK
6
CONTINUOUS
10
0.545906
20
0.691299
11
0.546194
21
0.691995
0
LINE
8
BLACK
6
CONTINUOUS
10
0.546194
20
0.691995
11
0.54689
21
0.692283
0
LINE
8
BLACK
6
CONTINUOUS
10
0.54689
20
0.692283
11
0.838228
21
0.692283
0
LINE
8
BLACK
6
CONTINUOUS
10
0.838228
20
0.692283
11
0.838924
21
0.691995
0
LINE
8
BLACK
6
CONTINUOUS
10
0.838924
20
0.691995
11
0.839213
21
0.691299
0
LINE
8
BLACK
6
CONTINUOUS
10
0.839213
20
0.691299
11
0.839213
21
0.478701
0
LINE
8
BLACK
6
CONTINUOUS
10
0.839213
20
0.478701
11
0.838924
21
0.478005
0
LINE
8
BLACK
6
CONTINUOUS
10
0.838924
20
0.478005
11
0.838228
21
0.477717
0
LINE
8
BLACK
6
CONTINUOUS
10
0.838228
20
0.477717
11
0.54689
21
0.477717
0
LINE
8
BLACK
6
CONTINUOUS
10
0.54689
20
0.477717
11
0.546194
21
0.478005
0
LINE
8
BLACK
6
CONTINUOUS
10
0.547874
20
0.690315
11
0.547874
21
0.479685
0
LINE
8
BLACK
6
CONTINUOUS
10
0.547874
20
0.479685
11
0.837244
21
0.479685
0
LINE
8
BLACK
6
CONTINUOUS
10
0.837244
20
0.479685
11
0.837244
21
0.690315
0
LINE
8
BLACK
6
CONTINUOUS
10
0.837244
20
0.690315
11
0.547874
21
0.690315
0
LINE
8
BLACK
6
CONTINUOUS
10
0.28921
20
0.58154
11
0.288921
21
0.582236
0
LINE
8
BLACK
6
CONTINUOUS
10
0.288921
20
0.582236
11
0.288921
21
0.761764
0
LINE
8
BLACK
6
CONTINUOUS
10
0.288921
20
0.761764
11
0.28921
21
0.76246
0
LINE
8
BLACK
6
CONTINUOUS
10
0.28921
20
0.76246
11
0.289906
21
0.762748
0
LINE
8
BLACK
6
CONTINUOUS
10
0.289906
20
0.762748
11
0.378094
21
0.762748
0
LINE
8
BLACK
6
CONTINUOUS
10
0.378094
20
0.762748
11
0.37879
21
0.76246
0
LINE
8
BLACK
6
CONTINUOUS
10
0.37879
20
0.76246
11
0.379079
21
0.761764
0
LINE
8
BLACK
6
CONTINUOUS
10
0.379079
20
0.761764
11
0.379079
21
0.582236
0
LINE
8
BLACK
6
CONTINUOUS
10
0.379079
20
0.582236
11
0.37879
21
0.58154
0
LINE
8
BLACK
6
CONTINUOUS
10
0.37879
20
0.58154
11
0.378094
21
0.581252
0
LINE
8
BLACK
6
CONTINUOUS
10
0.378094
20
0.581252
11
0.289906
21
0.581252
0
LINE
8
BLACK
6
CONTINUOUS
10
0.289906
20
0.581252
11
0.28921
21
0.58154
0
LINE
8
BLACK
6
CONTINUOUS
10
0.29089
20
0.76078
11
0.29089
21
0.58322
0
LINE
8
BLACK
6
CONTINUOUS
10
0.29089
20
0.58322
11
0.37711
21
0.58322
0
LINE
8
BLACK
6
CONTINUOUS
10
0.37711
20
0.58322
11
0.37711
21
0.76078
0
LINE
8
BLACK
6
CONTINUOUS
10
0.37711
20
0.76078
11
0.29089
21
0.76078
0
LINE
8
BLACK
6
CONTINUOUS
10
0.18921
20
0.58154
11
0.188921
21
0.582236
0
LINE
8
BLACK
6
CONTINUOUS
10
0.188921
20
0.582236
11
0.188921
21
0.761764
0
LINE
8
BLACK
6
CONTINUOUS
10
0.188921
20
0.761764
11
0.18921
21
0.76246
0
LINE
8
BLACK
6
CONTINUOUS
10
0.18921
20
0.76246
11
0.189906
21
0.762748
0
LINE
8
BLACK
6
CONTINUOUS
10
0.189906
20
0.762748
11
0.278094
21
0.762748
0
LINE
8
BLACK
6
CONTINUOUS
10
0.278094
20
0.762748
11
0.27879
21
0.76246
0
LINE
8
BLACK
6
CONTINUOUS
10
0.27879
20
0.76246
11
0.279079
21
0.761764
0
LINE
8
BLACK
6
CONTINUOUS
10
0.279079
20
0.761764
11
0.279079
21
0.582236
0
LINE
8
BLACK
6
CONTINUOUS
10
0.279079
20
0.582236
11
0.27879
21
0.58154
0
LINE
8
BLACK
6
CONTINUOUS
10
0.27879
20
0.58154
11
0.278094
21
0.581252
0
LINE
8
BLACK
6
CONTINUOUS
10
0.278094
20
0.581252
11
0.189906
21
0.581252
0
LINE
8
BLACK
6
CONTINUOUS
10
0.189906
20
0.581252
11
0.18921
21
0.58154
0
LINE
8
BLACK
6
CONTINUOUS
10
0.19089
20
0.76078
11
0.19089
21
0.58322
0
LINE
8
BLACK
6
CONTINUOUS
10
0.19089
20
0.58322
11
0.27711
21
0.58322
0
LINE
8
BLACK
6
CONTINUOUS
10
0.27711
20
0.58322
11
0.27711
21
0.76078
0
LINE
8
BLACK
6
CONTINUOUS
10
0.27711
20
0.76078
11
0.19089
21
0.76078
0
LINE
8
BLACK
6
CONTINUOUS
10
1.53332
20
0.673871
11
1.53303
21
0.674567
0
LINE
8
BLACK
6
CONTINUOUS
10
1.53303
20
0.674567
11
1.53303
21
1.14543
0
LINE
8
BLACK
6
CONTINUOUS
10
1.53303
20
1.14543
11
1.53332
21
1.14613
0
LINE
8
BLACK
6
CONTINUOUS
10
1.53332
20
1.14613
11
1.53402
21
1.14642
0
LINE
8
BLACK
6
CONTINUOUS
10
1.53402
20
1.14642
11
1.78598
21
1.14642
0
LINE
8
BLACK
6
CONTINUOUS
10
1.78598
20
1.14642
11
1.78668
21
1.14613
0
LINE
8
BLACK
6
CONTINUOUS
10
1.78668
20
1.14613
11
1.78697
21
1.14543
0
LINE
8
BLACK
6
CONTINUOUS
10
1.78697
20
1.14543
11
1.78697
21
0.674567
0
LINE
8
BLACK
6
CONTINUOUS
10
1.78697
20
0.674567
11
1.78668
21
0.673871
0
LINE
8
BLACK
6
CONTINUOUS
10
1.78668
20
0.673871
11
1.78598
21
0.673583
0
LINE
8
BLACK
6
CONTINUOUS
10
1.78598
20
0.673583
11
1.53402
21
0.673583
0
LINE
8
BLACK
6
CONTINUOUS
10
1.53402
20
0.673583
11
1.53332
21
0.673871
0
LINE
8
BLACK
6
CONTINUOUS
10
1.535
20
1.14445
11
1.535
21
0.675551
0
LINE
8
BLACK
6
CONTINUOUS
10
1.535
20
0.675551
11
1.785
21
0.675551
0
LINE
8
BLACK
6
CONTINUOUS
10
1.785
20
0.675551
11
1.785
21
1.14445
0
LINE
8
BLACK
6
CONTINUOUS
10
1.785
20
1.14445
11
1.535
21
1.14445
0
LINE
8
BLACK
6
CONTINUOUS
10
0.256422
20
0.76921
11
0.256134
21
0.769906
0
LINE
8
BLACK
6
CONTINUOUS
10
0.256134
20
0.769906
11
0.256134
21
0.858094
0
LINE
8
BLACK
6
CONTINUOUS
10
0.256134
20
0.858094
11
0.256422
21
0.85879
0
LINE
8
BLACK
6
CONTINUOUS
10
0.256422
20
0.85879
11
0.257118
21
0.859079
0
LINE
8
BLACK
6
CONTINUOUS
10
0.257118
20
0.859079
11
0.436646
21
0.859079
0
LINE
8
BLACK
6
CONTINUOUS
10
0.436646
20
0.859079
11
0.437342
21
0.85879
0
LINE
8
BLACK
6
CONTINUOUS
10
0.437342
20
0.85879
11
0.43763
21
0.858094
0
LINE
8
BLACK
6
CONTINUOUS
10
0.43763
20
0.858094
11
0.43763
21
0.769906
0
LINE
8
BLACK
6
CONTINUOUS
10
0.43763
20
0.769906
11
0.437342
21
0.76921
0
LINE
8
BLACK
6
CONTINUOUS
10
0.437342
20
0.76921
11
0.436646
21
0.768921
0
LINE
8
BLACK
6
CONTINUOUS
10
0.436646
20
0.768921
11
0.257118
21
0.768921
0
LINE
8
BLACK
6
CONTINUOUS
10
0.257118
20
0.768921
11
0.256422
21
0.76921
0
LINE
8
BLACK
6
CONTINUOUS
10
0.258102
20
0.85711
11
0.258102
21
0.77089
0
LINE
8
BLACK
6
CONTINUOUS
10
0.258102
20
0.77089
11
0.435661
21
0.77089
0
LINE
8
BLACK
6
CONTINUOUS
10
0.435661
20
0.77089
11
0.435661
21
0.85711
0
LINE
8
BLACK
6
CONTINUOUS
10
0.435661
20
0.85711
11
0.258102
21
0.85711
0
LINE
8
BLACK
6
CONTINUOUS
10
0.636509
20
0.864855
11
0.63622
21
0.865551
0
LINE
8
BLACK
6
CONTINUOUS
10
0.63622
20
0.865551
11
0.63622
21
1.14114
0
LINE
8
BLACK
6
CONTINUOUS
10
0.63622
20
1.14114
11
0.636509
21
1.14184
0
LINE
8
BLACK
6
CONTINUOUS
10
0.636509
20
1.14184
11
0.637205
21
1.14213
0
LINE
8
BLACK
6
CONTINUOUS
10
0.637205
20
1.14213
11
0.912795
21
1.14213
0
LINE
8
BLACK
6
CONTINUOUS
10
0.912795
20
1.14213
11
0.913491
21
1.14184
0
LINE
8
BLACK
6
CONTINUOUS
10
0.913491
20
1.14184
11
0.91378
21
1.14114
0
LINE
8
BLACK
6
CONTINUOUS
10
0.91378
20
1.14114
11
0.91378
21
0.865551
0
LINE
8
BLACK
6
CONTINUOUS
10
0.91378
20
0.865551
11
0.913491
21
0.864855
0
LINE
8
BLACK
6
CONTINUOUS
10
0.913491
20
0.864855
11
0.912795
21
0.864567
0
LINE
8
BLACK
6
CONTINUOUS
10
0.912795
20
0.864567
11
0.637205
21
0.864567
0
LINE
8
BLACK
6
CONTINUOUS
10
0.637205
20
0.864567
11
0.636509
21
0.864855
0
LINE
8
BLACK
6
CONTINUOUS
10
0.638189
20
1.14016
11
0.638189
21
0.866535
0
LINE
8
BLACK
6
CONTINUOUS
10
0.638189
20
0.866535
11
0.911811
21
0.866535
0
LINE
8
BLACK
6
CONTINUOUS
10
0.911811
20
0.866535
11
0.911811
21
1.14016
0
LINE
8
BLACK
6
CONTINUOUS
10
0.911811
20
1.14016
11
0.638189
21
1.14016
  0
ENDSEC
  0
EOF
