  0
SECTION
  2
HEADER
  9
$ANGBASE
  50
0.0
  9
$ANGDIR
  70
1
  9
$MEASUREMENT
  70
0
  0
ENDSEC
  0
SECTION
  2
TABLES
  0
TABLE
  2
LTYPE
  70
4
  0
LTYPE
  5
40F
  2
CONTINUOUS
  70
0
  3
Solid line
  72
65
  73
0
  40
0.0
  0
LTYPE
  5
410
  2
DASHDOT
 70
0
  3
Dash Dot ____ _ ____ _
 72
65
 73
4
 40
2.0
 49
1.25
 49
-0.25
 49
0.25
 49
-0.25
  0
LTYPE
  5
411
  2
DASHED
 70
0
  3
Dashed __ __ __ __ __
 72
65
 73
2
 40
0.75
 49
0.5
 49
-0.25
  0
LTYPE
  5
43B
  2
DOTTED
 70
0
  3
Dotted .  .  .  .
 72
65
 73
2
 40
0.2
 49
0.0
 49
-0.2
  0
ENDTAB
  0
TABLE
  2
STYLE
  70
4
  0
STYLE
  2
KICAD
  70
0
  40
0
  41
1
  42
1
  50
0
  71
0
  3
isocp.shx
  0
STYLE
  2
KICADB
  70
0
  40
0
  41
1
  42
1
  50
0
  71
0
  3
isocp.shx
  0
STYLE
  2
KICADI
  70
0
  40
0
  41
1
  42
1
  50
15
  71
0
  3
isocp.shx
  0
STYLE
  2
KICADBI
  70
0
  40
0
  41
1
  42
1
  50
15
  71
0
  3
isocp.shx
  0
ENDTAB
  0
TABLE
  2
LAYER
  70
1
  0
LAYER
  2
BLACK
  70
0
  62
7
  6
CONTINUOUS
  0
ENDTAB
  0
ENDSEC
  0
SECTION
  2
ENTITIES
0
LINE
8
BLACK
6
CONTINUOUS
10
0.653605
20
0.0368336
11
0.652913
21
0.0385039
0
LINE
8
BLACK
6
CONTINUOUS
10
0.652913
20
0.0385039
11
0.652913
21
0.14874
0
LINE
8
BLACK
6
CONTINUOUS
10
0.652913
20
0.14874
11
0.653605
21
0.15041
0
LINE
8
BLACK
6
CONTINUOUS
10
0.653605
20
0.15041
11
0.655276
21
0.151102
0
LINE
8
BLACK
6
CONTINUOUS
10
0.655276
20
0.151102
11
0.656946
21
0.15041
0
LINE
8
BLACK
6
CONTINUOUS
10
0.656946
20
0.15041
11
0.657638
21
0.14874
0
LINE
8
BLACK
6
CONTINUOUS
10
0.657638
20
0.14874
11
0.657638
21
0.0408661
0
LINE
8
BLACK
6
CONTINUOUS
10
0.657638
20
0.0408661
11
1.06236
21
0.0408661
0
LINE
8
BLACK
6
CONTINUOUS
10
1.06236
20
0.0408661
11
1.06236
21
0.14874
0
LINE
8
BLACK
6
CONTINUOUS
10
1.06236
20
0.14874
11
1.06305
21
0.15041
0
LINE
8
BLACK
6
CONTINUOUS
10
1.06305
20
0.15041
11
1.06472
21
0.151102
0
LINE
8
BLACK
6
CONTINUOUS
10
1.06472
20
0.151102
11
1.06639
21
0.15041
0
LINE
8
BLACK
6
CONTINUOUS
10
1.06639
20
0.15041
11
1.06709
21
0.14874
0
LINE
8
BLACK
6
CONTINUOUS
10
1.06709
20
0.14874
11
1.06709
21
0.0385039
0
LINE
8
BLACK
6
CONTINUOUS
10
1.06709
20
0.0385039
11
1.06639
21
0.0368336
0
LINE
8
BLACK
6
CONTINUOUS
10
1.06639
20
0.0368336
11
1.06472
21
0.0361417
0
LINE
8
BLACK
6
CONTINUOUS
10
1.06472
20
0.0361417
11
0.655276
21
0.0361417
0
LINE
8
BLACK
6
CONTINUOUS
10
0.655276
20
0.0361417
11
0.653605
21
0.0368336
0
LINE
8
BLACK
6
CONTINUOUS
10
1.19101
20
0.0464755
11
1.19256
21
0.0451772
0
LINE
8
BLACK
6
CONTINUOUS
10
1.19256
20
0.0451772
11
1.19291
21
0.043188
0
LINE
8
BLACK
6
CONTINUOUS
10
1.19291
20
0.043188
11
1.1919
21
0.0414389
0
LINE
8
BLACK
6
CONTINUOUS
10
1.1919
20
0.0414389
11
1.19
21
0.040748
0
LINE
8
BLACK
6
CONTINUOUS
10
1.19
20
0.040748
11
1.13
21
0.040748
0
LINE
8
BLACK
6
CONTINUOUS
10
1.13
20
0.040748
11
1.12899
21
0.0409261
0
LINE
8
BLACK
6
CONTINUOUS
10
1.12899
20
0.0409261
11
1.12744
21
0.0422244
0
LINE
8
BLACK
6
CONTINUOUS
10
1.12744
20
0.0422244
11
1.12709
21
0.0442135
0
LINE
8
BLACK
6
CONTINUOUS
10
1.12709
20
0.0442135
11
1.1281
21
0.0459627
0
LINE
8
BLACK
6
CONTINUOUS
10
1.1281
20
0.0459627
11
1.13
21
0.0466535
0
LINE
8
BLACK
6
CONTINUOUS
10
1.13
20
0.0466535
11
1.19
21
0.0466535
0
LINE
8
BLACK
6
CONTINUOUS
10
1.19
20
0.0466535
11
1.19101
21
0.0464755
0
LINE
8
BLACK
6
CONTINUOUS
10
0.56601
20
0.0586211
11
0.567557
21
0.0573228
0
LINE
8
BLACK
6
CONTINUOUS
10
0.567557
20
0.0573228
11
0.567908
21
0.0553337
0
LINE
8
BLACK
6
CONTINUOUS
10
0.567908
20
0.0553337
11
0.566898
21
0.0535845
0
LINE
8
BLACK
6
CONTINUOUS
10
0.566898
20
0.0535845
11
0.565
21
0.0528937
0
LINE
8
BLACK
6
CONTINUOUS
10
0.565
20
0.0528937
11
0.505
21
0.0528937
0
LINE
8
BLACK
6
CONTINUOUS
10
0.505
20
0.0528937
11
0.50399
21
0.0530718
0
LINE
8
BLACK
6
CONTINUOUS
10
0.50399
20
0.0530718
11
0.502443
21
0.0543701
0
LINE
8
BLACK
6
CONTINUOUS
10
0.502443
20
0.0543701
11
0.502092
21
0.0563592
0
LINE
8
BLACK
6
CONTINUOUS
10
0.502092
20
0.0563592
11
0.503102
21
0.0581084
0
LINE
8
BLACK
6
CONTINUOUS
10
0.503102
20
0.0581084
11
0.505
21
0.0587992
0
LINE
8
BLACK
6
CONTINUOUS
10
0.505
20
0.0587992
11
0.565
21
0.0587992
0
LINE
8
BLACK
6
CONTINUOUS
10
0.565
20
0.0587992
11
0.56601
21
0.0586211
0
LINE
8
BLACK
6
CONTINUOUS
10
0.37601
20
0.0586211
11
0.377557
21
0.0573228
0
LINE
8
BLACK
6
CONTINUOUS
10
0.377557
20
0.0573228
11
0.377908
21
0.0553337
0
LINE
8
BLACK
6
CONTINUOUS
10
0.377908
20
0.0553337
11
0.376898
21
0.0535845
0
LINE
8
BLACK
6
CONTINUOUS
10
0.376898
20
0.0535845
11
0.375
21
0.0528937
0
LINE
8
BLACK
6
CONTINUOUS
10
0.375
20
0.0528937
11
0.315
21
0.0528937
0
LINE
8
BLACK
6
CONTINUOUS
10
0.315
20
0.0528937
11
0.31399
21
0.0530718
0
LINE
8
BLACK
6
CONTINUOUS
10
0.31399
20
0.0530718
11
0.312443
21
0.0543701
0
LINE
8
BLACK
6
CONTINUOUS
10
0.312443
20
0.0543701
11
0.312092
21
0.0563592
0
LINE
8
BLACK
6
CONTINUOUS
10
0.312092
20
0.0563592
11
0.313102
21
0.0581084
0
LINE
8
BLACK
6
CONTINUOUS
10
0.313102
20
0.0581084
11
0.315
21
0.0587992
0
LINE
8
BLACK
6
CONTINUOUS
10
0.315
20
0.0587992
11
0.375
21
0.0587992
0
LINE
8
BLACK
6
CONTINUOUS
10
0.375
20
0.0587992
11
0.37601
21
0.0586211
0
LINE
8
BLACK
6
CONTINUOUS
10
0.46601
20
0.0586211
11
0.467557
21
0.0573228
0
LINE
8
BLACK
6
CONTINUOUS
10
0.467557
20
0.0573228
11
0.467908
21
0.0553337
0
LINE
8
BLACK
6
CONTINUOUS
10
0.467908
20
0.0553337
11
0.466898
21
0.0535845
0
LINE
8
BLACK
6
CONTINUOUS
10
0.466898
20
0.0535845
11
0.465
21
0.0528937
0
LINE
8
BLACK
6
CONTINUOUS
10
0.465
20
0.0528937
11
0.405
21
0.0528937
0
LINE
8
BLACK
6
CONTINUOUS
10
0.405
20
0.0528937
11
0.40399
21
0.0530718
0
LINE
8
BLACK
6
CONTINUOUS
10
0.40399
20
0.0530718
11
0.402443
21
0.0543701
0
LINE
8
BLACK
6
CONTINUOUS
10
0.402443
20
0.0543701
11
0.402092
21
0.0563592
0
LINE
8
BLACK
6
CONTINUOUS
10
0.402092
20
0.0563592
11
0.403102
21
0.0581084
0
LINE
8
BLACK
6
CONTINUOUS
10
0.403102
20
0.0581084
11
0.405
21
0.0587992
0
LINE
8
BLACK
6
CONTINUOUS
10
0.405
20
0.0587992
11
0.465
21
0.0587992
0
LINE
8
BLACK
6
CONTINUOUS
10
0.465
20
0.0587992
11
0.46601
21
0.0586211
0
LINE
8
BLACK
6
CONTINUOUS
10
1.50348
20
0.153048
11
1.50417
21
0.151378
0
LINE
8
BLACK
6
CONTINUOUS
10
1.50417
20
0.151378
11
1.50417
21
0.0612205
0
LINE
8
BLACK
6
CONTINUOUS
10
1.50417
20
0.0612205
11
1.60535
21
0.0612205
0
LINE
8
BLACK
6
CONTINUOUS
10
1.60535
20
0.0612205
11
1.60702
21
0.0605286
0
LINE
8
BLACK
6
CONTINUOUS
10
1.60702
20
0.0605286
11
1.60772
21
0.0588583
0
LINE
8
BLACK
6
CONTINUOUS
10
1.60772
20
0.0588583
11
1.60702
21
0.057188
0
LINE
8
BLACK
6
CONTINUOUS
10
1.60702
20
0.057188
11
1.60535
21
0.0564961
0
LINE
8
BLACK
6
CONTINUOUS
10
1.60535
20
0.0564961
11
1.50181
21
0.0564961
0
LINE
8
BLACK
6
CONTINUOUS
10
1.50181
20
0.0564961
11
1.50014
21
0.057188
0
LINE
8
BLACK
6
CONTINUOUS
10
1.50014
20
0.057188
11
1.49945
21
0.0588583
0
LINE
8
BLACK
6
CONTINUOUS
10
1.49945
20
0.0588583
11
1.49945
21
0.149016
0
LINE
8
BLACK
6
CONTINUOUS
10
1.49945
20
0.149016
11
1.43449
21
0.149016
0
LINE
8
BLACK
6
CONTINUOUS
10
1.43449
20
0.149016
11
1.43282
21
0.149708
0
LINE
8
BLACK
6
CONTINUOUS
10
1.43282
20
0.149708
11
1.43213
21
0.151378
0
LINE
8
BLACK
6
CONTINUOUS
10
1.43213
20
0.151378
11
1.43282
21
0.153048
0
LINE
8
BLACK
6
CONTINUOUS
10
1.43282
20
0.153048
11
1.43449
21
0.15374
0
LINE
8
BLACK
6
CONTINUOUS
10
1.43449
20
0.15374
11
1.50181
21
0.15374
0
LINE
8
BLACK
6
CONTINUOUS
10
1.50181
20
0.15374
11
1.50348
21
0.153048
0
LINE
8
BLACK
6
CONTINUOUS
10
1.76214
20
0.588481
11
1.76283
21
0.586811
0
LINE
8
BLACK
6
CONTINUOUS
10
1.76283
20
0.586811
11
1.76283
21
0.063189
0
LINE
8
BLACK
6
CONTINUOUS
10
1.76283
20
0.063189
11
1.76214
21
0.0615187
0
LINE
8
BLACK
6
CONTINUOUS
10
1.76214
20
0.0615187
11
1.76047
21
0.0608268
0
LINE
8
BLACK
6
CONTINUOUS
10
1.76047
20
0.0608268
11
1.7588
21
0.0615187
0
LINE
8
BLACK
6
CONTINUOUS
10
1.7588
20
0.0615187
11
1.75811
21
0.063189
0
LINE
8
BLACK
6
CONTINUOUS
10
1.75811
20
0.063189
11
1.75811
21
0.586811
0
LINE
8
BLACK
6
CONTINUOUS
10
1.75811
20
0.586811
11
1.7588
21
0.588481
0
LINE
8
BLACK
6
CONTINUOUS
10
1.7588
20
0.588481
11
1.76047
21
0.589173
0
LINE
8
BLACK
6
CONTINUOUS
10
1.76047
20
0.589173
11
1.76214
21
0.588481
0
LINE
8
BLACK
6
CONTINUOUS
10
0.222259
20
0.109625
11
0.222393
21
0.109637
0
LINE
8
BLACK
6
CONTINUOUS
10
0.222393
20
0.109637
11
0.223121
21
0.109127
0
LINE
8
BLACK
6
CONTINUOUS
10
0.223121
20
0.109127
11
0.223891
21
0.108683
0
LINE
8
BLACK
6
CONTINUOUS
10
0.223891
20
0.108683
11
0.223937
21
0.108556
0
LINE
8
BLACK
6
CONTINUOUS
10
0.223937
20
0.108556
11
0.224048
21
0.108478
0
LINE
8
BLACK
6
CONTINUOUS
10
0.224048
20
0.108478
11
0.224278
21
0.10762
0
LINE
8
BLACK
6
CONTINUOUS
10
0.224278
20
0.10762
11
0.224582
21
0.106785
0
LINE
8
BLACK
6
CONTINUOUS
10
0.224582
20
0.106785
11
0.224582
21
0.0824128
0
LINE
8
BLACK
6
CONTINUOUS
10
0.224582
20
0.0824128
11
0.224404
21
0.0814029
0
LINE
8
BLACK
6
CONTINUOUS
10
0.224404
20
0.0814029
11
0.223106
21
0.0798556
0
LINE
8
BLACK
6
CONTINUOUS
10
0.223106
20
0.0798556
11
0.221116
21
0.0795049
0
LINE
8
BLACK
6
CONTINUOUS
10
0.221116
20
0.0795049
11
0.219367
21
0.0805148
0
LINE
8
BLACK
6
CONTINUOUS
10
0.219367
20
0.0805148
11
0.218676
21
0.0824128
0
LINE
8
BLACK
6
CONTINUOUS
10
0.218676
20
0.0824128
11
0.218676
21
0.0996562
0
LINE
8
BLACK
6
CONTINUOUS
10
0.218676
20
0.0996562
11
0.20122
21
0.0821996
0
LINE
8
BLACK
6
CONTINUOUS
10
0.20122
20
0.0821996
11
0.20038
21
0.0816115
0
LINE
8
BLACK
6
CONTINUOUS
10
0.20038
20
0.0816115
11
0.200204
21
0.0815961
0
LINE
8
BLACK
6
CONTINUOUS
10
0.200204
20
0.0815961
11
0.200066
21
0.0814863
0
LINE
8
BLACK
6
CONTINUOUS
10
0.200066
20
0.0814863
11
0.194441
21
0.0796116
0
LINE
8
BLACK
6
CONTINUOUS
10
0.194441
20
0.0796116
11
0.193568
21
0.0794821
0
LINE
8
BLACK
6
CONTINUOUS
10
0.193568
20
0.0794821
11
0.193508
21
0.07946
0
LINE
8
BLACK
6
CONTINUOUS
10
0.193508
20
0.07946
11
0.189758
21
0.07946
0
LINE
8
BLACK
6
CONTINUOUS
10
0.189758
20
0.07946
11
0.188748
21
0.0796381
0
LINE
8
BLACK
6
CONTINUOUS
10
0.188748
20
0.0796381
11
0.188613
21
0.0797516
0
LINE
8
BLACK
6
CONTINUOUS
10
0.188613
20
0.0797516
11
0.188438
21
0.0797718
0
LINE
8
BLACK
6
CONTINUOUS
10
0.188438
20
0.0797718
11
0.184688
21
0.0816465
0
LINE
8
BLACK
6
CONTINUOUS
10
0.184688
20
0.0816465
11
0.183979
21
0.0821724
0
LINE
8
BLACK
6
CONTINUOUS
10
0.183979
20
0.0821724
11
0.183921
21
0.0821996
0
LINE
8
BLACK
6
CONTINUOUS
10
0.183921
20
0.0821996
11
0.182046
21
0.0840744
0
LINE
8
BLACK
6
CONTINUOUS
10
0.182046
20
0.0840744
11
0.18154
21
0.0847974
0
LINE
8
BLACK
6
CONTINUOUS
10
0.18154
20
0.0847974
11
0.181493
21
0.0848418
0
LINE
8
BLACK
6
CONTINUOUS
10
0.181493
20
0.0848418
11
0.179618
21
0.0885913
0
LINE
8
BLACK
6
CONTINUOUS
10
0.179618
20
0.0885913
11
0.179326
21
0.0895743
0
LINE
8
BLACK
6
CONTINUOUS
10
0.179326
20
0.0895743
11
0.179367
21
0.0897459
0
LINE
8
BLACK
6
CONTINUOUS
10
0.179367
20
0.0897459
11
0.179306
21
0.0899119
0
LINE
8
BLACK
6
CONTINUOUS
10
0.179306
20
0.0899119
11
0.179306
21
0.0992857
0
LINE
8
BLACK
6
CONTINUOUS
10
0.179306
20
0.0992857
11
0.179484
21
0.100296
0
LINE
8
BLACK
6
CONTINUOUS
10
0.179484
20
0.100296
11
0.179598
21
0.100431
0
LINE
8
BLACK
6
CONTINUOUS
10
0.179598
20
0.100431
11
0.179618
21
0.100606
0
LINE
8
BLACK
6
CONTINUOUS
10
0.179618
20
0.100606
11
0.181493
21
0.104356
0
LINE
8
BLACK
6
CONTINUOUS
10
0.181493
20
0.104356
11
0.182019
21
0.105065
0
LINE
8
BLACK
6
CONTINUOUS
10
0.182019
20
0.105065
11
0.182046
21
0.105123
0
LINE
8
BLACK
6
CONTINUOUS
10
0.182046
20
0.105123
11
0.183921
21
0.106998
0
LINE
8
BLACK
6
CONTINUOUS
10
0.183921
20
0.106998
11
0.184761
21
0.107586
0
LINE
8
BLACK
6
CONTINUOUS
10
0.184761
20
0.107586
11
0.186773
21
0.107762
0
LINE
8
BLACK
6
CONTINUOUS
10
0.186773
20
0.107762
11
0.188427
21
0.106604
0
LINE
8
BLACK
6
CONTINUOUS
10
0.188427
20
0.106604
11
0.18895
21
0.104653
0
LINE
8
BLACK
6
CONTINUOUS
10
0.18895
20
0.104653
11
0.188097
21
0.102822
0
LINE
8
BLACK
6
CONTINUOUS
10
0.188097
20
0.102822
11
0.186561
21
0.101286
0
LINE
8
BLACK
6
CONTINUOUS
10
0.186561
20
0.101286
11
0.185212
21
0.0985886
0
LINE
8
BLACK
6
CONTINUOUS
10
0.185212
20
0.0985886
11
0.185212
21
0.0906089
0
LINE
8
BLACK
6
CONTINUOUS
10
0.185212
20
0.0906089
11
0.186561
21
0.0879114
0
LINE
8
BLACK
6
CONTINUOUS
10
0.186561
20
0.0879114
11
0.187758
21
0.0867143
0
LINE
8
BLACK
6
CONTINUOUS
10
0.187758
20
0.0867143
11
0.190455
21
0.0853656
0
LINE
8
BLACK
6
CONTINUOUS
10
0.190455
20
0.0853656
11
0.193029
21
0.0853656
0
LINE
8
BLACK
6
CONTINUOUS
10
0.193029
20
0.0853656
11
0.197537
21
0.0868683
0
LINE
8
BLACK
6
CONTINUOUS
10
0.197537
20
0.0868683
11
0.219541
21
0.108873
0
LINE
8
BLACK
6
CONTINUOUS
10
0.219541
20
0.108873
11
0.220069
21
0.109242
0
LINE
8
BLACK
6
CONTINUOUS
10
0.220069
20
0.109242
11
0.220153
21
0.109342
0
LINE
8
BLACK
6
CONTINUOUS
10
0.220153
20
0.109342
11
0.220231
21
0.109356
0
LINE
8
BLACK
6
CONTINUOUS
10
0.220231
20
0.109356
11
0.220381
21
0.109461
0
LINE
8
BLACK
6
CONTINUOUS
10
0.220381
20
0.109461
11
0.221267
21
0.109538
0
LINE
8
BLACK
6
CONTINUOUS
10
0.221267
20
0.109538
11
0.222142
21
0.109693
0
LINE
8
BLACK
6
CONTINUOUS
10
0.222142
20
0.109693
11
0.222259
21
0.109625
0
LINE
8
BLACK
6
CONTINUOUS
10
0.280292
20
0.160292
11
0.280984
21
0.158622
0
LINE
8
BLACK
6
CONTINUOUS
10
0.280984
20
0.158622
11
0.280984
21
0.0857874
0
LINE
8
BLACK
6
CONTINUOUS
10
0.280984
20
0.0857874
11
0.280292
21
0.0841171
0
LINE
8
BLACK
6
CONTINUOUS
10
0.280292
20
0.0841171
11
0.278622
21
0.0834252
0
LINE
8
BLACK
6
CONTINUOUS
10
0.278622
20
0.0834252
11
0.276952
21
0.0841171
0
LINE
8
BLACK
6
CONTINUOUS
10
0.276952
20
0.0841171
11
0.27626
21
0.0857874
0
LINE
8
BLACK
6
CONTINUOUS
10
0.27626
20
0.0857874
11
0.27626
21
0.15626
0
LINE
8
BLACK
6
CONTINUOUS
10
0.27626
20
0.15626
11
0.23374
21
0.15626
0
LINE
8
BLACK
6
CONTINUOUS
10
0.23374
20
0.15626
11
0.23374
21
0.0857874
0
LINE
8
BLACK
6
CONTINUOUS
10
0.23374
20
0.0857874
11
0.233048
21
0.0841171
0
LINE
8
BLACK
6
CONTINUOUS
10
0.233048
20
0.0841171
11
0.231378
21
0.0834252
0
LINE
8
BLACK
6
CONTINUOUS
10
0.231378
20
0.0834252
11
0.229708
21
0.0841171
0
LINE
8
BLACK
6
CONTINUOUS
10
0.229708
20
0.0841171
11
0.229016
21
0.0857874
0
LINE
8
BLACK
6
CONTINUOUS
10
0.229016
20
0.0857874
11
0.229016
21
0.158622
0
LINE
8
BLACK
6
CONTINUOUS
10
0.229016
20
0.158622
11
0.229708
21
0.160292
0
LINE
8
BLACK
6
CONTINUOUS
10
0.229708
20
0.160292
11
0.231378
21
0.160984
0
LINE
8
BLACK
6
CONTINUOUS
10
0.231378
20
0.160984
11
0.278622
21
0.160984
0
LINE
8
BLACK
6
CONTINUOUS
10
0.278622
20
0.160984
11
0.280292
21
0.160292
0
LINE
8
BLACK
6
CONTINUOUS
10
1.13167
20
0.120371
11
1.13236
21
0.118701
0
LINE
8
BLACK
6
CONTINUOUS
10
1.13236
20
0.118701
11
1.13236
21
0.0887008
0
LINE
8
BLACK
6
CONTINUOUS
10
1.13236
20
0.0887008
11
1.13167
21
0.0870305
0
LINE
8
BLACK
6
CONTINUOUS
10
1.13167
20
0.0870305
11
1.13
21
0.0863386
0
LINE
8
BLACK
6
CONTINUOUS
10
1.13
20
0.0863386
11
1.12833
21
0.0870305
0
LINE
8
BLACK
6
CONTINUOUS
10
1.12833
20
0.0870305
11
1.12764
21
0.0887008
0
LINE
8
BLACK
6
CONTINUOUS
10
1.12764
20
0.0887008
11
1.12764
21
0.118701
0
LINE
8
BLACK
6
CONTINUOUS
10
1.12764
20
0.118701
11
1.12833
21
0.120371
0
LINE
8
BLACK
6
CONTINUOUS
10
1.12833
20
0.120371
11
1.13
21
0.121063
0
LINE
8
BLACK
6
CONTINUOUS
10
1.13
20
0.121063
11
1.13167
21
0.120371
0
LINE
8
BLACK
6
CONTINUOUS
10
1.19167
20
0.120371
11
1.19236
21
0.118701
0
LINE
8
BLACK
6
CONTINUOUS
10
1.19236
20
0.118701
11
1.19236
21
0.0887008
0
LINE
8
BLACK
6
CONTINUOUS
10
1.19236
20
0.0887008
11
1.19167
21
0.0870305
0
LINE
8
BLACK
6
CONTINUOUS
10
1.19167
20
0.0870305
11
1.19
21
0.0863386
0
LINE
8
BLACK
6
CONTINUOUS
10
1.19
20
0.0863386
11
1.18833
21
0.0870305
0
LINE
8
BLACK
6
CONTINUOUS
10
1.18833
20
0.0870305
11
1.18764
21
0.0887008
0
LINE
8
BLACK
6
CONTINUOUS
10
1.18764
20
0.0887008
11
1.18764
21
0.118701
0
LINE
8
BLACK
6
CONTINUOUS
10
1.18764
20
0.118701
11
1.18833
21
0.120371
0
LINE
8
BLACK
6
CONTINUOUS
10
1.18833
20
0.120371
11
1.19
21
0.121063
0
LINE
8
BLACK
6
CONTINUOUS
10
1.19
20
0.121063
11
1.19167
21
0.120371
0
LINE
8
BLACK
6
CONTINUOUS
10
1.33882
20
0.125591
11
1.33896
21
0.125477
0
LINE
8
BLACK
6
CONTINUOUS
10
1.33896
20
0.125477
11
1.33913
21
0.125457
0
LINE
8
BLACK
6
CONTINUOUS
10
1.33913
20
0.125457
11
1.34288
21
0.123582
0
LINE
8
BLACK
6
CONTINUOUS
10
1.34288
20
0.123582
11
1.34359
21
0.123056
0
LINE
8
BLACK
6
CONTINUOUS
10
1.34359
20
0.123056
11
1.34365
21
0.123029
0
LINE
8
BLACK
6
CONTINUOUS
10
1.34365
20
0.123029
11
1.34531
21
0.121367
0
LINE
8
BLACK
6
CONTINUOUS
10
1.34531
20
0.121367
11
1.34697
21
0.123029
0
LINE
8
BLACK
6
CONTINUOUS
10
1.34697
20
0.123029
11
1.3477
21
0.123535
0
LINE
8
BLACK
6
CONTINUOUS
10
1.3477
20
0.123535
11
1.34774
21
0.123582
0
LINE
8
BLACK
6
CONTINUOUS
10
1.34774
20
0.123582
11
1.35149
21
0.125457
0
LINE
8
BLACK
6
CONTINUOUS
10
1.35149
20
0.125457
11
1.35247
21
0.125749
0
LINE
8
BLACK
6
CONTINUOUS
10
1.35247
20
0.125749
11
1.35265
21
0.125708
0
LINE
8
BLACK
6
CONTINUOUS
10
1.35265
20
0.125708
11
1.35281
21
0.125769
0
LINE
8
BLACK
6
CONTINUOUS
10
1.35281
20
0.125769
11
1.36031
21
0.125769
0
LINE
8
BLACK
6
CONTINUOUS
10
1.36031
20
0.125769
11
1.36132
21
0.125591
0
LINE
8
BLACK
6
CONTINUOUS
10
1.36132
20
0.125591
11
1.36146
21
0.125477
0
LINE
8
BLACK
6
CONTINUOUS
10
1.36146
20
0.125477
11
1.36163
21
0.125457
0
LINE
8
BLACK
6
CONTINUOUS
10
1.36163
20
0.125457
11
1.36538
21
0.123582
0
LINE
8
BLACK
6
CONTINUOUS
10
1.36538
20
0.123582
11
1.36609
21
0.123056
0
LINE
8
BLACK
6
CONTINUOUS
10
1.36609
20
0.123056
11
1.36615
21
0.123029
0
LINE
8
BLACK
6
CONTINUOUS
10
1.36615
20
0.123029
11
1.36802
21
0.121154
0
LINE
8
BLACK
6
CONTINUOUS
10
1.36802
20
0.121154
11
1.36853
21
0.120431
0
LINE
8
BLACK
6
CONTINUOUS
10
1.36853
20
0.120431
11
1.36858
21
0.120387
0
LINE
8
BLACK
6
CONTINUOUS
10
1.36858
20
0.120387
11
1.37045
21
0.116637
0
LINE
8
BLACK
6
CONTINUOUS
10
1.37045
20
0.116637
11
1.37074
21
0.115654
0
LINE
8
BLACK
6
CONTINUOUS
10
1.37074
20
0.115654
11
1.3707
21
0.115483
0
LINE
8
BLACK
6
CONTINUOUS
10
1.3707
20
0.115483
11
1.37076
21
0.115317
0
LINE
8
BLACK
6
CONTINUOUS
10
1.37076
20
0.115317
11
1.37076
21
0.107818
0
LINE
8
BLACK
6
CONTINUOUS
10
1.37076
20
0.107818
11
1.37058
21
0.106808
0
LINE
8
BLACK
6
CONTINUOUS
10
1.37058
20
0.106808
11
1.37047
21
0.106673
0
LINE
8
BLACK
6
CONTINUOUS
10
1.37047
20
0.106673
11
1.37045
21
0.106497
0
LINE
8
BLACK
6
CONTINUOUS
10
1.37045
20
0.106497
11
1.36858
21
0.102748
0
LINE
8
BLACK
6
CONTINUOUS
10
1.36858
20
0.102748
11
1.36805
21
0.102039
0
LINE
8
BLACK
6
CONTINUOUS
10
1.36805
20
0.102039
11
1.36802
21
0.10198
0
LINE
8
BLACK
6
CONTINUOUS
10
1.36802
20
0.10198
11
1.36615
21
0.100106
0
LINE
8
BLACK
6
CONTINUOUS
10
1.36615
20
0.100106
11
1.36543
21
0.0995993
0
LINE
8
BLACK
6
CONTINUOUS
10
1.36543
20
0.0995993
11
1.36538
21
0.0995524
0
LINE
8
BLACK
6
CONTINUOUS
10
1.36538
20
0.0995524
11
1.36163
21
0.0976777
0
LINE
8
BLACK
6
CONTINUOUS
10
1.36163
20
0.0976777
11
1.36065
21
0.0973853
0
LINE
8
BLACK
6
CONTINUOUS
10
1.36065
20
0.0973853
11
1.36048
21
0.0974263
0
LINE
8
BLACK
6
CONTINUOUS
10
1.36048
20
0.0974263
11
1.36031
21
0.0973659
0
LINE
8
BLACK
6
CONTINUOUS
10
1.36031
20
0.0973659
11
1.35281
21
0.0973659
0
LINE
8
BLACK
6
CONTINUOUS
10
1.35281
20
0.0973659
11
1.3518
21
0.097544
0
LINE
8
BLACK
6
CONTINUOUS
10
1.3518
20
0.097544
11
1.35167
21
0.0976575
0
LINE
8
BLACK
6
CONTINUOUS
10
1.35167
20
0.0976575
11
1.35149
21
0.0976777
0
LINE
8
BLACK
6
CONTINUOUS
10
1.35149
20
0.0976777
11
1.34774
21
0.0995524
0
LINE
8
BLACK
6
CONTINUOUS
10
1.34774
20
0.0995524
11
1.34703
21
0.100078
0
LINE
8
BLACK
6
CONTINUOUS
10
1.34703
20
0.100078
11
1.34697
21
0.100106
0
LINE
8
BLACK
6
CONTINUOUS
10
1.34697
20
0.100106
11
1.34531
21
0.101767
0
LINE
8
BLACK
6
CONTINUOUS
10
1.34531
20
0.101767
11
1.34365
21
0.100106
0
LINE
8
BLACK
6
CONTINUOUS
10
1.34365
20
0.100106
11
1.34293
21
0.0995993
0
LINE
8
BLACK
6
CONTINUOUS
10
1.34293
20
0.0995993
11
1.34288
21
0.0995524
0
LINE
8
BLACK
6
CONTINUOUS
10
1.34288
20
0.0995524
11
1.33913
21
0.0976777
0
LINE
8
BLACK
6
CONTINUOUS
10
1.33913
20
0.0976777
11
1.33815
21
0.0973853
0
LINE
8
BLACK
6
CONTINUOUS
10
1.33815
20
0.0973853
11
1.33798
21
0.0974263
0
LINE
8
BLACK
6
CONTINUOUS
10
1.33798
20
0.0974263
11
1.33781
21
0.0973659
0
LINE
8
BLACK
6
CONTINUOUS
10
1.33781
20
0.0973659
11
1.33594
21
0.0973659
0
LINE
8
BLACK
6
CONTINUOUS
10
1.33594
20
0.0973659
11
1.33493
21
0.097544
0
LINE
8
BLACK
6
CONTINUOUS
10
1.33493
20
0.097544
11
1.33479
21
0.0976575
0
LINE
8
BLACK
6
CONTINUOUS
10
1.33479
20
0.0976575
11
1.33462
21
0.0976777
0
LINE
8
BLACK
6
CONTINUOUS
10
1.33462
20
0.0976777
11
1.33087
21
0.0995524
0
LINE
8
BLACK
6
CONTINUOUS
10
1.33087
20
0.0995524
11
1.33016
21
0.100078
0
LINE
8
BLACK
6
CONTINUOUS
10
1.33016
20
0.100078
11
1.3301
21
0.100106
0
LINE
8
BLACK
6
CONTINUOUS
10
1.3301
20
0.100106
11
1.32823
21
0.10198
0
LINE
8
BLACK
6
CONTINUOUS
10
1.32823
20
0.10198
11
1.32772
21
0.102703
0
LINE
8
BLACK
6
CONTINUOUS
10
1.32772
20
0.102703
11
1.32767
21
0.102748
0
LINE
8
BLACK
6
CONTINUOUS
10
1.32767
20
0.102748
11
1.3258
21
0.106497
0
LINE
8
BLACK
6
CONTINUOUS
10
1.3258
20
0.106497
11
1.32551
21
0.10748
0
LINE
8
BLACK
6
CONTINUOUS
10
1.32551
20
0.10748
11
1.32555
21
0.107652
0
LINE
8
BLACK
6
CONTINUOUS
10
1.32555
20
0.107652
11
1.32549
21
0.107818
0
LINE
8
BLACK
6
CONTINUOUS
10
1.32549
20
0.107818
11
1.32549
21
0.115317
0
LINE
8
BLACK
6
CONTINUOUS
10
1.32549
20
0.115317
11
1.32567
21
0.116327
0
LINE
8
BLACK
6
CONTINUOUS
10
1.32567
20
0.116327
11
1.32578
21
0.116462
0
LINE
8
BLACK
6
CONTINUOUS
10
1.32578
20
0.116462
11
1.3258
21
0.116637
0
LINE
8
BLACK
6
CONTINUOUS
10
1.3258
20
0.116637
11
1.32767
21
0.120387
0
LINE
8
BLACK
6
CONTINUOUS
10
1.32767
20
0.120387
11
1.3282
21
0.121096
0
LINE
8
BLACK
6
CONTINUOUS
10
1.3282
20
0.121096
11
1.32823
21
0.121154
0
LINE
8
BLACK
6
CONTINUOUS
10
1.32823
20
0.121154
11
1.3301
21
0.123029
0
LINE
8
BLACK
6
CONTINUOUS
10
1.3301
20
0.123029
11
1.33082
21
0.123535
0
LINE
8
BLACK
6
CONTINUOUS
10
1.33082
20
0.123535
11
1.33087
21
0.123582
0
LINE
8
BLACK
6
CONTINUOUS
10
1.33087
20
0.123582
11
1.33462
21
0.125457
0
LINE
8
BLACK
6
CONTINUOUS
10
1.33462
20
0.125457
11
1.3356
21
0.125749
0
LINE
8
BLACK
6
CONTINUOUS
10
1.3356
20
0.125749
11
1.33577
21
0.125708
0
LINE
8
BLACK
6
CONTINUOUS
10
1.33577
20
0.125708
11
1.33594
21
0.125769
0
LINE
8
BLACK
6
CONTINUOUS
10
1.33594
20
0.125769
11
1.33781
21
0.125769
0
LINE
8
BLACK
6
CONTINUOUS
10
1.33781
20
0.125769
11
1.33882
21
0.125591
0
LINE
8
BLACK
6
CONTINUOUS
10
1.35351
20
0.119863
11
1.35081
21
0.118514
0
LINE
8
BLACK
6
CONTINUOUS
10
1.35081
20
0.118514
11
1.34961
21
0.117317
0
LINE
8
BLACK
6
CONTINUOUS
10
1.34961
20
0.117317
11
1.34827
21
0.11462
0
LINE
8
BLACK
6
CONTINUOUS
10
1.34827
20
0.11462
11
1.34827
21
0.108515
0
LINE
8
BLACK
6
CONTINUOUS
10
1.34827
20
0.108515
11
1.34961
21
0.105817
0
LINE
8
BLACK
6
CONTINUOUS
10
1.34961
20
0.105817
11
1.35081
21
0.10462
0
LINE
8
BLACK
6
CONTINUOUS
10
1.35081
20
0.10462
11
1.35351
21
0.103271
0
LINE
8
BLACK
6
CONTINUOUS
10
1.35351
20
0.103271
11
1.35961
21
0.103271
0
LINE
8
BLACK
6
CONTINUOUS
10
1.35961
20
0.103271
11
1.36231
21
0.10462
0
LINE
8
BLACK
6
CONTINUOUS
10
1.36231
20
0.10462
11
1.36351
21
0.105817
0
LINE
8
BLACK
6
CONTINUOUS
10
1.36351
20
0.105817
11
1.36486
21
0.108515
0
LINE
8
BLACK
6
CONTINUOUS
10
1.36486
20
0.108515
11
1.36486
21
0.11462
0
LINE
8
BLACK
6
CONTINUOUS
10
1.36486
20
0.11462
11
1.36351
21
0.117317
0
LINE
8
BLACK
6
CONTINUOUS
10
1.36351
20
0.117317
11
1.36231
21
0.118514
0
LINE
8
BLACK
6
CONTINUOUS
10
1.36231
20
0.118514
11
1.35961
21
0.119863
0
LINE
8
BLACK
6
CONTINUOUS
10
1.35961
20
0.119863
11
1.35351
21
0.119863
0
LINE
8
BLACK
6
CONTINUOUS
10
1.33664
20
0.119863
11
1.33394
21
0.118514
0
LINE
8
BLACK
6
CONTINUOUS
10
1.33394
20
0.118514
11
1.33274
21
0.117317
0
LINE
8
BLACK
6
CONTINUOUS
10
1.33274
20
0.117317
11
1.33139
21
0.11462
0
LINE
8
BLACK
6
CONTINUOUS
10
1.33139
20
0.11462
11
1.33139
21
0.108515
0
LINE
8
BLACK
6
CONTINUOUS
10
1.33139
20
0.108515
11
1.33274
21
0.105817
0
LINE
8
BLACK
6
CONTINUOUS
10
1.33274
20
0.105817
11
1.33394
21
0.10462
0
LINE
8
BLACK
6
CONTINUOUS
10
1.33394
20
0.10462
11
1.33664
21
0.103271
0
LINE
8
BLACK
6
CONTINUOUS
10
1.33664
20
0.103271
11
1.33712
21
0.103271
0
LINE
8
BLACK
6
CONTINUOUS
10
1.33712
20
0.103271
11
1.33981
21
0.10462
0
LINE
8
BLACK
6
CONTINUOUS
10
1.33981
20
0.10462
11
1.34101
21
0.105817
0
LINE
8
BLACK
6
CONTINUOUS
10
1.34101
20
0.105817
11
1.34236
21
0.108515
0
LINE
8
BLACK
6
CONTINUOUS
10
1.34236
20
0.108515
11
1.34236
21
0.11462
0
LINE
8
BLACK
6
CONTINUOUS
10
1.34236
20
0.11462
11
1.34101
21
0.117317
0
LINE
8
BLACK
6
CONTINUOUS
10
1.34101
20
0.117317
11
1.33981
21
0.118514
0
LINE
8
BLACK
6
CONTINUOUS
10
1.33981
20
0.118514
11
1.33712
21
0.119863
0
LINE
8
BLACK
6
CONTINUOUS
10
1.33712
20
0.119863
11
1.33664
21
0.119863
0
LINE
8
BLACK
6
CONTINUOUS
10
0.46667
20
0.132517
11
0.467362
21
0.130846
0
LINE
8
BLACK
6
CONTINUOUS
10
0.467362
20
0.130846
11
0.467362
21
0.100846
0
LINE
8
BLACK
6
CONTINUOUS
10
0.467362
20
0.100846
11
0.46667
21
0.0991761
0
LINE
8
BLACK
6
CONTINUOUS
10
0.46667
20
0.0991761
11
0.465
21
0.0984843
0
LINE
8
BLACK
6
CONTINUOUS
10
0.465
20
0.0984843
11
0.46333
21
0.0991761
0
LINE
8
BLACK
6
CONTINUOUS
10
0.46333
20
0.0991761
11
0.462638
21
0.100846
0
LINE
8
BLACK
6
CONTINUOUS
10
0.462638
20
0.100846
11
0.462638
21
0.130846
0
LINE
8
BLACK
6
CONTINUOUS
10
0.462638
20
0.130846
11
0.46333
21
0.132517
0
LINE
8
BLACK
6
CONTINUOUS
10
0.46333
20
0.132517
11
0.465
21
0.133209
0
LINE
8
BLACK
6
CONTINUOUS
10
0.465
20
0.133209
11
0.46667
21
0.132517
0
LINE
8
BLACK
6
CONTINUOUS
10
0.40667
20
0.132517
11
0.407362
21
0.130846
0
LINE
8
BLACK
6
CONTINUOUS
10
0.407362
20
0.130846
11
0.407362
21
0.100846
0
LINE
8
BLACK
6
CONTINUOUS
10
0.407362
20
0.100846
11
0.40667
21
0.0991761
0
LINE
8
BLACK
6
CONTINUOUS
10
0.40667
20
0.0991761
11
0.405
21
0.0984843
0
LINE
8
BLACK
6
CONTINUOUS
10
0.405
20
0.0984843
11
0.40333
21
0.0991761
0
LINE
8
BLACK
6
CONTINUOUS
10
0.40333
20
0.0991761
11
0.402638
21
0.100846
0
LINE
8
BLACK
6
CONTINUOUS
10
0.402638
20
0.100846
11
0.402638
21
0.130846
0
LINE
8
BLACK
6
CONTINUOUS
10
0.402638
20
0.130846
11
0.40333
21
0.132517
0
LINE
8
BLACK
6
CONTINUOUS
10
0.40333
20
0.132517
11
0.405
21
0.133209
0
LINE
8
BLACK
6
CONTINUOUS
10
0.405
20
0.133209
11
0.40667
21
0.132517
0
LINE
8
BLACK
6
CONTINUOUS
10
0.37667
20
0.132517
11
0.377362
21
0.130846
0
LINE
8
BLACK
6
CONTINUOUS
10
0.377362
20
0.130846
11
0.377362
21
0.100846
0
LINE
8
BLACK
6
CONTINUOUS
10
0.377362
20
0.100846
11
0.37667
21
0.0991761
0
LINE
8
BLACK
6
CONTINUOUS
10
0.37667
20
0.0991761
11
0.375
21
0.0984843
0
LINE
8
BLACK
6
CONTINUOUS
10
0.375
20
0.0984843
11
0.37333
21
0.0991761
0
LINE
8
BLACK
6
CONTINUOUS
10
0.37333
20
0.0991761
11
0.372638
21
0.100846
0
LINE
8
BLACK
6
CONTINUOUS
10
0.372638
20
0.100846
11
0.372638
21
0.130846
0
LINE
8
BLACK
6
CONTINUOUS
10
0.372638
20
0.130846
11
0.37333
21
0.132517
0
LINE
8
BLACK
6
CONTINUOUS
10
0.37333
20
0.132517
11
0.375
21
0.133209
0
LINE
8
BLACK
6
CONTINUOUS
10
0.375
20
0.133209
11
0.37667
21
0.132517
0
LINE
8
BLACK
6
CONTINUOUS
10
0.31667
20
0.132517
11
0.317362
21
0.130846
0
LINE
8
BLACK
6
CONTINUOUS
10
0.317362
20
0.130846
11
0.317362
21
0.100846
0
LINE
8
BLACK
6
CONTINUOUS
10
0.317362
20
0.100846
11
0.31667
21
0.0991761
0
LINE
8
BLACK
6
CONTINUOUS
10
0.31667
20
0.0991761
11
0.315
21
0.0984843
0
LINE
8
BLACK
6
CONTINUOUS
10
0.315
20
0.0984843
11
0.31333
21
0.0991761
0
LINE
8
BLACK
6
CONTINUOUS
10
0.31333
20
0.0991761
11
0.312638
21
0.100846
0
LINE
8
BLACK
6
CONTINUOUS
10
0.312638
20
0.100846
11
0.312638
21
0.130846
0
LINE
8
BLACK
6
CONTINUOUS
10
0.312638
20
0.130846
11
0.31333
21
0.132517
0
LINE
8
BLACK
6
CONTINUOUS
10
0.31333
20
0.132517
11
0.315
21
0.133209
0
LINE
8
BLACK
6
CONTINUOUS
10
0.315
20
0.133209
11
0.31667
21
0.132517
0
LINE
8
BLACK
6
CONTINUOUS
10
0.56667
20
0.132517
11
0.567362
21
0.130846
0
LINE
8
BLACK
6
CONTINUOUS
10
0.567362
20
0.130846
11
0.567362
21
0.100846
0
LINE
8
BLACK
6
CONTINUOUS
10
0.567362
20
0.100846
11
0.56667
21
0.0991761
0
LINE
8
BLACK
6
CONTINUOUS
10
0.56667
20
0.0991761
11
0.565
21
0.0984843
0
LINE
8
BLACK
6
CONTINUOUS
10
0.565
20
0.0984843
11
0.56333
21
0.0991761
0
LINE
8
BLACK
6
CONTINUOUS
10
0.56333
20
0.0991761
11
0.562638
21
0.100846
0
LINE
8
BLACK
6
CONTINUOUS
10
0.562638
20
0.100846
11
0.562638
21
0.130846
0
LINE
8
BLACK
6
CONTINUOUS
10
0.562638
20
0.130846
11
0.56333
21
0.132517
0
LINE
8
BLACK
6
CONTINUOUS
10
0.56333
20
0.132517
11
0.565
21
0.133209
0
LINE
8
BLACK
6
CONTINUOUS
10
0.565
20
0.133209
11
0.56667
21
0.132517
0
LINE
8
BLACK
6
CONTINUOUS
10
0.50667
20
0.132517
11
0.507362
21
0.130846
0
LINE
8
BLACK
6
CONTINUOUS
10
0.507362
20
0.130846
11
0.507362
21
0.100846
0
LINE
8
BLACK
6
CONTINUOUS
10
0.507362
20
0.100846
11
0.50667
21
0.0991761
0
LINE
8
BLACK
6
CONTINUOUS
10
0.50667
20
0.0991761
11
0.505
21
0.0984843
0
LINE
8
BLACK
6
CONTINUOUS
10
0.505
20
0.0984843
11
0.50333
21
0.0991761
0
LINE
8
BLACK
6
CONTINUOUS
10
0.50333
20
0.0991761
11
0.502638
21
0.100846
0
LINE
8
BLACK
6
CONTINUOUS
10
0.502638
20
0.100846
11
0.502638
21
0.130846
0
LINE
8
BLACK
6
CONTINUOUS
10
0.502638
20
0.130846
11
0.50333
21
0.132517
0
LINE
8
BLACK
6
CONTINUOUS
10
0.50333
20
0.132517
11
0.505
21
0.133209
0
LINE
8
BLACK
6
CONTINUOUS
10
0.505
20
0.133209
11
0.50667
21
0.132517
0
LINE
8
BLACK
6
CONTINUOUS
10
1.23084
20
0.161456
11
1.23154
21
0.159786
0
LINE
8
BLACK
6
CONTINUOUS
10
1.23154
20
0.159786
11
1.23154
21
0.112379
0
LINE
8
BLACK
6
CONTINUOUS
10
1.23154
20
0.112379
11
1.23084
21
0.110709
0
LINE
8
BLACK
6
CONTINUOUS
10
1.23084
20
0.110709
11
1.22917
21
0.110017
0
LINE
8
BLACK
6
CONTINUOUS
10
1.22917
20
0.110017
11
1.2275
21
0.110709
0
LINE
8
BLACK
6
CONTINUOUS
10
1.2275
20
0.110709
11
1.22681
21
0.112379
0
LINE
8
BLACK
6
CONTINUOUS
10
1.22681
20
0.112379
11
1.22681
21
0.159786
0
LINE
8
BLACK
6
CONTINUOUS
10
1.22681
20
0.159786
11
1.2275
21
0.161456
0
LINE
8
BLACK
6
CONTINUOUS
10
1.2275
20
0.161456
11
1.22917
21
0.162148
0
LINE
8
BLACK
6
CONTINUOUS
10
1.22917
20
0.162148
11
1.23084
21
0.161456
0
LINE
8
BLACK
6
CONTINUOUS
10
1.3025
20
0.161456
11
1.30319
21
0.159786
0
LINE
8
BLACK
6
CONTINUOUS
10
1.30319
20
0.159786
11
1.30319
21
0.112379
0
LINE
8
BLACK
6
CONTINUOUS
10
1.30319
20
0.112379
11
1.3025
21
0.110709
0
LINE
8
BLACK
6
CONTINUOUS
10
1.3025
20
0.110709
11
1.30083
21
0.110017
0
LINE
8
BLACK
6
CONTINUOUS
10
1.30083
20
0.110017
11
1.29916
21
0.110709
0
LINE
8
BLACK
6
CONTINUOUS
10
1.29916
20
0.110709
11
1.29846
21
0.112379
0
LINE
8
BLACK
6
CONTINUOUS
10
1.29846
20
0.112379
11
1.29846
21
0.159786
0
LINE
8
BLACK
6
CONTINUOUS
10
1.29846
20
0.159786
11
1.29916
21
0.161456
0
LINE
8
BLACK
6
CONTINUOUS
10
1.29916
20
0.161456
11
1.30083
21
0.162148
0
LINE
8
BLACK
6
CONTINUOUS
10
1.30083
20
0.162148
11
1.3025
21
0.161456
0
LINE
8
BLACK
6
CONTINUOUS
10
0.222013
20
0.14529
11
0.222142
21
0.145313
0
LINE
8
BLACK
6
CONTINUOUS
10
0.222142
20
0.145313
11
0.222256
21
0.145248
0
LINE
8
BLACK
6
CONTINUOUS
10
0.222256
20
0.145248
11
0.222639
21
0.14518
0
LINE
8
BLACK
6
CONTINUOUS
10
0.222639
20
0.14518
11
0.223227
21
0.144687
0
LINE
8
BLACK
6
CONTINUOUS
10
0.223227
20
0.144687
11
0.223891
21
0.144303
0
LINE
8
BLACK
6
CONTINUOUS
10
0.223891
20
0.144303
11
0.223982
21
0.144053
0
LINE
8
BLACK
6
CONTINUOUS
10
0.223982
20
0.144053
11
0.224186
21
0.143882
0
LINE
8
BLACK
6
CONTINUOUS
10
0.224186
20
0.143882
11
0.22432
21
0.143126
0
LINE
8
BLACK
6
CONTINUOUS
10
0.22432
20
0.143126
11
0.224582
21
0.142405
0
LINE
8
BLACK
6
CONTINUOUS
10
0.224582
20
0.142405
11
0.224582
21
0.133031
0
LINE
8
BLACK
6
CONTINUOUS
10
0.224582
20
0.133031
11
0.224429
21
0.132162
0
LINE
8
BLACK
6
CONTINUOUS
10
0.224429
20
0.132162
11
0.22443
21
0.132098
0
LINE
8
BLACK
6
CONTINUOUS
10
0.22443
20
0.132098
11
0.222556
21
0.126473
0
LINE
8
BLACK
6
CONTINUOUS
10
0.222556
20
0.126473
11
0.222067
21
0.125572
0
LINE
8
BLACK
6
CONTINUOUS
10
0.222067
20
0.125572
11
0.221917
21
0.125479
0
LINE
8
BLACK
6
CONTINUOUS
10
0.221917
20
0.125479
11
0.221842
21
0.125319
0
LINE
8
BLACK
6
CONTINUOUS
10
0.221842
20
0.125319
11
0.218093
21
0.12157
0
LINE
8
BLACK
6
CONTINUOUS
10
0.218093
20
0.12157
11
0.21737
21
0.121063
0
LINE
8
BLACK
6
CONTINUOUS
10
0.21737
20
0.121063
11
0.217325
21
0.121017
0
LINE
8
BLACK
6
CONTINUOUS
10
0.217325
20
0.121017
11
0.213576
21
0.119142
0
LINE
8
BLACK
6
CONTINUOUS
10
0.213576
20
0.119142
11
0.213087
21
0.118997
0
LINE
8
BLACK
6
CONTINUOUS
10
0.213087
20
0.118997
11
0.212971
21
0.118918
0
LINE
8
BLACK
6
CONTINUOUS
10
0.212971
20
0.118918
11
0.205472
21
0.117044
0
LINE
8
BLACK
6
CONTINUOUS
10
0.205472
20
0.117044
11
0.204884
21
0.117002
0
LINE
8
BLACK
6
CONTINUOUS
10
0.204884
20
0.117002
11
0.204756
21
0.116955
0
LINE
8
BLACK
6
CONTINUOUS
10
0.204756
20
0.116955
11
0.199132
21
0.116955
0
LINE
8
BLACK
6
CONTINUOUS
10
0.199132
20
0.116955
11
0.198552
21
0.117058
0
LINE
8
BLACK
6
CONTINUOUS
10
0.198552
20
0.117058
11
0.198416
21
0.117044
0
LINE
8
BLACK
6
CONTINUOUS
10
0.198416
20
0.117044
11
0.190917
21
0.118918
0
LINE
8
BLACK
6
CONTINUOUS
10
0.190917
20
0.118918
11
0.190451
21
0.119126
0
LINE
8
BLACK
6
CONTINUOUS
10
0.190451
20
0.119126
11
0.190312
21
0.119142
0
LINE
8
BLACK
6
CONTINUOUS
10
0.190312
20
0.119142
11
0.186563
21
0.121017
0
LINE
8
BLACK
6
CONTINUOUS
10
0.186563
20
0.121017
11
0.185854
21
0.121543
0
LINE
8
BLACK
6
CONTINUOUS
10
0.185854
20
0.121543
11
0.185795
21
0.12157
0
LINE
8
BLACK
6
CONTINUOUS
10
0.185795
20
0.12157
11
0.182046
21
0.125319
0
LINE
8
BLACK
6
CONTINUOUS
10
0.182046
20
0.125319
11
0.181458
21
0.126159
0
LINE
8
BLACK
6
CONTINUOUS
10
0.181458
20
0.126159
11
0.181442
21
0.126335
0
LINE
8
BLACK
6
CONTINUOUS
10
0.181442
20
0.126335
11
0.181333
21
0.126473
0
LINE
8
BLACK
6
CONTINUOUS
10
0.181333
20
0.126473
11
0.179458
21
0.132098
0
LINE
8
BLACK
6
CONTINUOUS
10
0.179458
20
0.132098
11
0.179328
21
0.132971
0
LINE
8
BLACK
6
CONTINUOUS
10
0.179328
20
0.132971
11
0.179306
21
0.133031
0
LINE
8
BLACK
6
CONTINUOUS
10
0.179306
20
0.133031
11
0.179306
21
0.142405
0
LINE
8
BLACK
6
CONTINUOUS
10
0.179306
20
0.142405
11
0.179374
21
0.142789
0
LINE
8
BLACK
6
CONTINUOUS
10
0.179374
20
0.142789
11
0.179351
21
0.142918
0
LINE
8
BLACK
6
CONTINUOUS
10
0.179351
20
0.142918
11
0.179417
21
0.143032
0
LINE
8
BLACK
6
CONTINUOUS
10
0.179417
20
0.143032
11
0.179484
21
0.143415
0
LINE
8
BLACK
6
CONTINUOUS
10
0.179484
20
0.143415
11
0.179978
21
0.144003
0
LINE
8
BLACK
6
CONTINUOUS
10
0.179978
20
0.144003
11
0.180361
21
0.144667
0
LINE
8
BLACK
6
CONTINUOUS
10
0.180361
20
0.144667
11
0.180611
21
0.144758
0
LINE
8
BLACK
6
CONTINUOUS
10
0.180611
20
0.144758
11
0.180783
21
0.144962
0
LINE
8
BLACK
6
CONTINUOUS
10
0.180783
20
0.144962
11
0.181538
21
0.145096
0
LINE
8
BLACK
6
CONTINUOUS
10
0.181538
20
0.145096
11
0.182259
21
0.145358
0
LINE
8
BLACK
6
CONTINUOUS
10
0.182259
20
0.145358
11
0.221629
21
0.145358
0
LINE
8
BLACK
6
CONTINUOUS
10
0.221629
20
0.145358
11
0.222013
21
0.14529
0
LINE
8
BLACK
6
CONTINUOUS
10
0.185212
20
0.139453
11
0.185212
21
0.133511
0
LINE
8
BLACK
6
CONTINUOUS
10
0.185212
20
0.133511
11
0.186715
21
0.129002
0
LINE
8
BLACK
6
CONTINUOUS
10
0.186715
20
0.129002
11
0.189632
21
0.126084
0
LINE
8
BLACK
6
CONTINUOUS
10
0.189632
20
0.126084
11
0.192663
21
0.124569
0
LINE
8
BLACK
6
CONTINUOUS
10
0.192663
20
0.124569
11
0.199496
21
0.122861
0
LINE
8
BLACK
6
CONTINUOUS
10
0.199496
20
0.122861
11
0.204393
21
0.122861
0
LINE
8
BLACK
6
CONTINUOUS
10
0.204393
20
0.122861
11
0.211225
21
0.124569
0
LINE
8
BLACK
6
CONTINUOUS
10
0.211225
20
0.124569
11
0.214256
21
0.126084
0
LINE
8
BLACK
6
CONTINUOUS
10
0.214256
20
0.126084
11
0.217174
21
0.129002
0
LINE
8
BLACK
6
CONTINUOUS
10
0.217174
20
0.129002
11
0.218676
21
0.133511
0
LINE
8
BLACK
6
CONTINUOUS
10
0.218676
20
0.133511
11
0.218676
21
0.139453
0
LINE
8
BLACK
6
CONTINUOUS
10
0.218676
20
0.139453
11
0.185212
21
0.139453
0
LINE
8
BLACK
6
CONTINUOUS
10
1.34145
20
0.162683
11
1.34256
21
0.160997
0
LINE
8
BLACK
6
CONTINUOUS
10
1.34256
20
0.160997
11
1.34233
21
0.158991
0
LINE
8
BLACK
6
CONTINUOUS
10
1.34233
20
0.158991
11
1.34046
21
0.155241
0
LINE
8
BLACK
6
CONTINUOUS
10
1.34046
20
0.155241
11
1.33993
21
0.154532
0
LINE
8
BLACK
6
CONTINUOUS
10
1.33993
20
0.154532
11
1.3399
21
0.154474
0
LINE
8
BLACK
6
CONTINUOUS
10
1.3399
20
0.154474
11
1.33744
21
0.152015
0
LINE
8
BLACK
6
CONTINUOUS
10
1.33744
20
0.152015
11
1.36486
21
0.152015
0
LINE
8
BLACK
6
CONTINUOUS
10
1.36486
20
0.152015
11
1.36486
21
0.160311
0
LINE
8
BLACK
6
CONTINUOUS
10
1.36486
20
0.160311
11
1.36504
21
0.161321
0
LINE
8
BLACK
6
CONTINUOUS
10
1.36504
20
0.161321
11
1.36633
21
0.162868
0
LINE
8
BLACK
6
CONTINUOUS
10
1.36633
20
0.162868
11
1.36832
21
0.163219
0
LINE
8
BLACK
6
CONTINUOUS
10
1.36832
20
0.163219
11
1.37007
21
0.162209
0
LINE
8
BLACK
6
CONTINUOUS
10
1.37007
20
0.162209
11
1.37076
21
0.160311
0
LINE
8
BLACK
6
CONTINUOUS
10
1.37076
20
0.160311
11
1.37076
21
0.137814
0
LINE
8
BLACK
6
CONTINUOUS
10
1.37076
20
0.137814
11
1.37058
21
0.136804
0
LINE
8
BLACK
6
CONTINUOUS
10
1.37058
20
0.136804
11
1.36929
21
0.135257
0
LINE
8
BLACK
6
CONTINUOUS
10
1.36929
20
0.135257
11
1.3673
21
0.134906
0
LINE
8
BLACK
6
CONTINUOUS
10
1.3673
20
0.134906
11
1.36555
21
0.135916
0
LINE
8
BLACK
6
CONTINUOUS
10
1.36555
20
0.135916
11
1.36486
21
0.137814
0
LINE
8
BLACK
6
CONTINUOUS
10
1.36486
20
0.137814
11
1.36486
21
0.14611
0
LINE
8
BLACK
6
CONTINUOUS
10
1.36486
20
0.14611
11
1.32844
21
0.14611
0
LINE
8
BLACK
6
CONTINUOUS
10
1.32844
20
0.14611
11
1.32743
21
0.146288
0
LINE
8
BLACK
6
CONTINUOUS
10
1.32743
20
0.146288
11
1.3273
21
0.146397
0
LINE
8
BLACK
6
CONTINUOUS
10
1.3273
20
0.146397
11
1.32713
21
0.146416
0
LINE
8
BLACK
6
CONTINUOUS
10
1.32713
20
0.146416
11
1.32654
21
0.147035
0
LINE
8
BLACK
6
CONTINUOUS
10
1.32654
20
0.147035
11
1.32588
21
0.147586
0
LINE
8
BLACK
6
CONTINUOUS
10
1.32588
20
0.147586
11
1.32585
21
0.147753
0
LINE
8
BLACK
6
CONTINUOUS
10
1.32585
20
0.147753
11
1.32574
21
0.147876
0
LINE
8
BLACK
6
CONTINUOUS
10
1.32574
20
0.147876
11
1.32568
21
0.148731
0
LINE
8
BLACK
6
CONTINUOUS
10
1.32568
20
0.148731
11
1.32553
21
0.149575
0
LINE
8
BLACK
6
CONTINUOUS
10
1.32553
20
0.149575
11
1.32562
21
0.149722
0
LINE
8
BLACK
6
CONTINUOUS
10
1.32562
20
0.149722
11
1.32561
21
0.149892
0
LINE
8
BLACK
6
CONTINUOUS
10
1.32561
20
0.149892
11
1.32611
21
0.150582
0
LINE
8
BLACK
6
CONTINUOUS
10
1.32611
20
0.150582
11
1.32654
21
0.151325
0
LINE
8
BLACK
6
CONTINUOUS
10
1.32654
20
0.151325
11
1.3267
21
0.151383
0
LINE
8
BLACK
6
CONTINUOUS
10
1.3267
20
0.151383
11
1.3268
21
0.151519
0
LINE
8
BLACK
6
CONTINUOUS
10
1.3268
20
0.151519
11
1.33218
21
0.155107
0
LINE
8
BLACK
6
CONTINUOUS
10
1.33218
20
0.155107
11
1.33539
21
0.158311
0
LINE
8
BLACK
6
CONTINUOUS
10
1.33539
20
0.158311
11
1.33705
21
0.161632
0
LINE
8
BLACK
6
CONTINUOUS
10
1.33705
20
0.161632
11
1.33766
21
0.162455
0
LINE
8
BLACK
6
CONTINUOUS
10
1.33766
20
0.162455
11
1.33951
21
0.163259
0
LINE
8
BLACK
6
CONTINUOUS
10
1.33951
20
0.163259
11
1.34145
21
0.162683
0
LINE
8
BLACK
6
CONTINUOUS
10
1.19101
20
0.166475
11
1.19256
21
0.165177
0
LINE
8
BLACK
6
CONTINUOUS
10
1.19256
20
0.165177
11
1.19291
21
0.163188
0
LINE
8
BLACK
6
CONTINUOUS
10
1.19291
20
0.163188
11
1.1919
21
0.161439
0
LINE
8
BLACK
6
CONTINUOUS
10
1.1919
20
0.161439
11
1.19
21
0.160748
0
LINE
8
BLACK
6
CONTINUOUS
10
1.19
20
0.160748
11
1.13
21
0.160748
0
LINE
8
BLACK
6
CONTINUOUS
10
1.13
20
0.160748
11
1.12899
21
0.160926
0
LINE
8
BLACK
6
CONTINUOUS
10
1.12899
20
0.160926
11
1.12744
21
0.162224
0
LINE
8
BLACK
6
CONTINUOUS
10
1.12744
20
0.162224
11
1.12709
21
0.164214
0
LINE
8
BLACK
6
CONTINUOUS
10
1.12709
20
0.164214
11
1.1281
21
0.165963
0
LINE
8
BLACK
6
CONTINUOUS
10
1.1281
20
0.165963
11
1.13
21
0.166654
0
LINE
8
BLACK
6
CONTINUOUS
10
1.13
20
0.166654
11
1.19
21
0.166654
0
LINE
8
BLACK
6
CONTINUOUS
10
1.19
20
0.166654
11
1.19101
21
0.166475
0
LINE
8
BLACK
6
CONTINUOUS
10
1.35152
20
0.202532
11
1.35165
21
0.202546
0
LINE
8
BLACK
6
CONTINUOUS
10
1.35165
20
0.202546
11
1.35915
21
0.200671
0
LINE
8
BLACK
6
CONTINUOUS
10
1.35915
20
0.200671
11
1.35962
21
0.200464
0
LINE
8
BLACK
6
CONTINUOUS
10
1.35962
20
0.200464
11
1.35976
21
0.200448
0
LINE
8
BLACK
6
CONTINUOUS
10
1.35976
20
0.200448
11
1.36351
21
0.198573
0
LINE
8
BLACK
6
CONTINUOUS
10
1.36351
20
0.198573
11
1.36422
21
0.198047
0
LINE
8
BLACK
6
CONTINUOUS
10
1.36422
20
0.198047
11
1.36427
21
0.19802
0
LINE
8
BLACK
6
CONTINUOUS
10
1.36427
20
0.19802
11
1.36802
21
0.19427
0
LINE
8
BLACK
6
CONTINUOUS
10
1.36802
20
0.19427
11
1.36861
21
0.19343
0
LINE
8
BLACK
6
CONTINUOUS
10
1.36861
20
0.19343
11
1.36863
21
0.193254
0
LINE
8
BLACK
6
CONTINUOUS
10
1.36863
20
0.193254
11
1.36874
21
0.193116
0
LINE
8
BLACK
6
CONTINUOUS
10
1.36874
20
0.193116
11
1.37061
21
0.187492
0
LINE
8
BLACK
6
CONTINUOUS
10
1.37061
20
0.187492
11
1.37074
21
0.186618
0
LINE
8
BLACK
6
CONTINUOUS
10
1.37074
20
0.186618
11
1.37076
21
0.186558
0
LINE
8
BLACK
6
CONTINUOUS
10
1.37076
20
0.186558
11
1.37076
21
0.182808
0
LINE
8
BLACK
6
CONTINUOUS
10
1.37076
20
0.182808
11
1.37061
21
0.181939
0
LINE
8
BLACK
6
CONTINUOUS
10
1.37061
20
0.181939
11
1.37061
21
0.181875
0
LINE
8
BLACK
6
CONTINUOUS
10
1.37061
20
0.181875
11
1.36874
21
0.17625
0
LINE
8
BLACK
6
CONTINUOUS
10
1.36874
20
0.17625
11
1.36825
21
0.175349
0
LINE
8
BLACK
6
CONTINUOUS
10
1.36825
20
0.175349
11
1.3681
21
0.175256
0
LINE
8
BLACK
6
CONTINUOUS
10
1.3681
20
0.175256
11
1.36802
21
0.175096
0
LINE
8
BLACK
6
CONTINUOUS
10
1.36802
20
0.175096
11
1.36615
21
0.173221
0
LINE
8
BLACK
6
CONTINUOUS
10
1.36615
20
0.173221
11
1.36531
21
0.172633
0
LINE
8
BLACK
6
CONTINUOUS
10
1.36531
20
0.172633
11
1.3633
21
0.172457
0
LINE
8
BLACK
6
CONTINUOUS
10
1.3633
20
0.172457
11
1.36164
21
0.173616
0
LINE
8
BLACK
6
CONTINUOUS
10
1.36164
20
0.173616
11
1.36112
21
0.175567
0
LINE
8
BLACK
6
CONTINUOUS
10
1.36112
20
0.175567
11
1.36197
21
0.177397
0
LINE
8
BLACK
6
CONTINUOUS
10
1.36197
20
0.177397
11
1.36335
21
0.178779
0
LINE
8
BLACK
6
CONTINUOUS
10
1.36335
20
0.178779
11
1.36486
21
0.183288
0
LINE
8
BLACK
6
CONTINUOUS
10
1.36486
20
0.183288
11
1.36486
21
0.186079
0
LINE
8
BLACK
6
CONTINUOUS
10
1.36486
20
0.186079
11
1.36335
21
0.190587
0
LINE
8
BLACK
6
CONTINUOUS
10
1.36335
20
0.190587
11
1.36044
21
0.193505
0
LINE
8
BLACK
6
CONTINUOUS
10
1.36044
20
0.193505
11
1.35741
21
0.195021
0
LINE
8
BLACK
6
CONTINUOUS
10
1.35741
20
0.195021
11
1.35057
21
0.196729
0
LINE
8
BLACK
6
CONTINUOUS
10
1.35057
20
0.196729
11
1.34568
21
0.196729
0
LINE
8
BLACK
6
CONTINUOUS
10
1.34568
20
0.196729
11
1.33884
21
0.195021
0
LINE
8
BLACK
6
CONTINUOUS
10
1.33884
20
0.195021
11
1.33581
21
0.193505
0
LINE
8
BLACK
6
CONTINUOUS
10
1.33581
20
0.193505
11
1.3329
21
0.190587
0
LINE
8
BLACK
6
CONTINUOUS
10
1.3329
20
0.190587
11
1.33139
21
0.186079
0
LINE
8
BLACK
6
CONTINUOUS
10
1.33139
20
0.186079
11
1.33139
21
0.183288
0
LINE
8
BLACK
6
CONTINUOUS
10
1.33139
20
0.183288
11
1.3329
21
0.178779
0
LINE
8
BLACK
6
CONTINUOUS
10
1.3329
20
0.178779
11
1.33428
21
0.177397
0
LINE
8
BLACK
6
CONTINUOUS
10
1.33428
20
0.177397
11
1.33487
21
0.176557
0
LINE
8
BLACK
6
CONTINUOUS
10
1.33487
20
0.176557
11
1.33504
21
0.174545
0
LINE
8
BLACK
6
CONTINUOUS
10
1.33504
20
0.174545
11
1.33388
21
0.172891
0
LINE
8
BLACK
6
CONTINUOUS
10
1.33388
20
0.172891
11
1.33193
21
0.172368
0
LINE
8
BLACK
6
CONTINUOUS
10
1.33193
20
0.172368
11
1.3301
21
0.173221
0
LINE
8
BLACK
6
CONTINUOUS
10
1.3301
20
0.173221
11
1.32823
21
0.175096
0
LINE
8
BLACK
6
CONTINUOUS
10
1.32823
20
0.175096
11
1.32764
21
0.175936
0
LINE
8
BLACK
6
CONTINUOUS
10
1.32764
20
0.175936
11
1.32762
21
0.176112
0
LINE
8
BLACK
6
CONTINUOUS
10
1.32762
20
0.176112
11
1.32751
21
0.17625
0
LINE
8
BLACK
6
CONTINUOUS
10
1.32751
20
0.17625
11
1.32564
21
0.181875
0
LINE
8
BLACK
6
CONTINUOUS
10
1.32564
20
0.181875
11
1.32551
21
0.182748
0
LINE
8
BLACK
6
CONTINUOUS
10
1.32551
20
0.182748
11
1.32549
21
0.182808
0
LINE
8
BLACK
6
CONTINUOUS
10
1.32549
20
0.182808
11
1.32549
21
0.186558
0
LINE
8
BLACK
6
CONTINUOUS
10
1.32549
20
0.186558
11
1.32564
21
0.187427
0
LINE
8
BLACK
6
CONTINUOUS
10
1.32564
20
0.187427
11
1.32564
21
0.187492
0
LINE
8
BLACK
6
CONTINUOUS
10
1.32564
20
0.187492
11
1.32751
21
0.193116
0
LINE
8
BLACK
6
CONTINUOUS
10
1.32751
20
0.193116
11
1.328
21
0.194018
0
LINE
8
BLACK
6
CONTINUOUS
10
1.328
20
0.194018
11
1.32815
21
0.19411
0
LINE
8
BLACK
6
CONTINUOUS
10
1.32815
20
0.19411
11
1.32823
21
0.19427
0
LINE
8
BLACK
6
CONTINUOUS
10
1.32823
20
0.19427
11
1.33198
21
0.19802
0
LINE
8
BLACK
6
CONTINUOUS
10
1.33198
20
0.19802
11
1.3327
21
0.198526
0
LINE
8
BLACK
6
CONTINUOUS
10
1.3327
20
0.198526
11
1.33274
21
0.198573
0
LINE
8
BLACK
6
CONTINUOUS
10
1.33274
20
0.198573
11
1.33649
21
0.200448
0
LINE
8
BLACK
6
CONTINUOUS
10
1.33649
20
0.200448
11
1.33698
21
0.200593
0
LINE
8
BLACK
6
CONTINUOUS
10
1.33698
20
0.200593
11
1.3371
21
0.200671
0
LINE
8
BLACK
6
CONTINUOUS
10
1.3371
20
0.200671
11
1.3446
21
0.202546
0
LINE
8
BLACK
6
CONTINUOUS
10
1.3446
20
0.202546
11
1.34518
21
0.202587
0
LINE
8
BLACK
6
CONTINUOUS
10
1.34518
20
0.202587
11
1.34531
21
0.202634
0
LINE
8
BLACK
6
CONTINUOUS
10
1.34531
20
0.202634
11
1.35094
21
0.202634
0
LINE
8
BLACK
6
CONTINUOUS
10
1.35094
20
0.202634
11
1.35152
21
0.202532
0
LINE
8
BLACK
6
CONTINUOUS
10
0.56601
20
0.178621
11
0.567557
21
0.177323
0
LINE
8
BLACK
6
CONTINUOUS
10
0.567557
20
0.177323
11
0.567908
21
0.175334
0
LINE
8
BLACK
6
CONTINUOUS
10
0.567908
20
0.175334
11
0.566898
21
0.173585
0
LINE
8
BLACK
6
CONTINUOUS
10
0.566898
20
0.173585
11
0.565
21
0.172894
0
LINE
8
BLACK
6
CONTINUOUS
10
0.565
20
0.172894
11
0.505
21
0.172894
0
LINE
8
BLACK
6
CONTINUOUS
10
0.505
20
0.172894
11
0.50399
21
0.173072
0
LINE
8
BLACK
6
CONTINUOUS
10
0.50399
20
0.173072
11
0.502443
21
0.17437
0
LINE
8
BLACK
6
CONTINUOUS
10
0.502443
20
0.17437
11
0.502092
21
0.176359
0
LINE
8
BLACK
6
CONTINUOUS
10
0.502092
20
0.176359
11
0.503102
21
0.178108
0
LINE
8
BLACK
6
CONTINUOUS
10
0.503102
20
0.178108
11
0.505
21
0.178799
0
LINE
8
BLACK
6
CONTINUOUS
10
0.505
20
0.178799
11
0.565
21
0.178799
0
LINE
8
BLACK
6
CONTINUOUS
10
0.565
20
0.178799
11
0.56601
21
0.178621
0
LINE
8
BLACK
6
CONTINUOUS
10
0.37601
20
0.178621
11
0.377557
21
0.177323
0
LINE
8
BLACK
6
CONTINUOUS
10
0.377557
20
0.177323
11
0.377908
21
0.175334
0
LINE
8
BLACK
6
CONTINUOUS
10
0.377908
20
0.175334
11
0.376898
21
0.173585
0
LINE
8
BLACK
6
CONTINUOUS
10
0.376898
20
0.173585
11
0.375
21
0.172894
0
LINE
8
BLACK
6
CONTINUOUS
10
0.375
20
0.172894
11
0.315
21
0.172894
0
LINE
8
BLACK
6
CONTINUOUS
10
0.315
20
0.172894
11
0.31399
21
0.173072
0
LINE
8
BLACK
6
CONTINUOUS
10
0.31399
20
0.173072
11
0.312443
21
0.17437
0
LINE
8
BLACK
6
CONTINUOUS
10
0.312443
20
0.17437
11
0.312092
21
0.176359
0
LINE
8
BLACK
6
CONTINUOUS
10
0.312092
20
0.176359
11
0.313102
21
0.178108
0
LINE
8
BLACK
6
CONTINUOUS
10
0.313102
20
0.178108
11
0.315
21
0.178799
0
LINE
8
BLACK
6
CONTINUOUS
10
0.315
20
0.178799
11
0.375
21
0.178799
0
LINE
8
BLACK
6
CONTINUOUS
10
0.375
20
0.178799
11
0.37601
21
0.178621
0
LINE
8
BLACK
6
CONTINUOUS
10
0.46601
20
0.178621
11
0.467557
21
0.177323
0
LINE
8
BLACK
6
CONTINUOUS
10
0.467557
20
0.177323
11
0.467908
21
0.175334
0
LINE
8
BLACK
6
CONTINUOUS
10
0.467908
20
0.175334
11
0.466898
21
0.173585
0
LINE
8
BLACK
6
CONTINUOUS
10
0.466898
20
0.173585
11
0.465
21
0.172894
0
LINE
8
BLACK
6
CONTINUOUS
10
0.465
20
0.172894
11
0.405
21
0.172894
0
LINE
8
BLACK
6
CONTINUOUS
10
0.405
20
0.172894
11
0.40399
21
0.173072
0
LINE
8
BLACK
6
CONTINUOUS
10
0.40399
20
0.173072
11
0.402443
21
0.17437
0
LINE
8
BLACK
6
CONTINUOUS
10
0.402443
20
0.17437
11
0.402092
21
0.176359
0
LINE
8
BLACK
6
CONTINUOUS
10
0.402092
20
0.176359
11
0.403102
21
0.178108
0
LINE
8
BLACK
6
CONTINUOUS
10
0.403102
20
0.178108
11
0.405
21
0.178799
0
LINE
8
BLACK
6
CONTINUOUS
10
0.405
20
0.178799
11
0.465
21
0.178799
0
LINE
8
BLACK
6
CONTINUOUS
10
0.465
20
0.178799
11
0.46601
21
0.178621
0
LINE
8
BLACK
6
CONTINUOUS
10
1.19101
20
0.186475
11
1.19256
21
0.185177
0
LINE
8
BLACK
6
CONTINUOUS
10
1.19256
20
0.185177
11
1.19291
21
0.183188
0
LINE
8
BLACK
6
CONTINUOUS
10
1.19291
20
0.183188
11
1.1919
21
0.181439
0
LINE
8
BLACK
6
CONTINUOUS
10
1.1919
20
0.181439
11
1.19
21
0.180748
0
LINE
8
BLACK
6
CONTINUOUS
10
1.19
20
0.180748
11
1.13
21
0.180748
0
LINE
8
BLACK
6
CONTINUOUS
10
1.13
20
0.180748
11
1.12899
21
0.180926
0
LINE
8
BLACK
6
CONTINUOUS
10
1.12899
20
0.180926
11
1.12744
21
0.182224
0
LINE
8
BLACK
6
CONTINUOUS
10
1.12744
20
0.182224
11
1.12709
21
0.184214
0
LINE
8
BLACK
6
CONTINUOUS
10
1.12709
20
0.184214
11
1.1281
21
0.185963
0
LINE
8
BLACK
6
CONTINUOUS
10
1.1281
20
0.185963
11
1.13
21
0.186654
0
LINE
8
BLACK
6
CONTINUOUS
10
1.13
20
0.186654
11
1.19
21
0.186654
0
LINE
8
BLACK
6
CONTINUOUS
10
1.19
20
0.186654
11
1.19101
21
0.186475
0
LINE
8
BLACK
6
CONTINUOUS
10
0.259796
20
0.192284
11
0.260488
21
0.190614
0
LINE
8
BLACK
6
CONTINUOUS
10
0.260488
20
0.190614
11
0.259796
21
0.188944
0
LINE
8
BLACK
6
CONTINUOUS
10
0.259796
20
0.188944
11
0.258126
21
0.188252
0
LINE
8
BLACK
6
CONTINUOUS
10
0.258126
20
0.188252
11
0.18726
21
0.188252
0
LINE
8
BLACK
6
CONTINUOUS
10
0.18726
20
0.188252
11
0.18559
21
0.188944
0
LINE
8
BLACK
6
CONTINUOUS
10
0.18559
20
0.188944
11
0.184898
21
0.190614
0
LINE
8
BLACK
6
CONTINUOUS
10
0.184898
20
0.190614
11
0.18559
21
0.192284
0
LINE
8
BLACK
6
CONTINUOUS
10
0.18559
20
0.192284
11
0.18726
21
0.192976
0
LINE
8
BLACK
6
CONTINUOUS
10
0.18726
20
0.192976
11
0.258126
21
0.192976
0
LINE
8
BLACK
6
CONTINUOUS
10
0.258126
20
0.192976
11
0.259796
21
0.192284
0
LINE
8
BLACK
6
CONTINUOUS
10
0.12301
20
0.195275
11
0.124557
21
0.193976
0
LINE
8
BLACK
6
CONTINUOUS
10
0.124557
20
0.193976
11
0.124908
21
0.191987
0
LINE
8
BLACK
6
CONTINUOUS
10
0.124908
20
0.191987
11
0.123898
21
0.190238
0
LINE
8
BLACK
6
CONTINUOUS
10
0.123898
20
0.190238
11
0.122
21
0.189547
0
LINE
8
BLACK
6
CONTINUOUS
10
0.122
20
0.189547
11
0.062
21
0.189547
0
LINE
8
BLACK
6
CONTINUOUS
10
0.062
20
0.189547
11
0.0609901
21
0.189725
0
LINE
8
BLACK
6
CONTINUOUS
10
0.0609901
20
0.189725
11
0.0594428
21
0.191024
0
LINE
8
BLACK
6
CONTINUOUS
10
0.0594428
20
0.191024
11
0.0590921
21
0.193013
0
LINE
8
BLACK
6
CONTINUOUS
10
0.0590921
20
0.193013
11
0.060102
21
0.194762
0
LINE
8
BLACK
6
CONTINUOUS
10
0.060102
20
0.194762
11
0.062
21
0.195453
0
LINE
8
BLACK
6
CONTINUOUS
10
0.062
20
0.195453
11
0.122
21
0.195453
0
LINE
8
BLACK
6
CONTINUOUS
10
0.122
20
0.195453
11
0.12301
21
0.195275
0
LINE
8
BLACK
6
CONTINUOUS
10
1.13167
20
0.260371
11
1.13236
21
0.258701
0
LINE
8
BLACK
6
CONTINUOUS
10
1.13236
20
0.258701
11
1.13236
21
0.228701
0
LINE
8
BLACK
6
CONTINUOUS
10
1.13236
20
0.228701
11
1.13167
21
0.22703
0
LINE
8
BLACK
6
CONTINUOUS
10
1.13167
20
0.22703
11
1.13
21
0.226339
0
LINE
8
BLACK
6
CONTINUOUS
10
1.13
20
0.226339
11
1.12833
21
0.22703
0
LINE
8
BLACK
6
CONTINUOUS
10
1.12833
20
0.22703
11
1.12764
21
0.228701
0
LINE
8
BLACK
6
CONTINUOUS
10
1.12764
20
0.228701
11
1.12764
21
0.258701
0
LINE
8
BLACK
6
CONTINUOUS
10
1.12764
20
0.258701
11
1.12833
21
0.260371
0
LINE
8
BLACK
6
CONTINUOUS
10
1.12833
20
0.260371
11
1.13
21
0.261063
0
LINE
8
BLACK
6
CONTINUOUS
10
1.13
20
0.261063
11
1.13167
21
0.260371
0
LINE
8
BLACK
6
CONTINUOUS
10
1.19167
20
0.260371
11
1.19236
21
0.258701
0
LINE
8
BLACK
6
CONTINUOUS
10
1.19236
20
0.258701
11
1.19236
21
0.228701
0
LINE
8
BLACK
6
CONTINUOUS
10
1.19236
20
0.228701
11
1.19167
21
0.22703
0
LINE
8
BLACK
6
CONTINUOUS
10
1.19167
20
0.22703
11
1.19
21
0.226339
0
LINE
8
BLACK
6
CONTINUOUS
10
1.19
20
0.226339
11
1.18833
21
0.22703
0
LINE
8
BLACK
6
CONTINUOUS
10
1.18833
20
0.22703
11
1.18764
21
0.228701
0
LINE
8
BLACK
6
CONTINUOUS
10
1.18764
20
0.228701
11
1.18764
21
0.258701
0
LINE
8
BLACK
6
CONTINUOUS
10
1.18764
20
0.258701
11
1.18833
21
0.260371
0
LINE
8
BLACK
6
CONTINUOUS
10
1.18833
20
0.260371
11
1.19
21
0.261063
0
LINE
8
BLACK
6
CONTINUOUS
10
1.19
20
0.261063
11
1.19167
21
0.260371
0
LINE
8
BLACK
6
CONTINUOUS
10
0.12367
20
0.26917
11
0.124362
21
0.2675
0
LINE
8
BLACK
6
CONTINUOUS
10
0.124362
20
0.2675
11
0.124362
21
0.2375
0
LINE
8
BLACK
6
CONTINUOUS
10
0.124362
20
0.2375
11
0.12367
21
0.23583
0
LINE
8
BLACK
6
CONTINUOUS
10
0.12367
20
0.23583
11
0.122
21
0.235138
0
LINE
8
BLACK
6
CONTINUOUS
10
0.122
20
0.235138
11
0.12033
21
0.23583
0
LINE
8
BLACK
6
CONTINUOUS
10
0.12033
20
0.23583
11
0.119638
21
0.2375
0
LINE
8
BLACK
6
CONTINUOUS
10
0.119638
20
0.2375
11
0.119638
21
0.2675
0
LINE
8
BLACK
6
CONTINUOUS
10
0.119638
20
0.2675
11
0.12033
21
0.26917
0
LINE
8
BLACK
6
CONTINUOUS
10
0.12033
20
0.26917
11
0.122
21
0.269862
0
LINE
8
BLACK
6
CONTINUOUS
10
0.122
20
0.269862
11
0.12367
21
0.26917
0
LINE
8
BLACK
6
CONTINUOUS
10
0.0636703
20
0.26917
11
0.0643622
21
0.2675
0
LINE
8
BLACK
6
CONTINUOUS
10
0.0643622
20
0.2675
11
0.0643622
21
0.2375
0
LINE
8
BLACK
6
CONTINUOUS
10
0.0643622
20
0.2375
11
0.0636703
21
0.23583
0
LINE
8
BLACK
6
CONTINUOUS
10
0.0636703
20
0.23583
11
0.062
21
0.235138
0
LINE
8
BLACK
6
CONTINUOUS
10
0.062
20
0.235138
11
0.0603297
21
0.23583
0
LINE
8
BLACK
6
CONTINUOUS
10
0.0603297
20
0.23583
11
0.0596378
21
0.2375
0
LINE
8
BLACK
6
CONTINUOUS
10
0.0596378
20
0.2375
11
0.0596378
21
0.2675
0
LINE
8
BLACK
6
CONTINUOUS
10
0.0596378
20
0.2675
11
0.0603297
21
0.26917
0
LINE
8
BLACK
6
CONTINUOUS
10
0.0603297
20
0.26917
11
0.062
21
0.269862
0
LINE
8
BLACK
6
CONTINUOUS
10
0.062
20
0.269862
11
0.0636703
21
0.26917
0
LINE
8
BLACK
6
CONTINUOUS
10
1.72145
20
0.308622
11
1.72256
21
0.306936
0
LINE
8
BLACK
6
CONTINUOUS
10
1.72256
20
0.306936
11
1.72233
21
0.30493
0
LINE
8
BLACK
6
CONTINUOUS
10
1.72233
20
0.30493
11
1.72046
21
0.30118
0
LINE
8
BLACK
6
CONTINUOUS
10
1.72046
20
0.30118
11
1.71993
21
0.300471
0
LINE
8
BLACK
6
CONTINUOUS
10
1.71993
20
0.300471
11
1.7199
21
0.300413
0
LINE
8
BLACK
6
CONTINUOUS
10
1.7199
20
0.300413
11
1.71744
21
0.297955
0
LINE
8
BLACK
6
CONTINUOUS
10
1.71744
20
0.297955
11
1.74486
21
0.297955
0
LINE
8
BLACK
6
CONTINUOUS
10
1.74486
20
0.297955
11
1.74486
21
0.30625
0
LINE
8
BLACK
6
CONTINUOUS
10
1.74486
20
0.30625
11
1.74504
21
0.30726
0
LINE
8
BLACK
6
CONTINUOUS
10
1.74504
20
0.30726
11
1.74633
21
0.308808
0
LINE
8
BLACK
6
CONTINUOUS
10
1.74633
20
0.308808
11
1.74832
21
0.309158
0
LINE
8
BLACK
6
CONTINUOUS
10
1.74832
20
0.309158
11
1.75007
21
0.308148
0
LINE
8
BLACK
6
CONTINUOUS
10
1.75007
20
0.308148
11
1.75076
21
0.30625
0
LINE
8
BLACK
6
CONTINUOUS
10
1.75076
20
0.30625
11
1.75076
21
0.283753
0
LINE
8
BLACK
6
CONTINUOUS
10
1.75076
20
0.283753
11
1.75058
21
0.282743
0
LINE
8
BLACK
6
CONTINUOUS
10
1.75058
20
0.282743
11
1.74929
21
0.281196
0
LINE
8
BLACK
6
CONTINUOUS
10
1.74929
20
0.281196
11
1.7473
21
0.280845
0
LINE
8
BLACK
6
CONTINUOUS
10
1.7473
20
0.280845
11
1.74555
21
0.281855
0
LINE
8
BLACK
6
CONTINUOUS
10
1.74555
20
0.281855
11
1.74486
21
0.283753
0
LINE
8
BLACK
6
CONTINUOUS
10
1.74486
20
0.283753
11
1.74486
21
0.292049
0
LINE
8
BLACK
6
CONTINUOUS
10
1.74486
20
0.292049
11
1.70844
21
0.292049
0
LINE
8
BLACK
6
CONTINUOUS
10
1.70844
20
0.292049
11
1.70743
21
0.292227
0
LINE
8
BLACK
6
CONTINUOUS
10
1.70743
20
0.292227
11
1.7073
21
0.292336
0
LINE
8
BLACK
6
CONTINUOUS
10
1.7073
20
0.292336
11
1.70713
21
0.292355
0
LINE
8
BLACK
6
CONTINUOUS
10
1.70713
20
0.292355
11
1.70654
21
0.292975
0
LINE
8
BLACK
6
CONTINUOUS
10
1.70654
20
0.292975
11
1.70588
21
0.293525
0
LINE
8
BLACK
6
CONTINUOUS
10
1.70588
20
0.293525
11
1.70585
21
0.293693
0
LINE
8
BLACK
6
CONTINUOUS
10
1.70585
20
0.293693
11
1.70574
21
0.293815
0
LINE
8
BLACK
6
CONTINUOUS
10
1.70574
20
0.293815
11
1.70568
21
0.294671
0
LINE
8
BLACK
6
CONTINUOUS
10
1.70568
20
0.294671
11
1.70553
21
0.295515
0
LINE
8
BLACK
6
CONTINUOUS
10
1.70553
20
0.295515
11
1.70562
21
0.295662
0
LINE
8
BLACK
6
CONTINUOUS
10
1.70562
20
0.295662
11
1.70561
21
0.295831
0
LINE
8
BLACK
6
CONTINUOUS
10
1.70561
20
0.295831
11
1.70611
21
0.296521
0
LINE
8
BLACK
6
CONTINUOUS
10
1.70611
20
0.296521
11
1.70654
21
0.297264
0
LINE
8
BLACK
6
CONTINUOUS
10
1.70654
20
0.297264
11
1.7067
21
0.297322
0
LINE
8
BLACK
6
CONTINUOUS
10
1.7067
20
0.297322
11
1.7068
21
0.297459
0
LINE
8
BLACK
6
CONTINUOUS
10
1.7068
20
0.297459
11
1.71218
21
0.301046
0
LINE
8
BLACK
6
CONTINUOUS
10
1.71218
20
0.301046
11
1.71539
21
0.30425
0
LINE
8
BLACK
6
CONTINUOUS
10
1.71539
20
0.30425
11
1.71705
21
0.307571
0
LINE
8
BLACK
6
CONTINUOUS
10
1.71705
20
0.307571
11
1.71766
21
0.308395
0
LINE
8
BLACK
6
CONTINUOUS
10
1.71766
20
0.308395
11
1.71951
21
0.309198
0
LINE
8
BLACK
6
CONTINUOUS
10
1.71951
20
0.309198
11
1.72145
21
0.308622
0
LINE
8
BLACK
6
CONTINUOUS
10
1.31736
20
0.314935
11
1.31805
21
0.313037
0
LINE
8
BLACK
6
CONTINUOUS
10
1.31805
20
0.313037
11
1.31805
21
0.291268
0
LINE
8
BLACK
6
CONTINUOUS
10
1.31805
20
0.291268
11
1.3533
21
0.306377
0
LINE
8
BLACK
6
CONTINUOUS
10
1.3533
20
0.306377
11
1.3543
21
0.306611
0
LINE
8
BLACK
6
CONTINUOUS
10
1.3543
20
0.306611
11
1.35623
21
0.306028
0
LINE
8
BLACK
6
CONTINUOUS
10
1.35623
20
0.306028
11
1.35734
21
0.304337
0
LINE
8
BLACK
6
CONTINUOUS
10
1.35734
20
0.304337
11
1.3571
21
0.302332
0
LINE
8
BLACK
6
CONTINUOUS
10
1.3571
20
0.302332
11
1.35563
21
0.300949
0
LINE
8
BLACK
6
CONTINUOUS
10
1.35563
20
0.300949
11
1.31626
21
0.284076
0
LINE
8
BLACK
6
CONTINUOUS
10
1.31626
20
0.284076
11
1.31526
21
0.283842
0
LINE
8
BLACK
6
CONTINUOUS
10
1.31526
20
0.283842
11
1.31492
21
0.283943
0
LINE
8
BLACK
6
CONTINUOUS
10
1.31492
20
0.283943
11
1.31458
21
0.283882
0
LINE
8
BLACK
6
CONTINUOUS
10
1.31458
20
0.283882
11
1.31398
21
0.284227
0
LINE
8
BLACK
6
CONTINUOUS
10
1.31398
20
0.284227
11
1.31332
21
0.284426
0
LINE
8
BLACK
6
CONTINUOUS
10
1.31332
20
0.284426
11
1.31313
21
0.284718
0
LINE
8
BLACK
6
CONTINUOUS
10
1.31313
20
0.284718
11
1.31283
21
0.284892
0
LINE
8
BLACK
6
CONTINUOUS
10
1.31283
20
0.284892
11
1.3126
21
0.28554
0
LINE
8
BLACK
6
CONTINUOUS
10
1.3126
20
0.28554
11
1.31222
21
0.286116
0
LINE
8
BLACK
6
CONTINUOUS
10
1.31222
20
0.286116
11
1.31226
21
0.286463
0
LINE
8
BLACK
6
CONTINUOUS
10
1.31226
20
0.286463
11
1.31214
21
0.28679
0
LINE
8
BLACK
6
CONTINUOUS
10
1.31214
20
0.28679
11
1.31214
21
0.313037
0
LINE
8
BLACK
6
CONTINUOUS
10
1.31214
20
0.313037
11
1.31232
21
0.314047
0
LINE
8
BLACK
6
CONTINUOUS
10
1.31232
20
0.314047
11
1.31362
21
0.315594
0
LINE
8
BLACK
6
CONTINUOUS
10
1.31362
20
0.315594
11
1.31561
21
0.315945
0
LINE
8
BLACK
6
CONTINUOUS
10
1.31561
20
0.315945
11
1.31736
21
0.314935
0
LINE
8
BLACK
6
CONTINUOUS
10
1.19101
20
0.306475
11
1.19256
21
0.305177
0
LINE
8
BLACK
6
CONTINUOUS
10
1.19256
20
0.305177
11
1.19291
21
0.303188
0
LINE
8
BLACK
6
CONTINUOUS
10
1.19291
20
0.303188
11
1.1919
21
0.301439
0
LINE
8
BLACK
6
CONTINUOUS
10
1.1919
20
0.301439
11
1.19
21
0.300748
0
LINE
8
BLACK
6
CONTINUOUS
10
1.19
20
0.300748
11
1.13
21
0.300748
0
LINE
8
BLACK
6
CONTINUOUS
10
1.13
20
0.300748
11
1.12899
21
0.300926
0
LINE
8
BLACK
6
CONTINUOUS
10
1.12899
20
0.300926
11
1.12744
21
0.302224
0
LINE
8
BLACK
6
CONTINUOUS
10
1.12744
20
0.302224
11
1.12709
21
0.304214
0
LINE
8
BLACK
6
CONTINUOUS
10
1.12709
20
0.304214
11
1.1281
21
0.305963
0
LINE
8
BLACK
6
CONTINUOUS
10
1.1281
20
0.305963
11
1.13
21
0.306654
0
LINE
8
BLACK
6
CONTINUOUS
10
1.13
20
0.306654
11
1.19
21
0.306654
0
LINE
8
BLACK
6
CONTINUOUS
10
1.19
20
0.306654
11
1.19101
21
0.306475
0
LINE
8
BLACK
6
CONTINUOUS
10
0.12301
20
0.315275
11
0.124557
21
0.313976
0
LINE
8
BLACK
6
CONTINUOUS
10
0.124557
20
0.313976
11
0.124908
21
0.311987
0
LINE
8
BLACK
6
CONTINUOUS
10
0.124908
20
0.311987
11
0.123898
21
0.310238
0
LINE
8
BLACK
6
CONTINUOUS
10
0.123898
20
0.310238
11
0.122
21
0.309547
0
LINE
8
BLACK
6
CONTINUOUS
10
0.122
20
0.309547
11
0.062
21
0.309547
0
LINE
8
BLACK
6
CONTINUOUS
10
0.062
20
0.309547
11
0.0609901
21
0.309725
0
LINE
8
BLACK
6
CONTINUOUS
10
0.0609901
20
0.309725
11
0.0594428
21
0.311024
0
LINE
8
BLACK
6
CONTINUOUS
10
0.0594428
20
0.311024
11
0.0590921
21
0.313013
0
LINE
8
BLACK
6
CONTINUOUS
10
0.0590921
20
0.313013
11
0.060102
21
0.314762
0
LINE
8
BLACK
6
CONTINUOUS
10
0.060102
20
0.314762
11
0.062
21
0.315453
0
LINE
8
BLACK
6
CONTINUOUS
10
0.062
20
0.315453
11
0.122
21
0.315453
0
LINE
8
BLACK
6
CONTINUOUS
10
0.122
20
0.315453
11
0.12301
21
0.315275
0
LINE
8
BLACK
6
CONTINUOUS
10
1.23084
20
0.36372
11
1.23154
21
0.36205
0
LINE
8
BLACK
6
CONTINUOUS
10
1.23154
20
0.36205
11
1.23154
21
0.314643
0
LINE
8
BLACK
6
CONTINUOUS
10
1.23154
20
0.314643
11
1.23084
21
0.312973
0
LINE
8
BLACK
6
CONTINUOUS
10
1.23084
20
0.312973
11
1.22917
21
0.312281
0
LINE
8
BLACK
6
CONTINUOUS
10
1.22917
20
0.312281
11
1.2275
21
0.312973
0
LINE
8
BLACK
6
CONTINUOUS
10
1.2275
20
0.312973
11
1.22681
21
0.314643
0
LINE
8
BLACK
6
CONTINUOUS
10
1.22681
20
0.314643
11
1.22681
21
0.36205
0
LINE
8
BLACK
6
CONTINUOUS
10
1.22681
20
0.36205
11
1.2275
21
0.36372
0
LINE
8
BLACK
6
CONTINUOUS
10
1.2275
20
0.36372
11
1.22917
21
0.364412
0
LINE
8
BLACK
6
CONTINUOUS
10
1.22917
20
0.364412
11
1.23084
21
0.36372
0
LINE
8
BLACK
6
CONTINUOUS
10
1.3025
20
0.36372
11
1.30319
21
0.36205
0
LINE
8
BLACK
6
CONTINUOUS
10
1.30319
20
0.36205
11
1.30319
21
0.314643
0
LINE
8
BLACK
6
CONTINUOUS
10
1.30319
20
0.314643
11
1.3025
21
0.312973
0
LINE
8
BLACK
6
CONTINUOUS
10
1.3025
20
0.312973
11
1.30083
21
0.312281
0
LINE
8
BLACK
6
CONTINUOUS
10
1.30083
20
0.312281
11
1.29916
21
0.312973
0
LINE
8
BLACK
6
CONTINUOUS
10
1.29916
20
0.312973
11
1.29846
21
0.314643
0
LINE
8
BLACK
6
CONTINUOUS
10
1.29846
20
0.314643
11
1.29846
21
0.36205
0
LINE
8
BLACK
6
CONTINUOUS
10
1.29846
20
0.36205
11
1.29916
21
0.36372
0
LINE
8
BLACK
6
CONTINUOUS
10
1.29916
20
0.36372
11
1.30083
21
0.364412
0
LINE
8
BLACK
6
CONTINUOUS
10
1.30083
20
0.364412
11
1.3025
21
0.36372
0
LINE
8
BLACK
6
CONTINUOUS
10
0.285387
20
0.319056
11
0.286079
21
0.317386
0
LINE
8
BLACK
6
CONTINUOUS
10
0.286079
20
0.317386
11
0.285387
21
0.315716
0
LINE
8
BLACK
6
CONTINUOUS
10
0.285387
20
0.315716
11
0.283717
21
0.315024
0
LINE
8
BLACK
6
CONTINUOUS
10
0.283717
20
0.315024
11
0.18726
21
0.315024
0
LINE
8
BLACK
6
CONTINUOUS
10
0.18726
20
0.315024
11
0.18559
21
0.315716
0
LINE
8
BLACK
6
CONTINUOUS
10
0.18559
20
0.315716
11
0.184898
21
0.317386
0
LINE
8
BLACK
6
CONTINUOUS
10
0.184898
20
0.317386
11
0.18559
21
0.319056
0
LINE
8
BLACK
6
CONTINUOUS
10
0.18559
20
0.319056
11
0.18726
21
0.319748
0
LINE
8
BLACK
6
CONTINUOUS
10
0.18726
20
0.319748
11
0.283717
21
0.319748
0
LINE
8
BLACK
6
CONTINUOUS
10
0.283717
20
0.319748
11
0.285387
21
0.319056
0
LINE
8
BLACK
6
CONTINUOUS
10
1.75007
20
0.340019
11
1.75076
21
0.338121
0
LINE
8
BLACK
6
CONTINUOUS
10
1.75076
20
0.338121
11
1.75076
21
0.334372
0
LINE
8
BLACK
6
CONTINUOUS
10
1.75076
20
0.334372
11
1.75061
21
0.333503
0
LINE
8
BLACK
6
CONTINUOUS
10
1.75061
20
0.333503
11
1.75061
21
0.333438
0
LINE
8
BLACK
6
CONTINUOUS
10
1.75061
20
0.333438
11
1.74874
21
0.327814
0
LINE
8
BLACK
6
CONTINUOUS
10
1.74874
20
0.327814
11
1.74825
21
0.326912
0
LINE
8
BLACK
6
CONTINUOUS
10
1.74825
20
0.326912
11
1.7481
21
0.32682
0
LINE
8
BLACK
6
CONTINUOUS
10
1.7481
20
0.32682
11
1.74802
21
0.32666
0
LINE
8
BLACK
6
CONTINUOUS
10
1.74802
20
0.32666
11
1.74427
21
0.32291
0
LINE
8
BLACK
6
CONTINUOUS
10
1.74427
20
0.32291
11
1.74343
21
0.322322
0
LINE
8
BLACK
6
CONTINUOUS
10
1.74343
20
0.322322
11
1.74326
21
0.322307
0
LINE
8
BLACK
6
CONTINUOUS
10
1.74326
20
0.322307
11
1.74312
21
0.322197
0
LINE
8
BLACK
6
CONTINUOUS
10
1.74312
20
0.322197
11
1.7375
21
0.320322
0
LINE
8
BLACK
6
CONTINUOUS
10
1.7375
20
0.320322
11
1.73662
21
0.320193
0
LINE
8
BLACK
6
CONTINUOUS
10
1.73662
20
0.320193
11
1.73656
21
0.320171
0
LINE
8
BLACK
6
CONTINUOUS
10
1.73656
20
0.320171
11
1.70844
21
0.320171
0
LINE
8
BLACK
6
CONTINUOUS
10
1.70844
20
0.320171
11
1.70743
21
0.320349
0
LINE
8
BLACK
6
CONTINUOUS
10
1.70743
20
0.320349
11
1.70588
21
0.321647
0
LINE
8
BLACK
6
CONTINUOUS
10
1.70588
20
0.321647
11
1.70553
21
0.323636
0
LINE
8
BLACK
6
CONTINUOUS
10
1.70553
20
0.323636
11
1.70654
21
0.325385
0
LINE
8
BLACK
6
CONTINUOUS
10
1.70654
20
0.325385
11
1.70844
21
0.326076
0
LINE
8
BLACK
6
CONTINUOUS
10
1.70844
20
0.326076
11
1.73608
21
0.326076
0
LINE
8
BLACK
6
CONTINUOUS
10
1.73608
20
0.326076
11
1.74059
21
0.327579
0
LINE
8
BLACK
6
CONTINUOUS
10
1.74059
20
0.327579
11
1.74335
21
0.330343
0
LINE
8
BLACK
6
CONTINUOUS
10
1.74335
20
0.330343
11
1.74486
21
0.334851
0
LINE
8
BLACK
6
CONTINUOUS
10
1.74486
20
0.334851
11
1.74486
21
0.338121
0
LINE
8
BLACK
6
CONTINUOUS
10
1.74486
20
0.338121
11
1.74504
21
0.339131
0
LINE
8
BLACK
6
CONTINUOUS
10
1.74504
20
0.339131
11
1.74633
21
0.340679
0
LINE
8
BLACK
6
CONTINUOUS
10
1.74633
20
0.340679
11
1.74832
21
0.341029
0
LINE
8
BLACK
6
CONTINUOUS
10
1.74832
20
0.341029
11
1.75007
21
0.340019
0
LINE
8
BLACK
6
CONTINUOUS
10
1.3281
20
0.351029
11
1.32921
21
0.349344
0
LINE
8
BLACK
6
CONTINUOUS
10
1.32921
20
0.349344
11
1.32898
21
0.347337
0
LINE
8
BLACK
6
CONTINUOUS
10
1.32898
20
0.347337
11
1.32711
21
0.343588
0
LINE
8
BLACK
6
CONTINUOUS
10
1.32711
20
0.343588
11
1.32658
21
0.342879
0
LINE
8
BLACK
6
CONTINUOUS
10
1.32658
20
0.342879
11
1.32656
21
0.34282
0
LINE
8
BLACK
6
CONTINUOUS
10
1.32656
20
0.34282
11
1.3241
21
0.340362
0
LINE
8
BLACK
6
CONTINUOUS
10
1.3241
20
0.340362
11
1.35151
21
0.340362
0
LINE
8
BLACK
6
CONTINUOUS
10
1.35151
20
0.340362
11
1.35151
21
0.348658
0
LINE
8
BLACK
6
CONTINUOUS
10
1.35151
20
0.348658
11
1.35169
21
0.349668
0
LINE
8
BLACK
6
CONTINUOUS
10
1.35169
20
0.349668
11
1.35299
21
0.351215
0
LINE
8
BLACK
6
CONTINUOUS
10
1.35299
20
0.351215
11
1.35498
21
0.351566
0
LINE
8
BLACK
6
CONTINUOUS
10
1.35498
20
0.351566
11
1.35673
21
0.350556
0
LINE
8
BLACK
6
CONTINUOUS
10
1.35673
20
0.350556
11
1.35742
21
0.348658
0
LINE
8
BLACK
6
CONTINUOUS
10
1.35742
20
0.348658
11
1.35742
21
0.32616
0
LINE
8
BLACK
6
CONTINUOUS
10
1.35742
20
0.32616
11
1.35724
21
0.325151
0
LINE
8
BLACK
6
CONTINUOUS
10
1.35724
20
0.325151
11
1.35594
21
0.323603
0
LINE
8
BLACK
6
CONTINUOUS
10
1.35594
20
0.323603
11
1.35395
21
0.323253
0
LINE
8
BLACK
6
CONTINUOUS
10
1.35395
20
0.323253
11
1.3522
21
0.324262
0
LINE
8
BLACK
6
CONTINUOUS
10
1.3522
20
0.324262
11
1.35151
21
0.32616
0
LINE
8
BLACK
6
CONTINUOUS
10
1.35151
20
0.32616
11
1.35151
21
0.334456
0
LINE
8
BLACK
6
CONTINUOUS
10
1.35151
20
0.334456
11
1.31509
21
0.334456
0
LINE
8
BLACK
6
CONTINUOUS
10
1.31509
20
0.334456
11
1.31408
21
0.334634
0
LINE
8
BLACK
6
CONTINUOUS
10
1.31408
20
0.334634
11
1.31395
21
0.334744
0
LINE
8
BLACK
6
CONTINUOUS
10
1.31395
20
0.334744
11
1.31378
21
0.334762
0
LINE
8
BLACK
6
CONTINUOUS
10
1.31378
20
0.334762
11
1.31319
21
0.335382
0
LINE
8
BLACK
6
CONTINUOUS
10
1.31319
20
0.335382
11
1.31254
21
0.335933
0
LINE
8
BLACK
6
CONTINUOUS
10
1.31254
20
0.335933
11
1.31251
21
0.3361
0
LINE
8
BLACK
6
CONTINUOUS
10
1.31251
20
0.3361
11
1.31239
21
0.336223
0
LINE
8
BLACK
6
CONTINUOUS
10
1.31239
20
0.336223
11
1.31233
21
0.337078
0
LINE
8
BLACK
6
CONTINUOUS
10
1.31233
20
0.337078
11
1.31219
21
0.337922
0
LINE
8
BLACK
6
CONTINUOUS
10
1.31219
20
0.337922
11
1.31227
21
0.338069
0
LINE
8
BLACK
6
CONTINUOUS
10
1.31227
20
0.338069
11
1.31226
21
0.338238
0
LINE
8
BLACK
6
CONTINUOUS
10
1.31226
20
0.338238
11
1.31277
21
0.338929
0
LINE
8
BLACK
6
CONTINUOUS
10
1.31277
20
0.338929
11
1.3132
21
0.339671
0
LINE
8
BLACK
6
CONTINUOUS
10
1.3132
20
0.339671
11
1.31336
21
0.339729
0
LINE
8
BLACK
6
CONTINUOUS
10
1.31336
20
0.339729
11
1.31346
21
0.339866
0
LINE
8
BLACK
6
CONTINUOUS
10
1.31346
20
0.339866
11
1.31884
21
0.343453
0
LINE
8
BLACK
6
CONTINUOUS
10
1.31884
20
0.343453
11
1.32204
21
0.346657
0
LINE
8
BLACK
6
CONTINUOUS
10
1.32204
20
0.346657
11
1.3237
21
0.349978
0
LINE
8
BLACK
6
CONTINUOUS
10
1.3237
20
0.349978
11
1.32431
21
0.350802
0
LINE
8
BLACK
6
CONTINUOUS
10
1.32431
20
0.350802
11
1.32617
21
0.351605
0
LINE
8
BLACK
6
CONTINUOUS
10
1.32617
20
0.351605
11
1.3281
21
0.351029
0
LINE
8
BLACK
6
CONTINUOUS
10
1.06639
20
0.449623
11
1.06709
21
0.447953
0
LINE
8
BLACK
6
CONTINUOUS
10
1.06709
20
0.447953
11
1.06709
21
0.337717
0
LINE
8
BLACK
6
CONTINUOUS
10
1.06709
20
0.337717
11
1.06639
21
0.336046
0
LINE
8
BLACK
6
CONTINUOUS
10
1.06639
20
0.336046
11
1.06472
21
0.335354
0
LINE
8
BLACK
6
CONTINUOUS
10
1.06472
20
0.335354
11
1.06305
21
0.336046
0
LINE
8
BLACK
6
CONTINUOUS
10
1.06305
20
0.336046
11
1.06236
21
0.337717
0
LINE
8
BLACK
6
CONTINUOUS
10
1.06236
20
0.337717
11
1.06236
21
0.445591
0
LINE
8
BLACK
6
CONTINUOUS
10
1.06236
20
0.445591
11
0.657638
21
0.445591
0
LINE
8
BLACK
6
CONTINUOUS
10
0.657638
20
0.445591
11
0.657638
21
0.337717
0
LINE
8
BLACK
6
CONTINUOUS
10
0.657638
20
0.337717
11
0.656946
21
0.336046
0
LINE
8
BLACK
6
CONTINUOUS
10
0.656946
20
0.336046
11
0.655276
21
0.335354
0
LINE
8
BLACK
6
CONTINUOUS
10
0.655276
20
0.335354
11
0.653605
21
0.336046
0
LINE
8
BLACK
6
CONTINUOUS
10
0.653605
20
0.336046
11
0.652913
21
0.337717
0
LINE
8
BLACK
6
CONTINUOUS
10
0.652913
20
0.337717
11
0.652913
21
0.447953
0
LINE
8
BLACK
6
CONTINUOUS
10
0.652913
20
0.447953
11
0.653605
21
0.449623
0
LINE
8
BLACK
6
CONTINUOUS
10
0.653605
20
0.449623
11
0.655276
21
0.450315
0
LINE
8
BLACK
6
CONTINUOUS
10
0.655276
20
0.450315
11
1.06472
21
0.450315
0
LINE
8
BLACK
6
CONTINUOUS
10
1.06472
20
0.450315
11
1.06639
21
0.449623
0
LINE
8
BLACK
6
CONTINUOUS
10
0.60301
20
0.341275
11
0.604557
21
0.339976
0
LINE
8
BLACK
6
CONTINUOUS
10
0.604557
20
0.339976
11
0.604908
21
0.337987
0
LINE
8
BLACK
6
CONTINUOUS
10
0.604908
20
0.337987
11
0.603898
21
0.336238
0
LINE
8
BLACK
6
CONTINUOUS
10
0.603898
20
0.336238
11
0.602
21
0.335547
0
LINE
8
BLACK
6
CONTINUOUS
10
0.602
20
0.335547
11
0.542
21
0.335547
0
LINE
8
BLACK
6
CONTINUOUS
10
0.542
20
0.335547
11
0.54099
21
0.335725
0
LINE
8
BLACK
6
CONTINUOUS
10
0.54099
20
0.335725
11
0.539443
21
0.337024
0
LINE
8
BLACK
6
CONTINUOUS
10
0.539443
20
0.337024
11
0.539092
21
0.339013
0
LINE
8
BLACK
6
CONTINUOUS
10
0.539092
20
0.339013
11
0.540102
21
0.340762
0
LINE
8
BLACK
6
CONTINUOUS
10
0.540102
20
0.340762
11
0.542
21
0.341453
0
LINE
8
BLACK
6
CONTINUOUS
10
0.542
20
0.341453
11
0.602
21
0.341453
0
LINE
8
BLACK
6
CONTINUOUS
10
0.602
20
0.341453
11
0.60301
21
0.341275
0
LINE
8
BLACK
6
CONTINUOUS
10
1.19101
20
0.341475
11
1.19256
21
0.340177
0
LINE
8
BLACK
6
CONTINUOUS
10
1.19256
20
0.340177
11
1.19291
21
0.338188
0
LINE
8
BLACK
6
CONTINUOUS
10
1.19291
20
0.338188
11
1.1919
21
0.336439
0
LINE
8
BLACK
6
CONTINUOUS
10
1.1919
20
0.336439
11
1.19
21
0.335748
0
LINE
8
BLACK
6
CONTINUOUS
10
1.19
20
0.335748
11
1.13
21
0.335748
0
LINE
8
BLACK
6
CONTINUOUS
10
1.13
20
0.335748
11
1.12899
21
0.335926
0
LINE
8
BLACK
6
CONTINUOUS
10
1.12899
20
0.335926
11
1.12744
21
0.337224
0
LINE
8
BLACK
6
CONTINUOUS
10
1.12744
20
0.337224
11
1.12709
21
0.339214
0
LINE
8
BLACK
6
CONTINUOUS
10
1.12709
20
0.339214
11
1.1281
21
0.340963
0
LINE
8
BLACK
6
CONTINUOUS
10
1.1281
20
0.340963
11
1.13
21
0.341654
0
LINE
8
BLACK
6
CONTINUOUS
10
1.13
20
0.341654
11
1.19
21
0.341654
0
LINE
8
BLACK
6
CONTINUOUS
10
1.19
20
0.341654
11
1.19101
21
0.341475
0
LINE
8
BLACK
6
CONTINUOUS
10
0.867571
20
0.383458
11
0.868262
21
0.38156
0
LINE
8
BLACK
6
CONTINUOUS
10
0.868262
20
0.38156
11
0.868262
21
0.34219
0
LINE
8
BLACK
6
CONTINUOUS
10
0.868262
20
0.34219
11
0.868194
21
0.341806
0
LINE
8
BLACK
6
CONTINUOUS
10
0.868194
20
0.341806
11
0.868217
21
0.341677
0
LINE
8
BLACK
6
CONTINUOUS
10
0.868217
20
0.341677
11
0.868152
21
0.341563
0
LINE
8
BLACK
6
CONTINUOUS
10
0.868152
20
0.341563
11
0.868084
21
0.34118
0
LINE
8
BLACK
6
CONTINUOUS
10
0.868084
20
0.34118
11
0.867591
21
0.340592
0
LINE
8
BLACK
6
CONTINUOUS
10
0.867591
20
0.340592
11
0.867207
21
0.339928
0
LINE
8
BLACK
6
CONTINUOUS
10
0.867207
20
0.339928
11
0.866957
21
0.339837
0
LINE
8
BLACK
6
CONTINUOUS
10
0.866957
20
0.339837
11
0.866786
21
0.339633
0
LINE
8
BLACK
6
CONTINUOUS
10
0.866786
20
0.339633
11
0.86603
21
0.339499
0
LINE
8
BLACK
6
CONTINUOUS
10
0.86603
20
0.339499
11
0.865309
21
0.339237
0
LINE
8
BLACK
6
CONTINUOUS
10
0.865309
20
0.339237
11
0.846562
21
0.339237
0
LINE
8
BLACK
6
CONTINUOUS
10
0.846562
20
0.339237
11
0.845552
21
0.339415
0
LINE
8
BLACK
6
CONTINUOUS
10
0.845552
20
0.339415
11
0.844004
21
0.340713
0
LINE
8
BLACK
6
CONTINUOUS
10
0.844004
20
0.340713
11
0.843654
21
0.342702
0
LINE
8
BLACK
6
CONTINUOUS
10
0.843654
20
0.342702
11
0.844664
21
0.344452
0
LINE
8
BLACK
6
CONTINUOUS
10
0.844664
20
0.344452
11
0.846562
21
0.345142
0
LINE
8
BLACK
6
CONTINUOUS
10
0.846562
20
0.345142
11
0.862357
21
0.345142
0
LINE
8
BLACK
6
CONTINUOUS
10
0.862357
20
0.345142
11
0.862357
21
0.38156
0
LINE
8
BLACK
6
CONTINUOUS
10
0.862357
20
0.38156
11
0.862535
21
0.38257
0
LINE
8
BLACK
6
CONTINUOUS
10
0.862535
20
0.38257
11
0.863833
21
0.384117
0
LINE
8
BLACK
6
CONTINUOUS
10
0.863833
20
0.384117
11
0.865822
21
0.384468
0
LINE
8
BLACK
6
CONTINUOUS
10
0.865822
20
0.384468
11
0.867571
21
0.383458
0
LINE
8
BLACK
6
CONTINUOUS
10
0.824724
20
0.384383
11
0.824894
21
0.384394
0
LINE
8
BLACK
6
CONTINUOUS
10
0.824894
20
0.384394
11
0.825584
21
0.383886
0
LINE
8
BLACK
6
CONTINUOUS
10
0.825584
20
0.383886
11
0.826326
21
0.383458
0
LINE
8
BLACK
6
CONTINUOUS
10
0.826326
20
0.383458
11
0.826384
21
0.383298
0
LINE
8
BLACK
6
CONTINUOUS
10
0.826384
20
0.383298
11
0.826521
21
0.383198
0
LINE
8
BLACK
6
CONTINUOUS
10
0.826521
20
0.383198
11
0.830109
21
0.377817
0
LINE
8
BLACK
6
CONTINUOUS
10
0.830109
20
0.377817
11
0.833313
21
0.374613
0
LINE
8
BLACK
6
CONTINUOUS
10
0.833313
20
0.374613
11
0.836634
21
0.372952
0
LINE
8
BLACK
6
CONTINUOUS
10
0.836634
20
0.372952
11
0.837457
21
0.372341
0
LINE
8
BLACK
6
CONTINUOUS
10
0.837457
20
0.372341
11
0.838261
21
0.370488
0
LINE
8
BLACK
6
CONTINUOUS
10
0.838261
20
0.370488
11
0.837685
21
0.368552
0
LINE
8
BLACK
6
CONTINUOUS
10
0.837685
20
0.368552
11
0.835999
21
0.367439
0
LINE
8
BLACK
6
CONTINUOUS
10
0.835999
20
0.367439
11
0.833993
21
0.36767
0
LINE
8
BLACK
6
CONTINUOUS
10
0.833993
20
0.36767
11
0.830243
21
0.369545
0
LINE
8
BLACK
6
CONTINUOUS
10
0.830243
20
0.369545
11
0.829534
21
0.370071
0
LINE
8
BLACK
6
CONTINUOUS
10
0.829534
20
0.370071
11
0.829476
21
0.370098
0
LINE
8
BLACK
6
CONTINUOUS
10
0.829476
20
0.370098
11
0.827017
21
0.372556
0
LINE
8
BLACK
6
CONTINUOUS
10
0.827017
20
0.372556
11
0.827017
21
0.345142
0
LINE
8
BLACK
6
CONTINUOUS
10
0.827017
20
0.345142
11
0.835313
21
0.345142
0
LINE
8
BLACK
6
CONTINUOUS
10
0.835313
20
0.345142
11
0.836323
21
0.344964
0
LINE
8
BLACK
6
CONTINUOUS
10
0.836323
20
0.344964
11
0.83787
21
0.343666
0
LINE
8
BLACK
6
CONTINUOUS
10
0.83787
20
0.343666
11
0.838221
21
0.341677
0
LINE
8
BLACK
6
CONTINUOUS
10
0.838221
20
0.341677
11
0.837211
21
0.339928
0
LINE
8
BLACK
6
CONTINUOUS
10
0.837211
20
0.339928
11
0.835313
21
0.339237
0
LINE
8
BLACK
6
CONTINUOUS
10
0.835313
20
0.339237
11
0.812816
21
0.339237
0
LINE
8
BLACK
6
CONTINUOUS
10
0.812816
20
0.339237
11
0.811806
21
0.339415
0
LINE
8
BLACK
6
CONTINUOUS
10
0.811806
20
0.339415
11
0.810259
21
0.340713
0
LINE
8
BLACK
6
CONTINUOUS
10
0.810259
20
0.340713
11
0.809908
21
0.342702
0
LINE
8
BLACK
6
CONTINUOUS
10
0.809908
20
0.342702
11
0.810918
21
0.344452
0
LINE
8
BLACK
6
CONTINUOUS
10
0.810918
20
0.344452
11
0.812816
21
0.345142
0
LINE
8
BLACK
6
CONTINUOUS
10
0.812816
20
0.345142
11
0.821112
21
0.345142
0
LINE
8
BLACK
6
CONTINUOUS
10
0.821112
20
0.345142
11
0.821112
21
0.38156
0
LINE
8
BLACK
6
CONTINUOUS
10
0.821112
20
0.38156
11
0.82129
21
0.38257
0
LINE
8
BLACK
6
CONTINUOUS
10
0.82129
20
0.38257
11
0.821399
21
0.3827
0
LINE
8
BLACK
6
CONTINUOUS
10
0.821399
20
0.3827
11
0.821418
21
0.382869
0
LINE
8
BLACK
6
CONTINUOUS
10
0.821418
20
0.382869
11
0.822037
21
0.383461
0
LINE
8
BLACK
6
CONTINUOUS
10
0.822037
20
0.383461
11
0.822588
21
0.384117
0
LINE
8
BLACK
6
CONTINUOUS
10
0.822588
20
0.384117
11
0.822755
21
0.384146
0
LINE
8
BLACK
6
CONTINUOUS
10
0.822755
20
0.384146
11
0.822878
21
0.384264
0
LINE
8
BLACK
6
CONTINUOUS
10
0.822878
20
0.384264
11
0.823733
21
0.384319
0
LINE
8
BLACK
6
CONTINUOUS
10
0.823733
20
0.384319
11
0.824577
21
0.384468
0
LINE
8
BLACK
6
CONTINUOUS
10
0.824577
20
0.384468
11
0.824724
21
0.384383
0
LINE
8
BLACK
6
CONTINUOUS
10
1.33817
20
0.390878
11
1.33831
21
0.390892
0
LINE
8
BLACK
6
CONTINUOUS
10
1.33831
20
0.390892
11
1.34581
21
0.389018
0
LINE
8
BLACK
6
CONTINUOUS
10
1.34581
20
0.389018
11
1.34627
21
0.38881
0
LINE
8
BLACK
6
CONTINUOUS
10
1.34627
20
0.38881
11
1.34641
21
0.388794
0
LINE
8
BLACK
6
CONTINUOUS
10
1.34641
20
0.388794
11
1.35016
21
0.386919
0
LINE
8
BLACK
6
CONTINUOUS
10
1.35016
20
0.386919
11
1.35087
21
0.386393
0
LINE
8
BLACK
6
CONTINUOUS
10
1.35087
20
0.386393
11
1.35093
21
0.386366
0
LINE
8
BLACK
6
CONTINUOUS
10
1.35093
20
0.386366
11
1.35468
21
0.382617
0
LINE
8
BLACK
6
CONTINUOUS
10
1.35468
20
0.382617
11
1.35527
21
0.381777
0
LINE
8
BLACK
6
CONTINUOUS
10
1.35527
20
0.381777
11
1.35528
21
0.381601
0
LINE
8
BLACK
6
CONTINUOUS
10
1.35528
20
0.381601
11
1.35539
21
0.381462
0
LINE
8
BLACK
6
CONTINUOUS
10
1.35539
20
0.381462
11
1.35726
21
0.375838
0
LINE
8
BLACK
6
CONTINUOUS
10
1.35726
20
0.375838
11
1.35739
21
0.374965
0
LINE
8
BLACK
6
CONTINUOUS
10
1.35739
20
0.374965
11
1.35742
21
0.374904
0
LINE
8
BLACK
6
CONTINUOUS
10
1.35742
20
0.374904
11
1.35742
21
0.371155
0
LINE
8
BLACK
6
CONTINUOUS
10
1.35742
20
0.371155
11
1.35726
21
0.370285
0
LINE
8
BLACK
6
CONTINUOUS
10
1.35726
20
0.370285
11
1.35726
21
0.370221
0
LINE
8
BLACK
6
CONTINUOUS
10
1.35726
20
0.370221
11
1.35539
21
0.364597
0
LINE
8
BLACK
6
CONTINUOUS
10
1.35539
20
0.364597
11
1.3549
21
0.363695
0
LINE
8
BLACK
6
CONTINUOUS
10
1.3549
20
0.363695
11
1.35475
21
0.363603
0
LINE
8
BLACK
6
CONTINUOUS
10
1.35475
20
0.363603
11
1.35468
21
0.363443
0
LINE
8
BLACK
6
CONTINUOUS
10
1.35468
20
0.363443
11
1.3528
21
0.361568
0
LINE
8
BLACK
6
CONTINUOUS
10
1.3528
20
0.361568
11
1.35196
21
0.36098
0
LINE
8
BLACK
6
CONTINUOUS
10
1.35196
20
0.36098
11
1.34995
21
0.360804
0
LINE
8
BLACK
6
CONTINUOUS
10
1.34995
20
0.360804
11
1.3483
21
0.361962
0
LINE
8
BLACK
6
CONTINUOUS
10
1.3483
20
0.361962
11
1.34777
21
0.363913
0
LINE
8
BLACK
6
CONTINUOUS
10
1.34777
20
0.363913
11
1.34863
21
0.365744
0
LINE
8
BLACK
6
CONTINUOUS
10
1.34863
20
0.365744
11
1.35001
21
0.367126
0
LINE
8
BLACK
6
CONTINUOUS
10
1.35001
20
0.367126
11
1.35151
21
0.371634
0
LINE
8
BLACK
6
CONTINUOUS
10
1.35151
20
0.371634
11
1.35151
21
0.374425
0
LINE
8
BLACK
6
CONTINUOUS
10
1.35151
20
0.374425
11
1.35001
21
0.378934
0
LINE
8
BLACK
6
CONTINUOUS
10
1.35001
20
0.378934
11
1.34709
21
0.381851
0
LINE
8
BLACK
6
CONTINUOUS
10
1.34709
20
0.381851
11
1.34406
21
0.383367
0
LINE
8
BLACK
6
CONTINUOUS
10
1.34406
20
0.383367
11
1.33723
21
0.385075
0
LINE
8
BLACK
6
CONTINUOUS
10
1.33723
20
0.385075
11
1.33233
21
0.385075
0
LINE
8
BLACK
6
CONTINUOUS
10
1.33233
20
0.385075
11
1.3255
21
0.383367
0
LINE
8
BLACK
6
CONTINUOUS
10
1.3255
20
0.383367
11
1.32247
21
0.381851
0
LINE
8
BLACK
6
CONTINUOUS
10
1.32247
20
0.381851
11
1.31955
21
0.378934
0
LINE
8
BLACK
6
CONTINUOUS
10
1.31955
20
0.378934
11
1.31805
21
0.374425
0
LINE
8
BLACK
6
CONTINUOUS
10
1.31805
20
0.374425
11
1.31805
21
0.371634
0
LINE
8
BLACK
6
CONTINUOUS
10
1.31805
20
0.371634
11
1.31955
21
0.367126
0
LINE
8
BLACK
6
CONTINUOUS
10
1.31955
20
0.367126
11
1.32093
21
0.365744
0
LINE
8
BLACK
6
CONTINUOUS
10
1.32093
20
0.365744
11
1.32152
21
0.364904
0
LINE
8
BLACK
6
CONTINUOUS
10
1.32152
20
0.364904
11
1.3217
21
0.362892
0
LINE
8
BLACK
6
CONTINUOUS
10
1.3217
20
0.362892
11
1.32054
21
0.361237
0
LINE
8
BLACK
6
CONTINUOUS
10
1.32054
20
0.361237
11
1.31859
21
0.360714
0
LINE
8
BLACK
6
CONTINUOUS
10
1.31859
20
0.360714
11
1.31676
21
0.361568
0
LINE
8
BLACK
6
CONTINUOUS
10
1.31676
20
0.361568
11
1.31488
21
0.363443
0
LINE
8
BLACK
6
CONTINUOUS
10
1.31488
20
0.363443
11
1.31429
21
0.364283
0
LINE
8
BLACK
6
CONTINUOUS
10
1.31429
20
0.364283
11
1.31428
21
0.364459
0
LINE
8
BLACK
6
CONTINUOUS
10
1.31428
20
0.364459
11
1.31417
21
0.364597
0
LINE
8
BLACK
6
CONTINUOUS
10
1.31417
20
0.364597
11
1.31229
21
0.370221
0
LINE
8
BLACK
6
CONTINUOUS
10
1.31229
20
0.370221
11
1.31216
21
0.371094
0
LINE
8
BLACK
6
CONTINUOUS
10
1.31216
20
0.371094
11
1.31214
21
0.371155
0
LINE
8
BLACK
6
CONTINUOUS
10
1.31214
20
0.371155
11
1.31214
21
0.374904
0
LINE
8
BLACK
6
CONTINUOUS
10
1.31214
20
0.374904
11
1.31229
21
0.375774
0
LINE
8
BLACK
6
CONTINUOUS
10
1.31229
20
0.375774
11
1.31229
21
0.375838
0
LINE
8
BLACK
6
CONTINUOUS
10
1.31229
20
0.375838
11
1.31417
21
0.381462
0
LINE
8
BLACK
6
CONTINUOUS
10
1.31417
20
0.381462
11
1.31466
21
0.382364
0
LINE
8
BLACK
6
CONTINUOUS
10
1.31466
20
0.382364
11
1.31481
21
0.382457
0
LINE
8
BLACK
6
CONTINUOUS
10
1.31481
20
0.382457
11
1.31488
21
0.382617
0
LINE
8
BLACK
6
CONTINUOUS
10
1.31488
20
0.382617
11
1.31863
21
0.386366
0
LINE
8
BLACK
6
CONTINUOUS
10
1.31863
20
0.386366
11
1.31935
21
0.386872
0
LINE
8
BLACK
6
CONTINUOUS
10
1.31935
20
0.386872
11
1.3194
21
0.386919
0
LINE
8
BLACK
6
CONTINUOUS
10
1.3194
20
0.386919
11
1.32315
21
0.388794
0
LINE
8
BLACK
6
CONTINUOUS
10
1.32315
20
0.388794
11
1.32364
21
0.388939
0
LINE
8
BLACK
6
CONTINUOUS
10
1.32364
20
0.388939
11
1.32375
21
0.389018
0
LINE
8
BLACK
6
CONTINUOUS
10
1.32375
20
0.389018
11
1.33125
21
0.390892
0
LINE
8
BLACK
6
CONTINUOUS
10
1.33125
20
0.390892
11
1.33184
21
0.390934
0
LINE
8
BLACK
6
CONTINUOUS
10
1.33184
20
0.390934
11
1.33197
21
0.39098
0
LINE
8
BLACK
6
CONTINUOUS
10
1.33197
20
0.39098
11
1.33759
21
0.39098
0
LINE
8
BLACK
6
CONTINUOUS
10
1.33759
20
0.39098
11
1.33817
21
0.390878
0
LINE
8
BLACK
6
CONTINUOUS
10
0.60367
20
0.41517
11
0.604362
21
0.4135
0
LINE
8
BLACK
6
CONTINUOUS
10
0.604362
20
0.4135
11
0.604362
21
0.3835
0
LINE
8
BLACK
6
CONTINUOUS
10
0.604362
20
0.3835
11
0.60367
21
0.38183
0
LINE
8
BLACK
6
CONTINUOUS
10
0.60367
20
0.38183
11
0.602
21
0.381138
0
LINE
8
BLACK
6
CONTINUOUS
10
0.602
20
0.381138
11
0.60033
21
0.38183
0
LINE
8
BLACK
6
CONTINUOUS
10
0.60033
20
0.38183
11
0.599638
21
0.3835
0
LINE
8
BLACK
6
CONTINUOUS
10
0.599638
20
0.3835
11
0.599638
21
0.4135
0
LINE
8
BLACK
6
CONTINUOUS
10
0.599638
20
0.4135
11
0.60033
21
0.41517
0
LINE
8
BLACK
6
CONTINUOUS
10
0.60033
20
0.41517
11
0.602
21
0.415862
0
LINE
8
BLACK
6
CONTINUOUS
10
0.602
20
0.415862
11
0.60367
21
0.41517
0
LINE
8
BLACK
6
CONTINUOUS
10
0.54367
20
0.41517
11
0.544362
21
0.4135
0
LINE
8
BLACK
6
CONTINUOUS
10
0.544362
20
0.4135
11
0.544362
21
0.3835
0
LINE
8
BLACK
6
CONTINUOUS
10
0.544362
20
0.3835
11
0.54367
21
0.38183
0
LINE
8
BLACK
6
CONTINUOUS
10
0.54367
20
0.38183
11
0.542
21
0.381138
0
LINE
8
BLACK
6
CONTINUOUS
10
0.542
20
0.381138
11
0.54033
21
0.38183
0
LINE
8
BLACK
6
CONTINUOUS
10
0.54033
20
0.38183
11
0.539638
21
0.3835
0
LINE
8
BLACK
6
CONTINUOUS
10
0.539638
20
0.3835
11
0.539638
21
0.4135
0
LINE
8
BLACK
6
CONTINUOUS
10
0.539638
20
0.4135
11
0.54033
21
0.41517
0
LINE
8
BLACK
6
CONTINUOUS
10
0.54033
20
0.41517
11
0.542
21
0.415862
0
LINE
8
BLACK
6
CONTINUOUS
10
0.542
20
0.415862
11
0.54367
21
0.41517
0
LINE
8
BLACK
6
CONTINUOUS
10
1.13167
20
0.415371
11
1.13236
21
0.413701
0
LINE
8
BLACK
6
CONTINUOUS
10
1.13236
20
0.413701
11
1.13236
21
0.383701
0
LINE
8
BLACK
6
CONTINUOUS
10
1.13236
20
0.383701
11
1.13167
21
0.38203
0
LINE
8
BLACK
6
CONTINUOUS
10
1.13167
20
0.38203
11
1.13
21
0.381339
0
LINE
8
BLACK
6
CONTINUOUS
10
1.13
20
0.381339
11
1.12833
21
0.38203
0
LINE
8
BLACK
6
CONTINUOUS
10
1.12833
20
0.38203
11
1.12764
21
0.383701
0
LINE
8
BLACK
6
CONTINUOUS
10
1.12764
20
0.383701
11
1.12764
21
0.413701
0
LINE
8
BLACK
6
CONTINUOUS
10
1.12764
20
0.413701
11
1.12833
21
0.415371
0
LINE
8
BLACK
6
CONTINUOUS
10
1.12833
20
0.415371
11
1.13
21
0.416063
0
LINE
8
BLACK
6
CONTINUOUS
10
1.13
20
0.416063
11
1.13167
21
0.415371
0
LINE
8
BLACK
6
CONTINUOUS
10
1.19167
20
0.415371
11
1.19236
21
0.413701
0
LINE
8
BLACK
6
CONTINUOUS
10
1.19236
20
0.413701
11
1.19236
21
0.383701
0
LINE
8
BLACK
6
CONTINUOUS
10
1.19236
20
0.383701
11
1.19167
21
0.38203
0
LINE
8
BLACK
6
CONTINUOUS
10
1.19167
20
0.38203
11
1.19
21
0.381339
0
LINE
8
BLACK
6
CONTINUOUS
10
1.19
20
0.381339
11
1.18833
21
0.38203
0
LINE
8
BLACK
6
CONTINUOUS
10
1.18833
20
0.38203
11
1.18764
21
0.383701
0
LINE
8
BLACK
6
CONTINUOUS
10
1.18764
20
0.383701
11
1.18764
21
0.413701
0
LINE
8
BLACK
6
CONTINUOUS
10
1.18764
20
0.413701
11
1.18833
21
0.415371
0
LINE
8
BLACK
6
CONTINUOUS
10
1.18833
20
0.415371
11
1.19
21
0.416063
0
LINE
8
BLACK
6
CONTINUOUS
10
1.19
20
0.416063
11
1.19167
21
0.415371
0
LINE
8
BLACK
6
CONTINUOUS
10
0.345844
20
0.492256
11
0.346535
21
0.490585
0
LINE
8
BLACK
6
CONTINUOUS
10
0.346535
20
0.490585
11
0.346535
21
0.443179
0
LINE
8
BLACK
6
CONTINUOUS
10
0.346535
20
0.443179
11
0.345844
21
0.441508
0
LINE
8
BLACK
6
CONTINUOUS
10
0.345844
20
0.441508
11
0.344173
21
0.440816
0
LINE
8
BLACK
6
CONTINUOUS
10
0.344173
20
0.440816
11
0.342503
21
0.441508
0
LINE
8
BLACK
6
CONTINUOUS
10
0.342503
20
0.441508
11
0.341811
21
0.443179
0
LINE
8
BLACK
6
CONTINUOUS
10
0.341811
20
0.443179
11
0.341811
21
0.490585
0
LINE
8
BLACK
6
CONTINUOUS
10
0.341811
20
0.490585
11
0.342503
21
0.492256
0
LINE
8
BLACK
6
CONTINUOUS
10
0.342503
20
0.492256
11
0.344173
21
0.492947
0
LINE
8
BLACK
6
CONTINUOUS
10
0.344173
20
0.492947
11
0.345844
21
0.492256
0
LINE
8
BLACK
6
CONTINUOUS
10
0.417497
20
0.492256
11
0.418189
21
0.490585
0
LINE
8
BLACK
6
CONTINUOUS
10
0.418189
20
0.490585
11
0.418189
21
0.443179
0
LINE
8
BLACK
6
CONTINUOUS
10
0.418189
20
0.443179
11
0.417497
21
0.441508
0
LINE
8
BLACK
6
CONTINUOUS
10
0.417497
20
0.441508
11
0.415827
21
0.440816
0
LINE
8
BLACK
6
CONTINUOUS
10
0.415827
20
0.440816
11
0.414156
21
0.441508
0
LINE
8
BLACK
6
CONTINUOUS
10
0.414156
20
0.441508
11
0.413465
21
0.443179
0
LINE
8
BLACK
6
CONTINUOUS
10
0.413465
20
0.443179
11
0.413465
21
0.490585
0
LINE
8
BLACK
6
CONTINUOUS
10
0.413465
20
0.490585
11
0.414156
21
0.492256
0
LINE
8
BLACK
6
CONTINUOUS
10
0.414156
20
0.492256
11
0.415827
21
0.492947
0
LINE
8
BLACK
6
CONTINUOUS
10
0.415827
20
0.492947
11
0.417497
21
0.492256
0
LINE
8
BLACK
6
CONTINUOUS
10
0.445844
20
0.492492
11
0.446535
21
0.490821
0
LINE
8
BLACK
6
CONTINUOUS
10
0.446535
20
0.490821
11
0.446535
21
0.443415
0
LINE
8
BLACK
6
CONTINUOUS
10
0.446535
20
0.443415
11
0.445844
21
0.441744
0
LINE
8
BLACK
6
CONTINUOUS
10
0.445844
20
0.441744
11
0.444173
21
0.441053
0
LINE
8
BLACK
6
CONTINUOUS
10
0.444173
20
0.441053
11
0.442503
21
0.441744
0
LINE
8
BLACK
6
CONTINUOUS
10
0.442503
20
0.441744
11
0.441811
21
0.443415
0
LINE
8
BLACK
6
CONTINUOUS
10
0.441811
20
0.443415
11
0.441811
21
0.490821
0
LINE
8
BLACK
6
CONTINUOUS
10
0.441811
20
0.490821
11
0.442503
21
0.492492
0
LINE
8
BLACK
6
CONTINUOUS
10
0.442503
20
0.492492
11
0.444173
21
0.493184
0
LINE
8
BLACK
6
CONTINUOUS
10
0.444173
20
0.493184
11
0.445844
21
0.492492
0
LINE
8
BLACK
6
CONTINUOUS
10
0.517497
20
0.492492
11
0.518189
21
0.490821
0
LINE
8
BLACK
6
CONTINUOUS
10
0.518189
20
0.490821
11
0.518189
21
0.443415
0
LINE
8
BLACK
6
CONTINUOUS
10
0.518189
20
0.443415
11
0.517497
21
0.441744
0
LINE
8
BLACK
6
CONTINUOUS
10
0.517497
20
0.441744
11
0.515827
21
0.441053
0
LINE
8
BLACK
6
CONTINUOUS
10
0.515827
20
0.441053
11
0.514156
21
0.441744
0
LINE
8
BLACK
6
CONTINUOUS
10
0.514156
20
0.441744
11
0.513465
21
0.443415
0
LINE
8
BLACK
6
CONTINUOUS
10
0.513465
20
0.443415
11
0.513465
21
0.490821
0
LINE
8
BLACK
6
CONTINUOUS
10
0.513465
20
0.490821
11
0.514156
21
0.492492
0
LINE
8
BLACK
6
CONTINUOUS
10
0.514156
20
0.492492
11
0.515827
21
0.493184
0
LINE
8
BLACK
6
CONTINUOUS
10
0.515827
20
0.493184
11
0.517497
21
0.492492
0
LINE
8
BLACK
6
CONTINUOUS
10
0.117497
20
0.494256
11
0.118189
21
0.492585
0
LINE
8
BLACK
6
CONTINUOUS
10
0.118189
20
0.492585
11
0.118189
21
0.445179
0
LINE
8
BLACK
6
CONTINUOUS
10
0.118189
20
0.445179
11
0.117497
21
0.443508
0
LINE
8
BLACK
6
CONTINUOUS
10
0.117497
20
0.443508
11
0.115827
21
0.442816
0
LINE
8
BLACK
6
CONTINUOUS
10
0.115827
20
0.442816
11
0.114156
21
0.443508
0
LINE
8
BLACK
6
CONTINUOUS
10
0.114156
20
0.443508
11
0.113465
21
0.445179
0
LINE
8
BLACK
6
CONTINUOUS
10
0.113465
20
0.445179
11
0.113465
21
0.492585
0
LINE
8
BLACK
6
CONTINUOUS
10
0.113465
20
0.492585
11
0.114156
21
0.494256
0
LINE
8
BLACK
6
CONTINUOUS
10
0.114156
20
0.494256
11
0.115827
21
0.494947
0
LINE
8
BLACK
6
CONTINUOUS
10
0.115827
20
0.494947
11
0.117497
21
0.494256
0
LINE
8
BLACK
6
CONTINUOUS
10
0.0458435
20
0.494256
11
0.0465354
21
0.492585
0
LINE
8
BLACK
6
CONTINUOUS
10
0.0465354
20
0.492585
11
0.0465354
21
0.445179
0
LINE
8
BLACK
6
CONTINUOUS
10
0.0465354
20
0.445179
11
0.0458435
21
0.443508
0
LINE
8
BLACK
6
CONTINUOUS
10
0.0458435
20
0.443508
11
0.0441732
21
0.442816
0
LINE
8
BLACK
6
CONTINUOUS
10
0.0441732
20
0.442816
11
0.0425029
21
0.443508
0
LINE
8
BLACK
6
CONTINUOUS
10
0.0425029
20
0.443508
11
0.041811
21
0.445179
0
LINE
8
BLACK
6
CONTINUOUS
10
0.041811
20
0.445179
11
0.041811
21
0.492585
0
LINE
8
BLACK
6
CONTINUOUS
10
0.041811
20
0.492585
11
0.0425029
21
0.494256
0
LINE
8
BLACK
6
CONTINUOUS
10
0.0425029
20
0.494256
11
0.0441732
21
0.494947
0
LINE
8
BLACK
6
CONTINUOUS
10
0.0441732
20
0.494947
11
0.0458435
21
0.494256
0
LINE
8
BLACK
6
CONTINUOUS
10
0.317497
20
0.494256
11
0.318189
21
0.492585
0
LINE
8
BLACK
6
CONTINUOUS
10
0.318189
20
0.492585
11
0.318189
21
0.445179
0
LINE
8
BLACK
6
CONTINUOUS
10
0.318189
20
0.445179
11
0.317497
21
0.443508
0
LINE
8
BLACK
6
CONTINUOUS
10
0.317497
20
0.443508
11
0.315827
21
0.442816
0
LINE
8
BLACK
6
CONTINUOUS
10
0.315827
20
0.442816
11
0.314156
21
0.443508
0
LINE
8
BLACK
6
CONTINUOUS
10
0.314156
20
0.443508
11
0.313465
21
0.445179
0
LINE
8
BLACK
6
CONTINUOUS
10
0.313465
20
0.445179
11
0.313465
21
0.492585
0
LINE
8
BLACK
6
CONTINUOUS
10
0.313465
20
0.492585
11
0.314156
21
0.494256
0
LINE
8
BLACK
6
CONTINUOUS
10
0.314156
20
0.494256
11
0.315827
21
0.494947
0
LINE
8
BLACK
6
CONTINUOUS
10
0.315827
20
0.494947
11
0.317497
21
0.494256
0
LINE
8
BLACK
6
CONTINUOUS
10
0.245844
20
0.494256
11
0.246535
21
0.492585
0
LINE
8
BLACK
6
CONTINUOUS
10
0.246535
20
0.492585
11
0.246535
21
0.445179
0
LINE
8
BLACK
6
CONTINUOUS
10
0.246535
20
0.445179
11
0.245844
21
0.443508
0
LINE
8
BLACK
6
CONTINUOUS
10
0.245844
20
0.443508
11
0.244173
21
0.442816
0
LINE
8
BLACK
6
CONTINUOUS
10
0.244173
20
0.442816
11
0.242503
21
0.443508
0
LINE
8
BLACK
6
CONTINUOUS
10
0.242503
20
0.443508
11
0.241811
21
0.445179
0
LINE
8
BLACK
6
CONTINUOUS
10
0.241811
20
0.445179
11
0.241811
21
0.492585
0
LINE
8
BLACK
6
CONTINUOUS
10
0.241811
20
0.492585
11
0.242503
21
0.494256
0
LINE
8
BLACK
6
CONTINUOUS
10
0.242503
20
0.494256
11
0.244173
21
0.494947
0
LINE
8
BLACK
6
CONTINUOUS
10
0.244173
20
0.494947
11
0.245844
21
0.494256
0
LINE
8
BLACK
6
CONTINUOUS
10
0.145844
20
0.494256
11
0.146535
21
0.492585
0
LINE
8
BLACK
6
CONTINUOUS
10
0.146535
20
0.492585
11
0.146535
21
0.445179
0
LINE
8
BLACK
6
CONTINUOUS
10
0.146535
20
0.445179
11
0.145844
21
0.443508
0
LINE
8
BLACK
6
CONTINUOUS
10
0.145844
20
0.443508
11
0.144173
21
0.442816
0
LINE
8
BLACK
6
CONTINUOUS
10
0.144173
20
0.442816
11
0.142503
21
0.443508
0
LINE
8
BLACK
6
CONTINUOUS
10
0.142503
20
0.443508
11
0.141811
21
0.445179
0
LINE
8
BLACK
6
CONTINUOUS
10
0.141811
20
0.445179
11
0.141811
21
0.492585
0
LINE
8
BLACK
6
CONTINUOUS
10
0.141811
20
0.492585
11
0.142503
21
0.494256
0
LINE
8
BLACK
6
CONTINUOUS
10
0.142503
20
0.494256
11
0.144173
21
0.494947
0
LINE
8
BLACK
6
CONTINUOUS
10
0.144173
20
0.494947
11
0.145844
21
0.494256
0
LINE
8
BLACK
6
CONTINUOUS
10
0.217497
20
0.494256
11
0.218189
21
0.492585
0
LINE
8
BLACK
6
CONTINUOUS
10
0.218189
20
0.492585
11
0.218189
21
0.445179
0
LINE
8
BLACK
6
CONTINUOUS
10
0.218189
20
0.445179
11
0.217497
21
0.443508
0
LINE
8
BLACK
6
CONTINUOUS
10
0.217497
20
0.443508
11
0.215827
21
0.442816
0
LINE
8
BLACK
6
CONTINUOUS
10
0.215827
20
0.442816
11
0.214156
21
0.443508
0
LINE
8
BLACK
6
CONTINUOUS
10
0.214156
20
0.443508
11
0.213465
21
0.445179
0
LINE
8
BLACK
6
CONTINUOUS
10
0.213465
20
0.445179
11
0.213465
21
0.492585
0
LINE
8
BLACK
6
CONTINUOUS
10
0.213465
20
0.492585
11
0.214156
21
0.494256
0
LINE
8
BLACK
6
CONTINUOUS
10
0.214156
20
0.494256
11
0.215827
21
0.494947
0
LINE
8
BLACK
6
CONTINUOUS
10
0.215827
20
0.494947
11
0.217497
21
0.494256
0
LINE
8
BLACK
6
CONTINUOUS
10
1.30101
20
0.460275
11
1.30256
21
0.458976
0
LINE
8
BLACK
6
CONTINUOUS
10
1.30256
20
0.458976
11
1.30291
21
0.456987
0
LINE
8
BLACK
6
CONTINUOUS
10
1.30291
20
0.456987
11
1.3019
21
0.455238
0
LINE
8
BLACK
6
CONTINUOUS
10
1.3019
20
0.455238
11
1.3
21
0.454547
0
LINE
8
BLACK
6
CONTINUOUS
10
1.3
20
0.454547
11
1.24
21
0.454547
0
LINE
8
BLACK
6
CONTINUOUS
10
1.24
20
0.454547
11
1.23899
21
0.454725
0
LINE
8
BLACK
6
CONTINUOUS
10
1.23899
20
0.454725
11
1.23744
21
0.456024
0
LINE
8
BLACK
6
CONTINUOUS
10
1.23744
20
0.456024
11
1.23709
21
0.458013
0
LINE
8
BLACK
6
CONTINUOUS
10
1.23709
20
0.458013
11
1.2381
21
0.459762
0
LINE
8
BLACK
6
CONTINUOUS
10
1.2381
20
0.459762
11
1.24
21
0.460453
0
LINE
8
BLACK
6
CONTINUOUS
10
1.24
20
0.460453
11
1.3
21
0.460453
0
LINE
8
BLACK
6
CONTINUOUS
10
1.3
20
0.460453
11
1.30101
21
0.460275
0
LINE
8
BLACK
6
CONTINUOUS
10
0.60301
20
0.461275
11
0.604557
21
0.459976
0
LINE
8
BLACK
6
CONTINUOUS
10
0.604557
20
0.459976
11
0.604908
21
0.457987
0
LINE
8
BLACK
6
CONTINUOUS
10
0.604908
20
0.457987
11
0.603898
21
0.456238
0
LINE
8
BLACK
6
CONTINUOUS
10
0.603898
20
0.456238
11
0.602
21
0.455547
0
LINE
8
BLACK
6
CONTINUOUS
10
0.602
20
0.455547
11
0.542
21
0.455547
0
LINE
8
BLACK
6
CONTINUOUS
10
0.542
20
0.455547
11
0.54099
21
0.455725
0
LINE
8
BLACK
6
CONTINUOUS
10
0.54099
20
0.455725
11
0.539443
21
0.457024
0
LINE
8
BLACK
6
CONTINUOUS
10
0.539443
20
0.457024
11
0.539092
21
0.459013
0
LINE
8
BLACK
6
CONTINUOUS
10
0.539092
20
0.459013
11
0.540102
21
0.460762
0
LINE
8
BLACK
6
CONTINUOUS
10
0.540102
20
0.460762
11
0.542
21
0.461453
0
LINE
8
BLACK
6
CONTINUOUS
10
0.542
20
0.461453
11
0.602
21
0.461453
0
LINE
8
BLACK
6
CONTINUOUS
10
0.602
20
0.461453
11
0.60301
21
0.461275
0
LINE
8
BLACK
6
CONTINUOUS
10
1.19101
20
0.461475
11
1.19256
21
0.460177
0
LINE
8
BLACK
6
CONTINUOUS
10
1.19256
20
0.460177
11
1.19291
21
0.458188
0
LINE
8
BLACK
6
CONTINUOUS
10
1.19291
20
0.458188
11
1.1919
21
0.456439
0
LINE
8
BLACK
6
CONTINUOUS
10
1.1919
20
0.456439
11
1.19
21
0.455748
0
LINE
8
BLACK
6
CONTINUOUS
10
1.19
20
0.455748
11
1.13
21
0.455748
0
LINE
8
BLACK
6
CONTINUOUS
10
1.13
20
0.455748
11
1.12899
21
0.455926
0
LINE
8
BLACK
6
CONTINUOUS
10
1.12899
20
0.455926
11
1.12744
21
0.457224
0
LINE
8
BLACK
6
CONTINUOUS
10
1.12744
20
0.457224
11
1.12709
21
0.459214
0
LINE
8
BLACK
6
CONTINUOUS
10
1.12709
20
0.459214
11
1.1281
21
0.460963
0
LINE
8
BLACK
6
CONTINUOUS
10
1.1281
20
0.460963
11
1.13
21
0.461654
0
LINE
8
BLACK
6
CONTINUOUS
10
1.13
20
0.461654
11
1.19
21
0.461654
0
LINE
8
BLACK
6
CONTINUOUS
10
1.19
20
0.461654
11
1.19101
21
0.461475
0
LINE
8
BLACK
6
CONTINUOUS
10
0.944668
20
0.466676
11
0.943976
21
0.468346
0
LINE
8
BLACK
6
CONTINUOUS
10
0.943976
20
0.468346
11
0.943976
21
0.657717
0
LINE
8
BLACK
6
CONTINUOUS
10
0.943976
20
0.657717
11
0.944668
21
0.659387
0
LINE
8
BLACK
6
CONTINUOUS
10
0.944668
20
0.659387
11
0.946339
21
0.660079
0
LINE
8
BLACK
6
CONTINUOUS
10
0.946339
20
0.660079
11
0.948009
21
0.659387
0
LINE
8
BLACK
6
CONTINUOUS
10
0.948009
20
0.659387
11
0.948701
21
0.657717
0
LINE
8
BLACK
6
CONTINUOUS
10
0.948701
20
0.657717
11
0.948701
21
0.470709
0
LINE
8
BLACK
6
CONTINUOUS
10
0.948701
20
0.470709
11
1.1113
21
0.470709
0
LINE
8
BLACK
6
CONTINUOUS
10
1.1113
20
0.470709
11
1.1113
21
0.657717
0
LINE
8
BLACK
6
CONTINUOUS
10
1.1113
20
0.657717
11
1.11199
21
0.659387
0
LINE
8
BLACK
6
CONTINUOUS
10
1.11199
20
0.659387
11
1.11366
21
0.660079
0
LINE
8
BLACK
6
CONTINUOUS
10
1.11366
20
0.660079
11
1.11533
21
0.659387
0
LINE
8
BLACK
6
CONTINUOUS
10
1.11533
20
0.659387
11
1.11602
21
0.657717
0
LINE
8
BLACK
6
CONTINUOUS
10
1.11602
20
0.657717
11
1.11602
21
0.468346
0
LINE
8
BLACK
6
CONTINUOUS
10
1.11602
20
0.468346
11
1.11533
21
0.466676
0
LINE
8
BLACK
6
CONTINUOUS
10
1.11533
20
0.466676
11
1.11366
21
0.465984
0
LINE
8
BLACK
6
CONTINUOUS
10
1.11366
20
0.465984
11
0.946339
21
0.465984
0
LINE
8
BLACK
6
CONTINUOUS
10
0.946339
20
0.465984
11
0.944668
21
0.466676
0
LINE
8
BLACK
6
CONTINUOUS
10
0.926149
20
0.505526
11
0.928023
21
0.503651
0
LINE
8
BLACK
6
CONTINUOUS
10
0.928023
20
0.503651
11
0.92853
21
0.502928
0
LINE
8
BLACK
6
CONTINUOUS
10
0.92853
20
0.502928
11
0.928576
21
0.502884
0
LINE
8
BLACK
6
CONTINUOUS
10
0.928576
20
0.502884
11
0.930451
21
0.499135
0
LINE
8
BLACK
6
CONTINUOUS
10
0.930451
20
0.499135
11
0.930744
21
0.498152
0
LINE
8
BLACK
6
CONTINUOUS
10
0.930744
20
0.498152
11
0.930703
21
0.49798
0
LINE
8
BLACK
6
CONTINUOUS
10
0.930703
20
0.49798
11
0.930763
21
0.497814
0
LINE
8
BLACK
6
CONTINUOUS
10
0.930763
20
0.497814
11
0.930763
21
0.486565
0
LINE
8
BLACK
6
CONTINUOUS
10
0.930763
20
0.486565
11
0.930585
21
0.485555
0
LINE
8
BLACK
6
CONTINUOUS
10
0.930585
20
0.485555
11
0.930471
21
0.48542
0
LINE
8
BLACK
6
CONTINUOUS
10
0.930471
20
0.48542
11
0.930451
21
0.485245
0
LINE
8
BLACK
6
CONTINUOUS
10
0.930451
20
0.485245
11
0.928576
21
0.481495
0
LINE
8
BLACK
6
CONTINUOUS
10
0.928576
20
0.481495
11
0.928051
21
0.480786
0
LINE
8
BLACK
6
CONTINUOUS
10
0.928051
20
0.480786
11
0.928023
21
0.480728
0
LINE
8
BLACK
6
CONTINUOUS
10
0.928023
20
0.480728
11
0.926149
21
0.478853
0
LINE
8
BLACK
6
CONTINUOUS
10
0.926149
20
0.478853
11
0.925426
21
0.478347
0
LINE
8
BLACK
6
CONTINUOUS
10
0.925426
20
0.478347
11
0.925381
21
0.4783
0
LINE
8
BLACK
6
CONTINUOUS
10
0.925381
20
0.4783
11
0.921632
21
0.476425
0
LINE
8
BLACK
6
CONTINUOUS
10
0.921632
20
0.476425
11
0.920649
21
0.476133
0
LINE
8
BLACK
6
CONTINUOUS
10
0.920649
20
0.476133
11
0.920477
21
0.476174
0
LINE
8
BLACK
6
CONTINUOUS
10
0.920477
20
0.476174
11
0.920311
21
0.476114
0
LINE
8
BLACK
6
CONTINUOUS
10
0.920311
20
0.476114
11
0.910937
21
0.476114
0
LINE
8
BLACK
6
CONTINUOUS
10
0.910937
20
0.476114
11
0.909927
21
0.476292
0
LINE
8
BLACK
6
CONTINUOUS
10
0.909927
20
0.476292
11
0.909792
21
0.476405
0
LINE
8
BLACK
6
CONTINUOUS
10
0.909792
20
0.476405
11
0.909617
21
0.476425
0
LINE
8
BLACK
6
CONTINUOUS
10
0.909617
20
0.476425
11
0.905867
21
0.4783
0
LINE
8
BLACK
6
CONTINUOUS
10
0.905867
20
0.4783
11
0.905158
21
0.478826
0
LINE
8
BLACK
6
CONTINUOUS
10
0.905158
20
0.478826
11
0.9051
21
0.478853
0
LINE
8
BLACK
6
CONTINUOUS
10
0.9051
20
0.478853
11
0.903225
21
0.480728
0
LINE
8
BLACK
6
CONTINUOUS
10
0.903225
20
0.480728
11
0.902719
21
0.481451
0
LINE
8
BLACK
6
CONTINUOUS
10
0.902719
20
0.481451
11
0.902672
21
0.481495
0
LINE
8
BLACK
6
CONTINUOUS
10
0.902672
20
0.481495
11
0.900797
21
0.485245
0
LINE
8
BLACK
6
CONTINUOUS
10
0.900797
20
0.485245
11
0.90063
21
0.485809
0
LINE
8
BLACK
6
CONTINUOUS
10
0.90063
20
0.485809
11
0.890385
21
0.476844
0
LINE
8
BLACK
6
CONTINUOUS
10
0.890385
20
0.476844
11
0.890005
21
0.476614
0
LINE
8
BLACK
6
CONTINUOUS
10
0.890005
20
0.476614
11
0.889917
21
0.476509
0
LINE
8
BLACK
6
CONTINUOUS
10
0.889917
20
0.476509
11
0.889796
21
0.476488
0
LINE
8
BLACK
6
CONTINUOUS
10
0.889796
20
0.476488
11
0.889507
21
0.476313
0
LINE
8
BLACK
6
CONTINUOUS
10
0.889507
20
0.476313
11
0.888711
21
0.476297
0
LINE
8
BLACK
6
CONTINUOUS
10
0.888711
20
0.476297
11
0.887927
21
0.476158
0
LINE
8
BLACK
6
CONTINUOUS
10
0.887927
20
0.476158
11
0.887723
21
0.476276
0
LINE
8
BLACK
6
CONTINUOUS
10
0.887723
20
0.476276
11
0.887488
21
0.476271
0
LINE
8
BLACK
6
CONTINUOUS
10
0.887488
20
0.476271
11
0.886868
21
0.47677
0
LINE
8
BLACK
6
CONTINUOUS
10
0.886868
20
0.47677
11
0.886178
21
0.477168
0
LINE
8
BLACK
6
CONTINUOUS
10
0.886178
20
0.477168
11
0.886098
21
0.47739
0
LINE
8
BLACK
6
CONTINUOUS
10
0.886098
20
0.47739
11
0.885914
21
0.477537
0
LINE
8
BLACK
6
CONTINUOUS
10
0.885914
20
0.477537
11
0.88576
21
0.478318
0
LINE
8
BLACK
6
CONTINUOUS
10
0.88576
20
0.478318
11
0.885487
21
0.479066
0
LINE
8
BLACK
6
CONTINUOUS
10
0.885487
20
0.479066
11
0.885487
21
0.503438
0
LINE
8
BLACK
6
CONTINUOUS
10
0.885487
20
0.503438
11
0.885665
21
0.504448
0
LINE
8
BLACK
6
CONTINUOUS
10
0.885665
20
0.504448
11
0.886964
21
0.505995
0
LINE
8
BLACK
6
CONTINUOUS
10
0.886964
20
0.505995
11
0.888953
21
0.506346
0
LINE
8
BLACK
6
CONTINUOUS
10
0.888953
20
0.506346
11
0.890702
21
0.505336
0
LINE
8
BLACK
6
CONTINUOUS
10
0.890702
20
0.505336
11
0.891393
21
0.503438
0
LINE
8
BLACK
6
CONTINUOUS
10
0.891393
20
0.503438
11
0.891393
21
0.485574
0
LINE
8
BLACK
6
CONTINUOUS
10
0.891393
20
0.485574
11
0.901494
21
0.494412
0
LINE
8
BLACK
6
CONTINUOUS
10
0.901494
20
0.494412
11
0.901874
21
0.494642
0
LINE
8
BLACK
6
CONTINUOUS
10
0.901874
20
0.494642
11
0.901962
21
0.494747
0
LINE
8
BLACK
6
CONTINUOUS
10
0.901962
20
0.494747
11
0.902082
21
0.494768
0
LINE
8
BLACK
6
CONTINUOUS
10
0.902082
20
0.494768
11
0.902371
21
0.494943
0
LINE
8
BLACK
6
CONTINUOUS
10
0.902371
20
0.494943
11
0.903167
21
0.494959
0
LINE
8
BLACK
6
CONTINUOUS
10
0.903167
20
0.494959
11
0.903951
21
0.495098
0
LINE
8
BLACK
6
CONTINUOUS
10
0.903951
20
0.495098
11
0.904155
21
0.49498
0
LINE
8
BLACK
6
CONTINUOUS
10
0.904155
20
0.49498
11
0.904391
21
0.494985
0
LINE
8
BLACK
6
CONTINUOUS
10
0.904391
20
0.494985
11
0.905011
21
0.494486
0
LINE
8
BLACK
6
CONTINUOUS
10
0.905011
20
0.494486
11
0.9057
21
0.494088
0
LINE
8
BLACK
6
CONTINUOUS
10
0.9057
20
0.494088
11
0.905781
21
0.493866
0
LINE
8
BLACK
6
CONTINUOUS
10
0.905781
20
0.493866
11
0.905964
21
0.493719
0
LINE
8
BLACK
6
CONTINUOUS
10
0.905964
20
0.493719
11
0.906119
21
0.492938
0
LINE
8
BLACK
6
CONTINUOUS
10
0.906119
20
0.492938
11
0.906391
21
0.49219
0
LINE
8
BLACK
6
CONTINUOUS
10
0.906391
20
0.49219
11
0.906391
21
0.487262
0
LINE
8
BLACK
6
CONTINUOUS
10
0.906391
20
0.487262
11
0.90774
21
0.484565
0
LINE
8
BLACK
6
CONTINUOUS
10
0.90774
20
0.484565
11
0.908937
21
0.483368
0
LINE
8
BLACK
6
CONTINUOUS
10
0.908937
20
0.483368
11
0.911634
21
0.482019
0
LINE
8
BLACK
6
CONTINUOUS
10
0.911634
20
0.482019
11
0.919614
21
0.482019
0
LINE
8
BLACK
6
CONTINUOUS
10
0.919614
20
0.482019
11
0.922312
21
0.483368
0
LINE
8
BLACK
6
CONTINUOUS
10
0.922312
20
0.483368
11
0.923509
21
0.484565
0
LINE
8
BLACK
6
CONTINUOUS
10
0.923509
20
0.484565
11
0.924857
21
0.487262
0
LINE
8
BLACK
6
CONTINUOUS
10
0.924857
20
0.487262
11
0.924857
21
0.497117
0
LINE
8
BLACK
6
CONTINUOUS
10
0.924857
20
0.497117
11
0.923509
21
0.499814
0
LINE
8
BLACK
6
CONTINUOUS
10
0.923509
20
0.499814
11
0.921973
21
0.50135
0
LINE
8
BLACK
6
CONTINUOUS
10
0.921973
20
0.50135
11
0.921385
21
0.50219
0
LINE
8
BLACK
6
CONTINUOUS
10
0.921385
20
0.50219
11
0.921209
21
0.504203
0
LINE
8
BLACK
6
CONTINUOUS
10
0.921209
20
0.504203
11
0.922367
21
0.505857
0
LINE
8
BLACK
6
CONTINUOUS
10
0.922367
20
0.505857
11
0.924318
21
0.50638
0
LINE
8
BLACK
6
CONTINUOUS
10
0.924318
20
0.50638
11
0.926149
21
0.505526
0
LINE
8
BLACK
6
CONTINUOUS
10
0.555062
20
0.482542
11
0.55437
21
0.484213
0
LINE
8
BLACK
6
CONTINUOUS
10
0.55437
20
0.484213
11
0.555062
21
0.485883
0
LINE
8
BLACK
6
CONTINUOUS
10
0.555062
20
0.485883
11
0.556732
21
0.486575
0
LINE
8
BLACK
6
CONTINUOUS
10
0.556732
20
0.486575
11
0.769331
21
0.486575
0
LINE
8
BLACK
6
CONTINUOUS
10
0.769331
20
0.486575
11
0.771001
21
0.485883
0
LINE
8
BLACK
6
CONTINUOUS
10
0.771001
20
0.485883
11
0.771693
21
0.484213
0
LINE
8
BLACK
6
CONTINUOUS
10
0.771693
20
0.484213
11
0.771001
21
0.482542
0
LINE
8
BLACK
6
CONTINUOUS
10
0.771001
20
0.482542
11
0.769331
21
0.48185
0
LINE
8
BLACK
6
CONTINUOUS
10
0.769331
20
0.48185
11
0.556732
21
0.48185
0
LINE
8
BLACK
6
CONTINUOUS
10
0.556732
20
0.48185
11
0.555062
21
0.482542
0
LINE
8
BLACK
6
CONTINUOUS
10
1.38029
20
0.559387
11
1.38098
21
0.557717
0
LINE
8
BLACK
6
CONTINUOUS
10
1.38098
20
0.557717
11
1.38098
21
0.484882
0
LINE
8
BLACK
6
CONTINUOUS
10
1.38098
20
0.484882
11
1.38029
21
0.483212
0
LINE
8
BLACK
6
CONTINUOUS
10
1.38029
20
0.483212
11
1.37862
21
0.48252
0
LINE
8
BLACK
6
CONTINUOUS
10
1.37862
20
0.48252
11
1.37695
21
0.483212
0
LINE
8
BLACK
6
CONTINUOUS
10
1.37695
20
0.483212
11
1.37626
21
0.484882
0
LINE
8
BLACK
6
CONTINUOUS
10
1.37626
20
0.484882
11
1.37626
21
0.555354
0
LINE
8
BLACK
6
CONTINUOUS
10
1.37626
20
0.555354
11
1.33374
21
0.555354
0
LINE
8
BLACK
6
CONTINUOUS
10
1.33374
20
0.555354
11
1.33374
21
0.484882
0
LINE
8
BLACK
6
CONTINUOUS
10
1.33374
20
0.484882
11
1.33305
21
0.483212
0
LINE
8
BLACK
6
CONTINUOUS
10
1.33305
20
0.483212
11
1.33138
21
0.48252
0
LINE
8
BLACK
6
CONTINUOUS
10
1.33138
20
0.48252
11
1.32971
21
0.483212
0
LINE
8
BLACK
6
CONTINUOUS
10
1.32971
20
0.483212
11
1.32902
21
0.484882
0
LINE
8
BLACK
6
CONTINUOUS
10
1.32902
20
0.484882
11
1.32902
21
0.557717
0
LINE
8
BLACK
6
CONTINUOUS
10
1.32902
20
0.557717
11
1.32971
21
0.559387
0
LINE
8
BLACK
6
CONTINUOUS
10
1.32971
20
0.559387
11
1.33138
21
0.560079
0
LINE
8
BLACK
6
CONTINUOUS
10
1.33138
20
0.560079
11
1.37862
21
0.560079
0
LINE
8
BLACK
6
CONTINUOUS
10
1.37862
20
0.560079
11
1.38029
21
0.559387
0
LINE
8
BLACK
6
CONTINUOUS
10
1.21601
20
0.490275
11
1.21756
21
0.488976
0
LINE
8
BLACK
6
CONTINUOUS
10
1.21756
20
0.488976
11
1.21791
21
0.486987
0
LINE
8
BLACK
6
CONTINUOUS
10
1.21791
20
0.486987
11
1.2169
21
0.485238
0
LINE
8
BLACK
6
CONTINUOUS
10
1.2169
20
0.485238
11
1.215
21
0.484547
0
LINE
8
BLACK
6
CONTINUOUS
10
1.215
20
0.484547
11
1.155
21
0.484547
0
LINE
8
BLACK
6
CONTINUOUS
10
1.155
20
0.484547
11
1.15399
21
0.484725
0
LINE
8
BLACK
6
CONTINUOUS
10
1.15399
20
0.484725
11
1.15244
21
0.486024
0
LINE
8
BLACK
6
CONTINUOUS
10
1.15244
20
0.486024
11
1.15209
21
0.488013
0
LINE
8
BLACK
6
CONTINUOUS
10
1.15209
20
0.488013
11
1.1531
21
0.489762
0
LINE
8
BLACK
6
CONTINUOUS
10
1.1531
20
0.489762
11
1.155
21
0.490453
0
LINE
8
BLACK
6
CONTINUOUS
10
1.155
20
0.490453
11
1.215
21
0.490453
0
LINE
8
BLACK
6
CONTINUOUS
10
1.215
20
0.490453
11
1.21601
21
0.490275
0
LINE
8
BLACK
6
CONTINUOUS
10
1.60702
20
0.592812
11
1.60772
21
0.591142
0
LINE
8
BLACK
6
CONTINUOUS
10
1.60772
20
0.591142
11
1.60702
21
0.589471
0
LINE
8
BLACK
6
CONTINUOUS
10
1.60702
20
0.589471
11
1.60535
21
0.58878
0
LINE
8
BLACK
6
CONTINUOUS
10
1.60535
20
0.58878
11
1.50417
21
0.58878
0
LINE
8
BLACK
6
CONTINUOUS
10
1.50417
20
0.58878
11
1.50417
21
0.498622
0
LINE
8
BLACK
6
CONTINUOUS
10
1.50417
20
0.498622
11
1.50348
21
0.496952
0
LINE
8
BLACK
6
CONTINUOUS
10
1.50348
20
0.496952
11
1.50181
21
0.49626
0
LINE
8
BLACK
6
CONTINUOUS
10
1.50181
20
0.49626
11
1.50014
21
0.496952
0
LINE
8
BLACK
6
CONTINUOUS
10
1.50014
20
0.496952
11
1.49945
21
0.498622
0
LINE
8
BLACK
6
CONTINUOUS
10
1.49945
20
0.498622
11
1.49945
21
0.591142
0
LINE
8
BLACK
6
CONTINUOUS
10
1.49945
20
0.591142
11
1.50014
21
0.592812
0
LINE
8
BLACK
6
CONTINUOUS
10
1.50014
20
0.592812
11
1.50181
21
0.593504
0
LINE
8
BLACK
6
CONTINUOUS
10
1.50181
20
0.593504
11
1.60535
21
0.593504
0
LINE
8
BLACK
6
CONTINUOUS
10
1.60535
20
0.593504
11
1.60702
21
0.592812
0
LINE
8
BLACK
6
CONTINUOUS
10
1.24167
20
0.53417
11
1.24236
21
0.5325
0
LINE
8
BLACK
6
CONTINUOUS
10
1.24236
20
0.5325
11
1.24236
21
0.5025
0
LINE
8
BLACK
6
CONTINUOUS
10
1.24236
20
0.5025
11
1.24167
21
0.50083
0
LINE
8
BLACK
6
CONTINUOUS
10
1.24167
20
0.50083
11
1.24
21
0.500138
0
LINE
8
BLACK
6
CONTINUOUS
10
1.24
20
0.500138
11
1.23833
21
0.50083
0
LINE
8
BLACK
6
CONTINUOUS
10
1.23833
20
0.50083
11
1.23764
21
0.5025
0
LINE
8
BLACK
6
CONTINUOUS
10
1.23764
20
0.5025
11
1.23764
21
0.5325
0
LINE
8
BLACK
6
CONTINUOUS
10
1.23764
20
0.5325
11
1.23833
21
0.53417
0
LINE
8
BLACK
6
CONTINUOUS
10
1.23833
20
0.53417
11
1.24
21
0.534862
0
LINE
8
BLACK
6
CONTINUOUS
10
1.24
20
0.534862
11
1.24167
21
0.53417
0
LINE
8
BLACK
6
CONTINUOUS
10
1.30167
20
0.53417
11
1.30236
21
0.5325
0
LINE
8
BLACK
6
CONTINUOUS
10
1.30236
20
0.5325
11
1.30236
21
0.5025
0
LINE
8
BLACK
6
CONTINUOUS
10
1.30236
20
0.5025
11
1.30167
21
0.50083
0
LINE
8
BLACK
6
CONTINUOUS
10
1.30167
20
0.50083
11
1.3
21
0.500138
0
LINE
8
BLACK
6
CONTINUOUS
10
1.3
20
0.500138
11
1.29833
21
0.50083
0
LINE
8
BLACK
6
CONTINUOUS
10
1.29833
20
0.50083
11
1.29764
21
0.5025
0
LINE
8
BLACK
6
CONTINUOUS
10
1.29764
20
0.5025
11
1.29764
21
0.5325
0
LINE
8
BLACK
6
CONTINUOUS
10
1.29764
20
0.5325
11
1.29833
21
0.53417
0
LINE
8
BLACK
6
CONTINUOUS
10
1.29833
20
0.53417
11
1.3
21
0.534862
0
LINE
8
BLACK
6
CONTINUOUS
10
1.3
20
0.534862
11
1.30167
21
0.53417
0
LINE
8
BLACK
6
CONTINUOUS
10
0.928194
20
0.541944
11
0.928323
21
0.541967
0
LINE
8
BLACK
6
CONTINUOUS
10
0.928323
20
0.541967
11
0.928437
21
0.541901
0
LINE
8
BLACK
6
CONTINUOUS
10
0.928437
20
0.541901
11
0.92882
21
0.541834
0
LINE
8
BLACK
6
CONTINUOUS
10
0.92882
20
0.541834
11
0.929408
21
0.54134
0
LINE
8
BLACK
6
CONTINUOUS
10
0.929408
20
0.54134
11
0.930072
21
0.540957
0
LINE
8
BLACK
6
CONTINUOUS
10
0.930072
20
0.540957
11
0.930163
21
0.540706
0
LINE
8
BLACK
6
CONTINUOUS
10
0.930163
20
0.540706
11
0.930367
21
0.540535
0
LINE
8
BLACK
6
CONTINUOUS
10
0.930367
20
0.540535
11
0.930501
21
0.53978
0
LINE
8
BLACK
6
CONTINUOUS
10
0.930501
20
0.53978
11
0.930763
21
0.539059
0
LINE
8
BLACK
6
CONTINUOUS
10
0.930763
20
0.539059
11
0.930763
21
0.529685
0
LINE
8
BLACK
6
CONTINUOUS
10
0.930763
20
0.529685
11
0.93061
21
0.528816
0
LINE
8
BLACK
6
CONTINUOUS
10
0.93061
20
0.528816
11
0.930611
21
0.528751
0
LINE
8
BLACK
6
CONTINUOUS
10
0.930611
20
0.528751
11
0.928737
21
0.523127
0
LINE
8
BLACK
6
CONTINUOUS
10
0.928737
20
0.523127
11
0.928248
21
0.522225
0
LINE
8
BLACK
6
CONTINUOUS
10
0.928248
20
0.522225
11
0.928098
21
0.522133
0
LINE
8
BLACK
6
CONTINUOUS
10
0.928098
20
0.522133
11
0.928023
21
0.521973
0
LINE
8
BLACK
6
CONTINUOUS
10
0.928023
20
0.521973
11
0.924274
21
0.518223
0
LINE
8
BLACK
6
CONTINUOUS
10
0.924274
20
0.518223
11
0.923551
21
0.517717
0
LINE
8
BLACK
6
CONTINUOUS
10
0.923551
20
0.517717
11
0.923506
21
0.51767
0
LINE
8
BLACK
6
CONTINUOUS
10
0.923506
20
0.51767
11
0.919757
21
0.515795
0
LINE
8
BLACK
6
CONTINUOUS
10
0.919757
20
0.515795
11
0.919269
21
0.51565
0
LINE
8
BLACK
6
CONTINUOUS
10
0.919269
20
0.51565
11
0.919153
21
0.515572
0
LINE
8
BLACK
6
CONTINUOUS
10
0.919153
20
0.515572
11
0.911654
21
0.513697
0
LINE
8
BLACK
6
CONTINUOUS
10
0.911654
20
0.513697
11
0.911066
21
0.513656
0
LINE
8
BLACK
6
CONTINUOUS
10
0.911066
20
0.513656
11
0.910937
21
0.513609
0
LINE
8
BLACK
6
CONTINUOUS
10
0.910937
20
0.513609
11
0.905313
21
0.513609
0
LINE
8
BLACK
6
CONTINUOUS
10
0.905313
20
0.513609
11
0.904733
21
0.513711
0
LINE
8
BLACK
6
CONTINUOUS
10
0.904733
20
0.513711
11
0.904597
21
0.513697
0
LINE
8
BLACK
6
CONTINUOUS
10
0.904597
20
0.513697
11
0.897098
21
0.515572
0
LINE
8
BLACK
6
CONTINUOUS
10
0.897098
20
0.515572
11
0.896632
21
0.515779
0
LINE
8
BLACK
6
CONTINUOUS
10
0.896632
20
0.515779
11
0.896494
21
0.515795
0
LINE
8
BLACK
6
CONTINUOUS
10
0.896494
20
0.515795
11
0.892744
21
0.51767
0
LINE
8
BLACK
6
CONTINUOUS
10
0.892744
20
0.51767
11
0.892035
21
0.518196
0
LINE
8
BLACK
6
CONTINUOUS
10
0.892035
20
0.518196
11
0.891977
21
0.518223
0
LINE
8
BLACK
6
CONTINUOUS
10
0.891977
20
0.518223
11
0.888227
21
0.521973
0
LINE
8
BLACK
6
CONTINUOUS
10
0.888227
20
0.521973
11
0.887639
21
0.522813
0
LINE
8
BLACK
6
CONTINUOUS
10
0.887639
20
0.522813
11
0.887623
21
0.522989
0
LINE
8
BLACK
6
CONTINUOUS
10
0.887623
20
0.522989
11
0.887514
21
0.523127
0
LINE
8
BLACK
6
CONTINUOUS
10
0.887514
20
0.523127
11
0.885639
21
0.528751
0
LINE
8
BLACK
6
CONTINUOUS
10
0.885639
20
0.528751
11
0.885509
21
0.529624
0
LINE
8
BLACK
6
CONTINUOUS
10
0.885509
20
0.529624
11
0.885487
21
0.529685
0
LINE
8
BLACK
6
CONTINUOUS
10
0.885487
20
0.529685
11
0.885487
21
0.539059
0
LINE
8
BLACK
6
CONTINUOUS
10
0.885487
20
0.539059
11
0.885555
21
0.539442
0
LINE
8
BLACK
6
CONTINUOUS
10
0.885555
20
0.539442
11
0.885532
21
0.539572
0
LINE
8
BLACK
6
CONTINUOUS
10
0.885532
20
0.539572
11
0.885598
21
0.539685
0
LINE
8
BLACK
6
CONTINUOUS
10
0.885598
20
0.539685
11
0.885665
21
0.540069
0
LINE
8
BLACK
6
CONTINUOUS
10
0.885665
20
0.540069
11
0.886159
21
0.540656
0
LINE
8
BLACK
6
CONTINUOUS
10
0.886159
20
0.540656
11
0.886542
21
0.541321
0
LINE
8
BLACK
6
CONTINUOUS
10
0.886542
20
0.541321
11
0.886793
21
0.541412
0
LINE
8
BLACK
6
CONTINUOUS
10
0.886793
20
0.541412
11
0.886964
21
0.541616
0
LINE
8
BLACK
6
CONTINUOUS
10
0.886964
20
0.541616
11
0.887719
21
0.541749
0
LINE
8
BLACK
6
CONTINUOUS
10
0.887719
20
0.541749
11
0.88844
21
0.542012
0
LINE
8
BLACK
6
CONTINUOUS
10
0.88844
20
0.542012
11
0.92781
21
0.542012
0
LINE
8
BLACK
6
CONTINUOUS
10
0.92781
20
0.542012
11
0.928194
21
0.541944
0
LINE
8
BLACK
6
CONTINUOUS
10
0.891393
20
0.536106
11
0.891393
21
0.530164
0
LINE
8
BLACK
6
CONTINUOUS
10
0.891393
20
0.530164
11
0.892896
21
0.525656
0
LINE
8
BLACK
6
CONTINUOUS
10
0.892896
20
0.525656
11
0.895814
21
0.522738
0
LINE
8
BLACK
6
CONTINUOUS
10
0.895814
20
0.522738
11
0.898845
21
0.521222
0
LINE
8
BLACK
6
CONTINUOUS
10
0.898845
20
0.521222
11
0.905677
21
0.519514
0
LINE
8
BLACK
6
CONTINUOUS
10
0.905677
20
0.519514
11
0.910574
21
0.519514
0
LINE
8
BLACK
6
CONTINUOUS
10
0.910574
20
0.519514
11
0.917406
21
0.521222
0
LINE
8
BLACK
6
CONTINUOUS
10
0.917406
20
0.521222
11
0.920437
21
0.522738
0
LINE
8
BLACK
6
CONTINUOUS
10
0.920437
20
0.522738
11
0.923355
21
0.525656
0
LINE
8
BLACK
6
CONTINUOUS
10
0.923355
20
0.525656
11
0.924857
21
0.530164
0
LINE
8
BLACK
6
CONTINUOUS
10
0.924857
20
0.530164
11
0.924857
21
0.536106
0
LINE
8
BLACK
6
CONTINUOUS
10
0.924857
20
0.536106
11
0.891393
21
0.536106
0
LINE
8
BLACK
6
CONTINUOUS
10
1.21667
20
0.56417
11
1.21736
21
0.5625
0
LINE
8
BLACK
6
CONTINUOUS
10
1.21736
20
0.5625
11
1.21736
21
0.5325
0
LINE
8
BLACK
6
CONTINUOUS
10
1.21736
20
0.5325
11
1.21667
21
0.53083
0
LINE
8
BLACK
6
CONTINUOUS
10
1.21667
20
0.53083
11
1.215
21
0.530138
0
LINE
8
BLACK
6
CONTINUOUS
10
1.215
20
0.530138
11
1.21333
21
0.53083
0
LINE
8
BLACK
6
CONTINUOUS
10
1.21333
20
0.53083
11
1.21264
21
0.5325
0
LINE
8
BLACK
6
CONTINUOUS
10
1.21264
20
0.5325
11
1.21264
21
0.5625
0
LINE
8
BLACK
6
CONTINUOUS
10
1.21264
20
0.5625
11
1.21333
21
0.56417
0
LINE
8
BLACK
6
CONTINUOUS
10
1.21333
20
0.56417
11
1.215
21
0.564862
0
LINE
8
BLACK
6
CONTINUOUS
10
1.215
20
0.564862
11
1.21667
21
0.56417
0
LINE
8
BLACK
6
CONTINUOUS
10
1.15667
20
0.56417
11
1.15736
21
0.5625
0
LINE
8
BLACK
6
CONTINUOUS
10
1.15736
20
0.5625
11
1.15736
21
0.5325
0
LINE
8
BLACK
6
CONTINUOUS
10
1.15736
20
0.5325
11
1.15667
21
0.53083
0
LINE
8
BLACK
6
CONTINUOUS
10
1.15667
20
0.53083
11
1.155
21
0.530138
0
LINE
8
BLACK
6
CONTINUOUS
10
1.155
20
0.530138
11
1.15333
21
0.53083
0
LINE
8
BLACK
6
CONTINUOUS
10
1.15333
20
0.53083
11
1.15264
21
0.5325
0
LINE
8
BLACK
6
CONTINUOUS
10
1.15264
20
0.5325
11
1.15264
21
0.5625
0
LINE
8
BLACK
6
CONTINUOUS
10
1.15264
20
0.5625
11
1.15333
21
0.56417
0
LINE
8
BLACK
6
CONTINUOUS
10
1.15333
20
0.56417
11
1.155
21
0.564862
0
LINE
8
BLACK
6
CONTINUOUS
10
1.155
20
0.564862
11
1.15667
21
0.56417
0
LINE
8
BLACK
6
CONTINUOUS
10
1.30101
20
0.580275
11
1.30256
21
0.578976
0
LINE
8
BLACK
6
CONTINUOUS
10
1.30256
20
0.578976
11
1.30291
21
0.576987
0
LINE
8
BLACK
6
CONTINUOUS
10
1.30291
20
0.576987
11
1.3019
21
0.575238
0
LINE
8
BLACK
6
CONTINUOUS
10
1.3019
20
0.575238
11
1.3
21
0.574547
0
LINE
8
BLACK
6
CONTINUOUS
10
1.3
20
0.574547
11
1.24
21
0.574547
0
LINE
8
BLACK
6
CONTINUOUS
10
1.24
20
0.574547
11
1.23899
21
0.574725
0
LINE
8
BLACK
6
CONTINUOUS
10
1.23899
20
0.574725
11
1.23744
21
0.576024
0
LINE
8
BLACK
6
CONTINUOUS
10
1.23744
20
0.576024
11
1.23709
21
0.578013
0
LINE
8
BLACK
6
CONTINUOUS
10
1.23709
20
0.578013
11
1.2381
21
0.579762
0
LINE
8
BLACK
6
CONTINUOUS
10
1.2381
20
0.579762
11
1.24
21
0.580453
0
LINE
8
BLACK
6
CONTINUOUS
10
1.24
20
0.580453
11
1.3
21
0.580453
0
LINE
8
BLACK
6
CONTINUOUS
10
1.3
20
0.580453
11
1.30101
21
0.580275
0
LINE
8
BLACK
6
CONTINUOUS
10
0.45701
20
0.587275
11
0.458557
21
0.585976
0
LINE
8
BLACK
6
CONTINUOUS
10
0.458557
20
0.585976
11
0.458908
21
0.583987
0
LINE
8
BLACK
6
CONTINUOUS
10
0.458908
20
0.583987
11
0.457898
21
0.582238
0
LINE
8
BLACK
6
CONTINUOUS
10
0.457898
20
0.582238
11
0.456
21
0.581547
0
LINE
8
BLACK
6
CONTINUOUS
10
0.456
20
0.581547
11
0.396
21
0.581547
0
LINE
8
BLACK
6
CONTINUOUS
10
0.396
20
0.581547
11
0.39499
21
0.581725
0
LINE
8
BLACK
6
CONTINUOUS
10
0.39499
20
0.581725
11
0.393443
21
0.583024
0
LINE
8
BLACK
6
CONTINUOUS
10
0.393443
20
0.583024
11
0.393092
21
0.585013
0
LINE
8
BLACK
6
CONTINUOUS
10
0.393092
20
0.585013
11
0.394102
21
0.586762
0
LINE
8
BLACK
6
CONTINUOUS
10
0.394102
20
0.586762
11
0.396
21
0.587453
0
LINE
8
BLACK
6
CONTINUOUS
10
0.396
20
0.587453
11
0.456
21
0.587453
0
LINE
8
BLACK
6
CONTINUOUS
10
0.456
20
0.587453
11
0.45701
21
0.587275
0
LINE
8
BLACK
6
CONTINUOUS
10
0.93101
20
0.600275
11
0.932557
21
0.598976
0
LINE
8
BLACK
6
CONTINUOUS
10
0.932557
20
0.598976
11
0.932908
21
0.596987
0
LINE
8
BLACK
6
CONTINUOUS
10
0.932908
20
0.596987
11
0.931898
21
0.595238
0
LINE
8
BLACK
6
CONTINUOUS
10
0.931898
20
0.595238
11
0.93
21
0.594547
0
LINE
8
BLACK
6
CONTINUOUS
10
0.93
20
0.594547
11
0.87
21
0.594547
0
LINE
8
BLACK
6
CONTINUOUS
10
0.87
20
0.594547
11
0.86899
21
0.594725
0
LINE
8
BLACK
6
CONTINUOUS
10
0.86899
20
0.594725
11
0.867443
21
0.596024
0
LINE
8
BLACK
6
CONTINUOUS
10
0.867443
20
0.596024
11
0.867092
21
0.598013
0
LINE
8
BLACK
6
CONTINUOUS
10
0.867092
20
0.598013
11
0.868102
21
0.599762
0
LINE
8
BLACK
6
CONTINUOUS
10
0.868102
20
0.599762
11
0.87
21
0.600453
0
LINE
8
BLACK
6
CONTINUOUS
10
0.87
20
0.600453
11
0.93
21
0.600453
0
LINE
8
BLACK
6
CONTINUOUS
10
0.93
20
0.600453
11
0.93101
21
0.600275
0
LINE
8
BLACK
6
CONTINUOUS
10
1.21601
20
0.610275
11
1.21756
21
0.608976
0
LINE
8
BLACK
6
CONTINUOUS
10
1.21756
20
0.608976
11
1.21791
21
0.606987
0
LINE
8
BLACK
6
CONTINUOUS
10
1.21791
20
0.606987
11
1.2169
21
0.605238
0
LINE
8
BLACK
6
CONTINUOUS
10
1.2169
20
0.605238
11
1.215
21
0.604547
0
LINE
8
BLACK
6
CONTINUOUS
10
1.215
20
0.604547
11
1.155
21
0.604547
0
LINE
8
BLACK
6
CONTINUOUS
10
1.155
20
0.604547
11
1.15399
21
0.604725
0
LINE
8
BLACK
6
CONTINUOUS
10
1.15399
20
0.604725
11
1.15244
21
0.606024
0
LINE
8
BLACK
6
CONTINUOUS
10
1.15244
20
0.606024
11
1.15209
21
0.608013
0
LINE
8
BLACK
6
CONTINUOUS
10
1.15209
20
0.608013
11
1.1531
21
0.609762
0
LINE
8
BLACK
6
CONTINUOUS
10
1.1531
20
0.609762
11
1.155
21
0.610453
0
LINE
8
BLACK
6
CONTINUOUS
10
1.155
20
0.610453
11
1.215
21
0.610453
0
LINE
8
BLACK
6
CONTINUOUS
10
1.215
20
0.610453
11
1.21601
21
0.610275
0
LINE
8
BLACK
6
CONTINUOUS
10
0.39767
20
0.66117
11
0.398362
21
0.6595
0
LINE
8
BLACK
6
CONTINUOUS
10
0.398362
20
0.6595
11
0.398362
21
0.6295
0
LINE
8
BLACK
6
CONTINUOUS
10
0.398362
20
0.6295
11
0.39767
21
0.62783
0
LINE
8
BLACK
6
CONTINUOUS
10
0.39767
20
0.62783
11
0.396
21
0.627138
0
LINE
8
BLACK
6
CONTINUOUS
10
0.396
20
0.627138
11
0.39433
21
0.62783
0
LINE
8
BLACK
6
CONTINUOUS
10
0.39433
20
0.62783
11
0.393638
21
0.6295
0
LINE
8
BLACK
6
CONTINUOUS
10
0.393638
20
0.6295
11
0.393638
21
0.6595
0
LINE
8
BLACK
6
CONTINUOUS
10
0.393638
20
0.6595
11
0.39433
21
0.66117
0
LINE
8
BLACK
6
CONTINUOUS
10
0.39433
20
0.66117
11
0.396
21
0.661862
0
LINE
8
BLACK
6
CONTINUOUS
10
0.396
20
0.661862
11
0.39767
21
0.66117
0
LINE
8
BLACK
6
CONTINUOUS
10
0.45767
20
0.66117
11
0.458362
21
0.6595
0
LINE
8
BLACK
6
CONTINUOUS
10
0.458362
20
0.6595
11
0.458362
21
0.6295
0
LINE
8
BLACK
6
CONTINUOUS
10
0.458362
20
0.6295
11
0.45767
21
0.62783
0
LINE
8
BLACK
6
CONTINUOUS
10
0.45767
20
0.62783
11
0.456
21
0.627138
0
LINE
8
BLACK
6
CONTINUOUS
10
0.456
20
0.627138
11
0.45433
21
0.62783
0
LINE
8
BLACK
6
CONTINUOUS
10
0.45433
20
0.62783
11
0.453638
21
0.6295
0
LINE
8
BLACK
6
CONTINUOUS
10
0.453638
20
0.6295
11
0.453638
21
0.6595
0
LINE
8
BLACK
6
CONTINUOUS
10
0.453638
20
0.6595
11
0.45433
21
0.66117
0
LINE
8
BLACK
6
CONTINUOUS
10
0.45433
20
0.66117
11
0.456
21
0.661862
0
LINE
8
BLACK
6
CONTINUOUS
10
0.456
20
0.661862
11
0.45767
21
0.66117
0
LINE
8
BLACK
6
CONTINUOUS
10
0.93167
20
0.67417
11
0.932362
21
0.6725
0
LINE
8
BLACK
6
CONTINUOUS
10
0.932362
20
0.6725
11
0.932362
21
0.6425
0
LINE
8
BLACK
6
CONTINUOUS
10
0.932362
20
0.6425
11
0.93167
21
0.64083
0
LINE
8
BLACK
6
CONTINUOUS
10
0.93167
20
0.64083
11
0.93
21
0.640138
0
LINE
8
BLACK
6
CONTINUOUS
10
0.93
20
0.640138
11
0.92833
21
0.64083
0
LINE
8
BLACK
6
CONTINUOUS
10
0.92833
20
0.64083
11
0.927638
21
0.6425
0
LINE
8
BLACK
6
CONTINUOUS
10
0.927638
20
0.6425
11
0.927638
21
0.6725
0
LINE
8
BLACK
6
CONTINUOUS
10
0.927638
20
0.6725
11
0.92833
21
0.67417
0
LINE
8
BLACK
6
CONTINUOUS
10
0.92833
20
0.67417
11
0.93
21
0.674862
0
LINE
8
BLACK
6
CONTINUOUS
10
0.93
20
0.674862
11
0.93167
21
0.67417
0
LINE
8
BLACK
6
CONTINUOUS
10
0.87167
20
0.67417
11
0.872362
21
0.6725
0
LINE
8
BLACK
6
CONTINUOUS
10
0.872362
20
0.6725
11
0.872362
21
0.6425
0
LINE
8
BLACK
6
CONTINUOUS
10
0.872362
20
0.6425
11
0.87167
21
0.64083
0
LINE
8
BLACK
6
CONTINUOUS
10
0.87167
20
0.64083
11
0.87
21
0.640138
0
LINE
8
BLACK
6
CONTINUOUS
10
0.87
20
0.640138
11
0.86833
21
0.64083
0
LINE
8
BLACK
6
CONTINUOUS
10
0.86833
20
0.64083
11
0.867638
21
0.6425
0
LINE
8
BLACK
6
CONTINUOUS
10
0.867638
20
0.6425
11
0.867638
21
0.6725
0
LINE
8
BLACK
6
CONTINUOUS
10
0.867638
20
0.6725
11
0.86833
21
0.67417
0
LINE
8
BLACK
6
CONTINUOUS
10
0.86833
20
0.67417
11
0.87
21
0.674862
0
LINE
8
BLACK
6
CONTINUOUS
10
0.87
20
0.674862
11
0.87167
21
0.67417
0
LINE
8
BLACK
6
CONTINUOUS
10
0.271497
20
0.697374
11
0.272189
21
0.695703
0
LINE
8
BLACK
6
CONTINUOUS
10
0.272189
20
0.695703
11
0.272189
21
0.648297
0
LINE
8
BLACK
6
CONTINUOUS
10
0.272189
20
0.648297
11
0.271497
21
0.646626
0
LINE
8
BLACK
6
CONTINUOUS
10
0.271497
20
0.646626
11
0.269827
21
0.645934
0
LINE
8
BLACK
6
CONTINUOUS
10
0.269827
20
0.645934
11
0.268156
21
0.646626
0
LINE
8
BLACK
6
CONTINUOUS
10
0.268156
20
0.646626
11
0.267465
21
0.648297
0
LINE
8
BLACK
6
CONTINUOUS
10
0.267465
20
0.648297
11
0.267465
21
0.695703
0
LINE
8
BLACK
6
CONTINUOUS
10
0.267465
20
0.695703
11
0.268156
21
0.697374
0
LINE
8
BLACK
6
CONTINUOUS
10
0.268156
20
0.697374
11
0.269827
21
0.698066
0
LINE
8
BLACK
6
CONTINUOUS
10
0.269827
20
0.698066
11
0.271497
21
0.697374
0
LINE
8
BLACK
6
CONTINUOUS
10
0.199844
20
0.697374
11
0.200535
21
0.695703
0
LINE
8
BLACK
6
CONTINUOUS
10
0.200535
20
0.695703
11
0.200535
21
0.648297
0
LINE
8
BLACK
6
CONTINUOUS
10
0.200535
20
0.648297
11
0.199844
21
0.646626
0
LINE
8
BLACK
6
CONTINUOUS
10
0.199844
20
0.646626
11
0.198173
21
0.645934
0
LINE
8
BLACK
6
CONTINUOUS
10
0.198173
20
0.645934
11
0.196503
21
0.646626
0
LINE
8
BLACK
6
CONTINUOUS
10
0.196503
20
0.646626
11
0.195811
21
0.648297
0
LINE
8
BLACK
6
CONTINUOUS
10
0.195811
20
0.648297
11
0.195811
21
0.695703
0
LINE
8
BLACK
6
CONTINUOUS
10
0.195811
20
0.695703
11
0.196503
21
0.697374
0
LINE
8
BLACK
6
CONTINUOUS
10
0.196503
20
0.697374
11
0.198173
21
0.698066
0
LINE
8
BLACK
6
CONTINUOUS
10
0.198173
20
0.698066
11
0.199844
21
0.697374
0
LINE
8
BLACK
6
CONTINUOUS
10
0.299844
20
0.697374
11
0.300535
21
0.695703
0
LINE
8
BLACK
6
CONTINUOUS
10
0.300535
20
0.695703
11
0.300535
21
0.648297
0
LINE
8
BLACK
6
CONTINUOUS
10
0.300535
20
0.648297
11
0.299844
21
0.646626
0
LINE
8
BLACK
6
CONTINUOUS
10
0.299844
20
0.646626
11
0.298173
21
0.645934
0
LINE
8
BLACK
6
CONTINUOUS
10
0.298173
20
0.645934
11
0.296503
21
0.646626
0
LINE
8
BLACK
6
CONTINUOUS
10
0.296503
20
0.646626
11
0.295811
21
0.648297
0
LINE
8
BLACK
6
CONTINUOUS
10
0.295811
20
0.648297
11
0.295811
21
0.695703
0
LINE
8
BLACK
6
CONTINUOUS
10
0.295811
20
0.695703
11
0.296503
21
0.697374
0
LINE
8
BLACK
6
CONTINUOUS
10
0.296503
20
0.697374
11
0.298173
21
0.698066
0
LINE
8
BLACK
6
CONTINUOUS
10
0.298173
20
0.698066
11
0.299844
21
0.697374
0
LINE
8
BLACK
6
CONTINUOUS
10
0.371497
20
0.697374
11
0.372189
21
0.695703
0
LINE
8
BLACK
6
CONTINUOUS
10
0.372189
20
0.695703
11
0.372189
21
0.648297
0
LINE
8
BLACK
6
CONTINUOUS
10
0.372189
20
0.648297
11
0.371497
21
0.646626
0
LINE
8
BLACK
6
CONTINUOUS
10
0.371497
20
0.646626
11
0.369827
21
0.645934
0
LINE
8
BLACK
6
CONTINUOUS
10
0.369827
20
0.645934
11
0.368156
21
0.646626
0
LINE
8
BLACK
6
CONTINUOUS
10
0.368156
20
0.646626
11
0.367465
21
0.648297
0
LINE
8
BLACK
6
CONTINUOUS
10
0.367465
20
0.648297
11
0.367465
21
0.695703
0
LINE
8
BLACK
6
CONTINUOUS
10
0.367465
20
0.695703
11
0.368156
21
0.697374
0
LINE
8
BLACK
6
CONTINUOUS
10
0.368156
20
0.697374
11
0.369827
21
0.698066
0
LINE
8
BLACK
6
CONTINUOUS
10
0.369827
20
0.698066
11
0.371497
21
0.697374
0
LINE
8
BLACK
6
CONTINUOUS
10
0.614117
20
0.684117
11
0.613425
21
0.685787
0
LINE
8
BLACK
6
CONTINUOUS
10
0.613425
20
0.685787
11
0.614117
21
0.687458
0
LINE
8
BLACK
6
CONTINUOUS
10
0.614117
20
0.687458
11
0.615787
21
0.68815
0
LINE
8
BLACK
6
CONTINUOUS
10
0.615787
20
0.68815
11
0.769331
21
0.68815
0
LINE
8
BLACK
6
CONTINUOUS
10
0.769331
20
0.68815
11
0.771001
21
0.687458
0
LINE
8
BLACK
6
CONTINUOUS
10
0.771001
20
0.687458
11
0.771693
21
0.685787
0
LINE
8
BLACK
6
CONTINUOUS
10
0.771693
20
0.685787
11
0.771001
21
0.684117
0
LINE
8
BLACK
6
CONTINUOUS
10
0.771001
20
0.684117
11
0.769331
21
0.683425
0
LINE
8
BLACK
6
CONTINUOUS
10
0.769331
20
0.683425
11
0.615787
21
0.683425
0
LINE
8
BLACK
6
CONTINUOUS
10
0.615787
20
0.683425
11
0.614117
21
0.684117
0
LINE
8
BLACK
6
CONTINUOUS
10
1.59435
20
0.766592
11
1.59504
21
0.764921
0
LINE
8
BLACK
6
CONTINUOUS
10
1.59504
20
0.764921
11
1.59504
21
0.696417
0
LINE
8
BLACK
6
CONTINUOUS
10
1.59504
20
0.696417
11
1.64976
21
0.696417
0
LINE
8
BLACK
6
CONTINUOUS
10
1.64976
20
0.696417
11
1.65143
21
0.695725
0
LINE
8
BLACK
6
CONTINUOUS
10
1.65143
20
0.695725
11
1.65213
21
0.694055
0
LINE
8
BLACK
6
CONTINUOUS
10
1.65213
20
0.694055
11
1.65143
21
0.692385
0
LINE
8
BLACK
6
CONTINUOUS
10
1.65143
20
0.692385
11
1.64976
21
0.691693
0
LINE
8
BLACK
6
CONTINUOUS
10
1.64976
20
0.691693
11
1.59268
21
0.691693
0
LINE
8
BLACK
6
CONTINUOUS
10
1.59268
20
0.691693
11
1.59101
21
0.692385
0
LINE
8
BLACK
6
CONTINUOUS
10
1.59101
20
0.692385
11
1.59031
21
0.694055
0
LINE
8
BLACK
6
CONTINUOUS
10
1.59031
20
0.694055
11
1.59031
21
0.764921
0
LINE
8
BLACK
6
CONTINUOUS
10
1.59031
20
0.764921
11
1.59101
21
0.766592
0
LINE
8
BLACK
6
CONTINUOUS
10
1.59101
20
0.766592
11
1.59268
21
0.767283
0
LINE
8
BLACK
6
CONTINUOUS
10
1.59268
20
0.767283
11
1.59435
21
0.766592
0
LINE
8
BLACK
6
CONTINUOUS
10
0.45701
20
0.707275
11
0.458557
21
0.705976
0
LINE
8
BLACK
6
CONTINUOUS
10
0.458557
20
0.705976
11
0.458908
21
0.703987
0
LINE
8
BLACK
6
CONTINUOUS
10
0.458908
20
0.703987
11
0.457898
21
0.702238
0
LINE
8
BLACK
6
CONTINUOUS
10
0.457898
20
0.702238
11
0.456
21
0.701547
0
LINE
8
BLACK
6
CONTINUOUS
10
0.456
20
0.701547
11
0.396
21
0.701547
0
LINE
8
BLACK
6
CONTINUOUS
10
0.396
20
0.701547
11
0.39499
21
0.701725
0
LINE
8
BLACK
6
CONTINUOUS
10
0.39499
20
0.701725
11
0.393443
21
0.703024
0
LINE
8
BLACK
6
CONTINUOUS
10
0.393443
20
0.703024
11
0.393092
21
0.705013
0
LINE
8
BLACK
6
CONTINUOUS
10
0.393092
20
0.705013
11
0.394102
21
0.706762
0
LINE
8
BLACK
6
CONTINUOUS
10
0.394102
20
0.706762
11
0.396
21
0.707453
0
LINE
8
BLACK
6
CONTINUOUS
10
0.396
20
0.707453
11
0.456
21
0.707453
0
LINE
8
BLACK
6
CONTINUOUS
10
0.456
20
0.707453
11
0.45701
21
0.707275
0
LINE
8
BLACK
6
CONTINUOUS
10
0.783511
20
0.754334
11
0.785058
21
0.753036
0
LINE
8
BLACK
6
CONTINUOUS
10
0.785058
20
0.753036
11
0.785409
21
0.751047
0
LINE
8
BLACK
6
CONTINUOUS
10
0.785409
20
0.751047
11
0.784399
21
0.749298
0
LINE
8
BLACK
6
CONTINUOUS
10
0.784399
20
0.749298
11
0.782501
21
0.748607
0
LINE
8
BLACK
6
CONTINUOUS
10
0.782501
20
0.748607
11
0.764636
21
0.748607
0
LINE
8
BLACK
6
CONTINUOUS
10
0.764636
20
0.748607
11
0.773475
21
0.738506
0
LINE
8
BLACK
6
CONTINUOUS
10
0.773475
20
0.738506
11
0.773704
21
0.738126
0
LINE
8
BLACK
6
CONTINUOUS
10
0.773704
20
0.738126
11
0.773809
21
0.738038
0
LINE
8
BLACK
6
CONTINUOUS
10
0.773809
20
0.738038
11
0.773831
21
0.737918
0
LINE
8
BLACK
6
CONTINUOUS
10
0.773831
20
0.737918
11
0.774006
21
0.737629
0
LINE
8
BLACK
6
CONTINUOUS
10
0.774006
20
0.737629
11
0.774022
21
0.736833
0
LINE
8
BLACK
6
CONTINUOUS
10
0.774022
20
0.736833
11
0.77416
21
0.736049
0
LINE
8
BLACK
6
CONTINUOUS
10
0.77416
20
0.736049
11
0.774042
21
0.735845
0
LINE
8
BLACK
6
CONTINUOUS
10
0.774042
20
0.735845
11
0.774047
21
0.735609
0
LINE
8
BLACK
6
CONTINUOUS
10
0.774047
20
0.735609
11
0.773548
21
0.734989
0
LINE
8
BLACK
6
CONTINUOUS
10
0.773548
20
0.734989
11
0.77315
21
0.7343
0
LINE
8
BLACK
6
CONTINUOUS
10
0.77315
20
0.7343
11
0.772929
21
0.734219
0
LINE
8
BLACK
6
CONTINUOUS
10
0.772929
20
0.734219
11
0.772781
21
0.734036
0
LINE
8
BLACK
6
CONTINUOUS
10
0.772781
20
0.734036
11
0.772
21
0.733881
0
LINE
8
BLACK
6
CONTINUOUS
10
0.772
20
0.733881
11
0.771252
21
0.733609
0
LINE
8
BLACK
6
CONTINUOUS
10
0.771252
20
0.733609
11
0.766325
21
0.733609
0
LINE
8
BLACK
6
CONTINUOUS
10
0.766325
20
0.733609
11
0.763628
21
0.73226
0
LINE
8
BLACK
6
CONTINUOUS
10
0.763628
20
0.73226
11
0.76243
21
0.731063
0
LINE
8
BLACK
6
CONTINUOUS
10
0.76243
20
0.731063
11
0.761082
21
0.728366
0
LINE
8
BLACK
6
CONTINUOUS
10
0.761082
20
0.728366
11
0.761082
21
0.720386
0
LINE
8
BLACK
6
CONTINUOUS
10
0.761082
20
0.720386
11
0.76243
21
0.717688
0
LINE
8
BLACK
6
CONTINUOUS
10
0.76243
20
0.717688
11
0.763628
21
0.716491
0
LINE
8
BLACK
6
CONTINUOUS
10
0.763628
20
0.716491
11
0.766325
21
0.715142
0
LINE
8
BLACK
6
CONTINUOUS
10
0.766325
20
0.715142
11
0.77618
21
0.715142
0
LINE
8
BLACK
6
CONTINUOUS
10
0.77618
20
0.715142
11
0.778877
21
0.716491
0
LINE
8
BLACK
6
CONTINUOUS
10
0.778877
20
0.716491
11
0.780413
21
0.718027
0
LINE
8
BLACK
6
CONTINUOUS
10
0.780413
20
0.718027
11
0.781253
21
0.718615
0
LINE
8
BLACK
6
CONTINUOUS
10
0.781253
20
0.718615
11
0.783265
21
0.718791
0
LINE
8
BLACK
6
CONTINUOUS
10
0.783265
20
0.718791
11
0.78492
21
0.717633
0
LINE
8
BLACK
6
CONTINUOUS
10
0.78492
20
0.717633
11
0.785442
21
0.715682
0
LINE
8
BLACK
6
CONTINUOUS
10
0.785442
20
0.715682
11
0.784589
21
0.713851
0
LINE
8
BLACK
6
CONTINUOUS
10
0.784589
20
0.713851
11
0.782714
21
0.711977
0
LINE
8
BLACK
6
CONTINUOUS
10
0.782714
20
0.711977
11
0.781991
21
0.71147
0
LINE
8
BLACK
6
CONTINUOUS
10
0.781991
20
0.71147
11
0.781947
21
0.711423
0
LINE
8
BLACK
6
CONTINUOUS
10
0.781947
20
0.711423
11
0.778197
21
0.709549
0
LINE
8
BLACK
6
CONTINUOUS
10
0.778197
20
0.709549
11
0.777214
21
0.709256
0
LINE
8
BLACK
6
CONTINUOUS
10
0.777214
20
0.709256
11
0.777043
21
0.709297
0
LINE
8
BLACK
6
CONTINUOUS
10
0.777043
20
0.709297
11
0.776877
21
0.709237
0
LINE
8
BLACK
6
CONTINUOUS
10
0.776877
20
0.709237
11
0.765628
21
0.709237
0
LINE
8
BLACK
6
CONTINUOUS
10
0.765628
20
0.709237
11
0.764618
21
0.709415
0
LINE
8
BLACK
6
CONTINUOUS
10
0.764618
20
0.709415
11
0.764483
21
0.709529
0
LINE
8
BLACK
6
CONTINUOUS
10
0.764483
20
0.709529
11
0.764308
21
0.709549
0
LINE
8
BLACK
6
CONTINUOUS
10
0.764308
20
0.709549
11
0.760558
21
0.711423
0
LINE
8
BLACK
6
CONTINUOUS
10
0.760558
20
0.711423
11
0.759849
21
0.711949
0
LINE
8
BLACK
6
CONTINUOUS
10
0.759849
20
0.711949
11
0.759791
21
0.711977
0
LINE
8
BLACK
6
CONTINUOUS
10
0.759791
20
0.711977
11
0.757916
21
0.713851
0
LINE
8
BLACK
6
CONTINUOUS
10
0.757916
20
0.713851
11
0.75741
21
0.714574
0
LINE
8
BLACK
6
CONTINUOUS
10
0.75741
20
0.714574
11
0.757363
21
0.714619
0
LINE
8
BLACK
6
CONTINUOUS
10
0.757363
20
0.714619
11
0.755488
21
0.718368
0
LINE
8
BLACK
6
CONTINUOUS
10
0.755488
20
0.718368
11
0.755196
21
0.719351
0
LINE
8
BLACK
6
CONTINUOUS
10
0.755196
20
0.719351
11
0.755237
21
0.719523
0
LINE
8
BLACK
6
CONTINUOUS
10
0.755237
20
0.719523
11
0.755176
21
0.719689
0
LINE
8
BLACK
6
CONTINUOUS
10
0.755176
20
0.719689
11
0.755176
21
0.729063
0
LINE
8
BLACK
6
CONTINUOUS
10
0.755176
20
0.729063
11
0.755354
21
0.730073
0
LINE
8
BLACK
6
CONTINUOUS
10
0.755354
20
0.730073
11
0.755468
21
0.730208
0
LINE
8
BLACK
6
CONTINUOUS
10
0.755468
20
0.730208
11
0.755488
21
0.730383
0
LINE
8
BLACK
6
CONTINUOUS
10
0.755488
20
0.730383
11
0.757363
21
0.734133
0
LINE
8
BLACK
6
CONTINUOUS
10
0.757363
20
0.734133
11
0.757889
21
0.734842
0
LINE
8
BLACK
6
CONTINUOUS
10
0.757889
20
0.734842
11
0.757916
21
0.7349
0
LINE
8
BLACK
6
CONTINUOUS
10
0.757916
20
0.7349
11
0.759791
21
0.736775
0
LINE
8
BLACK
6
CONTINUOUS
10
0.759791
20
0.736775
11
0.760514
21
0.737281
0
LINE
8
BLACK
6
CONTINUOUS
10
0.760514
20
0.737281
11
0.760558
21
0.737328
0
LINE
8
BLACK
6
CONTINUOUS
10
0.760558
20
0.737328
11
0.764308
21
0.739203
0
LINE
8
BLACK
6
CONTINUOUS
10
0.764308
20
0.739203
11
0.764871
21
0.73937
0
LINE
8
BLACK
6
CONTINUOUS
10
0.764871
20
0.73937
11
0.755907
21
0.749615
0
LINE
8
BLACK
6
CONTINUOUS
10
0.755907
20
0.749615
11
0.755677
21
0.749995
0
LINE
8
BLACK
6
CONTINUOUS
10
0.755677
20
0.749995
11
0.755572
21
0.750083
0
LINE
8
BLACK
6
CONTINUOUS
10
0.755572
20
0.750083
11
0.755551
21
0.750204
0
LINE
8
BLACK
6
CONTINUOUS
10
0.755551
20
0.750204
11
0.755376
21
0.750493
0
LINE
8
BLACK
6
CONTINUOUS
10
0.755376
20
0.750493
11
0.755359
21
0.751289
0
LINE
8
BLACK
6
CONTINUOUS
10
0.755359
20
0.751289
11
0.755221
21
0.752073
0
LINE
8
BLACK
6
CONTINUOUS
10
0.755221
20
0.752073
11
0.755339
21
0.752277
0
LINE
8
BLACK
6
CONTINUOUS
10
0.755339
20
0.752277
11
0.755334
21
0.752512
0
LINE
8
BLACK
6
CONTINUOUS
10
0.755334
20
0.752512
11
0.755833
21
0.753132
0
LINE
8
BLACK
6
CONTINUOUS
10
0.755833
20
0.753132
11
0.756231
21
0.753822
0
LINE
8
BLACK
6
CONTINUOUS
10
0.756231
20
0.753822
11
0.756452
21
0.753902
0
LINE
8
BLACK
6
CONTINUOUS
10
0.756452
20
0.753902
11
0.7566
21
0.754086
0
LINE
8
BLACK
6
CONTINUOUS
10
0.7566
20
0.754086
11
0.757381
21
0.75424
0
LINE
8
BLACK
6
CONTINUOUS
10
0.757381
20
0.75424
11
0.758129
21
0.754513
0
LINE
8
BLACK
6
CONTINUOUS
10
0.758129
20
0.754513
11
0.782501
21
0.754513
0
LINE
8
BLACK
6
CONTINUOUS
10
0.782501
20
0.754513
11
0.783511
21
0.754334
0
LINE
8
BLACK
6
CONTINUOUS
10
0.822258
20
0.753458
11
0.822949
21
0.75156
0
LINE
8
BLACK
6
CONTINUOUS
10
0.822949
20
0.75156
11
0.822949
21
0.719689
0
LINE
8
BLACK
6
CONTINUOUS
10
0.822949
20
0.719689
11
0.822771
21
0.718679
0
LINE
8
BLACK
6
CONTINUOUS
10
0.822771
20
0.718679
11
0.822657
21
0.718544
0
LINE
8
BLACK
6
CONTINUOUS
10
0.822657
20
0.718544
11
0.822637
21
0.718368
0
LINE
8
BLACK
6
CONTINUOUS
10
0.822637
20
0.718368
11
0.820762
21
0.714619
0
LINE
8
BLACK
6
CONTINUOUS
10
0.820762
20
0.714619
11
0.820237
21
0.71391
0
LINE
8
BLACK
6
CONTINUOUS
10
0.820237
20
0.71391
11
0.820209
21
0.713851
0
LINE
8
BLACK
6
CONTINUOUS
10
0.820209
20
0.713851
11
0.818335
21
0.711977
0
LINE
8
BLACK
6
CONTINUOUS
10
0.818335
20
0.711977
11
0.817612
21
0.71147
0
LINE
8
BLACK
6
CONTINUOUS
10
0.817612
20
0.71147
11
0.817567
21
0.711423
0
LINE
8
BLACK
6
CONTINUOUS
10
0.817567
20
0.711423
11
0.813818
21
0.709549
0
LINE
8
BLACK
6
CONTINUOUS
10
0.813818
20
0.709549
11
0.812835
21
0.709256
0
LINE
8
BLACK
6
CONTINUOUS
10
0.812835
20
0.709256
11
0.812663
21
0.709297
0
LINE
8
BLACK
6
CONTINUOUS
10
0.812663
20
0.709297
11
0.812497
21
0.709237
0
LINE
8
BLACK
6
CONTINUOUS
10
0.812497
20
0.709237
11
0.804998
21
0.709237
0
LINE
8
BLACK
6
CONTINUOUS
10
0.804998
20
0.709237
11
0.803988
21
0.709415
0
LINE
8
BLACK
6
CONTINUOUS
10
0.803988
20
0.709415
11
0.803853
21
0.709529
0
LINE
8
BLACK
6
CONTINUOUS
10
0.803853
20
0.709529
11
0.803678
21
0.709549
0
LINE
8
BLACK
6
CONTINUOUS
10
0.803678
20
0.709549
11
0.799928
21
0.711423
0
LINE
8
BLACK
6
CONTINUOUS
10
0.799928
20
0.711423
11
0.799219
21
0.711949
0
LINE
8
BLACK
6
CONTINUOUS
10
0.799219
20
0.711949
11
0.799161
21
0.711977
0
LINE
8
BLACK
6
CONTINUOUS
10
0.799161
20
0.711977
11
0.797286
21
0.713851
0
LINE
8
BLACK
6
CONTINUOUS
10
0.797286
20
0.713851
11
0.79678
21
0.714574
0
LINE
8
BLACK
6
CONTINUOUS
10
0.79678
20
0.714574
11
0.796733
21
0.714619
0
LINE
8
BLACK
6
CONTINUOUS
10
0.796733
20
0.714619
11
0.794858
21
0.718368
0
LINE
8
BLACK
6
CONTINUOUS
10
0.794858
20
0.718368
11
0.794566
21
0.719351
0
LINE
8
BLACK
6
CONTINUOUS
10
0.794566
20
0.719351
11
0.794607
21
0.719523
0
LINE
8
BLACK
6
CONTINUOUS
10
0.794607
20
0.719523
11
0.794546
21
0.719689
0
LINE
8
BLACK
6
CONTINUOUS
10
0.794546
20
0.719689
11
0.794546
21
0.75156
0
LINE
8
BLACK
6
CONTINUOUS
10
0.794546
20
0.75156
11
0.794724
21
0.75257
0
LINE
8
BLACK
6
CONTINUOUS
10
0.794724
20
0.75257
11
0.796023
21
0.754117
0
LINE
8
BLACK
6
CONTINUOUS
10
0.796023
20
0.754117
11
0.798012
21
0.754468
0
LINE
8
BLACK
6
CONTINUOUS
10
0.798012
20
0.754468
11
0.799761
21
0.753458
0
LINE
8
BLACK
6
CONTINUOUS
10
0.799761
20
0.753458
11
0.800452
21
0.75156
0
LINE
8
BLACK
6
CONTINUOUS
10
0.800452
20
0.75156
11
0.800452
21
0.720386
0
LINE
8
BLACK
6
CONTINUOUS
10
0.800452
20
0.720386
11
0.801801
21
0.717688
0
LINE
8
BLACK
6
CONTINUOUS
10
0.801801
20
0.717688
11
0.802998
21
0.716491
0
LINE
8
BLACK
6
CONTINUOUS
10
0.802998
20
0.716491
11
0.805695
21
0.715142
0
LINE
8
BLACK
6
CONTINUOUS
10
0.805695
20
0.715142
11
0.8118
21
0.715142
0
LINE
8
BLACK
6
CONTINUOUS
10
0.8118
20
0.715142
11
0.814498
21
0.716491
0
LINE
8
BLACK
6
CONTINUOUS
10
0.814498
20
0.716491
11
0.815695
21
0.717688
0
LINE
8
BLACK
6
CONTINUOUS
10
0.815695
20
0.717688
11
0.817043
21
0.720386
0
LINE
8
BLACK
6
CONTINUOUS
10
0.817043
20
0.720386
11
0.817043
21
0.75156
0
LINE
8
BLACK
6
CONTINUOUS
10
0.817043
20
0.75156
11
0.817222
21
0.75257
0
LINE
8
BLACK
6
CONTINUOUS
10
0.817222
20
0.75257
11
0.81852
21
0.754117
0
LINE
8
BLACK
6
CONTINUOUS
10
0.81852
20
0.754117
11
0.820509
21
0.754468
0
LINE
8
BLACK
6
CONTINUOUS
10
0.820509
20
0.754468
11
0.822258
21
0.753458
0
LINE
8
BLACK
6
CONTINUOUS
10
0.71701
20
0.715275
11
0.718557
21
0.713976
0
LINE
8
BLACK
6
CONTINUOUS
10
0.718557
20
0.713976
11
0.718908
21
0.711987
0
LINE
8
BLACK
6
CONTINUOUS
10
0.718908
20
0.711987
11
0.717898
21
0.710238
0
LINE
8
BLACK
6
CONTINUOUS
10
0.717898
20
0.710238
11
0.716
21
0.709547
0
LINE
8
BLACK
6
CONTINUOUS
10
0.716
20
0.709547
11
0.656
21
0.709547
0
LINE
8
BLACK
6
CONTINUOUS
10
0.656
20
0.709547
11
0.65499
21
0.709725
0
LINE
8
BLACK
6
CONTINUOUS
10
0.65499
20
0.709725
11
0.653443
21
0.711024
0
LINE
8
BLACK
6
CONTINUOUS
10
0.653443
20
0.711024
11
0.653092
21
0.713013
0
LINE
8
BLACK
6
CONTINUOUS
10
0.653092
20
0.713013
11
0.654102
21
0.714762
0
LINE
8
BLACK
6
CONTINUOUS
10
0.654102
20
0.714762
11
0.656
21
0.715453
0
LINE
8
BLACK
6
CONTINUOUS
10
0.656
20
0.715453
11
0.716
21
0.715453
0
LINE
8
BLACK
6
CONTINUOUS
10
0.716
20
0.715453
11
0.71701
21
0.715275
0
LINE
8
BLACK
6
CONTINUOUS
10
0.93101
20
0.720275
11
0.932557
21
0.718976
0
LINE
8
BLACK
6
CONTINUOUS
10
0.932557
20
0.718976
11
0.932908
21
0.716987
0
LINE
8
BLACK
6
CONTINUOUS
10
0.932908
20
0.716987
11
0.931898
21
0.715238
0
LINE
8
BLACK
6
CONTINUOUS
10
0.931898
20
0.715238
11
0.93
21
0.714547
0
LINE
8
BLACK
6
CONTINUOUS
10
0.93
20
0.714547
11
0.87
21
0.714547
0
LINE
8
BLACK
6
CONTINUOUS
10
0.87
20
0.714547
11
0.86899
21
0.714725
0
LINE
8
BLACK
6
CONTINUOUS
10
0.86899
20
0.714725
11
0.867443
21
0.716024
0
LINE
8
BLACK
6
CONTINUOUS
10
0.867443
20
0.716024
11
0.867092
21
0.718013
0
LINE
8
BLACK
6
CONTINUOUS
10
0.867092
20
0.718013
11
0.868102
21
0.719762
0
LINE
8
BLACK
6
CONTINUOUS
10
0.868102
20
0.719762
11
0.87
21
0.720453
0
LINE
8
BLACK
6
CONTINUOUS
10
0.87
20
0.720453
11
0.93
21
0.720453
0
LINE
8
BLACK
6
CONTINUOUS
10
0.93
20
0.720453
11
0.93101
21
0.720275
0
LINE
8
BLACK
6
CONTINUOUS
10
1.76246
20
1.07762
11
1.76315
21
1.07594
0
LINE
8
BLACK
6
CONTINUOUS
10
1.76315
20
1.07594
11
1.76315
21
0.744055
0
LINE
8
BLACK
6
CONTINUOUS
10
1.76315
20
0.744055
11
1.76246
21
0.742385
0
LINE
8
BLACK
6
CONTINUOUS
10
1.76246
20
0.742385
11
1.76079
21
0.741693
0
LINE
8
BLACK
6
CONTINUOUS
10
1.76079
20
0.741693
11
1.75912
21
0.742385
0
LINE
8
BLACK
6
CONTINUOUS
10
1.75912
20
0.742385
11
1.75843
21
0.744055
0
LINE
8
BLACK
6
CONTINUOUS
10
1.75843
20
0.744055
11
1.75843
21
1.07594
0
LINE
8
BLACK
6
CONTINUOUS
10
1.75843
20
1.07594
11
1.75912
21
1.07762
0
LINE
8
BLACK
6
CONTINUOUS
10
1.75912
20
1.07762
11
1.76079
21
1.07831
0
LINE
8
BLACK
6
CONTINUOUS
10
1.76079
20
1.07831
11
1.76246
21
1.07762
0
LINE
8
BLACK
6
CONTINUOUS
10
0.65767
20
0.78917
11
0.658362
21
0.7875
0
LINE
8
BLACK
6
CONTINUOUS
10
0.658362
20
0.7875
11
0.658362
21
0.7575
0
LINE
8
BLACK
6
CONTINUOUS
10
0.658362
20
0.7575
11
0.65767
21
0.75583
0
LINE
8
BLACK
6
CONTINUOUS
10
0.65767
20
0.75583
11
0.656
21
0.755138
0
LINE
8
BLACK
6
CONTINUOUS
10
0.656
20
0.755138
11
0.65433
21
0.75583
0
LINE
8
BLACK
6
CONTINUOUS
10
0.65433
20
0.75583
11
0.653638
21
0.7575
0
LINE
8
BLACK
6
CONTINUOUS
10
0.653638
20
0.7575
11
0.653638
21
0.7875
0
LINE
8
BLACK
6
CONTINUOUS
10
0.653638
20
0.7875
11
0.65433
21
0.78917
0
LINE
8
BLACK
6
CONTINUOUS
10
0.65433
20
0.78917
11
0.656
21
0.789862
0
LINE
8
BLACK
6
CONTINUOUS
10
0.656
20
0.789862
11
0.65767
21
0.78917
0
LINE
8
BLACK
6
CONTINUOUS
10
0.71767
20
0.78917
11
0.718362
21
0.7875
0
LINE
8
BLACK
6
CONTINUOUS
10
0.718362
20
0.7875
11
0.718362
21
0.7575
0
LINE
8
BLACK
6
CONTINUOUS
10
0.718362
20
0.7575
11
0.71767
21
0.75583
0
LINE
8
BLACK
6
CONTINUOUS
10
0.71767
20
0.75583
11
0.716
21
0.755138
0
LINE
8
BLACK
6
CONTINUOUS
10
0.716
20
0.755138
11
0.71433
21
0.75583
0
LINE
8
BLACK
6
CONTINUOUS
10
0.71433
20
0.75583
11
0.713638
21
0.7575
0
LINE
8
BLACK
6
CONTINUOUS
10
0.713638
20
0.7575
11
0.713638
21
0.7875
0
LINE
8
BLACK
6
CONTINUOUS
10
0.713638
20
0.7875
11
0.71433
21
0.78917
0
LINE
8
BLACK
6
CONTINUOUS
10
0.71433
20
0.78917
11
0.716
21
0.789862
0
LINE
8
BLACK
6
CONTINUOUS
10
0.716
20
0.789862
11
0.71767
21
0.78917
0
LINE
8
BLACK
6
CONTINUOUS
10
0.372256
20
0.779844
11
0.372947
21
0.778173
0
LINE
8
BLACK
6
CONTINUOUS
10
0.372947
20
0.778173
11
0.372256
21
0.776503
0
LINE
8
BLACK
6
CONTINUOUS
10
0.372256
20
0.776503
11
0.370585
21
0.775811
0
LINE
8
BLACK
6
CONTINUOUS
10
0.370585
20
0.775811
11
0.323179
21
0.775811
0
LINE
8
BLACK
6
CONTINUOUS
10
0.323179
20
0.775811
11
0.321508
21
0.776503
0
LINE
8
BLACK
6
CONTINUOUS
10
0.321508
20
0.776503
11
0.320816
21
0.778173
0
LINE
8
BLACK
6
CONTINUOUS
10
0.320816
20
0.778173
11
0.321508
21
0.779844
0
LINE
8
BLACK
6
CONTINUOUS
10
0.321508
20
0.779844
11
0.323179
21
0.780535
0
LINE
8
BLACK
6
CONTINUOUS
10
0.323179
20
0.780535
11
0.370585
21
0.780535
0
LINE
8
BLACK
6
CONTINUOUS
10
0.370585
20
0.780535
11
0.372256
21
0.779844
0
LINE
8
BLACK
6
CONTINUOUS
10
0.71701
20
0.835275
11
0.718557
21
0.833976
0
LINE
8
BLACK
6
CONTINUOUS
10
0.718557
20
0.833976
11
0.718908
21
0.831987
0
LINE
8
BLACK
6
CONTINUOUS
10
0.718908
20
0.831987
11
0.717898
21
0.830238
0
LINE
8
BLACK
6
CONTINUOUS
10
0.717898
20
0.830238
11
0.716
21
0.829547
0
LINE
8
BLACK
6
CONTINUOUS
10
0.716
20
0.829547
11
0.656
21
0.829547
0
LINE
8
BLACK
6
CONTINUOUS
10
0.656
20
0.829547
11
0.65499
21
0.829725
0
LINE
8
BLACK
6
CONTINUOUS
10
0.65499
20
0.829725
11
0.653443
21
0.831024
0
LINE
8
BLACK
6
CONTINUOUS
10
0.653443
20
0.831024
11
0.653092
21
0.833013
0
LINE
8
BLACK
6
CONTINUOUS
10
0.653092
20
0.833013
11
0.654102
21
0.834762
0
LINE
8
BLACK
6
CONTINUOUS
10
0.654102
20
0.834762
11
0.656
21
0.835453
0
LINE
8
BLACK
6
CONTINUOUS
10
0.656
20
0.835453
11
0.716
21
0.835453
0
LINE
8
BLACK
6
CONTINUOUS
10
0.716
20
0.835453
11
0.71701
21
0.835275
0
LINE
8
BLACK
6
CONTINUOUS
10
0.372256
20
0.851497
11
0.372947
21
0.849827
0
LINE
8
BLACK
6
CONTINUOUS
10
0.372947
20
0.849827
11
0.372256
21
0.848156
0
LINE
8
BLACK
6
CONTINUOUS
10
0.372256
20
0.848156
11
0.370585
21
0.847465
0
LINE
8
BLACK
6
CONTINUOUS
10
0.370585
20
0.847465
11
0.323179
21
0.847465
0
LINE
8
BLACK
6
CONTINUOUS
10
0.323179
20
0.847465
11
0.321508
21
0.848156
0
LINE
8
BLACK
6
CONTINUOUS
10
0.321508
20
0.848156
11
0.320816
21
0.849827
0
LINE
8
BLACK
6
CONTINUOUS
10
0.320816
20
0.849827
11
0.321508
21
0.851497
0
LINE
8
BLACK
6
CONTINUOUS
10
0.321508
20
0.851497
11
0.323179
21
0.852189
0
LINE
8
BLACK
6
CONTINUOUS
10
0.323179
20
0.852189
11
0.370585
21
0.852189
0
LINE
8
BLACK
6
CONTINUOUS
10
0.370585
20
0.852189
11
0.372256
21
0.851497
0
LINE
8
BLACK
6
CONTINUOUS
10
0.365562
20
0.910013
11
0.365626
21
0.910015
0
LINE
8
BLACK
6
CONTINUOUS
10
0.365626
20
0.910015
11
0.37125
21
0.90814
0
LINE
8
BLACK
6
CONTINUOUS
10
0.37125
20
0.90814
11
0.372152
21
0.907652
0
LINE
8
BLACK
6
CONTINUOUS
10
0.372152
20
0.907652
11
0.372244
21
0.907501
0
LINE
8
BLACK
6
CONTINUOUS
10
0.372244
20
0.907501
11
0.372404
21
0.907426
0
LINE
8
BLACK
6
CONTINUOUS
10
0.372404
20
0.907426
11
0.376154
21
0.903677
0
LINE
8
BLACK
6
CONTINUOUS
10
0.376154
20
0.903677
11
0.37666
21
0.902954
0
LINE
8
BLACK
6
CONTINUOUS
10
0.37666
20
0.902954
11
0.376707
21
0.90291
0
LINE
8
BLACK
6
CONTINUOUS
10
0.376707
20
0.90291
11
0.378582
21
0.89916
0
LINE
8
BLACK
6
CONTINUOUS
10
0.378582
20
0.89916
11
0.378727
21
0.898672
0
LINE
8
BLACK
6
CONTINUOUS
10
0.378727
20
0.898672
11
0.378805
21
0.898556
0
LINE
8
BLACK
6
CONTINUOUS
10
0.378805
20
0.898556
11
0.38068
21
0.891057
0
LINE
8
BLACK
6
CONTINUOUS
10
0.38068
20
0.891057
11
0.380722
21
0.890469
0
LINE
8
BLACK
6
CONTINUOUS
10
0.380722
20
0.890469
11
0.380768
21
0.89034
0
LINE
8
BLACK
6
CONTINUOUS
10
0.380768
20
0.89034
11
0.380768
21
0.884716
0
LINE
8
BLACK
6
CONTINUOUS
10
0.380768
20
0.884716
11
0.380666
21
0.884136
0
LINE
8
BLACK
6
CONTINUOUS
10
0.380666
20
0.884136
11
0.38068
21
0.884
0
LINE
8
BLACK
6
CONTINUOUS
10
0.38068
20
0.884
11
0.378805
21
0.876501
0
LINE
8
BLACK
6
CONTINUOUS
10
0.378805
20
0.876501
11
0.378598
21
0.876035
0
LINE
8
BLACK
6
CONTINUOUS
10
0.378598
20
0.876035
11
0.378582
21
0.875897
0
LINE
8
BLACK
6
CONTINUOUS
10
0.378582
20
0.875897
11
0.376707
21
0.872147
0
LINE
8
BLACK
6
CONTINUOUS
10
0.376707
20
0.872147
11
0.376181
21
0.871438
0
LINE
8
BLACK
6
CONTINUOUS
10
0.376181
20
0.871438
11
0.376154
21
0.87138
0
LINE
8
BLACK
6
CONTINUOUS
10
0.376154
20
0.87138
11
0.372404
21
0.86763
0
LINE
8
BLACK
6
CONTINUOUS
10
0.372404
20
0.86763
11
0.371564
21
0.867042
0
LINE
8
BLACK
6
CONTINUOUS
10
0.371564
20
0.867042
11
0.371388
21
0.867027
0
LINE
8
BLACK
6
CONTINUOUS
10
0.371388
20
0.867027
11
0.37125
21
0.866917
0
LINE
8
BLACK
6
CONTINUOUS
10
0.37125
20
0.866917
11
0.365626
21
0.865042
0
LINE
8
BLACK
6
CONTINUOUS
10
0.365626
20
0.865042
11
0.364753
21
0.864913
0
LINE
8
BLACK
6
CONTINUOUS
10
0.364753
20
0.864913
11
0.364692
21
0.864891
0
LINE
8
BLACK
6
CONTINUOUS
10
0.364692
20
0.864891
11
0.360943
21
0.864891
0
LINE
8
BLACK
6
CONTINUOUS
10
0.360943
20
0.864891
11
0.360073
21
0.865044
0
LINE
8
BLACK
6
CONTINUOUS
10
0.360073
20
0.865044
11
0.360009
21
0.865042
0
LINE
8
BLACK
6
CONTINUOUS
10
0.360009
20
0.865042
11
0.354385
21
0.866917
0
LINE
8
BLACK
6
CONTINUOUS
10
0.354385
20
0.866917
11
0.353483
21
0.867405
0
LINE
8
BLACK
6
CONTINUOUS
10
0.353483
20
0.867405
11
0.35339
21
0.867556
0
LINE
8
BLACK
6
CONTINUOUS
10
0.35339
20
0.867556
11
0.35323
21
0.86763
0
LINE
8
BLACK
6
CONTINUOUS
10
0.35323
20
0.86763
11
0.351356
21
0.869505
0
LINE
8
BLACK
6
CONTINUOUS
10
0.351356
20
0.869505
11
0.350767
21
0.870345
0
LINE
8
BLACK
6
CONTINUOUS
10
0.350767
20
0.870345
11
0.350591
21
0.872357
0
LINE
8
BLACK
6
CONTINUOUS
10
0.350591
20
0.872357
11
0.35175
21
0.874012
0
LINE
8
BLACK
6
CONTINUOUS
10
0.35175
20
0.874012
11
0.353701
21
0.874534
0
LINE
8
BLACK
6
CONTINUOUS
10
0.353701
20
0.874534
11
0.355531
21
0.873681
0
LINE
8
BLACK
6
CONTINUOUS
10
0.355531
20
0.873681
11
0.356913
21
0.872299
0
LINE
8
BLACK
6
CONTINUOUS
10
0.356913
20
0.872299
11
0.361422
21
0.870796
0
LINE
8
BLACK
6
CONTINUOUS
10
0.361422
20
0.870796
11
0.364213
21
0.870796
0
LINE
8
BLACK
6
CONTINUOUS
10
0.364213
20
0.870796
11
0.368721
21
0.872299
0
LINE
8
BLACK
6
CONTINUOUS
10
0.368721
20
0.872299
11
0.371639
21
0.875217
0
LINE
8
BLACK
6
CONTINUOUS
10
0.371639
20
0.875217
11
0.373155
21
0.878248
0
LINE
8
BLACK
6
CONTINUOUS
10
0.373155
20
0.878248
11
0.374863
21
0.88508
0
LINE
8
BLACK
6
CONTINUOUS
10
0.374863
20
0.88508
11
0.374863
21
0.889977
0
LINE
8
BLACK
6
CONTINUOUS
10
0.374863
20
0.889977
11
0.373155
21
0.896809
0
LINE
8
BLACK
6
CONTINUOUS
10
0.373155
20
0.896809
11
0.371639
21
0.89984
0
LINE
8
BLACK
6
CONTINUOUS
10
0.371639
20
0.89984
11
0.368721
21
0.902758
0
LINE
8
BLACK
6
CONTINUOUS
10
0.368721
20
0.902758
11
0.364213
21
0.904261
0
LINE
8
BLACK
6
CONTINUOUS
10
0.364213
20
0.904261
11
0.361422
21
0.904261
0
LINE
8
BLACK
6
CONTINUOUS
10
0.361422
20
0.904261
11
0.356913
21
0.902758
0
LINE
8
BLACK
6
CONTINUOUS
10
0.356913
20
0.902758
11
0.355531
21
0.901376
0
LINE
8
BLACK
6
CONTINUOUS
10
0.355531
20
0.901376
11
0.354691
21
0.900788
0
LINE
8
BLACK
6
CONTINUOUS
10
0.354691
20
0.900788
11
0.352679
21
0.900612
0
LINE
8
BLACK
6
CONTINUOUS
10
0.352679
20
0.900612
11
0.351025
21
0.90177
0
LINE
8
BLACK
6
CONTINUOUS
10
0.351025
20
0.90177
11
0.350502
21
0.903721
0
LINE
8
BLACK
6
CONTINUOUS
10
0.350502
20
0.903721
11
0.351356
21
0.905552
0
LINE
8
BLACK
6
CONTINUOUS
10
0.351356
20
0.905552
11
0.35323
21
0.907426
0
LINE
8
BLACK
6
CONTINUOUS
10
0.35323
20
0.907426
11
0.35407
21
0.908015
0
LINE
8
BLACK
6
CONTINUOUS
10
0.35407
20
0.908015
11
0.354246
21
0.90803
0
LINE
8
BLACK
6
CONTINUOUS
10
0.354246
20
0.90803
11
0.354385
21
0.90814
0
LINE
8
BLACK
6
CONTINUOUS
10
0.354385
20
0.90814
11
0.360009
21
0.910015
0
LINE
8
BLACK
6
CONTINUOUS
10
0.360009
20
0.910015
11
0.360882
21
0.910144
0
LINE
8
BLACK
6
CONTINUOUS
10
0.360882
20
0.910144
11
0.360943
21
0.910166
0
LINE
8
BLACK
6
CONTINUOUS
10
0.360943
20
0.910166
11
0.364692
21
0.910166
0
LINE
8
BLACK
6
CONTINUOUS
10
0.364692
20
0.910166
11
0.365562
21
0.910013
0
LINE
8
BLACK
6
CONTINUOUS
10
0.328207
20
0.909988
11
0.328342
21
0.909875
0
LINE
8
BLACK
6
CONTINUOUS
10
0.328342
20
0.909875
11
0.328517
21
0.909854
0
LINE
8
BLACK
6
CONTINUOUS
10
0.328517
20
0.909854
11
0.332267
21
0.90798
0
LINE
8
BLACK
6
CONTINUOUS
10
0.332267
20
0.90798
11
0.332976
21
0.907454
0
LINE
8
BLACK
6
CONTINUOUS
10
0.332976
20
0.907454
11
0.333034
21
0.907426
0
LINE
8
BLACK
6
CONTINUOUS
10
0.333034
20
0.907426
11
0.334909
21
0.905552
0
LINE
8
BLACK
6
CONTINUOUS
10
0.334909
20
0.905552
11
0.335167
21
0.905183
0
LINE
8
BLACK
6
CONTINUOUS
10
0.335167
20
0.905183
11
0.335278
21
0.905102
0
LINE
8
BLACK
6
CONTINUOUS
10
0.335278
20
0.905102
11
0.339028
21
0.899477
0
LINE
8
BLACK
6
CONTINUOUS
10
0.339028
20
0.899477
11
0.339426
21
0.89857
0
LINE
8
BLACK
6
CONTINUOUS
10
0.339426
20
0.89857
11
0.339435
21
0.898556
0
LINE
8
BLACK
6
CONTINUOUS
10
0.339435
20
0.898556
11
0.34131
21
0.891057
0
LINE
8
BLACK
6
CONTINUOUS
10
0.34131
20
0.891057
11
0.341351
21
0.890469
0
LINE
8
BLACK
6
CONTINUOUS
10
0.341351
20
0.890469
11
0.341398
21
0.89034
0
LINE
8
BLACK
6
CONTINUOUS
10
0.341398
20
0.89034
11
0.341398
21
0.875342
0
LINE
8
BLACK
6
CONTINUOUS
10
0.341398
20
0.875342
11
0.34122
21
0.874332
0
LINE
8
BLACK
6
CONTINUOUS
10
0.34122
20
0.874332
11
0.341107
21
0.874197
0
LINE
8
BLACK
6
CONTINUOUS
10
0.341107
20
0.874197
11
0.341086
21
0.874022
0
LINE
8
BLACK
6
CONTINUOUS
10
0.341086
20
0.874022
11
0.339212
21
0.870272
0
LINE
8
BLACK
6
CONTINUOUS
10
0.339212
20
0.870272
11
0.338686
21
0.869563
0
LINE
8
BLACK
6
CONTINUOUS
10
0.338686
20
0.869563
11
0.338659
21
0.869505
0
LINE
8
BLACK
6
CONTINUOUS
10
0.338659
20
0.869505
11
0.336784
21
0.86763
0
LINE
8
BLACK
6
CONTINUOUS
10
0.336784
20
0.86763
11
0.336061
21
0.867124
0
LINE
8
BLACK
6
CONTINUOUS
10
0.336061
20
0.867124
11
0.336016
21
0.867077
0
LINE
8
BLACK
6
CONTINUOUS
10
0.336016
20
0.867077
11
0.332267
21
0.865202
0
LINE
8
BLACK
6
CONTINUOUS
10
0.332267
20
0.865202
11
0.331284
21
0.86491
0
LINE
8
BLACK
6
CONTINUOUS
10
0.331284
20
0.86491
11
0.331112
21
0.864951
0
LINE
8
BLACK
6
CONTINUOUS
10
0.331112
20
0.864951
11
0.330946
21
0.864891
0
LINE
8
BLACK
6
CONTINUOUS
10
0.330946
20
0.864891
11
0.323447
21
0.864891
0
LINE
8
BLACK
6
CONTINUOUS
10
0.323447
20
0.864891
11
0.322437
21
0.865069
0
LINE
8
BLACK
6
CONTINUOUS
10
0.322437
20
0.865069
11
0.322302
21
0.865182
0
LINE
8
BLACK
6
CONTINUOUS
10
0.322302
20
0.865182
11
0.322127
21
0.865202
0
LINE
8
BLACK
6
CONTINUOUS
10
0.322127
20
0.865202
11
0.318377
21
0.867077
0
LINE
8
BLACK
6
CONTINUOUS
10
0.318377
20
0.867077
11
0.317668
21
0.867603
0
LINE
8
BLACK
6
CONTINUOUS
10
0.317668
20
0.867603
11
0.31761
21
0.86763
0
LINE
8
BLACK
6
CONTINUOUS
10
0.31761
20
0.86763
11
0.315735
21
0.869505
0
LINE
8
BLACK
6
CONTINUOUS
10
0.315735
20
0.869505
11
0.315229
21
0.870228
0
LINE
8
BLACK
6
CONTINUOUS
10
0.315229
20
0.870228
11
0.315182
21
0.870272
0
LINE
8
BLACK
6
CONTINUOUS
10
0.315182
20
0.870272
11
0.313307
21
0.874022
0
LINE
8
BLACK
6
CONTINUOUS
10
0.313307
20
0.874022
11
0.313015
21
0.875005
0
LINE
8
BLACK
6
CONTINUOUS
10
0.313015
20
0.875005
11
0.313056
21
0.875176
0
LINE
8
BLACK
6
CONTINUOUS
10
0.313056
20
0.875176
11
0.312995
21
0.875342
0
LINE
8
BLACK
6
CONTINUOUS
10
0.312995
20
0.875342
11
0.312995
21
0.884716
0
LINE
8
BLACK
6
CONTINUOUS
10
0.312995
20
0.884716
11
0.313174
21
0.885726
0
LINE
8
BLACK
6
CONTINUOUS
10
0.313174
20
0.885726
11
0.313287
21
0.885861
0
LINE
8
BLACK
6
CONTINUOUS
10
0.313287
20
0.885861
11
0.313307
21
0.886037
0
LINE
8
BLACK
6
CONTINUOUS
10
0.313307
20
0.886037
11
0.315182
21
0.889786
0
LINE
8
BLACK
6
CONTINUOUS
10
0.315182
20
0.889786
11
0.315708
21
0.890495
0
LINE
8
BLACK
6
CONTINUOUS
10
0.315708
20
0.890495
11
0.315735
21
0.890554
0
LINE
8
BLACK
6
CONTINUOUS
10
0.315735
20
0.890554
11
0.31761
21
0.892428
0
LINE
8
BLACK
6
CONTINUOUS
10
0.31761
20
0.892428
11
0.318333
21
0.892935
0
LINE
8
BLACK
6
CONTINUOUS
10
0.318333
20
0.892935
11
0.318377
21
0.892981
0
LINE
8
BLACK
6
CONTINUOUS
10
0.318377
20
0.892981
11
0.322127
21
0.894856
0
LINE
8
BLACK
6
CONTINUOUS
10
0.322127
20
0.894856
11
0.32311
21
0.895149
0
LINE
8
BLACK
6
CONTINUOUS
10
0.32311
20
0.895149
11
0.323281
21
0.895108
0
LINE
8
BLACK
6
CONTINUOUS
10
0.323281
20
0.895108
11
0.323447
21
0.895168
0
LINE
8
BLACK
6
CONTINUOUS
10
0.323447
20
0.895168
11
0.330946
21
0.895168
0
LINE
8
BLACK
6
CONTINUOUS
10
0.330946
20
0.895168
11
0.331956
21
0.89499
0
LINE
8
BLACK
6
CONTINUOUS
10
0.331956
20
0.89499
11
0.332092
21
0.894876
0
LINE
8
BLACK
6
CONTINUOUS
10
0.332092
20
0.894876
11
0.332267
21
0.894856
0
LINE
8
BLACK
6
CONTINUOUS
10
0.332267
20
0.894856
11
0.334559
21
0.89371
0
LINE
8
BLACK
6
CONTINUOUS
10
0.334559
20
0.89371
11
0.33383
21
0.896627
0
LINE
8
BLACK
6
CONTINUOUS
10
0.33383
20
0.896627
11
0.330526
21
0.901583
0
LINE
8
BLACK
6
CONTINUOUS
10
0.330526
20
0.901583
11
0.329197
21
0.902912
0
LINE
8
BLACK
6
CONTINUOUS
10
0.329197
20
0.902912
11
0.3265
21
0.904261
0
LINE
8
BLACK
6
CONTINUOUS
10
0.3265
20
0.904261
11
0.319698
21
0.904261
0
LINE
8
BLACK
6
CONTINUOUS
10
0.319698
20
0.904261
11
0.318688
21
0.904439
0
LINE
8
BLACK
6
CONTINUOUS
10
0.318688
20
0.904439
11
0.317141
21
0.905737
0
LINE
8
BLACK
6
CONTINUOUS
10
0.317141
20
0.905737
11
0.31679
21
0.907726
0
LINE
8
BLACK
6
CONTINUOUS
10
0.31679
20
0.907726
11
0.3178
21
0.909475
0
LINE
8
BLACK
6
CONTINUOUS
10
0.3178
20
0.909475
11
0.319698
21
0.910166
0
LINE
8
BLACK
6
CONTINUOUS
10
0.319698
20
0.910166
11
0.327197
21
0.910166
0
LINE
8
BLACK
6
CONTINUOUS
10
0.327197
20
0.910166
11
0.328207
21
0.909988
0
LINE
8
BLACK
6
CONTINUOUS
10
0.324144
20
0.889262
11
0.321447
21
0.887914
0
LINE
8
BLACK
6
CONTINUOUS
10
0.321447
20
0.887914
11
0.32025
21
0.886717
0
LINE
8
BLACK
6
CONTINUOUS
10
0.32025
20
0.886717
11
0.318901
21
0.884019
0
LINE
8
BLACK
6
CONTINUOUS
10
0.318901
20
0.884019
11
0.318901
21
0.876039
0
LINE
8
BLACK
6
CONTINUOUS
10
0.318901
20
0.876039
11
0.32025
21
0.873342
0
LINE
8
BLACK
6
CONTINUOUS
10
0.32025
20
0.873342
11
0.321447
21
0.872145
0
LINE
8
BLACK
6
CONTINUOUS
10
0.321447
20
0.872145
11
0.324144
21
0.870796
0
LINE
8
BLACK
6
CONTINUOUS
10
0.324144
20
0.870796
11
0.330249
21
0.870796
0
LINE
8
BLACK
6
CONTINUOUS
10
0.330249
20
0.870796
11
0.332947
21
0.872145
0
LINE
8
BLACK
6
CONTINUOUS
10
0.332947
20
0.872145
11
0.334144
21
0.873342
0
LINE
8
BLACK
6
CONTINUOUS
10
0.334144
20
0.873342
11
0.335493
21
0.876039
0
LINE
8
BLACK
6
CONTINUOUS
10
0.335493
20
0.876039
11
0.335493
21
0.884019
0
LINE
8
BLACK
6
CONTINUOUS
10
0.335493
20
0.884019
11
0.334144
21
0.886717
0
LINE
8
BLACK
6
CONTINUOUS
10
0.334144
20
0.886717
11
0.332947
21
0.887914
0
LINE
8
BLACK
6
CONTINUOUS
10
0.332947
20
0.887914
11
0.330249
21
0.889262
0
LINE
8
BLACK
6
CONTINUOUS
10
0.330249
20
0.889262
11
0.324144
21
0.889262
0
LINE
8
BLACK
6
CONTINUOUS
10
1.5249
20
0.910966
11
1.52503
21
0.910977
0
LINE
8
BLACK
6
CONTINUOUS
10
1.52503
20
0.910977
11
1.52576
21
0.910468
0
LINE
8
BLACK
6
CONTINUOUS
10
1.52576
20
0.910468
11
1.52653
21
0.910023
0
LINE
8
BLACK
6
CONTINUOUS
10
1.52653
20
0.910023
11
1.52658
21
0.909896
0
LINE
8
BLACK
6
CONTINUOUS
10
1.52658
20
0.909896
11
1.52669
21
0.909819
0
LINE
8
BLACK
6
CONTINUOUS
10
1.52669
20
0.909819
11
1.52692
21
0.90896
0
LINE
8
BLACK
6
CONTINUOUS
10
1.52692
20
0.90896
11
1.52722
21
0.908125
0
LINE
8
BLACK
6
CONTINUOUS
10
1.52722
20
0.908125
11
1.52722
21
0.883753
0
LINE
8
BLACK
6
CONTINUOUS
10
1.52722
20
0.883753
11
1.52704
21
0.882743
0
LINE
8
BLACK
6
CONTINUOUS
10
1.52704
20
0.882743
11
1.52574
21
0.881196
0
LINE
8
BLACK
6
CONTINUOUS
10
1.52574
20
0.881196
11
1.52375
21
0.880845
0
LINE
8
BLACK
6
CONTINUOUS
10
1.52375
20
0.880845
11
1.52201
21
0.881855
0
LINE
8
BLACK
6
CONTINUOUS
10
1.52201
20
0.881855
11
1.52131
21
0.883753
0
LINE
8
BLACK
6
CONTINUOUS
10
1.52131
20
0.883753
11
1.52131
21
0.900997
0
LINE
8
BLACK
6
CONTINUOUS
10
1.52131
20
0.900997
11
1.50386
21
0.88354
0
LINE
8
BLACK
6
CONTINUOUS
10
1.50386
20
0.88354
11
1.50302
21
0.882952
0
LINE
8
BLACK
6
CONTINUOUS
10
1.50302
20
0.882952
11
1.50284
21
0.882937
0
LINE
8
BLACK
6
CONTINUOUS
10
1.50284
20
0.882937
11
1.5027
21
0.882827
0
LINE
8
BLACK
6
CONTINUOUS
10
1.5027
20
0.882827
11
1.49708
21
0.880952
0
LINE
8
BLACK
6
CONTINUOUS
10
1.49708
20
0.880952
11
1.49621
21
0.880823
0
LINE
8
BLACK
6
CONTINUOUS
10
1.49621
20
0.880823
11
1.49615
21
0.880801
0
LINE
8
BLACK
6
CONTINUOUS
10
1.49615
20
0.880801
11
1.4924
21
0.880801
0
LINE
8
BLACK
6
CONTINUOUS
10
1.4924
20
0.880801
11
1.49139
21
0.880979
0
LINE
8
BLACK
6
CONTINUOUS
10
1.49139
20
0.880979
11
1.49125
21
0.881092
0
LINE
8
BLACK
6
CONTINUOUS
10
1.49125
20
0.881092
11
1.49108
21
0.881112
0
LINE
8
BLACK
6
CONTINUOUS
10
1.49108
20
0.881112
11
1.48733
21
0.882987
0
LINE
8
BLACK
6
CONTINUOUS
10
1.48733
20
0.882987
11
1.48662
21
0.883513
0
LINE
8
BLACK
6
CONTINUOUS
10
1.48662
20
0.883513
11
1.48656
21
0.88354
0
LINE
8
BLACK
6
CONTINUOUS
10
1.48656
20
0.88354
11
1.48468
21
0.885415
0
LINE
8
BLACK
6
CONTINUOUS
10
1.48468
20
0.885415
11
1.48418
21
0.886138
0
LINE
8
BLACK
6
CONTINUOUS
10
1.48418
20
0.886138
11
1.48413
21
0.886182
0
LINE
8
BLACK
6
CONTINUOUS
10
1.48413
20
0.886182
11
1.48226
21
0.889932
0
LINE
8
BLACK
6
CONTINUOUS
10
1.48226
20
0.889932
11
1.48196
21
0.890915
0
LINE
8
BLACK
6
CONTINUOUS
10
1.48196
20
0.890915
11
1.482
21
0.891086
0
LINE
8
BLACK
6
CONTINUOUS
10
1.482
20
0.891086
11
1.48194
21
0.891252
0
LINE
8
BLACK
6
CONTINUOUS
10
1.48194
20
0.891252
11
1.48194
21
0.900626
0
LINE
8
BLACK
6
CONTINUOUS
10
1.48194
20
0.900626
11
1.48212
21
0.901636
0
LINE
8
BLACK
6
CONTINUOUS
10
1.48212
20
0.901636
11
1.48224
21
0.901771
0
LINE
8
BLACK
6
CONTINUOUS
10
1.48224
20
0.901771
11
1.48226
21
0.901947
0
LINE
8
BLACK
6
CONTINUOUS
10
1.48226
20
0.901947
11
1.48413
21
0.905696
0
LINE
8
BLACK
6
CONTINUOUS
10
1.48413
20
0.905696
11
1.48466
21
0.906405
0
LINE
8
BLACK
6
CONTINUOUS
10
1.48466
20
0.906405
11
1.48468
21
0.906464
0
LINE
8
BLACK
6
CONTINUOUS
10
1.48468
20
0.906464
11
1.48656
21
0.908338
0
LINE
8
BLACK
6
CONTINUOUS
10
1.48656
20
0.908338
11
1.4874
21
0.908927
0
LINE
8
BLACK
6
CONTINUOUS
10
1.4874
20
0.908927
11
1.48941
21
0.909103
0
LINE
8
BLACK
6
CONTINUOUS
10
1.48941
20
0.909103
11
1.49107
21
0.907944
0
LINE
8
BLACK
6
CONTINUOUS
10
1.49107
20
0.907944
11
1.49159
21
0.905993
0
LINE
8
BLACK
6
CONTINUOUS
10
1.49159
20
0.905993
11
1.49073
21
0.904163
0
LINE
8
BLACK
6
CONTINUOUS
10
1.49073
20
0.904163
11
1.4892
21
0.902627
0
LINE
8
BLACK
6
CONTINUOUS
10
1.4892
20
0.902627
11
1.48785
21
0.899929
0
LINE
8
BLACK
6
CONTINUOUS
10
1.48785
20
0.899929
11
1.48785
21
0.891949
0
LINE
8
BLACK
6
CONTINUOUS
10
1.48785
20
0.891949
11
1.4892
21
0.889252
0
LINE
8
BLACK
6
CONTINUOUS
10
1.4892
20
0.889252
11
1.4904
21
0.888055
0
LINE
8
BLACK
6
CONTINUOUS
10
1.4904
20
0.888055
11
1.49309
21
0.886706
0
LINE
8
BLACK
6
CONTINUOUS
10
1.49309
20
0.886706
11
1.49567
21
0.886706
0
LINE
8
BLACK
6
CONTINUOUS
10
1.49567
20
0.886706
11
1.50017
21
0.888209
0
LINE
8
BLACK
6
CONTINUOUS
10
1.50017
20
0.888209
11
1.52218
21
0.910213
0
LINE
8
BLACK
6
CONTINUOUS
10
1.52218
20
0.910213
11
1.52271
21
0.910583
0
LINE
8
BLACK
6
CONTINUOUS
10
1.52271
20
0.910583
11
1.52279
21
0.910682
0
LINE
8
BLACK
6
CONTINUOUS
10
1.52279
20
0.910682
11
1.52287
21
0.910696
0
LINE
8
BLACK
6
CONTINUOUS
10
1.52287
20
0.910696
11
1.52302
21
0.910801
0
LINE
8
BLACK
6
CONTINUOUS
10
1.52302
20
0.910801
11
1.5239
21
0.910879
0
LINE
8
BLACK
6
CONTINUOUS
10
1.5239
20
0.910879
11
1.52478
21
0.911033
0
LINE
8
BLACK
6
CONTINUOUS
10
1.52478
20
0.911033
11
1.5249
21
0.910966
0
LINE
8
BLACK
6
CONTINUOUS
10
0.881597
20
0.900495
11
0.880906
21
0.902165
0
LINE
8
BLACK
6
CONTINUOUS
10
0.880906
20
0.902165
11
0.881597
21
0.903836
0
LINE
8
BLACK
6
CONTINUOUS
10
0.881597
20
0.903836
11
0.883268
21
0.904528
0
LINE
8
BLACK
6
CONTINUOUS
10
0.883268
20
0.904528
11
0.903346
21
0.904528
0
LINE
8
BLACK
6
CONTINUOUS
10
0.903346
20
0.904528
11
0.903346
21
0.975787
0
LINE
8
BLACK
6
CONTINUOUS
10
0.903346
20
0.975787
11
0.904038
21
0.977458
0
LINE
8
BLACK
6
CONTINUOUS
10
0.904038
20
0.977458
11
0.905709
21
0.97815
0
LINE
8
BLACK
6
CONTINUOUS
10
0.905709
20
0.97815
11
0.907379
21
0.977458
0
LINE
8
BLACK
6
CONTINUOUS
10
0.907379
20
0.977458
11
0.908071
21
0.975787
0
LINE
8
BLACK
6
CONTINUOUS
10
0.908071
20
0.975787
11
0.908071
21
0.902165
0
LINE
8
BLACK
6
CONTINUOUS
10
0.908071
20
0.902165
11
0.907379
21
0.900495
0
LINE
8
BLACK
6
CONTINUOUS
10
0.907379
20
0.900495
11
0.905709
21
0.899803
0
LINE
8
BLACK
6
CONTINUOUS
10
0.905709
20
0.899803
11
0.883268
21
0.899803
0
LINE
8
BLACK
6
CONTINUOUS
10
0.883268
20
0.899803
11
0.881597
21
0.900495
0
LINE
8
BLACK
6
CONTINUOUS
10
0.645962
20
0.977458
11
0.646654
21
0.975787
0
LINE
8
BLACK
6
CONTINUOUS
10
0.646654
20
0.975787
11
0.646654
21
0.904528
0
LINE
8
BLACK
6
CONTINUOUS
10
0.646654
20
0.904528
11
0.666732
21
0.904528
0
LINE
8
BLACK
6
CONTINUOUS
10
0.666732
20
0.904528
11
0.668403
21
0.903836
0
LINE
8
BLACK
6
CONTINUOUS
10
0.668403
20
0.903836
11
0.669094
21
0.902165
0
LINE
8
BLACK
6
CONTINUOUS
10
0.669094
20
0.902165
11
0.668403
21
0.900495
0
LINE
8
BLACK
6
CONTINUOUS
10
0.668403
20
0.900495
11
0.666732
21
0.899803
0
LINE
8
BLACK
6
CONTINUOUS
10
0.666732
20
0.899803
11
0.644291
21
0.899803
0
LINE
8
BLACK
6
CONTINUOUS
10
0.644291
20
0.899803
11
0.642621
21
0.900495
0
LINE
8
BLACK
6
CONTINUOUS
10
0.642621
20
0.900495
11
0.641929
21
0.902165
0
LINE
8
BLACK
6
CONTINUOUS
10
0.641929
20
0.902165
11
0.641929
21
0.975787
0
LINE
8
BLACK
6
CONTINUOUS
10
0.641929
20
0.975787
11
0.642621
21
0.977458
0
LINE
8
BLACK
6
CONTINUOUS
10
0.642621
20
0.977458
11
0.644291
21
0.97815
0
LINE
8
BLACK
6
CONTINUOUS
10
0.644291
20
0.97815
11
0.645962
21
0.977458
0
LINE
8
BLACK
6
CONTINUOUS
10
0.786513
20
0.903836
11
0.787205
21
0.902165
0
LINE
8
BLACK
6
CONTINUOUS
10
0.787205
20
0.902165
11
0.786513
21
0.900495
0
LINE
8
BLACK
6
CONTINUOUS
10
0.786513
20
0.900495
11
0.784843
21
0.899803
0
LINE
8
BLACK
6
CONTINUOUS
10
0.784843
20
0.899803
11
0.765157
21
0.899803
0
LINE
8
BLACK
6
CONTINUOUS
10
0.765157
20
0.899803
11
0.763487
21
0.900495
0
LINE
8
BLACK
6
CONTINUOUS
10
0.763487
20
0.900495
11
0.762795
21
0.902165
0
LINE
8
BLACK
6
CONTINUOUS
10
0.762795
20
0.902165
11
0.763487
21
0.903836
0
LINE
8
BLACK
6
CONTINUOUS
10
0.763487
20
0.903836
11
0.765157
21
0.904528
0
LINE
8
BLACK
6
CONTINUOUS
10
0.765157
20
0.904528
11
0.784843
21
0.904528
0
LINE
8
BLACK
6
CONTINUOUS
10
0.784843
20
0.904528
11
0.786513
21
0.903836
0
LINE
8
BLACK
6
CONTINUOUS
10
1.52653
20
0.940019
11
1.52722
21
0.938121
0
LINE
8
BLACK
6
CONTINUOUS
10
1.52722
20
0.938121
11
1.52722
21
0.934372
0
LINE
8
BLACK
6
CONTINUOUS
10
1.52722
20
0.934372
11
1.52707
21
0.933503
0
LINE
8
BLACK
6
CONTINUOUS
10
1.52707
20
0.933503
11
1.52707
21
0.933438
0
LINE
8
BLACK
6
CONTINUOUS
10
1.52707
20
0.933438
11
1.52519
21
0.927814
0
LINE
8
BLACK
6
CONTINUOUS
10
1.52519
20
0.927814
11
1.52471
21
0.926912
0
LINE
8
BLACK
6
CONTINUOUS
10
1.52471
20
0.926912
11
1.52455
21
0.92682
0
LINE
8
BLACK
6
CONTINUOUS
10
1.52455
20
0.92682
11
1.52448
21
0.92666
0
LINE
8
BLACK
6
CONTINUOUS
10
1.52448
20
0.92666
11
1.52073
21
0.92291
0
LINE
8
BLACK
6
CONTINUOUS
10
1.52073
20
0.92291
11
1.51989
21
0.922322
0
LINE
8
BLACK
6
CONTINUOUS
10
1.51989
20
0.922322
11
1.51971
21
0.922307
0
LINE
8
BLACK
6
CONTINUOUS
10
1.51971
20
0.922307
11
1.51958
21
0.922197
0
LINE
8
BLACK
6
CONTINUOUS
10
1.51958
20
0.922197
11
1.51395
21
0.920322
0
LINE
8
BLACK
6
CONTINUOUS
10
1.51395
20
0.920322
11
1.51308
21
0.920193
0
LINE
8
BLACK
6
CONTINUOUS
10
1.51308
20
0.920193
11
1.51302
21
0.920171
0
LINE
8
BLACK
6
CONTINUOUS
10
1.51302
20
0.920171
11
1.4849
21
0.920171
0
LINE
8
BLACK
6
CONTINUOUS
10
1.4849
20
0.920171
11
1.48389
21
0.920349
0
LINE
8
BLACK
6
CONTINUOUS
10
1.48389
20
0.920349
11
1.48234
21
0.921647
0
LINE
8
BLACK
6
CONTINUOUS
10
1.48234
20
0.921647
11
1.48199
21
0.923636
0
LINE
8
BLACK
6
CONTINUOUS
10
1.48199
20
0.923636
11
1.483
21
0.925385
0
LINE
8
BLACK
6
CONTINUOUS
10
1.483
20
0.925385
11
1.4849
21
0.926076
0
LINE
8
BLACK
6
CONTINUOUS
10
1.4849
20
0.926076
11
1.51254
21
0.926076
0
LINE
8
BLACK
6
CONTINUOUS
10
1.51254
20
0.926076
11
1.51705
21
0.927579
0
LINE
8
BLACK
6
CONTINUOUS
10
1.51705
20
0.927579
11
1.51981
21
0.930343
0
LINE
8
BLACK
6
CONTINUOUS
10
1.51981
20
0.930343
11
1.52131
21
0.934851
0
LINE
8
BLACK
6
CONTINUOUS
10
1.52131
20
0.934851
11
1.52131
21
0.938121
0
LINE
8
BLACK
6
CONTINUOUS
10
1.52131
20
0.938121
11
1.52149
21
0.939131
0
LINE
8
BLACK
6
CONTINUOUS
10
1.52149
20
0.939131
11
1.52279
21
0.940679
0
LINE
8
BLACK
6
CONTINUOUS
10
1.52279
20
0.940679
11
1.52478
21
0.941029
0
LINE
8
BLACK
6
CONTINUOUS
10
1.52478
20
0.941029
11
1.52653
21
0.940019
0
LINE
8
BLACK
6
CONTINUOUS
10
0.761448
20
0.996344
11
0.762561
21
0.994659
0
LINE
8
BLACK
6
CONTINUOUS
10
0.762561
20
0.994659
11
0.76233
21
0.992652
0
LINE
8
BLACK
6
CONTINUOUS
10
0.76233
20
0.992652
11
0.760455
21
0.988903
0
LINE
8
BLACK
6
CONTINUOUS
10
0.760455
20
0.988903
11
0.759929
21
0.988194
0
LINE
8
BLACK
6
CONTINUOUS
10
0.759929
20
0.988194
11
0.759902
21
0.988135
0
LINE
8
BLACK
6
CONTINUOUS
10
0.759902
20
0.988135
11
0.757444
21
0.985677
0
LINE
8
BLACK
6
CONTINUOUS
10
0.757444
20
0.985677
11
0.784857
21
0.985677
0
LINE
8
BLACK
6
CONTINUOUS
10
0.784857
20
0.985677
11
0.784857
21
0.993973
0
LINE
8
BLACK
6
CONTINUOUS
10
0.784857
20
0.993973
11
0.785036
21
0.994983
0
LINE
8
BLACK
6
CONTINUOUS
10
0.785036
20
0.994983
11
0.786334
21
0.99653
0
LINE
8
BLACK
6
CONTINUOUS
10
0.786334
20
0.99653
11
0.788323
21
0.996881
0
LINE
8
BLACK
6
CONTINUOUS
10
0.788323
20
0.996881
11
0.790072
21
0.995871
0
LINE
8
BLACK
6
CONTINUOUS
10
0.790072
20
0.995871
11
0.790763
21
0.993973
0
LINE
8
BLACK
6
CONTINUOUS
10
0.790763
20
0.993973
11
0.790763
21
0.971475
0
LINE
8
BLACK
6
CONTINUOUS
10
0.790763
20
0.971475
11
0.790585
21
0.970466
0
LINE
8
BLACK
6
CONTINUOUS
10
0.790585
20
0.970466
11
0.789287
21
0.968918
0
LINE
8
BLACK
6
CONTINUOUS
10
0.789287
20
0.968918
11
0.787297
21
0.968568
0
LINE
8
BLACK
6
CONTINUOUS
10
0.787297
20
0.968568
11
0.785548
21
0.969577
0
LINE
8
BLACK
6
CONTINUOUS
10
0.785548
20
0.969577
11
0.784857
21
0.971475
0
LINE
8
BLACK
6
CONTINUOUS
10
0.784857
20
0.971475
11
0.784857
21
0.979771
0
LINE
8
BLACK
6
CONTINUOUS
10
0.784857
20
0.979771
11
0.74844
21
0.979771
0
LINE
8
BLACK
6
CONTINUOUS
10
0.74844
20
0.979771
11
0.74743
21
0.979949
0
LINE
8
BLACK
6
CONTINUOUS
10
0.74743
20
0.979949
11
0.7473
21
0.980058
0
LINE
8
BLACK
6
CONTINUOUS
10
0.7473
20
0.980058
11
0.747131
21
0.980077
0
LINE
8
BLACK
6
CONTINUOUS
10
0.747131
20
0.980077
11
0.746539
21
0.980697
0
LINE
8
BLACK
6
CONTINUOUS
10
0.746539
20
0.980697
11
0.745883
21
0.981248
0
LINE
8
BLACK
6
CONTINUOUS
10
0.745883
20
0.981248
11
0.745854
21
0.981415
0
LINE
8
BLACK
6
CONTINUOUS
10
0.745854
20
0.981415
11
0.745736
21
0.981538
0
LINE
8
BLACK
6
CONTINUOUS
10
0.745736
20
0.981538
11
0.745681
21
0.982393
0
LINE
8
BLACK
6
CONTINUOUS
10
0.745681
20
0.982393
11
0.745532
21
0.983237
0
LINE
8
BLACK
6
CONTINUOUS
10
0.745532
20
0.983237
11
0.745617
21
0.983384
0
LINE
8
BLACK
6
CONTINUOUS
10
0.745617
20
0.983384
11
0.745606
21
0.983553
0
LINE
8
BLACK
6
CONTINUOUS
10
0.745606
20
0.983553
11
0.746114
21
0.984244
0
LINE
8
BLACK
6
CONTINUOUS
10
0.746114
20
0.984244
11
0.746542
21
0.984986
0
LINE
8
BLACK
6
CONTINUOUS
10
0.746542
20
0.984986
11
0.746702
21
0.985044
0
LINE
8
BLACK
6
CONTINUOUS
10
0.746702
20
0.985044
11
0.746802
21
0.985181
0
LINE
8
BLACK
6
CONTINUOUS
10
0.746802
20
0.985181
11
0.752183
21
0.988768
0
LINE
8
BLACK
6
CONTINUOUS
10
0.752183
20
0.988768
11
0.755387
21
0.991972
0
LINE
8
BLACK
6
CONTINUOUS
10
0.755387
20
0.991972
11
0.757048
21
0.995293
0
LINE
8
BLACK
6
CONTINUOUS
10
0.757048
20
0.995293
11
0.757659
21
0.996117
0
LINE
8
BLACK
6
CONTINUOUS
10
0.757659
20
0.996117
11
0.759512
21
0.99692
0
LINE
8
BLACK
6
CONTINUOUS
10
0.759512
20
0.99692
11
0.761448
21
0.996344
0
LINE
8
BLACK
6
CONTINUOUS
10
0.781321
20
1.03612
11
0.781456
21
1.036
0
LINE
8
BLACK
6
CONTINUOUS
10
0.781456
20
1.036
11
0.781632
21
1.03598
0
LINE
8
BLACK
6
CONTINUOUS
10
0.781632
20
1.03598
11
0.785381
21
1.03411
0
LINE
8
BLACK
6
CONTINUOUS
10
0.785381
20
1.03411
11
0.78609
21
1.03358
0
LINE
8
BLACK
6
CONTINUOUS
10
0.78609
20
1.03358
11
0.786149
21
1.03356
0
LINE
8
BLACK
6
CONTINUOUS
10
0.786149
20
1.03356
11
0.788023
21
1.03168
0
LINE
8
BLACK
6
CONTINUOUS
10
0.788023
20
1.03168
11
0.78853
21
1.03096
0
LINE
8
BLACK
6
CONTINUOUS
10
0.78853
20
1.03096
11
0.788576
21
1.03091
0
LINE
8
BLACK
6
CONTINUOUS
10
0.788576
20
1.03091
11
0.790451
21
1.02716
0
LINE
8
BLACK
6
CONTINUOUS
10
0.790451
20
1.02716
11
0.790744
21
1.02618
0
LINE
8
BLACK
6
CONTINUOUS
10
0.790744
20
1.02618
11
0.790703
21
1.02601
0
LINE
8
BLACK
6
CONTINUOUS
10
0.790703
20
1.02601
11
0.790763
21
1.02584
0
LINE
8
BLACK
6
CONTINUOUS
10
0.790763
20
1.02584
11
0.790763
21
1.01834
0
LINE
8
BLACK
6
CONTINUOUS
10
0.790763
20
1.01834
11
0.790585
21
1.01733
0
LINE
8
BLACK
6
CONTINUOUS
10
0.790585
20
1.01733
11
0.790471
21
1.0172
0
LINE
8
BLACK
6
CONTINUOUS
10
0.790471
20
1.0172
11
0.790451
21
1.01702
0
LINE
8
BLACK
6
CONTINUOUS
10
0.790451
20
1.01702
11
0.788576
21
1.01327
0
LINE
8
BLACK
6
CONTINUOUS
10
0.788576
20
1.01327
11
0.788051
21
1.01257
0
LINE
8
BLACK
6
CONTINUOUS
10
0.788051
20
1.01257
11
0.788023
21
1.01251
0
LINE
8
BLACK
6
CONTINUOUS
10
0.788023
20
1.01251
11
0.786149
21
1.01063
0
LINE
8
BLACK
6
CONTINUOUS
10
0.786149
20
1.01063
11
0.785426
21
1.01013
0
LINE
8
BLACK
6
CONTINUOUS
10
0.785426
20
1.01013
11
0.785381
21
1.01008
0
LINE
8
BLACK
6
CONTINUOUS
10
0.785381
20
1.01008
11
0.781632
21
1.0082
0
LINE
8
BLACK
6
CONTINUOUS
10
0.781632
20
1.0082
11
0.780649
21
1.00791
0
LINE
8
BLACK
6
CONTINUOUS
10
0.780649
20
1.00791
11
0.780477
21
1.00795
0
LINE
8
BLACK
6
CONTINUOUS
10
0.780477
20
1.00795
11
0.780311
21
1.00789
0
LINE
8
BLACK
6
CONTINUOUS
10
0.780311
20
1.00789
11
0.74844
21
1.00789
0
LINE
8
BLACK
6
CONTINUOUS
10
0.74844
20
1.00789
11
0.74743
21
1.00807
0
LINE
8
BLACK
6
CONTINUOUS
10
0.74743
20
1.00807
11
0.745883
21
1.00937
0
LINE
8
BLACK
6
CONTINUOUS
10
0.745883
20
1.00937
11
0.745532
21
1.01136
0
LINE
8
BLACK
6
CONTINUOUS
10
0.745532
20
1.01136
11
0.746542
21
1.01311
0
LINE
8
BLACK
6
CONTINUOUS
10
0.746542
20
1.01311
11
0.74844
21
1.0138
0
LINE
8
BLACK
6
CONTINUOUS
10
0.74844
20
1.0138
11
0.779614
21
1.0138
0
LINE
8
BLACK
6
CONTINUOUS
10
0.779614
20
1.0138
11
0.782312
21
1.01515
0
LINE
8
BLACK
6
CONTINUOUS
10
0.782312
20
1.01515
11
0.783509
21
1.01634
0
LINE
8
BLACK
6
CONTINUOUS
10
0.783509
20
1.01634
11
0.784857
21
1.01904
0
LINE
8
BLACK
6
CONTINUOUS
10
0.784857
20
1.01904
11
0.784857
21
1.02515
0
LINE
8
BLACK
6
CONTINUOUS
10
0.784857
20
1.02515
11
0.783509
21
1.02784
0
LINE
8
BLACK
6
CONTINUOUS
10
0.783509
20
1.02784
11
0.782312
21
1.02904
0
LINE
8
BLACK
6
CONTINUOUS
10
0.782312
20
1.02904
11
0.779614
21
1.03039
0
LINE
8
BLACK
6
CONTINUOUS
10
0.779614
20
1.03039
11
0.74844
21
1.03039
0
LINE
8
BLACK
6
CONTINUOUS
10
0.74844
20
1.03039
11
0.74743
21
1.03057
0
LINE
8
BLACK
6
CONTINUOUS
10
0.74743
20
1.03057
11
0.745883
21
1.03187
0
LINE
8
BLACK
6
CONTINUOUS
10
0.745883
20
1.03187
11
0.745532
21
1.03386
0
LINE
8
BLACK
6
CONTINUOUS
10
0.745532
20
1.03386
11
0.746542
21
1.0356
0
LINE
8
BLACK
6
CONTINUOUS
10
0.746542
20
1.0356
11
0.74844
21
1.0363
0
LINE
8
BLACK
6
CONTINUOUS
10
0.74844
20
1.0363
11
0.780311
21
1.0363
0
LINE
8
BLACK
6
CONTINUOUS
10
0.780311
20
1.0363
11
0.781321
21
1.03612
0
LINE
8
BLACK
6
CONTINUOUS
10
0.646654
20
1.02697
11
0.645962
21
1.0253
0
LINE
8
BLACK
6
CONTINUOUS
10
0.645962
20
1.0253
11
0.644291
21
1.02461
0
LINE
8
BLACK
6
CONTINUOUS
10
0.644291
20
1.02461
11
0.642621
21
1.0253
0
LINE
8
BLACK
6
CONTINUOUS
10
0.642621
20
1.0253
11
0.641929
21
1.02697
0
LINE
8
BLACK
6
CONTINUOUS
10
0.641929
20
1.02697
11
0.641929
21
1.10059
0
LINE
8
BLACK
6
CONTINUOUS
10
0.641929
20
1.10059
11
0.642621
21
1.10226
0
LINE
8
BLACK
6
CONTINUOUS
10
0.642621
20
1.10226
11
0.644291
21
1.10295
0
LINE
8
BLACK
6
CONTINUOUS
10
0.644291
20
1.10295
11
0.686024
21
1.10295
0
LINE
8
BLACK
6
CONTINUOUS
10
0.686024
20
1.10295
11
0.686024
21
1.12933
0
LINE
8
BLACK
6
CONTINUOUS
10
0.686024
20
1.12933
11
0.686716
21
1.131
0
LINE
8
BLACK
6
CONTINUOUS
10
0.686716
20
1.131
11
0.688386
21
1.13169
0
LINE
8
BLACK
6
CONTINUOUS
10
0.688386
20
1.13169
11
0.690056
21
1.131
0
LINE
8
BLACK
6
CONTINUOUS
10
0.690056
20
1.131
11
0.690748
21
1.12933
0
LINE
8
BLACK
6
CONTINUOUS
10
0.690748
20
1.12933
11
0.690748
21
1.10059
0
LINE
8
BLACK
6
CONTINUOUS
10
0.690748
20
1.10059
11
0.690056
21
1.09892
0
LINE
8
BLACK
6
CONTINUOUS
10
0.690056
20
1.09892
11
0.688386
21
1.09823
0
LINE
8
BLACK
6
CONTINUOUS
10
0.688386
20
1.09823
11
0.646654
21
1.09823
0
LINE
8
BLACK
6
CONTINUOUS
10
0.646654
20
1.09823
11
0.646654
21
1.02697
0
LINE
8
BLACK
6
CONTINUOUS
10
0.907379
20
1.10226
11
0.908071
21
1.10059
0
LINE
8
BLACK
6
CONTINUOUS
10
0.908071
20
1.10059
11
0.908071
21
1.02697
0
LINE
8
BLACK
6
CONTINUOUS
10
0.908071
20
1.02697
11
0.907379
21
1.0253
0
LINE
8
BLACK
6
CONTINUOUS
10
0.907379
20
1.0253
11
0.905709
21
1.02461
0
LINE
8
BLACK
6
CONTINUOUS
10
0.905709
20
1.02461
11
0.904038
21
1.0253
0
LINE
8
BLACK
6
CONTINUOUS
10
0.904038
20
1.0253
11
0.903346
21
1.02697
0
LINE
8
BLACK
6
CONTINUOUS
10
0.903346
20
1.02697
11
0.903346
21
1.09823
0
LINE
8
BLACK
6
CONTINUOUS
10
0.903346
20
1.09823
11
0.861614
21
1.09823
0
LINE
8
BLACK
6
CONTINUOUS
10
0.861614
20
1.09823
11
0.859944
21
1.09892
0
LINE
8
BLACK
6
CONTINUOUS
10
0.859944
20
1.09892
11
0.859252
21
1.10059
0
LINE
8
BLACK
6
CONTINUOUS
10
0.859252
20
1.10059
11
0.859944
21
1.10226
0
LINE
8
BLACK
6
CONTINUOUS
10
0.859944
20
1.10226
11
0.861614
21
1.10295
0
LINE
8
BLACK
6
CONTINUOUS
10
0.861614
20
1.10295
11
0.905709
21
1.10295
0
LINE
8
BLACK
6
CONTINUOUS
10
0.905709
20
1.10295
11
0.907379
21
1.10226
0
LINE
8
BLACK
6
CONTINUOUS
10
1.55203
20
1.05341
11
1.55134
21
1.05508
0
LINE
8
BLACK
6
CONTINUOUS
10
1.55134
20
1.05508
11
1.55203
21
1.05675
0
LINE
8
BLACK
6
CONTINUOUS
10
1.55203
20
1.05675
11
1.5537
21
1.05744
0
LINE
8
BLACK
6
CONTINUOUS
10
1.5537
20
1.05744
11
1.59031
21
1.05744
0
LINE
8
BLACK
6
CONTINUOUS
10
1.59031
20
1.05744
11
1.59031
21
1.12594
0
LINE
8
BLACK
6
CONTINUOUS
10
1.59031
20
1.12594
11
1.59101
21
1.12762
0
LINE
8
BLACK
6
CONTINUOUS
10
1.59101
20
1.12762
11
1.59268
21
1.12831
0
LINE
8
BLACK
6
CONTINUOUS
10
1.59268
20
1.12831
11
1.64976
21
1.12831
0
LINE
8
BLACK
6
CONTINUOUS
10
1.64976
20
1.12831
11
1.65143
21
1.12762
0
LINE
8
BLACK
6
CONTINUOUS
10
1.65143
20
1.12762
11
1.65213
21
1.12594
0
LINE
8
BLACK
6
CONTINUOUS
10
1.65213
20
1.12594
11
1.65143
21
1.12427
0
LINE
8
BLACK
6
CONTINUOUS
10
1.65143
20
1.12427
11
1.64976
21
1.12358
0
LINE
8
BLACK
6
CONTINUOUS
10
1.64976
20
1.12358
11
1.59504
21
1.12358
0
LINE
8
BLACK
6
CONTINUOUS
10
1.59504
20
1.12358
11
1.59504
21
1.05508
0
LINE
8
BLACK
6
CONTINUOUS
10
1.59504
20
1.05508
11
1.59435
21
1.05341
0
LINE
8
BLACK
6
CONTINUOUS
10
1.59435
20
1.05341
11
1.59268
21
1.05272
0
LINE
8
BLACK
6
CONTINUOUS
10
1.59268
20
1.05272
11
1.5537
21
1.05272
0
LINE
8
BLACK
6
CONTINUOUS
10
1.5537
20
1.05272
11
1.55203
21
1.05341
0
LINE
8
BLACK
6
CONTINUOUS
10
0.617262
20
1.13524
11
0.617953
21
1.13335
0
LINE
8
BLACK
6
CONTINUOUS
10
0.617953
20
1.13335
11
0.617953
21
1.07335
0
LINE
8
BLACK
6
CONTINUOUS
10
0.617953
20
1.07335
11
0.617775
21
1.07234
0
LINE
8
BLACK
6
CONTINUOUS
10
0.617775
20
1.07234
11
0.616476
21
1.07079
0
LINE
8
BLACK
6
CONTINUOUS
10
0.616476
20
1.07079
11
0.614487
21
1.07044
0
LINE
8
BLACK
6
CONTINUOUS
10
0.614487
20
1.07044
11
0.612738
21
1.07145
0
LINE
8
BLACK
6
CONTINUOUS
10
0.612738
20
1.07145
11
0.612047
21
1.07335
0
LINE
8
BLACK
6
CONTINUOUS
10
0.612047
20
1.07335
11
0.612047
21
1.13335
0
LINE
8
BLACK
6
CONTINUOUS
10
0.612047
20
1.13335
11
0.612225
21
1.13436
0
LINE
8
BLACK
6
CONTINUOUS
10
0.612225
20
1.13436
11
0.613524
21
1.1359
0
LINE
8
BLACK
6
CONTINUOUS
10
0.613524
20
1.1359
11
0.615513
21
1.13625
0
LINE
8
BLACK
6
CONTINUOUS
10
0.615513
20
1.13625
11
0.617262
21
1.13524
0
LINE
8
BLACK
6
CONTINUOUS
10
0.497262
20
1.13524
11
0.497953
21
1.13335
0
LINE
8
BLACK
6
CONTINUOUS
10
0.497953
20
1.13335
11
0.497953
21
1.07335
0
LINE
8
BLACK
6
CONTINUOUS
10
0.497953
20
1.07335
11
0.497775
21
1.07234
0
LINE
8
BLACK
6
CONTINUOUS
10
0.497775
20
1.07234
11
0.496476
21
1.07079
0
LINE
8
BLACK
6
CONTINUOUS
10
0.496476
20
1.07079
11
0.494487
21
1.07044
0
LINE
8
BLACK
6
CONTINUOUS
10
0.494487
20
1.07044
11
0.492738
21
1.07145
0
LINE
8
BLACK
6
CONTINUOUS
10
0.492738
20
1.07145
11
0.492047
21
1.07335
0
LINE
8
BLACK
6
CONTINUOUS
10
0.492047
20
1.07335
11
0.492047
21
1.13335
0
LINE
8
BLACK
6
CONTINUOUS
10
0.492047
20
1.13335
11
0.492225
21
1.13436
0
LINE
8
BLACK
6
CONTINUOUS
10
0.492225
20
1.13436
11
0.493524
21
1.1359
0
LINE
8
BLACK
6
CONTINUOUS
10
0.493524
20
1.1359
11
0.495513
21
1.13625
0
LINE
8
BLACK
6
CONTINUOUS
10
0.495513
20
1.13625
11
0.497262
21
1.13524
0
LINE
8
BLACK
6
CONTINUOUS
10
0.57167
20
1.07502
11
0.572362
21
1.07335
0
LINE
8
BLACK
6
CONTINUOUS
10
0.572362
20
1.07335
11
0.57167
21
1.07168
0
LINE
8
BLACK
6
CONTINUOUS
10
0.57167
20
1.07168
11
0.57
21
1.07098
0
LINE
8
BLACK
6
CONTINUOUS
10
0.57
20
1.07098
11
0.54
21
1.07098
0
LINE
8
BLACK
6
CONTINUOUS
10
0.54
20
1.07098
11
0.53833
21
1.07168
0
LINE
8
BLACK
6
CONTINUOUS
10
0.53833
20
1.07168
11
0.537638
21
1.07335
0
LINE
8
BLACK
6
CONTINUOUS
10
0.537638
20
1.07335
11
0.53833
21
1.07502
0
LINE
8
BLACK
6
CONTINUOUS
10
0.53833
20
1.07502
11
0.54
21
1.07571
0
LINE
8
BLACK
6
CONTINUOUS
10
0.54
20
1.07571
11
0.57
21
1.07571
0
LINE
8
BLACK
6
CONTINUOUS
10
0.57
20
1.07571
11
0.57167
21
1.07502
0
LINE
8
BLACK
6
CONTINUOUS
10
1.21476
20
1.14024
11
1.21545
21
1.13835
0
LINE
8
BLACK
6
CONTINUOUS
10
1.21545
20
1.13835
11
1.21545
21
1.07835
0
LINE
8
BLACK
6
CONTINUOUS
10
1.21545
20
1.07835
11
1.21527
21
1.07734
0
LINE
8
BLACK
6
CONTINUOUS
10
1.21527
20
1.07734
11
1.21398
21
1.07579
0
LINE
8
BLACK
6
CONTINUOUS
10
1.21398
20
1.07579
11
1.21199
21
1.07544
0
LINE
8
BLACK
6
CONTINUOUS
10
1.21199
20
1.07544
11
1.21024
21
1.07645
0
LINE
8
BLACK
6
CONTINUOUS
10
1.21024
20
1.07645
11
1.20955
21
1.07835
0
LINE
8
BLACK
6
CONTINUOUS
10
1.20955
20
1.07835
11
1.20955
21
1.13835
0
LINE
8
BLACK
6
CONTINUOUS
10
1.20955
20
1.13835
11
1.20973
21
1.13936
0
LINE
8
BLACK
6
CONTINUOUS
10
1.20973
20
1.13936
11
1.21102
21
1.1409
0
LINE
8
BLACK
6
CONTINUOUS
10
1.21102
20
1.1409
11
1.21301
21
1.14125
0
LINE
8
BLACK
6
CONTINUOUS
10
1.21301
20
1.14125
11
1.21476
21
1.14024
0
LINE
8
BLACK
6
CONTINUOUS
10
1.06226
20
1.14024
11
1.06295
21
1.13835
0
LINE
8
BLACK
6
CONTINUOUS
10
1.06295
20
1.13835
11
1.06295
21
1.07835
0
LINE
8
BLACK
6
CONTINUOUS
10
1.06295
20
1.07835
11
1.06277
21
1.07734
0
LINE
8
BLACK
6
CONTINUOUS
10
1.06277
20
1.07734
11
1.06148
21
1.07579
0
LINE
8
BLACK
6
CONTINUOUS
10
1.06148
20
1.07579
11
1.05949
21
1.07544
0
LINE
8
BLACK
6
CONTINUOUS
10
1.05949
20
1.07544
11
1.05774
21
1.07645
0
LINE
8
BLACK
6
CONTINUOUS
10
1.05774
20
1.07645
11
1.05705
21
1.07835
0
LINE
8
BLACK
6
CONTINUOUS
10
1.05705
20
1.07835
11
1.05705
21
1.13835
0
LINE
8
BLACK
6
CONTINUOUS
10
1.05705
20
1.13835
11
1.05723
21
1.13936
0
LINE
8
BLACK
6
CONTINUOUS
10
1.05723
20
1.13936
11
1.05852
21
1.1409
0
LINE
8
BLACK
6
CONTINUOUS
10
1.05852
20
1.1409
11
1.06051
21
1.14125
0
LINE
8
BLACK
6
CONTINUOUS
10
1.06051
20
1.14125
11
1.06226
21
1.14024
0
LINE
8
BLACK
6
CONTINUOUS
10
0.942262
20
1.14024
11
0.942953
21
1.13835
0
LINE
8
BLACK
6
CONTINUOUS
10
0.942953
20
1.13835
11
0.942953
21
1.07835
0
LINE
8
BLACK
6
CONTINUOUS
10
0.942953
20
1.07835
11
0.942775
21
1.07734
0
LINE
8
BLACK
6
CONTINUOUS
10
0.942775
20
1.07734
11
0.941476
21
1.07579
0
LINE
8
BLACK
6
CONTINUOUS
10
0.941476
20
1.07579
11
0.939487
21
1.07544
0
LINE
8
BLACK
6
CONTINUOUS
10
0.939487
20
1.07544
11
0.937738
21
1.07645
0
LINE
8
BLACK
6
CONTINUOUS
10
0.937738
20
1.07645
11
0.937047
21
1.07835
0
LINE
8
BLACK
6
CONTINUOUS
10
0.937047
20
1.07835
11
0.937047
21
1.13835
0
LINE
8
BLACK
6
CONTINUOUS
10
0.937047
20
1.13835
11
0.937225
21
1.13936
0
LINE
8
BLACK
6
CONTINUOUS
10
0.937225
20
1.13936
11
0.938524
21
1.1409
0
LINE
8
BLACK
6
CONTINUOUS
10
0.938524
20
1.1409
11
0.940513
21
1.14125
0
LINE
8
BLACK
6
CONTINUOUS
10
0.940513
20
1.14125
11
0.942262
21
1.14024
0
LINE
8
BLACK
6
CONTINUOUS
10
1.09476
20
1.14024
11
1.09545
21
1.13835
0
LINE
8
BLACK
6
CONTINUOUS
10
1.09545
20
1.13835
11
1.09545
21
1.07835
0
LINE
8
BLACK
6
CONTINUOUS
10
1.09545
20
1.07835
11
1.09527
21
1.07734
0
LINE
8
BLACK
6
CONTINUOUS
10
1.09527
20
1.07734
11
1.09398
21
1.07579
0
LINE
8
BLACK
6
CONTINUOUS
10
1.09398
20
1.07579
11
1.09199
21
1.07544
0
LINE
8
BLACK
6
CONTINUOUS
10
1.09199
20
1.07544
11
1.09024
21
1.07645
0
LINE
8
BLACK
6
CONTINUOUS
10
1.09024
20
1.07645
11
1.08955
21
1.07835
0
LINE
8
BLACK
6
CONTINUOUS
10
1.08955
20
1.07835
11
1.08955
21
1.13835
0
LINE
8
BLACK
6
CONTINUOUS
10
1.08955
20
1.13835
11
1.08973
21
1.13936
0
LINE
8
BLACK
6
CONTINUOUS
10
1.08973
20
1.13936
11
1.09102
21
1.1409
0
LINE
8
BLACK
6
CONTINUOUS
10
1.09102
20
1.1409
11
1.09301
21
1.14125
0
LINE
8
BLACK
6
CONTINUOUS
10
1.09301
20
1.14125
11
1.09476
21
1.14024
0
LINE
8
BLACK
6
CONTINUOUS
10
1.16917
20
1.08002
11
1.16986
21
1.07835
0
LINE
8
BLACK
6
CONTINUOUS
10
1.16986
20
1.07835
11
1.16917
21
1.07668
0
LINE
8
BLACK
6
CONTINUOUS
10
1.16917
20
1.07668
11
1.1675
21
1.07598
0
LINE
8
BLACK
6
CONTINUOUS
10
1.1675
20
1.07598
11
1.1375
21
1.07598
0
LINE
8
BLACK
6
CONTINUOUS
10
1.1375
20
1.07598
11
1.13583
21
1.07668
0
LINE
8
BLACK
6
CONTINUOUS
10
1.13583
20
1.07668
11
1.13514
21
1.07835
0
LINE
8
BLACK
6
CONTINUOUS
10
1.13514
20
1.07835
11
1.13583
21
1.08002
0
LINE
8
BLACK
6
CONTINUOUS
10
1.13583
20
1.08002
11
1.1375
21
1.08071
0
LINE
8
BLACK
6
CONTINUOUS
10
1.1375
20
1.08071
11
1.1675
21
1.08071
0
LINE
8
BLACK
6
CONTINUOUS
10
1.1675
20
1.08071
11
1.16917
21
1.08002
0
LINE
8
BLACK
6
CONTINUOUS
10
1.01667
20
1.08002
11
1.01736
21
1.07835
0
LINE
8
BLACK
6
CONTINUOUS
10
1.01736
20
1.07835
11
1.01667
21
1.07668
0
LINE
8
BLACK
6
CONTINUOUS
10
1.01667
20
1.07668
11
1.015
21
1.07598
0
LINE
8
BLACK
6
CONTINUOUS
10
1.015
20
1.07598
11
0.985
21
1.07598
0
LINE
8
BLACK
6
CONTINUOUS
10
0.985
20
1.07598
11
0.98333
21
1.07668
0
LINE
8
BLACK
6
CONTINUOUS
10
0.98333
20
1.07668
11
0.982638
21
1.07835
0
LINE
8
BLACK
6
CONTINUOUS
10
0.982638
20
1.07835
11
0.98333
21
1.08002
0
LINE
8
BLACK
6
CONTINUOUS
10
0.98333
20
1.08002
11
0.985
21
1.08071
0
LINE
8
BLACK
6
CONTINUOUS
10
0.985
20
1.08071
11
1.015
21
1.08071
0
LINE
8
BLACK
6
CONTINUOUS
10
1.015
20
1.08071
11
1.01667
21
1.08002
0
LINE
8
BLACK
6
CONTINUOUS
10
0.81604
20
1.10226
11
0.816732
21
1.10059
0
LINE
8
BLACK
6
CONTINUOUS
10
0.816732
20
1.10059
11
0.81604
21
1.09892
0
LINE
8
BLACK
6
CONTINUOUS
10
0.81604
20
1.09892
11
0.81437
21
1.09823
0
LINE
8
BLACK
6
CONTINUOUS
10
0.81437
20
1.09823
11
0.798622
21
1.09823
0
LINE
8
BLACK
6
CONTINUOUS
10
0.798622
20
1.09823
11
0.796952
21
1.09892
0
LINE
8
BLACK
6
CONTINUOUS
10
0.796952
20
1.09892
11
0.79626
21
1.10059
0
LINE
8
BLACK
6
CONTINUOUS
10
0.79626
20
1.10059
11
0.796952
21
1.10226
0
LINE
8
BLACK
6
CONTINUOUS
10
0.796952
20
1.10226
11
0.798622
21
1.10295
0
LINE
8
BLACK
6
CONTINUOUS
10
0.798622
20
1.10295
11
0.81437
21
1.10295
0
LINE
8
BLACK
6
CONTINUOUS
10
0.81437
20
1.10295
11
0.81604
21
1.10226
0
LINE
8
BLACK
6
CONTINUOUS
10
0.753048
20
1.10226
11
0.75374
21
1.10059
0
LINE
8
BLACK
6
CONTINUOUS
10
0.75374
20
1.10059
11
0.753048
21
1.09892
0
LINE
8
BLACK
6
CONTINUOUS
10
0.753048
20
1.09892
11
0.751378
21
1.09823
0
LINE
8
BLACK
6
CONTINUOUS
10
0.751378
20
1.09823
11
0.73563
21
1.09823
0
LINE
8
BLACK
6
CONTINUOUS
10
0.73563
20
1.09823
11
0.73396
21
1.09892
0
LINE
8
BLACK
6
CONTINUOUS
10
0.73396
20
1.09892
11
0.733268
21
1.10059
0
LINE
8
BLACK
6
CONTINUOUS
10
0.733268
20
1.10059
11
0.73396
21
1.10226
0
LINE
8
BLACK
6
CONTINUOUS
10
0.73396
20
1.10226
11
0.73563
21
1.10295
0
LINE
8
BLACK
6
CONTINUOUS
10
0.73563
20
1.10295
11
0.751378
21
1.10295
0
LINE
8
BLACK
6
CONTINUOUS
10
0.751378
20
1.10295
11
0.753048
21
1.10226
0
LINE
8
BLACK
6
CONTINUOUS
10
0.57167
20
1.13502
11
0.572362
21
1.13335
0
LINE
8
BLACK
6
CONTINUOUS
10
0.572362
20
1.13335
11
0.57167
21
1.13168
0
LINE
8
BLACK
6
CONTINUOUS
10
0.57167
20
1.13168
11
0.57
21
1.13098
0
LINE
8
BLACK
6
CONTINUOUS
10
0.57
20
1.13098
11
0.54
21
1.13098
0
LINE
8
BLACK
6
CONTINUOUS
10
0.54
20
1.13098
11
0.53833
21
1.13168
0
LINE
8
BLACK
6
CONTINUOUS
10
0.53833
20
1.13168
11
0.537638
21
1.13335
0
LINE
8
BLACK
6
CONTINUOUS
10
0.537638
20
1.13335
11
0.53833
21
1.13502
0
LINE
8
BLACK
6
CONTINUOUS
10
0.53833
20
1.13502
11
0.54
21
1.13571
0
LINE
8
BLACK
6
CONTINUOUS
10
0.54
20
1.13571
11
0.57
21
1.13571
0
LINE
8
BLACK
6
CONTINUOUS
10
0.57
20
1.13571
11
0.57167
21
1.13502
0
LINE
8
BLACK
6
CONTINUOUS
10
1.01667
20
1.14002
11
1.01736
21
1.13835
0
LINE
8
BLACK
6
CONTINUOUS
10
1.01736
20
1.13835
11
1.01667
21
1.13668
0
LINE
8
BLACK
6
CONTINUOUS
10
1.01667
20
1.13668
11
1.015
21
1.13598
0
LINE
8
BLACK
6
CONTINUOUS
10
1.015
20
1.13598
11
0.985
21
1.13598
0
LINE
8
BLACK
6
CONTINUOUS
10
0.985
20
1.13598
11
0.98333
21
1.13668
0
LINE
8
BLACK
6
CONTINUOUS
10
0.98333
20
1.13668
11
0.982638
21
1.13835
0
LINE
8
BLACK
6
CONTINUOUS
10
0.982638
20
1.13835
11
0.98333
21
1.14002
0
LINE
8
BLACK
6
CONTINUOUS
10
0.98333
20
1.14002
11
0.985
21
1.14071
0
LINE
8
BLACK
6
CONTINUOUS
10
0.985
20
1.14071
11
1.015
21
1.14071
0
LINE
8
BLACK
6
CONTINUOUS
10
1.015
20
1.14071
11
1.01667
21
1.14002
0
LINE
8
BLACK
6
CONTINUOUS
10
1.16917
20
1.14002
11
1.16986
21
1.13835
0
LINE
8
BLACK
6
CONTINUOUS
10
1.16986
20
1.13835
11
1.16917
21
1.13668
0
LINE
8
BLACK
6
CONTINUOUS
10
1.16917
20
1.13668
11
1.1675
21
1.13598
0
LINE
8
BLACK
6
CONTINUOUS
10
1.1675
20
1.13598
11
1.1375
21
1.13598
0
LINE
8
BLACK
6
CONTINUOUS
10
1.1375
20
1.13598
11
1.13583
21
1.13668
0
LINE
8
BLACK
6
CONTINUOUS
10
1.13583
20
1.13668
11
1.13514
21
1.13835
0
LINE
8
BLACK
6
CONTINUOUS
10
1.13514
20
1.13835
11
1.13583
21
1.14002
0
LINE
8
BLACK
6
CONTINUOUS
10
1.13583
20
1.14002
11
1.1375
21
1.14071
0
LINE
8
BLACK
6
CONTINUOUS
10
1.1375
20
1.14071
11
1.1675
21
1.14071
0
LINE
8
BLACK
6
CONTINUOUS
10
1.1675
20
1.14071
11
1.16917
21
1.14002
  0
ENDSEC
  0
EOF
