  0
SECTION
  2
HEADER
  9
$ANGBASE
  50
0.0
  9
$ANGDIR
  70
1
  9
$MEASUREMENT
  70
0
  0
ENDSEC
  0
SECTION
  2
TABLES
  0
TABLE
  2
LTYPE
  70
4
  0
LTYPE
  5
40F
  2
CONTINUOUS
  70
0
  3
Solid line
  72
65
  73
0
  40
0.0
  0
LTYPE
  5
410
  2
DASHDOT
 70
0
  3
Dash Dot ____ _ ____ _
 72
65
 73
4
 40
2.0
 49
1.25
 49
-0.25
 49
0.25
 49
-0.25
  0
LTYPE
  5
411
  2
DASHED
 70
0
  3
Dashed __ __ __ __ __
 72
65
 73
2
 40
0.75
 49
0.5
 49
-0.25
  0
LTYPE
  5
43B
  2
DOTTED
 70
0
  3
Dotted .  .  .  .
 72
65
 73
2
 40
0.2
 49
0.0
 49
-0.2
  0
ENDTAB
  0
TABLE
  2
STYLE
  70
4
  0
STYLE
  2
KICAD
  70
0
  40
0
  41
1
  42
1
  50
0
  71
0
  3
isocp.shx
  0
STYLE
  2
KICADB
  70
0
  40
0
  41
1
  42
1
  50
0
  71
0
  3
isocp.shx
  0
STYLE
  2
KICADI
  70
0
  40
0
  41
1
  42
1
  50
15
  71
0
  3
isocp.shx
  0
STYLE
  2
KICADBI
  70
0
  40
0
  41
1
  42
1
  50
15
  71
0
  3
isocp.shx
  0
ENDTAB
  0
TABLE
  2
LAYER
  70
1
  0
LAYER
  2
BLACK
  70
0
  62
7
  6
CONTINUOUS
  0
ENDTAB
  0
ENDSEC
  0
SECTION
  2
ENTITIES
0
LINE
8
BLACK
6
CONTINUOUS
10
1.73899
20
0.117993
11
1.74396
21
0.116248
0
LINE
8
BLACK
6
CONTINUOUS
10
1.74396
20
0.116248
11
1.7482
21
0.113118
0
LINE
8
BLACK
6
CONTINUOUS
10
1.7482
20
0.113118
11
1.75133
21
0.108881
0
LINE
8
BLACK
6
CONTINUOUS
10
1.75133
20
0.108881
11
1.75307
21
0.10391
0
LINE
8
BLACK
6
CONTINUOUS
10
1.75307
20
0.10391
11
1.75339
21
0.100591
0
LINE
8
BLACK
6
CONTINUOUS
10
1.75339
20
0.100591
11
1.75339
21
0.0494094
0
LINE
8
BLACK
6
CONTINUOUS
10
1.75339
20
0.0494094
11
1.75307
21
0.0460897
0
LINE
8
BLACK
6
CONTINUOUS
10
1.75307
20
0.0460897
11
1.75133
21
0.0411194
0
LINE
8
BLACK
6
CONTINUOUS
10
1.75133
20
0.0411194
11
1.7482
21
0.036882
0
LINE
8
BLACK
6
CONTINUOUS
10
1.7482
20
0.036882
11
1.74396
21
0.0337522
0
LINE
8
BLACK
6
CONTINUOUS
10
1.74396
20
0.0337522
11
1.73899
21
0.0320067
0
LINE
8
BLACK
6
CONTINUOUS
10
1.73899
20
0.0320067
11
1.73567
21
0.0316929
0
LINE
8
BLACK
6
CONTINUOUS
10
1.73567
20
0.0316929
11
1.62543
21
0.0316929
0
LINE
8
BLACK
6
CONTINUOUS
10
1.62543
20
0.0316929
11
1.62211
21
0.0320067
0
LINE
8
BLACK
6
CONTINUOUS
10
1.62211
20
0.0320067
11
1.61714
21
0.0337522
0
LINE
8
BLACK
6
CONTINUOUS
10
1.61714
20
0.0337522
11
1.61291
21
0.036882
0
LINE
8
BLACK
6
CONTINUOUS
10
1.61291
20
0.036882
11
1.60978
21
0.0411194
0
LINE
8
BLACK
6
CONTINUOUS
10
1.60978
20
0.0411194
11
1.60803
21
0.0460897
0
LINE
8
BLACK
6
CONTINUOUS
10
1.60803
20
0.0460897
11
1.60772
21
0.0494094
0
LINE
8
BLACK
6
CONTINUOUS
10
1.60772
20
0.0494094
11
1.60772
21
0.100591
0
LINE
8
BLACK
6
CONTINUOUS
10
1.60772
20
0.100591
11
1.60803
21
0.10391
0
LINE
8
BLACK
6
CONTINUOUS
10
1.60803
20
0.10391
11
1.60978
21
0.108881
0
LINE
8
BLACK
6
CONTINUOUS
10
1.60978
20
0.108881
11
1.61291
21
0.113118
0
LINE
8
BLACK
6
CONTINUOUS
10
1.61291
20
0.113118
11
1.61714
21
0.116248
0
LINE
8
BLACK
6
CONTINUOUS
10
1.61714
20
0.116248
11
1.62211
21
0.117993
0
LINE
8
BLACK
6
CONTINUOUS
10
1.62211
20
0.117993
11
1.62543
21
0.118307
0
LINE
8
BLACK
6
CONTINUOUS
10
1.62543
20
0.118307
11
1.73567
21
0.118307
0
LINE
8
BLACK
6
CONTINUOUS
10
1.73567
20
0.118307
11
1.73899
21
0.117993
0
LINE
8
BLACK
6
CONTINUOUS
10
1.19051
20
0.0909754
11
1.19307
21
0.0892685
0
LINE
8
BLACK
6
CONTINUOUS
10
1.19307
20
0.0892685
11
1.19477
21
0.0867141
0
LINE
8
BLACK
6
CONTINUOUS
10
1.19477
20
0.0867141
11
1.19537
21
0.0837008
0
LINE
8
BLACK
6
CONTINUOUS
10
1.19537
20
0.0837008
11
1.19537
21
0.0487008
0
LINE
8
BLACK
6
CONTINUOUS
10
1.19537
20
0.0487008
11
1.19477
21
0.0456875
0
LINE
8
BLACK
6
CONTINUOUS
10
1.19477
20
0.0456875
11
1.19307
21
0.043133
0
LINE
8
BLACK
6
CONTINUOUS
10
1.19307
20
0.043133
11
1.19051
21
0.0414261
0
LINE
8
BLACK
6
CONTINUOUS
10
1.19051
20
0.0414261
11
1.1875
21
0.0408268
0
LINE
8
BLACK
6
CONTINUOUS
10
1.1875
20
0.0408268
11
1.1325
21
0.0408268
0
LINE
8
BLACK
6
CONTINUOUS
10
1.1325
20
0.0408268
11
1.12949
21
0.0414261
0
LINE
8
BLACK
6
CONTINUOUS
10
1.12949
20
0.0414261
11
1.12693
21
0.043133
0
LINE
8
BLACK
6
CONTINUOUS
10
1.12693
20
0.043133
11
1.12523
21
0.0456875
0
LINE
8
BLACK
6
CONTINUOUS
10
1.12523
20
0.0456875
11
1.12463
21
0.0487008
0
LINE
8
BLACK
6
CONTINUOUS
10
1.12463
20
0.0487008
11
1.12463
21
0.0837008
0
LINE
8
BLACK
6
CONTINUOUS
10
1.12463
20
0.0837008
11
1.12523
21
0.0867141
0
LINE
8
BLACK
6
CONTINUOUS
10
1.12523
20
0.0867141
11
1.12693
21
0.0892685
0
LINE
8
BLACK
6
CONTINUOUS
10
1.12693
20
0.0892685
11
1.12949
21
0.0909754
0
LINE
8
BLACK
6
CONTINUOUS
10
1.12949
20
0.0909754
11
1.1325
21
0.0915748
0
LINE
8
BLACK
6
CONTINUOUS
10
1.1325
20
0.0915748
11
1.1875
21
0.0915748
0
LINE
8
BLACK
6
CONTINUOUS
10
1.1875
20
0.0915748
11
1.19051
21
0.0909754
0
LINE
8
BLACK
6
CONTINUOUS
10
1.29293
20
0.113131
11
1.2979
21
0.111386
0
LINE
8
BLACK
6
CONTINUOUS
10
1.2979
20
0.111386
11
1.30213
21
0.108256
0
LINE
8
BLACK
6
CONTINUOUS
10
1.30213
20
0.108256
11
1.30526
21
0.104018
0
LINE
8
BLACK
6
CONTINUOUS
10
1.30526
20
0.104018
11
1.30701
21
0.0990481
0
LINE
8
BLACK
6
CONTINUOUS
10
1.30701
20
0.0990481
11
1.30732
21
0.0957283
0
LINE
8
BLACK
6
CONTINUOUS
10
1.30732
20
0.0957283
11
1.30732
21
0.0662008
0
LINE
8
BLACK
6
CONTINUOUS
10
1.30732
20
0.0662008
11
1.30701
21
0.062881
0
LINE
8
BLACK
6
CONTINUOUS
10
1.30701
20
0.062881
11
1.30526
21
0.0579107
0
LINE
8
BLACK
6
CONTINUOUS
10
1.30526
20
0.0579107
11
1.30213
21
0.0536733
0
LINE
8
BLACK
6
CONTINUOUS
10
1.30213
20
0.0536733
11
1.2979
21
0.0505435
0
LINE
8
BLACK
6
CONTINUOUS
10
1.2979
20
0.0505435
11
1.29293
21
0.0487981
0
LINE
8
BLACK
6
CONTINUOUS
10
1.29293
20
0.0487981
11
1.28961
21
0.0484843
0
LINE
8
BLACK
6
CONTINUOUS
10
1.28961
20
0.0484843
11
1.24039
21
0.0484843
0
LINE
8
BLACK
6
CONTINUOUS
10
1.24039
20
0.0484843
11
1.23707
21
0.0487981
0
LINE
8
BLACK
6
CONTINUOUS
10
1.23707
20
0.0487981
11
1.2321
21
0.0505435
0
LINE
8
BLACK
6
CONTINUOUS
10
1.2321
20
0.0505435
11
1.22787
21
0.0536733
0
LINE
8
BLACK
6
CONTINUOUS
10
1.22787
20
0.0536733
11
1.22474
21
0.0579107
0
LINE
8
BLACK
6
CONTINUOUS
10
1.22474
20
0.0579107
11
1.22299
21
0.062881
0
LINE
8
BLACK
6
CONTINUOUS
10
1.22299
20
0.062881
11
1.22268
21
0.0662008
0
LINE
8
BLACK
6
CONTINUOUS
10
1.22268
20
0.0662008
11
1.22268
21
0.0957283
0
LINE
8
BLACK
6
CONTINUOUS
10
1.22268
20
0.0957283
11
1.22299
21
0.0990481
0
LINE
8
BLACK
6
CONTINUOUS
10
1.22299
20
0.0990481
11
1.22474
21
0.104018
0
LINE
8
BLACK
6
CONTINUOUS
10
1.22474
20
0.104018
11
1.22787
21
0.108256
0
LINE
8
BLACK
6
CONTINUOUS
10
1.22787
20
0.108256
11
1.2321
21
0.111386
0
LINE
8
BLACK
6
CONTINUOUS
10
1.2321
20
0.111386
11
1.23707
21
0.113131
0
LINE
8
BLACK
6
CONTINUOUS
10
1.23707
20
0.113131
11
1.24039
21
0.113445
0
LINE
8
BLACK
6
CONTINUOUS
10
1.24039
20
0.113445
11
1.28961
21
0.113445
0
LINE
8
BLACK
6
CONTINUOUS
10
1.28961
20
0.113445
11
1.29293
21
0.113131
0
LINE
8
BLACK
6
CONTINUOUS
10
0.375513
20
0.103121
11
0.378068
21
0.101414
0
LINE
8
BLACK
6
CONTINUOUS
10
0.378068
20
0.101414
11
0.379775
21
0.0988597
0
LINE
8
BLACK
6
CONTINUOUS
10
0.379775
20
0.0988597
11
0.380374
21
0.0958465
0
LINE
8
BLACK
6
CONTINUOUS
10
0.380374
20
0.0958465
11
0.380374
21
0.0608465
0
LINE
8
BLACK
6
CONTINUOUS
10
0.380374
20
0.0608465
11
0.379775
21
0.0578332
0
LINE
8
BLACK
6
CONTINUOUS
10
0.379775
20
0.0578332
11
0.378068
21
0.0552787
0
LINE
8
BLACK
6
CONTINUOUS
10
0.378068
20
0.0552787
11
0.375513
21
0.0535718
0
LINE
8
BLACK
6
CONTINUOUS
10
0.375513
20
0.0535718
11
0.3725
21
0.0529724
0
LINE
8
BLACK
6
CONTINUOUS
10
0.3725
20
0.0529724
11
0.3175
21
0.0529724
0
LINE
8
BLACK
6
CONTINUOUS
10
0.3175
20
0.0529724
11
0.314487
21
0.0535718
0
LINE
8
BLACK
6
CONTINUOUS
10
0.314487
20
0.0535718
11
0.311932
21
0.0552787
0
LINE
8
BLACK
6
CONTINUOUS
10
0.311932
20
0.0552787
11
0.310225
21
0.0578332
0
LINE
8
BLACK
6
CONTINUOUS
10
0.310225
20
0.0578332
11
0.309626
21
0.0608465
0
LINE
8
BLACK
6
CONTINUOUS
10
0.309626
20
0.0608465
11
0.309626
21
0.0958465
0
LINE
8
BLACK
6
CONTINUOUS
10
0.309626
20
0.0958465
11
0.310225
21
0.0988597
0
LINE
8
BLACK
6
CONTINUOUS
10
0.310225
20
0.0988597
11
0.311932
21
0.101414
0
LINE
8
BLACK
6
CONTINUOUS
10
0.311932
20
0.101414
11
0.314487
21
0.103121
0
LINE
8
BLACK
6
CONTINUOUS
10
0.314487
20
0.103121
11
0.3175
21
0.10372
0
LINE
8
BLACK
6
CONTINUOUS
10
0.3175
20
0.10372
11
0.3725
21
0.10372
0
LINE
8
BLACK
6
CONTINUOUS
10
0.3725
20
0.10372
11
0.375513
21
0.103121
0
LINE
8
BLACK
6
CONTINUOUS
10
0.565513
20
0.103121
11
0.568068
21
0.101414
0
LINE
8
BLACK
6
CONTINUOUS
10
0.568068
20
0.101414
11
0.569775
21
0.0988597
0
LINE
8
BLACK
6
CONTINUOUS
10
0.569775
20
0.0988597
11
0.570374
21
0.0958465
0
LINE
8
BLACK
6
CONTINUOUS
10
0.570374
20
0.0958465
11
0.570374
21
0.0608465
0
LINE
8
BLACK
6
CONTINUOUS
10
0.570374
20
0.0608465
11
0.569775
21
0.0578332
0
LINE
8
BLACK
6
CONTINUOUS
10
0.569775
20
0.0578332
11
0.568068
21
0.0552787
0
LINE
8
BLACK
6
CONTINUOUS
10
0.568068
20
0.0552787
11
0.565513
21
0.0535718
0
LINE
8
BLACK
6
CONTINUOUS
10
0.565513
20
0.0535718
11
0.5625
21
0.0529724
0
LINE
8
BLACK
6
CONTINUOUS
10
0.5625
20
0.0529724
11
0.5075
21
0.0529724
0
LINE
8
BLACK
6
CONTINUOUS
10
0.5075
20
0.0529724
11
0.504487
21
0.0535718
0
LINE
8
BLACK
6
CONTINUOUS
10
0.504487
20
0.0535718
11
0.501932
21
0.0552787
0
LINE
8
BLACK
6
CONTINUOUS
10
0.501932
20
0.0552787
11
0.500225
21
0.0578332
0
LINE
8
BLACK
6
CONTINUOUS
10
0.500225
20
0.0578332
11
0.499626
21
0.0608465
0
LINE
8
BLACK
6
CONTINUOUS
10
0.499626
20
0.0608465
11
0.499626
21
0.0958465
0
LINE
8
BLACK
6
CONTINUOUS
10
0.499626
20
0.0958465
11
0.500225
21
0.0988597
0
LINE
8
BLACK
6
CONTINUOUS
10
0.500225
20
0.0988597
11
0.501932
21
0.101414
0
LINE
8
BLACK
6
CONTINUOUS
10
0.501932
20
0.101414
11
0.504487
21
0.103121
0
LINE
8
BLACK
6
CONTINUOUS
10
0.504487
20
0.103121
11
0.5075
21
0.10372
0
LINE
8
BLACK
6
CONTINUOUS
10
0.5075
20
0.10372
11
0.5625
21
0.10372
0
LINE
8
BLACK
6
CONTINUOUS
10
0.5625
20
0.10372
11
0.565513
21
0.103121
0
LINE
8
BLACK
6
CONTINUOUS
10
0.465513
20
0.103121
11
0.468068
21
0.101414
0
LINE
8
BLACK
6
CONTINUOUS
10
0.468068
20
0.101414
11
0.469775
21
0.0988597
0
LINE
8
BLACK
6
CONTINUOUS
10
0.469775
20
0.0988597
11
0.470374
21
0.0958465
0
LINE
8
BLACK
6
CONTINUOUS
10
0.470374
20
0.0958465
11
0.470374
21
0.0608465
0
LINE
8
BLACK
6
CONTINUOUS
10
0.470374
20
0.0608465
11
0.469775
21
0.0578332
0
LINE
8
BLACK
6
CONTINUOUS
10
0.469775
20
0.0578332
11
0.468068
21
0.0552787
0
LINE
8
BLACK
6
CONTINUOUS
10
0.468068
20
0.0552787
11
0.465513
21
0.0535718
0
LINE
8
BLACK
6
CONTINUOUS
10
0.465513
20
0.0535718
11
0.4625
21
0.0529724
0
LINE
8
BLACK
6
CONTINUOUS
10
0.4625
20
0.0529724
11
0.4075
21
0.0529724
0
LINE
8
BLACK
6
CONTINUOUS
10
0.4075
20
0.0529724
11
0.404487
21
0.0535718
0
LINE
8
BLACK
6
CONTINUOUS
10
0.404487
20
0.0535718
11
0.401932
21
0.0552787
0
LINE
8
BLACK
6
CONTINUOUS
10
0.401932
20
0.0552787
11
0.400225
21
0.0578332
0
LINE
8
BLACK
6
CONTINUOUS
10
0.400225
20
0.0578332
11
0.399626
21
0.0608465
0
LINE
8
BLACK
6
CONTINUOUS
10
0.399626
20
0.0608465
11
0.399626
21
0.0958465
0
LINE
8
BLACK
6
CONTINUOUS
10
0.399626
20
0.0958465
11
0.400225
21
0.0988597
0
LINE
8
BLACK
6
CONTINUOUS
10
0.400225
20
0.0988597
11
0.401932
21
0.101414
0
LINE
8
BLACK
6
CONTINUOUS
10
0.401932
20
0.101414
11
0.404487
21
0.103121
0
LINE
8
BLACK
6
CONTINUOUS
10
0.404487
20
0.103121
11
0.4075
21
0.10372
0
LINE
8
BLACK
6
CONTINUOUS
10
0.4075
20
0.10372
11
0.4625
21
0.10372
0
LINE
8
BLACK
6
CONTINUOUS
10
0.4625
20
0.10372
11
0.465513
21
0.103121
0
LINE
8
BLACK
6
CONTINUOUS
10
0.271793
20
0.104873
11
0.274347
21
0.103166
0
LINE
8
BLACK
6
CONTINUOUS
10
0.274347
20
0.103166
11
0.276054
21
0.100612
0
LINE
8
BLACK
6
CONTINUOUS
10
0.276054
20
0.100612
11
0.276654
21
0.0975984
0
LINE
8
BLACK
6
CONTINUOUS
10
0.276654
20
0.0975984
11
0.276654
21
0.0739764
0
LINE
8
BLACK
6
CONTINUOUS
10
0.276654
20
0.0739764
11
0.276054
21
0.0709631
0
LINE
8
BLACK
6
CONTINUOUS
10
0.276054
20
0.0709631
11
0.274347
21
0.0684086
0
LINE
8
BLACK
6
CONTINUOUS
10
0.274347
20
0.0684086
11
0.271793
21
0.0667017
0
LINE
8
BLACK
6
CONTINUOUS
10
0.271793
20
0.0667017
11
0.26878
21
0.0661024
0
LINE
8
BLACK
6
CONTINUOUS
10
0.26878
20
0.0661024
11
0.24122
21
0.0661024
0
LINE
8
BLACK
6
CONTINUOUS
10
0.24122
20
0.0661024
11
0.238207
21
0.0667017
0
LINE
8
BLACK
6
CONTINUOUS
10
0.238207
20
0.0667017
11
0.235653
21
0.0684086
0
LINE
8
BLACK
6
CONTINUOUS
10
0.235653
20
0.0684086
11
0.233946
21
0.0709631
0
LINE
8
BLACK
6
CONTINUOUS
10
0.233946
20
0.0709631
11
0.233346
21
0.0739764
0
LINE
8
BLACK
6
CONTINUOUS
10
0.233346
20
0.0739764
11
0.233346
21
0.0975984
0
LINE
8
BLACK
6
CONTINUOUS
10
0.233346
20
0.0975984
11
0.233946
21
0.100612
0
LINE
8
BLACK
6
CONTINUOUS
10
0.233946
20
0.100612
11
0.235653
21
0.103166
0
LINE
8
BLACK
6
CONTINUOUS
10
0.235653
20
0.103166
11
0.238207
21
0.104873
0
LINE
8
BLACK
6
CONTINUOUS
10
0.238207
20
0.104873
11
0.24122
21
0.105472
0
LINE
8
BLACK
6
CONTINUOUS
10
0.24122
20
0.105472
11
0.26878
21
0.105472
0
LINE
8
BLACK
6
CONTINUOUS
10
0.26878
20
0.105472
11
0.271793
21
0.104873
0
LINE
8
BLACK
6
CONTINUOUS
10
1.19051
20
0.165975
11
1.19307
21
0.164269
0
LINE
8
BLACK
6
CONTINUOUS
10
1.19307
20
0.164269
11
1.19477
21
0.161714
0
LINE
8
BLACK
6
CONTINUOUS
10
1.19477
20
0.161714
11
1.19537
21
0.158701
0
LINE
8
BLACK
6
CONTINUOUS
10
1.19537
20
0.158701
11
1.19537
21
0.123701
0
LINE
8
BLACK
6
CONTINUOUS
10
1.19537
20
0.123701
11
1.19477
21
0.120688
0
LINE
8
BLACK
6
CONTINUOUS
10
1.19477
20
0.120688
11
1.19307
21
0.118133
0
LINE
8
BLACK
6
CONTINUOUS
10
1.19307
20
0.118133
11
1.19051
21
0.116426
0
LINE
8
BLACK
6
CONTINUOUS
10
1.19051
20
0.116426
11
1.1875
21
0.115827
0
LINE
8
BLACK
6
CONTINUOUS
10
1.1875
20
0.115827
11
1.1325
21
0.115827
0
LINE
8
BLACK
6
CONTINUOUS
10
1.1325
20
0.115827
11
1.12949
21
0.116426
0
LINE
8
BLACK
6
CONTINUOUS
10
1.12949
20
0.116426
11
1.12693
21
0.118133
0
LINE
8
BLACK
6
CONTINUOUS
10
1.12693
20
0.118133
11
1.12523
21
0.120688
0
LINE
8
BLACK
6
CONTINUOUS
10
1.12523
20
0.120688
11
1.12463
21
0.123701
0
LINE
8
BLACK
6
CONTINUOUS
10
1.12463
20
0.123701
11
1.12463
21
0.158701
0
LINE
8
BLACK
6
CONTINUOUS
10
1.12463
20
0.158701
11
1.12523
21
0.161714
0
LINE
8
BLACK
6
CONTINUOUS
10
1.12523
20
0.161714
11
1.12693
21
0.164269
0
LINE
8
BLACK
6
CONTINUOUS
10
1.12693
20
0.164269
11
1.12949
21
0.165975
0
LINE
8
BLACK
6
CONTINUOUS
10
1.12949
20
0.165975
11
1.1325
21
0.166575
0
LINE
8
BLACK
6
CONTINUOUS
10
1.1325
20
0.166575
11
1.1875
21
0.166575
0
LINE
8
BLACK
6
CONTINUOUS
10
1.1875
20
0.166575
11
1.19051
21
0.165975
0
LINE
8
BLACK
6
CONTINUOUS
10
0.271793
20
0.159991
11
0.274347
21
0.158284
0
LINE
8
BLACK
6
CONTINUOUS
10
0.274347
20
0.158284
11
0.276054
21
0.15573
0
LINE
8
BLACK
6
CONTINUOUS
10
0.276054
20
0.15573
11
0.276654
21
0.152717
0
LINE
8
BLACK
6
CONTINUOUS
10
0.276654
20
0.152717
11
0.276654
21
0.129094
0
LINE
8
BLACK
6
CONTINUOUS
10
0.276654
20
0.129094
11
0.276054
21
0.126081
0
LINE
8
BLACK
6
CONTINUOUS
10
0.276054
20
0.126081
11
0.274347
21
0.123527
0
LINE
8
BLACK
6
CONTINUOUS
10
0.274347
20
0.123527
11
0.271793
21
0.12182
0
LINE
8
BLACK
6
CONTINUOUS
10
0.271793
20
0.12182
11
0.26878
21
0.12122
0
LINE
8
BLACK
6
CONTINUOUS
10
0.26878
20
0.12122
11
0.24122
21
0.12122
0
LINE
8
BLACK
6
CONTINUOUS
10
0.24122
20
0.12122
11
0.238207
21
0.12182
0
LINE
8
BLACK
6
CONTINUOUS
10
0.238207
20
0.12182
11
0.235653
21
0.123527
0
LINE
8
BLACK
6
CONTINUOUS
10
0.235653
20
0.123527
11
0.233946
21
0.126081
0
LINE
8
BLACK
6
CONTINUOUS
10
0.233946
20
0.126081
11
0.233346
21
0.129094
0
LINE
8
BLACK
6
CONTINUOUS
10
0.233346
20
0.129094
11
0.233346
21
0.152717
0
LINE
8
BLACK
6
CONTINUOUS
10
0.233346
20
0.152717
11
0.233946
21
0.15573
0
LINE
8
BLACK
6
CONTINUOUS
10
0.233946
20
0.15573
11
0.235653
21
0.158284
0
LINE
8
BLACK
6
CONTINUOUS
10
0.235653
20
0.158284
11
0.238207
21
0.159991
0
LINE
8
BLACK
6
CONTINUOUS
10
0.238207
20
0.159991
11
0.24122
21
0.160591
0
LINE
8
BLACK
6
CONTINUOUS
10
0.24122
20
0.160591
11
0.26878
21
0.160591
0
LINE
8
BLACK
6
CONTINUOUS
10
0.26878
20
0.160591
11
0.271793
21
0.159991
0
LINE
8
BLACK
6
CONTINUOUS
10
0.565513
20
0.178121
11
0.568068
21
0.176414
0
LINE
8
BLACK
6
CONTINUOUS
10
0.568068
20
0.176414
11
0.569775
21
0.17386
0
LINE
8
BLACK
6
CONTINUOUS
10
0.569775
20
0.17386
11
0.570374
21
0.170846
0
LINE
8
BLACK
6
CONTINUOUS
10
0.570374
20
0.170846
11
0.570374
21
0.135846
0
LINE
8
BLACK
6
CONTINUOUS
10
0.570374
20
0.135846
11
0.569775
21
0.132833
0
LINE
8
BLACK
6
CONTINUOUS
10
0.569775
20
0.132833
11
0.568068
21
0.130279
0
LINE
8
BLACK
6
CONTINUOUS
10
0.568068
20
0.130279
11
0.565513
21
0.128572
0
LINE
8
BLACK
6
CONTINUOUS
10
0.565513
20
0.128572
11
0.5625
21
0.127972
0
LINE
8
BLACK
6
CONTINUOUS
10
0.5625
20
0.127972
11
0.5075
21
0.127972
0
LINE
8
BLACK
6
CONTINUOUS
10
0.5075
20
0.127972
11
0.504487
21
0.128572
0
LINE
8
BLACK
6
CONTINUOUS
10
0.504487
20
0.128572
11
0.501932
21
0.130279
0
LINE
8
BLACK
6
CONTINUOUS
10
0.501932
20
0.130279
11
0.500225
21
0.132833
0
LINE
8
BLACK
6
CONTINUOUS
10
0.500225
20
0.132833
11
0.499626
21
0.135846
0
LINE
8
BLACK
6
CONTINUOUS
10
0.499626
20
0.135846
11
0.499626
21
0.170846
0
LINE
8
BLACK
6
CONTINUOUS
10
0.499626
20
0.170846
11
0.500225
21
0.17386
0
LINE
8
BLACK
6
CONTINUOUS
10
0.500225
20
0.17386
11
0.501932
21
0.176414
0
LINE
8
BLACK
6
CONTINUOUS
10
0.501932
20
0.176414
11
0.504487
21
0.178121
0
LINE
8
BLACK
6
CONTINUOUS
10
0.504487
20
0.178121
11
0.5075
21
0.17872
0
LINE
8
BLACK
6
CONTINUOUS
10
0.5075
20
0.17872
11
0.5625
21
0.17872
0
LINE
8
BLACK
6
CONTINUOUS
10
0.5625
20
0.17872
11
0.565513
21
0.178121
0
LINE
8
BLACK
6
CONTINUOUS
10
0.375513
20
0.178121
11
0.378068
21
0.176414
0
LINE
8
BLACK
6
CONTINUOUS
10
0.378068
20
0.176414
11
0.379775
21
0.17386
0
LINE
8
BLACK
6
CONTINUOUS
10
0.379775
20
0.17386
11
0.380374
21
0.170846
0
LINE
8
BLACK
6
CONTINUOUS
10
0.380374
20
0.170846
11
0.380374
21
0.135846
0
LINE
8
BLACK
6
CONTINUOUS
10
0.380374
20
0.135846
11
0.379775
21
0.132833
0
LINE
8
BLACK
6
CONTINUOUS
10
0.379775
20
0.132833
11
0.378068
21
0.130279
0
LINE
8
BLACK
6
CONTINUOUS
10
0.378068
20
0.130279
11
0.375513
21
0.128572
0
LINE
8
BLACK
6
CONTINUOUS
10
0.375513
20
0.128572
11
0.3725
21
0.127972
0
LINE
8
BLACK
6
CONTINUOUS
10
0.3725
20
0.127972
11
0.3175
21
0.127972
0
LINE
8
BLACK
6
CONTINUOUS
10
0.3175
20
0.127972
11
0.314487
21
0.128572
0
LINE
8
BLACK
6
CONTINUOUS
10
0.314487
20
0.128572
11
0.311932
21
0.130279
0
LINE
8
BLACK
6
CONTINUOUS
10
0.311932
20
0.130279
11
0.310225
21
0.132833
0
LINE
8
BLACK
6
CONTINUOUS
10
0.310225
20
0.132833
11
0.309626
21
0.135846
0
LINE
8
BLACK
6
CONTINUOUS
10
0.309626
20
0.135846
11
0.309626
21
0.170846
0
LINE
8
BLACK
6
CONTINUOUS
10
0.309626
20
0.170846
11
0.310225
21
0.17386
0
LINE
8
BLACK
6
CONTINUOUS
10
0.310225
20
0.17386
11
0.311932
21
0.176414
0
LINE
8
BLACK
6
CONTINUOUS
10
0.311932
20
0.176414
11
0.314487
21
0.178121
0
LINE
8
BLACK
6
CONTINUOUS
10
0.314487
20
0.178121
11
0.3175
21
0.17872
0
LINE
8
BLACK
6
CONTINUOUS
10
0.3175
20
0.17872
11
0.3725
21
0.17872
0
LINE
8
BLACK
6
CONTINUOUS
10
0.3725
20
0.17872
11
0.375513
21
0.178121
0
LINE
8
BLACK
6
CONTINUOUS
10
0.465513
20
0.178121
11
0.468068
21
0.176414
0
LINE
8
BLACK
6
CONTINUOUS
10
0.468068
20
0.176414
11
0.469775
21
0.17386
0
LINE
8
BLACK
6
CONTINUOUS
10
0.469775
20
0.17386
11
0.470374
21
0.170846
0
LINE
8
BLACK
6
CONTINUOUS
10
0.470374
20
0.170846
11
0.470374
21
0.135846
0
LINE
8
BLACK
6
CONTINUOUS
10
0.470374
20
0.135846
11
0.469775
21
0.132833
0
LINE
8
BLACK
6
CONTINUOUS
10
0.469775
20
0.132833
11
0.468068
21
0.130279
0
LINE
8
BLACK
6
CONTINUOUS
10
0.468068
20
0.130279
11
0.465513
21
0.128572
0
LINE
8
BLACK
6
CONTINUOUS
10
0.465513
20
0.128572
11
0.4625
21
0.127972
0
LINE
8
BLACK
6
CONTINUOUS
10
0.4625
20
0.127972
11
0.4075
21
0.127972
0
LINE
8
BLACK
6
CONTINUOUS
10
0.4075
20
0.127972
11
0.404487
21
0.128572
0
LINE
8
BLACK
6
CONTINUOUS
10
0.404487
20
0.128572
11
0.401932
21
0.130279
0
LINE
8
BLACK
6
CONTINUOUS
10
0.401932
20
0.130279
11
0.400225
21
0.132833
0
LINE
8
BLACK
6
CONTINUOUS
10
0.400225
20
0.132833
11
0.399626
21
0.135846
0
LINE
8
BLACK
6
CONTINUOUS
10
0.399626
20
0.135846
11
0.399626
21
0.170846
0
LINE
8
BLACK
6
CONTINUOUS
10
0.399626
20
0.170846
11
0.400225
21
0.17386
0
LINE
8
BLACK
6
CONTINUOUS
10
0.400225
20
0.17386
11
0.401932
21
0.176414
0
LINE
8
BLACK
6
CONTINUOUS
10
0.401932
20
0.176414
11
0.404487
21
0.178121
0
LINE
8
BLACK
6
CONTINUOUS
10
0.404487
20
0.178121
11
0.4075
21
0.17872
0
LINE
8
BLACK
6
CONTINUOUS
10
0.4075
20
0.17872
11
0.4625
21
0.17872
0
LINE
8
BLACK
6
CONTINUOUS
10
0.4625
20
0.17872
11
0.465513
21
0.178121
0
LINE
8
BLACK
6
CONTINUOUS
10
1.52597
20
0.200214
11
1.53036
21
0.197977
0
LINE
8
BLACK
6
CONTINUOUS
10
1.53036
20
0.197977
11
1.53384
21
0.194493
0
LINE
8
BLACK
6
CONTINUOUS
10
1.53384
20
0.194493
11
1.53608
21
0.190103
0
LINE
8
BLACK
6
CONTINUOUS
10
1.53608
20
0.190103
11
1.53685
21
0.185236
0
LINE
8
BLACK
6
CONTINUOUS
10
1.53685
20
0.185236
11
1.53685
21
0.169488
0
LINE
8
BLACK
6
CONTINUOUS
10
1.53685
20
0.169488
11
1.53608
21
0.164622
0
LINE
8
BLACK
6
CONTINUOUS
10
1.53608
20
0.164622
11
1.53384
21
0.160232
0
LINE
8
BLACK
6
CONTINUOUS
10
1.53384
20
0.160232
11
1.53036
21
0.156748
0
LINE
8
BLACK
6
CONTINUOUS
10
1.53036
20
0.156748
11
1.52597
21
0.154511
0
LINE
8
BLACK
6
CONTINUOUS
10
1.52597
20
0.154511
11
1.5211
21
0.15374
0
LINE
8
BLACK
6
CONTINUOUS
10
1.5211
20
0.15374
11
1.44236
21
0.15374
0
LINE
8
BLACK
6
CONTINUOUS
10
1.44236
20
0.15374
11
1.4375
21
0.154511
0
LINE
8
BLACK
6
CONTINUOUS
10
1.4375
20
0.154511
11
1.43311
21
0.156748
0
LINE
8
BLACK
6
CONTINUOUS
10
1.43311
20
0.156748
11
1.42962
21
0.160232
0
LINE
8
BLACK
6
CONTINUOUS
10
1.42962
20
0.160232
11
1.42738
21
0.164622
0
LINE
8
BLACK
6
CONTINUOUS
10
1.42738
20
0.164622
11
1.42661
21
0.169488
0
LINE
8
BLACK
6
CONTINUOUS
10
1.42661
20
0.169488
11
1.42661
21
0.185236
0
LINE
8
BLACK
6
CONTINUOUS
10
1.42661
20
0.185236
11
1.42738
21
0.190103
0
LINE
8
BLACK
6
CONTINUOUS
10
1.42738
20
0.190103
11
1.42962
21
0.194493
0
LINE
8
BLACK
6
CONTINUOUS
10
1.42962
20
0.194493
11
1.43311
21
0.197977
0
LINE
8
BLACK
6
CONTINUOUS
10
1.43311
20
0.197977
11
1.4375
21
0.200214
0
LINE
8
BLACK
6
CONTINUOUS
10
1.4375
20
0.200214
11
1.44236
21
0.200984
0
LINE
8
BLACK
6
CONTINUOUS
10
1.44236
20
0.200984
11
1.5211
21
0.200984
0
LINE
8
BLACK
6
CONTINUOUS
10
1.5211
20
0.200984
11
1.52597
21
0.200214
0
LINE
8
BLACK
6
CONTINUOUS
10
0.78821
20
0.329243
11
0.790765
21
0.327536
0
LINE
8
BLACK
6
CONTINUOUS
10
0.790765
20
0.327536
11
0.792471
21
0.324982
0
LINE
8
BLACK
6
CONTINUOUS
10
0.792471
20
0.324982
11
0.793071
21
0.321969
0
LINE
8
BLACK
6
CONTINUOUS
10
0.793071
20
0.321969
11
0.793071
21
0.164488
0
LINE
8
BLACK
6
CONTINUOUS
10
0.793071
20
0.164488
11
0.792471
21
0.161475
0
LINE
8
BLACK
6
CONTINUOUS
10
0.792471
20
0.161475
11
0.790765
21
0.15892
0
LINE
8
BLACK
6
CONTINUOUS
10
0.790765
20
0.15892
11
0.78821
21
0.157214
0
LINE
8
BLACK
6
CONTINUOUS
10
0.78821
20
0.157214
11
0.785197
21
0.156614
0
LINE
8
BLACK
6
CONTINUOUS
10
0.785197
20
0.156614
11
0.633622
21
0.156614
0
LINE
8
BLACK
6
CONTINUOUS
10
0.633622
20
0.156614
11
0.630609
21
0.157214
0
LINE
8
BLACK
6
CONTINUOUS
10
0.630609
20
0.157214
11
0.628054
21
0.15892
0
LINE
8
BLACK
6
CONTINUOUS
10
0.628054
20
0.15892
11
0.626347
21
0.161475
0
LINE
8
BLACK
6
CONTINUOUS
10
0.626347
20
0.161475
11
0.625748
21
0.164488
0
LINE
8
BLACK
6
CONTINUOUS
10
0.625748
20
0.164488
11
0.625748
21
0.321969
0
LINE
8
BLACK
6
CONTINUOUS
10
0.625748
20
0.321969
11
0.626347
21
0.324982
0
LINE
8
BLACK
6
CONTINUOUS
10
0.626347
20
0.324982
11
0.628054
21
0.327536
0
LINE
8
BLACK
6
CONTINUOUS
10
0.628054
20
0.327536
11
0.630609
21
0.329243
0
LINE
8
BLACK
6
CONTINUOUS
10
0.630609
20
0.329243
11
0.633622
21
0.329843
0
LINE
8
BLACK
6
CONTINUOUS
10
0.633622
20
0.329843
11
0.785197
21
0.329843
0
LINE
8
BLACK
6
CONTINUOUS
10
0.785197
20
0.329843
11
0.78821
21
0.329243
0
LINE
8
BLACK
6
CONTINUOUS
10
1.08939
20
0.329243
11
1.09195
21
0.327536
0
LINE
8
BLACK
6
CONTINUOUS
10
1.09195
20
0.327536
11
1.09365
21
0.324982
0
LINE
8
BLACK
6
CONTINUOUS
10
1.09365
20
0.324982
11
1.09425
21
0.321969
0
LINE
8
BLACK
6
CONTINUOUS
10
1.09425
20
0.321969
11
1.09425
21
0.164488
0
LINE
8
BLACK
6
CONTINUOUS
10
1.09425
20
0.164488
11
1.09365
21
0.161475
0
LINE
8
BLACK
6
CONTINUOUS
10
1.09365
20
0.161475
11
1.09195
21
0.15892
0
LINE
8
BLACK
6
CONTINUOUS
10
1.09195
20
0.15892
11
1.08939
21
0.157214
0
LINE
8
BLACK
6
CONTINUOUS
10
1.08939
20
0.157214
11
1.08638
21
0.156614
0
LINE
8
BLACK
6
CONTINUOUS
10
1.08638
20
0.156614
11
0.934803
21
0.156614
0
LINE
8
BLACK
6
CONTINUOUS
10
0.934803
20
0.156614
11
0.93179
21
0.157214
0
LINE
8
BLACK
6
CONTINUOUS
10
0.93179
20
0.157214
11
0.929235
21
0.15892
0
LINE
8
BLACK
6
CONTINUOUS
10
0.929235
20
0.15892
11
0.927529
21
0.161475
0
LINE
8
BLACK
6
CONTINUOUS
10
0.927529
20
0.161475
11
0.926929
21
0.164488
0
LINE
8
BLACK
6
CONTINUOUS
10
0.926929
20
0.164488
11
0.926929
21
0.321969
0
LINE
8
BLACK
6
CONTINUOUS
10
0.926929
20
0.321969
11
0.927529
21
0.324982
0
LINE
8
BLACK
6
CONTINUOUS
10
0.927529
20
0.324982
11
0.929235
21
0.327536
0
LINE
8
BLACK
6
CONTINUOUS
10
0.929235
20
0.327536
11
0.93179
21
0.329243
0
LINE
8
BLACK
6
CONTINUOUS
10
0.93179
20
0.329243
11
0.934803
21
0.329843
0
LINE
8
BLACK
6
CONTINUOUS
10
0.934803
20
0.329843
11
1.08638
21
0.329843
0
LINE
8
BLACK
6
CONTINUOUS
10
1.08638
20
0.329843
11
1.08939
21
0.329243
0
LINE
8
BLACK
6
CONTINUOUS
10
1.29293
20
0.223367
11
1.2979
21
0.221622
0
LINE
8
BLACK
6
CONTINUOUS
10
1.2979
20
0.221622
11
1.30213
21
0.218492
0
LINE
8
BLACK
6
CONTINUOUS
10
1.30213
20
0.218492
11
1.30526
21
0.214255
0
LINE
8
BLACK
6
CONTINUOUS
10
1.30526
20
0.214255
11
1.30701
21
0.209284
0
LINE
8
BLACK
6
CONTINUOUS
10
1.30701
20
0.209284
11
1.30732
21
0.205965
0
LINE
8
BLACK
6
CONTINUOUS
10
1.30732
20
0.205965
11
1.30732
21
0.176437
0
LINE
8
BLACK
6
CONTINUOUS
10
1.30732
20
0.176437
11
1.30701
21
0.173117
0
LINE
8
BLACK
6
CONTINUOUS
10
1.30701
20
0.173117
11
1.30526
21
0.168147
0
LINE
8
BLACK
6
CONTINUOUS
10
1.30526
20
0.168147
11
1.30213
21
0.16391
0
LINE
8
BLACK
6
CONTINUOUS
10
1.30213
20
0.16391
11
1.2979
21
0.16078
0
LINE
8
BLACK
6
CONTINUOUS
10
1.2979
20
0.16078
11
1.29293
21
0.159034
0
LINE
8
BLACK
6
CONTINUOUS
10
1.29293
20
0.159034
11
1.28961
21
0.15872
0
LINE
8
BLACK
6
CONTINUOUS
10
1.28961
20
0.15872
11
1.24039
21
0.15872
0
LINE
8
BLACK
6
CONTINUOUS
10
1.24039
20
0.15872
11
1.23707
21
0.159034
0
LINE
8
BLACK
6
CONTINUOUS
10
1.23707
20
0.159034
11
1.2321
21
0.16078
0
LINE
8
BLACK
6
CONTINUOUS
10
1.2321
20
0.16078
11
1.22787
21
0.16391
0
LINE
8
BLACK
6
CONTINUOUS
10
1.22787
20
0.16391
11
1.22474
21
0.168147
0
LINE
8
BLACK
6
CONTINUOUS
10
1.22474
20
0.168147
11
1.22299
21
0.173117
0
LINE
8
BLACK
6
CONTINUOUS
10
1.22299
20
0.173117
11
1.22268
21
0.176437
0
LINE
8
BLACK
6
CONTINUOUS
10
1.22268
20
0.176437
11
1.22268
21
0.205965
0
LINE
8
BLACK
6
CONTINUOUS
10
1.22268
20
0.205965
11
1.22299
21
0.209284
0
LINE
8
BLACK
6
CONTINUOUS
10
1.22299
20
0.209284
11
1.22474
21
0.214255
0
LINE
8
BLACK
6
CONTINUOUS
10
1.22474
20
0.214255
11
1.22787
21
0.218492
0
LINE
8
BLACK
6
CONTINUOUS
10
1.22787
20
0.218492
11
1.2321
21
0.221622
0
LINE
8
BLACK
6
CONTINUOUS
10
1.2321
20
0.221622
11
1.23707
21
0.223367
0
LINE
8
BLACK
6
CONTINUOUS
10
1.23707
20
0.223367
11
1.24039
21
0.223681
0
LINE
8
BLACK
6
CONTINUOUS
10
1.24039
20
0.223681
11
1.28961
21
0.223681
0
LINE
8
BLACK
6
CONTINUOUS
10
1.28961
20
0.223681
11
1.29293
21
0.223367
0
LINE
8
BLACK
6
CONTINUOUS
10
1.19051
20
0.230975
11
1.19307
21
0.229269
0
LINE
8
BLACK
6
CONTINUOUS
10
1.19307
20
0.229269
11
1.19477
21
0.226714
0
LINE
8
BLACK
6
CONTINUOUS
10
1.19477
20
0.226714
11
1.19537
21
0.223701
0
LINE
8
BLACK
6
CONTINUOUS
10
1.19537
20
0.223701
11
1.19537
21
0.188701
0
LINE
8
BLACK
6
CONTINUOUS
10
1.19537
20
0.188701
11
1.19477
21
0.185688
0
LINE
8
BLACK
6
CONTINUOUS
10
1.19477
20
0.185688
11
1.19307
21
0.183133
0
LINE
8
BLACK
6
CONTINUOUS
10
1.19307
20
0.183133
11
1.19051
21
0.181426
0
LINE
8
BLACK
6
CONTINUOUS
10
1.19051
20
0.181426
11
1.1875
21
0.180827
0
LINE
8
BLACK
6
CONTINUOUS
10
1.1875
20
0.180827
11
1.1325
21
0.180827
0
LINE
8
BLACK
6
CONTINUOUS
10
1.1325
20
0.180827
11
1.12949
21
0.181426
0
LINE
8
BLACK
6
CONTINUOUS
10
1.12949
20
0.181426
11
1.12693
21
0.183133
0
LINE
8
BLACK
6
CONTINUOUS
10
1.12693
20
0.183133
11
1.12523
21
0.185688
0
LINE
8
BLACK
6
CONTINUOUS
10
1.12523
20
0.185688
11
1.12463
21
0.188701
0
LINE
8
BLACK
6
CONTINUOUS
10
1.12463
20
0.188701
11
1.12463
21
0.223701
0
LINE
8
BLACK
6
CONTINUOUS
10
1.12463
20
0.223701
11
1.12523
21
0.226714
0
LINE
8
BLACK
6
CONTINUOUS
10
1.12523
20
0.226714
11
1.12693
21
0.229269
0
LINE
8
BLACK
6
CONTINUOUS
10
1.12693
20
0.229269
11
1.12949
21
0.230975
0
LINE
8
BLACK
6
CONTINUOUS
10
1.12949
20
0.230975
11
1.1325
21
0.231575
0
LINE
8
BLACK
6
CONTINUOUS
10
1.1325
20
0.231575
11
1.1875
21
0.231575
0
LINE
8
BLACK
6
CONTINUOUS
10
1.1875
20
0.231575
11
1.19051
21
0.230975
0
LINE
8
BLACK
6
CONTINUOUS
10
0.122513
20
0.239775
11
0.125068
21
0.238068
0
LINE
8
BLACK
6
CONTINUOUS
10
0.125068
20
0.238068
11
0.126775
21
0.235513
0
LINE
8
BLACK
6
CONTINUOUS
10
0.126775
20
0.235513
11
0.127374
21
0.2325
0
LINE
8
BLACK
6
CONTINUOUS
10
0.127374
20
0.2325
11
0.127374
21
0.1975
0
LINE
8
BLACK
6
CONTINUOUS
10
0.127374
20
0.1975
11
0.126775
21
0.194487
0
LINE
8
BLACK
6
CONTINUOUS
10
0.126775
20
0.194487
11
0.125068
21
0.191932
0
LINE
8
BLACK
6
CONTINUOUS
10
0.125068
20
0.191932
11
0.122513
21
0.190225
0
LINE
8
BLACK
6
CONTINUOUS
10
0.122513
20
0.190225
11
0.1195
21
0.189626
0
LINE
8
BLACK
6
CONTINUOUS
10
0.1195
20
0.189626
11
0.0645
21
0.189626
0
LINE
8
BLACK
6
CONTINUOUS
10
0.0645
20
0.189626
11
0.0614867
21
0.190225
0
LINE
8
BLACK
6
CONTINUOUS
10
0.0614867
20
0.190225
11
0.0589322
21
0.191932
0
LINE
8
BLACK
6
CONTINUOUS
10
0.0589322
20
0.191932
11
0.0572254
21
0.194487
0
LINE
8
BLACK
6
CONTINUOUS
10
0.0572254
20
0.194487
11
0.056626
21
0.1975
0
LINE
8
BLACK
6
CONTINUOUS
10
0.056626
20
0.1975
11
0.056626
21
0.2325
0
LINE
8
BLACK
6
CONTINUOUS
10
0.056626
20
0.2325
11
0.0572254
21
0.235513
0
LINE
8
BLACK
6
CONTINUOUS
10
0.0572254
20
0.235513
11
0.0589322
21
0.238068
0
LINE
8
BLACK
6
CONTINUOUS
10
0.0589322
20
0.238068
11
0.0614867
21
0.239775
0
LINE
8
BLACK
6
CONTINUOUS
10
0.0614867
20
0.239775
11
0.0645
21
0.240374
0
LINE
8
BLACK
6
CONTINUOUS
10
0.0645
20
0.240374
11
0.1195
21
0.240374
0
LINE
8
BLACK
6
CONTINUOUS
10
0.1195
20
0.240374
11
0.122513
21
0.239775
0
LINE
8
BLACK
6
CONTINUOUS
10
0.203265
20
0.236668
11
0.20582
21
0.234961
0
LINE
8
BLACK
6
CONTINUOUS
10
0.20582
20
0.234961
11
0.207527
21
0.232407
0
LINE
8
BLACK
6
CONTINUOUS
10
0.207527
20
0.232407
11
0.208126
21
0.229394
0
LINE
8
BLACK
6
CONTINUOUS
10
0.208126
20
0.229394
11
0.208126
21
0.203803
0
LINE
8
BLACK
6
CONTINUOUS
10
0.208126
20
0.203803
11
0.207527
21
0.20079
0
LINE
8
BLACK
6
CONTINUOUS
10
0.207527
20
0.20079
11
0.20582
21
0.198235
0
LINE
8
BLACK
6
CONTINUOUS
10
0.20582
20
0.198235
11
0.203265
21
0.196529
0
LINE
8
BLACK
6
CONTINUOUS
10
0.203265
20
0.196529
11
0.200252
21
0.195929
0
LINE
8
BLACK
6
CONTINUOUS
10
0.200252
20
0.195929
11
0.15852
21
0.195929
0
LINE
8
BLACK
6
CONTINUOUS
10
0.15852
20
0.195929
11
0.155506
21
0.196529
0
LINE
8
BLACK
6
CONTINUOUS
10
0.155506
20
0.196529
11
0.152952
21
0.198235
0
LINE
8
BLACK
6
CONTINUOUS
10
0.152952
20
0.198235
11
0.151245
21
0.20079
0
LINE
8
BLACK
6
CONTINUOUS
10
0.151245
20
0.20079
11
0.150646
21
0.203803
0
LINE
8
BLACK
6
CONTINUOUS
10
0.150646
20
0.203803
11
0.150646
21
0.229394
0
LINE
8
BLACK
6
CONTINUOUS
10
0.150646
20
0.229394
11
0.151245
21
0.232407
0
LINE
8
BLACK
6
CONTINUOUS
10
0.151245
20
0.232407
11
0.152952
21
0.234961
0
LINE
8
BLACK
6
CONTINUOUS
10
0.152952
20
0.234961
11
0.155506
21
0.236668
0
LINE
8
BLACK
6
CONTINUOUS
10
0.155506
20
0.236668
11
0.15852
21
0.237268
0
LINE
8
BLACK
6
CONTINUOUS
10
0.15852
20
0.237268
11
0.200252
21
0.237268
0
LINE
8
BLACK
6
CONTINUOUS
10
0.200252
20
0.237268
11
0.203265
21
0.236668
0
LINE
8
BLACK
6
CONTINUOUS
10
0.289879
20
0.311471
11
0.292434
21
0.309765
0
LINE
8
BLACK
6
CONTINUOUS
10
0.292434
20
0.309765
11
0.294141
21
0.30721
0
LINE
8
BLACK
6
CONTINUOUS
10
0.294141
20
0.30721
11
0.29474
21
0.304197
0
LINE
8
BLACK
6
CONTINUOUS
10
0.29474
20
0.304197
11
0.29474
21
0.278606
0
LINE
8
BLACK
6
CONTINUOUS
10
0.29474
20
0.278606
11
0.294141
21
0.275593
0
LINE
8
BLACK
6
CONTINUOUS
10
0.294141
20
0.275593
11
0.292434
21
0.273039
0
LINE
8
BLACK
6
CONTINUOUS
10
0.292434
20
0.273039
11
0.291928
21
0.272701
0
LINE
8
BLACK
6
CONTINUOUS
10
0.291928
20
0.272701
11
0.292434
21
0.272363
0
LINE
8
BLACK
6
CONTINUOUS
10
0.292434
20
0.272363
11
0.294141
21
0.269809
0
LINE
8
BLACK
6
CONTINUOUS
10
0.294141
20
0.269809
11
0.29474
21
0.266795
0
LINE
8
BLACK
6
CONTINUOUS
10
0.29474
20
0.266795
11
0.29474
21
0.241205
0
LINE
8
BLACK
6
CONTINUOUS
10
0.29474
20
0.241205
11
0.294141
21
0.238191
0
LINE
8
BLACK
6
CONTINUOUS
10
0.294141
20
0.238191
11
0.292434
21
0.235637
0
LINE
8
BLACK
6
CONTINUOUS
10
0.292434
20
0.235637
11
0.291928
21
0.235299
0
LINE
8
BLACK
6
CONTINUOUS
10
0.291928
20
0.235299
11
0.292434
21
0.234961
0
LINE
8
BLACK
6
CONTINUOUS
10
0.292434
20
0.234961
11
0.294141
21
0.232407
0
LINE
8
BLACK
6
CONTINUOUS
10
0.294141
20
0.232407
11
0.29474
21
0.229394
0
LINE
8
BLACK
6
CONTINUOUS
10
0.29474
20
0.229394
11
0.29474
21
0.203803
0
LINE
8
BLACK
6
CONTINUOUS
10
0.29474
20
0.203803
11
0.294141
21
0.20079
0
LINE
8
BLACK
6
CONTINUOUS
10
0.294141
20
0.20079
11
0.292434
21
0.198235
0
LINE
8
BLACK
6
CONTINUOUS
10
0.292434
20
0.198235
11
0.289879
21
0.196529
0
LINE
8
BLACK
6
CONTINUOUS
10
0.289879
20
0.196529
11
0.286866
21
0.195929
0
LINE
8
BLACK
6
CONTINUOUS
10
0.286866
20
0.195929
11
0.245134
21
0.195929
0
LINE
8
BLACK
6
CONTINUOUS
10
0.245134
20
0.195929
11
0.242121
21
0.196529
0
LINE
8
BLACK
6
CONTINUOUS
10
0.242121
20
0.196529
11
0.239566
21
0.198235
0
LINE
8
BLACK
6
CONTINUOUS
10
0.239566
20
0.198235
11
0.237859
21
0.20079
0
LINE
8
BLACK
6
CONTINUOUS
10
0.237859
20
0.20079
11
0.23726
21
0.203803
0
LINE
8
BLACK
6
CONTINUOUS
10
0.23726
20
0.203803
11
0.23726
21
0.229394
0
LINE
8
BLACK
6
CONTINUOUS
10
0.23726
20
0.229394
11
0.237859
21
0.232407
0
LINE
8
BLACK
6
CONTINUOUS
10
0.237859
20
0.232407
11
0.239566
21
0.234961
0
LINE
8
BLACK
6
CONTINUOUS
10
0.239566
20
0.234961
11
0.240072
21
0.235299
0
LINE
8
BLACK
6
CONTINUOUS
10
0.240072
20
0.235299
11
0.239566
21
0.235637
0
LINE
8
BLACK
6
CONTINUOUS
10
0.239566
20
0.235637
11
0.237859
21
0.238191
0
LINE
8
BLACK
6
CONTINUOUS
10
0.237859
20
0.238191
11
0.23726
21
0.241205
0
LINE
8
BLACK
6
CONTINUOUS
10
0.23726
20
0.241205
11
0.23726
21
0.266795
0
LINE
8
BLACK
6
CONTINUOUS
10
0.23726
20
0.266795
11
0.237859
21
0.269809
0
LINE
8
BLACK
6
CONTINUOUS
10
0.237859
20
0.269809
11
0.239566
21
0.272363
0
LINE
8
BLACK
6
CONTINUOUS
10
0.239566
20
0.272363
11
0.240072
21
0.272701
0
LINE
8
BLACK
6
CONTINUOUS
10
0.240072
20
0.272701
11
0.239566
21
0.273039
0
LINE
8
BLACK
6
CONTINUOUS
10
0.239566
20
0.273039
11
0.237859
21
0.275593
0
LINE
8
BLACK
6
CONTINUOUS
10
0.237859
20
0.275593
11
0.23726
21
0.278606
0
LINE
8
BLACK
6
CONTINUOUS
10
0.23726
20
0.278606
11
0.23726
21
0.304197
0
LINE
8
BLACK
6
CONTINUOUS
10
0.23726
20
0.304197
11
0.237859
21
0.30721
0
LINE
8
BLACK
6
CONTINUOUS
10
0.237859
20
0.30721
11
0.239566
21
0.309765
0
LINE
8
BLACK
6
CONTINUOUS
10
0.239566
20
0.309765
11
0.242121
21
0.311471
0
LINE
8
BLACK
6
CONTINUOUS
10
0.242121
20
0.311471
11
0.245134
21
0.312071
0
LINE
8
BLACK
6
CONTINUOUS
10
0.245134
20
0.312071
11
0.286866
21
0.312071
0
LINE
8
BLACK
6
CONTINUOUS
10
0.286866
20
0.312071
11
0.289879
21
0.311471
0
LINE
8
BLACK
6
CONTINUOUS
10
0.459536
20
0.312342
11
0.468485
21
0.309944
0
LINE
8
BLACK
6
CONTINUOUS
10
0.468485
20
0.309944
11
0.476882
21
0.306029
0
LINE
8
BLACK
6
CONTINUOUS
10
0.476882
20
0.306029
11
0.484471
21
0.300715
0
LINE
8
BLACK
6
CONTINUOUS
10
0.484471
20
0.300715
11
0.491022
21
0.294164
0
LINE
8
BLACK
6
CONTINUOUS
10
0.491022
20
0.294164
11
0.496336
21
0.286575
0
LINE
8
BLACK
6
CONTINUOUS
10
0.496336
20
0.286575
11
0.500251
21
0.278178
0
LINE
8
BLACK
6
CONTINUOUS
10
0.500251
20
0.278178
11
0.502649
21
0.269229
0
LINE
8
BLACK
6
CONTINUOUS
10
0.502649
20
0.269229
11
0.503457
21
0.26
0
LINE
8
BLACK
6
CONTINUOUS
10
0.503457
20
0.26
11
0.502649
21
0.250771
0
LINE
8
BLACK
6
CONTINUOUS
10
0.502649
20
0.250771
11
0.500251
21
0.241822
0
LINE
8
BLACK
6
CONTINUOUS
10
0.500251
20
0.241822
11
0.496336
21
0.233425
0
LINE
8
BLACK
6
CONTINUOUS
10
0.496336
20
0.233425
11
0.491022
21
0.225836
0
LINE
8
BLACK
6
CONTINUOUS
10
0.491022
20
0.225836
11
0.484471
21
0.219285
0
LINE
8
BLACK
6
CONTINUOUS
10
0.484471
20
0.219285
11
0.476882
21
0.213971
0
LINE
8
BLACK
6
CONTINUOUS
10
0.476882
20
0.213971
11
0.468485
21
0.210056
0
LINE
8
BLACK
6
CONTINUOUS
10
0.468485
20
0.210056
11
0.459536
21
0.207658
0
LINE
8
BLACK
6
CONTINUOUS
10
0.459536
20
0.207658
11
0.450307
21
0.20685
0
LINE
8
BLACK
6
CONTINUOUS
10
0.450307
20
0.20685
11
0.441078
21
0.207658
0
LINE
8
BLACK
6
CONTINUOUS
10
0.441078
20
0.207658
11
0.432129
21
0.210056
0
LINE
8
BLACK
6
CONTINUOUS
10
0.432129
20
0.210056
11
0.423732
21
0.213971
0
LINE
8
BLACK
6
CONTINUOUS
10
0.423732
20
0.213971
11
0.416143
21
0.219285
0
LINE
8
BLACK
6
CONTINUOUS
10
0.416143
20
0.219285
11
0.409592
21
0.225836
0
LINE
8
BLACK
6
CONTINUOUS
10
0.409592
20
0.225836
11
0.404278
21
0.233425
0
LINE
8
BLACK
6
CONTINUOUS
10
0.404278
20
0.233425
11
0.400363
21
0.241822
0
LINE
8
BLACK
6
CONTINUOUS
10
0.400363
20
0.241822
11
0.397965
21
0.250771
0
LINE
8
BLACK
6
CONTINUOUS
10
0.397965
20
0.250771
11
0.397157
21
0.26
0
LINE
8
BLACK
6
CONTINUOUS
10
0.397157
20
0.26
11
0.397965
21
0.269229
0
LINE
8
BLACK
6
CONTINUOUS
10
0.397965
20
0.269229
11
0.400363
21
0.278178
0
LINE
8
BLACK
6
CONTINUOUS
10
0.400363
20
0.278178
11
0.404278
21
0.286575
0
LINE
8
BLACK
6
CONTINUOUS
10
0.404278
20
0.286575
11
0.409592
21
0.294164
0
LINE
8
BLACK
6
CONTINUOUS
10
0.409592
20
0.294164
11
0.416143
21
0.300715
0
LINE
8
BLACK
6
CONTINUOUS
10
0.416143
20
0.300715
11
0.423732
21
0.306029
0
LINE
8
BLACK
6
CONTINUOUS
10
0.423732
20
0.306029
11
0.432129
21
0.309944
0
LINE
8
BLACK
6
CONTINUOUS
10
0.432129
20
0.309944
11
0.441078
21
0.312342
0
LINE
8
BLACK
6
CONTINUOUS
10
0.441078
20
0.312342
11
0.450307
21
0.31315
0
LINE
8
BLACK
6
CONTINUOUS
10
0.450307
20
0.31315
11
0.459536
21
0.312342
0
LINE
8
BLACK
6
CONTINUOUS
10
1.52597
20
0.259269
11
1.53036
21
0.257032
0
LINE
8
BLACK
6
CONTINUOUS
10
1.53036
20
0.257032
11
1.53384
21
0.253548
0
LINE
8
BLACK
6
CONTINUOUS
10
1.53384
20
0.253548
11
1.53608
21
0.249158
0
LINE
8
BLACK
6
CONTINUOUS
10
1.53608
20
0.249158
11
1.53685
21
0.244291
0
LINE
8
BLACK
6
CONTINUOUS
10
1.53685
20
0.244291
11
1.53685
21
0.228543
0
LINE
8
BLACK
6
CONTINUOUS
10
1.53685
20
0.228543
11
1.53608
21
0.223677
0
LINE
8
BLACK
6
CONTINUOUS
10
1.53608
20
0.223677
11
1.53384
21
0.219287
0
LINE
8
BLACK
6
CONTINUOUS
10
1.53384
20
0.219287
11
1.53036
21
0.215803
0
LINE
8
BLACK
6
CONTINUOUS
10
1.53036
20
0.215803
11
1.52597
21
0.213566
0
LINE
8
BLACK
6
CONTINUOUS
10
1.52597
20
0.213566
11
1.5211
21
0.212795
0
LINE
8
BLACK
6
CONTINUOUS
10
1.5211
20
0.212795
11
1.44236
21
0.212795
0
LINE
8
BLACK
6
CONTINUOUS
10
1.44236
20
0.212795
11
1.4375
21
0.213566
0
LINE
8
BLACK
6
CONTINUOUS
10
1.4375
20
0.213566
11
1.43311
21
0.215803
0
LINE
8
BLACK
6
CONTINUOUS
10
1.43311
20
0.215803
11
1.42962
21
0.219287
0
LINE
8
BLACK
6
CONTINUOUS
10
1.42962
20
0.219287
11
1.42738
21
0.223677
0
LINE
8
BLACK
6
CONTINUOUS
10
1.42738
20
0.223677
11
1.42661
21
0.228543
0
LINE
8
BLACK
6
CONTINUOUS
10
1.42661
20
0.228543
11
1.42661
21
0.244291
0
LINE
8
BLACK
6
CONTINUOUS
10
1.42661
20
0.244291
11
1.42738
21
0.249158
0
LINE
8
BLACK
6
CONTINUOUS
10
1.42738
20
0.249158
11
1.42962
21
0.253548
0
LINE
8
BLACK
6
CONTINUOUS
10
1.42962
20
0.253548
11
1.43311
21
0.257032
0
LINE
8
BLACK
6
CONTINUOUS
10
1.43311
20
0.257032
11
1.4375
21
0.259269
0
LINE
8
BLACK
6
CONTINUOUS
10
1.4375
20
0.259269
11
1.44236
21
0.260039
0
LINE
8
BLACK
6
CONTINUOUS
10
1.44236
20
0.260039
11
1.5211
21
0.260039
0
LINE
8
BLACK
6
CONTINUOUS
10
1.5211
20
0.260039
11
1.52597
21
0.259269
0
LINE
8
BLACK
6
CONTINUOUS
10
0.390328
20
0.296802
11
0.392883
21
0.295095
0
LINE
8
BLACK
6
CONTINUOUS
10
0.392883
20
0.295095
11
0.39459
21
0.292541
0
LINE
8
BLACK
6
CONTINUOUS
10
0.39459
20
0.292541
11
0.395189
21
0.289528
0
LINE
8
BLACK
6
CONTINUOUS
10
0.395189
20
0.289528
11
0.395189
21
0.230472
0
LINE
8
BLACK
6
CONTINUOUS
10
0.395189
20
0.230472
11
0.39459
21
0.227459
0
LINE
8
BLACK
6
CONTINUOUS
10
0.39459
20
0.227459
11
0.392883
21
0.224905
0
LINE
8
BLACK
6
CONTINUOUS
10
0.392883
20
0.224905
11
0.390328
21
0.223198
0
LINE
8
BLACK
6
CONTINUOUS
10
0.390328
20
0.223198
11
0.387315
21
0.222598
0
LINE
8
BLACK
6
CONTINUOUS
10
0.387315
20
0.222598
11
0.349913
21
0.222598
0
LINE
8
BLACK
6
CONTINUOUS
10
0.349913
20
0.222598
11
0.3469
21
0.223198
0
LINE
8
BLACK
6
CONTINUOUS
10
0.3469
20
0.223198
11
0.344346
21
0.224905
0
LINE
8
BLACK
6
CONTINUOUS
10
0.344346
20
0.224905
11
0.342639
21
0.227459
0
LINE
8
BLACK
6
CONTINUOUS
10
0.342639
20
0.227459
11
0.342039
21
0.230472
0
LINE
8
BLACK
6
CONTINUOUS
10
0.342039
20
0.230472
11
0.342039
21
0.289528
0
LINE
8
BLACK
6
CONTINUOUS
10
0.342039
20
0.289528
11
0.342639
21
0.292541
0
LINE
8
BLACK
6
CONTINUOUS
10
0.342639
20
0.292541
11
0.344346
21
0.295095
0
LINE
8
BLACK
6
CONTINUOUS
10
0.344346
20
0.295095
11
0.3469
21
0.296802
0
LINE
8
BLACK
6
CONTINUOUS
10
0.3469
20
0.296802
11
0.349913
21
0.297402
0
LINE
8
BLACK
6
CONTINUOUS
10
0.349913
20
0.297402
11
0.387315
21
0.297402
0
LINE
8
BLACK
6
CONTINUOUS
10
0.387315
20
0.297402
11
0.390328
21
0.296802
0
LINE
8
BLACK
6
CONTINUOUS
10
0.553714
20
0.296802
11
0.556269
21
0.295095
0
LINE
8
BLACK
6
CONTINUOUS
10
0.556269
20
0.295095
11
0.557975
21
0.292541
0
LINE
8
BLACK
6
CONTINUOUS
10
0.557975
20
0.292541
11
0.558575
21
0.289528
0
LINE
8
BLACK
6
CONTINUOUS
10
0.558575
20
0.289528
11
0.558575
21
0.230472
0
LINE
8
BLACK
6
CONTINUOUS
10
0.558575
20
0.230472
11
0.557975
21
0.227459
0
LINE
8
BLACK
6
CONTINUOUS
10
0.557975
20
0.227459
11
0.556269
21
0.224905
0
LINE
8
BLACK
6
CONTINUOUS
10
0.556269
20
0.224905
11
0.553714
21
0.223198
0
LINE
8
BLACK
6
CONTINUOUS
10
0.553714
20
0.223198
11
0.550701
21
0.222598
0
LINE
8
BLACK
6
CONTINUOUS
10
0.550701
20
0.222598
11
0.513299
21
0.222598
0
LINE
8
BLACK
6
CONTINUOUS
10
0.513299
20
0.222598
11
0.510286
21
0.223198
0
LINE
8
BLACK
6
CONTINUOUS
10
0.510286
20
0.223198
11
0.507731
21
0.224905
0
LINE
8
BLACK
6
CONTINUOUS
10
0.507731
20
0.224905
11
0.506025
21
0.227459
0
LINE
8
BLACK
6
CONTINUOUS
10
0.506025
20
0.227459
11
0.505425
21
0.230472
0
LINE
8
BLACK
6
CONTINUOUS
10
0.505425
20
0.230472
11
0.505425
21
0.289528
0
LINE
8
BLACK
6
CONTINUOUS
10
0.505425
20
0.289528
11
0.506025
21
0.292541
0
LINE
8
BLACK
6
CONTINUOUS
10
0.506025
20
0.292541
11
0.507731
21
0.295095
0
LINE
8
BLACK
6
CONTINUOUS
10
0.507731
20
0.295095
11
0.510286
21
0.296802
0
LINE
8
BLACK
6
CONTINUOUS
10
0.510286
20
0.296802
11
0.513299
21
0.297402
0
LINE
8
BLACK
6
CONTINUOUS
10
0.513299
20
0.297402
11
0.550701
21
0.297402
0
LINE
8
BLACK
6
CONTINUOUS
10
0.550701
20
0.297402
11
0.553714
21
0.296802
0
LINE
8
BLACK
6
CONTINUOUS
10
1.29293
20
0.315395
11
1.2979
21
0.313649
0
LINE
8
BLACK
6
CONTINUOUS
10
1.2979
20
0.313649
11
1.30213
21
0.31052
0
LINE
8
BLACK
6
CONTINUOUS
10
1.30213
20
0.31052
11
1.30526
21
0.306282
0
LINE
8
BLACK
6
CONTINUOUS
10
1.30526
20
0.306282
11
1.30701
21
0.301312
0
LINE
8
BLACK
6
CONTINUOUS
10
1.30701
20
0.301312
11
1.30732
21
0.297992
0
LINE
8
BLACK
6
CONTINUOUS
10
1.30732
20
0.297992
11
1.30732
21
0.268465
0
LINE
8
BLACK
6
CONTINUOUS
10
1.30732
20
0.268465
11
1.30701
21
0.265145
0
LINE
8
BLACK
6
CONTINUOUS
10
1.30701
20
0.265145
11
1.30526
21
0.260174
0
LINE
8
BLACK
6
CONTINUOUS
10
1.30526
20
0.260174
11
1.30213
21
0.255937
0
LINE
8
BLACK
6
CONTINUOUS
10
1.30213
20
0.255937
11
1.2979
21
0.252807
0
LINE
8
BLACK
6
CONTINUOUS
10
1.2979
20
0.252807
11
1.29293
21
0.251062
0
LINE
8
BLACK
6
CONTINUOUS
10
1.29293
20
0.251062
11
1.28961
21
0.250748
0
LINE
8
BLACK
6
CONTINUOUS
10
1.28961
20
0.250748
11
1.24039
21
0.250748
0
LINE
8
BLACK
6
CONTINUOUS
10
1.24039
20
0.250748
11
1.23707
21
0.251062
0
LINE
8
BLACK
6
CONTINUOUS
10
1.23707
20
0.251062
11
1.2321
21
0.252807
0
LINE
8
BLACK
6
CONTINUOUS
10
1.2321
20
0.252807
11
1.22787
21
0.255937
0
LINE
8
BLACK
6
CONTINUOUS
10
1.22787
20
0.255937
11
1.22474
21
0.260174
0
LINE
8
BLACK
6
CONTINUOUS
10
1.22474
20
0.260174
11
1.22299
21
0.265145
0
LINE
8
BLACK
6
CONTINUOUS
10
1.22299
20
0.265145
11
1.22268
21
0.268465
0
LINE
8
BLACK
6
CONTINUOUS
10
1.22268
20
0.268465
11
1.22268
21
0.297992
0
LINE
8
BLACK
6
CONTINUOUS
10
1.22268
20
0.297992
11
1.22299
21
0.301312
0
LINE
8
BLACK
6
CONTINUOUS
10
1.22299
20
0.301312
11
1.22474
21
0.306282
0
LINE
8
BLACK
6
CONTINUOUS
10
1.22474
20
0.306282
11
1.22787
21
0.31052
0
LINE
8
BLACK
6
CONTINUOUS
10
1.22787
20
0.31052
11
1.2321
21
0.313649
0
LINE
8
BLACK
6
CONTINUOUS
10
1.2321
20
0.313649
11
1.23707
21
0.315395
0
LINE
8
BLACK
6
CONTINUOUS
10
1.23707
20
0.315395
11
1.24039
21
0.315709
0
LINE
8
BLACK
6
CONTINUOUS
10
1.24039
20
0.315709
11
1.28961
21
0.315709
0
LINE
8
BLACK
6
CONTINUOUS
10
1.28961
20
0.315709
11
1.29293
21
0.315395
0
LINE
8
BLACK
6
CONTINUOUS
10
1.19051
20
0.305975
11
1.19307
21
0.304269
0
LINE
8
BLACK
6
CONTINUOUS
10
1.19307
20
0.304269
11
1.19477
21
0.301714
0
LINE
8
BLACK
6
CONTINUOUS
10
1.19477
20
0.301714
11
1.19537
21
0.298701
0
LINE
8
BLACK
6
CONTINUOUS
10
1.19537
20
0.298701
11
1.19537
21
0.263701
0
LINE
8
BLACK
6
CONTINUOUS
10
1.19537
20
0.263701
11
1.19477
21
0.260688
0
LINE
8
BLACK
6
CONTINUOUS
10
1.19477
20
0.260688
11
1.19307
21
0.258133
0
LINE
8
BLACK
6
CONTINUOUS
10
1.19307
20
0.258133
11
1.19051
21
0.256426
0
LINE
8
BLACK
6
CONTINUOUS
10
1.19051
20
0.256426
11
1.1875
21
0.255827
0
LINE
8
BLACK
6
CONTINUOUS
10
1.1875
20
0.255827
11
1.1325
21
0.255827
0
LINE
8
BLACK
6
CONTINUOUS
10
1.1325
20
0.255827
11
1.12949
21
0.256426
0
LINE
8
BLACK
6
CONTINUOUS
10
1.12949
20
0.256426
11
1.12693
21
0.258133
0
LINE
8
BLACK
6
CONTINUOUS
10
1.12693
20
0.258133
11
1.12523
21
0.260688
0
LINE
8
BLACK
6
CONTINUOUS
10
1.12523
20
0.260688
11
1.12463
21
0.263701
0
LINE
8
BLACK
6
CONTINUOUS
10
1.12463
20
0.263701
11
1.12463
21
0.298701
0
LINE
8
BLACK
6
CONTINUOUS
10
1.12463
20
0.298701
11
1.12523
21
0.301714
0
LINE
8
BLACK
6
CONTINUOUS
10
1.12523
20
0.301714
11
1.12693
21
0.304269
0
LINE
8
BLACK
6
CONTINUOUS
10
1.12693
20
0.304269
11
1.12949
21
0.305975
0
LINE
8
BLACK
6
CONTINUOUS
10
1.12949
20
0.305975
11
1.1325
21
0.306575
0
LINE
8
BLACK
6
CONTINUOUS
10
1.1325
20
0.306575
11
1.1875
21
0.306575
0
LINE
8
BLACK
6
CONTINUOUS
10
1.1875
20
0.306575
11
1.19051
21
0.305975
0
LINE
8
BLACK
6
CONTINUOUS
10
0.122513
20
0.314775
11
0.125068
21
0.313068
0
LINE
8
BLACK
6
CONTINUOUS
10
0.125068
20
0.313068
11
0.126775
21
0.310513
0
LINE
8
BLACK
6
CONTINUOUS
10
0.126775
20
0.310513
11
0.127374
21
0.3075
0
LINE
8
BLACK
6
CONTINUOUS
10
0.127374
20
0.3075
11
0.127374
21
0.2725
0
LINE
8
BLACK
6
CONTINUOUS
10
0.127374
20
0.2725
11
0.126775
21
0.269487
0
LINE
8
BLACK
6
CONTINUOUS
10
0.126775
20
0.269487
11
0.125068
21
0.266932
0
LINE
8
BLACK
6
CONTINUOUS
10
0.125068
20
0.266932
11
0.122513
21
0.265225
0
LINE
8
BLACK
6
CONTINUOUS
10
0.122513
20
0.265225
11
0.1195
21
0.264626
0
LINE
8
BLACK
6
CONTINUOUS
10
0.1195
20
0.264626
11
0.0645
21
0.264626
0
LINE
8
BLACK
6
CONTINUOUS
10
0.0645
20
0.264626
11
0.0614867
21
0.265225
0
LINE
8
BLACK
6
CONTINUOUS
10
0.0614867
20
0.265225
11
0.0589322
21
0.266932
0
LINE
8
BLACK
6
CONTINUOUS
10
0.0589322
20
0.266932
11
0.0572254
21
0.269487
0
LINE
8
BLACK
6
CONTINUOUS
10
0.0572254
20
0.269487
11
0.056626
21
0.2725
0
LINE
8
BLACK
6
CONTINUOUS
10
0.056626
20
0.2725
11
0.056626
21
0.3075
0
LINE
8
BLACK
6
CONTINUOUS
10
0.056626
20
0.3075
11
0.0572254
21
0.310513
0
LINE
8
BLACK
6
CONTINUOUS
10
0.0572254
20
0.310513
11
0.0589322
21
0.313068
0
LINE
8
BLACK
6
CONTINUOUS
10
0.0589322
20
0.313068
11
0.0614867
21
0.314775
0
LINE
8
BLACK
6
CONTINUOUS
10
0.0614867
20
0.314775
11
0.0645
21
0.315374
0
LINE
8
BLACK
6
CONTINUOUS
10
0.0645
20
0.315374
11
0.1195
21
0.315374
0
LINE
8
BLACK
6
CONTINUOUS
10
0.1195
20
0.315374
11
0.122513
21
0.314775
0
LINE
8
BLACK
6
CONTINUOUS
10
0.203265
20
0.311471
11
0.20582
21
0.309765
0
LINE
8
BLACK
6
CONTINUOUS
10
0.20582
20
0.309765
11
0.207527
21
0.30721
0
LINE
8
BLACK
6
CONTINUOUS
10
0.207527
20
0.30721
11
0.208126
21
0.304197
0
LINE
8
BLACK
6
CONTINUOUS
10
0.208126
20
0.304197
11
0.208126
21
0.278606
0
LINE
8
BLACK
6
CONTINUOUS
10
0.208126
20
0.278606
11
0.207527
21
0.275593
0
LINE
8
BLACK
6
CONTINUOUS
10
0.207527
20
0.275593
11
0.20582
21
0.273039
0
LINE
8
BLACK
6
CONTINUOUS
10
0.20582
20
0.273039
11
0.203265
21
0.271332
0
LINE
8
BLACK
6
CONTINUOUS
10
0.203265
20
0.271332
11
0.200252
21
0.270732
0
LINE
8
BLACK
6
CONTINUOUS
10
0.200252
20
0.270732
11
0.15852
21
0.270732
0
LINE
8
BLACK
6
CONTINUOUS
10
0.15852
20
0.270732
11
0.155506
21
0.271332
0
LINE
8
BLACK
6
CONTINUOUS
10
0.155506
20
0.271332
11
0.152952
21
0.273039
0
LINE
8
BLACK
6
CONTINUOUS
10
0.152952
20
0.273039
11
0.151245
21
0.275593
0
LINE
8
BLACK
6
CONTINUOUS
10
0.151245
20
0.275593
11
0.150646
21
0.278606
0
LINE
8
BLACK
6
CONTINUOUS
10
0.150646
20
0.278606
11
0.150646
21
0.304197
0
LINE
8
BLACK
6
CONTINUOUS
10
0.150646
20
0.304197
11
0.151245
21
0.30721
0
LINE
8
BLACK
6
CONTINUOUS
10
0.151245
20
0.30721
11
0.152952
21
0.309765
0
LINE
8
BLACK
6
CONTINUOUS
10
0.152952
20
0.309765
11
0.155506
21
0.311471
0
LINE
8
BLACK
6
CONTINUOUS
10
0.155506
20
0.311471
11
0.15852
21
0.312071
0
LINE
8
BLACK
6
CONTINUOUS
10
0.15852
20
0.312071
11
0.200252
21
0.312071
0
LINE
8
BLACK
6
CONTINUOUS
10
0.200252
20
0.312071
11
0.203265
21
0.311471
0
LINE
8
BLACK
6
CONTINUOUS
10
1.52597
20
0.318324
11
1.53036
21
0.316087
0
LINE
8
BLACK
6
CONTINUOUS
10
1.53036
20
0.316087
11
1.53384
21
0.312603
0
LINE
8
BLACK
6
CONTINUOUS
10
1.53384
20
0.312603
11
1.53608
21
0.308213
0
LINE
8
BLACK
6
CONTINUOUS
10
1.53608
20
0.308213
11
1.53685
21
0.303346
0
LINE
8
BLACK
6
CONTINUOUS
10
1.53685
20
0.303346
11
1.53685
21
0.287598
0
LINE
8
BLACK
6
CONTINUOUS
10
1.53685
20
0.287598
11
1.53608
21
0.282732
0
LINE
8
BLACK
6
CONTINUOUS
10
1.53608
20
0.282732
11
1.53384
21
0.278342
0
LINE
8
BLACK
6
CONTINUOUS
10
1.53384
20
0.278342
11
1.53036
21
0.274858
0
LINE
8
BLACK
6
CONTINUOUS
10
1.53036
20
0.274858
11
1.52597
21
0.272621
0
LINE
8
BLACK
6
CONTINUOUS
10
1.52597
20
0.272621
11
1.5211
21
0.27185
0
LINE
8
BLACK
6
CONTINUOUS
10
1.5211
20
0.27185
11
1.44236
21
0.27185
0
LINE
8
BLACK
6
CONTINUOUS
10
1.44236
20
0.27185
11
1.4375
21
0.272621
0
LINE
8
BLACK
6
CONTINUOUS
10
1.4375
20
0.272621
11
1.43311
21
0.274858
0
LINE
8
BLACK
6
CONTINUOUS
10
1.43311
20
0.274858
11
1.42962
21
0.278342
0
LINE
8
BLACK
6
CONTINUOUS
10
1.42962
20
0.278342
11
1.42738
21
0.282732
0
LINE
8
BLACK
6
CONTINUOUS
10
1.42738
20
0.282732
11
1.42661
21
0.287598
0
LINE
8
BLACK
6
CONTINUOUS
10
1.42661
20
0.287598
11
1.42661
21
0.303346
0
LINE
8
BLACK
6
CONTINUOUS
10
1.42661
20
0.303346
11
1.42738
21
0.308213
0
LINE
8
BLACK
6
CONTINUOUS
10
1.42738
20
0.308213
11
1.42962
21
0.312603
0
LINE
8
BLACK
6
CONTINUOUS
10
1.42962
20
0.312603
11
1.43311
21
0.316087
0
LINE
8
BLACK
6
CONTINUOUS
10
1.43311
20
0.316087
11
1.4375
21
0.318324
0
LINE
8
BLACK
6
CONTINUOUS
10
1.4375
20
0.318324
11
1.44236
21
0.319094
0
LINE
8
BLACK
6
CONTINUOUS
10
1.44236
20
0.319094
11
1.5211
21
0.319094
0
LINE
8
BLACK
6
CONTINUOUS
10
1.5211
20
0.319094
11
1.52597
21
0.318324
0
LINE
8
BLACK
6
CONTINUOUS
10
1.52597
20
0.377379
11
1.53036
21
0.375142
0
LINE
8
BLACK
6
CONTINUOUS
10
1.53036
20
0.375142
11
1.53384
21
0.371658
0
LINE
8
BLACK
6
CONTINUOUS
10
1.53384
20
0.371658
11
1.53608
21
0.367268
0
LINE
8
BLACK
6
CONTINUOUS
10
1.53608
20
0.367268
11
1.53685
21
0.362402
0
LINE
8
BLACK
6
CONTINUOUS
10
1.53685
20
0.362402
11
1.53685
21
0.346654
0
LINE
8
BLACK
6
CONTINUOUS
10
1.53685
20
0.346654
11
1.53608
21
0.341787
0
LINE
8
BLACK
6
CONTINUOUS
10
1.53608
20
0.341787
11
1.53384
21
0.337397
0
LINE
8
BLACK
6
CONTINUOUS
10
1.53384
20
0.337397
11
1.53036
21
0.333913
0
LINE
8
BLACK
6
CONTINUOUS
10
1.53036
20
0.333913
11
1.52597
21
0.331676
0
LINE
8
BLACK
6
CONTINUOUS
10
1.52597
20
0.331676
11
1.5211
21
0.330906
0
LINE
8
BLACK
6
CONTINUOUS
10
1.5211
20
0.330906
11
1.44236
21
0.330906
0
LINE
8
BLACK
6
CONTINUOUS
10
1.44236
20
0.330906
11
1.4375
21
0.331676
0
LINE
8
BLACK
6
CONTINUOUS
10
1.4375
20
0.331676
11
1.43311
21
0.333913
0
LINE
8
BLACK
6
CONTINUOUS
10
1.43311
20
0.333913
11
1.42962
21
0.337397
0
LINE
8
BLACK
6
CONTINUOUS
10
1.42962
20
0.337397
11
1.42738
21
0.341787
0
LINE
8
BLACK
6
CONTINUOUS
10
1.42738
20
0.341787
11
1.42661
21
0.346654
0
LINE
8
BLACK
6
CONTINUOUS
10
1.42661
20
0.346654
11
1.42661
21
0.362402
0
LINE
8
BLACK
6
CONTINUOUS
10
1.42661
20
0.362402
11
1.42738
21
0.367268
0
LINE
8
BLACK
6
CONTINUOUS
10
1.42738
20
0.367268
11
1.42962
21
0.371658
0
LINE
8
BLACK
6
CONTINUOUS
10
1.42962
20
0.371658
11
1.43311
21
0.375142
0
LINE
8
BLACK
6
CONTINUOUS
10
1.43311
20
0.375142
11
1.4375
21
0.377379
0
LINE
8
BLACK
6
CONTINUOUS
10
1.4375
20
0.377379
11
1.44236
21
0.37815
0
LINE
8
BLACK
6
CONTINUOUS
10
1.44236
20
0.37815
11
1.5211
21
0.37815
0
LINE
8
BLACK
6
CONTINUOUS
10
1.5211
20
0.37815
11
1.52597
21
0.377379
0
LINE
8
BLACK
6
CONTINUOUS
10
0.602513
20
0.385775
11
0.605068
21
0.384068
0
LINE
8
BLACK
6
CONTINUOUS
10
0.605068
20
0.384068
11
0.606775
21
0.381513
0
LINE
8
BLACK
6
CONTINUOUS
10
0.606775
20
0.381513
11
0.607374
21
0.3785
0
LINE
8
BLACK
6
CONTINUOUS
10
0.607374
20
0.3785
11
0.607374
21
0.3435
0
LINE
8
BLACK
6
CONTINUOUS
10
0.607374
20
0.3435
11
0.606775
21
0.340487
0
LINE
8
BLACK
6
CONTINUOUS
10
0.606775
20
0.340487
11
0.605068
21
0.337932
0
LINE
8
BLACK
6
CONTINUOUS
10
0.605068
20
0.337932
11
0.602513
21
0.336225
0
LINE
8
BLACK
6
CONTINUOUS
10
0.602513
20
0.336225
11
0.5995
21
0.335626
0
LINE
8
BLACK
6
CONTINUOUS
10
0.5995
20
0.335626
11
0.5445
21
0.335626
0
LINE
8
BLACK
6
CONTINUOUS
10
0.5445
20
0.335626
11
0.541487
21
0.336225
0
LINE
8
BLACK
6
CONTINUOUS
10
0.541487
20
0.336225
11
0.538932
21
0.337932
0
LINE
8
BLACK
6
CONTINUOUS
10
0.538932
20
0.337932
11
0.537225
21
0.340487
0
LINE
8
BLACK
6
CONTINUOUS
10
0.537225
20
0.340487
11
0.536626
21
0.3435
0
LINE
8
BLACK
6
CONTINUOUS
10
0.536626
20
0.3435
11
0.536626
21
0.3785
0
LINE
8
BLACK
6
CONTINUOUS
10
0.536626
20
0.3785
11
0.537225
21
0.381513
0
LINE
8
BLACK
6
CONTINUOUS
10
0.537225
20
0.381513
11
0.538932
21
0.384068
0
LINE
8
BLACK
6
CONTINUOUS
10
0.538932
20
0.384068
11
0.541487
21
0.385775
0
LINE
8
BLACK
6
CONTINUOUS
10
0.541487
20
0.385775
11
0.5445
21
0.386374
0
LINE
8
BLACK
6
CONTINUOUS
10
0.5445
20
0.386374
11
0.5995
21
0.386374
0
LINE
8
BLACK
6
CONTINUOUS
10
0.5995
20
0.386374
11
0.602513
21
0.385775
0
LINE
8
BLACK
6
CONTINUOUS
10
1.19051
20
0.385975
11
1.19307
21
0.384269
0
LINE
8
BLACK
6
CONTINUOUS
10
1.19307
20
0.384269
11
1.19477
21
0.381714
0
LINE
8
BLACK
6
CONTINUOUS
10
1.19477
20
0.381714
11
1.19537
21
0.378701
0
LINE
8
BLACK
6
CONTINUOUS
10
1.19537
20
0.378701
11
1.19537
21
0.343701
0
LINE
8
BLACK
6
CONTINUOUS
10
1.19537
20
0.343701
11
1.19477
21
0.340688
0
LINE
8
BLACK
6
CONTINUOUS
10
1.19477
20
0.340688
11
1.19307
21
0.338133
0
LINE
8
BLACK
6
CONTINUOUS
10
1.19307
20
0.338133
11
1.19051
21
0.336426
0
LINE
8
BLACK
6
CONTINUOUS
10
1.19051
20
0.336426
11
1.1875
21
0.335827
0
LINE
8
BLACK
6
CONTINUOUS
10
1.1875
20
0.335827
11
1.1325
21
0.335827
0
LINE
8
BLACK
6
CONTINUOUS
10
1.1325
20
0.335827
11
1.12949
21
0.336426
0
LINE
8
BLACK
6
CONTINUOUS
10
1.12949
20
0.336426
11
1.12693
21
0.338133
0
LINE
8
BLACK
6
CONTINUOUS
10
1.12693
20
0.338133
11
1.12523
21
0.340688
0
LINE
8
BLACK
6
CONTINUOUS
10
1.12523
20
0.340688
11
1.12463
21
0.343701
0
LINE
8
BLACK
6
CONTINUOUS
10
1.12463
20
0.343701
11
1.12463
21
0.378701
0
LINE
8
BLACK
6
CONTINUOUS
10
1.12463
20
0.378701
11
1.12523
21
0.381714
0
LINE
8
BLACK
6
CONTINUOUS
10
1.12523
20
0.381714
11
1.12693
21
0.384269
0
LINE
8
BLACK
6
CONTINUOUS
10
1.12693
20
0.384269
11
1.12949
21
0.385975
0
LINE
8
BLACK
6
CONTINUOUS
10
1.12949
20
0.385975
11
1.1325
21
0.386575
0
LINE
8
BLACK
6
CONTINUOUS
10
1.1325
20
0.386575
11
1.1875
21
0.386575
0
LINE
8
BLACK
6
CONTINUOUS
10
1.1875
20
0.386575
11
1.19051
21
0.385975
0
LINE
8
BLACK
6
CONTINUOUS
10
1.29293
20
0.425631
11
1.2979
21
0.423886
0
LINE
8
BLACK
6
CONTINUOUS
10
1.2979
20
0.423886
11
1.30213
21
0.420756
0
LINE
8
BLACK
6
CONTINUOUS
10
1.30213
20
0.420756
11
1.30526
21
0.416518
0
LINE
8
BLACK
6
CONTINUOUS
10
1.30526
20
0.416518
11
1.30701
21
0.411548
0
LINE
8
BLACK
6
CONTINUOUS
10
1.30701
20
0.411548
11
1.30732
21
0.408228
0
LINE
8
BLACK
6
CONTINUOUS
10
1.30732
20
0.408228
11
1.30732
21
0.378701
0
LINE
8
BLACK
6
CONTINUOUS
10
1.30732
20
0.378701
11
1.30701
21
0.375381
0
LINE
8
BLACK
6
CONTINUOUS
10
1.30701
20
0.375381
11
1.30526
21
0.370411
0
LINE
8
BLACK
6
CONTINUOUS
10
1.30526
20
0.370411
11
1.30213
21
0.366173
0
LINE
8
BLACK
6
CONTINUOUS
10
1.30213
20
0.366173
11
1.2979
21
0.363044
0
LINE
8
BLACK
6
CONTINUOUS
10
1.2979
20
0.363044
11
1.29293
21
0.361298
0
LINE
8
BLACK
6
CONTINUOUS
10
1.29293
20
0.361298
11
1.28961
21
0.360984
0
LINE
8
BLACK
6
CONTINUOUS
10
1.28961
20
0.360984
11
1.24039
21
0.360984
0
LINE
8
BLACK
6
CONTINUOUS
10
1.24039
20
0.360984
11
1.23707
21
0.361298
0
LINE
8
BLACK
6
CONTINUOUS
10
1.23707
20
0.361298
11
1.2321
21
0.363044
0
LINE
8
BLACK
6
CONTINUOUS
10
1.2321
20
0.363044
11
1.22787
21
0.366173
0
LINE
8
BLACK
6
CONTINUOUS
10
1.22787
20
0.366173
11
1.22474
21
0.370411
0
LINE
8
BLACK
6
CONTINUOUS
10
1.22474
20
0.370411
11
1.22299
21
0.375381
0
LINE
8
BLACK
6
CONTINUOUS
10
1.22299
20
0.375381
11
1.22268
21
0.378701
0
LINE
8
BLACK
6
CONTINUOUS
10
1.22268
20
0.378701
11
1.22268
21
0.408228
0
LINE
8
BLACK
6
CONTINUOUS
10
1.22268
20
0.408228
11
1.22299
21
0.411548
0
LINE
8
BLACK
6
CONTINUOUS
10
1.22299
20
0.411548
11
1.22474
21
0.416518
0
LINE
8
BLACK
6
CONTINUOUS
10
1.22474
20
0.416518
11
1.22787
21
0.420756
0
LINE
8
BLACK
6
CONTINUOUS
10
1.22787
20
0.420756
11
1.2321
21
0.423886
0
LINE
8
BLACK
6
CONTINUOUS
10
1.2321
20
0.423886
11
1.23707
21
0.425631
0
LINE
8
BLACK
6
CONTINUOUS
10
1.23707
20
0.425631
11
1.24039
21
0.425945
0
LINE
8
BLACK
6
CONTINUOUS
10
1.24039
20
0.425945
11
1.28961
21
0.425945
0
LINE
8
BLACK
6
CONTINUOUS
10
1.28961
20
0.425945
11
1.29293
21
0.425631
0
LINE
8
BLACK
6
CONTINUOUS
10
0.407926
20
0.44393
11
0.412896
21
0.442185
0
LINE
8
BLACK
6
CONTINUOUS
10
0.412896
20
0.442185
11
0.417134
21
0.439055
0
LINE
8
BLACK
6
CONTINUOUS
10
0.417134
20
0.439055
11
0.420264
21
0.434818
0
LINE
8
BLACK
6
CONTINUOUS
10
0.420264
20
0.434818
11
0.422009
21
0.429847
0
LINE
8
BLACK
6
CONTINUOUS
10
0.422009
20
0.429847
11
0.422323
21
0.426528
0
LINE
8
BLACK
6
CONTINUOUS
10
0.422323
20
0.426528
11
0.422323
21
0.397
0
LINE
8
BLACK
6
CONTINUOUS
10
0.422323
20
0.397
11
0.422009
21
0.39368
0
LINE
8
BLACK
6
CONTINUOUS
10
0.422009
20
0.39368
11
0.420264
21
0.38871
0
LINE
8
BLACK
6
CONTINUOUS
10
0.420264
20
0.38871
11
0.417134
21
0.384473
0
LINE
8
BLACK
6
CONTINUOUS
10
0.417134
20
0.384473
11
0.412896
21
0.381343
0
LINE
8
BLACK
6
CONTINUOUS
10
0.412896
20
0.381343
11
0.407926
21
0.379597
0
LINE
8
BLACK
6
CONTINUOUS
10
0.407926
20
0.379597
11
0.404606
21
0.379283
0
LINE
8
BLACK
6
CONTINUOUS
10
0.404606
20
0.379283
11
0.355394
21
0.379283
0
LINE
8
BLACK
6
CONTINUOUS
10
0.355394
20
0.379283
11
0.352074
21
0.379597
0
LINE
8
BLACK
6
CONTINUOUS
10
0.352074
20
0.379597
11
0.347104
21
0.381343
0
LINE
8
BLACK
6
CONTINUOUS
10
0.347104
20
0.381343
11
0.342866
21
0.384473
0
LINE
8
BLACK
6
CONTINUOUS
10
0.342866
20
0.384473
11
0.339736
21
0.38871
0
LINE
8
BLACK
6
CONTINUOUS
10
0.339736
20
0.38871
11
0.337991
21
0.39368
0
LINE
8
BLACK
6
CONTINUOUS
10
0.337991
20
0.39368
11
0.337677
21
0.397
0
LINE
8
BLACK
6
CONTINUOUS
10
0.337677
20
0.397
11
0.337677
21
0.426528
0
LINE
8
BLACK
6
CONTINUOUS
10
0.337677
20
0.426528
11
0.337991
21
0.429847
0
LINE
8
BLACK
6
CONTINUOUS
10
0.337991
20
0.429847
11
0.339736
21
0.434818
0
LINE
8
BLACK
6
CONTINUOUS
10
0.339736
20
0.434818
11
0.342866
21
0.439055
0
LINE
8
BLACK
6
CONTINUOUS
10
0.342866
20
0.439055
11
0.347104
21
0.442185
0
LINE
8
BLACK
6
CONTINUOUS
10
0.347104
20
0.442185
11
0.352074
21
0.44393
0
LINE
8
BLACK
6
CONTINUOUS
10
0.352074
20
0.44393
11
0.355394
21
0.444244
0
LINE
8
BLACK
6
CONTINUOUS
10
0.355394
20
0.444244
11
0.404606
21
0.444244
0
LINE
8
BLACK
6
CONTINUOUS
10
0.404606
20
0.444244
11
0.407926
21
0.44393
0
LINE
8
BLACK
6
CONTINUOUS
10
0.507926
20
0.444166
11
0.512896
21
0.442421
0
LINE
8
BLACK
6
CONTINUOUS
10
0.512896
20
0.442421
11
0.517134
21
0.439291
0
LINE
8
BLACK
6
CONTINUOUS
10
0.517134
20
0.439291
11
0.520264
21
0.435054
0
LINE
8
BLACK
6
CONTINUOUS
10
0.520264
20
0.435054
11
0.522009
21
0.430084
0
LINE
8
BLACK
6
CONTINUOUS
10
0.522009
20
0.430084
11
0.522323
21
0.426764
0
LINE
8
BLACK
6
CONTINUOUS
10
0.522323
20
0.426764
11
0.522323
21
0.397236
0
LINE
8
BLACK
6
CONTINUOUS
10
0.522323
20
0.397236
11
0.522009
21
0.393916
0
LINE
8
BLACK
6
CONTINUOUS
10
0.522009
20
0.393916
11
0.520264
21
0.388946
0
LINE
8
BLACK
6
CONTINUOUS
10
0.520264
20
0.388946
11
0.517134
21
0.384709
0
LINE
8
BLACK
6
CONTINUOUS
10
0.517134
20
0.384709
11
0.512896
21
0.381579
0
LINE
8
BLACK
6
CONTINUOUS
10
0.512896
20
0.381579
11
0.507926
21
0.379834
0
LINE
8
BLACK
6
CONTINUOUS
10
0.507926
20
0.379834
11
0.504606
21
0.37952
0
LINE
8
BLACK
6
CONTINUOUS
10
0.504606
20
0.37952
11
0.455394
21
0.37952
0
LINE
8
BLACK
6
CONTINUOUS
10
0.455394
20
0.37952
11
0.452074
21
0.379834
0
LINE
8
BLACK
6
CONTINUOUS
10
0.452074
20
0.379834
11
0.447104
21
0.381579
0
LINE
8
BLACK
6
CONTINUOUS
10
0.447104
20
0.381579
11
0.442866
21
0.384709
0
LINE
8
BLACK
6
CONTINUOUS
10
0.442866
20
0.384709
11
0.439736
21
0.388946
0
LINE
8
BLACK
6
CONTINUOUS
10
0.439736
20
0.388946
11
0.437991
21
0.393916
0
LINE
8
BLACK
6
CONTINUOUS
10
0.437991
20
0.393916
11
0.437677
21
0.397236
0
LINE
8
BLACK
6
CONTINUOUS
10
0.437677
20
0.397236
11
0.437677
21
0.426764
0
LINE
8
BLACK
6
CONTINUOUS
10
0.437677
20
0.426764
11
0.437991
21
0.430084
0
LINE
8
BLACK
6
CONTINUOUS
10
0.437991
20
0.430084
11
0.439736
21
0.435054
0
LINE
8
BLACK
6
CONTINUOUS
10
0.439736
20
0.435054
11
0.442866
21
0.439291
0
LINE
8
BLACK
6
CONTINUOUS
10
0.442866
20
0.439291
11
0.447104
21
0.442421
0
LINE
8
BLACK
6
CONTINUOUS
10
0.447104
20
0.442421
11
0.452074
21
0.444166
0
LINE
8
BLACK
6
CONTINUOUS
10
0.452074
20
0.444166
11
0.455394
21
0.44448
0
LINE
8
BLACK
6
CONTINUOUS
10
0.455394
20
0.44448
11
0.504606
21
0.44448
0
LINE
8
BLACK
6
CONTINUOUS
10
0.504606
20
0.44448
11
0.507926
21
0.444166
0
LINE
8
BLACK
6
CONTINUOUS
10
0.107926
20
0.44593
11
0.112896
21
0.444185
0
LINE
8
BLACK
6
CONTINUOUS
10
0.112896
20
0.444185
11
0.117134
21
0.441055
0
LINE
8
BLACK
6
CONTINUOUS
10
0.117134
20
0.441055
11
0.120264
21
0.436818
0
LINE
8
BLACK
6
CONTINUOUS
10
0.120264
20
0.436818
11
0.122009
21
0.431847
0
LINE
8
BLACK
6
CONTINUOUS
10
0.122009
20
0.431847
11
0.122323
21
0.428528
0
LINE
8
BLACK
6
CONTINUOUS
10
0.122323
20
0.428528
11
0.122323
21
0.399
0
LINE
8
BLACK
6
CONTINUOUS
10
0.122323
20
0.399
11
0.122009
21
0.39568
0
LINE
8
BLACK
6
CONTINUOUS
10
0.122009
20
0.39568
11
0.120264
21
0.39071
0
LINE
8
BLACK
6
CONTINUOUS
10
0.120264
20
0.39071
11
0.117134
21
0.386473
0
LINE
8
BLACK
6
CONTINUOUS
10
0.117134
20
0.386473
11
0.112896
21
0.383343
0
LINE
8
BLACK
6
CONTINUOUS
10
0.112896
20
0.383343
11
0.107926
21
0.381597
0
LINE
8
BLACK
6
CONTINUOUS
10
0.107926
20
0.381597
11
0.104606
21
0.381283
0
LINE
8
BLACK
6
CONTINUOUS
10
0.104606
20
0.381283
11
0.0553937
21
0.381283
0
LINE
8
BLACK
6
CONTINUOUS
10
0.0553937
20
0.381283
11
0.0520739
21
0.381597
0
LINE
8
BLACK
6
CONTINUOUS
10
0.0520739
20
0.381597
11
0.0471036
21
0.383343
0
LINE
8
BLACK
6
CONTINUOUS
10
0.0471036
20
0.383343
11
0.0428662
21
0.386473
0
LINE
8
BLACK
6
CONTINUOUS
10
0.0428662
20
0.386473
11
0.0397364
21
0.39071
0
LINE
8
BLACK
6
CONTINUOUS
10
0.0397364
20
0.39071
11
0.037991
21
0.39568
0
LINE
8
BLACK
6
CONTINUOUS
10
0.037991
20
0.39568
11
0.0376772
21
0.399
0
LINE
8
BLACK
6
CONTINUOUS
10
0.0376772
20
0.399
11
0.0376772
21
0.428528
0
LINE
8
BLACK
6
CONTINUOUS
10
0.0376772
20
0.428528
11
0.037991
21
0.431847
0
LINE
8
BLACK
6
CONTINUOUS
10
0.037991
20
0.431847
11
0.0397364
21
0.436818
0
LINE
8
BLACK
6
CONTINUOUS
10
0.0397364
20
0.436818
11
0.0428662
21
0.441055
0
LINE
8
BLACK
6
CONTINUOUS
10
0.0428662
20
0.441055
11
0.0471036
21
0.444185
0
LINE
8
BLACK
6
CONTINUOUS
10
0.0471036
20
0.444185
11
0.0520739
21
0.44593
0
LINE
8
BLACK
6
CONTINUOUS
10
0.0520739
20
0.44593
11
0.0553937
21
0.446244
0
LINE
8
BLACK
6
CONTINUOUS
10
0.0553937
20
0.446244
11
0.104606
21
0.446244
0
LINE
8
BLACK
6
CONTINUOUS
10
0.104606
20
0.446244
11
0.107926
21
0.44593
0
LINE
8
BLACK
6
CONTINUOUS
10
0.207926
20
0.44593
11
0.212896
21
0.444185
0
LINE
8
BLACK
6
CONTINUOUS
10
0.212896
20
0.444185
11
0.217134
21
0.441055
0
LINE
8
BLACK
6
CONTINUOUS
10
0.217134
20
0.441055
11
0.220264
21
0.436818
0
LINE
8
BLACK
6
CONTINUOUS
10
0.220264
20
0.436818
11
0.222009
21
0.431847
0
LINE
8
BLACK
6
CONTINUOUS
10
0.222009
20
0.431847
11
0.222323
21
0.428528
0
LINE
8
BLACK
6
CONTINUOUS
10
0.222323
20
0.428528
11
0.222323
21
0.399
0
LINE
8
BLACK
6
CONTINUOUS
10
0.222323
20
0.399
11
0.222009
21
0.39568
0
LINE
8
BLACK
6
CONTINUOUS
10
0.222009
20
0.39568
11
0.220264
21
0.39071
0
LINE
8
BLACK
6
CONTINUOUS
10
0.220264
20
0.39071
11
0.217134
21
0.386473
0
LINE
8
BLACK
6
CONTINUOUS
10
0.217134
20
0.386473
11
0.212896
21
0.383343
0
LINE
8
BLACK
6
CONTINUOUS
10
0.212896
20
0.383343
11
0.207926
21
0.381597
0
LINE
8
BLACK
6
CONTINUOUS
10
0.207926
20
0.381597
11
0.204606
21
0.381283
0
LINE
8
BLACK
6
CONTINUOUS
10
0.204606
20
0.381283
11
0.155394
21
0.381283
0
LINE
8
BLACK
6
CONTINUOUS
10
0.155394
20
0.381283
11
0.152074
21
0.381597
0
LINE
8
BLACK
6
CONTINUOUS
10
0.152074
20
0.381597
11
0.147104
21
0.383343
0
LINE
8
BLACK
6
CONTINUOUS
10
0.147104
20
0.383343
11
0.142866
21
0.386473
0
LINE
8
BLACK
6
CONTINUOUS
10
0.142866
20
0.386473
11
0.139736
21
0.39071
0
LINE
8
BLACK
6
CONTINUOUS
10
0.139736
20
0.39071
11
0.137991
21
0.39568
0
LINE
8
BLACK
6
CONTINUOUS
10
0.137991
20
0.39568
11
0.137677
21
0.399
0
LINE
8
BLACK
6
CONTINUOUS
10
0.137677
20
0.399
11
0.137677
21
0.428528
0
LINE
8
BLACK
6
CONTINUOUS
10
0.137677
20
0.428528
11
0.137991
21
0.431847
0
LINE
8
BLACK
6
CONTINUOUS
10
0.137991
20
0.431847
11
0.139736
21
0.436818
0
LINE
8
BLACK
6
CONTINUOUS
10
0.139736
20
0.436818
11
0.142866
21
0.441055
0
LINE
8
BLACK
6
CONTINUOUS
10
0.142866
20
0.441055
11
0.147104
21
0.444185
0
LINE
8
BLACK
6
CONTINUOUS
10
0.147104
20
0.444185
11
0.152074
21
0.44593
0
LINE
8
BLACK
6
CONTINUOUS
10
0.152074
20
0.44593
11
0.155394
21
0.446244
0
LINE
8
BLACK
6
CONTINUOUS
10
0.155394
20
0.446244
11
0.204606
21
0.446244
0
LINE
8
BLACK
6
CONTINUOUS
10
0.204606
20
0.446244
11
0.207926
21
0.44593
0
LINE
8
BLACK
6
CONTINUOUS
10
0.307926
20
0.44593
11
0.312896
21
0.444185
0
LINE
8
BLACK
6
CONTINUOUS
10
0.312896
20
0.444185
11
0.317134
21
0.441055
0
LINE
8
BLACK
6
CONTINUOUS
10
0.317134
20
0.441055
11
0.320264
21
0.436818
0
LINE
8
BLACK
6
CONTINUOUS
10
0.320264
20
0.436818
11
0.322009
21
0.431847
0
LINE
8
BLACK
6
CONTINUOUS
10
0.322009
20
0.431847
11
0.322323
21
0.428528
0
LINE
8
BLACK
6
CONTINUOUS
10
0.322323
20
0.428528
11
0.322323
21
0.399
0
LINE
8
BLACK
6
CONTINUOUS
10
0.322323
20
0.399
11
0.322009
21
0.39568
0
LINE
8
BLACK
6
CONTINUOUS
10
0.322009
20
0.39568
11
0.320264
21
0.39071
0
LINE
8
BLACK
6
CONTINUOUS
10
0.320264
20
0.39071
11
0.317134
21
0.386473
0
LINE
8
BLACK
6
CONTINUOUS
10
0.317134
20
0.386473
11
0.312896
21
0.383343
0
LINE
8
BLACK
6
CONTINUOUS
10
0.312896
20
0.383343
11
0.307926
21
0.381597
0
LINE
8
BLACK
6
CONTINUOUS
10
0.307926
20
0.381597
11
0.304606
21
0.381283
0
LINE
8
BLACK
6
CONTINUOUS
10
0.304606
20
0.381283
11
0.255394
21
0.381283
0
LINE
8
BLACK
6
CONTINUOUS
10
0.255394
20
0.381283
11
0.252074
21
0.381597
0
LINE
8
BLACK
6
CONTINUOUS
10
0.252074
20
0.381597
11
0.247104
21
0.383343
0
LINE
8
BLACK
6
CONTINUOUS
10
0.247104
20
0.383343
11
0.242866
21
0.386473
0
LINE
8
BLACK
6
CONTINUOUS
10
0.242866
20
0.386473
11
0.239736
21
0.39071
0
LINE
8
BLACK
6
CONTINUOUS
10
0.239736
20
0.39071
11
0.237991
21
0.39568
0
LINE
8
BLACK
6
CONTINUOUS
10
0.237991
20
0.39568
11
0.237677
21
0.399
0
LINE
8
BLACK
6
CONTINUOUS
10
0.237677
20
0.399
11
0.237677
21
0.428528
0
LINE
8
BLACK
6
CONTINUOUS
10
0.237677
20
0.428528
11
0.237991
21
0.431847
0
LINE
8
BLACK
6
CONTINUOUS
10
0.237991
20
0.431847
11
0.239736
21
0.436818
0
LINE
8
BLACK
6
CONTINUOUS
10
0.239736
20
0.436818
11
0.242866
21
0.441055
0
LINE
8
BLACK
6
CONTINUOUS
10
0.242866
20
0.441055
11
0.247104
21
0.444185
0
LINE
8
BLACK
6
CONTINUOUS
10
0.247104
20
0.444185
11
0.252074
21
0.44593
0
LINE
8
BLACK
6
CONTINUOUS
10
0.252074
20
0.44593
11
0.255394
21
0.446244
0
LINE
8
BLACK
6
CONTINUOUS
10
0.255394
20
0.446244
11
0.304606
21
0.446244
0
LINE
8
BLACK
6
CONTINUOUS
10
0.304606
20
0.446244
11
0.307926
21
0.44593
0
LINE
8
BLACK
6
CONTINUOUS
10
1.52597
20
0.436434
11
1.53036
21
0.434197
0
LINE
8
BLACK
6
CONTINUOUS
10
1.53036
20
0.434197
11
1.53384
21
0.430713
0
LINE
8
BLACK
6
CONTINUOUS
10
1.53384
20
0.430713
11
1.53608
21
0.426323
0
LINE
8
BLACK
6
CONTINUOUS
10
1.53608
20
0.426323
11
1.53685
21
0.421457
0
LINE
8
BLACK
6
CONTINUOUS
10
1.53685
20
0.421457
11
1.53685
21
0.405709
0
LINE
8
BLACK
6
CONTINUOUS
10
1.53685
20
0.405709
11
1.53608
21
0.400842
0
LINE
8
BLACK
6
CONTINUOUS
10
1.53608
20
0.400842
11
1.53384
21
0.396452
0
LINE
8
BLACK
6
CONTINUOUS
10
1.53384
20
0.396452
11
1.53036
21
0.392968
0
LINE
8
BLACK
6
CONTINUOUS
10
1.53036
20
0.392968
11
1.52597
21
0.390731
0
LINE
8
BLACK
6
CONTINUOUS
10
1.52597
20
0.390731
11
1.5211
21
0.389961
0
LINE
8
BLACK
6
CONTINUOUS
10
1.5211
20
0.389961
11
1.44236
21
0.389961
0
LINE
8
BLACK
6
CONTINUOUS
10
1.44236
20
0.389961
11
1.4375
21
0.390731
0
LINE
8
BLACK
6
CONTINUOUS
10
1.4375
20
0.390731
11
1.43311
21
0.392968
0
LINE
8
BLACK
6
CONTINUOUS
10
1.43311
20
0.392968
11
1.42962
21
0.396452
0
LINE
8
BLACK
6
CONTINUOUS
10
1.42962
20
0.396452
11
1.42738
21
0.400842
0
LINE
8
BLACK
6
CONTINUOUS
10
1.42738
20
0.400842
11
1.42661
21
0.405709
0
LINE
8
BLACK
6
CONTINUOUS
10
1.42661
20
0.405709
11
1.42661
21
0.421457
0
LINE
8
BLACK
6
CONTINUOUS
10
1.42661
20
0.421457
11
1.42738
21
0.426323
0
LINE
8
BLACK
6
CONTINUOUS
10
1.42738
20
0.426323
11
1.42962
21
0.430713
0
LINE
8
BLACK
6
CONTINUOUS
10
1.42962
20
0.430713
11
1.43311
21
0.434197
0
LINE
8
BLACK
6
CONTINUOUS
10
1.43311
20
0.434197
11
1.4375
21
0.436434
0
LINE
8
BLACK
6
CONTINUOUS
10
1.4375
20
0.436434
11
1.44236
21
0.437205
0
LINE
8
BLACK
6
CONTINUOUS
10
1.44236
20
0.437205
11
1.5211
21
0.437205
0
LINE
8
BLACK
6
CONTINUOUS
10
1.5211
20
0.437205
11
1.52597
21
0.436434
0
LINE
8
BLACK
6
CONTINUOUS
10
0.602513
20
0.460775
11
0.605068
21
0.459068
0
LINE
8
BLACK
6
CONTINUOUS
10
0.605068
20
0.459068
11
0.606775
21
0.456513
0
LINE
8
BLACK
6
CONTINUOUS
10
0.606775
20
0.456513
11
0.607374
21
0.4535
0
LINE
8
BLACK
6
CONTINUOUS
10
0.607374
20
0.4535
11
0.607374
21
0.4185
0
LINE
8
BLACK
6
CONTINUOUS
10
0.607374
20
0.4185
11
0.606775
21
0.415487
0
LINE
8
BLACK
6
CONTINUOUS
10
0.606775
20
0.415487
11
0.605068
21
0.412932
0
LINE
8
BLACK
6
CONTINUOUS
10
0.605068
20
0.412932
11
0.602513
21
0.411225
0
LINE
8
BLACK
6
CONTINUOUS
10
0.602513
20
0.411225
11
0.5995
21
0.410626
0
LINE
8
BLACK
6
CONTINUOUS
10
0.5995
20
0.410626
11
0.5445
21
0.410626
0
LINE
8
BLACK
6
CONTINUOUS
10
0.5445
20
0.410626
11
0.541487
21
0.411225
0
LINE
8
BLACK
6
CONTINUOUS
10
0.541487
20
0.411225
11
0.538932
21
0.412932
0
LINE
8
BLACK
6
CONTINUOUS
10
0.538932
20
0.412932
11
0.537225
21
0.415487
0
LINE
8
BLACK
6
CONTINUOUS
10
0.537225
20
0.415487
11
0.536626
21
0.4185
0
LINE
8
BLACK
6
CONTINUOUS
10
0.536626
20
0.4185
11
0.536626
21
0.4535
0
LINE
8
BLACK
6
CONTINUOUS
10
0.536626
20
0.4535
11
0.537225
21
0.456513
0
LINE
8
BLACK
6
CONTINUOUS
10
0.537225
20
0.456513
11
0.538932
21
0.459068
0
LINE
8
BLACK
6
CONTINUOUS
10
0.538932
20
0.459068
11
0.541487
21
0.460775
0
LINE
8
BLACK
6
CONTINUOUS
10
0.541487
20
0.460775
11
0.5445
21
0.461374
0
LINE
8
BLACK
6
CONTINUOUS
10
0.5445
20
0.461374
11
0.5995
21
0.461374
0
LINE
8
BLACK
6
CONTINUOUS
10
0.5995
20
0.461374
11
0.602513
21
0.460775
0
LINE
8
BLACK
6
CONTINUOUS
10
1.19051
20
0.460975
11
1.19307
21
0.459269
0
LINE
8
BLACK
6
CONTINUOUS
10
1.19307
20
0.459269
11
1.19477
21
0.456714
0
LINE
8
BLACK
6
CONTINUOUS
10
1.19477
20
0.456714
11
1.19537
21
0.453701
0
LINE
8
BLACK
6
CONTINUOUS
10
1.19537
20
0.453701
11
1.19537
21
0.418701
0
LINE
8
BLACK
6
CONTINUOUS
10
1.19537
20
0.418701
11
1.19477
21
0.415688
0
LINE
8
BLACK
6
CONTINUOUS
10
1.19477
20
0.415688
11
1.19307
21
0.413133
0
LINE
8
BLACK
6
CONTINUOUS
10
1.19307
20
0.413133
11
1.19051
21
0.411426
0
LINE
8
BLACK
6
CONTINUOUS
10
1.19051
20
0.411426
11
1.1875
21
0.410827
0
LINE
8
BLACK
6
CONTINUOUS
10
1.1875
20
0.410827
11
1.1325
21
0.410827
0
LINE
8
BLACK
6
CONTINUOUS
10
1.1325
20
0.410827
11
1.12949
21
0.411426
0
LINE
8
BLACK
6
CONTINUOUS
10
1.12949
20
0.411426
11
1.12693
21
0.413133
0
LINE
8
BLACK
6
CONTINUOUS
10
1.12693
20
0.413133
11
1.12523
21
0.415688
0
LINE
8
BLACK
6
CONTINUOUS
10
1.12523
20
0.415688
11
1.12463
21
0.418701
0
LINE
8
BLACK
6
CONTINUOUS
10
1.12463
20
0.418701
11
1.12463
21
0.453701
0
LINE
8
BLACK
6
CONTINUOUS
10
1.12463
20
0.453701
11
1.12523
21
0.456714
0
LINE
8
BLACK
6
CONTINUOUS
10
1.12523
20
0.456714
11
1.12693
21
0.459269
0
LINE
8
BLACK
6
CONTINUOUS
10
1.12693
20
0.459269
11
1.12949
21
0.460975
0
LINE
8
BLACK
6
CONTINUOUS
10
1.12949
20
0.460975
11
1.1325
21
0.461575
0
LINE
8
BLACK
6
CONTINUOUS
10
1.1325
20
0.461575
11
1.1875
21
0.461575
0
LINE
8
BLACK
6
CONTINUOUS
10
1.1875
20
0.461575
11
1.19051
21
0.460975
0
LINE
8
BLACK
6
CONTINUOUS
10
1.52597
20
0.495489
11
1.53036
21
0.493252
0
LINE
8
BLACK
6
CONTINUOUS
10
1.53036
20
0.493252
11
1.53384
21
0.489768
0
LINE
8
BLACK
6
CONTINUOUS
10
1.53384
20
0.489768
11
1.53608
21
0.485378
0
LINE
8
BLACK
6
CONTINUOUS
10
1.53608
20
0.485378
11
1.53685
21
0.480512
0
LINE
8
BLACK
6
CONTINUOUS
10
1.53685
20
0.480512
11
1.53685
21
0.464764
0
LINE
8
BLACK
6
CONTINUOUS
10
1.53685
20
0.464764
11
1.53608
21
0.459897
0
LINE
8
BLACK
6
CONTINUOUS
10
1.53608
20
0.459897
11
1.53384
21
0.455507
0
LINE
8
BLACK
6
CONTINUOUS
10
1.53384
20
0.455507
11
1.53036
21
0.452023
0
LINE
8
BLACK
6
CONTINUOUS
10
1.53036
20
0.452023
11
1.52597
21
0.449786
0
LINE
8
BLACK
6
CONTINUOUS
10
1.52597
20
0.449786
11
1.5211
21
0.449016
0
LINE
8
BLACK
6
CONTINUOUS
10
1.5211
20
0.449016
11
1.44236
21
0.449016
0
LINE
8
BLACK
6
CONTINUOUS
10
1.44236
20
0.449016
11
1.4375
21
0.449786
0
LINE
8
BLACK
6
CONTINUOUS
10
1.4375
20
0.449786
11
1.43311
21
0.452023
0
LINE
8
BLACK
6
CONTINUOUS
10
1.43311
20
0.452023
11
1.42962
21
0.455507
0
LINE
8
BLACK
6
CONTINUOUS
10
1.42962
20
0.455507
11
1.42738
21
0.459897
0
LINE
8
BLACK
6
CONTINUOUS
10
1.42738
20
0.459897
11
1.42661
21
0.464764
0
LINE
8
BLACK
6
CONTINUOUS
10
1.42661
20
0.464764
11
1.42661
21
0.480512
0
LINE
8
BLACK
6
CONTINUOUS
10
1.42661
20
0.480512
11
1.42738
21
0.485378
0
LINE
8
BLACK
6
CONTINUOUS
10
1.42738
20
0.485378
11
1.42962
21
0.489768
0
LINE
8
BLACK
6
CONTINUOUS
10
1.42962
20
0.489768
11
1.43311
21
0.493252
0
LINE
8
BLACK
6
CONTINUOUS
10
1.43311
20
0.493252
11
1.4375
21
0.495489
0
LINE
8
BLACK
6
CONTINUOUS
10
1.4375
20
0.495489
11
1.44236
21
0.49626
0
LINE
8
BLACK
6
CONTINUOUS
10
1.44236
20
0.49626
11
1.5211
21
0.49626
0
LINE
8
BLACK
6
CONTINUOUS
10
1.5211
20
0.49626
11
1.52597
21
0.495489
0
LINE
8
BLACK
6
CONTINUOUS
10
1.30051
20
0.504775
11
1.30307
21
0.503068
0
LINE
8
BLACK
6
CONTINUOUS
10
1.30307
20
0.503068
11
1.30477
21
0.500513
0
LINE
8
BLACK
6
CONTINUOUS
10
1.30477
20
0.500513
11
1.30537
21
0.4975
0
LINE
8
BLACK
6
CONTINUOUS
10
1.30537
20
0.4975
11
1.30537
21
0.4625
0
LINE
8
BLACK
6
CONTINUOUS
10
1.30537
20
0.4625
11
1.30477
21
0.459487
0
LINE
8
BLACK
6
CONTINUOUS
10
1.30477
20
0.459487
11
1.30307
21
0.456932
0
LINE
8
BLACK
6
CONTINUOUS
10
1.30307
20
0.456932
11
1.30051
21
0.455225
0
LINE
8
BLACK
6
CONTINUOUS
10
1.30051
20
0.455225
11
1.2975
21
0.454626
0
LINE
8
BLACK
6
CONTINUOUS
10
1.2975
20
0.454626
11
1.2425
21
0.454626
0
LINE
8
BLACK
6
CONTINUOUS
10
1.2425
20
0.454626
11
1.23949
21
0.455225
0
LINE
8
BLACK
6
CONTINUOUS
10
1.23949
20
0.455225
11
1.23693
21
0.456932
0
LINE
8
BLACK
6
CONTINUOUS
10
1.23693
20
0.456932
11
1.23523
21
0.459487
0
LINE
8
BLACK
6
CONTINUOUS
10
1.23523
20
0.459487
11
1.23463
21
0.4625
0
LINE
8
BLACK
6
CONTINUOUS
10
1.23463
20
0.4625
11
1.23463
21
0.4975
0
LINE
8
BLACK
6
CONTINUOUS
10
1.23463
20
0.4975
11
1.23523
21
0.500513
0
LINE
8
BLACK
6
CONTINUOUS
10
1.23523
20
0.500513
11
1.23693
21
0.503068
0
LINE
8
BLACK
6
CONTINUOUS
10
1.23693
20
0.503068
11
1.23949
21
0.504775
0
LINE
8
BLACK
6
CONTINUOUS
10
1.23949
20
0.504775
11
1.2425
21
0.505374
0
LINE
8
BLACK
6
CONTINUOUS
10
1.2425
20
0.505374
11
1.2975
21
0.505374
0
LINE
8
BLACK
6
CONTINUOUS
10
1.2975
20
0.505374
11
1.30051
21
0.504775
0
LINE
8
BLACK
6
CONTINUOUS
10
1.37179
20
0.503968
11
1.37435
21
0.502261
0
LINE
8
BLACK
6
CONTINUOUS
10
1.37435
20
0.502261
11
1.37605
21
0.499706
0
LINE
8
BLACK
6
CONTINUOUS
10
1.37605
20
0.499706
11
1.37665
21
0.496693
0
LINE
8
BLACK
6
CONTINUOUS
10
1.37665
20
0.496693
11
1.37665
21
0.473071
0
LINE
8
BLACK
6
CONTINUOUS
10
1.37665
20
0.473071
11
1.37605
21
0.470058
0
LINE
8
BLACK
6
CONTINUOUS
10
1.37605
20
0.470058
11
1.37435
21
0.467503
0
LINE
8
BLACK
6
CONTINUOUS
10
1.37435
20
0.467503
11
1.37179
21
0.465796
0
LINE
8
BLACK
6
CONTINUOUS
10
1.37179
20
0.465796
11
1.36878
21
0.465197
0
LINE
8
BLACK
6
CONTINUOUS
10
1.36878
20
0.465197
11
1.34122
21
0.465197
0
LINE
8
BLACK
6
CONTINUOUS
10
1.34122
20
0.465197
11
1.33821
21
0.465796
0
LINE
8
BLACK
6
CONTINUOUS
10
1.33821
20
0.465796
11
1.33565
21
0.467503
0
LINE
8
BLACK
6
CONTINUOUS
10
1.33565
20
0.467503
11
1.33395
21
0.470058
0
LINE
8
BLACK
6
CONTINUOUS
10
1.33395
20
0.470058
11
1.33335
21
0.473071
0
LINE
8
BLACK
6
CONTINUOUS
10
1.33335
20
0.473071
11
1.33335
21
0.496693
0
LINE
8
BLACK
6
CONTINUOUS
10
1.33335
20
0.496693
11
1.33395
21
0.499706
0
LINE
8
BLACK
6
CONTINUOUS
10
1.33395
20
0.499706
11
1.33565
21
0.502261
0
LINE
8
BLACK
6
CONTINUOUS
10
1.33565
20
0.502261
11
1.33821
21
0.503968
0
LINE
8
BLACK
6
CONTINUOUS
10
1.33821
20
0.503968
11
1.34122
21
0.504567
0
LINE
8
BLACK
6
CONTINUOUS
10
1.34122
20
0.504567
11
1.36878
21
0.504567
0
LINE
8
BLACK
6
CONTINUOUS
10
1.36878
20
0.504567
11
1.37179
21
0.503968
0
LINE
8
BLACK
6
CONTINUOUS
10
1.09915
20
0.677196
11
1.10171
21
0.675489
0
LINE
8
BLACK
6
CONTINUOUS
10
1.10171
20
0.675489
11
1.10342
21
0.672935
0
LINE
8
BLACK
6
CONTINUOUS
10
1.10342
20
0.672935
11
1.10402
21
0.669921
0
LINE
8
BLACK
6
CONTINUOUS
10
1.10402
20
0.669921
11
1.10402
21
0.478583
0
LINE
8
BLACK
6
CONTINUOUS
10
1.10402
20
0.478583
11
1.10342
21
0.475569
0
LINE
8
BLACK
6
CONTINUOUS
10
1.10342
20
0.475569
11
1.10171
21
0.473015
0
LINE
8
BLACK
6
CONTINUOUS
10
1.10171
20
0.473015
11
1.09915
21
0.471308
0
LINE
8
BLACK
6
CONTINUOUS
10
1.09915
20
0.471308
11
1.09614
21
0.470709
0
LINE
8
BLACK
6
CONTINUOUS
10
1.09614
20
0.470709
11
0.963858
21
0.470709
0
LINE
8
BLACK
6
CONTINUOUS
10
0.963858
20
0.470709
11
0.960845
21
0.471308
0
LINE
8
BLACK
6
CONTINUOUS
10
0.960845
20
0.471308
11
0.958291
21
0.473015
0
LINE
8
BLACK
6
CONTINUOUS
10
0.958291
20
0.473015
11
0.956584
21
0.475569
0
LINE
8
BLACK
6
CONTINUOUS
10
0.956584
20
0.475569
11
0.955984
21
0.478583
0
LINE
8
BLACK
6
CONTINUOUS
10
0.955984
20
0.478583
11
0.955984
21
0.669921
0
LINE
8
BLACK
6
CONTINUOUS
10
0.955984
20
0.669921
11
0.956584
21
0.672935
0
LINE
8
BLACK
6
CONTINUOUS
10
0.956584
20
0.672935
11
0.958291
21
0.675489
0
LINE
8
BLACK
6
CONTINUOUS
10
0.958291
20
0.675489
11
0.960845
21
0.677196
0
LINE
8
BLACK
6
CONTINUOUS
10
0.960845
20
0.677196
11
0.963858
21
0.677795
0
LINE
8
BLACK
6
CONTINUOUS
10
0.963858
20
0.677795
11
1.09614
21
0.677795
0
LINE
8
BLACK
6
CONTINUOUS
10
1.09614
20
0.677795
11
1.09915
21
0.677196
0
LINE
8
BLACK
6
CONTINUOUS
10
1.21551
20
0.534775
11
1.21807
21
0.533068
0
LINE
8
BLACK
6
CONTINUOUS
10
1.21807
20
0.533068
11
1.21977
21
0.530513
0
LINE
8
BLACK
6
CONTINUOUS
10
1.21977
20
0.530513
11
1.22037
21
0.5275
0
LINE
8
BLACK
6
CONTINUOUS
10
1.22037
20
0.5275
11
1.22037
21
0.4925
0
LINE
8
BLACK
6
CONTINUOUS
10
1.22037
20
0.4925
11
1.21977
21
0.489487
0
LINE
8
BLACK
6
CONTINUOUS
10
1.21977
20
0.489487
11
1.21807
21
0.486932
0
LINE
8
BLACK
6
CONTINUOUS
10
1.21807
20
0.486932
11
1.21551
21
0.485225
0
LINE
8
BLACK
6
CONTINUOUS
10
1.21551
20
0.485225
11
1.2125
21
0.484626
0
LINE
8
BLACK
6
CONTINUOUS
10
1.2125
20
0.484626
11
1.1575
21
0.484626
0
LINE
8
BLACK
6
CONTINUOUS
10
1.1575
20
0.484626
11
1.15449
21
0.485225
0
LINE
8
BLACK
6
CONTINUOUS
10
1.15449
20
0.485225
11
1.15193
21
0.486932
0
LINE
8
BLACK
6
CONTINUOUS
10
1.15193
20
0.486932
11
1.15023
21
0.489487
0
LINE
8
BLACK
6
CONTINUOUS
10
1.15023
20
0.489487
11
1.14963
21
0.4925
0
LINE
8
BLACK
6
CONTINUOUS
10
1.14963
20
0.4925
11
1.14963
21
0.5275
0
LINE
8
BLACK
6
CONTINUOUS
10
1.14963
20
0.5275
11
1.15023
21
0.530513
0
LINE
8
BLACK
6
CONTINUOUS
10
1.15023
20
0.530513
11
1.15193
21
0.533068
0
LINE
8
BLACK
6
CONTINUOUS
10
1.15193
20
0.533068
11
1.15449
21
0.534775
0
LINE
8
BLACK
6
CONTINUOUS
10
1.15449
20
0.534775
11
1.1575
21
0.535374
0
LINE
8
BLACK
6
CONTINUOUS
10
1.1575
20
0.535374
11
1.2125
21
0.535374
0
LINE
8
BLACK
6
CONTINUOUS
10
1.2125
20
0.535374
11
1.21551
21
0.534775
0
LINE
8
BLACK
6
CONTINUOUS
10
0.407926
20
0.554166
11
0.412896
21
0.552421
0
LINE
8
BLACK
6
CONTINUOUS
10
0.412896
20
0.552421
11
0.417134
21
0.549291
0
LINE
8
BLACK
6
CONTINUOUS
10
0.417134
20
0.549291
11
0.420264
21
0.545054
0
LINE
8
BLACK
6
CONTINUOUS
10
0.420264
20
0.545054
11
0.422009
21
0.540084
0
LINE
8
BLACK
6
CONTINUOUS
10
0.422009
20
0.540084
11
0.422323
21
0.536764
0
LINE
8
BLACK
6
CONTINUOUS
10
0.422323
20
0.536764
11
0.422323
21
0.507236
0
LINE
8
BLACK
6
CONTINUOUS
10
0.422323
20
0.507236
11
0.422009
21
0.503916
0
LINE
8
BLACK
6
CONTINUOUS
10
0.422009
20
0.503916
11
0.420264
21
0.498946
0
LINE
8
BLACK
6
CONTINUOUS
10
0.420264
20
0.498946
11
0.417134
21
0.494709
0
LINE
8
BLACK
6
CONTINUOUS
10
0.417134
20
0.494709
11
0.412896
21
0.491579
0
LINE
8
BLACK
6
CONTINUOUS
10
0.412896
20
0.491579
11
0.407926
21
0.489834
0
LINE
8
BLACK
6
CONTINUOUS
10
0.407926
20
0.489834
11
0.404606
21
0.48952
0
LINE
8
BLACK
6
CONTINUOUS
10
0.404606
20
0.48952
11
0.355394
21
0.48952
0
LINE
8
BLACK
6
CONTINUOUS
10
0.355394
20
0.48952
11
0.352074
21
0.489834
0
LINE
8
BLACK
6
CONTINUOUS
10
0.352074
20
0.489834
11
0.347104
21
0.491579
0
LINE
8
BLACK
6
CONTINUOUS
10
0.347104
20
0.491579
11
0.342866
21
0.494709
0
LINE
8
BLACK
6
CONTINUOUS
10
0.342866
20
0.494709
11
0.339736
21
0.498946
0
LINE
8
BLACK
6
CONTINUOUS
10
0.339736
20
0.498946
11
0.337991
21
0.503916
0
LINE
8
BLACK
6
CONTINUOUS
10
0.337991
20
0.503916
11
0.337677
21
0.507236
0
LINE
8
BLACK
6
CONTINUOUS
10
0.337677
20
0.507236
11
0.337677
21
0.536764
0
LINE
8
BLACK
6
CONTINUOUS
10
0.337677
20
0.536764
11
0.337991
21
0.540084
0
LINE
8
BLACK
6
CONTINUOUS
10
0.337991
20
0.540084
11
0.339736
21
0.545054
0
LINE
8
BLACK
6
CONTINUOUS
10
0.339736
20
0.545054
11
0.342866
21
0.549291
0
LINE
8
BLACK
6
CONTINUOUS
10
0.342866
20
0.549291
11
0.347104
21
0.552421
0
LINE
8
BLACK
6
CONTINUOUS
10
0.347104
20
0.552421
11
0.352074
21
0.554166
0
LINE
8
BLACK
6
CONTINUOUS
10
0.352074
20
0.554166
11
0.355394
21
0.55448
0
LINE
8
BLACK
6
CONTINUOUS
10
0.355394
20
0.55448
11
0.404606
21
0.55448
0
LINE
8
BLACK
6
CONTINUOUS
10
0.404606
20
0.55448
11
0.407926
21
0.554166
0
LINE
8
BLACK
6
CONTINUOUS
10
0.507926
20
0.554403
11
0.512896
21
0.552657
0
LINE
8
BLACK
6
CONTINUOUS
10
0.512896
20
0.552657
11
0.517134
21
0.549527
0
LINE
8
BLACK
6
CONTINUOUS
10
0.517134
20
0.549527
11
0.520264
21
0.54529
0
LINE
8
BLACK
6
CONTINUOUS
10
0.520264
20
0.54529
11
0.522009
21
0.54032
0
LINE
8
BLACK
6
CONTINUOUS
10
0.522009
20
0.54032
11
0.522323
21
0.537
0
LINE
8
BLACK
6
CONTINUOUS
10
0.522323
20
0.537
11
0.522323
21
0.507472
0
LINE
8
BLACK
6
CONTINUOUS
10
0.522323
20
0.507472
11
0.522009
21
0.504153
0
LINE
8
BLACK
6
CONTINUOUS
10
0.522009
20
0.504153
11
0.520264
21
0.499182
0
LINE
8
BLACK
6
CONTINUOUS
10
0.520264
20
0.499182
11
0.517134
21
0.494945
0
LINE
8
BLACK
6
CONTINUOUS
10
0.517134
20
0.494945
11
0.512896
21
0.491815
0
LINE
8
BLACK
6
CONTINUOUS
10
0.512896
20
0.491815
11
0.507926
21
0.49007
0
LINE
8
BLACK
6
CONTINUOUS
10
0.507926
20
0.49007
11
0.504606
21
0.489756
0
LINE
8
BLACK
6
CONTINUOUS
10
0.504606
20
0.489756
11
0.455394
21
0.489756
0
LINE
8
BLACK
6
CONTINUOUS
10
0.455394
20
0.489756
11
0.452074
21
0.49007
0
LINE
8
BLACK
6
CONTINUOUS
10
0.452074
20
0.49007
11
0.447104
21
0.491815
0
LINE
8
BLACK
6
CONTINUOUS
10
0.447104
20
0.491815
11
0.442866
21
0.494945
0
LINE
8
BLACK
6
CONTINUOUS
10
0.442866
20
0.494945
11
0.439736
21
0.499182
0
LINE
8
BLACK
6
CONTINUOUS
10
0.439736
20
0.499182
11
0.437991
21
0.504153
0
LINE
8
BLACK
6
CONTINUOUS
10
0.437991
20
0.504153
11
0.437677
21
0.507472
0
LINE
8
BLACK
6
CONTINUOUS
10
0.437677
20
0.507472
11
0.437677
21
0.537
0
LINE
8
BLACK
6
CONTINUOUS
10
0.437677
20
0.537
11
0.437991
21
0.54032
0
LINE
8
BLACK
6
CONTINUOUS
10
0.437991
20
0.54032
11
0.439736
21
0.54529
0
LINE
8
BLACK
6
CONTINUOUS
10
0.439736
20
0.54529
11
0.442866
21
0.549527
0
LINE
8
BLACK
6
CONTINUOUS
10
0.442866
20
0.549527
11
0.447104
21
0.552657
0
LINE
8
BLACK
6
CONTINUOUS
10
0.447104
20
0.552657
11
0.452074
21
0.554403
0
LINE
8
BLACK
6
CONTINUOUS
10
0.452074
20
0.554403
11
0.455394
21
0.554717
0
LINE
8
BLACK
6
CONTINUOUS
10
0.455394
20
0.554717
11
0.504606
21
0.554717
0
LINE
8
BLACK
6
CONTINUOUS
10
0.504606
20
0.554717
11
0.507926
21
0.554403
0
LINE
8
BLACK
6
CONTINUOUS
10
0.631535
20
0.679111
11
0.6356
21
0.677124
0
LINE
8
BLACK
6
CONTINUOUS
10
0.6356
20
0.677124
11
0.638803
21
0.673927
0
LINE
8
BLACK
6
CONTINUOUS
10
0.638803
20
0.673927
11
0.640797
21
0.669865
0
LINE
8
BLACK
6
CONTINUOUS
10
0.640797
20
0.669865
11
0.641378
21
0.665906
0
LINE
8
BLACK
6
CONTINUOUS
10
0.641378
20
0.665906
11
0.641378
21
0.654094
0
LINE
8
BLACK
6
CONTINUOUS
10
0.641378
20
0.654094
11
0.640855
21
0.650509
0
LINE
8
BLACK
6
CONTINUOUS
10
0.640855
20
0.650509
11
0.642433
21
0.652646
0
LINE
8
BLACK
6
CONTINUOUS
10
0.642433
20
0.652646
11
0.646671
21
0.655775
0
LINE
8
BLACK
6
CONTINUOUS
10
0.646671
20
0.655775
11
0.651641
21
0.657521
0
LINE
8
BLACK
6
CONTINUOUS
10
0.651641
20
0.657521
11
0.654961
21
0.657835
0
LINE
8
BLACK
6
CONTINUOUS
10
0.654961
20
0.657835
11
0.730158
21
0.657835
0
LINE
8
BLACK
6
CONTINUOUS
10
0.730158
20
0.657835
11
0.733477
21
0.657521
0
LINE
8
BLACK
6
CONTINUOUS
10
0.733477
20
0.657521
11
0.738448
21
0.655775
0
LINE
8
BLACK
6
CONTINUOUS
10
0.738448
20
0.655775
11
0.742685
21
0.652646
0
LINE
8
BLACK
6
CONTINUOUS
10
0.742685
20
0.652646
11
0.744267
21
0.650503
0
LINE
8
BLACK
6
CONTINUOUS
10
0.744267
20
0.650503
11
0.74374
21
0.654094
0
LINE
8
BLACK
6
CONTINUOUS
10
0.74374
20
0.654094
11
0.74374
21
0.665906
0
LINE
8
BLACK
6
CONTINUOUS
10
0.74374
20
0.665906
11
0.744314
21
0.669842
0
LINE
8
BLACK
6
CONTINUOUS
10
0.744314
20
0.669842
11
0.746302
21
0.673907
0
LINE
8
BLACK
6
CONTINUOUS
10
0.746302
20
0.673907
11
0.749498
21
0.67711
0
LINE
8
BLACK
6
CONTINUOUS
10
0.749498
20
0.67711
11
0.75356
21
0.679104
0
LINE
8
BLACK
6
CONTINUOUS
10
0.75356
20
0.679104
11
0.75752
21
0.679685
0
LINE
8
BLACK
6
CONTINUOUS
10
0.75752
20
0.679685
11
0.82248
21
0.679685
0
LINE
8
BLACK
6
CONTINUOUS
10
0.82248
20
0.679685
11
0.826417
21
0.679111
0
LINE
8
BLACK
6
CONTINUOUS
10
0.826417
20
0.679111
11
0.830482
21
0.677124
0
LINE
8
BLACK
6
CONTINUOUS
10
0.830482
20
0.677124
11
0.833684
21
0.673927
0
LINE
8
BLACK
6
CONTINUOUS
10
0.833684
20
0.673927
11
0.835679
21
0.669865
0
LINE
8
BLACK
6
CONTINUOUS
10
0.835679
20
0.669865
11
0.83626
21
0.665906
0
LINE
8
BLACK
6
CONTINUOUS
10
0.83626
20
0.665906
11
0.83626
21
0.654094
0
LINE
8
BLACK
6
CONTINUOUS
10
0.83626
20
0.654094
11
0.835686
21
0.650158
0
LINE
8
BLACK
6
CONTINUOUS
10
0.835686
20
0.650158
11
0.833698
21
0.646093
0
LINE
8
BLACK
6
CONTINUOUS
10
0.833698
20
0.646093
11
0.830502
21
0.64289
0
LINE
8
BLACK
6
CONTINUOUS
10
0.830502
20
0.64289
11
0.82644
21
0.640896
0
LINE
8
BLACK
6
CONTINUOUS
10
0.82644
20
0.640896
11
0.82248
21
0.640315
0
LINE
8
BLACK
6
CONTINUOUS
10
0.82248
20
0.640315
11
0.75752
21
0.640315
0
LINE
8
BLACK
6
CONTINUOUS
10
0.75752
20
0.640315
11
0.753583
21
0.640889
0
LINE
8
BLACK
6
CONTINUOUS
10
0.753583
20
0.640889
11
0.749518
21
0.642876
0
LINE
8
BLACK
6
CONTINUOUS
10
0.749518
20
0.642876
11
0.746807
21
0.645582
0
LINE
8
BLACK
6
CONTINUOUS
10
0.746807
20
0.645582
11
0.74756
21
0.643438
0
LINE
8
BLACK
6
CONTINUOUS
10
0.74756
20
0.643438
11
0.747874
21
0.640118
0
LINE
8
BLACK
6
CONTINUOUS
10
0.747874
20
0.640118
11
0.747874
21
0.625482
0
LINE
8
BLACK
6
CONTINUOUS
10
0.747874
20
0.625482
11
0.749498
21
0.62711
0
LINE
8
BLACK
6
CONTINUOUS
10
0.749498
20
0.62711
11
0.75356
21
0.629104
0
LINE
8
BLACK
6
CONTINUOUS
10
0.75356
20
0.629104
11
0.75752
21
0.629685
0
LINE
8
BLACK
6
CONTINUOUS
10
0.75752
20
0.629685
11
0.82248
21
0.629685
0
LINE
8
BLACK
6
CONTINUOUS
10
0.82248
20
0.629685
11
0.826417
21
0.629111
0
LINE
8
BLACK
6
CONTINUOUS
10
0.826417
20
0.629111
11
0.830482
21
0.627124
0
LINE
8
BLACK
6
CONTINUOUS
10
0.830482
20
0.627124
11
0.833684
21
0.623927
0
LINE
8
BLACK
6
CONTINUOUS
10
0.833684
20
0.623927
11
0.835679
21
0.619865
0
LINE
8
BLACK
6
CONTINUOUS
10
0.835679
20
0.619865
11
0.83626
21
0.615906
0
LINE
8
BLACK
6
CONTINUOUS
10
0.83626
20
0.615906
11
0.83626
21
0.604094
0
LINE
8
BLACK
6
CONTINUOUS
10
0.83626
20
0.604094
11
0.835686
21
0.600158
0
LINE
8
BLACK
6
CONTINUOUS
10
0.835686
20
0.600158
11
0.833698
21
0.596093
0
LINE
8
BLACK
6
CONTINUOUS
10
0.833698
20
0.596093
11
0.830502
21
0.59289
0
LINE
8
BLACK
6
CONTINUOUS
10
0.830502
20
0.59289
11
0.82644
21
0.590896
0
LINE
8
BLACK
6
CONTINUOUS
10
0.82644
20
0.590896
11
0.82248
21
0.590315
0
LINE
8
BLACK
6
CONTINUOUS
10
0.82248
20
0.590315
11
0.75752
21
0.590315
0
LINE
8
BLACK
6
CONTINUOUS
10
0.75752
20
0.590315
11
0.753583
21
0.590889
0
LINE
8
BLACK
6
CONTINUOUS
10
0.753583
20
0.590889
11
0.749518
21
0.592876
0
LINE
8
BLACK
6
CONTINUOUS
10
0.749518
20
0.592876
11
0.747874
21
0.594517
0
LINE
8
BLACK
6
CONTINUOUS
10
0.747874
20
0.594517
11
0.747874
21
0.575482
0
LINE
8
BLACK
6
CONTINUOUS
10
0.747874
20
0.575482
11
0.749498
21
0.57711
0
LINE
8
BLACK
6
CONTINUOUS
10
0.749498
20
0.57711
11
0.75356
21
0.579104
0
LINE
8
BLACK
6
CONTINUOUS
10
0.75356
20
0.579104
11
0.75752
21
0.579685
0
LINE
8
BLACK
6
CONTINUOUS
10
0.75752
20
0.579685
11
0.82248
21
0.579685
0
LINE
8
BLACK
6
CONTINUOUS
10
0.82248
20
0.579685
11
0.826417
21
0.579111
0
LINE
8
BLACK
6
CONTINUOUS
10
0.826417
20
0.579111
11
0.830482
21
0.577124
0
LINE
8
BLACK
6
CONTINUOUS
10
0.830482
20
0.577124
11
0.833684
21
0.573927
0
LINE
8
BLACK
6
CONTINUOUS
10
0.833684
20
0.573927
11
0.835679
21
0.569865
0
LINE
8
BLACK
6
CONTINUOUS
10
0.835679
20
0.569865
11
0.83626
21
0.565906
0
LINE
8
BLACK
6
CONTINUOUS
10
0.83626
20
0.565906
11
0.83626
21
0.554094
0
LINE
8
BLACK
6
CONTINUOUS
10
0.83626
20
0.554094
11
0.835686
21
0.550158
0
LINE
8
BLACK
6
CONTINUOUS
10
0.835686
20
0.550158
11
0.833698
21
0.546093
0
LINE
8
BLACK
6
CONTINUOUS
10
0.833698
20
0.546093
11
0.830502
21
0.54289
0
LINE
8
BLACK
6
CONTINUOUS
10
0.830502
20
0.54289
11
0.82644
21
0.540896
0
LINE
8
BLACK
6
CONTINUOUS
10
0.82644
20
0.540896
11
0.82248
21
0.540315
0
LINE
8
BLACK
6
CONTINUOUS
10
0.82248
20
0.540315
11
0.75752
21
0.540315
0
LINE
8
BLACK
6
CONTINUOUS
10
0.75752
20
0.540315
11
0.753583
21
0.540889
0
LINE
8
BLACK
6
CONTINUOUS
10
0.753583
20
0.540889
11
0.749518
21
0.542876
0
LINE
8
BLACK
6
CONTINUOUS
10
0.749518
20
0.542876
11
0.747874
21
0.544517
0
LINE
8
BLACK
6
CONTINUOUS
10
0.747874
20
0.544517
11
0.747874
21
0.529882
0
LINE
8
BLACK
6
CONTINUOUS
10
0.747874
20
0.529882
11
0.74756
21
0.526562
0
LINE
8
BLACK
6
CONTINUOUS
10
0.74756
20
0.526562
11
0.746805
21
0.524412
0
LINE
8
BLACK
6
CONTINUOUS
10
0.746805
20
0.524412
11
0.749498
21
0.52711
0
LINE
8
BLACK
6
CONTINUOUS
10
0.749498
20
0.52711
11
0.75356
21
0.529104
0
LINE
8
BLACK
6
CONTINUOUS
10
0.75356
20
0.529104
11
0.75752
21
0.529685
0
LINE
8
BLACK
6
CONTINUOUS
10
0.75752
20
0.529685
11
0.82248
21
0.529685
0
LINE
8
BLACK
6
CONTINUOUS
10
0.82248
20
0.529685
11
0.826417
21
0.529111
0
LINE
8
BLACK
6
CONTINUOUS
10
0.826417
20
0.529111
11
0.830482
21
0.527124
0
LINE
8
BLACK
6
CONTINUOUS
10
0.830482
20
0.527124
11
0.833684
21
0.523927
0
LINE
8
BLACK
6
CONTINUOUS
10
0.833684
20
0.523927
11
0.835679
21
0.519865
0
LINE
8
BLACK
6
CONTINUOUS
10
0.835679
20
0.519865
11
0.83626
21
0.515906
0
LINE
8
BLACK
6
CONTINUOUS
10
0.83626
20
0.515906
11
0.83626
21
0.504094
0
LINE
8
BLACK
6
CONTINUOUS
10
0.83626
20
0.504094
11
0.835686
21
0.500158
0
LINE
8
BLACK
6
CONTINUOUS
10
0.835686
20
0.500158
11
0.833698
21
0.496093
0
LINE
8
BLACK
6
CONTINUOUS
10
0.833698
20
0.496093
11
0.830502
21
0.49289
0
LINE
8
BLACK
6
CONTINUOUS
10
0.830502
20
0.49289
11
0.82644
21
0.490896
0
LINE
8
BLACK
6
CONTINUOUS
10
0.82644
20
0.490896
11
0.82248
21
0.490315
0
LINE
8
BLACK
6
CONTINUOUS
10
0.82248
20
0.490315
11
0.75752
21
0.490315
0
LINE
8
BLACK
6
CONTINUOUS
10
0.75752
20
0.490315
11
0.753583
21
0.490889
0
LINE
8
BLACK
6
CONTINUOUS
10
0.753583
20
0.490889
11
0.749518
21
0.492876
0
LINE
8
BLACK
6
CONTINUOUS
10
0.749518
20
0.492876
11
0.746316
21
0.496073
0
LINE
8
BLACK
6
CONTINUOUS
10
0.746316
20
0.496073
11
0.744321
21
0.500135
0
LINE
8
BLACK
6
CONTINUOUS
10
0.744321
20
0.500135
11
0.74374
21
0.504094
0
LINE
8
BLACK
6
CONTINUOUS
10
0.74374
20
0.504094
11
0.74374
21
0.515906
0
LINE
8
BLACK
6
CONTINUOUS
10
0.74374
20
0.515906
11
0.744263
21
0.519491
0
LINE
8
BLACK
6
CONTINUOUS
10
0.744263
20
0.519491
11
0.742685
21
0.517354
0
LINE
8
BLACK
6
CONTINUOUS
10
0.742685
20
0.517354
11
0.738448
21
0.514225
0
LINE
8
BLACK
6
CONTINUOUS
10
0.738448
20
0.514225
11
0.733477
21
0.512479
0
LINE
8
BLACK
6
CONTINUOUS
10
0.733477
20
0.512479
11
0.730157
21
0.512165
0
LINE
8
BLACK
6
CONTINUOUS
10
0.730157
20
0.512165
11
0.654961
21
0.512165
0
LINE
8
BLACK
6
CONTINUOUS
10
0.654961
20
0.512165
11
0.651641
21
0.512479
0
LINE
8
BLACK
6
CONTINUOUS
10
0.651641
20
0.512479
11
0.646671
21
0.514225
0
LINE
8
BLACK
6
CONTINUOUS
10
0.646671
20
0.514225
11
0.642433
21
0.517354
0
LINE
8
BLACK
6
CONTINUOUS
10
0.642433
20
0.517354
11
0.640851
21
0.519497
0
LINE
8
BLACK
6
CONTINUOUS
10
0.640851
20
0.519497
11
0.641378
21
0.515906
0
LINE
8
BLACK
6
CONTINUOUS
10
0.641378
20
0.515906
11
0.641378
21
0.504094
0
LINE
8
BLACK
6
CONTINUOUS
10
0.641378
20
0.504094
11
0.640804
21
0.500158
0
LINE
8
BLACK
6
CONTINUOUS
10
0.640804
20
0.500158
11
0.638817
21
0.496093
0
LINE
8
BLACK
6
CONTINUOUS
10
0.638817
20
0.496093
11
0.63562
21
0.49289
0
LINE
8
BLACK
6
CONTINUOUS
10
0.63562
20
0.49289
11
0.631558
21
0.490896
0
LINE
8
BLACK
6
CONTINUOUS
10
0.631558
20
0.490896
11
0.627598
21
0.490315
0
LINE
8
BLACK
6
CONTINUOUS
10
0.627598
20
0.490315
11
0.562638
21
0.490315
0
LINE
8
BLACK
6
CONTINUOUS
10
0.562638
20
0.490315
11
0.558701
21
0.490889
0
LINE
8
BLACK
6
CONTINUOUS
10
0.558701
20
0.490889
11
0.554636
21
0.492876
0
LINE
8
BLACK
6
CONTINUOUS
10
0.554636
20
0.492876
11
0.551434
21
0.496073
0
LINE
8
BLACK
6
CONTINUOUS
10
0.551434
20
0.496073
11
0.549439
21
0.500135
0
LINE
8
BLACK
6
CONTINUOUS
10
0.549439
20
0.500135
11
0.548858
21
0.504094
0
LINE
8
BLACK
6
CONTINUOUS
10
0.548858
20
0.504094
11
0.548858
21
0.515906
0
LINE
8
BLACK
6
CONTINUOUS
10
0.548858
20
0.515906
11
0.549433
21
0.519842
0
LINE
8
BLACK
6
CONTINUOUS
10
0.549433
20
0.519842
11
0.55142
21
0.523907
0
LINE
8
BLACK
6
CONTINUOUS
10
0.55142
20
0.523907
11
0.554616
21
0.52711
0
LINE
8
BLACK
6
CONTINUOUS
10
0.554616
20
0.52711
11
0.558678
21
0.529104
0
LINE
8
BLACK
6
CONTINUOUS
10
0.558678
20
0.529104
11
0.562638
21
0.529685
0
LINE
8
BLACK
6
CONTINUOUS
10
0.562638
20
0.529685
11
0.627598
21
0.529685
0
LINE
8
BLACK
6
CONTINUOUS
10
0.627598
20
0.529685
11
0.631535
21
0.529111
0
LINE
8
BLACK
6
CONTINUOUS
10
0.631535
20
0.529111
11
0.6356
21
0.527124
0
LINE
8
BLACK
6
CONTINUOUS
10
0.6356
20
0.527124
11
0.638311
21
0.524418
0
LINE
8
BLACK
6
CONTINUOUS
10
0.638311
20
0.524418
11
0.637558
21
0.526562
0
LINE
8
BLACK
6
CONTINUOUS
10
0.637558
20
0.526562
11
0.637244
21
0.529882
0
LINE
8
BLACK
6
CONTINUOUS
10
0.637244
20
0.529882
11
0.637244
21
0.544518
0
LINE
8
BLACK
6
CONTINUOUS
10
0.637244
20
0.544518
11
0.63562
21
0.54289
0
LINE
8
BLACK
6
CONTINUOUS
10
0.63562
20
0.54289
11
0.631558
21
0.540896
0
LINE
8
BLACK
6
CONTINUOUS
10
0.631558
20
0.540896
11
0.627598
21
0.540315
0
LINE
8
BLACK
6
CONTINUOUS
10
0.627598
20
0.540315
11
0.562638
21
0.540315
0
LINE
8
BLACK
6
CONTINUOUS
10
0.562638
20
0.540315
11
0.558701
21
0.540889
0
LINE
8
BLACK
6
CONTINUOUS
10
0.558701
20
0.540889
11
0.554636
21
0.542876
0
LINE
8
BLACK
6
CONTINUOUS
10
0.554636
20
0.542876
11
0.551434
21
0.546073
0
LINE
8
BLACK
6
CONTINUOUS
10
0.551434
20
0.546073
11
0.549439
21
0.550135
0
LINE
8
BLACK
6
CONTINUOUS
10
0.549439
20
0.550135
11
0.548858
21
0.554094
0
LINE
8
BLACK
6
CONTINUOUS
10
0.548858
20
0.554094
11
0.548858
21
0.565906
0
LINE
8
BLACK
6
CONTINUOUS
10
0.548858
20
0.565906
11
0.549433
21
0.569842
0
LINE
8
BLACK
6
CONTINUOUS
10
0.549433
20
0.569842
11
0.55142
21
0.573907
0
LINE
8
BLACK
6
CONTINUOUS
10
0.55142
20
0.573907
11
0.554616
21
0.57711
0
LINE
8
BLACK
6
CONTINUOUS
10
0.554616
20
0.57711
11
0.558678
21
0.579104
0
LINE
8
BLACK
6
CONTINUOUS
10
0.558678
20
0.579104
11
0.562638
21
0.579685
0
LINE
8
BLACK
6
CONTINUOUS
10
0.562638
20
0.579685
11
0.627598
21
0.579685
0
LINE
8
BLACK
6
CONTINUOUS
10
0.627598
20
0.579685
11
0.631535
21
0.579111
0
LINE
8
BLACK
6
CONTINUOUS
10
0.631535
20
0.579111
11
0.6356
21
0.577124
0
LINE
8
BLACK
6
CONTINUOUS
10
0.6356
20
0.577124
11
0.637244
21
0.575483
0
LINE
8
BLACK
6
CONTINUOUS
10
0.637244
20
0.575483
11
0.637244
21
0.594518
0
LINE
8
BLACK
6
CONTINUOUS
10
0.637244
20
0.594518
11
0.63562
21
0.59289
0
LINE
8
BLACK
6
CONTINUOUS
10
0.63562
20
0.59289
11
0.631558
21
0.590896
0
LINE
8
BLACK
6
CONTINUOUS
10
0.631558
20
0.590896
11
0.627598
21
0.590315
0
LINE
8
BLACK
6
CONTINUOUS
10
0.627598
20
0.590315
11
0.562638
21
0.590315
0
LINE
8
BLACK
6
CONTINUOUS
10
0.562638
20
0.590315
11
0.558701
21
0.590889
0
LINE
8
BLACK
6
CONTINUOUS
10
0.558701
20
0.590889
11
0.554636
21
0.592876
0
LINE
8
BLACK
6
CONTINUOUS
10
0.554636
20
0.592876
11
0.551434
21
0.596073
0
LINE
8
BLACK
6
CONTINUOUS
10
0.551434
20
0.596073
11
0.549439
21
0.600135
0
LINE
8
BLACK
6
CONTINUOUS
10
0.549439
20
0.600135
11
0.548858
21
0.604094
0
LINE
8
BLACK
6
CONTINUOUS
10
0.548858
20
0.604094
11
0.548858
21
0.615906
0
LINE
8
BLACK
6
CONTINUOUS
10
0.548858
20
0.615906
11
0.549433
21
0.619842
0
LINE
8
BLACK
6
CONTINUOUS
10
0.549433
20
0.619842
11
0.55142
21
0.623907
0
LINE
8
BLACK
6
CONTINUOUS
10
0.55142
20
0.623907
11
0.554616
21
0.62711
0
LINE
8
BLACK
6
CONTINUOUS
10
0.554616
20
0.62711
11
0.558678
21
0.629104
0
LINE
8
BLACK
6
CONTINUOUS
10
0.558678
20
0.629104
11
0.562638
21
0.629685
0
LINE
8
BLACK
6
CONTINUOUS
10
0.562638
20
0.629685
11
0.627598
21
0.629685
0
LINE
8
BLACK
6
CONTINUOUS
10
0.627598
20
0.629685
11
0.631535
21
0.629111
0
LINE
8
BLACK
6
CONTINUOUS
10
0.631535
20
0.629111
11
0.6356
21
0.627124
0
LINE
8
BLACK
6
CONTINUOUS
10
0.6356
20
0.627124
11
0.637244
21
0.625483
0
LINE
8
BLACK
6
CONTINUOUS
10
0.637244
20
0.625483
11
0.637244
21
0.640118
0
LINE
8
BLACK
6
CONTINUOUS
10
0.637244
20
0.640118
11
0.637558
21
0.643438
0
LINE
8
BLACK
6
CONTINUOUS
10
0.637558
20
0.643438
11
0.638313
21
0.645588
0
LINE
8
BLACK
6
CONTINUOUS
10
0.638313
20
0.645588
11
0.63562
21
0.64289
0
LINE
8
BLACK
6
CONTINUOUS
10
0.63562
20
0.64289
11
0.631558
21
0.640896
0
LINE
8
BLACK
6
CONTINUOUS
10
0.631558
20
0.640896
11
0.627598
21
0.640315
0
LINE
8
BLACK
6
CONTINUOUS
10
0.627598
20
0.640315
11
0.562638
21
0.640315
0
LINE
8
BLACK
6
CONTINUOUS
10
0.562638
20
0.640315
11
0.558701
21
0.640889
0
LINE
8
BLACK
6
CONTINUOUS
10
0.558701
20
0.640889
11
0.554636
21
0.642876
0
LINE
8
BLACK
6
CONTINUOUS
10
0.554636
20
0.642876
11
0.551434
21
0.646073
0
LINE
8
BLACK
6
CONTINUOUS
10
0.551434
20
0.646073
11
0.549439
21
0.650135
0
LINE
8
BLACK
6
CONTINUOUS
10
0.549439
20
0.650135
11
0.548858
21
0.654094
0
LINE
8
BLACK
6
CONTINUOUS
10
0.548858
20
0.654094
11
0.548858
21
0.665906
0
LINE
8
BLACK
6
CONTINUOUS
10
0.548858
20
0.665906
11
0.549433
21
0.669842
0
LINE
8
BLACK
6
CONTINUOUS
10
0.549433
20
0.669842
11
0.55142
21
0.673907
0
LINE
8
BLACK
6
CONTINUOUS
10
0.55142
20
0.673907
11
0.554616
21
0.67711
0
LINE
8
BLACK
6
CONTINUOUS
10
0.554616
20
0.67711
11
0.558678
21
0.679104
0
LINE
8
BLACK
6
CONTINUOUS
10
0.558678
20
0.679104
11
0.562638
21
0.679685
0
LINE
8
BLACK
6
CONTINUOUS
10
0.562638
20
0.679685
11
0.627598
21
0.679685
0
LINE
8
BLACK
6
CONTINUOUS
10
0.627598
20
0.679685
11
0.631535
21
0.679111
0
LINE
8
BLACK
6
CONTINUOUS
10
0.107926
20
0.556166
11
0.112896
21
0.554421
0
LINE
8
BLACK
6
CONTINUOUS
10
0.112896
20
0.554421
11
0.117134
21
0.551291
0
LINE
8
BLACK
6
CONTINUOUS
10
0.117134
20
0.551291
11
0.120264
21
0.547054
0
LINE
8
BLACK
6
CONTINUOUS
10
0.120264
20
0.547054
11
0.122009
21
0.542084
0
LINE
8
BLACK
6
CONTINUOUS
10
0.122009
20
0.542084
11
0.122323
21
0.538764
0
LINE
8
BLACK
6
CONTINUOUS
10
0.122323
20
0.538764
11
0.122323
21
0.509236
0
LINE
8
BLACK
6
CONTINUOUS
10
0.122323
20
0.509236
11
0.122009
21
0.505916
0
LINE
8
BLACK
6
CONTINUOUS
10
0.122009
20
0.505916
11
0.120264
21
0.500946
0
LINE
8
BLACK
6
CONTINUOUS
10
0.120264
20
0.500946
11
0.117134
21
0.496709
0
LINE
8
BLACK
6
CONTINUOUS
10
0.117134
20
0.496709
11
0.112896
21
0.493579
0
LINE
8
BLACK
6
CONTINUOUS
10
0.112896
20
0.493579
11
0.107926
21
0.491834
0
LINE
8
BLACK
6
CONTINUOUS
10
0.107926
20
0.491834
11
0.104606
21
0.49152
0
LINE
8
BLACK
6
CONTINUOUS
10
0.104606
20
0.49152
11
0.0553937
21
0.49152
0
LINE
8
BLACK
6
CONTINUOUS
10
0.0553937
20
0.49152
11
0.0520739
21
0.491834
0
LINE
8
BLACK
6
CONTINUOUS
10
0.0520739
20
0.491834
11
0.0471036
21
0.493579
0
LINE
8
BLACK
6
CONTINUOUS
10
0.0471036
20
0.493579
11
0.0428662
21
0.496709
0
LINE
8
BLACK
6
CONTINUOUS
10
0.0428662
20
0.496709
11
0.0397364
21
0.500946
0
LINE
8
BLACK
6
CONTINUOUS
10
0.0397364
20
0.500946
11
0.037991
21
0.505916
0
LINE
8
BLACK
6
CONTINUOUS
10
0.037991
20
0.505916
11
0.0376772
21
0.509236
0
LINE
8
BLACK
6
CONTINUOUS
10
0.0376772
20
0.509236
11
0.0376772
21
0.538764
0
LINE
8
BLACK
6
CONTINUOUS
10
0.0376772
20
0.538764
11
0.037991
21
0.542084
0
LINE
8
BLACK
6
CONTINUOUS
10
0.037991
20
0.542084
11
0.0397364
21
0.547054
0
LINE
8
BLACK
6
CONTINUOUS
10
0.0397364
20
0.547054
11
0.0428662
21
0.551291
0
LINE
8
BLACK
6
CONTINUOUS
10
0.0428662
20
0.551291
11
0.0471036
21
0.554421
0
LINE
8
BLACK
6
CONTINUOUS
10
0.0471036
20
0.554421
11
0.0520739
21
0.556166
0
LINE
8
BLACK
6
CONTINUOUS
10
0.0520739
20
0.556166
11
0.0553937
21
0.55648
0
LINE
8
BLACK
6
CONTINUOUS
10
0.0553937
20
0.55648
11
0.104606
21
0.55648
0
LINE
8
BLACK
6
CONTINUOUS
10
0.104606
20
0.55648
11
0.107926
21
0.556166
0
LINE
8
BLACK
6
CONTINUOUS
10
0.307926
20
0.556166
11
0.312896
21
0.554421
0
LINE
8
BLACK
6
CONTINUOUS
10
0.312896
20
0.554421
11
0.317134
21
0.551291
0
LINE
8
BLACK
6
CONTINUOUS
10
0.317134
20
0.551291
11
0.320264
21
0.547054
0
LINE
8
BLACK
6
CONTINUOUS
10
0.320264
20
0.547054
11
0.322009
21
0.542084
0
LINE
8
BLACK
6
CONTINUOUS
10
0.322009
20
0.542084
11
0.322323
21
0.538764
0
LINE
8
BLACK
6
CONTINUOUS
10
0.322323
20
0.538764
11
0.322323
21
0.509236
0
LINE
8
BLACK
6
CONTINUOUS
10
0.322323
20
0.509236
11
0.322009
21
0.505916
0
LINE
8
BLACK
6
CONTINUOUS
10
0.322009
20
0.505916
11
0.320264
21
0.500946
0
LINE
8
BLACK
6
CONTINUOUS
10
0.320264
20
0.500946
11
0.317134
21
0.496709
0
LINE
8
BLACK
6
CONTINUOUS
10
0.317134
20
0.496709
11
0.312896
21
0.493579
0
LINE
8
BLACK
6
CONTINUOUS
10
0.312896
20
0.493579
11
0.307926
21
0.491834
0
LINE
8
BLACK
6
CONTINUOUS
10
0.307926
20
0.491834
11
0.304606
21
0.49152
0
LINE
8
BLACK
6
CONTINUOUS
10
0.304606
20
0.49152
11
0.255394
21
0.49152
0
LINE
8
BLACK
6
CONTINUOUS
10
0.255394
20
0.49152
11
0.252074
21
0.491834
0
LINE
8
BLACK
6
CONTINUOUS
10
0.252074
20
0.491834
11
0.247104
21
0.493579
0
LINE
8
BLACK
6
CONTINUOUS
10
0.247104
20
0.493579
11
0.242866
21
0.496709
0
LINE
8
BLACK
6
CONTINUOUS
10
0.242866
20
0.496709
11
0.239736
21
0.500946
0
LINE
8
BLACK
6
CONTINUOUS
10
0.239736
20
0.500946
11
0.237991
21
0.505916
0
LINE
8
BLACK
6
CONTINUOUS
10
0.237991
20
0.505916
11
0.237677
21
0.509236
0
LINE
8
BLACK
6
CONTINUOUS
10
0.237677
20
0.509236
11
0.237677
21
0.538764
0
LINE
8
BLACK
6
CONTINUOUS
10
0.237677
20
0.538764
11
0.237991
21
0.542084
0
LINE
8
BLACK
6
CONTINUOUS
10
0.237991
20
0.542084
11
0.239736
21
0.547054
0
LINE
8
BLACK
6
CONTINUOUS
10
0.239736
20
0.547054
11
0.242866
21
0.551291
0
LINE
8
BLACK
6
CONTINUOUS
10
0.242866
20
0.551291
11
0.247104
21
0.554421
0
LINE
8
BLACK
6
CONTINUOUS
10
0.247104
20
0.554421
11
0.252074
21
0.556166
0
LINE
8
BLACK
6
CONTINUOUS
10
0.252074
20
0.556166
11
0.255394
21
0.55648
0
LINE
8
BLACK
6
CONTINUOUS
10
0.255394
20
0.55648
11
0.304606
21
0.55648
0
LINE
8
BLACK
6
CONTINUOUS
10
0.304606
20
0.55648
11
0.307926
21
0.556166
0
LINE
8
BLACK
6
CONTINUOUS
10
0.207926
20
0.556166
11
0.212896
21
0.554421
0
LINE
8
BLACK
6
CONTINUOUS
10
0.212896
20
0.554421
11
0.217134
21
0.551291
0
LINE
8
BLACK
6
CONTINUOUS
10
0.217134
20
0.551291
11
0.220264
21
0.547054
0
LINE
8
BLACK
6
CONTINUOUS
10
0.220264
20
0.547054
11
0.222009
21
0.542084
0
LINE
8
BLACK
6
CONTINUOUS
10
0.222009
20
0.542084
11
0.222323
21
0.538764
0
LINE
8
BLACK
6
CONTINUOUS
10
0.222323
20
0.538764
11
0.222323
21
0.509236
0
LINE
8
BLACK
6
CONTINUOUS
10
0.222323
20
0.509236
11
0.222009
21
0.505916
0
LINE
8
BLACK
6
CONTINUOUS
10
0.222009
20
0.505916
11
0.220264
21
0.500946
0
LINE
8
BLACK
6
CONTINUOUS
10
0.220264
20
0.500946
11
0.217134
21
0.496709
0
LINE
8
BLACK
6
CONTINUOUS
10
0.217134
20
0.496709
11
0.212896
21
0.493579
0
LINE
8
BLACK
6
CONTINUOUS
10
0.212896
20
0.493579
11
0.207926
21
0.491834
0
LINE
8
BLACK
6
CONTINUOUS
10
0.207926
20
0.491834
11
0.204606
21
0.49152
0
LINE
8
BLACK
6
CONTINUOUS
10
0.204606
20
0.49152
11
0.155394
21
0.49152
0
LINE
8
BLACK
6
CONTINUOUS
10
0.155394
20
0.49152
11
0.152074
21
0.491834
0
LINE
8
BLACK
6
CONTINUOUS
10
0.152074
20
0.491834
11
0.147104
21
0.493579
0
LINE
8
BLACK
6
CONTINUOUS
10
0.147104
20
0.493579
11
0.142866
21
0.496709
0
LINE
8
BLACK
6
CONTINUOUS
10
0.142866
20
0.496709
11
0.139736
21
0.500946
0
LINE
8
BLACK
6
CONTINUOUS
10
0.139736
20
0.500946
11
0.137991
21
0.505916
0
LINE
8
BLACK
6
CONTINUOUS
10
0.137991
20
0.505916
11
0.137677
21
0.509236
0
LINE
8
BLACK
6
CONTINUOUS
10
0.137677
20
0.509236
11
0.137677
21
0.538764
0
LINE
8
BLACK
6
CONTINUOUS
10
0.137677
20
0.538764
11
0.137991
21
0.542084
0
LINE
8
BLACK
6
CONTINUOUS
10
0.137991
20
0.542084
11
0.139736
21
0.547054
0
LINE
8
BLACK
6
CONTINUOUS
10
0.139736
20
0.547054
11
0.142866
21
0.551291
0
LINE
8
BLACK
6
CONTINUOUS
10
0.142866
20
0.551291
11
0.147104
21
0.554421
0
LINE
8
BLACK
6
CONTINUOUS
10
0.147104
20
0.554421
11
0.152074
21
0.556166
0
LINE
8
BLACK
6
CONTINUOUS
10
0.152074
20
0.556166
11
0.155394
21
0.55648
0
LINE
8
BLACK
6
CONTINUOUS
10
0.155394
20
0.55648
11
0.204606
21
0.55648
0
LINE
8
BLACK
6
CONTINUOUS
10
0.204606
20
0.55648
11
0.207926
21
0.556166
0
LINE
8
BLACK
6
CONTINUOUS
10
1.37179
20
0.559086
11
1.37435
21
0.557379
0
LINE
8
BLACK
6
CONTINUOUS
10
1.37435
20
0.557379
11
1.37605
21
0.554824
0
LINE
8
BLACK
6
CONTINUOUS
10
1.37605
20
0.554824
11
1.37665
21
0.551811
0
LINE
8
BLACK
6
CONTINUOUS
10
1.37665
20
0.551811
11
1.37665
21
0.528189
0
LINE
8
BLACK
6
CONTINUOUS
10
1.37665
20
0.528189
11
1.37605
21
0.525176
0
LINE
8
BLACK
6
CONTINUOUS
10
1.37605
20
0.525176
11
1.37435
21
0.522621
0
LINE
8
BLACK
6
CONTINUOUS
10
1.37435
20
0.522621
11
1.37179
21
0.520914
0
LINE
8
BLACK
6
CONTINUOUS
10
1.37179
20
0.520914
11
1.36878
21
0.520315
0
LINE
8
BLACK
6
CONTINUOUS
10
1.36878
20
0.520315
11
1.34122
21
0.520315
0
LINE
8
BLACK
6
CONTINUOUS
10
1.34122
20
0.520315
11
1.33821
21
0.520914
0
LINE
8
BLACK
6
CONTINUOUS
10
1.33821
20
0.520914
11
1.33565
21
0.522621
0
LINE
8
BLACK
6
CONTINUOUS
10
1.33565
20
0.522621
11
1.33395
21
0.525176
0
LINE
8
BLACK
6
CONTINUOUS
10
1.33395
20
0.525176
11
1.33335
21
0.528189
0
LINE
8
BLACK
6
CONTINUOUS
10
1.33335
20
0.528189
11
1.33335
21
0.551811
0
LINE
8
BLACK
6
CONTINUOUS
10
1.33335
20
0.551811
11
1.33395
21
0.554824
0
LINE
8
BLACK
6
CONTINUOUS
10
1.33395
20
0.554824
11
1.33565
21
0.557379
0
LINE
8
BLACK
6
CONTINUOUS
10
1.33565
20
0.557379
11
1.33821
21
0.559086
0
LINE
8
BLACK
6
CONTINUOUS
10
1.33821
20
0.559086
11
1.34122
21
0.559685
0
LINE
8
BLACK
6
CONTINUOUS
10
1.34122
20
0.559685
11
1.36878
21
0.559685
0
LINE
8
BLACK
6
CONTINUOUS
10
1.36878
20
0.559685
11
1.37179
21
0.559086
0
LINE
8
BLACK
6
CONTINUOUS
10
1.30051
20
0.579775
11
1.30307
21
0.578068
0
LINE
8
BLACK
6
CONTINUOUS
10
1.30307
20
0.578068
11
1.30477
21
0.575513
0
LINE
8
BLACK
6
CONTINUOUS
10
1.30477
20
0.575513
11
1.30537
21
0.5725
0
LINE
8
BLACK
6
CONTINUOUS
10
1.30537
20
0.5725
11
1.30537
21
0.5375
0
LINE
8
BLACK
6
CONTINUOUS
10
1.30537
20
0.5375
11
1.30477
21
0.534487
0
LINE
8
BLACK
6
CONTINUOUS
10
1.30477
20
0.534487
11
1.30307
21
0.531932
0
LINE
8
BLACK
6
CONTINUOUS
10
1.30307
20
0.531932
11
1.30051
21
0.530225
0
LINE
8
BLACK
6
CONTINUOUS
10
1.30051
20
0.530225
11
1.2975
21
0.529626
0
LINE
8
BLACK
6
CONTINUOUS
10
1.2975
20
0.529626
11
1.2425
21
0.529626
0
LINE
8
BLACK
6
CONTINUOUS
10
1.2425
20
0.529626
11
1.23949
21
0.530225
0
LINE
8
BLACK
6
CONTINUOUS
10
1.23949
20
0.530225
11
1.23693
21
0.531932
0
LINE
8
BLACK
6
CONTINUOUS
10
1.23693
20
0.531932
11
1.23523
21
0.534487
0
LINE
8
BLACK
6
CONTINUOUS
10
1.23523
20
0.534487
11
1.23463
21
0.5375
0
LINE
8
BLACK
6
CONTINUOUS
10
1.23463
20
0.5375
11
1.23463
21
0.5725
0
LINE
8
BLACK
6
CONTINUOUS
10
1.23463
20
0.5725
11
1.23523
21
0.575513
0
LINE
8
BLACK
6
CONTINUOUS
10
1.23523
20
0.575513
11
1.23693
21
0.578068
0
LINE
8
BLACK
6
CONTINUOUS
10
1.23693
20
0.578068
11
1.23949
21
0.579775
0
LINE
8
BLACK
6
CONTINUOUS
10
1.23949
20
0.579775
11
1.2425
21
0.580374
0
LINE
8
BLACK
6
CONTINUOUS
10
1.2425
20
0.580374
11
1.2975
21
0.580374
0
LINE
8
BLACK
6
CONTINUOUS
10
1.2975
20
0.580374
11
1.30051
21
0.579775
0
LINE
8
BLACK
6
CONTINUOUS
10
1.73899
20
0.617993
11
1.74396
21
0.616248
0
LINE
8
BLACK
6
CONTINUOUS
10
1.74396
20
0.616248
11
1.7482
21
0.613118
0
LINE
8
BLACK
6
CONTINUOUS
10
1.7482
20
0.613118
11
1.75133
21
0.608881
0
LINE
8
BLACK
6
CONTINUOUS
10
1.75133
20
0.608881
11
1.75307
21
0.60391
0
LINE
8
BLACK
6
CONTINUOUS
10
1.75307
20
0.60391
11
1.75339
21
0.600591
0
LINE
8
BLACK
6
CONTINUOUS
10
1.75339
20
0.600591
11
1.75339
21
0.549409
0
LINE
8
BLACK
6
CONTINUOUS
10
1.75339
20
0.549409
11
1.75307
21
0.54609
0
LINE
8
BLACK
6
CONTINUOUS
10
1.75307
20
0.54609
11
1.75133
21
0.541119
0
LINE
8
BLACK
6
CONTINUOUS
10
1.75133
20
0.541119
11
1.7482
21
0.536882
0
LINE
8
BLACK
6
CONTINUOUS
10
1.7482
20
0.536882
11
1.74396
21
0.533752
0
LINE
8
BLACK
6
CONTINUOUS
10
1.74396
20
0.533752
11
1.73899
21
0.532007
0
LINE
8
BLACK
6
CONTINUOUS
10
1.73899
20
0.532007
11
1.73567
21
0.531693
0
LINE
8
BLACK
6
CONTINUOUS
10
1.73567
20
0.531693
11
1.62543
21
0.531693
0
LINE
8
BLACK
6
CONTINUOUS
10
1.62543
20
0.531693
11
1.62211
21
0.532007
0
LINE
8
BLACK
6
CONTINUOUS
10
1.62211
20
0.532007
11
1.61714
21
0.533752
0
LINE
8
BLACK
6
CONTINUOUS
10
1.61714
20
0.533752
11
1.61291
21
0.536882
0
LINE
8
BLACK
6
CONTINUOUS
10
1.61291
20
0.536882
11
1.60978
21
0.541119
0
LINE
8
BLACK
6
CONTINUOUS
10
1.60978
20
0.541119
11
1.60803
21
0.54609
0
LINE
8
BLACK
6
CONTINUOUS
10
1.60803
20
0.54609
11
1.60772
21
0.549409
0
LINE
8
BLACK
6
CONTINUOUS
10
1.60772
20
0.549409
11
1.60772
21
0.600591
0
LINE
8
BLACK
6
CONTINUOUS
10
1.60772
20
0.600591
11
1.60803
21
0.60391
0
LINE
8
BLACK
6
CONTINUOUS
10
1.60803
20
0.60391
11
1.60978
21
0.608881
0
LINE
8
BLACK
6
CONTINUOUS
10
1.60978
20
0.608881
11
1.61291
21
0.613118
0
LINE
8
BLACK
6
CONTINUOUS
10
1.61291
20
0.613118
11
1.61714
21
0.616248
0
LINE
8
BLACK
6
CONTINUOUS
10
1.61714
20
0.616248
11
1.62211
21
0.617993
0
LINE
8
BLACK
6
CONTINUOUS
10
1.62211
20
0.617993
11
1.62543
21
0.618307
0
LINE
8
BLACK
6
CONTINUOUS
10
1.62543
20
0.618307
11
1.73567
21
0.618307
0
LINE
8
BLACK
6
CONTINUOUS
10
1.73567
20
0.618307
11
1.73899
21
0.617993
0
LINE
8
BLACK
6
CONTINUOUS
10
1.21551
20
0.609775
11
1.21807
21
0.608068
0
LINE
8
BLACK
6
CONTINUOUS
10
1.21807
20
0.608068
11
1.21977
21
0.605513
0
LINE
8
BLACK
6
CONTINUOUS
10
1.21977
20
0.605513
11
1.22037
21
0.6025
0
LINE
8
BLACK
6
CONTINUOUS
10
1.22037
20
0.6025
11
1.22037
21
0.5675
0
LINE
8
BLACK
6
CONTINUOUS
10
1.22037
20
0.5675
11
1.21977
21
0.564487
0
LINE
8
BLACK
6
CONTINUOUS
10
1.21977
20
0.564487
11
1.21807
21
0.561932
0
LINE
8
BLACK
6
CONTINUOUS
10
1.21807
20
0.561932
11
1.21551
21
0.560225
0
LINE
8
BLACK
6
CONTINUOUS
10
1.21551
20
0.560225
11
1.2125
21
0.559626
0
LINE
8
BLACK
6
CONTINUOUS
10
1.2125
20
0.559626
11
1.1575
21
0.559626
0
LINE
8
BLACK
6
CONTINUOUS
10
1.1575
20
0.559626
11
1.15449
21
0.560225
0
LINE
8
BLACK
6
CONTINUOUS
10
1.15449
20
0.560225
11
1.15193
21
0.561932
0
LINE
8
BLACK
6
CONTINUOUS
10
1.15193
20
0.561932
11
1.15023
21
0.564487
0
LINE
8
BLACK
6
CONTINUOUS
10
1.15023
20
0.564487
11
1.14963
21
0.5675
0
LINE
8
BLACK
6
CONTINUOUS
10
1.14963
20
0.5675
11
1.14963
21
0.6025
0
LINE
8
BLACK
6
CONTINUOUS
10
1.14963
20
0.6025
11
1.15023
21
0.605513
0
LINE
8
BLACK
6
CONTINUOUS
10
1.15023
20
0.605513
11
1.15193
21
0.608068
0
LINE
8
BLACK
6
CONTINUOUS
10
1.15193
20
0.608068
11
1.15449
21
0.609775
0
LINE
8
BLACK
6
CONTINUOUS
10
1.15449
20
0.609775
11
1.1575
21
0.610374
0
LINE
8
BLACK
6
CONTINUOUS
10
1.1575
20
0.610374
11
1.2125
21
0.610374
0
LINE
8
BLACK
6
CONTINUOUS
10
1.2125
20
0.610374
11
1.21551
21
0.609775
0
LINE
8
BLACK
6
CONTINUOUS
10
0.456513
20
0.631775
11
0.459068
21
0.630068
0
LINE
8
BLACK
6
CONTINUOUS
10
0.459068
20
0.630068
11
0.460775
21
0.627513
0
LINE
8
BLACK
6
CONTINUOUS
10
0.460775
20
0.627513
11
0.461374
21
0.6245
0
LINE
8
BLACK
6
CONTINUOUS
10
0.461374
20
0.6245
11
0.461374
21
0.5895
0
LINE
8
BLACK
6
CONTINUOUS
10
0.461374
20
0.5895
11
0.460775
21
0.586487
0
LINE
8
BLACK
6
CONTINUOUS
10
0.460775
20
0.586487
11
0.459068
21
0.583932
0
LINE
8
BLACK
6
CONTINUOUS
10
0.459068
20
0.583932
11
0.456513
21
0.582225
0
LINE
8
BLACK
6
CONTINUOUS
10
0.456513
20
0.582225
11
0.4535
21
0.581626
0
LINE
8
BLACK
6
CONTINUOUS
10
0.4535
20
0.581626
11
0.3985
21
0.581626
0
LINE
8
BLACK
6
CONTINUOUS
10
0.3985
20
0.581626
11
0.395487
21
0.582225
0
LINE
8
BLACK
6
CONTINUOUS
10
0.395487
20
0.582225
11
0.392932
21
0.583932
0
LINE
8
BLACK
6
CONTINUOUS
10
0.392932
20
0.583932
11
0.391225
21
0.586487
0
LINE
8
BLACK
6
CONTINUOUS
10
0.391225
20
0.586487
11
0.390626
21
0.5895
0
LINE
8
BLACK
6
CONTINUOUS
10
0.390626
20
0.5895
11
0.390626
21
0.6245
0
LINE
8
BLACK
6
CONTINUOUS
10
0.390626
20
0.6245
11
0.391225
21
0.627513
0
LINE
8
BLACK
6
CONTINUOUS
10
0.391225
20
0.627513
11
0.392932
21
0.630068
0
LINE
8
BLACK
6
CONTINUOUS
10
0.392932
20
0.630068
11
0.395487
21
0.631775
0
LINE
8
BLACK
6
CONTINUOUS
10
0.395487
20
0.631775
11
0.3985
21
0.632374
0
LINE
8
BLACK
6
CONTINUOUS
10
0.3985
20
0.632374
11
0.4535
21
0.632374
0
LINE
8
BLACK
6
CONTINUOUS
10
0.4535
20
0.632374
11
0.456513
21
0.631775
0
LINE
8
BLACK
6
CONTINUOUS
10
0.361926
20
0.649048
11
0.366896
21
0.647303
0
LINE
8
BLACK
6
CONTINUOUS
10
0.366896
20
0.647303
11
0.371134
21
0.644173
0
LINE
8
BLACK
6
CONTINUOUS
10
0.371134
20
0.644173
11
0.374264
21
0.639936
0
LINE
8
BLACK
6
CONTINUOUS
10
0.374264
20
0.639936
11
0.376009
21
0.634965
0
LINE
8
BLACK
6
CONTINUOUS
10
0.376009
20
0.634965
11
0.376323
21
0.631646
0
LINE
8
BLACK
6
CONTINUOUS
10
0.376323
20
0.631646
11
0.376323
21
0.602118
0
LINE
8
BLACK
6
CONTINUOUS
10
0.376323
20
0.602118
11
0.376009
21
0.598798
0
LINE
8
BLACK
6
CONTINUOUS
10
0.376009
20
0.598798
11
0.374264
21
0.593828
0
LINE
8
BLACK
6
CONTINUOUS
10
0.374264
20
0.593828
11
0.371134
21
0.589591
0
LINE
8
BLACK
6
CONTINUOUS
10
0.371134
20
0.589591
11
0.366896
21
0.586461
0
LINE
8
BLACK
6
CONTINUOUS
10
0.366896
20
0.586461
11
0.361926
21
0.584715
0
LINE
8
BLACK
6
CONTINUOUS
10
0.361926
20
0.584715
11
0.358606
21
0.584402
0
LINE
8
BLACK
6
CONTINUOUS
10
0.358606
20
0.584402
11
0.309394
21
0.584402
0
LINE
8
BLACK
6
CONTINUOUS
10
0.309394
20
0.584402
11
0.306074
21
0.584715
0
LINE
8
BLACK
6
CONTINUOUS
10
0.306074
20
0.584715
11
0.301104
21
0.586461
0
LINE
8
BLACK
6
CONTINUOUS
10
0.301104
20
0.586461
11
0.296866
21
0.589591
0
LINE
8
BLACK
6
CONTINUOUS
10
0.296866
20
0.589591
11
0.293736
21
0.593828
0
LINE
8
BLACK
6
CONTINUOUS
10
0.293736
20
0.593828
11
0.291991
21
0.598798
0
LINE
8
BLACK
6
CONTINUOUS
10
0.291991
20
0.598798
11
0.291677
21
0.602118
0
LINE
8
BLACK
6
CONTINUOUS
10
0.291677
20
0.602118
11
0.291677
21
0.631646
0
LINE
8
BLACK
6
CONTINUOUS
10
0.291677
20
0.631646
11
0.291991
21
0.634965
0
LINE
8
BLACK
6
CONTINUOUS
10
0.291991
20
0.634965
11
0.293736
21
0.639936
0
LINE
8
BLACK
6
CONTINUOUS
10
0.293736
20
0.639936
11
0.296866
21
0.644173
0
LINE
8
BLACK
6
CONTINUOUS
10
0.296866
20
0.644173
11
0.301104
21
0.647303
0
LINE
8
BLACK
6
CONTINUOUS
10
0.301104
20
0.647303
11
0.306074
21
0.649048
0
LINE
8
BLACK
6
CONTINUOUS
10
0.306074
20
0.649048
11
0.309394
21
0.649362
0
LINE
8
BLACK
6
CONTINUOUS
10
0.309394
20
0.649362
11
0.358606
21
0.649362
0
LINE
8
BLACK
6
CONTINUOUS
10
0.358606
20
0.649362
11
0.361926
21
0.649048
0
LINE
8
BLACK
6
CONTINUOUS
10
0.261926
20
0.649048
11
0.266896
21
0.647303
0
LINE
8
BLACK
6
CONTINUOUS
10
0.266896
20
0.647303
11
0.271134
21
0.644173
0
LINE
8
BLACK
6
CONTINUOUS
10
0.271134
20
0.644173
11
0.274264
21
0.639936
0
LINE
8
BLACK
6
CONTINUOUS
10
0.274264
20
0.639936
11
0.276009
21
0.634965
0
LINE
8
BLACK
6
CONTINUOUS
10
0.276009
20
0.634965
11
0.276323
21
0.631646
0
LINE
8
BLACK
6
CONTINUOUS
10
0.276323
20
0.631646
11
0.276323
21
0.602118
0
LINE
8
BLACK
6
CONTINUOUS
10
0.276323
20
0.602118
11
0.276009
21
0.598798
0
LINE
8
BLACK
6
CONTINUOUS
10
0.276009
20
0.598798
11
0.274264
21
0.593828
0
LINE
8
BLACK
6
CONTINUOUS
10
0.274264
20
0.593828
11
0.271134
21
0.589591
0
LINE
8
BLACK
6
CONTINUOUS
10
0.271134
20
0.589591
11
0.266896
21
0.586461
0
LINE
8
BLACK
6
CONTINUOUS
10
0.266896
20
0.586461
11
0.261926
21
0.584715
0
LINE
8
BLACK
6
CONTINUOUS
10
0.261926
20
0.584715
11
0.258606
21
0.584402
0
LINE
8
BLACK
6
CONTINUOUS
10
0.258606
20
0.584402
11
0.209394
21
0.584402
0
LINE
8
BLACK
6
CONTINUOUS
10
0.209394
20
0.584402
11
0.206074
21
0.584715
0
LINE
8
BLACK
6
CONTINUOUS
10
0.206074
20
0.584715
11
0.201104
21
0.586461
0
LINE
8
BLACK
6
CONTINUOUS
10
0.201104
20
0.586461
11
0.196866
21
0.589591
0
LINE
8
BLACK
6
CONTINUOUS
10
0.196866
20
0.589591
11
0.193736
21
0.593828
0
LINE
8
BLACK
6
CONTINUOUS
10
0.193736
20
0.593828
11
0.191991
21
0.598798
0
LINE
8
BLACK
6
CONTINUOUS
10
0.191991
20
0.598798
11
0.191677
21
0.602118
0
LINE
8
BLACK
6
CONTINUOUS
10
0.191677
20
0.602118
11
0.191677
21
0.631646
0
LINE
8
BLACK
6
CONTINUOUS
10
0.191677
20
0.631646
11
0.191991
21
0.634965
0
LINE
8
BLACK
6
CONTINUOUS
10
0.191991
20
0.634965
11
0.193736
21
0.639936
0
LINE
8
BLACK
6
CONTINUOUS
10
0.193736
20
0.639936
11
0.196866
21
0.644173
0
LINE
8
BLACK
6
CONTINUOUS
10
0.196866
20
0.644173
11
0.201104
21
0.647303
0
LINE
8
BLACK
6
CONTINUOUS
10
0.201104
20
0.647303
11
0.206074
21
0.649048
0
LINE
8
BLACK
6
CONTINUOUS
10
0.206074
20
0.649048
11
0.209394
21
0.649362
0
LINE
8
BLACK
6
CONTINUOUS
10
0.209394
20
0.649362
11
0.258606
21
0.649362
0
LINE
8
BLACK
6
CONTINUOUS
10
0.258606
20
0.649362
11
0.261926
21
0.649048
0
LINE
8
BLACK
6
CONTINUOUS
10
0.930513
20
0.644775
11
0.933068
21
0.643068
0
LINE
8
BLACK
6
CONTINUOUS
10
0.933068
20
0.643068
11
0.934775
21
0.640513
0
LINE
8
BLACK
6
CONTINUOUS
10
0.934775
20
0.640513
11
0.935374
21
0.6375
0
LINE
8
BLACK
6
CONTINUOUS
10
0.935374
20
0.6375
11
0.935374
21
0.6025
0
LINE
8
BLACK
6
CONTINUOUS
10
0.935374
20
0.6025
11
0.934775
21
0.599487
0
LINE
8
BLACK
6
CONTINUOUS
10
0.934775
20
0.599487
11
0.933068
21
0.596932
0
LINE
8
BLACK
6
CONTINUOUS
10
0.933068
20
0.596932
11
0.930513
21
0.595225
0
LINE
8
BLACK
6
CONTINUOUS
10
0.930513
20
0.595225
11
0.9275
21
0.594626
0
LINE
8
BLACK
6
CONTINUOUS
10
0.9275
20
0.594626
11
0.8725
21
0.594626
0
LINE
8
BLACK
6
CONTINUOUS
10
0.8725
20
0.594626
11
0.869487
21
0.595225
0
LINE
8
BLACK
6
CONTINUOUS
10
0.869487
20
0.595225
11
0.866932
21
0.596932
0
LINE
8
BLACK
6
CONTINUOUS
10
0.866932
20
0.596932
11
0.865225
21
0.599487
0
LINE
8
BLACK
6
CONTINUOUS
10
0.865225
20
0.599487
11
0.864626
21
0.6025
0
LINE
8
BLACK
6
CONTINUOUS
10
0.864626
20
0.6025
11
0.864626
21
0.6375
0
LINE
8
BLACK
6
CONTINUOUS
10
0.864626
20
0.6375
11
0.865225
21
0.640513
0
LINE
8
BLACK
6
CONTINUOUS
10
0.865225
20
0.640513
11
0.866932
21
0.643068
0
LINE
8
BLACK
6
CONTINUOUS
10
0.866932
20
0.643068
11
0.869487
21
0.644775
0
LINE
8
BLACK
6
CONTINUOUS
10
0.869487
20
0.644775
11
0.8725
21
0.645374
0
LINE
8
BLACK
6
CONTINUOUS
10
0.8725
20
0.645374
11
0.9275
21
0.645374
0
LINE
8
BLACK
6
CONTINUOUS
10
0.9275
20
0.645374
11
0.930513
21
0.644775
0
LINE
8
BLACK
6
CONTINUOUS
10
1.40859
20
0.683305
11
1.41535
21
0.680292
0
LINE
8
BLACK
6
CONTINUOUS
10
1.41535
20
0.680292
11
1.42135
21
0.675938
0
LINE
8
BLACK
6
CONTINUOUS
10
1.42135
20
0.675938
11
1.4263
21
0.670433
0
LINE
8
BLACK
6
CONTINUOUS
10
1.4263
20
0.670433
11
1.43001
21
0.664018
0
LINE
8
BLACK
6
CONTINUOUS
10
1.43001
20
0.664018
11
1.4323
21
0.656973
0
LINE
8
BLACK
6
CONTINUOUS
10
1.4323
20
0.656973
11
1.43307
21
0.649606
0
LINE
8
BLACK
6
CONTINUOUS
10
1.43307
20
0.649606
11
1.4323
21
0.642239
0
LINE
8
BLACK
6
CONTINUOUS
10
1.4323
20
0.642239
11
1.43001
21
0.635194
0
LINE
8
BLACK
6
CONTINUOUS
10
1.43001
20
0.635194
11
1.4263
21
0.628779
0
LINE
8
BLACK
6
CONTINUOUS
10
1.4263
20
0.628779
11
1.42135
21
0.623274
0
LINE
8
BLACK
6
CONTINUOUS
10
1.42135
20
0.623274
11
1.41535
21
0.61892
0
LINE
8
BLACK
6
CONTINUOUS
10
1.41535
20
0.61892
11
1.40859
21
0.615907
0
LINE
8
BLACK
6
CONTINUOUS
10
1.40859
20
0.615907
11
1.40134
21
0.614367
0
LINE
8
BLACK
6
CONTINUOUS
10
1.40134
20
0.614367
11
1.39393
21
0.614367
0
LINE
8
BLACK
6
CONTINUOUS
10
1.39393
20
0.614367
11
1.38669
21
0.615907
0
LINE
8
BLACK
6
CONTINUOUS
10
1.38669
20
0.615907
11
1.37992
21
0.61892
0
LINE
8
BLACK
6
CONTINUOUS
10
1.37992
20
0.61892
11
1.37393
21
0.623274
0
LINE
8
BLACK
6
CONTINUOUS
10
1.37393
20
0.623274
11
1.36897
21
0.628779
0
LINE
8
BLACK
6
CONTINUOUS
10
1.36897
20
0.628779
11
1.36527
21
0.635194
0
LINE
8
BLACK
6
CONTINUOUS
10
1.36527
20
0.635194
11
1.36298
21
0.642239
0
LINE
8
BLACK
6
CONTINUOUS
10
1.36298
20
0.642239
11
1.3622
21
0.649606
0
LINE
8
BLACK
6
CONTINUOUS
10
1.3622
20
0.649606
11
1.36298
21
0.656973
0
LINE
8
BLACK
6
CONTINUOUS
10
1.36298
20
0.656973
11
1.36527
21
0.664018
0
LINE
8
BLACK
6
CONTINUOUS
10
1.36527
20
0.664018
11
1.36897
21
0.670433
0
LINE
8
BLACK
6
CONTINUOUS
10
1.36897
20
0.670433
11
1.37393
21
0.675938
0
LINE
8
BLACK
6
CONTINUOUS
10
1.37393
20
0.675938
11
1.37992
21
0.680292
0
LINE
8
BLACK
6
CONTINUOUS
10
1.37992
20
0.680292
11
1.38669
21
0.683305
0
LINE
8
BLACK
6
CONTINUOUS
10
1.38669
20
0.683305
11
1.39393
21
0.684845
0
LINE
8
BLACK
6
CONTINUOUS
10
1.39393
20
0.684845
11
1.40134
21
0.684845
0
LINE
8
BLACK
6
CONTINUOUS
10
1.40134
20
0.684845
11
1.40859
21
0.683305
0
LINE
8
BLACK
6
CONTINUOUS
10
0.142249
20
0.683305
11
0.149016
21
0.680292
0
LINE
8
BLACK
6
CONTINUOUS
10
0.149016
20
0.680292
11
0.155009
21
0.675938
0
LINE
8
BLACK
6
CONTINUOUS
10
0.155009
20
0.675938
11
0.159965
21
0.670433
0
LINE
8
BLACK
6
CONTINUOUS
10
0.159965
20
0.670433
11
0.163669
21
0.664018
0
LINE
8
BLACK
6
CONTINUOUS
10
0.163669
20
0.664018
11
0.165958
21
0.656973
0
LINE
8
BLACK
6
CONTINUOUS
10
0.165958
20
0.656973
11
0.166732
21
0.649606
0
LINE
8
BLACK
6
CONTINUOUS
10
0.166732
20
0.649606
11
0.165958
21
0.642239
0
LINE
8
BLACK
6
CONTINUOUS
10
0.165958
20
0.642239
11
0.163669
21
0.635194
0
LINE
8
BLACK
6
CONTINUOUS
10
0.163669
20
0.635194
11
0.159965
21
0.628779
0
LINE
8
BLACK
6
CONTINUOUS
10
0.159965
20
0.628779
11
0.155009
21
0.623274
0
LINE
8
BLACK
6
CONTINUOUS
10
0.155009
20
0.623274
11
0.149016
21
0.61892
0
LINE
8
BLACK
6
CONTINUOUS
10
0.149016
20
0.61892
11
0.142249
21
0.615907
0
LINE
8
BLACK
6
CONTINUOUS
10
0.142249
20
0.615907
11
0.135003
21
0.614367
0
LINE
8
BLACK
6
CONTINUOUS
10
0.135003
20
0.614367
11
0.127595
21
0.614367
0
LINE
8
BLACK
6
CONTINUOUS
10
0.127595
20
0.614367
11
0.12035
21
0.615907
0
LINE
8
BLACK
6
CONTINUOUS
10
0.12035
20
0.615907
11
0.113583
21
0.61892
0
LINE
8
BLACK
6
CONTINUOUS
10
0.113583
20
0.61892
11
0.10759
21
0.623274
0
LINE
8
BLACK
6
CONTINUOUS
10
0.10759
20
0.623274
11
0.102633
21
0.628779
0
LINE
8
BLACK
6
CONTINUOUS
10
0.102633
20
0.628779
11
0.0989295
21
0.635194
0
LINE
8
BLACK
6
CONTINUOUS
10
0.0989295
20
0.635194
11
0.0966404
21
0.642239
0
LINE
8
BLACK
6
CONTINUOUS
10
0.0966404
20
0.642239
11
0.0958661
21
0.649606
0
LINE
8
BLACK
6
CONTINUOUS
10
0.0958661
20
0.649606
11
0.0966404
21
0.656973
0
LINE
8
BLACK
6
CONTINUOUS
10
0.0966404
20
0.656973
11
0.0989295
21
0.664018
0
LINE
8
BLACK
6
CONTINUOUS
10
0.0989295
20
0.664018
11
0.102633
21
0.670433
0
LINE
8
BLACK
6
CONTINUOUS
10
0.102633
20
0.670433
11
0.10759
21
0.675938
0
LINE
8
BLACK
6
CONTINUOUS
10
0.10759
20
0.675938
11
0.113583
21
0.680292
0
LINE
8
BLACK
6
CONTINUOUS
10
0.113583
20
0.680292
11
0.12035
21
0.683305
0
LINE
8
BLACK
6
CONTINUOUS
10
0.12035
20
0.683305
11
0.127595
21
0.684845
0
LINE
8
BLACK
6
CONTINUOUS
10
0.127595
20
0.684845
11
0.135003
21
0.684845
0
LINE
8
BLACK
6
CONTINUOUS
10
0.135003
20
0.684845
11
0.142249
21
0.683305
0
LINE
8
BLACK
6
CONTINUOUS
10
0.456513
20
0.706775
11
0.459068
21
0.705068
0
LINE
8
BLACK
6
CONTINUOUS
10
0.459068
20
0.705068
11
0.460775
21
0.702513
0
LINE
8
BLACK
6
CONTINUOUS
10
0.460775
20
0.702513
11
0.461374
21
0.6995
0
LINE
8
BLACK
6
CONTINUOUS
10
0.461374
20
0.6995
11
0.461374
21
0.6645
0
LINE
8
BLACK
6
CONTINUOUS
10
0.461374
20
0.6645
11
0.460775
21
0.661487
0
LINE
8
BLACK
6
CONTINUOUS
10
0.460775
20
0.661487
11
0.459068
21
0.658932
0
LINE
8
BLACK
6
CONTINUOUS
10
0.459068
20
0.658932
11
0.456513
21
0.657225
0
LINE
8
BLACK
6
CONTINUOUS
10
0.456513
20
0.657225
11
0.4535
21
0.656626
0
LINE
8
BLACK
6
CONTINUOUS
10
0.4535
20
0.656626
11
0.3985
21
0.656626
0
LINE
8
BLACK
6
CONTINUOUS
10
0.3985
20
0.656626
11
0.395487
21
0.657225
0
LINE
8
BLACK
6
CONTINUOUS
10
0.395487
20
0.657225
11
0.392932
21
0.658932
0
LINE
8
BLACK
6
CONTINUOUS
10
0.392932
20
0.658932
11
0.391225
21
0.661487
0
LINE
8
BLACK
6
CONTINUOUS
10
0.391225
20
0.661487
11
0.390626
21
0.6645
0
LINE
8
BLACK
6
CONTINUOUS
10
0.390626
20
0.6645
11
0.390626
21
0.6995
0
LINE
8
BLACK
6
CONTINUOUS
10
0.390626
20
0.6995
11
0.391225
21
0.702513
0
LINE
8
BLACK
6
CONTINUOUS
10
0.391225
20
0.702513
11
0.392932
21
0.705068
0
LINE
8
BLACK
6
CONTINUOUS
10
0.392932
20
0.705068
11
0.395487
21
0.706775
0
LINE
8
BLACK
6
CONTINUOUS
10
0.395487
20
0.706775
11
0.3985
21
0.707374
0
LINE
8
BLACK
6
CONTINUOUS
10
0.3985
20
0.707374
11
0.4535
21
0.707374
0
LINE
8
BLACK
6
CONTINUOUS
10
0.4535
20
0.707374
11
0.456513
21
0.706775
0
LINE
8
BLACK
6
CONTINUOUS
10
0.930513
20
0.719775
11
0.933068
21
0.718068
0
LINE
8
BLACK
6
CONTINUOUS
10
0.933068
20
0.718068
11
0.934775
21
0.715513
0
LINE
8
BLACK
6
CONTINUOUS
10
0.934775
20
0.715513
11
0.935374
21
0.7125
0
LINE
8
BLACK
6
CONTINUOUS
10
0.935374
20
0.7125
11
0.935374
21
0.6775
0
LINE
8
BLACK
6
CONTINUOUS
10
0.935374
20
0.6775
11
0.934775
21
0.674487
0
LINE
8
BLACK
6
CONTINUOUS
10
0.934775
20
0.674487
11
0.933068
21
0.671932
0
LINE
8
BLACK
6
CONTINUOUS
10
0.933068
20
0.671932
11
0.930513
21
0.670225
0
LINE
8
BLACK
6
CONTINUOUS
10
0.930513
20
0.670225
11
0.9275
21
0.669626
0
LINE
8
BLACK
6
CONTINUOUS
10
0.9275
20
0.669626
11
0.8725
21
0.669626
0
LINE
8
BLACK
6
CONTINUOUS
10
0.8725
20
0.669626
11
0.869487
21
0.670225
0
LINE
8
BLACK
6
CONTINUOUS
10
0.869487
20
0.670225
11
0.866932
21
0.671932
0
LINE
8
BLACK
6
CONTINUOUS
10
0.866932
20
0.671932
11
0.865225
21
0.674487
0
LINE
8
BLACK
6
CONTINUOUS
10
0.865225
20
0.674487
11
0.864626
21
0.6775
0
LINE
8
BLACK
6
CONTINUOUS
10
0.864626
20
0.6775
11
0.864626
21
0.7125
0
LINE
8
BLACK
6
CONTINUOUS
10
0.864626
20
0.7125
11
0.865225
21
0.715513
0
LINE
8
BLACK
6
CONTINUOUS
10
0.865225
20
0.715513
11
0.866932
21
0.718068
0
LINE
8
BLACK
6
CONTINUOUS
10
0.866932
20
0.718068
11
0.869487
21
0.719775
0
LINE
8
BLACK
6
CONTINUOUS
10
0.869487
20
0.719775
11
0.8725
21
0.720374
0
LINE
8
BLACK
6
CONTINUOUS
10
0.8725
20
0.720374
11
0.9275
21
0.720374
0
LINE
8
BLACK
6
CONTINUOUS
10
0.9275
20
0.720374
11
0.930513
21
0.719775
0
LINE
8
BLACK
6
CONTINUOUS
10
1.75978
20
0.741379
11
1.76475
21
0.739634
0
LINE
8
BLACK
6
CONTINUOUS
10
1.76475
20
0.739634
11
1.76898
21
0.736504
0
LINE
8
BLACK
6
CONTINUOUS
10
1.76898
20
0.736504
11
1.77211
21
0.732266
0
LINE
8
BLACK
6
CONTINUOUS
10
1.77211
20
0.732266
11
1.77386
21
0.727296
0
LINE
8
BLACK
6
CONTINUOUS
10
1.77386
20
0.727296
11
1.77417
21
0.723976
0
LINE
8
BLACK
6
CONTINUOUS
10
1.77417
20
0.723976
11
1.77417
21
0.704291
0
LINE
8
BLACK
6
CONTINUOUS
10
1.77417
20
0.704291
11
1.77386
21
0.700972
0
LINE
8
BLACK
6
CONTINUOUS
10
1.77386
20
0.700972
11
1.77211
21
0.696001
0
LINE
8
BLACK
6
CONTINUOUS
10
1.77211
20
0.696001
11
1.76898
21
0.691764
0
LINE
8
BLACK
6
CONTINUOUS
10
1.76898
20
0.691764
11
1.76475
21
0.688634
0
LINE
8
BLACK
6
CONTINUOUS
10
1.76475
20
0.688634
11
1.75978
21
0.686889
0
LINE
8
BLACK
6
CONTINUOUS
10
1.75978
20
0.686889
11
1.75646
21
0.686575
0
LINE
8
BLACK
6
CONTINUOUS
10
1.75646
20
0.686575
11
1.66984
21
0.686575
0
LINE
8
BLACK
6
CONTINUOUS
10
1.66984
20
0.686575
11
1.66652
21
0.686889
0
LINE
8
BLACK
6
CONTINUOUS
10
1.66652
20
0.686889
11
1.66155
21
0.688634
0
LINE
8
BLACK
6
CONTINUOUS
10
1.66155
20
0.688634
11
1.65732
21
0.691764
0
LINE
8
BLACK
6
CONTINUOUS
10
1.65732
20
0.691764
11
1.65419
21
0.696001
0
LINE
8
BLACK
6
CONTINUOUS
10
1.65419
20
0.696001
11
1.65244
21
0.700972
0
LINE
8
BLACK
6
CONTINUOUS
10
1.65244
20
0.700972
11
1.65213
21
0.704291
0
LINE
8
BLACK
6
CONTINUOUS
10
1.65213
20
0.704291
11
1.65213
21
0.723976
0
LINE
8
BLACK
6
CONTINUOUS
10
1.65213
20
0.723976
11
1.65244
21
0.727296
0
LINE
8
BLACK
6
CONTINUOUS
10
1.65244
20
0.727296
11
1.65419
21
0.732266
0
LINE
8
BLACK
6
CONTINUOUS
10
1.65419
20
0.732266
11
1.65732
21
0.736504
0
LINE
8
BLACK
6
CONTINUOUS
10
1.65732
20
0.736504
11
1.66155
21
0.739634
0
LINE
8
BLACK
6
CONTINUOUS
10
1.66155
20
0.739634
11
1.66652
21
0.741379
0
LINE
8
BLACK
6
CONTINUOUS
10
1.66652
20
0.741379
11
1.66984
21
0.741693
0
LINE
8
BLACK
6
CONTINUOUS
10
1.66984
20
0.741693
11
1.75646
21
0.741693
0
LINE
8
BLACK
6
CONTINUOUS
10
1.75646
20
0.741693
11
1.75978
21
0.741379
0
LINE
8
BLACK
6
CONTINUOUS
10
1.2128
20
0.843543
11
1.22336
21
0.841094
0
LINE
8
BLACK
6
CONTINUOUS
10
1.22336
20
0.841094
11
1.23348
21
0.837182
0
LINE
8
BLACK
6
CONTINUOUS
10
1.23348
20
0.837182
11
1.24294
21
0.831883
0
LINE
8
BLACK
6
CONTINUOUS
10
1.24294
20
0.831883
11
1.25156
21
0.825304
0
LINE
8
BLACK
6
CONTINUOUS
10
1.25156
20
0.825304
11
1.25917
21
0.817576
0
LINE
8
BLACK
6
CONTINUOUS
10
1.25917
20
0.817576
11
1.26561
21
0.808853
0
LINE
8
BLACK
6
CONTINUOUS
10
1.26561
20
0.808853
11
1.27076
21
0.799309
0
LINE
8
BLACK
6
CONTINUOUS
10
1.27076
20
0.799309
11
1.27451
21
0.789135
0
LINE
8
BLACK
6
CONTINUOUS
10
1.27451
20
0.789135
11
1.27679
21
0.778534
0
LINE
8
BLACK
6
CONTINUOUS
10
1.27679
20
0.778534
11
1.27756
21
0.767717
0
LINE
8
BLACK
6
CONTINUOUS
10
1.27756
20
0.767717
11
1.27741
21
0.762896
0
LINE
8
BLACK
6
CONTINUOUS
10
1.27741
20
0.762896
11
1.27596
21
0.752148
0
LINE
8
BLACK
6
CONTINUOUS
10
1.27596
20
0.752148
11
1.27302
21
0.741711
0
LINE
8
BLACK
6
CONTINUOUS
10
1.27302
20
0.741711
11
1.26864
21
0.731793
0
LINE
8
BLACK
6
CONTINUOUS
10
1.26864
20
0.731793
11
1.2629
21
0.722591
0
LINE
8
BLACK
6
CONTINUOUS
10
1.2629
20
0.722591
11
1.25592
21
0.71429
0
LINE
8
BLACK
6
CONTINUOUS
10
1.25592
20
0.71429
11
1.24784
21
0.707055
0
LINE
8
BLACK
6
CONTINUOUS
10
1.24784
20
0.707055
11
1.23882
21
0.70103
0
LINE
8
BLACK
6
CONTINUOUS
10
1.23882
20
0.70103
11
1.22905
21
0.696336
0
LINE
8
BLACK
6
CONTINUOUS
10
1.22905
20
0.696336
11
1.21871
21
0.693066
0
LINE
8
BLACK
6
CONTINUOUS
10
1.21871
20
0.693066
11
1.20801
21
0.691286
0
LINE
8
BLACK
6
CONTINUOUS
10
1.20801
20
0.691286
11
1.19717
21
0.69103
0
LINE
8
BLACK
6
CONTINUOUS
10
1.19717
20
0.69103
11
1.1864
21
0.692305
0
LINE
8
BLACK
6
CONTINUOUS
10
1.1864
20
0.692305
11
1.17592
21
0.695084
0
LINE
8
BLACK
6
CONTINUOUS
10
1.17592
20
0.695084
11
1.16593
21
0.699312
0
LINE
8
BLACK
6
CONTINUOUS
10
1.16593
20
0.699312
11
1.15664
21
0.704906
0
LINE
8
BLACK
6
CONTINUOUS
10
1.15664
20
0.704906
11
1.14823
21
0.711752
0
LINE
8
BLACK
6
CONTINUOUS
10
1.14823
20
0.711752
11
1.14087
21
0.719716
0
LINE
8
BLACK
6
CONTINUOUS
10
1.14087
20
0.719716
11
1.13471
21
0.728637
0
LINE
8
BLACK
6
CONTINUOUS
10
1.13471
20
0.728637
11
1.12986
21
0.738337
0
LINE
8
BLACK
6
CONTINUOUS
10
1.12986
20
0.738337
11
1.12643
21
0.748624
0
LINE
8
BLACK
6
CONTINUOUS
10
1.12643
20
0.748624
11
1.12448
21
0.759292
0
LINE
8
BLACK
6
CONTINUOUS
10
1.12448
20
0.759292
11
1.12405
21
0.770128
0
LINE
8
BLACK
6
CONTINUOUS
10
1.12405
20
0.770128
11
1.12516
21
0.780916
0
LINE
8
BLACK
6
CONTINUOUS
10
1.12516
20
0.780916
11
1.12777
21
0.79144
0
LINE
8
BLACK
6
CONTINUOUS
10
1.12777
20
0.79144
11
1.13184
21
0.801491
0
LINE
8
BLACK
6
CONTINUOUS
10
1.13184
20
0.801491
11
1.13729
21
0.810869
0
LINE
8
BLACK
6
CONTINUOUS
10
1.13729
20
0.810869
11
1.144
21
0.819385
0
LINE
8
BLACK
6
CONTINUOUS
10
1.144
20
0.819385
11
1.15185
21
0.82687
0
LINE
8
BLACK
6
CONTINUOUS
10
1.15185
20
0.82687
11
1.16067
21
0.833175
0
LINE
8
BLACK
6
CONTINUOUS
10
1.16067
20
0.833175
11
1.1703
21
0.838174
0
LINE
8
BLACK
6
CONTINUOUS
10
1.1703
20
0.838174
11
1.18053
21
0.841767
0
LINE
8
BLACK
6
CONTINUOUS
10
1.18053
20
0.841767
11
1.19117
21
0.843883
0
LINE
8
BLACK
6
CONTINUOUS
10
1.19117
20
0.843883
11
1.20199
21
0.844479
0
LINE
8
BLACK
6
CONTINUOUS
10
1.20199
20
0.844479
11
1.2128
21
0.843543
0
LINE
8
BLACK
6
CONTINUOUS
10
0.53701
20
0.843543
11
0.547574
21
0.841094
0
LINE
8
BLACK
6
CONTINUOUS
10
0.547574
20
0.841094
11
0.557688
21
0.837182
0
LINE
8
BLACK
6
CONTINUOUS
10
0.557688
20
0.837182
11
0.567149
21
0.831883
0
LINE
8
BLACK
6
CONTINUOUS
10
0.567149
20
0.831883
11
0.57577
21
0.825304
0
LINE
8
BLACK
6
CONTINUOUS
10
0.57577
20
0.825304
11
0.583378
21
0.817576
0
LINE
8
BLACK
6
CONTINUOUS
10
0.583378
20
0.817576
11
0.58982
21
0.808853
0
LINE
8
BLACK
6
CONTINUOUS
10
0.58982
20
0.808853
11
0.59497
21
0.799309
0
LINE
8
BLACK
6
CONTINUOUS
10
0.59497
20
0.799309
11
0.598723
21
0.789135
0
LINE
8
BLACK
6
CONTINUOUS
10
0.598723
20
0.789135
11
0.601006
21
0.778534
0
LINE
8
BLACK
6
CONTINUOUS
10
0.601006
20
0.778534
11
0.601772
21
0.767717
0
LINE
8
BLACK
6
CONTINUOUS
10
0.601772
20
0.767717
11
0.60162
21
0.762896
0
LINE
8
BLACK
6
CONTINUOUS
10
0.60162
20
0.762896
11
0.600177
21
0.752148
0
LINE
8
BLACK
6
CONTINUOUS
10
0.600177
20
0.752148
11
0.597233
21
0.741711
0
LINE
8
BLACK
6
CONTINUOUS
10
0.597233
20
0.741711
11
0.592848
21
0.731793
0
LINE
8
BLACK
6
CONTINUOUS
10
0.592848
20
0.731793
11
0.58711
21
0.722591
0
LINE
8
BLACK
6
CONTINUOUS
10
0.58711
20
0.722591
11
0.580132
21
0.71429
0
LINE
8
BLACK
6
CONTINUOUS
10
0.580132
20
0.71429
11
0.572054
21
0.707055
0
LINE
8
BLACK
6
CONTINUOUS
10
0.572054
20
0.707055
11
0.563037
21
0.70103
0
LINE
8
BLACK
6
CONTINUOUS
10
0.563037
20
0.70103
11
0.553262
21
0.696336
0
LINE
8
BLACK
6
CONTINUOUS
10
0.553262
20
0.696336
11
0.542922
21
0.693066
0
LINE
8
BLACK
6
CONTINUOUS
10
0.542922
20
0.693066
11
0.532225
21
0.691286
0
LINE
8
BLACK
6
CONTINUOUS
10
0.532225
20
0.691286
11
0.521384
21
0.69103
0
LINE
8
BLACK
6
CONTINUOUS
10
0.521384
20
0.69103
11
0.510614
21
0.692305
0
LINE
8
BLACK
6
CONTINUOUS
10
0.510614
20
0.692305
11
0.500132
21
0.695084
0
LINE
8
BLACK
6
CONTINUOUS
10
0.500132
20
0.695084
11
0.490146
21
0.699312
0
LINE
8
BLACK
6
CONTINUOUS
10
0.490146
20
0.699312
11
0.480856
21
0.704906
0
LINE
8
BLACK
6
CONTINUOUS
10
0.480856
20
0.704906
11
0.472446
21
0.711752
0
LINE
8
BLACK
6
CONTINUOUS
10
0.472446
20
0.711752
11
0.465085
21
0.719716
0
LINE
8
BLACK
6
CONTINUOUS
10
0.465085
20
0.719716
11
0.458919
21
0.728637
0
LINE
8
BLACK
6
CONTINUOUS
10
0.458919
20
0.728637
11
0.454072
21
0.738337
0
LINE
8
BLACK
6
CONTINUOUS
10
0.454072
20
0.738337
11
0.45064
21
0.748624
0
LINE
8
BLACK
6
CONTINUOUS
10
0.45064
20
0.748624
11
0.448692
21
0.759292
0
LINE
8
BLACK
6
CONTINUOUS
10
0.448692
20
0.759292
11
0.448266
21
0.770128
0
LINE
8
BLACK
6
CONTINUOUS
10
0.448266
20
0.770128
11
0.449372
21
0.780916
0
LINE
8
BLACK
6
CONTINUOUS
10
0.449372
20
0.780916
11
0.451986
21
0.79144
0
LINE
8
BLACK
6
CONTINUOUS
10
0.451986
20
0.79144
11
0.456057
21
0.801491
0
LINE
8
BLACK
6
CONTINUOUS
10
0.456057
20
0.801491
11
0.461504
21
0.810869
0
LINE
8
BLACK
6
CONTINUOUS
10
0.461504
20
0.810869
11
0.468217
21
0.819385
0
LINE
8
BLACK
6
CONTINUOUS
10
0.468217
20
0.819385
11
0.476064
21
0.82687
0
LINE
8
BLACK
6
CONTINUOUS
10
0.476064
20
0.82687
11
0.484887
21
0.833175
0
LINE
8
BLACK
6
CONTINUOUS
10
0.484887
20
0.833175
11
0.49451
21
0.838174
0
LINE
8
BLACK
6
CONTINUOUS
10
0.49451
20
0.838174
11
0.504742
21
0.841767
0
LINE
8
BLACK
6
CONTINUOUS
10
0.504742
20
0.841767
11
0.515378
21
0.843883
0
LINE
8
BLACK
6
CONTINUOUS
10
0.515378
20
0.843883
11
0.526206
21
0.844479
0
LINE
8
BLACK
6
CONTINUOUS
10
0.526206
20
0.844479
11
0.53701
21
0.843543
0
LINE
8
BLACK
6
CONTINUOUS
10
0.261926
20
0.759285
11
0.266896
21
0.757539
0
LINE
8
BLACK
6
CONTINUOUS
10
0.266896
20
0.757539
11
0.271134
21
0.754409
0
LINE
8
BLACK
6
CONTINUOUS
10
0.271134
20
0.754409
11
0.274264
21
0.750172
0
LINE
8
BLACK
6
CONTINUOUS
10
0.274264
20
0.750172
11
0.276009
21
0.745202
0
LINE
8
BLACK
6
CONTINUOUS
10
0.276009
20
0.745202
11
0.276323
21
0.741882
0
LINE
8
BLACK
6
CONTINUOUS
10
0.276323
20
0.741882
11
0.276323
21
0.712354
0
LINE
8
BLACK
6
CONTINUOUS
10
0.276323
20
0.712354
11
0.276009
21
0.709035
0
LINE
8
BLACK
6
CONTINUOUS
10
0.276009
20
0.709035
11
0.274264
21
0.704064
0
LINE
8
BLACK
6
CONTINUOUS
10
0.274264
20
0.704064
11
0.271134
21
0.699827
0
LINE
8
BLACK
6
CONTINUOUS
10
0.271134
20
0.699827
11
0.266896
21
0.696697
0
LINE
8
BLACK
6
CONTINUOUS
10
0.266896
20
0.696697
11
0.261926
21
0.694952
0
LINE
8
BLACK
6
CONTINUOUS
10
0.261926
20
0.694952
11
0.258606
21
0.694638
0
LINE
8
BLACK
6
CONTINUOUS
10
0.258606
20
0.694638
11
0.209394
21
0.694638
0
LINE
8
BLACK
6
CONTINUOUS
10
0.209394
20
0.694638
11
0.206074
21
0.694952
0
LINE
8
BLACK
6
CONTINUOUS
10
0.206074
20
0.694952
11
0.201104
21
0.696697
0
LINE
8
BLACK
6
CONTINUOUS
10
0.201104
20
0.696697
11
0.196866
21
0.699827
0
LINE
8
BLACK
6
CONTINUOUS
10
0.196866
20
0.699827
11
0.193736
21
0.704064
0
LINE
8
BLACK
6
CONTINUOUS
10
0.193736
20
0.704064
11
0.191991
21
0.709035
0
LINE
8
BLACK
6
CONTINUOUS
10
0.191991
20
0.709035
11
0.191677
21
0.712354
0
LINE
8
BLACK
6
CONTINUOUS
10
0.191677
20
0.712354
11
0.191677
21
0.741882
0
LINE
8
BLACK
6
CONTINUOUS
10
0.191677
20
0.741882
11
0.191991
21
0.745202
0
LINE
8
BLACK
6
CONTINUOUS
10
0.191991
20
0.745202
11
0.193736
21
0.750172
0
LINE
8
BLACK
6
CONTINUOUS
10
0.193736
20
0.750172
11
0.196866
21
0.754409
0
LINE
8
BLACK
6
CONTINUOUS
10
0.196866
20
0.754409
11
0.201104
21
0.757539
0
LINE
8
BLACK
6
CONTINUOUS
10
0.201104
20
0.757539
11
0.206074
21
0.759285
0
LINE
8
BLACK
6
CONTINUOUS
10
0.206074
20
0.759285
11
0.209394
21
0.759598
0
LINE
8
BLACK
6
CONTINUOUS
10
0.209394
20
0.759598
11
0.258606
21
0.759598
0
LINE
8
BLACK
6
CONTINUOUS
10
0.258606
20
0.759598
11
0.261926
21
0.759285
0
LINE
8
BLACK
6
CONTINUOUS
10
0.361926
20
0.759285
11
0.366896
21
0.757539
0
LINE
8
BLACK
6
CONTINUOUS
10
0.366896
20
0.757539
11
0.371134
21
0.754409
0
LINE
8
BLACK
6
CONTINUOUS
10
0.371134
20
0.754409
11
0.374264
21
0.750172
0
LINE
8
BLACK
6
CONTINUOUS
10
0.374264
20
0.750172
11
0.376009
21
0.745202
0
LINE
8
BLACK
6
CONTINUOUS
10
0.376009
20
0.745202
11
0.376323
21
0.741882
0
LINE
8
BLACK
6
CONTINUOUS
10
0.376323
20
0.741882
11
0.376323
21
0.712354
0
LINE
8
BLACK
6
CONTINUOUS
10
0.376323
20
0.712354
11
0.376009
21
0.709035
0
LINE
8
BLACK
6
CONTINUOUS
10
0.376009
20
0.709035
11
0.374264
21
0.704064
0
LINE
8
BLACK
6
CONTINUOUS
10
0.374264
20
0.704064
11
0.371134
21
0.699827
0
LINE
8
BLACK
6
CONTINUOUS
10
0.371134
20
0.699827
11
0.366896
21
0.696697
0
LINE
8
BLACK
6
CONTINUOUS
10
0.366896
20
0.696697
11
0.361926
21
0.694952
0
LINE
8
BLACK
6
CONTINUOUS
10
0.361926
20
0.694952
11
0.358606
21
0.694638
0
LINE
8
BLACK
6
CONTINUOUS
10
0.358606
20
0.694638
11
0.309394
21
0.694638
0
LINE
8
BLACK
6
CONTINUOUS
10
0.309394
20
0.694638
11
0.306074
21
0.694952
0
LINE
8
BLACK
6
CONTINUOUS
10
0.306074
20
0.694952
11
0.301104
21
0.696697
0
LINE
8
BLACK
6
CONTINUOUS
10
0.301104
20
0.696697
11
0.296866
21
0.699827
0
LINE
8
BLACK
6
CONTINUOUS
10
0.296866
20
0.699827
11
0.293736
21
0.704064
0
LINE
8
BLACK
6
CONTINUOUS
10
0.293736
20
0.704064
11
0.291991
21
0.709035
0
LINE
8
BLACK
6
CONTINUOUS
10
0.291991
20
0.709035
11
0.291677
21
0.712354
0
LINE
8
BLACK
6
CONTINUOUS
10
0.291677
20
0.712354
11
0.291677
21
0.741882
0
LINE
8
BLACK
6
CONTINUOUS
10
0.291677
20
0.741882
11
0.291991
21
0.745202
0
LINE
8
BLACK
6
CONTINUOUS
10
0.291991
20
0.745202
11
0.293736
21
0.750172
0
LINE
8
BLACK
6
CONTINUOUS
10
0.293736
20
0.750172
11
0.296866
21
0.754409
0
LINE
8
BLACK
6
CONTINUOUS
10
0.296866
20
0.754409
11
0.301104
21
0.757539
0
LINE
8
BLACK
6
CONTINUOUS
10
0.301104
20
0.757539
11
0.306074
21
0.759285
0
LINE
8
BLACK
6
CONTINUOUS
10
0.306074
20
0.759285
11
0.309394
21
0.759598
0
LINE
8
BLACK
6
CONTINUOUS
10
0.309394
20
0.759598
11
0.358606
21
0.759598
0
LINE
8
BLACK
6
CONTINUOUS
10
0.358606
20
0.759598
11
0.361926
21
0.759285
0
LINE
8
BLACK
6
CONTINUOUS
10
1.0966
20
0.765857
11
1.09915
21
0.76415
0
LINE
8
BLACK
6
CONTINUOUS
10
1.09915
20
0.76415
11
1.10086
21
0.761596
0
LINE
8
BLACK
6
CONTINUOUS
10
1.10086
20
0.761596
11
1.10146
21
0.758583
0
LINE
8
BLACK
6
CONTINUOUS
10
1.10146
20
0.758583
11
1.10146
21
0.703465
0
LINE
8
BLACK
6
CONTINUOUS
10
1.10146
20
0.703465
11
1.10086
21
0.700451
0
LINE
8
BLACK
6
CONTINUOUS
10
1.10086
20
0.700451
11
1.09915
21
0.697897
0
LINE
8
BLACK
6
CONTINUOUS
10
1.09915
20
0.697897
11
1.0966
21
0.69619
0
LINE
8
BLACK
6
CONTINUOUS
10
1.0966
20
0.69619
11
1.09358
21
0.695591
0
LINE
8
BLACK
6
CONTINUOUS
10
1.09358
20
0.695591
11
1.03886
21
0.695591
0
LINE
8
BLACK
6
CONTINUOUS
10
1.03886
20
0.695591
11
1.03584
21
0.69619
0
LINE
8
BLACK
6
CONTINUOUS
10
1.03584
20
0.69619
11
1.03329
21
0.697897
0
LINE
8
BLACK
6
CONTINUOUS
10
1.03329
20
0.697897
11
1.03158
21
0.700451
0
LINE
8
BLACK
6
CONTINUOUS
10
1.03158
20
0.700451
11
1.03098
21
0.703465
0
LINE
8
BLACK
6
CONTINUOUS
10
1.03098
20
0.703465
11
1.03098
21
0.758583
0
LINE
8
BLACK
6
CONTINUOUS
10
1.03098
20
0.758583
11
1.03158
21
0.761596
0
LINE
8
BLACK
6
CONTINUOUS
10
1.03158
20
0.761596
11
1.03329
21
0.76415
0
LINE
8
BLACK
6
CONTINUOUS
10
1.03329
20
0.76415
11
1.03584
21
0.765857
0
LINE
8
BLACK
6
CONTINUOUS
10
1.03584
20
0.765857
11
1.03886
21
0.766457
0
LINE
8
BLACK
6
CONTINUOUS
10
1.03886
20
0.766457
11
1.09358
21
0.766457
0
LINE
8
BLACK
6
CONTINUOUS
10
1.09358
20
0.766457
11
1.0966
21
0.765857
0
LINE
8
BLACK
6
CONTINUOUS
10
1.02415
20
0.765857
11
1.02671
21
0.76415
0
LINE
8
BLACK
6
CONTINUOUS
10
1.02671
20
0.76415
11
1.02842
21
0.761596
0
LINE
8
BLACK
6
CONTINUOUS
10
1.02842
20
0.761596
11
1.02902
21
0.758583
0
LINE
8
BLACK
6
CONTINUOUS
10
1.02902
20
0.758583
11
1.02902
21
0.703465
0
LINE
8
BLACK
6
CONTINUOUS
10
1.02902
20
0.703465
11
1.02842
21
0.700451
0
LINE
8
BLACK
6
CONTINUOUS
10
1.02842
20
0.700451
11
1.02671
21
0.697897
0
LINE
8
BLACK
6
CONTINUOUS
10
1.02671
20
0.697897
11
1.02415
21
0.69619
0
LINE
8
BLACK
6
CONTINUOUS
10
1.02415
20
0.69619
11
1.02114
21
0.695591
0
LINE
8
BLACK
6
CONTINUOUS
10
1.02114
20
0.695591
11
0.966417
21
0.695591
0
LINE
8
BLACK
6
CONTINUOUS
10
0.966417
20
0.695591
11
0.963404
21
0.69619
0
LINE
8
BLACK
6
CONTINUOUS
10
0.963404
20
0.69619
11
0.96085
21
0.697897
0
LINE
8
BLACK
6
CONTINUOUS
10
0.96085
20
0.697897
11
0.959143
21
0.700451
0
LINE
8
BLACK
6
CONTINUOUS
10
0.959143
20
0.700451
11
0.958543
21
0.703465
0
LINE
8
BLACK
6
CONTINUOUS
10
0.958543
20
0.703465
11
0.958543
21
0.758583
0
LINE
8
BLACK
6
CONTINUOUS
10
0.958543
20
0.758583
11
0.959143
21
0.761596
0
LINE
8
BLACK
6
CONTINUOUS
10
0.959143
20
0.761596
11
0.96085
21
0.76415
0
LINE
8
BLACK
6
CONTINUOUS
10
0.96085
20
0.76415
11
0.963404
21
0.765857
0
LINE
8
BLACK
6
CONTINUOUS
10
0.963404
20
0.765857
11
0.966417
21
0.766457
0
LINE
8
BLACK
6
CONTINUOUS
10
0.966417
20
0.766457
11
1.02114
21
0.766457
0
LINE
8
BLACK
6
CONTINUOUS
10
1.02114
20
0.766457
11
1.02415
21
0.765857
0
LINE
8
BLACK
6
CONTINUOUS
10
0.716513
20
0.759775
11
0.719068
21
0.758068
0
LINE
8
BLACK
6
CONTINUOUS
10
0.719068
20
0.758068
11
0.720775
21
0.755513
0
LINE
8
BLACK
6
CONTINUOUS
10
0.720775
20
0.755513
11
0.721374
21
0.7525
0
LINE
8
BLACK
6
CONTINUOUS
10
0.721374
20
0.7525
11
0.721374
21
0.7175
0
LINE
8
BLACK
6
CONTINUOUS
10
0.721374
20
0.7175
11
0.720775
21
0.714487
0
LINE
8
BLACK
6
CONTINUOUS
10
0.720775
20
0.714487
11
0.719068
21
0.711932
0
LINE
8
BLACK
6
CONTINUOUS
10
0.719068
20
0.711932
11
0.716513
21
0.710225
0
LINE
8
BLACK
6
CONTINUOUS
10
0.716513
20
0.710225
11
0.7135
21
0.709626
0
LINE
8
BLACK
6
CONTINUOUS
10
0.7135
20
0.709626
11
0.6585
21
0.709626
0
LINE
8
BLACK
6
CONTINUOUS
10
0.6585
20
0.709626
11
0.655487
21
0.710225
0
LINE
8
BLACK
6
CONTINUOUS
10
0.655487
20
0.710225
11
0.652932
21
0.711932
0
LINE
8
BLACK
6
CONTINUOUS
10
0.652932
20
0.711932
11
0.651225
21
0.714487
0
LINE
8
BLACK
6
CONTINUOUS
10
0.651225
20
0.714487
11
0.650626
21
0.7175
0
LINE
8
BLACK
6
CONTINUOUS
10
0.650626
20
0.7175
11
0.650626
21
0.7525
0
LINE
8
BLACK
6
CONTINUOUS
10
0.650626
20
0.7525
11
0.651225
21
0.755513
0
LINE
8
BLACK
6
CONTINUOUS
10
0.651225
20
0.755513
11
0.652932
21
0.758068
0
LINE
8
BLACK
6
CONTINUOUS
10
0.652932
20
0.758068
11
0.655487
21
0.759775
0
LINE
8
BLACK
6
CONTINUOUS
10
0.655487
20
0.759775
11
0.6585
21
0.760374
0
LINE
8
BLACK
6
CONTINUOUS
10
0.6585
20
0.760374
11
0.7135
21
0.760374
0
LINE
8
BLACK
6
CONTINUOUS
10
0.7135
20
0.760374
11
0.716513
21
0.759775
0
LINE
8
BLACK
6
CONTINUOUS
10
1.61866
20
0.806079
11
1.62273
21
0.804092
0
LINE
8
BLACK
6
CONTINUOUS
10
1.62273
20
0.804092
11
1.62593
21
0.800895
0
LINE
8
BLACK
6
CONTINUOUS
10
1.62593
20
0.800895
11
1.62792
21
0.796834
0
LINE
8
BLACK
6
CONTINUOUS
10
1.62792
20
0.796834
11
1.6285
21
0.792874
0
LINE
8
BLACK
6
CONTINUOUS
10
1.6285
20
0.792874
11
1.6285
21
0.781063
0
LINE
8
BLACK
6
CONTINUOUS
10
1.6285
20
0.781063
11
1.62793
21
0.777126
0
LINE
8
BLACK
6
CONTINUOUS
10
1.62793
20
0.777126
11
1.62594
21
0.773061
0
LINE
8
BLACK
6
CONTINUOUS
10
1.62594
20
0.773061
11
1.62275
21
0.769859
0
LINE
8
BLACK
6
CONTINUOUS
10
1.62275
20
0.769859
11
1.61868
21
0.767865
0
LINE
8
BLACK
6
CONTINUOUS
10
1.61868
20
0.767865
11
1.61472
21
0.767283
0
LINE
8
BLACK
6
CONTINUOUS
10
1.61472
20
0.767283
11
1.55961
21
0.767283
0
LINE
8
BLACK
6
CONTINUOUS
10
1.55961
20
0.767283
11
1.55567
21
0.767858
0
LINE
8
BLACK
6
CONTINUOUS
10
1.55567
20
0.767858
11
1.5516
21
0.769845
0
LINE
8
BLACK
6
CONTINUOUS
10
1.5516
20
0.769845
11
1.5484
21
0.773042
0
LINE
8
BLACK
6
CONTINUOUS
10
1.5484
20
0.773042
11
1.54641
21
0.777103
0
LINE
8
BLACK
6
CONTINUOUS
10
1.54641
20
0.777103
11
1.54583
21
0.781063
0
LINE
8
BLACK
6
CONTINUOUS
10
1.54583
20
0.781063
11
1.54583
21
0.792874
0
LINE
8
BLACK
6
CONTINUOUS
10
1.54583
20
0.792874
11
1.5464
21
0.796811
0
LINE
8
BLACK
6
CONTINUOUS
10
1.5464
20
0.796811
11
1.54839
21
0.800876
0
LINE
8
BLACK
6
CONTINUOUS
10
1.54839
20
0.800876
11
1.55158
21
0.804078
0
LINE
8
BLACK
6
CONTINUOUS
10
1.55158
20
0.804078
11
1.55565
21
0.806072
0
LINE
8
BLACK
6
CONTINUOUS
10
1.55565
20
0.806072
11
1.55961
21
0.806654
0
LINE
8
BLACK
6
CONTINUOUS
10
1.55961
20
0.806654
11
1.61472
21
0.806654
0
LINE
8
BLACK
6
CONTINUOUS
10
1.61472
20
0.806654
11
1.61866
21
0.806079
0
LINE
8
BLACK
6
CONTINUOUS
10
0.309847
20
0.856009
11
0.314818
21
0.854264
0
LINE
8
BLACK
6
CONTINUOUS
10
0.314818
20
0.854264
11
0.319055
21
0.851134
0
LINE
8
BLACK
6
CONTINUOUS
10
0.319055
20
0.851134
11
0.322185
21
0.846896
0
LINE
8
BLACK
6
CONTINUOUS
10
0.322185
20
0.846896
11
0.32393
21
0.841926
0
LINE
8
BLACK
6
CONTINUOUS
10
0.32393
20
0.841926
11
0.324244
21
0.838606
0
LINE
8
BLACK
6
CONTINUOUS
10
0.324244
20
0.838606
11
0.324244
21
0.789394
0
LINE
8
BLACK
6
CONTINUOUS
10
0.324244
20
0.789394
11
0.32393
21
0.786074
0
LINE
8
BLACK
6
CONTINUOUS
10
0.32393
20
0.786074
11
0.322185
21
0.781104
0
LINE
8
BLACK
6
CONTINUOUS
10
0.322185
20
0.781104
11
0.319055
21
0.776866
0
LINE
8
BLACK
6
CONTINUOUS
10
0.319055
20
0.776866
11
0.314818
21
0.773736
0
LINE
8
BLACK
6
CONTINUOUS
10
0.314818
20
0.773736
11
0.309847
21
0.771991
0
LINE
8
BLACK
6
CONTINUOUS
10
0.309847
20
0.771991
11
0.306528
21
0.771677
0
LINE
8
BLACK
6
CONTINUOUS
10
0.306528
20
0.771677
11
0.277
21
0.771677
0
LINE
8
BLACK
6
CONTINUOUS
10
0.277
20
0.771677
11
0.27368
21
0.771991
0
LINE
8
BLACK
6
CONTINUOUS
10
0.27368
20
0.771991
11
0.26871
21
0.773736
0
LINE
8
BLACK
6
CONTINUOUS
10
0.26871
20
0.773736
11
0.264473
21
0.776866
0
LINE
8
BLACK
6
CONTINUOUS
10
0.264473
20
0.776866
11
0.261343
21
0.781104
0
LINE
8
BLACK
6
CONTINUOUS
10
0.261343
20
0.781104
11
0.259597
21
0.786074
0
LINE
8
BLACK
6
CONTINUOUS
10
0.259597
20
0.786074
11
0.259283
21
0.789394
0
LINE
8
BLACK
6
CONTINUOUS
10
0.259283
20
0.789394
11
0.259283
21
0.838606
0
LINE
8
BLACK
6
CONTINUOUS
10
0.259283
20
0.838606
11
0.259597
21
0.841926
0
LINE
8
BLACK
6
CONTINUOUS
10
0.259597
20
0.841926
11
0.261343
21
0.846896
0
LINE
8
BLACK
6
CONTINUOUS
10
0.261343
20
0.846896
11
0.264473
21
0.851134
0
LINE
8
BLACK
6
CONTINUOUS
10
0.264473
20
0.851134
11
0.26871
21
0.854264
0
LINE
8
BLACK
6
CONTINUOUS
10
0.26871
20
0.854264
11
0.27368
21
0.856009
0
LINE
8
BLACK
6
CONTINUOUS
10
0.27368
20
0.856009
11
0.277
21
0.856323
0
LINE
8
BLACK
6
CONTINUOUS
10
0.277
20
0.856323
11
0.306528
21
0.856323
0
LINE
8
BLACK
6
CONTINUOUS
10
0.306528
20
0.856323
11
0.309847
21
0.856009
0
LINE
8
BLACK
6
CONTINUOUS
10
0.420084
20
0.856009
11
0.425054
21
0.854264
0
LINE
8
BLACK
6
CONTINUOUS
10
0.425054
20
0.854264
11
0.429291
21
0.851134
0
LINE
8
BLACK
6
CONTINUOUS
10
0.429291
20
0.851134
11
0.432421
21
0.846896
0
LINE
8
BLACK
6
CONTINUOUS
10
0.432421
20
0.846896
11
0.434166
21
0.841926
0
LINE
8
BLACK
6
CONTINUOUS
10
0.434166
20
0.841926
11
0.43448
21
0.838606
0
LINE
8
BLACK
6
CONTINUOUS
10
0.43448
20
0.838606
11
0.43448
21
0.789394
0
LINE
8
BLACK
6
CONTINUOUS
10
0.43448
20
0.789394
11
0.434166
21
0.786074
0
LINE
8
BLACK
6
CONTINUOUS
10
0.434166
20
0.786074
11
0.432421
21
0.781104
0
LINE
8
BLACK
6
CONTINUOUS
10
0.432421
20
0.781104
11
0.429291
21
0.776866
0
LINE
8
BLACK
6
CONTINUOUS
10
0.429291
20
0.776866
11
0.425054
21
0.773736
0
LINE
8
BLACK
6
CONTINUOUS
10
0.425054
20
0.773736
11
0.420084
21
0.771991
0
LINE
8
BLACK
6
CONTINUOUS
10
0.420084
20
0.771991
11
0.416764
21
0.771677
0
LINE
8
BLACK
6
CONTINUOUS
10
0.416764
20
0.771677
11
0.387236
21
0.771677
0
LINE
8
BLACK
6
CONTINUOUS
10
0.387236
20
0.771677
11
0.383916
21
0.771991
0
LINE
8
BLACK
6
CONTINUOUS
10
0.383916
20
0.771991
11
0.378946
21
0.773736
0
LINE
8
BLACK
6
CONTINUOUS
10
0.378946
20
0.773736
11
0.374709
21
0.776866
0
LINE
8
BLACK
6
CONTINUOUS
10
0.374709
20
0.776866
11
0.371579
21
0.781104
0
LINE
8
BLACK
6
CONTINUOUS
10
0.371579
20
0.781104
11
0.369834
21
0.786074
0
LINE
8
BLACK
6
CONTINUOUS
10
0.369834
20
0.786074
11
0.36952
21
0.789394
0
LINE
8
BLACK
6
CONTINUOUS
10
0.36952
20
0.789394
11
0.36952
21
0.838606
0
LINE
8
BLACK
6
CONTINUOUS
10
0.36952
20
0.838606
11
0.369834
21
0.841926
0
LINE
8
BLACK
6
CONTINUOUS
10
0.369834
20
0.841926
11
0.371579
21
0.846896
0
LINE
8
BLACK
6
CONTINUOUS
10
0.371579
20
0.846896
11
0.374709
21
0.851134
0
LINE
8
BLACK
6
CONTINUOUS
10
0.374709
20
0.851134
11
0.378946
21
0.854264
0
LINE
8
BLACK
6
CONTINUOUS
10
0.378946
20
0.854264
11
0.383916
21
0.856009
0
LINE
8
BLACK
6
CONTINUOUS
10
0.383916
20
0.856009
11
0.387236
21
0.856323
0
LINE
8
BLACK
6
CONTINUOUS
10
0.387236
20
0.856323
11
0.416764
21
0.856323
0
LINE
8
BLACK
6
CONTINUOUS
10
0.416764
20
0.856323
11
0.420084
21
0.856009
0
LINE
8
BLACK
6
CONTINUOUS
10
0.716513
20
0.834775
11
0.719068
21
0.833068
0
LINE
8
BLACK
6
CONTINUOUS
10
0.719068
20
0.833068
11
0.720775
21
0.830513
0
LINE
8
BLACK
6
CONTINUOUS
10
0.720775
20
0.830513
11
0.721374
21
0.8275
0
LINE
8
BLACK
6
CONTINUOUS
10
0.721374
20
0.8275
11
0.721374
21
0.7925
0
LINE
8
BLACK
6
CONTINUOUS
10
0.721374
20
0.7925
11
0.720775
21
0.789487
0
LINE
8
BLACK
6
CONTINUOUS
10
0.720775
20
0.789487
11
0.719068
21
0.786932
0
LINE
8
BLACK
6
CONTINUOUS
10
0.719068
20
0.786932
11
0.716513
21
0.785225
0
LINE
8
BLACK
6
CONTINUOUS
10
0.716513
20
0.785225
11
0.7135
21
0.784626
0
LINE
8
BLACK
6
CONTINUOUS
10
0.7135
20
0.784626
11
0.6585
21
0.784626
0
LINE
8
BLACK
6
CONTINUOUS
10
0.6585
20
0.784626
11
0.655487
21
0.785225
0
LINE
8
BLACK
6
CONTINUOUS
10
0.655487
20
0.785225
11
0.652932
21
0.786932
0
LINE
8
BLACK
6
CONTINUOUS
10
0.652932
20
0.786932
11
0.651225
21
0.789487
0
LINE
8
BLACK
6
CONTINUOUS
10
0.651225
20
0.789487
11
0.650626
21
0.7925
0
LINE
8
BLACK
6
CONTINUOUS
10
0.650626
20
0.7925
11
0.650626
21
0.8275
0
LINE
8
BLACK
6
CONTINUOUS
10
0.650626
20
0.8275
11
0.651225
21
0.830513
0
LINE
8
BLACK
6
CONTINUOUS
10
0.651225
20
0.830513
11
0.652932
21
0.833068
0
LINE
8
BLACK
6
CONTINUOUS
10
0.652932
20
0.833068
11
0.655487
21
0.834775
0
LINE
8
BLACK
6
CONTINUOUS
10
0.655487
20
0.834775
11
0.6585
21
0.835374
0
LINE
8
BLACK
6
CONTINUOUS
10
0.6585
20
0.835374
11
0.7135
21
0.835374
0
LINE
8
BLACK
6
CONTINUOUS
10
0.7135
20
0.835374
11
0.716513
21
0.834775
0
LINE
8
BLACK
6
CONTINUOUS
10
1.61866
20
0.855292
11
1.62273
21
0.853305
0
LINE
8
BLACK
6
CONTINUOUS
10
1.62273
20
0.853305
11
1.62593
21
0.850108
0
LINE
8
BLACK
6
CONTINUOUS
10
1.62593
20
0.850108
11
1.62792
21
0.846046
0
LINE
8
BLACK
6
CONTINUOUS
10
1.62792
20
0.846046
11
1.6285
21
0.842087
0
LINE
8
BLACK
6
CONTINUOUS
10
1.6285
20
0.842087
11
1.6285
21
0.830276
0
LINE
8
BLACK
6
CONTINUOUS
10
1.6285
20
0.830276
11
1.62793
21
0.826339
0
LINE
8
BLACK
6
CONTINUOUS
10
1.62793
20
0.826339
11
1.62594
21
0.822274
0
LINE
8
BLACK
6
CONTINUOUS
10
1.62594
20
0.822274
11
1.62275
21
0.819071
0
LINE
8
BLACK
6
CONTINUOUS
10
1.62275
20
0.819071
11
1.61868
21
0.817077
0
LINE
8
BLACK
6
CONTINUOUS
10
1.61868
20
0.817077
11
1.61472
21
0.816496
0
LINE
8
BLACK
6
CONTINUOUS
10
1.61472
20
0.816496
11
1.55961
21
0.816496
0
LINE
8
BLACK
6
CONTINUOUS
10
1.55961
20
0.816496
11
1.55567
21
0.81707
0
LINE
8
BLACK
6
CONTINUOUS
10
1.55567
20
0.81707
11
1.5516
21
0.819057
0
LINE
8
BLACK
6
CONTINUOUS
10
1.5516
20
0.819057
11
1.5484
21
0.822254
0
LINE
8
BLACK
6
CONTINUOUS
10
1.5484
20
0.822254
11
1.54641
21
0.826316
0
LINE
8
BLACK
6
CONTINUOUS
10
1.54641
20
0.826316
11
1.54583
21
0.830276
0
LINE
8
BLACK
6
CONTINUOUS
10
1.54583
20
0.830276
11
1.54583
21
0.842087
0
LINE
8
BLACK
6
CONTINUOUS
10
1.54583
20
0.842087
11
1.5464
21
0.846023
0
LINE
8
BLACK
6
CONTINUOUS
10
1.5464
20
0.846023
11
1.54839
21
0.850088
0
LINE
8
BLACK
6
CONTINUOUS
10
1.54839
20
0.850088
11
1.55158
21
0.853291
0
LINE
8
BLACK
6
CONTINUOUS
10
1.55158
20
0.853291
11
1.55565
21
0.855285
0
LINE
8
BLACK
6
CONTINUOUS
10
1.55565
20
0.855285
11
1.55961
21
0.855866
0
LINE
8
BLACK
6
CONTINUOUS
10
1.55961
20
0.855866
11
1.61472
21
0.855866
0
LINE
8
BLACK
6
CONTINUOUS
10
1.61472
20
0.855866
11
1.61866
21
0.855292
0
LINE
8
BLACK
6
CONTINUOUS
10
1.61866
20
0.904504
11
1.62273
21
0.902517
0
LINE
8
BLACK
6
CONTINUOUS
10
1.62273
20
0.902517
11
1.62593
21
0.899321
0
LINE
8
BLACK
6
CONTINUOUS
10
1.62593
20
0.899321
11
1.62792
21
0.895259
0
LINE
8
BLACK
6
CONTINUOUS
10
1.62792
20
0.895259
11
1.6285
21
0.891299
0
LINE
8
BLACK
6
CONTINUOUS
10
1.6285
20
0.891299
11
1.6285
21
0.879488
0
LINE
8
BLACK
6
CONTINUOUS
10
1.6285
20
0.879488
11
1.62793
21
0.875552
0
LINE
8
BLACK
6
CONTINUOUS
10
1.62793
20
0.875552
11
1.62594
21
0.871486
0
LINE
8
BLACK
6
CONTINUOUS
10
1.62594
20
0.871486
11
1.62275
21
0.868284
0
LINE
8
BLACK
6
CONTINUOUS
10
1.62275
20
0.868284
11
1.61868
21
0.86629
0
LINE
8
BLACK
6
CONTINUOUS
10
1.61868
20
0.86629
11
1.61472
21
0.865709
0
LINE
8
BLACK
6
CONTINUOUS
10
1.61472
20
0.865709
11
1.55961
21
0.865709
0
LINE
8
BLACK
6
CONTINUOUS
10
1.55961
20
0.865709
11
1.55567
21
0.866283
0
LINE
8
BLACK
6
CONTINUOUS
10
1.55567
20
0.866283
11
1.5516
21
0.86827
0
LINE
8
BLACK
6
CONTINUOUS
10
1.5516
20
0.86827
11
1.5484
21
0.871467
0
LINE
8
BLACK
6
CONTINUOUS
10
1.5484
20
0.871467
11
1.54641
21
0.875529
0
LINE
8
BLACK
6
CONTINUOUS
10
1.54641
20
0.875529
11
1.54583
21
0.879488
0
LINE
8
BLACK
6
CONTINUOUS
10
1.54583
20
0.879488
11
1.54583
21
0.891299
0
LINE
8
BLACK
6
CONTINUOUS
10
1.54583
20
0.891299
11
1.5464
21
0.895236
0
LINE
8
BLACK
6
CONTINUOUS
10
1.5464
20
0.895236
11
1.54839
21
0.899301
0
LINE
8
BLACK
6
CONTINUOUS
10
1.54839
20
0.899301
11
1.55158
21
0.902503
0
LINE
8
BLACK
6
CONTINUOUS
10
1.55158
20
0.902503
11
1.55565
21
0.904498
0
LINE
8
BLACK
6
CONTINUOUS
10
1.55565
20
0.904498
11
1.55961
21
0.905079
0
LINE
8
BLACK
6
CONTINUOUS
10
1.55961
20
0.905079
11
1.61472
21
0.905079
0
LINE
8
BLACK
6
CONTINUOUS
10
1.61472
20
0.905079
11
1.61866
21
0.904504
0
LINE
8
BLACK
6
CONTINUOUS
10
0.872501
20
0.949597
11
0.875056
21
0.947891
0
LINE
8
BLACK
6
CONTINUOUS
10
0.875056
20
0.947891
11
0.876763
21
0.945336
0
LINE
8
BLACK
6
CONTINUOUS
10
0.876763
20
0.945336
11
0.877362
21
0.942323
0
LINE
8
BLACK
6
CONTINUOUS
10
0.877362
20
0.942323
11
0.877362
21
0.875394
0
LINE
8
BLACK
6
CONTINUOUS
10
0.877362
20
0.875394
11
0.876763
21
0.87238
0
LINE
8
BLACK
6
CONTINUOUS
10
0.876763
20
0.87238
11
0.875056
21
0.869826
0
LINE
8
BLACK
6
CONTINUOUS
10
0.875056
20
0.869826
11
0.872501
21
0.868119
0
LINE
8
BLACK
6
CONTINUOUS
10
0.872501
20
0.868119
11
0.869488
21
0.86752
0
LINE
8
BLACK
6
CONTINUOUS
10
0.869488
20
0.86752
11
0.798622
21
0.86752
0
LINE
8
BLACK
6
CONTINUOUS
10
0.798622
20
0.86752
11
0.795609
21
0.868119
0
LINE
8
BLACK
6
CONTINUOUS
10
0.795609
20
0.868119
11
0.793054
21
0.869826
0
LINE
8
BLACK
6
CONTINUOUS
10
0.793054
20
0.869826
11
0.791347
21
0.87238
0
LINE
8
BLACK
6
CONTINUOUS
10
0.791347
20
0.87238
11
0.790748
21
0.875394
0
LINE
8
BLACK
6
CONTINUOUS
10
0.790748
20
0.875394
11
0.790748
21
0.942323
0
LINE
8
BLACK
6
CONTINUOUS
10
0.790748
20
0.942323
11
0.791347
21
0.945336
0
LINE
8
BLACK
6
CONTINUOUS
10
0.791347
20
0.945336
11
0.793054
21
0.947891
0
LINE
8
BLACK
6
CONTINUOUS
10
0.793054
20
0.947891
11
0.795609
21
0.949597
0
LINE
8
BLACK
6
CONTINUOUS
10
0.795609
20
0.949597
11
0.798622
21
0.950197
0
LINE
8
BLACK
6
CONTINUOUS
10
0.798622
20
0.950197
11
0.869488
21
0.950197
0
LINE
8
BLACK
6
CONTINUOUS
10
0.869488
20
0.950197
11
0.872501
21
0.949597
0
LINE
8
BLACK
6
CONTINUOUS
10
0.754391
20
0.949597
11
0.756946
21
0.947891
0
LINE
8
BLACK
6
CONTINUOUS
10
0.756946
20
0.947891
11
0.758653
21
0.945336
0
LINE
8
BLACK
6
CONTINUOUS
10
0.758653
20
0.945336
11
0.759252
21
0.942323
0
LINE
8
BLACK
6
CONTINUOUS
10
0.759252
20
0.942323
11
0.759252
21
0.875394
0
LINE
8
BLACK
6
CONTINUOUS
10
0.759252
20
0.875394
11
0.758653
21
0.87238
0
LINE
8
BLACK
6
CONTINUOUS
10
0.758653
20
0.87238
11
0.756946
21
0.869826
0
LINE
8
BLACK
6
CONTINUOUS
10
0.756946
20
0.869826
11
0.754391
21
0.868119
0
LINE
8
BLACK
6
CONTINUOUS
10
0.754391
20
0.868119
11
0.751378
21
0.86752
0
LINE
8
BLACK
6
CONTINUOUS
10
0.751378
20
0.86752
11
0.680512
21
0.86752
0
LINE
8
BLACK
6
CONTINUOUS
10
0.680512
20
0.86752
11
0.677499
21
0.868119
0
LINE
8
BLACK
6
CONTINUOUS
10
0.677499
20
0.868119
11
0.674944
21
0.869826
0
LINE
8
BLACK
6
CONTINUOUS
10
0.674944
20
0.869826
11
0.673237
21
0.87238
0
LINE
8
BLACK
6
CONTINUOUS
10
0.673237
20
0.87238
11
0.672638
21
0.875394
0
LINE
8
BLACK
6
CONTINUOUS
10
0.672638
20
0.875394
11
0.672638
21
0.942323
0
LINE
8
BLACK
6
CONTINUOUS
10
0.672638
20
0.942323
11
0.673237
21
0.945336
0
LINE
8
BLACK
6
CONTINUOUS
10
0.673237
20
0.945336
11
0.674944
21
0.947891
0
LINE
8
BLACK
6
CONTINUOUS
10
0.674944
20
0.947891
11
0.677499
21
0.949597
0
LINE
8
BLACK
6
CONTINUOUS
10
0.677499
20
0.949597
11
0.680512
21
0.950197
0
LINE
8
BLACK
6
CONTINUOUS
10
0.680512
20
0.950197
11
0.751378
21
0.950197
0
LINE
8
BLACK
6
CONTINUOUS
10
0.751378
20
0.950197
11
0.754391
21
0.949597
0
LINE
8
BLACK
6
CONTINUOUS
10
0.596911
20
1.04074
11
0.599465
21
1.03903
0
LINE
8
BLACK
6
CONTINUOUS
10
0.599465
20
1.03903
11
0.601172
21
1.03648
0
LINE
8
BLACK
6
CONTINUOUS
10
0.601172
20
1.03648
11
0.601772
21
1.03346
0
LINE
8
BLACK
6
CONTINUOUS
10
0.601772
20
1.03346
11
0.601772
21
0.895669
0
LINE
8
BLACK
6
CONTINUOUS
10
0.601772
20
0.895669
11
0.601172
21
0.892656
0
LINE
8
BLACK
6
CONTINUOUS
10
0.601172
20
0.892656
11
0.599465
21
0.890102
0
LINE
8
BLACK
6
CONTINUOUS
10
0.599465
20
0.890102
11
0.596911
21
0.888395
0
LINE
8
BLACK
6
CONTINUOUS
10
0.596911
20
0.888395
11
0.593898
21
0.887795
0
LINE
8
BLACK
6
CONTINUOUS
10
0.593898
20
0.887795
11
0.456102
21
0.887795
0
LINE
8
BLACK
6
CONTINUOUS
10
0.456102
20
0.887795
11
0.453089
21
0.888395
0
LINE
8
BLACK
6
CONTINUOUS
10
0.453089
20
0.888395
11
0.450535
21
0.890102
0
LINE
8
BLACK
6
CONTINUOUS
10
0.450535
20
0.890102
11
0.448828
21
0.892656
0
LINE
8
BLACK
6
CONTINUOUS
10
0.448828
20
0.892656
11
0.448228
21
0.895669
0
LINE
8
BLACK
6
CONTINUOUS
10
0.448228
20
0.895669
11
0.448228
21
1.03346
0
LINE
8
BLACK
6
CONTINUOUS
10
0.448228
20
1.03346
11
0.448828
21
1.03648
0
LINE
8
BLACK
6
CONTINUOUS
10
0.448828
20
1.03648
11
0.450535
21
1.03903
0
LINE
8
BLACK
6
CONTINUOUS
10
0.450535
20
1.03903
11
0.453089
21
1.04074
0
LINE
8
BLACK
6
CONTINUOUS
10
0.453089
20
1.04074
11
0.456102
21
1.04134
0
LINE
8
BLACK
6
CONTINUOUS
10
0.456102
20
1.04134
11
0.593898
21
1.04134
0
LINE
8
BLACK
6
CONTINUOUS
10
0.593898
20
1.04134
11
0.596911
21
1.04074
0
LINE
8
BLACK
6
CONTINUOUS
10
1.2727
20
1.04074
11
1.27525
21
1.03903
0
LINE
8
BLACK
6
CONTINUOUS
10
1.27525
20
1.03903
11
1.27696
21
1.03648
0
LINE
8
BLACK
6
CONTINUOUS
10
1.27696
20
1.03648
11
1.27756
21
1.03346
0
LINE
8
BLACK
6
CONTINUOUS
10
1.27756
20
1.03346
11
1.27756
21
0.895669
0
LINE
8
BLACK
6
CONTINUOUS
10
1.27756
20
0.895669
11
1.27696
21
0.892656
0
LINE
8
BLACK
6
CONTINUOUS
10
1.27696
20
0.892656
11
1.27525
21
0.890102
0
LINE
8
BLACK
6
CONTINUOUS
10
1.27525
20
0.890102
11
1.2727
21
0.888395
0
LINE
8
BLACK
6
CONTINUOUS
10
1.2727
20
0.888395
11
1.26969
21
0.887795
0
LINE
8
BLACK
6
CONTINUOUS
10
1.26969
20
0.887795
11
1.13189
21
0.887795
0
LINE
8
BLACK
6
CONTINUOUS
10
1.13189
20
0.887795
11
1.12888
21
0.888395
0
LINE
8
BLACK
6
CONTINUOUS
10
1.12888
20
0.888395
11
1.12632
21
0.890102
0
LINE
8
BLACK
6
CONTINUOUS
10
1.12632
20
0.890102
11
1.12462
21
0.892656
0
LINE
8
BLACK
6
CONTINUOUS
10
1.12462
20
0.892656
11
1.12402
21
0.895669
0
LINE
8
BLACK
6
CONTINUOUS
10
1.12402
20
0.895669
11
1.12402
21
1.03346
0
LINE
8
BLACK
6
CONTINUOUS
10
1.12402
20
1.03346
11
1.12462
21
1.03648
0
LINE
8
BLACK
6
CONTINUOUS
10
1.12462
20
1.03648
11
1.12632
21
1.03903
0
LINE
8
BLACK
6
CONTINUOUS
10
1.12632
20
1.03903
11
1.12888
21
1.04074
0
LINE
8
BLACK
6
CONTINUOUS
10
1.12888
20
1.04074
11
1.13189
21
1.04134
0
LINE
8
BLACK
6
CONTINUOUS
10
1.13189
20
1.04134
11
1.26969
21
1.04134
0
LINE
8
BLACK
6
CONTINUOUS
10
1.26969
20
1.04134
11
1.2727
21
1.04074
0
LINE
8
BLACK
6
CONTINUOUS
10
1.61866
20
0.953717
11
1.62273
21
0.95173
0
LINE
8
BLACK
6
CONTINUOUS
10
1.62273
20
0.95173
11
1.62593
21
0.948533
0
LINE
8
BLACK
6
CONTINUOUS
10
1.62593
20
0.948533
11
1.62792
21
0.944471
0
LINE
8
BLACK
6
CONTINUOUS
10
1.62792
20
0.944471
11
1.6285
21
0.940512
0
LINE
8
BLACK
6
CONTINUOUS
10
1.6285
20
0.940512
11
1.6285
21
0.928701
0
LINE
8
BLACK
6
CONTINUOUS
10
1.6285
20
0.928701
11
1.62793
21
0.924764
0
LINE
8
BLACK
6
CONTINUOUS
10
1.62793
20
0.924764
11
1.62594
21
0.920699
0
LINE
8
BLACK
6
CONTINUOUS
10
1.62594
20
0.920699
11
1.62275
21
0.917497
0
LINE
8
BLACK
6
CONTINUOUS
10
1.62275
20
0.917497
11
1.61868
21
0.915502
0
LINE
8
BLACK
6
CONTINUOUS
10
1.61868
20
0.915502
11
1.61472
21
0.914921
0
LINE
8
BLACK
6
CONTINUOUS
10
1.61472
20
0.914921
11
1.55961
21
0.914921
0
LINE
8
BLACK
6
CONTINUOUS
10
1.55961
20
0.914921
11
1.55567
21
0.915496
0
LINE
8
BLACK
6
CONTINUOUS
10
1.55567
20
0.915496
11
1.5516
21
0.917483
0
LINE
8
BLACK
6
CONTINUOUS
10
1.5516
20
0.917483
11
1.5484
21
0.920679
0
LINE
8
BLACK
6
CONTINUOUS
10
1.5484
20
0.920679
11
1.54641
21
0.924741
0
LINE
8
BLACK
6
CONTINUOUS
10
1.54641
20
0.924741
11
1.54583
21
0.928701
0
LINE
8
BLACK
6
CONTINUOUS
10
1.54583
20
0.928701
11
1.54583
21
0.940512
0
LINE
8
BLACK
6
CONTINUOUS
10
1.54583
20
0.940512
11
1.5464
21
0.944448
0
LINE
8
BLACK
6
CONTINUOUS
10
1.5464
20
0.944448
11
1.54839
21
0.948514
0
LINE
8
BLACK
6
CONTINUOUS
10
1.54839
20
0.948514
11
1.55158
21
0.951716
0
LINE
8
BLACK
6
CONTINUOUS
10
1.55158
20
0.951716
11
1.55565
21
0.95371
0
LINE
8
BLACK
6
CONTINUOUS
10
1.55565
20
0.95371
11
1.55961
21
0.954291
0
LINE
8
BLACK
6
CONTINUOUS
10
1.55961
20
0.954291
11
1.61472
21
0.954291
0
LINE
8
BLACK
6
CONTINUOUS
10
1.61472
20
0.954291
11
1.61866
21
0.953717
0
LINE
8
BLACK
6
CONTINUOUS
10
1.61866
20
1.00293
11
1.62273
21
1.00094
0
LINE
8
BLACK
6
CONTINUOUS
10
1.62273
20
1.00094
11
1.62593
21
0.997746
0
LINE
8
BLACK
6
CONTINUOUS
10
1.62593
20
0.997746
11
1.62792
21
0.993684
0
LINE
8
BLACK
6
CONTINUOUS
10
1.62792
20
0.993684
11
1.6285
21
0.989724
0
LINE
8
BLACK
6
CONTINUOUS
10
1.6285
20
0.989724
11
1.6285
21
0.977913
0
LINE
8
BLACK
6
CONTINUOUS
10
1.6285
20
0.977913
11
1.62793
21
0.973977
0
LINE
8
BLACK
6
CONTINUOUS
10
1.62793
20
0.973977
11
1.62594
21
0.969912
0
LINE
8
BLACK
6
CONTINUOUS
10
1.62594
20
0.969912
11
1.62275
21
0.966709
0
LINE
8
BLACK
6
CONTINUOUS
10
1.62275
20
0.966709
11
1.61868
21
0.964715
0
LINE
8
BLACK
6
CONTINUOUS
10
1.61868
20
0.964715
11
1.61472
21
0.964134
0
LINE
8
BLACK
6
CONTINUOUS
10
1.61472
20
0.964134
11
1.55961
21
0.964134
0
LINE
8
BLACK
6
CONTINUOUS
10
1.55961
20
0.964134
11
1.55567
21
0.964708
0
LINE
8
BLACK
6
CONTINUOUS
10
1.55567
20
0.964708
11
1.5516
21
0.966695
0
LINE
8
BLACK
6
CONTINUOUS
10
1.5516
20
0.966695
11
1.5484
21
0.969892
0
LINE
8
BLACK
6
CONTINUOUS
10
1.5484
20
0.969892
11
1.54641
21
0.973954
0
LINE
8
BLACK
6
CONTINUOUS
10
1.54641
20
0.973954
11
1.54583
21
0.977913
0
LINE
8
BLACK
6
CONTINUOUS
10
1.54583
20
0.977913
11
1.54583
21
0.989724
0
LINE
8
BLACK
6
CONTINUOUS
10
1.54583
20
0.989724
11
1.5464
21
0.993661
0
LINE
8
BLACK
6
CONTINUOUS
10
1.5464
20
0.993661
11
1.54839
21
0.997726
0
LINE
8
BLACK
6
CONTINUOUS
10
1.54839
20
0.997726
11
1.55158
21
1.00093
0
LINE
8
BLACK
6
CONTINUOUS
10
1.55158
20
1.00093
11
1.55565
21
1.00292
0
LINE
8
BLACK
6
CONTINUOUS
10
1.55565
20
1.00292
11
1.55961
21
1.0035
0
LINE
8
BLACK
6
CONTINUOUS
10
1.55961
20
1.0035
11
1.61472
21
1.0035
0
LINE
8
BLACK
6
CONTINUOUS
10
1.61472
20
1.0035
11
1.61866
21
1.00293
0
LINE
8
BLACK
6
CONTINUOUS
10
0.905966
20
1.02046
11
0.908521
21
1.01876
0
LINE
8
BLACK
6
CONTINUOUS
10
0.908521
20
1.01876
11
0.910227
21
1.0162
0
LINE
8
BLACK
6
CONTINUOUS
10
0.910227
20
1.0162
11
0.910827
21
1.01319
0
LINE
8
BLACK
6
CONTINUOUS
10
0.910827
20
1.01319
11
0.910827
21
0.989567
0
LINE
8
BLACK
6
CONTINUOUS
10
0.910827
20
0.989567
11
0.910227
21
0.986554
0
LINE
8
BLACK
6
CONTINUOUS
10
0.910227
20
0.986554
11
0.908521
21
0.983999
0
LINE
8
BLACK
6
CONTINUOUS
10
0.908521
20
0.983999
11
0.905966
21
0.982292
0
LINE
8
BLACK
6
CONTINUOUS
10
0.905966
20
0.982292
11
0.902953
21
0.981693
0
LINE
8
BLACK
6
CONTINUOUS
10
0.902953
20
0.981693
11
0.86752
21
0.981693
0
LINE
8
BLACK
6
CONTINUOUS
10
0.86752
20
0.981693
11
0.864506
21
0.982292
0
LINE
8
BLACK
6
CONTINUOUS
10
0.864506
20
0.982292
11
0.861952
21
0.983999
0
LINE
8
BLACK
6
CONTINUOUS
10
0.861952
20
0.983999
11
0.860245
21
0.986554
0
LINE
8
BLACK
6
CONTINUOUS
10
0.860245
20
0.986554
11
0.859646
21
0.989567
0
LINE
8
BLACK
6
CONTINUOUS
10
0.859646
20
0.989567
11
0.859646
21
1.01319
0
LINE
8
BLACK
6
CONTINUOUS
10
0.859646
20
1.01319
11
0.860245
21
1.0162
0
LINE
8
BLACK
6
CONTINUOUS
10
0.860245
20
1.0162
11
0.861952
21
1.01876
0
LINE
8
BLACK
6
CONTINUOUS
10
0.861952
20
1.01876
11
0.864506
21
1.02046
0
LINE
8
BLACK
6
CONTINUOUS
10
0.864506
20
1.02046
11
0.86752
21
1.02106
0
LINE
8
BLACK
6
CONTINUOUS
10
0.86752
20
1.02106
11
0.902953
21
1.02106
0
LINE
8
BLACK
6
CONTINUOUS
10
0.902953
20
1.02106
11
0.905966
21
1.02046
0
LINE
8
BLACK
6
CONTINUOUS
10
0.685494
20
1.02046
11
0.688048
21
1.01876
0
LINE
8
BLACK
6
CONTINUOUS
10
0.688048
20
1.01876
11
0.689755
21
1.0162
0
LINE
8
BLACK
6
CONTINUOUS
10
0.689755
20
1.0162
11
0.690354
21
1.01319
0
LINE
8
BLACK
6
CONTINUOUS
10
0.690354
20
1.01319
11
0.690354
21
0.989567
0
LINE
8
BLACK
6
CONTINUOUS
10
0.690354
20
0.989567
11
0.689755
21
0.986554
0
LINE
8
BLACK
6
CONTINUOUS
10
0.689755
20
0.986554
11
0.688048
21
0.983999
0
LINE
8
BLACK
6
CONTINUOUS
10
0.688048
20
0.983999
11
0.685494
21
0.982292
0
LINE
8
BLACK
6
CONTINUOUS
10
0.685494
20
0.982292
11
0.68248
21
0.981693
0
LINE
8
BLACK
6
CONTINUOUS
10
0.68248
20
0.981693
11
0.647047
21
0.981693
0
LINE
8
BLACK
6
CONTINUOUS
10
0.647047
20
0.981693
11
0.644034
21
0.982292
0
LINE
8
BLACK
6
CONTINUOUS
10
0.644034
20
0.982292
11
0.641479
21
0.983999
0
LINE
8
BLACK
6
CONTINUOUS
10
0.641479
20
0.983999
11
0.639773
21
0.986554
0
LINE
8
BLACK
6
CONTINUOUS
10
0.639773
20
0.986554
11
0.639173
21
0.989567
0
LINE
8
BLACK
6
CONTINUOUS
10
0.639173
20
0.989567
11
0.639173
21
1.01319
0
LINE
8
BLACK
6
CONTINUOUS
10
0.639173
20
1.01319
11
0.639773
21
1.0162
0
LINE
8
BLACK
6
CONTINUOUS
10
0.639773
20
1.0162
11
0.641479
21
1.01876
0
LINE
8
BLACK
6
CONTINUOUS
10
0.641479
20
1.01876
11
0.644034
21
1.02046
0
LINE
8
BLACK
6
CONTINUOUS
10
0.644034
20
1.02046
11
0.647047
21
1.02106
0
LINE
8
BLACK
6
CONTINUOUS
10
0.647047
20
1.02106
11
0.68248
21
1.02106
0
LINE
8
BLACK
6
CONTINUOUS
10
0.68248
20
1.02106
11
0.685494
21
1.02046
0
LINE
8
BLACK
6
CONTINUOUS
10
1.61866
20
1.05214
11
1.62273
21
1.05016
0
LINE
8
BLACK
6
CONTINUOUS
10
1.62273
20
1.05016
11
1.62593
21
1.04696
0
LINE
8
BLACK
6
CONTINUOUS
10
1.62593
20
1.04696
11
1.62792
21
1.0429
0
LINE
8
BLACK
6
CONTINUOUS
10
1.62792
20
1.0429
11
1.6285
21
1.03894
0
LINE
8
BLACK
6
CONTINUOUS
10
1.6285
20
1.03894
11
1.6285
21
1.02713
0
LINE
8
BLACK
6
CONTINUOUS
10
1.6285
20
1.02713
11
1.62793
21
1.02319
0
LINE
8
BLACK
6
CONTINUOUS
10
1.62793
20
1.02319
11
1.62594
21
1.01912
0
LINE
8
BLACK
6
CONTINUOUS
10
1.62594
20
1.01912
11
1.62275
21
1.01592
0
LINE
8
BLACK
6
CONTINUOUS
10
1.62275
20
1.01592
11
1.61868
21
1.01393
0
LINE
8
BLACK
6
CONTINUOUS
10
1.61868
20
1.01393
11
1.61472
21
1.01335
0
LINE
8
BLACK
6
CONTINUOUS
10
1.61472
20
1.01335
11
1.55961
21
1.01335
0
LINE
8
BLACK
6
CONTINUOUS
10
1.55961
20
1.01335
11
1.55567
21
1.01392
0
LINE
8
BLACK
6
CONTINUOUS
10
1.55567
20
1.01392
11
1.5516
21
1.01591
0
LINE
8
BLACK
6
CONTINUOUS
10
1.5516
20
1.01591
11
1.5484
21
1.0191
0
LINE
8
BLACK
6
CONTINUOUS
10
1.5484
20
1.0191
11
1.54641
21
1.02317
0
LINE
8
BLACK
6
CONTINUOUS
10
1.54641
20
1.02317
11
1.54583
21
1.02713
0
LINE
8
BLACK
6
CONTINUOUS
10
1.54583
20
1.02713
11
1.54583
21
1.03894
0
LINE
8
BLACK
6
CONTINUOUS
10
1.54583
20
1.03894
11
1.5464
21
1.04287
0
LINE
8
BLACK
6
CONTINUOUS
10
1.5464
20
1.04287
11
1.54839
21
1.04694
0
LINE
8
BLACK
6
CONTINUOUS
10
1.54839
20
1.04694
11
1.55158
21
1.05014
0
LINE
8
BLACK
6
CONTINUOUS
10
1.55158
20
1.05014
11
1.55565
21
1.05214
0
LINE
8
BLACK
6
CONTINUOUS
10
1.55565
20
1.05214
11
1.55961
21
1.05272
0
LINE
8
BLACK
6
CONTINUOUS
10
1.55961
20
1.05272
11
1.61472
21
1.05272
0
LINE
8
BLACK
6
CONTINUOUS
10
1.61472
20
1.05272
11
1.61866
21
1.05214
0
LINE
8
BLACK
6
CONTINUOUS
10
1.40859
20
1.11638
11
1.41535
21
1.11336
0
LINE
8
BLACK
6
CONTINUOUS
10
1.41535
20
1.11336
11
1.42135
21
1.10901
0
LINE
8
BLACK
6
CONTINUOUS
10
1.42135
20
1.10901
11
1.4263
21
1.1035
0
LINE
8
BLACK
6
CONTINUOUS
10
1.4263
20
1.1035
11
1.43001
21
1.09709
0
LINE
8
BLACK
6
CONTINUOUS
10
1.43001
20
1.09709
11
1.4323
21
1.09004
0
LINE
8
BLACK
6
CONTINUOUS
10
1.4323
20
1.09004
11
1.43307
21
1.08268
0
LINE
8
BLACK
6
CONTINUOUS
10
1.43307
20
1.08268
11
1.4323
21
1.07531
0
LINE
8
BLACK
6
CONTINUOUS
10
1.4323
20
1.07531
11
1.43001
21
1.06827
0
LINE
8
BLACK
6
CONTINUOUS
10
1.43001
20
1.06827
11
1.4263
21
1.06185
0
LINE
8
BLACK
6
CONTINUOUS
10
1.4263
20
1.06185
11
1.42135
21
1.05635
0
LINE
8
BLACK
6
CONTINUOUS
10
1.42135
20
1.05635
11
1.41535
21
1.05199
0
LINE
8
BLACK
6
CONTINUOUS
10
1.41535
20
1.05199
11
1.40859
21
1.04898
0
LINE
8
BLACK
6
CONTINUOUS
10
1.40859
20
1.04898
11
1.40134
21
1.04744
0
LINE
8
BLACK
6
CONTINUOUS
10
1.40134
20
1.04744
11
1.39393
21
1.04744
0
LINE
8
BLACK
6
CONTINUOUS
10
1.39393
20
1.04744
11
1.38669
21
1.04898
0
LINE
8
BLACK
6
CONTINUOUS
10
1.38669
20
1.04898
11
1.37992
21
1.05199
0
LINE
8
BLACK
6
CONTINUOUS
10
1.37992
20
1.05199
11
1.37393
21
1.05635
0
LINE
8
BLACK
6
CONTINUOUS
10
1.37393
20
1.05635
11
1.36897
21
1.06185
0
LINE
8
BLACK
6
CONTINUOUS
10
1.36897
20
1.06185
11
1.36527
21
1.06827
0
LINE
8
BLACK
6
CONTINUOUS
10
1.36527
20
1.06827
11
1.36298
21
1.07531
0
LINE
8
BLACK
6
CONTINUOUS
10
1.36298
20
1.07531
11
1.3622
21
1.08268
0
LINE
8
BLACK
6
CONTINUOUS
10
1.3622
20
1.08268
11
1.36298
21
1.09004
0
LINE
8
BLACK
6
CONTINUOUS
10
1.36298
20
1.09004
11
1.36527
21
1.09709
0
LINE
8
BLACK
6
CONTINUOUS
10
1.36527
20
1.09709
11
1.36897
21
1.1035
0
LINE
8
BLACK
6
CONTINUOUS
10
1.36897
20
1.1035
11
1.37393
21
1.10901
0
LINE
8
BLACK
6
CONTINUOUS
10
1.37393
20
1.10901
11
1.37992
21
1.11336
0
LINE
8
BLACK
6
CONTINUOUS
10
1.37992
20
1.11336
11
1.38669
21
1.11638
0
LINE
8
BLACK
6
CONTINUOUS
10
1.38669
20
1.11638
11
1.39393
21
1.11792
0
LINE
8
BLACK
6
CONTINUOUS
10
1.39393
20
1.11792
11
1.40134
21
1.11792
0
LINE
8
BLACK
6
CONTINUOUS
10
1.40134
20
1.11792
11
1.40859
21
1.11638
0
LINE
8
BLACK
6
CONTINUOUS
10
0.142249
20
1.11638
11
0.149016
21
1.11336
0
LINE
8
BLACK
6
CONTINUOUS
10
0.149016
20
1.11336
11
0.155009
21
1.10901
0
LINE
8
BLACK
6
CONTINUOUS
10
0.155009
20
1.10901
11
0.159965
21
1.1035
0
LINE
8
BLACK
6
CONTINUOUS
10
0.159965
20
1.1035
11
0.163669
21
1.09709
0
LINE
8
BLACK
6
CONTINUOUS
10
0.163669
20
1.09709
11
0.165958
21
1.09004
0
LINE
8
BLACK
6
CONTINUOUS
10
0.165958
20
1.09004
11
0.166732
21
1.08268
0
LINE
8
BLACK
6
CONTINUOUS
10
0.166732
20
1.08268
11
0.165958
21
1.07531
0
LINE
8
BLACK
6
CONTINUOUS
10
0.165958
20
1.07531
11
0.163669
21
1.06827
0
LINE
8
BLACK
6
CONTINUOUS
10
0.163669
20
1.06827
11
0.159965
21
1.06185
0
LINE
8
BLACK
6
CONTINUOUS
10
0.159965
20
1.06185
11
0.155009
21
1.05635
0
LINE
8
BLACK
6
CONTINUOUS
10
0.155009
20
1.05635
11
0.149016
21
1.05199
0
LINE
8
BLACK
6
CONTINUOUS
10
0.149016
20
1.05199
11
0.142249
21
1.04898
0
LINE
8
BLACK
6
CONTINUOUS
10
0.142249
20
1.04898
11
0.135003
21
1.04744
0
LINE
8
BLACK
6
CONTINUOUS
10
0.135003
20
1.04744
11
0.127595
21
1.04744
0
LINE
8
BLACK
6
CONTINUOUS
10
0.127595
20
1.04744
11
0.12035
21
1.04898
0
LINE
8
BLACK
6
CONTINUOUS
10
0.12035
20
1.04898
11
0.113583
21
1.05199
0
LINE
8
BLACK
6
CONTINUOUS
10
0.113583
20
1.05199
11
0.10759
21
1.05635
0
LINE
8
BLACK
6
CONTINUOUS
10
0.10759
20
1.05635
11
0.102633
21
1.06185
0
LINE
8
BLACK
6
CONTINUOUS
10
0.102633
20
1.06185
11
0.0989295
21
1.06827
0
LINE
8
BLACK
6
CONTINUOUS
10
0.0989295
20
1.06827
11
0.0966404
21
1.07531
0
LINE
8
BLACK
6
CONTINUOUS
10
0.0966404
20
1.07531
11
0.0958661
21
1.08268
0
LINE
8
BLACK
6
CONTINUOUS
10
0.0958661
20
1.08268
11
0.0966404
21
1.09004
0
LINE
8
BLACK
6
CONTINUOUS
10
0.0966404
20
1.09004
11
0.0989295
21
1.09709
0
LINE
8
BLACK
6
CONTINUOUS
10
0.0989295
20
1.09709
11
0.102633
21
1.1035
0
LINE
8
BLACK
6
CONTINUOUS
10
0.102633
20
1.1035
11
0.10759
21
1.10901
0
LINE
8
BLACK
6
CONTINUOUS
10
0.10759
20
1.10901
11
0.113583
21
1.11336
0
LINE
8
BLACK
6
CONTINUOUS
10
0.113583
20
1.11336
11
0.12035
21
1.11638
0
LINE
8
BLACK
6
CONTINUOUS
10
0.12035
20
1.11638
11
0.127595
21
1.11792
0
LINE
8
BLACK
6
CONTINUOUS
10
0.127595
20
1.11792
11
0.135003
21
1.11792
0
LINE
8
BLACK
6
CONTINUOUS
10
0.135003
20
1.11792
11
0.142249
21
1.11638
0
LINE
8
BLACK
6
CONTINUOUS
10
0.850848
20
1.13857
11
0.853402
21
1.13687
0
LINE
8
BLACK
6
CONTINUOUS
10
0.853402
20
1.13687
11
0.855109
21
1.13431
0
LINE
8
BLACK
6
CONTINUOUS
10
0.855109
20
1.13431
11
0.855709
21
1.1313
0
LINE
8
BLACK
6
CONTINUOUS
10
0.855709
20
1.1313
11
0.855709
21
1.06831
0
LINE
8
BLACK
6
CONTINUOUS
10
0.855709
20
1.06831
11
0.855109
21
1.06529
0
LINE
8
BLACK
6
CONTINUOUS
10
0.855109
20
1.06529
11
0.853402
21
1.06274
0
LINE
8
BLACK
6
CONTINUOUS
10
0.853402
20
1.06274
11
0.850848
21
1.06103
0
LINE
8
BLACK
6
CONTINUOUS
10
0.850848
20
1.06103
11
0.847835
21
1.06043
0
LINE
8
BLACK
6
CONTINUOUS
10
0.847835
20
1.06043
11
0.82815
21
1.06043
0
LINE
8
BLACK
6
CONTINUOUS
10
0.82815
20
1.06043
11
0.825136
21
1.06103
0
LINE
8
BLACK
6
CONTINUOUS
10
0.825136
20
1.06103
11
0.822582
21
1.06274
0
LINE
8
BLACK
6
CONTINUOUS
10
0.822582
20
1.06274
11
0.820875
21
1.06529
0
LINE
8
BLACK
6
CONTINUOUS
10
0.820875
20
1.06529
11
0.820276
21
1.06831
0
LINE
8
BLACK
6
CONTINUOUS
10
0.820276
20
1.06831
11
0.820276
21
1.1313
0
LINE
8
BLACK
6
CONTINUOUS
10
0.820276
20
1.1313
11
0.820875
21
1.13431
0
LINE
8
BLACK
6
CONTINUOUS
10
0.820875
20
1.13431
11
0.822582
21
1.13687
0
LINE
8
BLACK
6
CONTINUOUS
10
0.822582
20
1.13687
11
0.825136
21
1.13857
0
LINE
8
BLACK
6
CONTINUOUS
10
0.825136
20
1.13857
11
0.82815
21
1.13917
0
LINE
8
BLACK
6
CONTINUOUS
10
0.82815
20
1.13917
11
0.847835
21
1.13917
0
LINE
8
BLACK
6
CONTINUOUS
10
0.847835
20
1.13917
11
0.850848
21
1.13857
0
LINE
8
BLACK
6
CONTINUOUS
10
0.787856
20
1.13857
11
0.79041
21
1.13687
0
LINE
8
BLACK
6
CONTINUOUS
10
0.79041
20
1.13687
11
0.792117
21
1.13431
0
LINE
8
BLACK
6
CONTINUOUS
10
0.792117
20
1.13431
11
0.792717
21
1.1313
0
LINE
8
BLACK
6
CONTINUOUS
10
0.792717
20
1.1313
11
0.792717
21
1.06831
0
LINE
8
BLACK
6
CONTINUOUS
10
0.792717
20
1.06831
11
0.792117
21
1.06529
0
LINE
8
BLACK
6
CONTINUOUS
10
0.792117
20
1.06529
11
0.79041
21
1.06274
0
LINE
8
BLACK
6
CONTINUOUS
10
0.79041
20
1.06274
11
0.787856
21
1.06103
0
LINE
8
BLACK
6
CONTINUOUS
10
0.787856
20
1.06103
11
0.784843
21
1.06043
0
LINE
8
BLACK
6
CONTINUOUS
10
0.784843
20
1.06043
11
0.765157
21
1.06043
0
LINE
8
BLACK
6
CONTINUOUS
10
0.765157
20
1.06043
11
0.762144
21
1.06103
0
LINE
8
BLACK
6
CONTINUOUS
10
0.762144
20
1.06103
11
0.75959
21
1.06274
0
LINE
8
BLACK
6
CONTINUOUS
10
0.75959
20
1.06274
11
0.757883
21
1.06529
0
LINE
8
BLACK
6
CONTINUOUS
10
0.757883
20
1.06529
11
0.757283
21
1.06831
0
LINE
8
BLACK
6
CONTINUOUS
10
0.757283
20
1.06831
11
0.757283
21
1.1313
0
LINE
8
BLACK
6
CONTINUOUS
10
0.757283
20
1.1313
11
0.757883
21
1.13431
0
LINE
8
BLACK
6
CONTINUOUS
10
0.757883
20
1.13431
11
0.75959
21
1.13687
0
LINE
8
BLACK
6
CONTINUOUS
10
0.75959
20
1.13687
11
0.762144
21
1.13857
0
LINE
8
BLACK
6
CONTINUOUS
10
0.762144
20
1.13857
11
0.765157
21
1.13917
0
LINE
8
BLACK
6
CONTINUOUS
10
0.765157
20
1.13917
11
0.784843
21
1.13917
0
LINE
8
BLACK
6
CONTINUOUS
10
0.784843
20
1.13917
11
0.787856
21
1.13857
0
LINE
8
BLACK
6
CONTINUOUS
10
0.724864
20
1.13857
11
0.727418
21
1.13687
0
LINE
8
BLACK
6
CONTINUOUS
10
0.727418
20
1.13687
11
0.729125
21
1.13431
0
LINE
8
BLACK
6
CONTINUOUS
10
0.729125
20
1.13431
11
0.729724
21
1.1313
0
LINE
8
BLACK
6
CONTINUOUS
10
0.729724
20
1.1313
11
0.729724
21
1.06831
0
LINE
8
BLACK
6
CONTINUOUS
10
0.729724
20
1.06831
11
0.729125
21
1.06529
0
LINE
8
BLACK
6
CONTINUOUS
10
0.729125
20
1.06529
11
0.727418
21
1.06274
0
LINE
8
BLACK
6
CONTINUOUS
10
0.727418
20
1.06274
11
0.724864
21
1.06103
0
LINE
8
BLACK
6
CONTINUOUS
10
0.724864
20
1.06103
11
0.72185
21
1.06043
0
LINE
8
BLACK
6
CONTINUOUS
10
0.72185
20
1.06043
11
0.702165
21
1.06043
0
LINE
8
BLACK
6
CONTINUOUS
10
0.702165
20
1.06043
11
0.699152
21
1.06103
0
LINE
8
BLACK
6
CONTINUOUS
10
0.699152
20
1.06103
11
0.696598
21
1.06274
0
LINE
8
BLACK
6
CONTINUOUS
10
0.696598
20
1.06274
11
0.694891
21
1.06529
0
LINE
8
BLACK
6
CONTINUOUS
10
0.694891
20
1.06529
11
0.694291
21
1.06831
0
LINE
8
BLACK
6
CONTINUOUS
10
0.694291
20
1.06831
11
0.694291
21
1.1313
0
LINE
8
BLACK
6
CONTINUOUS
10
0.694291
20
1.1313
11
0.694891
21
1.13431
0
LINE
8
BLACK
6
CONTINUOUS
10
0.694891
20
1.13431
11
0.696598
21
1.13687
0
LINE
8
BLACK
6
CONTINUOUS
10
0.696598
20
1.13687
11
0.699152
21
1.13857
0
LINE
8
BLACK
6
CONTINUOUS
10
0.699152
20
1.13857
11
0.702165
21
1.13917
0
LINE
8
BLACK
6
CONTINUOUS
10
0.702165
20
1.13917
11
0.72185
21
1.13917
0
LINE
8
BLACK
6
CONTINUOUS
10
0.72185
20
1.13917
11
0.724864
21
1.13857
0
LINE
8
BLACK
6
CONTINUOUS
10
0.538013
20
1.13812
11
0.540568
21
1.13641
0
LINE
8
BLACK
6
CONTINUOUS
10
0.540568
20
1.13641
11
0.542275
21
1.13386
0
LINE
8
BLACK
6
CONTINUOUS
10
0.542275
20
1.13386
11
0.542874
21
1.13085
0
LINE
8
BLACK
6
CONTINUOUS
10
0.542874
20
1.13085
11
0.542874
21
1.07585
0
LINE
8
BLACK
6
CONTINUOUS
10
0.542874
20
1.07585
11
0.542275
21
1.07283
0
LINE
8
BLACK
6
CONTINUOUS
10
0.542275
20
1.07283
11
0.540568
21
1.07028
0
LINE
8
BLACK
6
CONTINUOUS
10
0.540568
20
1.07028
11
0.538013
21
1.06857
0
LINE
8
BLACK
6
CONTINUOUS
10
0.538013
20
1.06857
11
0.535
21
1.06797
0
LINE
8
BLACK
6
CONTINUOUS
10
0.535
20
1.06797
11
0.5
21
1.06797
0
LINE
8
BLACK
6
CONTINUOUS
10
0.5
20
1.06797
11
0.496987
21
1.06857
0
LINE
8
BLACK
6
CONTINUOUS
10
0.496987
20
1.06857
11
0.494432
21
1.07028
0
LINE
8
BLACK
6
CONTINUOUS
10
0.494432
20
1.07028
11
0.492725
21
1.07283
0
LINE
8
BLACK
6
CONTINUOUS
10
0.492725
20
1.07283
11
0.492126
21
1.07585
0
LINE
8
BLACK
6
CONTINUOUS
10
0.492126
20
1.07585
11
0.492126
21
1.13085
0
LINE
8
BLACK
6
CONTINUOUS
10
0.492126
20
1.13085
11
0.492725
21
1.13386
0
LINE
8
BLACK
6
CONTINUOUS
10
0.492725
20
1.13386
11
0.494432
21
1.13641
0
LINE
8
BLACK
6
CONTINUOUS
10
0.494432
20
1.13641
11
0.496987
21
1.13812
0
LINE
8
BLACK
6
CONTINUOUS
10
0.496987
20
1.13812
11
0.5
21
1.13872
0
LINE
8
BLACK
6
CONTINUOUS
10
0.5
20
1.13872
11
0.535
21
1.13872
0
LINE
8
BLACK
6
CONTINUOUS
10
0.535
20
1.13872
11
0.538013
21
1.13812
0
LINE
8
BLACK
6
CONTINUOUS
10
0.613013
20
1.13812
11
0.615568
21
1.13641
0
LINE
8
BLACK
6
CONTINUOUS
10
0.615568
20
1.13641
11
0.617275
21
1.13386
0
LINE
8
BLACK
6
CONTINUOUS
10
0.617275
20
1.13386
11
0.617874
21
1.13085
0
LINE
8
BLACK
6
CONTINUOUS
10
0.617874
20
1.13085
11
0.617874
21
1.07585
0
LINE
8
BLACK
6
CONTINUOUS
10
0.617874
20
1.07585
11
0.617275
21
1.07283
0
LINE
8
BLACK
6
CONTINUOUS
10
0.617275
20
1.07283
11
0.615568
21
1.07028
0
LINE
8
BLACK
6
CONTINUOUS
10
0.615568
20
1.07028
11
0.613013
21
1.06857
0
LINE
8
BLACK
6
CONTINUOUS
10
0.613013
20
1.06857
11
0.61
21
1.06797
0
LINE
8
BLACK
6
CONTINUOUS
10
0.61
20
1.06797
11
0.575
21
1.06797
0
LINE
8
BLACK
6
CONTINUOUS
10
0.575
20
1.06797
11
0.571987
21
1.06857
0
LINE
8
BLACK
6
CONTINUOUS
10
0.571987
20
1.06857
11
0.569432
21
1.07028
0
LINE
8
BLACK
6
CONTINUOUS
10
0.569432
20
1.07028
11
0.567725
21
1.07283
0
LINE
8
BLACK
6
CONTINUOUS
10
0.567725
20
1.07283
11
0.567126
21
1.07585
0
LINE
8
BLACK
6
CONTINUOUS
10
0.567126
20
1.07585
11
0.567126
21
1.13085
0
LINE
8
BLACK
6
CONTINUOUS
10
0.567126
20
1.13085
11
0.567725
21
1.13386
0
LINE
8
BLACK
6
CONTINUOUS
10
0.567725
20
1.13386
11
0.569432
21
1.13641
0
LINE
8
BLACK
6
CONTINUOUS
10
0.569432
20
1.13641
11
0.571987
21
1.13812
0
LINE
8
BLACK
6
CONTINUOUS
10
0.571987
20
1.13812
11
0.575
21
1.13872
0
LINE
8
BLACK
6
CONTINUOUS
10
0.575
20
1.13872
11
0.61
21
1.13872
0
LINE
8
BLACK
6
CONTINUOUS
10
0.61
20
1.13872
11
0.613013
21
1.13812
0
LINE
8
BLACK
6
CONTINUOUS
10
1.21051
20
1.14312
11
1.21307
21
1.14141
0
LINE
8
BLACK
6
CONTINUOUS
10
1.21307
20
1.14141
11
1.21477
21
1.13886
0
LINE
8
BLACK
6
CONTINUOUS
10
1.21477
20
1.13886
11
1.21537
21
1.13585
0
LINE
8
BLACK
6
CONTINUOUS
10
1.21537
20
1.13585
11
1.21537
21
1.08085
0
LINE
8
BLACK
6
CONTINUOUS
10
1.21537
20
1.08085
11
1.21477
21
1.07783
0
LINE
8
BLACK
6
CONTINUOUS
10
1.21477
20
1.07783
11
1.21307
21
1.07528
0
LINE
8
BLACK
6
CONTINUOUS
10
1.21307
20
1.07528
11
1.21051
21
1.07357
0
LINE
8
BLACK
6
CONTINUOUS
10
1.21051
20
1.07357
11
1.2075
21
1.07297
0
LINE
8
BLACK
6
CONTINUOUS
10
1.2075
20
1.07297
11
1.1725
21
1.07297
0
LINE
8
BLACK
6
CONTINUOUS
10
1.1725
20
1.07297
11
1.16949
21
1.07357
0
LINE
8
BLACK
6
CONTINUOUS
10
1.16949
20
1.07357
11
1.16693
21
1.07528
0
LINE
8
BLACK
6
CONTINUOUS
10
1.16693
20
1.07528
11
1.16523
21
1.07783
0
LINE
8
BLACK
6
CONTINUOUS
10
1.16523
20
1.07783
11
1.16463
21
1.08085
0
LINE
8
BLACK
6
CONTINUOUS
10
1.16463
20
1.08085
11
1.16463
21
1.13585
0
LINE
8
BLACK
6
CONTINUOUS
10
1.16463
20
1.13585
11
1.16523
21
1.13886
0
LINE
8
BLACK
6
CONTINUOUS
10
1.16523
20
1.13886
11
1.16693
21
1.14141
0
LINE
8
BLACK
6
CONTINUOUS
10
1.16693
20
1.14141
11
1.16949
21
1.14312
0
LINE
8
BLACK
6
CONTINUOUS
10
1.16949
20
1.14312
11
1.1725
21
1.14372
0
LINE
8
BLACK
6
CONTINUOUS
10
1.1725
20
1.14372
11
1.2075
21
1.14372
0
LINE
8
BLACK
6
CONTINUOUS
10
1.2075
20
1.14372
11
1.21051
21
1.14312
0
LINE
8
BLACK
6
CONTINUOUS
10
1.13551
20
1.14312
11
1.13807
21
1.14141
0
LINE
8
BLACK
6
CONTINUOUS
10
1.13807
20
1.14141
11
1.13977
21
1.13886
0
LINE
8
BLACK
6
CONTINUOUS
10
1.13977
20
1.13886
11
1.14037
21
1.13585
0
LINE
8
BLACK
6
CONTINUOUS
10
1.14037
20
1.13585
11
1.14037
21
1.08085
0
LINE
8
BLACK
6
CONTINUOUS
10
1.14037
20
1.08085
11
1.13977
21
1.07783
0
LINE
8
BLACK
6
CONTINUOUS
10
1.13977
20
1.07783
11
1.13807
21
1.07528
0
LINE
8
BLACK
6
CONTINUOUS
10
1.13807
20
1.07528
11
1.13551
21
1.07357
0
LINE
8
BLACK
6
CONTINUOUS
10
1.13551
20
1.07357
11
1.1325
21
1.07297
0
LINE
8
BLACK
6
CONTINUOUS
10
1.1325
20
1.07297
11
1.0975
21
1.07297
0
LINE
8
BLACK
6
CONTINUOUS
10
1.0975
20
1.07297
11
1.09449
21
1.07357
0
LINE
8
BLACK
6
CONTINUOUS
10
1.09449
20
1.07357
11
1.09193
21
1.07528
0
LINE
8
BLACK
6
CONTINUOUS
10
1.09193
20
1.07528
11
1.09023
21
1.07783
0
LINE
8
BLACK
6
CONTINUOUS
10
1.09023
20
1.07783
11
1.08963
21
1.08085
0
LINE
8
BLACK
6
CONTINUOUS
10
1.08963
20
1.08085
11
1.08963
21
1.13585
0
LINE
8
BLACK
6
CONTINUOUS
10
1.08963
20
1.13585
11
1.09023
21
1.13886
0
LINE
8
BLACK
6
CONTINUOUS
10
1.09023
20
1.13886
11
1.09193
21
1.14141
0
LINE
8
BLACK
6
CONTINUOUS
10
1.09193
20
1.14141
11
1.09449
21
1.14312
0
LINE
8
BLACK
6
CONTINUOUS
10
1.09449
20
1.14312
11
1.0975
21
1.14372
0
LINE
8
BLACK
6
CONTINUOUS
10
1.0975
20
1.14372
11
1.1325
21
1.14372
0
LINE
8
BLACK
6
CONTINUOUS
10
1.1325
20
1.14372
11
1.13551
21
1.14312
0
LINE
8
BLACK
6
CONTINUOUS
10
1.05801
20
1.14312
11
1.06057
21
1.14141
0
LINE
8
BLACK
6
CONTINUOUS
10
1.06057
20
1.14141
11
1.06227
21
1.13886
0
LINE
8
BLACK
6
CONTINUOUS
10
1.06227
20
1.13886
11
1.06287
21
1.13585
0
LINE
8
BLACK
6
CONTINUOUS
10
1.06287
20
1.13585
11
1.06287
21
1.08085
0
LINE
8
BLACK
6
CONTINUOUS
10
1.06287
20
1.08085
11
1.06227
21
1.07783
0
LINE
8
BLACK
6
CONTINUOUS
10
1.06227
20
1.07783
11
1.06057
21
1.07528
0
LINE
8
BLACK
6
CONTINUOUS
10
1.06057
20
1.07528
11
1.05801
21
1.07357
0
LINE
8
BLACK
6
CONTINUOUS
10
1.05801
20
1.07357
11
1.055
21
1.07297
0
LINE
8
BLACK
6
CONTINUOUS
10
1.055
20
1.07297
11
1.02
21
1.07297
0
LINE
8
BLACK
6
CONTINUOUS
10
1.02
20
1.07297
11
1.01699
21
1.07357
0
LINE
8
BLACK
6
CONTINUOUS
10
1.01699
20
1.07357
11
1.01443
21
1.07528
0
LINE
8
BLACK
6
CONTINUOUS
10
1.01443
20
1.07528
11
1.01273
21
1.07783
0
LINE
8
BLACK
6
CONTINUOUS
10
1.01273
20
1.07783
11
1.01213
21
1.08085
0
LINE
8
BLACK
6
CONTINUOUS
10
1.01213
20
1.08085
11
1.01213
21
1.13585
0
LINE
8
BLACK
6
CONTINUOUS
10
1.01213
20
1.13585
11
1.01273
21
1.13886
0
LINE
8
BLACK
6
CONTINUOUS
10
1.01273
20
1.13886
11
1.01443
21
1.14141
0
LINE
8
BLACK
6
CONTINUOUS
10
1.01443
20
1.14141
11
1.01699
21
1.14312
0
LINE
8
BLACK
6
CONTINUOUS
10
1.01699
20
1.14312
11
1.02
21
1.14372
0
LINE
8
BLACK
6
CONTINUOUS
10
1.02
20
1.14372
11
1.055
21
1.14372
0
LINE
8
BLACK
6
CONTINUOUS
10
1.055
20
1.14372
11
1.05801
21
1.14312
0
LINE
8
BLACK
6
CONTINUOUS
10
0.983013
20
1.14312
11
0.985568
21
1.14141
0
LINE
8
BLACK
6
CONTINUOUS
10
0.985568
20
1.14141
11
0.987275
21
1.13886
0
LINE
8
BLACK
6
CONTINUOUS
10
0.987275
20
1.13886
11
0.987874
21
1.13585
0
LINE
8
BLACK
6
CONTINUOUS
10
0.987874
20
1.13585
11
0.987874
21
1.08085
0
LINE
8
BLACK
6
CONTINUOUS
10
0.987874
20
1.08085
11
0.987275
21
1.07783
0
LINE
8
BLACK
6
CONTINUOUS
10
0.987275
20
1.07783
11
0.985568
21
1.07528
0
LINE
8
BLACK
6
CONTINUOUS
10
0.985568
20
1.07528
11
0.983013
21
1.07357
0
LINE
8
BLACK
6
CONTINUOUS
10
0.983013
20
1.07357
11
0.98
21
1.07297
0
LINE
8
BLACK
6
CONTINUOUS
10
0.98
20
1.07297
11
0.945
21
1.07297
0
LINE
8
BLACK
6
CONTINUOUS
10
0.945
20
1.07297
11
0.941987
21
1.07357
0
LINE
8
BLACK
6
CONTINUOUS
10
0.941987
20
1.07357
11
0.939432
21
1.07528
0
LINE
8
BLACK
6
CONTINUOUS
10
0.939432
20
1.07528
11
0.937725
21
1.07783
0
LINE
8
BLACK
6
CONTINUOUS
10
0.937725
20
1.07783
11
0.937126
21
1.08085
0
LINE
8
BLACK
6
CONTINUOUS
10
0.937126
20
1.08085
11
0.937126
21
1.13585
0
LINE
8
BLACK
6
CONTINUOUS
10
0.937126
20
1.13585
11
0.937725
21
1.13886
0
LINE
8
BLACK
6
CONTINUOUS
10
0.937725
20
1.13886
11
0.939432
21
1.14141
0
LINE
8
BLACK
6
CONTINUOUS
10
0.939432
20
1.14141
11
0.941987
21
1.14312
0
LINE
8
BLACK
6
CONTINUOUS
10
0.941987
20
1.14312
11
0.945
21
1.14372
0
LINE
8
BLACK
6
CONTINUOUS
10
0.945
20
1.14372
11
0.98
21
1.14372
0
LINE
8
BLACK
6
CONTINUOUS
10
0.98
20
1.14372
11
0.983013
21
1.14312
0
LINE
8
BLACK
6
CONTINUOUS
10
1.75978
20
1.13311
11
1.76475
21
1.13137
0
LINE
8
BLACK
6
CONTINUOUS
10
1.76475
20
1.13137
11
1.76898
21
1.12824
0
LINE
8
BLACK
6
CONTINUOUS
10
1.76898
20
1.12824
11
1.77211
21
1.124
0
LINE
8
BLACK
6
CONTINUOUS
10
1.77211
20
1.124
11
1.77386
21
1.11903
0
LINE
8
BLACK
6
CONTINUOUS
10
1.77386
20
1.11903
11
1.77417
21
1.11571
0
LINE
8
BLACK
6
CONTINUOUS
10
1.77417
20
1.11571
11
1.77417
21
1.09602
0
LINE
8
BLACK
6
CONTINUOUS
10
1.77417
20
1.09602
11
1.77386
21
1.0927
0
LINE
8
BLACK
6
CONTINUOUS
10
1.77386
20
1.0927
11
1.77211
21
1.08773
0
LINE
8
BLACK
6
CONTINUOUS
10
1.77211
20
1.08773
11
1.76898
21
1.0835
0
LINE
8
BLACK
6
CONTINUOUS
10
1.76898
20
1.0835
11
1.76475
21
1.08037
0
LINE
8
BLACK
6
CONTINUOUS
10
1.76475
20
1.08037
11
1.75978
21
1.07862
0
LINE
8
BLACK
6
CONTINUOUS
10
1.75978
20
1.07862
11
1.75646
21
1.07831
0
LINE
8
BLACK
6
CONTINUOUS
10
1.75646
20
1.07831
11
1.66984
21
1.07831
0
LINE
8
BLACK
6
CONTINUOUS
10
1.66984
20
1.07831
11
1.66652
21
1.07862
0
LINE
8
BLACK
6
CONTINUOUS
10
1.66652
20
1.07862
11
1.66155
21
1.08037
0
LINE
8
BLACK
6
CONTINUOUS
10
1.66155
20
1.08037
11
1.65732
21
1.0835
0
LINE
8
BLACK
6
CONTINUOUS
10
1.65732
20
1.0835
11
1.65419
21
1.08773
0
LINE
8
BLACK
6
CONTINUOUS
10
1.65419
20
1.08773
11
1.65244
21
1.0927
0
LINE
8
BLACK
6
CONTINUOUS
10
1.65244
20
1.0927
11
1.65213
21
1.09602
0
LINE
8
BLACK
6
CONTINUOUS
10
1.65213
20
1.09602
11
1.65213
21
1.11571
0
LINE
8
BLACK
6
CONTINUOUS
10
1.65213
20
1.11571
11
1.65244
21
1.11903
0
LINE
8
BLACK
6
CONTINUOUS
10
1.65244
20
1.11903
11
1.65419
21
1.124
0
LINE
8
BLACK
6
CONTINUOUS
10
1.65419
20
1.124
11
1.65732
21
1.12824
0
LINE
8
BLACK
6
CONTINUOUS
10
1.65732
20
1.12824
11
1.66155
21
1.13137
0
LINE
8
BLACK
6
CONTINUOUS
10
1.66155
20
1.13137
11
1.66652
21
1.13311
0
LINE
8
BLACK
6
CONTINUOUS
10
1.66652
20
1.13311
11
1.66984
21
1.13343
0
LINE
8
BLACK
6
CONTINUOUS
10
1.66984
20
1.13343
11
1.75646
21
1.13343
0
LINE
8
BLACK
6
CONTINUOUS
10
1.75646
20
1.13343
11
1.75978
21
1.13311
  0
ENDSEC
  0
EOF
