  0
SECTION
  2
HEADER
  9
$ANGBASE
  50
0.0
  9
$ANGDIR
  70
1
  9
$MEASUREMENT
  70
0
  0
ENDSEC
  0
SECTION
  2
TABLES
  0
TABLE
  2
LTYPE
  70
4
  0
LTYPE
  5
40F
  2
CONTINUOUS
  70
0
  3
Solid line
  72
65
  73
0
  40
0.0
  0
LTYPE
  5
410
  2
DASHDOT
 70
0
  3
Dash Dot ____ _ ____ _
 72
65
 73
4
 40
2.0
 49
1.25
 49
-0.25
 49
0.25
 49
-0.25
  0
LTYPE
  5
411
  2
DASHED
 70
0
  3
Dashed __ __ __ __ __
 72
65
 73
2
 40
0.75
 49
0.5
 49
-0.25
  0
LTYPE
  5
43B
  2
DOTTED
 70
0
  3
Dotted .  .  .  .
 72
65
 73
2
 40
0.2
 49
0.0
 49
-0.2
  0
ENDTAB
  0
TABLE
  2
STYLE
  70
4
  0
STYLE
  2
KICAD
  70
0
  40
0
  41
1
  42
1
  50
0
  71
0
  3
isocp.shx
  0
STYLE
  2
KICADB
  70
0
  40
0
  41
1
  42
1
  50
0
  71
0
  3
isocp.shx
  0
STYLE
  2
KICADI
  70
0
  40
0
  41
1
  42
1
  50
15
  71
0
  3
isocp.shx
  0
STYLE
  2
KICADBI
  70
0
  40
0
  41
1
  42
1
  50
15
  71
0
  3
isocp.shx
  0
ENDTAB
  0
TABLE
  2
LAYER
  70
1
  0
LAYER
  2
BLACK
  70
0
  62
7
  6
CONTINUOUS
  0
ENDTAB
  0
ENDSEC
  0
SECTION
  2
ENTITIES
0
LINE
8
BLACK
6
CONTINUOUS
10
1.77461
20
1.05984
11
1.77461
21
0.672441
0
LINE
8
BLACK
6
CONTINUOUS
10
1.77461
20
0.672441
11
1.77432
21
0.671745
0
LINE
8
BLACK
6
CONTINUOUS
10
1.77432
20
0.671745
11
1.77362
21
0.671457
0
LINE
8
BLACK
6
CONTINUOUS
10
1.77362
20
0.671457
11
1.53839
21
0.671457
0
LINE
8
BLACK
6
CONTINUOUS
10
1.53839
20
0.671457
11
1.53839
21
0.584646
0
LINE
8
BLACK
6
CONTINUOUS
10
1.53839
20
0.584646
11
1.5381
21
0.58395
0
LINE
8
BLACK
6
CONTINUOUS
10
1.5381
20
0.58395
11
1.5374
21
0.583661
0
LINE
8
BLACK
6
CONTINUOUS
10
1.5374
20
0.583661
11
1.1122
21
0.583661
0
LINE
8
BLACK
6
CONTINUOUS
10
1.1122
20
0.583661
11
1.11151
21
0.58395
0
LINE
8
BLACK
6
CONTINUOUS
10
1.11151
20
0.58395
11
1.11122
21
0.584646
0
LINE
8
BLACK
6
CONTINUOUS
10
1.11122
20
0.584646
11
1.11122
21
1.14764
0
LINE
8
BLACK
6
CONTINUOUS
10
1.11122
20
1.14764
11
1.11151
21
1.14833
0
LINE
8
BLACK
6
CONTINUOUS
10
1.11151
20
1.14833
11
1.1122
21
1.14862
0
LINE
8
BLACK
6
CONTINUOUS
10
1.1122
20
1.14862
11
1.5374
21
1.14862
0
LINE
8
BLACK
6
CONTINUOUS
10
1.5374
20
1.14862
11
1.5381
21
1.14833
0
LINE
8
BLACK
6
CONTINUOUS
10
1.5381
20
1.14833
11
1.53839
21
1.14764
0
LINE
8
BLACK
6
CONTINUOUS
10
1.53839
20
1.14764
11
1.53839
21
1.06083
0
LINE
8
BLACK
6
CONTINUOUS
10
1.53839
20
1.06083
11
1.77362
21
1.06083
0
LINE
8
BLACK
6
CONTINUOUS
10
1.77362
20
1.06083
11
1.77432
21
1.06054
0
LINE
8
BLACK
6
CONTINUOUS
10
1.77432
20
1.06054
11
1.77461
21
1.05984
0
LINE
8
BLACK
6
CONTINUOUS
10
1.11319
20
1.14665
11
1.11319
21
0.58563
0
LINE
8
BLACK
6
CONTINUOUS
10
1.11319
20
0.58563
11
1.53642
21
0.58563
0
LINE
8
BLACK
6
CONTINUOUS
10
1.53642
20
0.58563
11
1.53642
21
0.672441
0
LINE
8
BLACK
6
CONTINUOUS
10
1.53642
20
0.672441
11
1.53671
21
0.673137
0
LINE
8
BLACK
6
CONTINUOUS
10
1.53671
20
0.673137
11
1.5374
21
0.673425
0
LINE
8
BLACK
6
CONTINUOUS
10
1.5374
20
0.673425
11
1.77264
21
0.673425
0
LINE
8
BLACK
6
CONTINUOUS
10
1.77264
20
0.673425
11
1.77264
21
1.05886
0
LINE
8
BLACK
6
CONTINUOUS
10
1.77264
20
1.05886
11
1.5374
21
1.05886
0
LINE
8
BLACK
6
CONTINUOUS
10
1.5374
20
1.05886
11
1.53671
21
1.05915
0
LINE
8
BLACK
6
CONTINUOUS
10
1.53671
20
1.05915
11
1.53642
21
1.05984
0
LINE
8
BLACK
6
CONTINUOUS
10
1.53642
20
1.05984
11
1.53642
21
1.14665
0
LINE
8
BLACK
6
CONTINUOUS
10
1.53642
20
1.14665
11
1.11319
21
1.14665
0
LINE
8
BLACK
6
CONTINUOUS
10
-0.0111291
20
0.58395
11
-0.0114173
21
0.584646
0
LINE
8
BLACK
6
CONTINUOUS
10
-0.0114173
20
0.584646
11
-0.0114173
21
1.14764
0
LINE
8
BLACK
6
CONTINUOUS
10
-0.0114173
20
1.14764
11
-0.0111291
21
1.14833
0
LINE
8
BLACK
6
CONTINUOUS
10
-0.0111291
20
1.14833
11
-0.0104331
21
1.14862
0
LINE
8
BLACK
6
CONTINUOUS
10
-0.0104331
20
1.14862
11
0.613583
21
1.14862
0
LINE
8
BLACK
6
CONTINUOUS
10
0.613583
20
1.14862
11
0.614279
21
1.14833
0
LINE
8
BLACK
6
CONTINUOUS
10
0.614279
20
1.14833
11
0.614567
21
1.14764
0
LINE
8
BLACK
6
CONTINUOUS
10
0.614567
20
1.14764
11
0.614567
21
0.584646
0
LINE
8
BLACK
6
CONTINUOUS
10
0.614567
20
0.584646
11
0.614279
21
0.58395
0
LINE
8
BLACK
6
CONTINUOUS
10
0.614279
20
0.58395
11
0.613583
21
0.583661
0
LINE
8
BLACK
6
CONTINUOUS
10
0.613583
20
0.583661
11
-0.0104331
21
0.583661
0
LINE
8
BLACK
6
CONTINUOUS
10
-0.0104331
20
0.583661
11
-0.0111291
21
0.58395
0
LINE
8
BLACK
6
CONTINUOUS
10
-0.00944882
20
1.14665
11
-0.00944882
21
0.58563
0
LINE
8
BLACK
6
CONTINUOUS
10
-0.00944882
20
0.58563
11
0.612598
21
0.58563
0
LINE
8
BLACK
6
CONTINUOUS
10
0.612598
20
0.58563
11
0.612598
21
1.14665
0
LINE
8
BLACK
6
CONTINUOUS
10
0.612598
20
1.14665
11
-0.00944882
21
1.14665
  0
ENDSEC
  0
EOF
